<svg width="328" height="195" viewBox="0 0 328 195" fill="none" xmlns="http://www.w3.org/2000/svg">
<rect width="328" height="195" rx="24" fill="#F5F6F8"/>
<path d="M25.96 33.324H30.832V45.084L37.832 33.324H42.788V52H37.916V40.24L30.916 52H25.96V33.324ZM47.1899 43.348L45.7059 40.436C46.3592 40.0813 47.0499 39.792 47.7779 39.568C48.8792 39.232 49.9432 39.064 50.9699 39.064C53.0232 39.064 54.5166 39.5307 55.4499 40.464C56.0472 41.0613 56.3459 41.7987 56.3459 42.676C56.3459 43.4413 56.1406 44.0667 55.7299 44.552C55.3939 44.944 54.9739 45.252 54.4699 45.476V45.532C55.1606 45.644 55.7392 45.9333 56.2059 46.4C56.7099 46.904 56.9619 47.548 56.9619 48.332C56.9619 49.4147 56.5792 50.32 55.8139 51.048C54.8806 51.9627 53.2752 52.42 50.9979 52.42C49.8406 52.42 48.7579 52.2613 47.7499 51.944C46.8912 51.6827 46.0606 51.3 45.2579 50.796L46.9099 47.688C47.4139 48.08 47.9366 48.3973 48.4779 48.64C49.0939 48.9013 49.7472 49.032 50.4379 49.032C50.9979 49.032 51.4459 48.9573 51.7819 48.808C52.1739 48.6213 52.3699 48.3413 52.3699 47.968C52.3699 47.6507 52.2019 47.4173 51.8659 47.268C51.5859 47.1373 51.1006 47.072 50.4099 47.072H48.8699V44.16H50.1299C50.7086 44.16 51.1752 44.0947 51.5299 43.964C51.9219 43.8333 52.1179 43.5907 52.1179 43.236C52.1179 42.9 51.9406 42.6573 51.5859 42.508C51.2872 42.3587 50.8579 42.284 50.2979 42.284C49.7379 42.284 49.1686 42.396 48.5899 42.62C48.0672 42.8067 47.6006 43.0493 47.1899 43.348ZM66.3102 42.872C65.5449 42.872 64.8729 43.1427 64.2942 43.684C63.7155 44.2253 63.4262 44.9067 63.4262 45.728C63.4262 46.4747 63.7155 47.1373 64.2942 47.716C64.8542 48.276 65.5262 48.556 66.3102 48.556C67.0755 48.556 67.7382 48.276 68.2982 47.716C68.8769 47.1747 69.1662 46.512 69.1662 45.728C69.1662 44.944 68.8769 44.2627 68.2982 43.684C67.7195 43.1427 67.0569 42.872 66.3102 42.872ZM71.8822 41.136C73.1702 42.3867 73.8142 43.9173 73.8142 45.728C73.8142 47.5387 73.1702 49.0787 71.8822 50.348C70.4822 51.7293 68.6155 52.42 66.2822 52.42C63.9675 52.42 62.1102 51.7293 60.7102 50.348C59.4222 49.0787 58.7782 47.5387 58.7782 45.728C58.7782 43.9173 59.4222 42.3867 60.7102 41.136C62.1289 39.7547 63.9862 39.064 66.2822 39.064C68.5595 39.064 70.4262 39.7547 71.8822 41.136ZM79.8154 40.828H80.0114C80.982 39.6893 82.3914 39.12 84.2394 39.12C86.274 39.12 87.926 39.708 89.1954 40.884C90.3714 41.9853 90.9594 43.4973 90.9594 45.42C90.9594 47.436 90.3154 49.088 89.0274 50.376C87.6647 51.7387 85.798 52.42 83.4274 52.42C81.1127 52.42 79.3114 51.7573 78.0234 50.432C76.6047 48.976 75.8954 46.7827 75.8954 43.852C75.8954 40.1 76.7914 37.2907 78.5834 35.424C79.1994 34.808 79.89 34.3227 80.6554 33.968C81.4394 33.6133 82.4474 33.3147 83.6794 33.072L84.4914 32.904C85.4807 32.7173 86.1154 32.484 86.3954 32.204C86.638 31.924 86.7594 31.616 86.7594 31.28H90.6514C90.5207 32.2507 90.138 33.156 89.5034 33.996C88.906 34.78 88.0474 35.3773 86.9274 35.788C86.5167 35.9373 85.434 36.2547 83.6794 36.74C82.3914 37.0947 81.4767 37.552 80.9354 38.112C80.282 38.8213 79.9087 39.7267 79.8154 40.828ZM83.4274 42.816C82.6807 42.816 82.0367 43.0587 81.4954 43.544C80.8607 44.104 80.5434 44.8133 80.5434 45.672C80.5434 46.5307 80.8607 47.2493 81.4954 47.828C82.0367 48.3133 82.6807 48.556 83.4274 48.556C84.1927 48.556 84.8367 48.3133 85.3594 47.828C85.994 47.2307 86.3114 46.4747 86.3114 45.56C86.3114 44.776 85.994 44.104 85.3594 43.544C84.7994 43.0587 84.1554 42.816 83.4274 42.816ZM98.0239 50.796V58.412H93.5439V39.484H98.0239V40.856C98.9759 39.6613 100.255 39.064 101.86 39.064C103.615 39.064 105.099 39.6707 106.312 40.884C107.581 42.1533 108.216 43.768 108.216 45.728C108.216 47.7253 107.544 49.3773 106.2 50.684C105.024 51.8413 103.596 52.42 101.916 52.42C100.367 52.42 99.0692 51.8787 98.0239 50.796ZM100.768 42.872C99.9839 42.872 99.3119 43.152 98.7519 43.712C98.1732 44.2907 97.8839 44.9813 97.8839 45.784C97.8839 46.5307 98.1732 47.1933 98.7519 47.772C99.3119 48.332 99.9839 48.612 100.768 48.612C101.571 48.612 102.233 48.332 102.756 47.772C103.335 47.1933 103.624 46.5307 103.624 45.784C103.624 44.9813 103.335 44.2907 102.756 43.712C102.233 43.152 101.571 42.872 100.768 42.872ZM120.486 40.688V39.484H124.966V52H120.486V50.628C119.627 51.8227 118.33 52.42 116.594 52.42C114.839 52.42 113.336 51.7573 112.086 50.432C110.891 49.1627 110.294 47.632 110.294 45.84C110.294 43.7867 110.938 42.116 112.226 40.828C113.402 39.652 114.904 39.064 116.734 39.064C118.264 39.064 119.515 39.6053 120.486 40.688ZM117.742 42.872C116.995 42.872 116.342 43.1427 115.782 43.684C115.184 44.2627 114.886 44.944 114.886 45.728C114.886 46.5493 115.175 47.2307 115.754 47.772C116.351 48.332 117.023 48.612 117.77 48.612C118.535 48.612 119.207 48.3227 119.786 47.744C120.346 47.184 120.626 46.512 120.626 45.728C120.626 44.9253 120.336 44.244 119.758 43.684C119.179 43.1427 118.507 42.872 117.742 42.872ZM135.752 52V46.568L132.028 52H126.54L131.636 45.476L127.296 39.484H132.392L135.752 44.72V39.484H140.176V44.72L143.536 39.484H148.632L144.292 45.476L149.388 52H143.9L140.176 46.568V52H135.752ZM163.691 46.092V46.568H154.367C154.367 47.4453 154.628 48.1453 155.151 48.668C155.562 49.0787 156.178 49.284 156.999 49.284C157.559 49.284 158.044 49.172 158.455 48.948C158.81 48.7427 159.071 48.4627 159.239 48.108H163.523C163.243 49.116 162.739 49.9747 162.011 50.684C160.816 51.8413 159.118 52.42 156.915 52.42C154.731 52.42 153.004 51.7853 151.735 50.516C150.503 49.284 149.887 47.7067 149.887 45.784C149.887 43.768 150.512 42.1533 151.763 40.94C153.014 39.7267 154.722 39.12 156.887 39.12C158.884 39.12 160.49 39.6893 161.703 40.828C163.028 42.0973 163.691 43.852 163.691 46.092ZM154.507 43.992H159.575C159.444 43.4507 159.202 43.0027 158.847 42.648C158.399 42.2 157.783 41.976 156.999 41.976C156.234 41.976 155.627 42.2 155.179 42.648C154.806 43.0587 154.582 43.5067 154.507 43.992ZM166.278 52V39.484H170.758V43.712H174.93V39.484H179.41V52H174.93V47.24H170.758V52H166.278ZM182.493 39.484H186.973V45.924L191.929 39.484H195.821V52H191.341V45.392L186.441 52H182.493V39.484ZM198.143 52L201.615 47.632C200.757 47.464 200.029 47.1 199.431 46.54C198.778 45.8867 198.451 44.9907 198.451 43.852C198.451 42.6013 198.825 41.584 199.571 40.8C200.393 39.9227 201.811 39.484 203.827 39.484H210.435V52H205.955V48.024H205.591L202.847 52H198.143ZM205.955 45.28V42.396H204.611C203.958 42.396 203.491 42.5267 203.211 42.788C202.95 43.0493 202.819 43.404 202.819 43.852C202.819 44.3187 202.959 44.6733 203.239 44.916C203.538 45.1587 203.977 45.28 204.555 45.28H205.955Z" fill="#0B1530"/>
<path d="M114.393 167.141H212.607C217.538 167.141 221.536 163.144 221.536 158.213V86.784C221.536 81.8529 217.538 77.8555 212.607 77.8555H114.393C109.462 77.8555 105.464 81.8529 105.464 86.784V158.213C105.464 163.144 109.462 167.141 114.393 167.141Z" fill="#C1D3FD"/>
<path d="M185.837 115.462C191.978 115.462 196.956 110.485 196.956 104.344C196.956 98.2042 191.978 93.2266 185.837 93.2266C179.697 93.2266 174.72 98.2042 174.72 104.344C174.72 110.485 179.697 115.462 185.837 115.462Z" fill="white"/>
<path d="M114.393 167.141H212.607C217.538 167.141 221.536 163.144 221.536 158.213V86.784C221.536 81.8529 217.538 77.8555 212.607 77.8555H114.393C109.462 77.8555 105.464 81.8529 105.464 86.784V158.213C105.464 163.144 109.462 167.141 114.393 167.141Z" stroke="#457BF8" stroke-linecap="round" stroke-linejoin="round"/>
<path d="M185.838 115.462C191.978 115.462 196.956 110.485 196.956 104.344C196.956 98.2042 191.978 93.2266 185.838 93.2266C179.698 93.2266 174.72 98.2042 174.72 104.344C174.72 110.485 179.698 115.462 185.838 115.462Z" stroke="#457BF8" stroke-linecap="round" stroke-linejoin="round"/>
<path d="M182.096 167.143H114.393C109.462 167.143 105.464 163.145 105.464 158.214V116.686C109.721 115.873 114.046 115.469 118.38 115.481C133.401 115.141 148.053 120.15 159.724 129.612C171.394 139.075 179.323 152.376 182.096 167.143Z" fill="white"/>
<path d="M221.536 139.826C214.503 137.451 207.13 136.242 199.706 136.246C190.311 136.226 181.01 138.128 172.376 141.835V143.438C177.16 150.541 180.491 158.596 182.096 167.141H212.607C217.539 167.141 221.536 163.144 221.536 158.213V139.826Z" fill="white"/>
<path d="M182.096 167.143H114.393C109.462 167.143 105.464 163.145 105.464 158.214V116.686C109.721 115.873 114.046 115.469 118.38 115.481C133.401 115.141 148.053 120.15 159.724 129.612C171.394 139.075 179.323 152.376 182.096 167.143Z" stroke="#457BF8" stroke-linecap="round" stroke-linejoin="round"/>
<path d="M221.536 139.826C214.503 137.451 207.13 136.242 199.706 136.246C190.311 136.226 181.01 138.128 172.376 141.835V143.438C177.16 150.541 180.491 158.596 182.096 167.141H212.607C217.539 167.141 221.536 163.144 221.536 158.213V139.826Z" stroke="#457BF8" stroke-linecap="round" stroke-linejoin="round"/>
</svg>
