<svg width="328" height="195" viewBox="0 0 328 195" fill="none" xmlns="http://www.w3.org/2000/svg">
<rect width="328" height="195" rx="24" fill="#EAF0FE"/>
<path d="M27.668 38.476L25.792 34.92C26.52 34.416 27.3787 33.9773 28.368 33.604C29.6373 33.1373 30.9533 32.904 32.316 32.904C34.5 32.904 36.1707 33.464 37.328 34.584C38.2613 35.4613 38.728 36.6373 38.728 38.112C38.728 39.1387 38.4573 40.0347 37.916 40.8C37.468 41.4533 36.8893 41.948 36.18 42.284V42.368C37.0013 42.6293 37.692 43.0213 38.252 43.544C39.148 44.4027 39.596 45.448 39.596 46.68C39.596 48.584 38.8213 50.068 37.272 51.132C36.04 51.9907 34.2853 52.42 32.008 52.42C30.3093 52.42 28.8067 52.1493 27.5 51.608C26.38 51.1413 25.3533 50.488 24.42 49.648L26.884 46.12C27.444 46.7547 28.0973 47.2773 28.844 47.688C29.6467 48.0987 30.4867 48.304 31.364 48.304C32.2227 48.304 32.904 48.1453 33.408 47.828C33.9867 47.4733 34.276 46.96 34.276 46.288C34.276 45.7093 33.996 45.2427 33.436 44.888C32.988 44.5893 32.2227 44.44 31.14 44.44H29.32V40.688H30.524C31.9427 40.688 32.9133 40.4267 33.436 39.904C33.7533 39.5867 33.912 39.1947 33.912 38.728C33.912 38.2053 33.6693 37.7667 33.184 37.412C32.736 37.0947 32.1387 36.936 31.392 36.936C30.608 36.936 29.88 37.104 29.208 37.44C28.7227 37.6827 28.2093 38.028 27.668 38.476ZM51.935 40.688V39.484H56.415V52H51.935V50.628C51.0764 51.8227 49.779 52.42 48.043 52.42C46.2884 52.42 44.7857 51.7573 43.535 50.432C42.3404 49.1627 41.743 47.632 41.743 45.84C41.743 43.7867 42.387 42.116 43.675 40.828C44.851 39.652 46.3537 39.064 48.183 39.064C49.7137 39.064 50.9644 39.6053 51.935 40.688ZM49.191 42.872C48.4444 42.872 47.791 43.1427 47.231 43.684C46.6337 44.2627 46.335 44.944 46.335 45.728C46.335 46.5493 46.6244 47.2307 47.203 47.772C47.8004 48.332 48.4724 48.612 49.219 48.612C49.9844 48.612 50.6564 48.3227 51.235 47.744C51.795 47.184 52.075 46.512 52.075 45.728C52.075 44.9253 51.7857 44.244 51.207 43.684C50.6284 43.1427 49.9564 42.872 49.191 42.872ZM59.5009 52V39.484H68.2929V43.152H63.9809V52H59.5009ZM74.6997 50.796V58.412H70.2197V39.484H74.6997V40.856C75.6517 39.6613 76.9304 39.064 78.5357 39.064C80.2904 39.064 81.7744 39.6707 82.9877 40.884C84.257 42.1533 84.8917 43.768 84.8917 45.728C84.8917 47.7253 84.2197 49.3773 82.8757 50.684C81.6997 51.8413 80.2717 52.42 78.5917 52.42C77.0424 52.42 75.745 51.8787 74.6997 50.796ZM77.4437 42.872C76.6597 42.872 75.9877 43.152 75.4277 43.712C74.849 44.2907 74.5597 44.9813 74.5597 45.784C74.5597 46.5307 74.849 47.1933 75.4277 47.772C75.9877 48.332 76.6597 48.612 77.4437 48.612C78.2464 48.612 78.909 48.332 79.4317 47.772C80.0104 47.1933 80.2997 46.5307 80.2997 45.784C80.2997 44.9813 80.0104 44.2907 79.4317 43.712C78.909 43.152 78.2464 42.872 77.4437 42.872ZM86.7425 58.412L90.9425 50.292L84.8945 39.484H90.1025L93.4345 45.896L96.6825 39.484H101.807L91.7545 58.412H86.7425ZM103.956 43.348L102.472 40.436C103.125 40.0813 103.816 39.792 104.544 39.568C105.645 39.232 106.709 39.064 107.736 39.064C109.789 39.064 111.282 39.5307 112.216 40.464C112.813 41.0613 113.112 41.7987 113.112 42.676C113.112 43.4413 112.906 44.0667 112.496 44.552C112.16 44.944 111.74 45.252 111.236 45.476V45.532C111.926 45.644 112.505 45.9333 112.972 46.4C113.476 46.904 113.728 47.548 113.728 48.332C113.728 49.4147 113.345 50.32 112.58 51.048C111.646 51.9627 110.041 52.42 107.764 52.42C106.606 52.42 105.524 52.2613 104.516 51.944C103.657 51.6827 102.826 51.3 102.024 50.796L103.676 47.688C104.18 48.08 104.702 48.3973 105.244 48.64C105.86 48.9013 106.513 49.032 107.204 49.032C107.764 49.032 108.212 48.9573 108.548 48.808C108.94 48.6213 109.136 48.3413 109.136 47.968C109.136 47.6507 108.968 47.4173 108.632 47.268C108.352 47.1373 107.866 47.072 107.176 47.072H105.636V44.16H106.896C107.474 44.16 107.941 44.0947 108.296 43.964C108.688 43.8333 108.884 43.5907 108.884 43.236C108.884 42.9 108.706 42.6573 108.352 42.508C108.053 42.3587 107.624 42.284 107.064 42.284C106.504 42.284 105.934 42.396 105.356 42.62C104.833 42.8067 104.366 43.0493 103.956 43.348ZM116.048 52V39.484H120.528V44.608L124.308 39.484H129.936L124.756 45.364L130.412 52H124.616L120.528 46.456V52H116.048ZM140.802 40.688V39.484H145.282V52H140.802V50.628C139.944 51.8227 138.646 52.42 136.91 52.42C135.156 52.42 133.653 51.7573 132.402 50.432C131.208 49.1627 130.61 47.632 130.61 45.84C130.61 43.7867 131.254 42.116 132.542 40.828C133.718 39.652 135.221 39.064 137.05 39.064C138.581 39.064 139.832 39.6053 140.802 40.688ZM138.058 42.872C137.312 42.872 136.658 43.1427 136.098 43.684C135.501 44.2627 135.202 44.944 135.202 45.728C135.202 46.5493 135.492 47.2307 136.07 47.772C136.668 48.332 137.34 48.612 138.086 48.612C138.852 48.612 139.524 48.3227 140.102 47.744C140.662 47.184 140.942 46.512 140.942 45.728C140.942 44.9253 140.653 44.244 140.074 43.684C139.496 43.1427 138.824 42.872 138.058 42.872ZM154.903 52V39.484H159.383V44.608L163.163 39.484H168.791L163.611 45.364L169.267 52H163.471L159.383 46.456V52H154.903ZM176.998 42.872C176.232 42.872 175.56 43.1427 174.982 43.684C174.403 44.2253 174.114 44.9067 174.114 45.728C174.114 46.4747 174.403 47.1373 174.982 47.716C175.542 48.276 176.214 48.556 176.998 48.556C177.763 48.556 178.426 48.276 178.986 47.716C179.564 47.1747 179.854 46.512 179.854 45.728C179.854 44.944 179.564 44.2627 178.986 43.684C178.407 43.1427 177.744 42.872 176.998 42.872ZM182.57 41.136C183.858 42.3867 184.502 43.9173 184.502 45.728C184.502 47.5387 183.858 49.0787 182.57 50.348C181.17 51.7293 179.303 52.42 176.97 52.42C174.655 52.42 172.798 51.7293 171.398 50.348C170.11 49.0787 169.466 47.5387 169.466 45.728C169.466 43.9173 170.11 42.3867 171.398 41.136C172.816 39.7547 174.674 39.064 176.97 39.064C179.247 39.064 181.114 39.7547 182.57 41.136ZM187.087 52V39.484H191.567V43.712H195.739V39.484H200.219V52H195.739V47.24H191.567V52H187.087ZM205.29 52V43.152H202.042V39.484H213.018V43.152H209.77V52H205.29ZM228.113 46.092V46.568H218.789C218.789 47.4453 219.05 48.1453 219.573 48.668C219.983 49.0787 220.599 49.284 221.421 49.284C221.981 49.284 222.466 49.172 222.877 48.948C223.231 48.7427 223.493 48.4627 223.661 48.108H227.945C227.665 49.116 227.161 49.9747 226.433 50.684C225.238 51.8413 223.539 52.42 221.337 52.42C219.153 52.42 217.426 51.7853 216.157 50.516C214.925 49.284 214.309 47.7067 214.309 45.784C214.309 43.768 214.934 42.1533 216.185 40.94C217.435 39.7267 219.143 39.12 221.309 39.12C223.306 39.12 224.911 39.6893 226.125 40.828C227.45 42.0973 228.113 43.852 228.113 46.092ZM218.929 43.992H223.997C223.866 43.4507 223.623 43.0027 223.269 42.648C222.821 42.2 222.205 41.976 221.421 41.976C220.655 41.976 220.049 42.2 219.601 42.648C219.227 43.0587 219.003 43.5067 218.929 43.992ZM230.7 52V39.484H235.18V43.712H239.352V39.484H243.832V52H239.352V47.24H235.18V52H230.7ZM248.903 52V43.152H245.655V39.484H256.631V43.152H253.383V52H248.903ZM267.787 40.688V39.484H272.267V52H267.787V50.628C266.928 51.8227 265.631 52.42 263.895 52.42C262.14 52.42 260.637 51.7573 259.387 50.432C258.192 49.1627 257.595 47.632 257.595 45.84C257.595 43.7867 258.239 42.116 259.527 40.828C260.703 39.652 262.205 39.064 264.035 39.064C265.565 39.064 266.816 39.6053 267.787 40.688ZM265.043 42.872C264.296 42.872 263.643 43.1427 263.083 43.684C262.485 44.2627 262.187 44.944 262.187 45.728C262.187 46.5493 262.476 47.2307 263.055 47.772C263.652 48.332 264.324 48.612 265.071 48.612C265.836 48.612 266.508 48.3227 267.087 47.744C267.647 47.184 267.927 46.512 267.927 45.728C267.927 44.9253 267.637 44.244 267.059 43.684C266.48 43.1427 265.808 42.872 265.043 42.872Z" fill="#0B1530"/>
<rect x="104" y="80" width="119.666" height="15.2926" rx="7.64629" fill="#457BF8"/>
<rect x="104" y="149.676" width="120" height="10.3226" rx="5.16129" fill="#C1D3FD"/>
<rect x="104" y="129.031" width="120" height="10.3226" rx="5.16129" fill="#C1D3FD"/>
<rect x="104" y="108.387" width="120" height="10.3226" rx="5.16129" fill="#C1D3FD"/>
</svg>
