<svg width="328" height="195" viewBox="0 0 328 195" fill="none" xmlns="http://www.w3.org/2000/svg">
<rect width="328" height="195" rx="24" fill="#EAF0FE"/>
<path d="M25.96 52V33.324H30.832V47.912H37.272V33.324H42.144V47.912H44.496V56.2H40.128V52H25.96ZM46.458 39.484H54.13C55.6233 39.484 56.6873 39.7827 57.322 40.38C57.9006 40.9213 58.19 41.6493 58.19 42.564C58.19 43.292 58.0126 43.9173 57.658 44.44C57.3593 44.8693 56.902 45.2147 56.286 45.476V45.532C57.014 45.6813 57.6113 45.9707 58.078 46.4C58.6753 46.9413 58.974 47.66 58.974 48.556C58.974 49.564 58.6753 50.3667 58.078 50.964C57.3873 51.6547 56.37 52 55.026 52H46.458V39.484ZM50.938 44.468H52.618C53.1593 44.468 53.542 44.3747 53.766 44.188C53.99 43.9827 54.102 43.684 54.102 43.292C54.102 42.9373 53.9993 42.676 53.794 42.508C53.57 42.3027 53.1686 42.2 52.59 42.2H50.938V44.468ZM50.938 49.284H52.926C53.3926 49.284 53.7566 49.1627 54.018 48.92C54.2606 48.6773 54.382 48.3787 54.382 48.024C54.382 47.632 54.27 47.324 54.046 47.1C53.8406 46.8947 53.4673 46.792 52.926 46.792H50.938V49.284ZM74.5503 46.092V46.568H65.2263C65.2263 47.4453 65.4876 48.1453 66.0103 48.668C66.4209 49.0787 67.0369 49.284 67.8583 49.284C68.4183 49.284 68.9036 49.172 69.3143 48.948C69.6689 48.7427 69.9303 48.4627 70.0983 48.108H74.3823C74.1023 49.116 73.5983 49.9747 72.8703 50.684C71.6756 51.8413 69.9769 52.42 67.7743 52.42C65.5903 52.42 63.8636 51.7853 62.5943 50.516C61.3623 49.284 60.7463 47.7067 60.7463 45.784C60.7463 43.768 61.3716 42.1533 62.6223 40.94C63.8729 39.7267 65.5809 39.12 67.7463 39.12C69.7436 39.12 71.3489 39.6893 72.5623 40.828C73.8876 42.0973 74.5503 43.852 74.5503 46.092ZM65.3663 43.992H70.4343C70.3036 43.4507 70.0609 43.0027 69.7063 42.648C69.2583 42.2 68.6423 41.976 67.8583 41.976C67.0929 41.976 66.4863 42.2 66.0383 42.648C65.6649 43.0587 65.4409 43.5067 65.3663 43.992ZM79.1257 52V43.152H75.8777V39.484H86.8537V43.152H83.6057V52H79.1257Z" fill="#0B1530"/>
<g clip-path="url(#clip0_1065_3763)">
<path fill-rule="evenodd" clip-rule="evenodd" d="M157.741 122.534C158.632 122.922 159.39 123.561 159.923 124.373C160.576 125.233 160.898 126.298 160.832 127.375C160.765 128.452 160.313 129.47 159.558 130.242C157.51 132.353 155.176 134.167 152.624 135.631C147.464 138.607 141.585 140.108 135.629 139.969C129.674 139.83 123.871 138.057 118.856 134.844C113.84 131.631 109.803 127.101 107.188 121.749C104.572 116.397 103.477 110.429 104.024 104.497C104.57 98.5656 106.736 92.8981 110.285 88.1139C113.834 83.3298 118.63 79.6131 124.149 77.37C129.667 75.1269 135.696 74.4437 141.576 75.395C147.457 76.3462 152.963 78.8952 157.493 82.7638C158.714 83.8036 159.666 85.1219 160.271 86.6074C160.875 88.0929 161.113 89.7018 160.965 91.2986C160.817 92.8954 160.287 94.4334 159.421 95.7823C158.553 97.1314 157.375 98.2524 155.984 99.0503L147.886 103.725C145.821 104.91 144.247 106.792 143.446 109.034C142.645 111.275 142.669 113.729 143.516 115.954C144.362 118.179 145.974 120.029 148.062 121.172C150.151 122.315 152.578 122.675 154.908 122.188C155.866 122.026 156.851 122.146 157.741 122.534ZM137.306 95.3999C139.698 94.0192 140.517 90.9612 139.136 88.5698C137.756 86.1783 134.698 85.3589 132.306 86.7396C129.915 88.1204 129.095 91.1783 130.476 93.5698C131.857 95.9612 134.915 96.7806 137.306 95.3999ZM123.736 111.895C126.127 110.514 125.529 108.184 124.149 105.793C122.768 103.402 120.596 104.912 118.205 106.293C115.813 107.674 115.525 107.674 116.906 110.065C118.286 112.456 121.344 113.276 123.736 111.895Z" fill="#C1D3FD"/>
<path d="M133.289 128.441C135.254 127.307 135.927 124.795 134.792 122.831C133.658 120.866 131.146 120.193 129.182 121.327C127.218 122.461 126.544 124.973 127.679 126.938C128.813 128.902 131.325 129.575 133.289 128.441Z" fill="#457BF8" stroke="#457BF8" stroke-linecap="round" stroke-linejoin="round"/>
<path d="M137.306 95.4005C139.698 94.0198 140.517 90.9618 139.136 88.5704C137.756 86.1789 134.698 85.3595 132.306 86.7402C129.915 88.1209 129.095 91.1789 130.476 93.5704C131.857 95.9618 134.915 96.7812 137.306 95.4005Z" fill="white"/>
<path d="M138.998 98.3278C143.007 96.013 144.381 90.8862 142.066 86.8769C139.751 82.8676 134.624 81.4939 130.615 83.8087C126.606 86.1235 125.232 91.2502 127.547 95.2596C129.862 99.2689 134.988 100.643 138.998 98.3278Z" fill="#457BF8" stroke="#457BF8" stroke-linecap="round" stroke-linejoin="round"/>
<path d="M124.701 115.643C127.776 113.868 128.829 109.936 127.054 106.861C125.279 103.787 121.347 102.733 118.272 104.508C115.197 106.284 114.144 110.215 115.919 113.29C117.694 116.365 121.626 117.418 124.701 115.643Z" fill="#457BF8" stroke="#457BF8" stroke-linecap="round" stroke-linejoin="round"/>
</g>
<path d="M173.635 155.857C163.335 166.225 145.831 169.659 135.732 159.291C149.197 145.355 135.732 138.623 145.831 128.524C147.604 126.549 149.761 124.956 152.171 123.843C154.581 122.73 157.192 122.12 159.845 122.05C162.499 121.98 165.139 122.452 167.604 123.437C170.068 124.422 172.307 125.899 174.181 127.778C176.056 129.657 177.527 131.899 178.506 134.366C179.485 136.834 179.951 139.475 179.875 142.128C179.798 144.781 179.182 147.391 178.063 149.798C176.944 152.204 175.345 154.358 173.366 156.127L173.635 155.857Z" fill="#98B6FB"/>
<path d="M214.771 78.9517C216.484 79.6233 218.042 80.6392 219.347 81.9365C220.653 83.25 221.674 84.8189 222.346 86.5448C223.018 88.2708 223.326 90.1169 223.252 91.9676C223.193 93.7944 222.763 95.59 221.987 97.2452C221.212 98.9003 220.107 100.38 218.742 101.595L179.317 136.898C179.105 136.039 178.835 135.193 178.507 134.366C177.528 131.899 176.056 129.657 174.181 127.778C172.307 125.899 170.069 124.422 167.604 123.437C166.426 122.966 165.209 122.613 163.969 122.379L199.689 82.5424C200.911 81.1684 202.402 80.0593 204.069 79.2835C205.737 78.5077 207.546 78.0817 209.384 78.0318C211.223 77.967 213.056 78.2801 214.771 78.9517Z" fill="#C1D3FD"/>
<path d="M214.771 78.9517C216.484 79.6233 218.042 80.6392 219.347 81.9365C220.653 83.25 221.674 84.8189 222.346 86.5448C223.018 88.2708 223.326 90.1169 223.252 91.9676C223.193 93.7944 222.763 95.59 221.987 97.2452C221.212 98.9003 220.107 100.38 218.742 101.595L179.317 136.898C179.105 136.039 178.835 135.193 178.507 134.366C177.528 131.899 176.056 129.657 174.181 127.778C172.307 125.899 170.069 124.422 167.604 123.437C166.426 122.966 165.209 122.613 163.969 122.379L199.689 82.5424C200.911 81.1684 202.402 80.0593 204.069 79.2835C205.737 78.5077 207.546 78.0817 209.384 78.0318C211.223 77.967 213.056 78.2801 214.771 78.9517Z" fill="#457BF8" stroke="#457BF8" stroke-linecap="round" stroke-linejoin="round"/>
<defs>
<clipPath id="clip0_1065_3763">
<rect width="70" height="70" fill="white" transform="translate(88 95) rotate(-30)"/>
</clipPath>
</defs>
</svg>
