<svg width="328" height="195" viewBox="0 0 328 195" fill="none" xmlns="http://www.w3.org/2000/svg">
<rect width="328" height="195" rx="24" fill="#F5F6F8"/>
<path d="M25.96 52V33.324H30.832V47.912H37.272V33.324H42.144V47.912H44.496V56.2H40.128V52H25.96ZM46.458 39.484H54.13C55.6233 39.484 56.6873 39.7827 57.322 40.38C57.9006 40.9213 58.19 41.6493 58.19 42.564C58.19 43.292 58.0126 43.9173 57.658 44.44C57.3593 44.8693 56.902 45.2147 56.286 45.476V45.532C57.014 45.6813 57.6113 45.9707 58.078 46.4C58.6753 46.9413 58.974 47.66 58.974 48.556C58.974 49.564 58.6753 50.3667 58.078 50.964C57.3873 51.6547 56.37 52 55.026 52H46.458V39.484ZM50.938 44.468H52.618C53.1593 44.468 53.542 44.3747 53.766 44.188C53.99 43.9827 54.102 43.684 54.102 43.292C54.102 42.9373 53.9993 42.676 53.794 42.508C53.57 42.3027 53.1686 42.2 52.59 42.2H50.938V44.468ZM50.938 49.284H52.926C53.3926 49.284 53.7566 49.1627 54.018 48.92C54.2606 48.6773 54.382 48.3787 54.382 48.024C54.382 47.632 54.27 47.324 54.046 47.1C53.8406 46.8947 53.4673 46.792 52.926 46.792H50.938V49.284ZM74.5503 46.092V46.568H65.2263C65.2263 47.4453 65.4876 48.1453 66.0103 48.668C66.4209 49.0787 67.0369 49.284 67.8583 49.284C68.4183 49.284 68.9036 49.172 69.3143 48.948C69.6689 48.7427 69.9303 48.4627 70.0983 48.108H74.3823C74.1023 49.116 73.5983 49.9747 72.8703 50.684C71.6756 51.8413 69.9769 52.42 67.7743 52.42C65.5903 52.42 63.8636 51.7853 62.5943 50.516C61.3623 49.284 60.7463 47.7067 60.7463 45.784C60.7463 43.768 61.3716 42.1533 62.6223 40.94C63.8729 39.7267 65.5809 39.12 67.7463 39.12C69.7436 39.12 71.3489 39.6893 72.5623 40.828C73.8876 42.0973 74.5503 43.852 74.5503 46.092ZM65.3663 43.992H70.4343C70.3036 43.4507 70.0609 43.0027 69.7063 42.648C69.2583 42.2 68.6423 41.976 67.8583 41.976C67.0929 41.976 66.4863 42.2 66.0383 42.648C65.6649 43.0587 65.4409 43.5067 65.3663 43.992ZM79.1257 52V43.152H75.8777V39.484H86.8537V43.152H83.6057V52H79.1257Z" fill="#0B1530"/>
<g clip-path="url(#clip0_999_4469)">
<path fill-rule="evenodd" clip-rule="evenodd" d="M213.044 116.264C214.075 116.714 214.953 117.454 215.57 118.394C216.327 119.389 216.7 120.622 216.622 121.87C216.545 123.117 216.022 124.295 215.148 125.189C212.777 127.634 210.074 129.734 207.119 131.429C201.145 134.875 194.338 136.612 187.443 136.451C180.547 136.291 173.829 134.238 168.021 130.518C162.214 126.797 157.54 121.552 154.511 115.356C151.483 109.159 150.216 102.249 150.848 95.3812C151.481 88.5131 153.988 81.951 158.098 76.4117C162.207 70.8725 167.76 66.5692 174.15 63.9721C180.539 61.3749 187.519 60.5839 194.328 61.6853C201.137 62.7866 207.512 65.738 212.756 70.2172C214.17 71.4211 215.273 72.9475 215.973 74.6675C216.672 76.3874 216.948 78.2502 216.777 80.0991C216.606 81.9479 215.992 83.7287 214.989 85.2905C213.985 86.8526 212.62 88.1505 211.009 89.0742L201.634 94.4871C199.243 95.8586 197.42 98.038 196.493 100.633C195.565 103.229 195.594 106.07 196.573 108.646C197.553 111.222 199.42 113.364 201.838 114.688C204.256 116.01 207.066 116.427 209.764 115.864C210.873 115.676 212.013 115.815 213.044 116.264ZM189.384 84.8477C192.153 83.2491 193.102 79.7084 191.503 76.9395C189.904 74.1706 186.364 73.2219 183.595 74.8205C180.826 76.4192 179.877 79.9598 181.476 82.7287C183.074 85.4976 186.615 86.4464 189.384 84.8477ZM173.672 103.946C176.44 102.348 177.389 98.8072 175.791 96.0383C174.192 93.2694 170.651 92.3207 167.882 93.9193C165.113 95.5179 164.165 99.0586 165.763 101.827C167.362 104.596 170.903 105.545 173.672 103.946Z" fill="#C1D3FD"/>
<path d="M215.57 118.394C214.953 117.454 214.075 116.714 213.044 116.264C212.013 115.815 210.873 115.676 209.764 115.864C207.066 116.427 204.256 116.01 201.838 114.688C199.42 113.364 197.553 111.222 196.573 108.646C195.594 106.07 195.565 103.229 196.493 100.633C197.42 98.038 199.243 95.8586 201.634 94.4871L211.009 89.0742C212.62 88.1504 213.985 86.8526 214.989 85.2905C215.992 83.7287 216.606 81.9479 216.777 80.0991C216.948 78.2502 216.672 76.3874 215.973 74.6675C215.273 72.9475 214.17 71.4211 212.756 70.2172C207.512 65.738 201.137 62.7866 194.328 61.6853C187.519 60.5839 180.539 61.3749 174.15 63.9721C167.76 66.5692 162.207 70.8725 158.098 76.4117C153.988 81.951 151.481 88.5131 150.848 95.3812C150.216 102.249 151.483 109.159 154.511 115.356C157.54 121.552 162.214 126.797 168.021 130.518C173.829 134.238 180.547 136.291 187.443 136.451C194.338 136.612 201.145 134.875 207.119 131.429C210.074 129.734 212.777 127.634 215.148 125.189C216.022 124.295 216.545 123.117 216.622 121.87C216.7 120.622 216.327 119.389 215.57 118.394Z" stroke="#457BF8" stroke-linecap="round" stroke-linejoin="round"/>
<path d="M183.802 121.496C185.187 120.697 185.661 118.926 184.862 117.542C184.062 116.157 182.292 115.683 180.908 116.482C179.523 117.282 179.049 119.052 179.848 120.436C180.647 121.821 182.418 122.295 183.802 121.496Z" stroke="#457BF8" stroke-linecap="round" stroke-linejoin="round"/>
<path d="M189.384 84.8474C192.153 83.2488 193.101 79.7081 191.503 76.9392C189.904 74.1703 186.364 73.2216 183.595 74.8203C180.826 76.4189 179.877 79.9595 181.476 82.7284C183.074 85.4973 186.615 86.446 189.384 84.8474Z" fill="white"/>
<path d="M173.671 103.945C176.44 102.346 177.389 98.8058 175.79 96.0369C174.192 93.268 170.651 92.3193 167.882 93.9179C165.113 95.5165 164.165 99.0572 165.763 101.826C167.362 104.595 170.903 105.544 173.671 103.945Z" fill="white"/>
<path d="M189.384 84.8474C192.153 83.2488 193.101 79.7081 191.503 76.9392C189.904 74.1703 186.364 73.2216 183.595 74.8203C180.826 76.4189 179.877 79.9595 181.476 82.7284C183.074 85.4973 186.615 86.446 189.384 84.8474Z" stroke="#457BF8" stroke-linecap="round" stroke-linejoin="round"/>
<path d="M173.671 103.945C176.44 102.346 177.389 98.8058 175.79 96.0369C174.192 93.268 170.651 92.3193 167.882 93.9179C165.113 95.5165 164.165 99.0572 165.763 101.826C167.362 104.595 170.903 105.544 173.671 103.945Z" stroke="#457BF8" stroke-linecap="round" stroke-linejoin="round"/>
</g>
<path d="M231.647 155.302C219.612 167.416 199.16 171.428 187.361 159.314C203.093 143.031 187.361 135.165 199.16 123.366C201.232 121.058 203.753 119.197 206.568 117.896C209.383 116.595 212.435 115.883 215.535 115.801C218.635 115.719 221.72 116.271 224.6 117.422C227.48 118.572 230.095 120.298 232.285 122.494C234.476 124.69 236.195 127.309 237.339 130.192C238.483 133.075 239.027 136.16 238.937 139.261C238.848 142.36 238.128 145.41 236.82 148.222C235.513 151.034 233.645 153.551 231.332 155.617L231.647 155.302Z" fill="white"/>
<path d="M279.71 65.444C281.712 66.2287 283.533 67.4156 285.058 68.9315C286.584 70.4662 287.777 72.2993 288.562 74.3159C289.347 76.3326 289.707 78.4896 289.62 80.652C289.551 82.7865 289.049 84.8846 288.142 86.8185C287.236 88.7524 285.946 90.4815 284.35 91.9006L238.285 133.149C238.038 132.145 237.722 131.157 237.339 130.192C236.195 127.309 234.476 124.689 232.285 122.494C230.095 120.298 227.48 118.572 224.6 117.421C223.224 116.871 221.801 116.458 220.353 116.186L262.089 69.6394C263.517 68.034 265.259 66.7381 267.207 65.8317C269.155 64.9252 271.269 64.4275 273.417 64.3691C275.565 64.2935 277.708 64.6593 279.71 65.444Z" fill="#C1D3FD"/>
<path d="M279.71 65.444C281.712 66.2287 283.533 67.4156 285.058 68.9315C286.584 70.4662 287.777 72.2993 288.562 74.3159C289.347 76.3326 289.707 78.4896 289.62 80.652C289.551 82.7865 289.049 84.8846 288.142 86.8185C287.236 88.7524 285.946 90.4815 284.35 91.9006L238.285 133.149C238.038 132.145 237.722 131.157 237.339 130.192C236.195 127.309 234.476 124.689 232.285 122.494C230.095 120.298 227.48 118.572 224.6 117.421C223.224 116.871 221.801 116.458 220.353 116.186L262.089 69.6394C263.517 68.034 265.259 66.7381 267.207 65.8317C269.155 64.9252 271.269 64.4275 273.417 64.3691C275.565 64.2935 277.708 64.6593 279.71 65.444Z" stroke="#457BF8" stroke-linecap="round" stroke-linejoin="round"/>
<path d="M231.647 155.302C219.612 167.416 199.16 171.428 187.361 159.314C203.093 143.031 187.361 135.165 199.16 123.366C201.232 121.058 203.753 119.197 206.568 117.896C209.383 116.595 212.435 115.883 215.535 115.801C218.635 115.719 221.72 116.271 224.6 117.422C227.48 118.572 230.095 120.298 232.285 122.494C234.476 124.69 236.195 127.309 237.339 130.192C238.483 133.075 239.027 136.16 238.937 139.261C238.848 142.36 238.128 145.41 236.82 148.222C235.513 151.034 233.645 153.551 231.332 155.617L231.647 155.302Z" stroke="#457BF8" stroke-linecap="round" stroke-linejoin="round"/>
<circle cx="93" cy="157" r="13.5" fill="#457BF8" stroke="#457BF8"/>
<circle cx="117" cy="119" r="13.5" fill="#33F7C3" stroke="#457BF8"/>
<circle cx="151.371" cy="157.371" r="9.5" transform="rotate(64.0071 151.371 157.371)" fill="#0FBC7E" stroke="#457BF8"/>
<circle cx="52.3712" cy="93.3711" r="9.5" transform="rotate(64.0071 52.3712 93.3711)" fill="#2767FB" stroke="#457BF8"/>
<circle cx="65.0226" cy="149.023" r="5.5" transform="rotate(64.0071 65.0226 149.023)" fill="white" stroke="#457BF8"/>
<circle cx="125.023" cy="149.023" r="5.5" transform="rotate(64.0071 125.023 149.023)" fill="#0B1530" stroke="#457BF8"/>
<circle cx="47.3712" cy="122.371" r="9.5" transform="rotate(64.0071 47.3712 122.371)" fill="#FF8A36" stroke="#457BF8"/>
<circle cx="79.3712" cy="123.371" r="9.5" transform="rotate(64.0071 79.3712 123.371)" fill="#FA4646" stroke="#457BF8"/>
<defs>
<clipPath id="clip0_999_4469">
<rect width="81.0486" height="81.0486" fill="white" transform="translate(132.295 84.3828) rotate(-30)"/>
</clipPath>
</defs>
</svg>
