<svg width="328" height="195" viewBox="0 0 328 195" fill="none" xmlns="http://www.w3.org/2000/svg">
<rect width="328" height="195" rx="24" fill="#F5F6F8"/>
<path d="M36.992 37.44H33.016V52H28.172V37.44H24.196V33.324H36.992V37.44ZM37.5439 39.484H42.0239V45.924L46.9799 39.484H50.8719V52H46.3919V45.392L41.4919 52H37.5439V39.484ZM53.9502 52V39.484H66.9142V52H62.4342V43.012H58.4302V52H53.9502ZM77.0289 42.872C76.2636 42.872 75.5916 43.1427 75.0129 43.684C74.4343 44.2253 74.1449 44.9067 74.1449 45.728C74.1449 46.4747 74.4343 47.1373 75.0129 47.716C75.5729 48.276 76.2449 48.556 77.0289 48.556C77.7943 48.556 78.4569 48.276 79.0169 47.716C79.5956 47.1747 79.8849 46.512 79.8849 45.728C79.8849 44.944 79.5956 44.2627 79.0169 43.684C78.4383 43.1427 77.7756 42.872 77.0289 42.872ZM82.6009 41.136C83.8889 42.3867 84.5329 43.9173 84.5329 45.728C84.5329 47.5387 83.8889 49.0787 82.6009 50.348C81.2009 51.7293 79.3343 52.42 77.0009 52.42C74.6863 52.42 72.8289 51.7293 71.4289 50.348C70.1409 49.0787 69.4969 47.5387 69.4969 45.728C69.4969 43.9173 70.1409 42.3867 71.4289 41.136C72.8476 39.7547 74.7049 39.064 77.0009 39.064C79.2783 39.064 81.1449 39.7547 82.6009 41.136ZM87.1181 52V39.484H95.9101V43.152H91.5981V52H87.1181ZM102.317 50.796V58.412H97.8369V39.484H102.317V40.856C103.269 39.6613 104.548 39.064 106.153 39.064C107.908 39.064 109.392 39.6707 110.605 40.884C111.874 42.1533 112.509 43.768 112.509 45.728C112.509 47.7253 111.837 49.3773 110.493 50.684C109.317 51.8413 107.889 52.42 106.209 52.42C104.66 52.42 103.362 51.8787 102.317 50.796ZM105.061 42.872C104.277 42.872 103.605 43.152 103.045 43.712C102.466 44.2907 102.177 44.9813 102.177 45.784C102.177 46.5307 102.466 47.1933 103.045 47.772C103.605 48.332 104.277 48.612 105.061 48.612C105.864 48.612 106.526 48.332 107.049 47.772C107.628 47.1933 107.917 46.5307 107.917 45.784C107.917 44.9813 107.628 44.2907 107.049 43.712C106.526 43.152 105.864 42.872 105.061 42.872ZM124.779 40.688V39.484H129.259V52H124.779V50.628C123.92 51.8227 122.623 52.42 120.887 52.42C119.132 52.42 117.629 51.7573 116.379 50.432C115.184 49.1627 114.587 47.632 114.587 45.84C114.587 43.7867 115.231 42.116 116.519 40.828C117.695 39.652 119.197 39.064 121.027 39.064C122.557 39.064 123.808 39.6053 124.779 40.688ZM122.035 42.872C121.288 42.872 120.635 43.1427 120.075 43.684C119.477 44.2627 119.179 44.944 119.179 45.728C119.179 46.5493 119.468 47.2307 120.047 47.772C120.644 48.332 121.316 48.612 122.063 48.612C122.828 48.612 123.5 48.3227 124.079 47.744C124.639 47.184 124.919 46.512 124.919 45.728C124.919 44.9253 124.629 44.244 124.051 43.684C123.472 43.1427 122.8 42.872 122.035 42.872ZM143.461 58.412H138.981V52.196H138.897C136.619 52.196 134.846 51.5613 133.577 50.292C132.419 49.1533 131.841 47.6413 131.841 45.756C131.841 43.7773 132.457 42.2187 133.689 41.08C134.995 39.8853 136.731 39.288 138.897 39.288H138.981V33.324H143.461V39.288H143.545C145.71 39.288 147.446 39.8853 148.753 41.08C149.985 42.2187 150.601 43.7773 150.601 45.756C150.601 47.6413 150.022 49.1533 148.865 50.292C147.595 51.5613 145.822 52.196 143.545 52.196H143.461V58.412ZM143.153 42.508V48.976H143.209C144.086 48.976 144.786 48.7333 145.309 48.248C145.962 47.6693 146.289 46.8293 146.289 45.728C146.289 44.7013 145.971 43.88 145.337 43.264C144.814 42.76 144.114 42.508 143.237 42.508H143.153ZM139.289 42.508H139.205C138.327 42.508 137.627 42.76 137.105 43.264C136.47 43.88 136.153 44.7013 136.153 45.728C136.153 46.8293 136.479 47.6693 137.133 48.248C137.655 48.7333 138.355 48.976 139.233 48.976H139.289V42.508ZM153.181 39.484H157.661V45.924L162.617 39.484H166.509V52H162.029V45.392L157.129 52H153.181V39.484ZM169.587 52V39.484H174.067V44.608L177.847 39.484H183.475L178.295 45.364L183.951 52H178.155L174.067 46.456V52H169.587ZM194.341 40.688V39.484H198.821V52H194.341V50.628C193.483 51.8227 192.185 52.42 190.449 52.42C188.695 52.42 187.192 51.7573 185.941 50.432C184.747 49.1627 184.149 47.632 184.149 45.84C184.149 43.7867 184.793 42.116 186.081 40.828C187.257 39.652 188.76 39.064 190.589 39.064C192.12 39.064 193.371 39.6053 194.341 40.688ZM191.597 42.872C190.851 42.872 190.197 43.1427 189.637 43.684C189.04 44.2627 188.741 44.944 188.741 45.728C188.741 46.5493 189.031 47.2307 189.609 47.772C190.207 48.332 190.879 48.612 191.625 48.612C192.391 48.612 193.063 48.3227 193.641 47.744C194.201 47.184 194.481 46.512 194.481 45.728C194.481 44.9253 194.192 44.244 193.613 43.684C193.035 43.1427 192.363 42.872 191.597 42.872Z" fill="#0B1530"/>
<path d="M236.246 163.611L212.889 165.635L214.913 142.278L263.496 94.0065C264.221 93.265 265.087 92.6758 266.043 92.2735C266.998 91.8712 268.025 91.6641 269.062 91.6641C270.099 91.6641 271.126 91.8712 272.082 92.2735C273.039 92.6758 273.904 93.265 274.629 94.0065L284.517 103.972C285.247 104.696 285.827 105.557 286.221 106.506C286.617 107.455 286.82 108.472 286.82 109.5C286.82 110.528 286.617 111.546 286.221 112.494C285.827 113.443 285.247 114.304 284.517 115.028L236.246 163.611Z" fill="#C1D3FD"/>
<path d="M236.246 163.611L212.889 165.635L214.913 142.278L263.496 94.0065C264.221 93.265 265.087 92.6758 266.043 92.2735C266.998 91.8712 268.025 91.6641 269.062 91.6641C270.099 91.6641 271.126 91.8712 272.082 92.2735C273.039 92.6758 273.904 93.265 274.629 94.0065L284.517 103.972C285.247 104.696 285.827 105.557 286.221 106.506C286.617 107.455 286.82 108.472 286.82 109.5C286.82 110.528 286.617 111.546 286.221 112.494C285.827 113.443 285.247 114.304 284.517 115.028L236.246 163.611Z" stroke="#457BF8" stroke-linecap="round" stroke-linejoin="round"/>
<path d="M190.229 94.0991C187.497 93.6237 187.497 89.7015 190.229 89.2261C200.127 87.5041 208 79.9646 210.149 70.15L210.313 69.3976C210.904 66.6973 214.749 66.6805 215.364 69.3755L215.564 70.2523C217.792 80.0207 225.667 87.4964 235.538 89.2137C238.284 89.6914 238.284 93.6337 235.538 94.1114C225.667 95.8287 217.792 103.304 215.564 113.073L215.364 113.95C214.749 116.645 210.904 116.628 210.313 113.927L210.149 113.175C208 103.36 200.127 95.8211 190.229 94.0991Z" fill="white"/>
<path d="M190.229 94.0991C187.497 93.6237 187.497 89.7015 190.229 89.2261C200.127 87.5041 208 79.9646 210.149 70.15L210.313 69.3976C210.904 66.6973 214.749 66.6805 215.364 69.3755L215.564 70.2523C217.792 80.0207 225.667 87.4964 235.538 89.2137C238.284 89.6914 238.284 93.6337 235.538 94.1114C225.667 95.8287 217.792 103.304 215.564 113.073L215.364 113.95C214.749 116.645 210.904 116.628 210.313 113.927L210.149 113.175C208 103.36 200.127 95.8211 190.229 94.0991Z" stroke="#457BF8" stroke-linecap="round" stroke-linejoin="round"/>
<mask id="path-7-outside-1_999_4471" maskUnits="userSpaceOnUse" x="35" y="106" width="147" height="62" fill="black">
<rect fill="white" x="35" y="106" width="147" height="62"/>
<path d="M77.44 166L74.16 157.04H54.8L51.2 166H36.56L57.04 112.64H72.16L92.24 166H77.44ZM58.64 146.48H70.48L64.48 129.2L58.64 146.48ZM105.785 134.08H106.345C109.118 130.827 113.145 129.2 118.425 129.2C124.238 129.2 128.958 130.88 132.585 134.24C135.945 137.387 137.625 141.707 137.625 147.2C137.625 152.96 135.785 157.68 132.105 161.36C128.212 165.253 122.878 167.2 116.105 167.2C109.492 167.2 104.345 165.307 100.665 161.52C96.6117 157.36 94.585 151.093 94.585 142.72C94.585 132 97.145 123.973 102.265 118.64C104.025 116.88 105.998 115.493 108.185 114.48C110.425 113.467 113.305 112.613 116.825 111.92L119.145 111.44C121.972 110.907 123.785 110.24 124.585 109.44C125.278 108.64 125.625 107.76 125.625 106.8H136.745C136.372 109.573 135.278 112.16 133.465 114.56C131.758 116.8 129.305 118.507 126.105 119.68C124.932 120.107 121.838 121.013 116.825 122.4C113.145 123.413 110.532 124.72 108.985 126.32C107.118 128.347 106.052 130.933 105.785 134.08ZM116.105 139.76C113.972 139.76 112.132 140.453 110.585 141.84C108.772 143.44 107.865 145.467 107.865 147.92C107.865 150.373 108.772 152.427 110.585 154.08C112.132 155.467 113.972 156.16 116.105 156.16C118.292 156.16 120.132 155.467 121.625 154.08C123.438 152.373 124.345 150.213 124.345 147.6C124.345 145.36 123.438 143.44 121.625 141.84C120.025 140.453 118.185 139.76 116.105 139.76ZM145.009 130.24H166.929C171.196 130.24 174.236 131.093 176.049 132.8C177.703 134.347 178.529 136.427 178.529 139.04C178.529 141.12 178.023 142.907 177.009 144.4C176.156 145.627 174.849 146.613 173.089 147.36V147.52C175.169 147.947 176.876 148.773 178.209 150C179.916 151.547 180.769 153.6 180.769 156.16C180.769 159.04 179.916 161.333 178.209 163.04C176.236 165.013 173.329 166 169.489 166H145.009V130.24ZM157.809 144.48H162.609C164.156 144.48 165.249 144.213 165.889 143.68C166.529 143.093 166.849 142.24 166.849 141.12C166.849 140.107 166.556 139.36 165.969 138.88C165.329 138.293 164.183 138 162.529 138H157.809V144.48ZM157.809 158.24H163.489C164.823 158.24 165.863 157.893 166.609 157.2C167.303 156.507 167.649 155.653 167.649 154.64C167.649 153.52 167.329 152.64 166.689 152C166.103 151.413 165.036 151.12 163.489 151.12H157.809V158.24Z"/>
</mask>
<path d="M77.44 166L74.16 157.04H54.8L51.2 166H36.56L57.04 112.64H72.16L92.24 166H77.44ZM58.64 146.48H70.48L64.48 129.2L58.64 146.48ZM105.785 134.08H106.345C109.118 130.827 113.145 129.2 118.425 129.2C124.238 129.2 128.958 130.88 132.585 134.24C135.945 137.387 137.625 141.707 137.625 147.2C137.625 152.96 135.785 157.68 132.105 161.36C128.212 165.253 122.878 167.2 116.105 167.2C109.492 167.2 104.345 165.307 100.665 161.52C96.6117 157.36 94.585 151.093 94.585 142.72C94.585 132 97.145 123.973 102.265 118.64C104.025 116.88 105.998 115.493 108.185 114.48C110.425 113.467 113.305 112.613 116.825 111.92L119.145 111.44C121.972 110.907 123.785 110.24 124.585 109.44C125.278 108.64 125.625 107.76 125.625 106.8H136.745C136.372 109.573 135.278 112.16 133.465 114.56C131.758 116.8 129.305 118.507 126.105 119.68C124.932 120.107 121.838 121.013 116.825 122.4C113.145 123.413 110.532 124.72 108.985 126.32C107.118 128.347 106.052 130.933 105.785 134.08ZM116.105 139.76C113.972 139.76 112.132 140.453 110.585 141.84C108.772 143.44 107.865 145.467 107.865 147.92C107.865 150.373 108.772 152.427 110.585 154.08C112.132 155.467 113.972 156.16 116.105 156.16C118.292 156.16 120.132 155.467 121.625 154.08C123.438 152.373 124.345 150.213 124.345 147.6C124.345 145.36 123.438 143.44 121.625 141.84C120.025 140.453 118.185 139.76 116.105 139.76ZM145.009 130.24H166.929C171.196 130.24 174.236 131.093 176.049 132.8C177.703 134.347 178.529 136.427 178.529 139.04C178.529 141.12 178.023 142.907 177.009 144.4C176.156 145.627 174.849 146.613 173.089 147.36V147.52C175.169 147.947 176.876 148.773 178.209 150C179.916 151.547 180.769 153.6 180.769 156.16C180.769 159.04 179.916 161.333 178.209 163.04C176.236 165.013 173.329 166 169.489 166H145.009V130.24ZM157.809 144.48H162.609C164.156 144.48 165.249 144.213 165.889 143.68C166.529 143.093 166.849 142.24 166.849 141.12C166.849 140.107 166.556 139.36 165.969 138.88C165.329 138.293 164.183 138 162.529 138H157.809V144.48ZM157.809 158.24H163.489C164.823 158.24 165.863 157.893 166.609 157.2C167.303 156.507 167.649 155.653 167.649 154.64C167.649 153.52 167.329 152.64 166.689 152C166.103 151.413 165.036 151.12 163.489 151.12H157.809V158.24Z" fill="#C1D3FD"/>
<path d="M77.44 166L76.9705 166.172L77.0906 166.5H77.44V166ZM74.16 157.04L74.6295 156.868L74.5094 156.54H74.16V157.04ZM54.8 157.04V156.54H54.462L54.336 156.854L54.8 157.04ZM51.2 166V166.5H51.538L51.664 166.186L51.2 166ZM36.56 166L36.0932 165.821L35.8325 166.5H36.56V166ZM57.04 112.64V112.14H56.6963L56.5732 112.461L57.04 112.64ZM72.16 112.64L72.628 112.464L72.5061 112.14H72.16V112.64ZM92.24 166V166.5H92.9624L92.708 165.824L92.24 166ZM58.64 146.48L58.1663 146.32L57.9432 146.98H58.64V146.48ZM70.48 146.48V146.98H71.1829L70.9523 146.316L70.48 146.48ZM64.48 129.2L64.9523 129.036L64.4736 127.657L64.0063 129.04L64.48 129.2ZM77.9095 165.828L74.6295 156.868L73.6905 157.212L76.9705 166.172L77.9095 165.828ZM74.16 156.54H54.8V157.54H74.16V156.54ZM54.336 156.854L50.736 165.814L51.664 166.186L55.264 157.226L54.336 156.854ZM51.2 165.5H36.56V166.5H51.2V165.5ZM37.0268 166.179L57.5068 112.819L56.5732 112.461L36.0932 165.821L37.0268 166.179ZM57.04 113.14H72.16V112.14H57.04V113.14ZM71.692 112.816L91.772 166.176L92.708 165.824L72.628 112.464L71.692 112.816ZM92.24 165.5H77.44V166.5H92.24V165.5ZM58.64 146.98H70.48V145.98H58.64V146.98ZM70.9523 146.316L64.9523 129.036L64.0077 129.364L70.0077 146.644L70.9523 146.316ZM64.0063 129.04L58.1663 146.32L59.1137 146.64L64.9537 129.36L64.0063 129.04ZM105.785 134.08L105.287 134.038L105.241 134.58H105.785V134.08ZM106.345 134.08V134.58H106.576L106.726 134.404L106.345 134.08ZM132.585 134.24L132.927 133.875L132.925 133.873L132.585 134.24ZM132.105 161.36L132.459 161.714L132.105 161.36ZM100.665 161.52L101.024 161.172L101.023 161.171L100.665 161.52ZM102.265 118.64L101.911 118.286L101.904 118.294L102.265 118.64ZM108.185 114.48L107.979 114.024L107.975 114.026L108.185 114.48ZM116.825 111.92L116.922 112.411L116.926 112.41L116.825 111.92ZM119.145 111.44L119.052 110.949L119.044 110.95L119.145 111.44ZM124.585 109.44L124.939 109.794L124.951 109.781L124.963 109.767L124.585 109.44ZM125.625 106.8V106.3H125.125V106.8H125.625ZM136.745 106.8L137.241 106.867L137.317 106.3H136.745V106.8ZM133.465 114.56L133.863 114.863L133.864 114.861L133.465 114.56ZM126.105 119.68L126.276 120.15L126.277 120.149L126.105 119.68ZM116.825 122.4L116.958 122.882L116.958 122.882L116.825 122.4ZM108.985 126.32L108.625 125.972L108.617 125.981L108.985 126.32ZM110.585 141.84L110.916 142.215L110.919 142.212L110.585 141.84ZM110.585 154.08L110.248 154.449L110.251 154.452L110.585 154.08ZM121.625 154.08L121.965 154.446L121.968 154.444L121.625 154.08ZM121.625 141.84L121.956 141.465L121.952 141.462L121.625 141.84ZM105.785 134.58H106.345V133.58H105.785V134.58ZM106.726 134.404C109.382 131.288 113.254 129.7 118.425 129.7V128.7C113.036 128.7 108.855 130.365 105.964 133.756L106.726 134.404ZM118.425 129.7C124.136 129.7 128.727 131.347 132.245 134.607L132.925 133.873C129.19 130.413 124.341 128.7 118.425 128.7V129.7ZM132.243 134.605C135.483 137.639 137.125 141.816 137.125 147.2H138.125C138.125 141.597 136.407 137.134 132.927 133.875L132.243 134.605ZM137.125 147.2C137.125 152.843 135.327 157.431 131.751 161.006L132.459 161.714C136.243 157.929 138.125 153.077 138.125 147.2H137.125ZM131.751 161.006C127.973 164.785 122.778 166.7 116.105 166.7V167.7C122.979 167.7 128.451 165.721 132.459 161.714L131.751 161.006ZM116.105 166.7C109.591 166.7 104.587 164.838 101.024 161.172L100.306 161.868C104.103 165.775 109.393 167.7 116.105 167.7V166.7ZM101.023 161.171C97.0943 157.139 95.085 151.021 95.085 142.72H94.085C94.085 151.166 96.1291 157.581 100.307 161.869L101.023 161.171ZM95.085 142.72C95.085 132.071 97.6284 124.192 102.626 118.986L101.904 118.294C96.6616 123.755 94.085 131.929 94.085 142.72H95.085ZM102.619 118.994C104.338 117.274 106.264 115.921 108.395 114.934L107.975 114.026C105.733 115.065 103.712 116.486 101.911 118.286L102.619 118.994ZM108.391 114.936C110.584 113.943 113.424 113.1 116.922 112.411L116.728 111.429C113.186 112.127 110.266 112.99 107.979 114.024L108.391 114.936ZM116.926 112.41L119.246 111.93L119.044 110.95L116.724 111.43L116.926 112.41ZM119.238 111.931C120.666 111.662 121.856 111.356 122.798 111.009C123.731 110.666 124.463 110.269 124.939 109.794L124.231 109.086C123.907 109.411 123.333 109.747 122.452 110.071C121.581 110.391 120.45 110.685 119.052 110.949L119.238 111.931ZM124.963 109.767C125.726 108.887 126.125 107.893 126.125 106.8H125.125C125.125 107.627 124.83 108.393 124.207 109.113L124.963 109.767ZM125.625 107.3H136.745V106.3H125.625V107.3ZM136.249 106.733C135.888 109.415 134.832 111.922 133.066 114.259L133.864 114.861C135.725 112.398 136.855 109.732 137.241 106.867L136.249 106.733ZM133.067 114.257C131.43 116.407 129.062 118.063 125.933 119.211L126.277 120.149C129.548 118.95 132.087 117.193 133.863 114.863L133.067 114.257ZM125.934 119.21C124.784 119.628 121.713 120.529 116.692 121.918L116.958 122.882C121.964 121.497 125.08 120.585 126.276 120.15L125.934 119.21ZM116.692 121.918C112.98 122.94 110.264 124.277 108.626 125.972L109.344 126.668C110.799 125.163 113.31 123.887 116.958 122.882L116.692 121.918ZM108.617 125.981C106.665 128.101 105.561 130.797 105.287 134.038L106.283 134.122C106.542 131.069 107.572 128.592 109.353 126.659L108.617 125.981ZM116.105 139.26C113.852 139.26 111.892 139.996 110.251 141.468L110.919 142.212C112.371 140.91 114.091 140.26 116.105 140.26V139.26ZM110.254 141.465C108.332 143.162 107.365 145.326 107.365 147.92H108.365C108.365 145.608 109.212 143.718 110.916 142.215L110.254 141.465ZM107.365 147.92C107.365 150.514 108.331 152.701 110.248 154.449L110.922 153.711C109.212 152.152 108.365 150.233 108.365 147.92H107.365ZM110.251 154.452C111.892 155.924 113.852 156.66 116.105 156.66V155.66C114.091 155.66 112.371 155.01 110.919 153.708L110.251 154.452ZM116.105 156.66C118.408 156.66 120.372 155.926 121.965 154.446L121.285 153.714C119.891 155.008 118.176 155.66 116.105 155.66V156.66ZM121.968 154.444C123.887 152.638 124.845 150.344 124.845 147.6H123.845C123.845 150.083 122.99 152.109 121.282 153.716L121.968 154.444ZM124.845 147.6C124.845 145.204 123.867 143.151 121.956 141.465L121.294 142.215C123.01 143.729 123.845 145.516 123.845 147.6H124.845ZM121.952 141.462C120.263 139.998 118.308 139.26 116.105 139.26V140.26C118.062 140.26 119.787 140.908 121.298 142.218L121.952 141.462ZM145.009 130.24V129.74H144.509V130.24H145.009ZM176.049 132.8L175.707 133.164L175.708 133.165L176.049 132.8ZM177.009 144.4L177.42 144.686L177.423 144.681L177.009 144.4ZM173.089 147.36L172.894 146.9L172.589 147.029V147.36H173.089ZM173.089 147.52H172.589V147.928L172.989 148.01L173.089 147.52ZM178.209 150L177.871 150.368L177.874 150.37L178.209 150ZM145.009 166H144.509V166.5H145.009V166ZM157.809 144.48H157.309V144.98H157.809V144.48ZM165.889 143.68L166.209 144.064L166.219 144.057L166.227 144.049L165.889 143.68ZM165.969 138.88L165.632 139.249L165.642 139.258L165.653 139.267L165.969 138.88ZM157.809 138V137.5H157.309V138H157.809ZM157.809 158.24H157.309V158.74H157.809V158.24ZM166.609 157.2L166.95 157.566L166.956 157.56L166.963 157.554L166.609 157.2ZM166.689 152L166.336 152.354L166.689 152ZM157.809 151.12V150.62H157.309V151.12H157.809ZM145.009 130.74H166.929V129.74H145.009V130.74ZM166.929 130.74C171.153 130.74 174.033 131.589 175.707 133.164L176.392 132.436C174.439 130.598 171.239 129.74 166.929 129.74V130.74ZM175.708 133.165C177.244 134.602 178.029 136.542 178.029 139.04H179.029C179.029 136.312 178.161 134.091 176.391 132.435L175.708 133.165ZM178.029 139.04C178.029 141.036 177.545 142.721 176.596 144.119L177.423 144.681C178.501 143.092 179.029 141.204 179.029 139.04H178.029ZM176.599 144.114C175.813 145.245 174.591 146.18 172.894 146.9L173.285 147.82C175.107 147.047 176.5 146.008 177.42 144.686L176.599 144.114ZM172.589 147.36V147.52H173.589V147.36H172.589ZM172.989 148.01C174.995 148.421 176.615 149.213 177.871 150.368L178.548 149.632C177.137 148.334 175.343 147.472 173.19 147.03L172.989 148.01ZM177.874 150.37C179.463 151.811 180.269 153.724 180.269 156.16H181.269C181.269 153.476 180.369 151.282 178.545 149.63L177.874 150.37ZM180.269 156.16C180.269 158.935 179.451 161.091 177.856 162.686L178.563 163.394C180.381 161.575 181.269 159.145 181.269 156.16H180.269ZM177.856 162.686C176.007 164.535 173.248 165.5 169.489 165.5V166.5C173.411 166.5 176.465 165.491 178.563 163.394L177.856 162.686ZM169.489 165.5H145.009V166.5H169.489V165.5ZM145.509 166V130.24H144.509V166H145.509ZM157.809 144.98H162.609V143.98H157.809V144.98ZM162.609 144.98C164.185 144.98 165.43 144.714 166.209 144.064L165.569 143.296C165.069 143.713 164.127 143.98 162.609 143.98V144.98ZM166.227 144.049C166.999 143.342 167.349 142.337 167.349 141.12H166.349C166.349 142.143 166.06 142.845 165.552 143.311L166.227 144.049ZM167.349 141.12C167.349 140.011 167.025 139.098 166.286 138.493L165.653 139.267C166.087 139.622 166.349 140.203 166.349 141.12H167.349ZM166.307 138.511C165.521 137.791 164.208 137.5 162.529 137.5V138.5C164.157 138.5 165.137 138.796 165.632 139.249L166.307 138.511ZM162.529 137.5H157.809V138.5H162.529V137.5ZM157.309 138V144.48H158.309V138H157.309ZM157.809 158.74H163.489V157.74H157.809V158.74ZM163.489 158.74C164.909 158.74 166.085 158.369 166.95 157.566L166.269 156.834C165.641 157.417 164.737 157.74 163.489 157.74V158.74ZM166.963 157.554C167.753 156.763 168.149 155.781 168.149 154.64H167.149C167.149 155.526 166.852 156.25 166.256 156.846L166.963 157.554ZM168.149 154.64C168.149 153.421 167.798 152.401 167.043 151.646L166.336 152.354C166.861 152.879 167.149 153.619 167.149 154.64H168.149ZM167.043 151.646C166.309 150.912 165.066 150.62 163.489 150.62V151.62C165.006 151.62 165.897 151.914 166.336 152.354L167.043 151.646ZM163.489 150.62H157.809V151.62H163.489V150.62ZM157.309 151.12V158.24H158.309V151.12H157.309Z" fill="#457BF8" mask="url(#path-7-outside-1_999_4471)"/>
<mask id="path-9-outside-2_999_4471" maskUnits="userSpaceOnUse" x="231" y="59" width="56" height="13" fill="black">
<rect fill="white" x="231" y="59" width="56" height="13"/>
<path d="M237.24 60.328V61.448H233.56V64.6H237.112V65.72H233.56V71H232.376V60.328H237.24ZM239.834 64.36V68.232C239.834 68.904 239.94 69.3787 240.154 69.656C240.42 69.9973 240.81 70.168 241.322 70.168C241.834 70.168 242.223 69.9973 242.49 69.656C242.703 69.3787 242.81 68.904 242.81 68.232V64.36H243.962V68.36C243.962 69.256 243.759 69.9227 243.354 70.36C242.831 70.9147 242.154 71.192 241.322 71.192C240.49 71.192 239.812 70.9147 239.29 70.36C238.884 69.9227 238.682 69.256 238.682 68.36V64.36H239.834ZM248.471 65.416H247.319V71H246.167V65.416H245.463V64.36H246.167V61.96H247.319V64.36H248.471V65.416ZM250.709 64.36V68.232C250.709 68.904 250.815 69.3787 251.029 69.656C251.295 69.9973 251.685 70.168 252.197 70.168C252.709 70.168 253.098 69.9973 253.365 69.656C253.578 69.3787 253.685 68.904 253.685 68.232V64.36H254.837V68.36C254.837 69.256 254.634 69.9227 254.229 70.36C253.706 70.9147 253.029 71.192 252.197 71.192C251.365 71.192 250.687 70.9147 250.165 70.36C249.759 69.9227 249.557 69.256 249.557 68.36V64.36H250.709ZM257.01 71V64.36H258.162V65.08C258.535 64.4933 259.037 64.2 259.666 64.2C259.986 64.2 260.327 64.2907 260.69 64.472L260.146 65.512C259.933 65.3627 259.709 65.288 259.474 65.288C259.069 65.288 258.759 65.4267 258.546 65.704C258.29 66.0453 258.162 66.6427 258.162 67.496V71H257.01ZM266.489 65.304V64.36H267.641V71H266.489V70.072C265.913 70.8187 265.155 71.192 264.217 71.192C263.321 71.192 262.558 70.8827 261.929 70.264C261.299 69.6453 260.985 68.7813 260.985 67.672C260.985 66.584 261.294 65.736 261.913 65.128C262.542 64.5093 263.31 64.2 264.217 64.2C265.177 64.2 265.934 64.568 266.489 65.304ZM264.345 65.224C263.737 65.224 263.219 65.4427 262.793 65.88C262.377 66.3067 262.169 66.904 262.169 67.672C262.169 68.408 262.361 69.0107 262.745 69.48C263.139 69.9387 263.673 70.168 264.345 70.168C265.017 70.168 265.55 69.928 265.945 69.448C266.35 68.968 266.553 68.3813 266.553 67.688C266.553 66.8987 266.329 66.2907 265.881 65.864C265.433 65.4373 264.921 65.224 264.345 65.224ZM273.845 60.328H275.781C276.997 60.328 277.893 60.5787 278.469 61.08C279.119 61.6347 279.445 62.3973 279.445 63.368C279.445 64.2 279.162 64.9093 278.597 65.496C278.042 66.072 277.199 66.36 276.069 66.36H275.029V71H273.845V60.328ZM275.029 61.448V65.24H276.005C276.709 65.24 277.258 65.0693 277.653 64.728C278.058 64.3867 278.261 63.912 278.261 63.304C278.261 62.0667 277.477 61.448 275.909 61.448H275.029ZM286.358 61.448H283.766V71H282.582V61.448H279.99V60.328H286.358V61.448Z"/>
</mask>
<path d="M237.24 60.328H237.74V59.828H237.24V60.328ZM237.24 61.448V61.948H237.74V61.448H237.24ZM233.56 61.448V60.948H233.06V61.448H233.56ZM233.56 64.6H233.06V65.1H233.56V64.6ZM237.112 64.6H237.612V64.1H237.112V64.6ZM237.112 65.72V66.22H237.612V65.72H237.112ZM233.56 65.72V65.22H233.06V65.72H233.56ZM233.56 71V71.5H234.06V71H233.56ZM232.376 71H231.876V71.5H232.376V71ZM232.376 60.328V59.828H231.876V60.328H232.376ZM236.74 60.328V61.448H237.74V60.328H236.74ZM237.24 60.948H233.56V61.948H237.24V60.948ZM233.06 61.448V64.6H234.06V61.448H233.06ZM233.56 65.1H237.112V64.1H233.56V65.1ZM236.612 64.6V65.72H237.612V64.6H236.612ZM237.112 65.22H233.56V66.22H237.112V65.22ZM233.06 65.72V71H234.06V65.72H233.06ZM233.56 70.5H232.376V71.5H233.56V70.5ZM232.876 71V60.328H231.876V71H232.876ZM232.376 60.828H237.24V59.828H232.376V60.828ZM239.834 64.36H240.334V63.86H239.834V64.36ZM240.154 69.656L239.757 69.9609L239.76 69.9638L240.154 69.656ZM242.49 69.656L242.884 69.9638L242.886 69.9609L242.49 69.656ZM242.81 64.36V63.86H242.31V64.36H242.81ZM243.962 64.36H244.462V63.86H243.962V64.36ZM243.354 70.36L243.718 70.7029L243.72 70.6999L243.354 70.36ZM239.29 70.36L238.923 70.6999L238.926 70.7029L239.29 70.36ZM238.682 64.36V63.86H238.182V64.36H238.682ZM239.334 64.36V68.232H240.334V64.36H239.334ZM239.334 68.232C239.334 68.9274 239.438 69.546 239.757 69.9609L240.55 69.3511C240.443 69.2114 240.334 68.8806 240.334 68.232H239.334ZM239.76 69.9638C240.139 70.4492 240.687 70.668 241.322 70.668V69.668C240.932 69.668 240.702 69.5454 240.548 69.3482L239.76 69.9638ZM241.322 70.668C241.956 70.668 242.505 70.4492 242.884 69.9638L242.096 69.3482C241.942 69.5454 241.711 69.668 241.322 69.668V70.668ZM242.886 69.9609C243.205 69.546 243.31 68.9274 243.31 68.232H242.31C242.31 68.8806 242.201 69.2114 242.093 69.3511L242.886 69.9609ZM243.31 68.232V64.36H242.31V68.232H243.31ZM242.81 64.86H243.962V63.86H242.81V64.86ZM243.462 64.36V68.36H244.462V64.36H243.462ZM243.462 68.36C243.462 69.1918 243.272 69.7123 242.987 70.0201L243.72 70.6999C244.246 70.133 244.462 69.3202 244.462 68.36H243.462ZM242.99 70.0171C242.571 70.4617 242.03 70.692 241.322 70.692V71.692C242.277 71.692 243.091 71.3676 243.718 70.7029L242.99 70.0171ZM241.322 70.692C240.613 70.692 240.073 70.4617 239.654 70.0171L238.926 70.7029C239.552 71.3676 240.366 71.692 241.322 71.692V70.692ZM239.656 70.0201C239.371 69.7123 239.182 69.1918 239.182 68.36H238.182C238.182 69.3202 238.398 70.133 238.923 70.6999L239.656 70.0201ZM239.182 68.36V64.36H238.182V68.36H239.182ZM238.682 64.86H239.834V63.86H238.682V64.86ZM248.471 65.416V65.916H248.971V65.416H248.471ZM247.319 65.416V64.916H246.819V65.416H247.319ZM247.319 71V71.5H247.819V71H247.319ZM246.167 71H245.667V71.5H246.167V71ZM246.167 65.416H246.667V64.916H246.167V65.416ZM245.463 65.416H244.963V65.916H245.463V65.416ZM245.463 64.36V63.86H244.963V64.36H245.463ZM246.167 64.36V64.86H246.667V64.36H246.167ZM246.167 61.96V61.46H245.667V61.96H246.167ZM247.319 61.96H247.819V61.46H247.319V61.96ZM247.319 64.36H246.819V64.86H247.319V64.36ZM248.471 64.36H248.971V63.86H248.471V64.36ZM248.471 64.916H247.319V65.916H248.471V64.916ZM246.819 65.416V71H247.819V65.416H246.819ZM247.319 70.5H246.167V71.5H247.319V70.5ZM246.667 71V65.416H245.667V71H246.667ZM246.167 64.916H245.463V65.916H246.167V64.916ZM245.963 65.416V64.36H244.963V65.416H245.963ZM245.463 64.86H246.167V63.86H245.463V64.86ZM246.667 64.36V61.96H245.667V64.36H246.667ZM246.167 62.46H247.319V61.46H246.167V62.46ZM246.819 61.96V64.36H247.819V61.96H246.819ZM247.319 64.86H248.471V63.86H247.319V64.86ZM247.971 64.36V65.416H248.971V64.36H247.971ZM250.709 64.36H251.209V63.86H250.709V64.36ZM251.029 69.656L250.632 69.9609L250.635 69.9638L251.029 69.656ZM253.365 69.656L253.759 69.9638L253.761 69.9609L253.365 69.656ZM253.685 64.36V63.86H253.185V64.36H253.685ZM254.837 64.36H255.337V63.86H254.837V64.36ZM254.229 70.36L254.593 70.7029L254.595 70.6999L254.229 70.36ZM250.165 70.36L249.798 70.6999L249.801 70.7029L250.165 70.36ZM249.557 64.36V63.86H249.057V64.36H249.557ZM250.209 64.36V68.232H251.209V64.36H250.209ZM250.209 68.232C250.209 68.9274 250.313 69.546 250.632 69.9609L251.425 69.3511C251.318 69.2114 251.209 68.8806 251.209 68.232H250.209ZM250.635 69.9638C251.014 70.4492 251.562 70.668 252.197 70.668V69.668C251.807 69.668 251.577 69.5454 251.423 69.3482L250.635 69.9638ZM252.197 70.668C252.831 70.668 253.38 70.4492 253.759 69.9638L252.971 69.3482C252.817 69.5454 252.586 69.668 252.197 69.668V70.668ZM253.761 69.9609C254.08 69.546 254.185 68.9274 254.185 68.232H253.185C253.185 68.8806 253.076 69.2114 252.968 69.3511L253.761 69.9609ZM254.185 68.232V64.36H253.185V68.232H254.185ZM253.685 64.86H254.837V63.86H253.685V64.86ZM254.337 64.36V68.36H255.337V64.36H254.337ZM254.337 68.36C254.337 69.1918 254.147 69.7123 253.862 70.0201L254.595 70.6999C255.121 70.133 255.337 69.3202 255.337 68.36H254.337ZM253.865 70.0171C253.446 70.4617 252.905 70.692 252.197 70.692V71.692C253.152 71.692 253.966 71.3676 254.593 70.7029L253.865 70.0171ZM252.197 70.692C251.488 70.692 250.948 70.4617 250.529 70.0171L249.801 70.7029C250.427 71.3676 251.241 71.692 252.197 71.692V70.692ZM250.531 70.0201C250.246 69.7123 250.057 69.1918 250.057 68.36H249.057C249.057 69.3202 249.273 70.133 249.798 70.6999L250.531 70.0201ZM250.057 68.36V64.36H249.057V68.36H250.057ZM249.557 64.86H250.709V63.86H249.557V64.86ZM257.01 71H256.51V71.5H257.01V71ZM257.01 64.36V63.86H256.51V64.36H257.01ZM258.162 64.36H258.662V63.86H258.162V64.36ZM258.162 65.08H257.662V66.797L258.584 65.3484L258.162 65.08ZM260.69 64.472L261.133 64.7037L261.369 64.2525L260.913 64.0248L260.69 64.472ZM260.146 65.512L259.859 65.9216L260.325 66.2479L260.589 65.7437L260.146 65.512ZM258.546 65.704L258.15 65.3991L258.146 65.404L258.546 65.704ZM258.162 71V71.5H258.662V71H258.162ZM257.51 71V64.36H256.51V71H257.51ZM257.01 64.86H258.162V63.86H257.01V64.86ZM257.662 64.36V65.08H258.662V64.36H257.662ZM258.584 65.3484C258.877 64.888 259.228 64.7 259.666 64.7V63.7C258.845 63.7 258.194 64.0987 257.74 64.8116L258.584 65.3484ZM259.666 64.7C259.89 64.7 260.155 64.7636 260.466 64.9192L260.913 64.0248C260.499 63.8178 260.081 63.7 259.666 63.7V64.7ZM260.247 64.2403L259.703 65.2803L260.589 65.7437L261.133 64.7037L260.247 64.2403ZM260.433 65.1024C260.145 64.901 259.822 64.788 259.474 64.788V65.788C259.595 65.788 259.72 65.8244 259.859 65.9216L260.433 65.1024ZM259.474 64.788C258.941 64.788 258.473 64.9783 258.15 65.3991L258.942 66.0089C259.045 65.8751 259.196 65.788 259.474 65.788V64.788ZM258.146 65.404C257.786 65.8836 257.662 66.625 257.662 67.496H258.662C258.662 66.6604 258.794 66.207 258.946 66.004L258.146 65.404ZM257.662 67.496V71H258.662V67.496H257.662ZM258.162 70.5H257.01V71.5H258.162V70.5ZM266.488 65.304L266.089 65.6049L266.988 66.7982V65.304H266.488ZM266.488 64.36V63.86H265.988V64.36H266.488ZM267.64 64.36H268.14V63.86H267.64V64.36ZM267.64 71V71.5H268.14V71H267.64ZM266.488 71H265.988V71.5H266.488V71ZM266.488 70.072H266.988V68.6053L266.093 69.7666L266.488 70.072ZM261.928 70.264L261.578 70.6206L261.928 70.264ZM261.913 65.128L262.263 65.4846L262.263 65.4846L261.913 65.128ZM262.792 65.88L262.435 65.5308L262.434 65.5309L262.792 65.88ZM262.744 69.48L262.357 69.7967L262.365 69.8061L262.744 69.48ZM265.944 69.448L265.562 69.1254L265.558 69.1304L265.944 69.448ZM265.881 65.864L265.536 66.2261V66.2261L265.881 65.864ZM266.988 65.304V64.36H265.988V65.304H266.988ZM266.488 64.86H267.64V63.86H266.488V64.86ZM267.14 64.36V71H268.14V64.36H267.14ZM267.64 70.5H266.488V71.5H267.64V70.5ZM266.988 71V70.072H265.988V71H266.988ZM266.093 69.7666C265.611 70.3912 264.999 70.692 264.216 70.692V71.692C265.311 71.692 266.214 71.2461 266.884 70.3774L266.093 69.7666ZM264.216 70.692C263.449 70.692 262.813 70.4326 262.279 69.9074L261.578 70.6206C262.302 71.3327 263.192 71.692 264.216 71.692V70.692ZM262.279 69.9074C261.768 69.4056 261.485 68.6837 261.485 67.672H260.485C260.485 68.879 260.83 69.8851 261.578 70.6206L262.279 69.9074ZM261.485 67.672C261.485 66.682 261.763 65.976 262.263 65.4846L261.562 64.7714C260.825 65.496 260.485 66.486 260.485 67.672H261.485ZM262.263 65.4846C262.796 64.9606 263.437 64.7 264.216 64.7V63.7C263.183 63.7 262.288 64.0581 261.562 64.7714L262.263 65.4846ZM264.216 64.7C265.027 64.7 265.634 65.0003 266.089 65.6049L266.888 65.0031C266.234 64.1357 265.326 63.7 264.216 63.7V64.7ZM264.345 64.724C263.601 64.724 262.955 64.9976 262.435 65.5308L263.15 66.2292C263.483 65.8877 263.872 65.724 264.345 65.724V64.724ZM262.434 65.5309C261.903 66.0757 261.669 66.8128 261.669 67.672H262.669C262.669 66.9952 262.85 66.5376 263.151 66.229L262.434 65.5309ZM261.669 67.672C261.669 68.4979 261.886 69.22 262.358 69.7966L263.131 69.1634C262.835 68.8013 262.669 68.3181 262.669 67.672H261.669ZM262.365 69.8061C262.866 70.3882 263.545 70.668 264.345 70.668V69.668C263.8 69.668 263.412 69.4891 263.124 69.1539L262.365 69.8061ZM264.345 70.668C265.152 70.668 265.833 70.3714 266.331 69.7656L265.558 69.1304C265.267 69.4846 264.881 69.668 264.345 69.668V70.668ZM266.327 69.7706C266.816 69.1908 267.053 68.4863 267.053 67.688H266.053C266.053 68.2763 265.884 68.7452 265.562 69.1254L266.327 69.7706ZM267.053 67.688C267.053 66.8017 266.798 66.0473 266.225 65.5019L265.536 66.2261C265.859 66.534 266.053 66.9956 266.053 67.688H267.053ZM266.225 65.5019C265.692 64.9939 265.059 64.724 264.345 64.724V65.724C264.782 65.724 265.173 65.8807 265.536 66.2261L266.225 65.5019ZM273.845 60.328V59.828H273.345V60.328H273.845ZM278.469 61.08L278.14 61.4572L278.144 61.4605L278.469 61.08ZM278.597 65.496L278.237 65.1491L278.237 65.1492L278.597 65.496ZM275.029 66.36V65.86H274.529V66.36H275.029ZM275.029 71V71.5H275.529V71H275.029ZM273.845 71H273.345V71.5H273.845V71ZM275.029 61.448V60.948H274.529V61.448H275.029ZM275.029 65.24H274.529V65.74H275.029V65.24ZM277.653 64.728L277.331 64.3455L277.326 64.3498L277.653 64.728ZM273.845 60.828H275.781V59.828H273.845V60.828ZM275.781 60.828C276.944 60.828 277.696 61.0703 278.14 61.4572L278.797 60.7028C278.089 60.087 277.05 59.828 275.781 59.828V60.828ZM278.144 61.4605C278.668 61.9067 278.945 62.5216 278.945 63.368H279.945C279.945 62.273 279.571 61.3626 278.793 60.6995L278.144 61.4605ZM278.945 63.368C278.945 64.0737 278.71 64.6577 278.237 65.1491L278.957 65.8429C279.614 65.1609 279.945 64.3263 279.945 63.368H278.945ZM278.237 65.1492C277.81 65.5926 277.121 65.86 276.069 65.86V66.86C277.278 66.86 278.275 66.5514 278.957 65.8428L278.237 65.1492ZM276.069 65.86H275.029V66.86H276.069V65.86ZM274.529 66.36V71H275.529V66.36H274.529ZM275.029 70.5H273.845V71.5H275.029V70.5ZM274.345 71V60.328H273.345V71H274.345ZM274.529 61.448V65.24H275.529V61.448H274.529ZM275.029 65.74H276.005V64.74H275.029V65.74ZM276.005 65.74C276.787 65.74 277.467 65.5499 277.98 65.1062L277.326 64.3498C277.049 64.5888 276.631 64.74 276.005 64.74V65.74ZM277.975 65.1105C278.51 64.6595 278.761 64.0352 278.761 63.304H277.761C277.761 63.7888 277.606 64.1138 277.331 64.3455L277.975 65.1105ZM278.761 63.304C278.761 62.5726 278.523 61.9461 277.982 61.5195C277.464 61.1107 276.745 60.948 275.909 60.948V61.948C276.641 61.948 277.097 62.0946 277.363 62.3045C277.606 62.4966 277.761 62.7981 277.761 63.304H278.761ZM275.909 60.948H275.029V61.948H275.909V60.948ZM286.358 61.448V61.948H286.858V61.448H286.358ZM283.766 61.448V60.948H283.266V61.448H283.766ZM283.766 71V71.5H284.266V71H283.766ZM282.582 71H282.082V71.5H282.582V71ZM282.582 61.448H283.082V60.948H282.582V61.448ZM279.99 61.448H279.49V61.948H279.99V61.448ZM279.99 60.328V59.828H279.49V60.328H279.99ZM286.358 60.328H286.858V59.828H286.358V60.328ZM286.358 60.948H283.766V61.948H286.358V60.948ZM283.266 61.448V71H284.266V61.448H283.266ZM283.766 70.5H282.582V71.5H283.766V70.5ZM283.082 71V61.448H282.082V71H283.082ZM282.582 60.948H279.99V61.948H282.582V60.948ZM280.49 61.448V60.328H279.49V61.448H280.49ZM279.99 60.828H286.358V59.828H279.99V60.828ZM285.858 60.328V61.448H286.858V60.328H285.858Z" fill="#457BF8" mask="url(#path-9-outside-2_999_4471)"/>
</svg>
