<svg width="328" height="195" viewBox="0 0 328 195" fill="none" xmlns="http://www.w3.org/2000/svg">
<rect width="328" height="195" rx="24" fill="#F5F6F8"/>
<path d="M45.728 42.676C45.728 45.4387 44.748 47.7627 42.788 49.648C40.8467 51.496 38.392 52.42 35.424 52.42C32.456 52.42 30.0013 51.496 28.06 49.648C26.1 47.7627 25.12 45.4387 25.12 42.676C25.12 41.388 25.3627 40.128 25.848 38.896C26.352 37.664 27.0893 36.5907 28.06 35.676C30.0013 33.828 32.456 32.904 35.424 32.904C38.392 32.904 40.8467 33.828 42.788 35.676C43.7587 36.5907 44.4867 37.664 44.972 38.896C45.476 40.128 45.728 41.388 45.728 42.676ZM35.424 37.608C33.8933 37.608 32.6333 38.1027 31.644 39.092C30.6547 40.0627 30.16 41.2853 30.16 42.76C30.16 44.1227 30.6547 45.28 31.644 46.232C32.6707 47.2213 33.9307 47.716 35.424 47.716C36.9547 47.716 38.2053 47.2307 39.176 46.26C40.184 45.252 40.688 44.0573 40.688 42.676C40.688 41.2573 40.184 40.0627 39.176 39.092C38.1307 38.1027 36.88 37.608 35.424 37.608ZM56.3345 39.484H67.8425V48.864H69.6625V55.64H65.7425V52H57.4265V55.64H53.5065V48.864C54.1972 48.808 54.7665 48.556 55.2145 48.108C55.9612 47.38 56.3345 46.1853 56.3345 44.524V39.484ZM63.4745 48.864V42.62H60.4785V44.748C60.4785 45.6813 60.3572 46.4747 60.1145 47.128C59.8345 47.8747 59.4425 48.4533 58.9385 48.864H63.4745ZM71.6142 39.484H76.0942V45.924L81.0502 39.484H84.9422V52H80.4622V45.392L75.5622 52H71.6142V39.484ZM88.9165 43.348L87.4325 40.436C88.0858 40.0813 88.7765 39.792 89.5045 39.568C90.6058 39.232 91.6698 39.064 92.6965 39.064C94.7498 39.064 96.2431 39.5307 97.1765 40.464C97.7738 41.0613 98.0725 41.7987 98.0725 42.676C98.0725 43.4413 97.8671 44.0667 97.4565 44.552C97.1205 44.944 96.7005 45.252 96.1965 45.476V45.532C96.8871 45.644 97.4658 45.9333 97.9325 46.4C98.4365 46.904 98.6885 47.548 98.6885 48.332C98.6885 49.4147 98.3058 50.32 97.5405 51.048C96.6071 51.9627 95.0018 52.42 92.7245 52.42C91.5671 52.42 90.4845 52.2613 89.4765 51.944C88.6178 51.6827 87.7871 51.3 86.9845 50.796L88.6365 47.688C89.1405 48.08 89.6631 48.3973 90.2045 48.64C90.8205 48.9013 91.4738 49.032 92.1645 49.032C92.7245 49.032 93.1725 48.9573 93.5085 48.808C93.9005 48.6213 94.0965 48.3413 94.0965 47.968C94.0965 47.6507 93.9285 47.4173 93.5925 47.268C93.3125 47.1373 92.8271 47.072 92.1365 47.072H90.5965V44.16H91.8565C92.4351 44.16 92.9018 44.0947 93.2565 43.964C93.6485 43.8333 93.8445 43.5907 93.8445 43.236C93.8445 42.9 93.6671 42.6573 93.3125 42.508C93.0138 42.3587 92.5845 42.284 92.0245 42.284C91.4645 42.284 90.8951 42.396 90.3165 42.62C89.7938 42.8067 89.3271 43.0493 88.9165 43.348ZM110.697 40.688V39.484H115.177V52H110.697V50.628C109.838 51.8227 108.541 52.42 106.805 52.42C105.05 52.42 103.547 51.7573 102.297 50.432C101.102 49.1627 100.505 47.632 100.505 45.84C100.505 43.7867 101.149 42.116 102.437 40.828C103.613 39.652 105.115 39.064 106.945 39.064C108.475 39.064 109.726 39.6053 110.697 40.688ZM107.953 42.872C107.206 42.872 106.553 43.1427 105.993 43.684C105.395 44.2627 105.097 44.944 105.097 45.728C105.097 46.5493 105.386 47.2307 105.965 47.772C106.562 48.332 107.234 48.612 107.981 48.612C108.746 48.612 109.418 48.3227 109.997 47.744C110.557 47.184 110.837 46.512 110.837 45.728C110.837 44.9253 110.547 44.244 109.969 43.684C109.39 43.1427 108.718 42.872 107.953 42.872ZM118.263 39.484H122.743V45.924L127.699 39.484H131.591V52H127.111V45.392L122.211 52H118.263V39.484ZM127.083 33.072L130.079 34.136C129.78 35.256 129.145 36.1147 128.175 36.712C127.353 37.2347 126.271 37.496 124.927 37.496C123.583 37.496 122.5 37.2347 121.679 36.712C120.708 36.1147 120.073 35.256 119.775 34.136L122.771 33.072C122.92 33.576 123.135 33.968 123.415 34.248C123.769 34.6213 124.273 34.808 124.927 34.808C125.58 34.808 126.084 34.6213 126.439 34.248C126.719 33.968 126.933 33.576 127.083 33.072ZM134.669 52V39.484H139.149V43.712H143.321V39.484H147.801V52H143.321V47.24H139.149V52H134.669ZM150.744 46.344V42.62H157.828V46.344H150.744ZM170.219 47.968V51.72C169.267 52.1867 168.231 52.42 167.111 52.42C165.132 52.42 163.49 51.7853 162.183 50.516C160.895 49.2653 160.251 47.7067 160.251 45.84C160.251 43.9173 160.923 42.3027 162.267 40.996C163.592 39.7267 165.272 39.092 167.307 39.092C168.315 39.092 169.286 39.3253 170.219 39.792V43.544C169.454 43.0027 168.679 42.732 167.895 42.732C167.018 42.732 166.29 43.0213 165.711 43.6C165.132 44.1787 164.843 44.8973 164.843 45.756C164.843 46.5773 165.104 47.2773 165.627 47.856C166.224 48.4907 166.99 48.808 167.923 48.808C168.8 48.808 169.566 48.528 170.219 47.968ZM172.759 39.484H177.239V45.924L182.195 39.484H186.087V52H181.607V45.392L176.707 52H172.759V39.484ZM198.629 47.968V51.72C197.677 52.1867 196.641 52.42 195.521 52.42C193.542 52.42 191.9 51.7853 190.593 50.516C189.305 49.2653 188.661 47.7067 188.661 45.84C188.661 43.9173 189.333 42.3027 190.677 40.996C192.002 39.7267 193.682 39.092 195.717 39.092C196.725 39.092 197.696 39.3253 198.629 39.792V43.544C197.864 43.0027 197.089 42.732 196.305 42.732C195.428 42.732 194.7 43.0213 194.121 43.6C193.542 44.1787 193.253 44.8973 193.253 45.756C193.253 46.5773 193.514 47.2773 194.037 47.856C194.634 48.4907 195.4 48.808 196.333 48.808C197.21 48.808 197.976 48.528 198.629 47.968ZM203.157 52V43.152H199.909V39.484H210.885V43.152H207.637V52H203.157ZM225.98 46.092V46.568H216.656C216.656 47.4453 216.917 48.1453 217.44 48.668C217.851 49.0787 218.467 49.284 219.288 49.284C219.848 49.284 220.333 49.172 220.744 48.948C221.099 48.7427 221.36 48.4627 221.528 48.108H225.812C225.532 49.116 225.028 49.9747 224.3 50.684C223.105 51.8413 221.407 52.42 219.204 52.42C217.02 52.42 215.293 51.7853 214.024 50.516C212.792 49.284 212.176 47.7067 212.176 45.784C212.176 43.768 212.801 42.1533 214.052 40.94C215.303 39.7267 217.011 39.12 219.176 39.12C221.173 39.12 222.779 39.6893 223.992 40.828C225.317 42.0973 225.98 43.852 225.98 46.092ZM216.796 43.992H221.864C221.733 43.4507 221.491 43.0027 221.136 42.648C220.688 42.2 220.072 41.976 219.288 41.976C218.523 41.976 217.916 42.2 217.468 42.648C217.095 43.0587 216.871 43.5067 216.796 43.992ZM227.587 52L229.575 39.484H233.467L236.547 46.26L239.627 39.484H243.519L245.507 52H241.307L240.299 45.476L237.359 52H235.735L232.795 45.476L231.787 52H227.587ZM260.871 46.092V46.568H251.547C251.547 47.4453 251.808 48.1453 252.331 48.668C252.741 49.0787 253.357 49.284 254.179 49.284C254.739 49.284 255.224 49.172 255.635 48.948C255.989 48.7427 256.251 48.4627 256.419 48.108H260.703C260.423 49.116 259.919 49.9747 259.191 50.684C257.996 51.8413 256.297 52.42 254.095 52.42C251.911 52.42 250.184 51.7853 248.915 50.516C247.683 49.284 247.067 47.7067 247.067 45.784C247.067 43.768 247.692 42.1533 248.943 40.94C250.193 39.7267 251.901 39.12 254.067 39.12C256.064 39.12 257.669 39.6893 258.883 40.828C260.208 42.0973 260.871 43.852 260.871 46.092ZM251.687 43.992H256.755C256.624 43.4507 256.381 43.0027 256.027 42.648C255.579 42.2 254.963 41.976 254.179 41.976C253.413 41.976 252.807 42.2 252.359 42.648C251.985 43.0587 251.761 43.5067 251.687 43.992Z" fill="#0B1530"/>
<path d="M210.429 110.858L196.714 114.286L200.143 104.001V73.1434C200.143 72.2341 200.504 71.362 201.147 70.719C201.79 70.0761 202.662 69.7148 203.571 69.7148H237.857C238.766 69.7148 239.639 70.0761 240.282 70.719C240.924 71.362 241.286 72.2341 241.286 73.1434V107.429C241.286 108.338 240.924 109.211 240.282 109.853C239.639 110.496 238.766 110.858 237.857 110.858H210.429Z" fill="#C1D3FD"/>
<path d="M210.429 110.858L196.714 114.286L200.143 104.001V73.1434C200.143 72.2341 200.504 71.362 201.147 70.719C201.79 70.0761 202.662 69.7148 203.571 69.7148H237.857C238.766 69.7148 239.639 70.0761 240.282 70.719C240.924 71.362 241.286 72.2341 241.286 73.1434V107.429C241.286 108.338 240.924 109.211 240.282 109.853C239.639 110.496 238.766 110.858 237.857 110.858H210.429Z" stroke="#457BF8" stroke-linecap="round" stroke-linejoin="round"/>
<path d="M215.571 85.1429C215.571 84.1257 215.873 83.1314 216.438 82.2857C217.003 81.4399 217.806 80.7807 218.746 80.3915C219.686 80.0022 220.72 79.9004 221.717 80.0988C222.715 80.2973 223.631 80.7871 224.351 81.5063C225.07 82.2256 225.56 83.1419 225.758 84.1396C225.957 85.1372 225.855 86.1712 225.466 87.111C225.076 88.0507 224.417 88.8539 223.571 89.419C222.726 89.9841 221.731 90.2857 220.714 90.2857V93.7143" stroke="#457BF8" stroke-linecap="round" stroke-linejoin="round"/>
<path d="M220.715 102.285C220.241 102.285 219.857 101.901 219.857 101.427C219.857 100.954 220.241 100.57 220.715 100.57" stroke="#457BF8" stroke-linecap="round" stroke-linejoin="round"/>
<path d="M220.714 102.285C221.188 102.285 221.571 101.901 221.571 101.427C221.571 100.954 221.188 100.57 220.714 100.57" stroke="#457BF8" stroke-linecap="round" stroke-linejoin="round"/>
<path d="M155.001 144.429C168.357 144.429 179.184 133.602 179.184 120.246C179.184 106.89 168.357 96.0625 155.001 96.0625C141.645 96.0625 130.817 106.89 130.817 120.246C130.817 133.602 141.645 144.429 155.001 144.429Z" fill="white"/>
<path d="M190.315 170.144C187.915 162.663 183.203 156.137 176.857 151.507C170.509 146.878 162.856 144.383 155 144.383C147.144 144.383 139.491 146.878 133.144 151.507C126.798 156.137 122.085 162.663 119.686 170.144H190.315Z" fill="#C1D3FD"/>
<path d="M190.315 170.144C187.915 162.663 183.203 156.137 176.857 151.507C170.509 146.878 162.856 144.383 155 144.383C147.144 144.383 139.491 146.878 133.144 151.507C126.798 156.137 122.085 162.663 119.686 170.144H190.315Z" stroke="#457BF8" stroke-linecap="round" stroke-linejoin="round"/>
<path d="M155 144.429C168.356 144.429 179.184 133.602 179.184 120.246C179.184 106.89 168.356 96.0625 155 96.0625C141.644 96.0625 130.817 106.89 130.817 120.246C130.817 133.602 141.644 144.429 155 144.429Z" stroke="#457BF8" stroke-linecap="round" stroke-linejoin="round"/>
<path d="M162.897 129.602C162.897 129.602 160.89 133.55 155 133.55C149.11 133.55 147.104 129.602 147.104 129.602" stroke="#457BF8" stroke-linecap="round" stroke-linejoin="round"/>
<path d="M178.745 115.641C178.691 115.642 178.637 115.642 178.583 115.642C171.554 115.642 165.243 112.567 160.922 107.688C156.601 112.567 150.29 115.642 143.261 115.642C139.179 115.642 135.339 114.605 131.991 112.78C135.137 103.078 144.249 96.0625 155 96.0625C166.781 96.0625 176.595 104.487 178.745 115.641Z" fill="#C1D3FD"/>
<path d="M178.745 115.641C178.691 115.642 178.637 115.642 178.583 115.642C171.554 115.642 165.243 112.567 160.922 107.688C156.601 112.567 150.29 115.642 143.261 115.642C139.179 115.642 135.339 114.605 131.991 112.78C135.137 103.078 144.249 96.0625 155 96.0625C166.781 96.0625 176.595 104.487 178.745 115.641Z" stroke="#457BF8" stroke-linecap="round" stroke-linejoin="round"/>
<g clip-path="url(#clip0_999_4467)">
<path d="M79.3295 106.672H77.8795C77.517 106.641 77.1791 106.476 76.9328 106.208C76.6865 105.941 76.5498 105.59 76.5498 105.227C76.5498 104.863 76.6865 104.512 76.9328 104.245C77.1791 103.977 77.517 103.812 77.8795 103.782H80.1795L81.6595 102.302L77.5995 99.8016C77.2869 99.6083 77.0594 99.3037 76.9629 98.9491C76.8663 98.5945 76.908 98.2166 77.0795 97.8916C77.1552 97.7056 77.2682 97.537 77.4115 97.3964C77.5549 97.2558 77.7255 97.146 77.9129 97.0738C78.1003 97.0017 78.3005 96.9687 78.5011 96.9769C78.7018 96.9851 78.8986 97.0343 79.0795 97.1216L84.3795 99.5716L86.9395 96.9816C87.2153 96.7057 87.5894 96.5508 87.9795 96.5508C88.3696 96.5508 88.7437 96.7057 89.0195 96.9816C89.2953 97.2574 89.4503 97.6315 89.4503 98.0216C89.4503 98.4116 89.2953 98.7857 89.0195 99.0616L86.4295 101.622L88.8795 106.972C88.9601 107.15 89.0041 107.342 89.0088 107.538C89.0136 107.733 88.9791 107.928 88.9072 108.11C88.8354 108.291 88.7278 108.457 88.5908 108.597C88.4537 108.736 88.2901 108.847 88.1095 108.922C87.7845 109.093 87.4065 109.135 87.052 109.038C86.6974 108.942 86.3927 108.714 86.1995 108.402L83.6995 104.342L82.2195 105.822V108.122C82.1893 108.484 82.024 108.822 81.7563 109.068C81.4887 109.315 81.1382 109.451 80.7745 109.451C80.4108 109.451 80.0603 109.315 79.7926 109.068C79.525 108.822 79.3597 108.484 79.3295 108.122V106.672Z" fill="#D7E0FF"/>
<path d="M79.3295 106.672H77.8795C77.517 106.641 77.1791 106.476 76.9328 106.208C76.6865 105.941 76.5498 105.59 76.5498 105.227C76.5498 104.863 76.6865 104.512 76.9328 104.245C77.1791 103.977 77.517 103.812 77.8795 103.782H80.1795L81.6595 102.302L77.5995 99.8016C77.2869 99.6083 77.0594 99.3037 76.9629 98.9491C76.8663 98.5945 76.908 98.2166 77.0795 97.8916C77.1552 97.7056 77.2682 97.537 77.4115 97.3964C77.5549 97.2558 77.7255 97.146 77.9129 97.0738C78.1003 97.0017 78.3005 96.9687 78.5011 96.9769C78.7018 96.9851 78.8986 97.0343 79.0795 97.1216L84.3795 99.5716L86.9395 96.9816C87.2154 96.7057 87.5895 96.5508 87.9795 96.5508C88.3696 96.5508 88.7437 96.7057 89.0195 96.9816C89.2954 97.2574 89.4503 97.6315 89.4503 98.0216C89.4503 98.4116 89.2954 98.7857 89.0195 99.0616L86.4295 101.622L88.8795 106.972C88.9601 107.15 89.0041 107.342 89.0089 107.538C89.0136 107.733 88.9791 107.928 88.9073 108.11C88.8355 108.291 88.7278 108.457 88.5908 108.597C88.4538 108.736 88.2901 108.847 88.1095 108.922C87.7845 109.093 87.4065 109.135 87.052 109.038C86.6974 108.942 86.3928 108.714 86.1995 108.402L83.6995 104.342L82.2195 105.822V108.122C82.1893 108.484 82.024 108.822 81.7563 109.068C81.4887 109.315 81.1382 109.451 80.7745 109.451C80.4108 109.451 80.0603 109.315 79.7926 109.068C79.525 108.822 79.3597 108.484 79.3295 108.122V106.672Z" stroke="#4147D5" stroke-linecap="round" stroke-linejoin="round"/>
</g>
<g clip-path="url(#clip1_999_4467)">
<path d="M242.5 143.5L246 147.5H242.5" fill="white"/>
<path d="M240.5 141.5L235.5 147.5H240.5" fill="white"/>
<path d="M247.5 150.5H234.5L235.5 153.2C235.643 153.583 235.9 153.913 236.236 154.145C236.572 154.377 236.971 154.501 237.38 154.5H244.6C245.009 154.501 245.408 154.377 245.744 154.145C246.08 153.913 246.337 153.583 246.48 153.2L247.5 150.5Z" fill="#D7E0FF"/>
<path d="M247.5 150.5H234.5L235.5 153.2C235.643 153.583 235.9 153.913 236.236 154.145C236.572 154.377 236.971 154.501 237.38 154.5H244.6C245.009 154.501 245.408 154.377 245.744 154.145C246.08 153.913 246.337 153.583 246.48 153.2L247.5 150.5Z" stroke="#4147D5" stroke-linecap="round" stroke-linejoin="round"/>
<path d="M240.5 150.5V141.5" stroke="#4147D5" stroke-linecap="round" stroke-linejoin="round"/>
<path d="M240.5 141.5L235.5 147.5H240.5" stroke="#4147D5" stroke-linecap="round" stroke-linejoin="round"/>
<path d="M242.5 143.5L246 147.5H242.5" stroke="#4147D5" stroke-linecap="round" stroke-linejoin="round"/>
</g>
<path d="M62.6856 156.207H73.8752V158.955H62.6855L62.6856 156.207Z" fill="white"/>
<path fill-rule="evenodd" clip-rule="evenodd" d="M75.4271 159.957C75.4271 159.405 74.9793 158.957 74.4271 158.957L62.6853 158.957L62.6846 162.634C62.6846 163.108 63.0686 163.492 63.5422 163.492H63.9946C63.9945 163.487 63.9945 163.483 63.9945 163.478C63.9945 162.707 64.6195 162.082 65.3905 162.082C66.1614 162.082 66.7864 162.707 66.7864 163.478C66.7864 163.483 66.7864 163.487 66.7864 163.492H70.8341C70.8341 163.487 70.8341 163.483 70.8341 163.478C70.8341 162.707 71.459 162.082 72.23 162.082C73.001 162.082 73.626 162.707 73.626 163.478C73.626 163.483 73.6259 163.487 73.6259 163.492H74.4271C74.9793 163.492 75.4271 163.044 75.4271 162.492V159.957Z" fill="#D7E0FF"/>
<path d="M62.6846 155.375C62.6846 154.823 63.1323 154.375 63.6846 154.375H72.875C73.4273 154.375 73.875 154.823 73.875 155.375V156.209H62.6853L62.6846 155.375Z" fill="#D7E0FF"/>
<path d="M73.625 163.492H74.4271C74.9793 163.492 75.4271 163.044 75.4271 162.492V159.957C75.4271 159.405 74.9793 158.957 74.4271 158.957H73.875V155.375C73.875 154.823 73.4273 154.375 72.875 154.375H63.6846C63.1323 154.375 62.6846 154.823 62.6846 155.375V162.634C62.6846 163.108 63.0686 163.492 63.5422 163.492H64" stroke="#4147D5" stroke-linecap="round" stroke-linejoin="round"/>
<path d="M73.8752 156.207H62.6855" stroke="#4147D5" stroke-linecap="round" stroke-linejoin="round"/>
<path d="M73.8752 158.957H62.6855" stroke="#4147D5" stroke-linecap="round" stroke-linejoin="round"/>
<path d="M66.4639 156.207V158.952" stroke="#4147D5" stroke-linecap="round" stroke-linejoin="round"/>
<path d="M70.0312 156.207V158.952" stroke="#4147D5" stroke-linecap="round" stroke-linejoin="round"/>
<path d="M65.3901 164.874C66.1611 164.874 66.7861 164.249 66.7861 163.478C66.7861 162.707 66.1611 162.082 65.3901 162.082C64.6192 162.082 63.9941 162.707 63.9941 163.478C63.9941 164.249 64.6192 164.874 65.3901 164.874Z" fill="white"/>
<path d="M72.23 164.874C73.001 164.874 73.626 164.249 73.626 163.478C73.626 162.707 73.001 162.082 72.23 162.082C71.459 162.082 70.834 162.707 70.834 163.478C70.834 164.249 71.459 164.874 72.23 164.874Z" fill="white"/>
<path d="M65.3901 164.874C66.1611 164.874 66.7861 164.249 66.7861 163.478C66.7861 162.707 66.1611 162.082 65.3901 162.082C64.6192 162.082 63.9941 162.707 63.9941 163.478C63.9941 164.249 64.6192 164.874 65.3901 164.874Z" stroke="#4147D5" stroke-linecap="round" stroke-linejoin="round"/>
<path d="M72.23 164.874C73.001 164.874 73.626 164.249 73.626 163.478C73.626 162.707 73.001 162.082 72.23 162.082C71.459 162.082 70.834 162.707 70.834 163.478C70.834 164.249 71.459 164.874 72.23 164.874Z" stroke="#4147D5" stroke-linecap="round" stroke-linejoin="round"/>
<path d="M66.7866 163.477H68.805H70.8342" stroke="#4147D5" stroke-linecap="round" stroke-linejoin="round"/>
<defs>
<clipPath id="clip0_999_4467">
<rect width="14" height="14" fill="white" transform="translate(76 96)"/>
</clipPath>
<clipPath id="clip1_999_4467">
<rect width="14" height="14" fill="white" transform="translate(234 141)"/>
</clipPath>
</defs>
</svg>
