<svg width="328" height="195" viewBox="0 0 328 195" fill="none" xmlns="http://www.w3.org/2000/svg">
<rect width="328" height="195" rx="24" fill="#EAF0FE"/>
<path d="M39.372 45.756V51.496C37.6733 52.112 36.2733 52.42 35.172 52.42C32.26 52.42 29.852 51.4867 27.948 49.62C27.052 48.724 26.352 47.6787 25.848 46.484C25.3627 45.2707 25.12 44.048 25.12 42.816C25.12 41.528 25.372 40.2773 25.876 39.064C26.3987 37.8507 27.0893 36.8053 27.948 35.928C29.852 33.9867 32.204 33.016 35.004 33.016C36.3667 33.016 37.8227 33.3333 39.372 33.968V39.764C38.2707 38.4013 36.8613 37.72 35.144 37.72C33.8187 37.72 32.6987 38.1307 31.784 38.952C30.7013 39.96 30.16 41.2387 30.16 42.788C30.16 44.2627 30.664 45.476 31.672 46.428C32.5867 47.2867 33.744 47.716 35.144 47.716C36.768 47.716 38.1773 47.0627 39.372 45.756ZM55.3003 46.092V46.568H45.9763C45.9763 47.4453 46.2376 48.1453 46.7603 48.668C47.1709 49.0787 47.7869 49.284 48.6083 49.284C49.1683 49.284 49.6536 49.172 50.0643 48.948C50.4189 48.7427 50.6803 48.4627 50.8483 48.108H55.1323C54.8523 49.116 54.3483 49.9747 53.6203 50.684C52.4256 51.8413 50.7269 52.42 48.5243 52.42C46.3403 52.42 44.6136 51.7853 43.3443 50.516C42.1123 49.284 41.4963 47.7067 41.4963 45.784C41.4963 43.768 42.1216 42.1533 43.3723 40.94C44.6229 39.7267 46.3309 39.12 48.4963 39.12C50.4936 39.12 52.0989 39.6893 53.3123 40.828C54.6376 42.0973 55.3003 43.852 55.3003 46.092ZM46.1163 43.992H51.1843C51.0536 43.4507 50.8109 43.0027 50.4563 42.648C50.0083 42.2 49.3923 41.976 48.6083 41.976C47.8429 41.976 47.2363 42.2 46.7883 42.648C46.4149 43.0587 46.1909 43.5067 46.1163 43.992ZM59.8757 52V43.152H56.6277V39.484H67.6037V43.152H64.3557V52H59.8757ZM69.4267 52V39.484H73.9067V44.608L77.6867 39.484H83.3147L78.1347 45.364L83.7907 52H77.9947L73.9067 46.456V52H69.4267ZM94.1811 40.688V39.484H98.6611V52H94.1811V50.628C93.3225 51.8227 92.0251 52.42 90.2891 52.42C88.5345 52.42 87.0318 51.7573 85.7811 50.432C84.5865 49.1627 83.9891 47.632 83.9891 45.84C83.9891 43.7867 84.6331 42.116 85.9211 40.828C87.0971 39.652 88.5998 39.064 90.4291 39.064C91.9598 39.064 93.2105 39.6053 94.1811 40.688ZM91.4371 42.872C90.6905 42.872 90.0371 43.1427 89.4771 43.684C88.8798 44.2627 88.5811 44.944 88.5811 45.728C88.5811 46.5493 88.8705 47.2307 89.4491 47.772C90.0465 48.332 90.7185 48.612 91.4651 48.612C92.2305 48.612 92.9025 48.3227 93.4811 47.744C94.0411 47.184 94.3211 46.512 94.3211 45.728C94.3211 44.9253 94.0318 44.244 93.4531 43.684C92.8745 43.1427 92.2025 42.872 91.4371 42.872Z" fill="#0B1530"/>
<rect x="41" y="89.6367" width="46.118" height="42.0826" fill="#C1D3FD"/>
<rect x="87.1182" y="89.6367" width="20.8453" height="42.0826" fill="#457BF8"/>
<rect x="113.728" y="89.6367" width="20.8453" height="42.0826" fill="#457BF8"/>
<rect x="140.338" y="89.6367" width="20.8453" height="42.0826" fill="#457BF8"/>
<rect x="166.948" y="89.6367" width="20.8453" height="42.0826" fill="#457BF8"/>
<rect x="193.559" y="89.6367" width="20.8453" height="42.0826" fill="#457BF8"/>
<rect x="220.168" y="89.6367" width="20.8453" height="42.0826" fill="#457BF8"/>
<rect x="241.014" y="89.6367" width="46.118" height="42.0826" fill="#C1D3FD"/>
<mask id="path-11-inside-1_1065_3789" fill="white">
<path d="M241.037 132.225L241.037 139.719L87.1184 139.719L87.1184 132.225L241.037 132.225Z"/>
</mask>
<path d="M241.037 139.719L241.037 141.719L243.037 141.719L243.037 139.719L241.037 139.719ZM87.1184 139.719L85.1184 139.719L85.1184 141.719L87.1184 141.719L87.1184 139.719ZM239.037 132.225L239.037 139.719L243.037 139.719L243.037 132.225L239.037 132.225ZM241.037 137.719L87.1184 137.719L87.1184 141.719L241.037 141.719L241.037 137.719ZM89.1184 139.719L89.1184 132.225L85.1184 132.225L85.1184 139.719L89.1184 139.719Z" fill="#6E98FA" mask="url(#path-11-inside-1_1065_3789)"/>
</svg>
