<svg width="328" height="195" viewBox="0 0 328 195" fill="none" xmlns="http://www.w3.org/2000/svg">
<rect width="328" height="195" rx="24" fill="#EAF0FE"/>
<path d="M45.728 42.676C45.728 45.4387 44.748 47.7627 42.788 49.648C40.8467 51.496 38.392 52.42 35.424 52.42C32.456 52.42 30.0013 51.496 28.06 49.648C26.1 47.7627 25.12 45.4387 25.12 42.676C25.12 41.388 25.3627 40.128 25.848 38.896C26.352 37.664 27.0893 36.5907 28.06 35.676C30.0013 33.828 32.456 32.904 35.424 32.904C38.392 32.904 40.8467 33.828 42.788 35.676C43.7587 36.5907 44.4867 37.664 44.972 38.896C45.476 40.128 45.728 41.388 45.728 42.676ZM35.424 37.608C33.8933 37.608 32.6333 38.1027 31.644 39.092C30.6547 40.0627 30.16 41.2853 30.16 42.76C30.16 44.1227 30.6547 45.28 31.644 46.232C32.6707 47.2213 33.9307 47.716 35.424 47.716C36.9547 47.716 38.2053 47.2307 39.176 46.26C40.184 45.252 40.688 44.0573 40.688 42.676C40.688 41.2573 40.184 40.0627 39.176 39.092C38.1307 38.1027 36.88 37.608 35.424 37.608ZM56.3345 39.484H67.8425V48.864H69.6625V55.64H65.7425V52H57.4265V55.64H53.5065V48.864C54.1972 48.808 54.7665 48.556 55.2145 48.108C55.9612 47.38 56.3345 46.1853 56.3345 44.524V39.484ZM63.4745 48.864V42.62H60.4785V44.748C60.4785 45.6813 60.3572 46.4747 60.1145 47.128C59.8345 47.8747 59.4425 48.4533 58.9385 48.864H63.4745ZM71.6142 39.484H76.0942V45.924L81.0502 39.484H84.9422V52H80.4622V45.392L75.5622 52H71.6142V39.484ZM88.9165 43.348L87.4325 40.436C88.0858 40.0813 88.7765 39.792 89.5045 39.568C90.6058 39.232 91.6698 39.064 92.6965 39.064C94.7498 39.064 96.2431 39.5307 97.1765 40.464C97.7738 41.0613 98.0725 41.7987 98.0725 42.676C98.0725 43.4413 97.8671 44.0667 97.4565 44.552C97.1205 44.944 96.7005 45.252 96.1965 45.476V45.532C96.8871 45.644 97.4658 45.9333 97.9325 46.4C98.4365 46.904 98.6885 47.548 98.6885 48.332C98.6885 49.4147 98.3058 50.32 97.5405 51.048C96.6071 51.9627 95.0018 52.42 92.7245 52.42C91.5671 52.42 90.4845 52.2613 89.4765 51.944C88.6178 51.6827 87.7871 51.3 86.9845 50.796L88.6365 47.688C89.1405 48.08 89.6631 48.3973 90.2045 48.64C90.8205 48.9013 91.4738 49.032 92.1645 49.032C92.7245 49.032 93.1725 48.9573 93.5085 48.808C93.9005 48.6213 94.0965 48.3413 94.0965 47.968C94.0965 47.6507 93.9285 47.4173 93.5925 47.268C93.3125 47.1373 92.8271 47.072 92.1365 47.072H90.5965V44.16H91.8565C92.4351 44.16 92.9018 44.0947 93.2565 43.964C93.6485 43.8333 93.8445 43.5907 93.8445 43.236C93.8445 42.9 93.6671 42.6573 93.3125 42.508C93.0138 42.3587 92.5845 42.284 92.0245 42.284C91.4645 42.284 90.8951 42.396 90.3165 42.62C89.7938 42.8067 89.3271 43.0493 88.9165 43.348ZM110.697 40.688V39.484H115.177V52H110.697V50.628C109.838 51.8227 108.541 52.42 106.805 52.42C105.05 52.42 103.547 51.7573 102.297 50.432C101.102 49.1627 100.505 47.632 100.505 45.84C100.505 43.7867 101.149 42.116 102.437 40.828C103.613 39.652 105.115 39.064 106.945 39.064C108.475 39.064 109.726 39.6053 110.697 40.688ZM107.953 42.872C107.206 42.872 106.553 43.1427 105.993 43.684C105.395 44.2627 105.097 44.944 105.097 45.728C105.097 46.5493 105.386 47.2307 105.965 47.772C106.562 48.332 107.234 48.612 107.981 48.612C108.746 48.612 109.418 48.3227 109.997 47.744C110.557 47.184 110.837 46.512 110.837 45.728C110.837 44.9253 110.547 44.244 109.969 43.684C109.39 43.1427 108.718 42.872 107.953 42.872ZM118.263 39.484H122.743V45.924L127.699 39.484H131.591V52H127.111V45.392L122.211 52H118.263V39.484ZM127.083 33.072L130.079 34.136C129.78 35.256 129.145 36.1147 128.175 36.712C127.353 37.2347 126.271 37.496 124.927 37.496C123.583 37.496 122.5 37.2347 121.679 36.712C120.708 36.1147 120.073 35.256 119.775 34.136L122.771 33.072C122.92 33.576 123.135 33.968 123.415 34.248C123.769 34.6213 124.273 34.808 124.927 34.808C125.58 34.808 126.084 34.6213 126.439 34.248C126.719 33.968 126.933 33.576 127.083 33.072ZM134.669 52V39.484H139.149V43.712H143.321V39.484H147.801V52H143.321V47.24H139.149V52H134.669ZM150.744 46.344V42.62H157.828V46.344H150.744ZM170.219 47.968V51.72C169.267 52.1867 168.231 52.42 167.111 52.42C165.132 52.42 163.49 51.7853 162.183 50.516C160.895 49.2653 160.251 47.7067 160.251 45.84C160.251 43.9173 160.923 42.3027 162.267 40.996C163.592 39.7267 165.272 39.092 167.307 39.092C168.315 39.092 169.286 39.3253 170.219 39.792V43.544C169.454 43.0027 168.679 42.732 167.895 42.732C167.018 42.732 166.29 43.0213 165.711 43.6C165.132 44.1787 164.843 44.8973 164.843 45.756C164.843 46.5773 165.104 47.2773 165.627 47.856C166.224 48.4907 166.99 48.808 167.923 48.808C168.8 48.808 169.566 48.528 170.219 47.968ZM172.759 39.484H177.239V45.924L182.195 39.484H186.087V52H181.607V45.392L176.707 52H172.759V39.484ZM198.629 47.968V51.72C197.677 52.1867 196.641 52.42 195.521 52.42C193.542 52.42 191.9 51.7853 190.593 50.516C189.305 49.2653 188.661 47.7067 188.661 45.84C188.661 43.9173 189.333 42.3027 190.677 40.996C192.002 39.7267 193.682 39.092 195.717 39.092C196.725 39.092 197.696 39.3253 198.629 39.792V43.544C197.864 43.0027 197.089 42.732 196.305 42.732C195.428 42.732 194.7 43.0213 194.121 43.6C193.542 44.1787 193.253 44.8973 193.253 45.756C193.253 46.5773 193.514 47.2773 194.037 47.856C194.634 48.4907 195.4 48.808 196.333 48.808C197.21 48.808 197.976 48.528 198.629 47.968ZM203.157 52V43.152H199.909V39.484H210.885V43.152H207.637V52H203.157ZM225.98 46.092V46.568H216.656C216.656 47.4453 216.917 48.1453 217.44 48.668C217.851 49.0787 218.467 49.284 219.288 49.284C219.848 49.284 220.333 49.172 220.744 48.948C221.099 48.7427 221.36 48.4627 221.528 48.108H225.812C225.532 49.116 225.028 49.9747 224.3 50.684C223.105 51.8413 221.407 52.42 219.204 52.42C217.02 52.42 215.293 51.7853 214.024 50.516C212.792 49.284 212.176 47.7067 212.176 45.784C212.176 43.768 212.801 42.1533 214.052 40.94C215.303 39.7267 217.011 39.12 219.176 39.12C221.173 39.12 222.779 39.6893 223.992 40.828C225.317 42.0973 225.98 43.852 225.98 46.092ZM216.796 43.992H221.864C221.733 43.4507 221.491 43.0027 221.136 42.648C220.688 42.2 220.072 41.976 219.288 41.976C218.523 41.976 217.916 42.2 217.468 42.648C217.095 43.0587 216.871 43.5067 216.796 43.992ZM227.587 52L229.575 39.484H233.467L236.547 46.26L239.627 39.484H243.519L245.507 52H241.307L240.299 45.476L237.359 52H235.735L232.795 45.476L231.787 52H227.587ZM260.871 46.092V46.568H251.547C251.547 47.4453 251.808 48.1453 252.331 48.668C252.741 49.0787 253.357 49.284 254.179 49.284C254.739 49.284 255.224 49.172 255.635 48.948C255.989 48.7427 256.251 48.4627 256.419 48.108H260.703C260.423 49.116 259.919 49.9747 259.191 50.684C257.996 51.8413 256.297 52.42 254.095 52.42C251.911 52.42 250.184 51.7853 248.915 50.516C247.683 49.284 247.067 47.7067 247.067 45.784C247.067 43.768 247.692 42.1533 248.943 40.94C250.193 39.7267 251.901 39.12 254.067 39.12C256.064 39.12 257.669 39.6893 258.883 40.828C260.208 42.0973 260.871 43.852 260.871 46.092ZM251.687 43.992H256.755C256.624 43.4507 256.381 43.0027 256.027 42.648C255.579 42.2 254.963 41.976 254.179 41.976C253.413 41.976 252.807 42.2 252.359 42.648C251.985 43.0587 251.761 43.5067 251.687 43.992Z" fill="#0B1530"/>
<g clip-path="url(#clip0_1065_3746)">
<path d="M195.429 115.858L181.714 119.286L185.143 109.001V78.1434C185.143 77.2341 185.504 76.362 186.147 75.719C186.79 75.0761 187.662 74.7148 188.571 74.7148H222.857C223.766 74.7148 224.639 75.0761 225.282 75.719C225.924 76.362 226.286 77.2341 226.286 78.1434V112.429C226.286 113.338 225.924 114.211 225.282 114.853C224.639 115.496 223.766 115.858 222.857 115.858H195.429Z" fill="white"/>
<path d="M195.429 115.858L181.714 119.286L185.143 109.001V78.1434C185.143 77.2341 185.504 76.362 186.147 75.719C186.79 75.0761 187.662 74.7148 188.571 74.7148H222.857C223.766 74.7148 224.639 75.0761 225.282 75.719C225.924 76.362 226.286 77.2341 226.286 78.1434V112.429C226.286 113.338 225.924 114.211 225.282 114.853C224.639 115.496 223.766 115.858 222.857 115.858H195.429Z" fill="#C1D3FD"/>
<path d="M206.49 99.91H202.77V94.03C203.09 94.11 203.48 94.15 203.94 94.15C205.14 94.15 206.08 93.81 206.76 93.13C207.28 92.57 207.54 91.9 207.54 91.12C207.54 90.38 207.33 89.8 206.91 89.38C206.51 88.98 205.99 88.78 205.35 88.78C204.69 88.78 204.18 88.96 203.82 89.32C203.38 89.72 203.16 90.37 203.16 91.27H199.26C199.26 89.65 199.76 88.3 200.76 87.22C201.84 86.1 203.42 85.54 205.5 85.54C207.38 85.54 208.84 86.05 209.88 87.07C210.92 88.07 211.44 89.45 211.44 91.21C211.44 92.77 210.93 94.06 209.91 95.08C208.97 96.02 207.83 96.58 206.49 96.76V99.91ZM202.95 105.79C202.51 105.33 202.29 104.77 202.29 104.11C202.29 103.45 202.51 102.9 202.95 102.46C203.41 102 203.97 101.77 204.63 101.77C205.29 101.77 205.84 102 206.28 102.46C206.74 102.9 206.97 103.45 206.97 104.11C206.97 104.77 206.74 105.33 206.28 105.79C205.84 106.23 205.29 106.45 204.63 106.45C203.97 106.45 203.41 106.23 202.95 105.79Z" fill="#457BF8"/>
</g>
<path d="M148.001 140.429C161.357 140.429 172.184 129.602 172.184 116.246C172.184 102.89 161.357 92.0625 148.001 92.0625C134.645 92.0625 123.817 102.89 123.817 116.246C123.817 129.602 134.645 140.429 148.001 140.429Z" fill="white"/>
<path d="M183.315 166.144C180.915 158.663 176.203 152.137 169.857 147.507C163.509 142.878 155.856 140.383 148 140.383C140.144 140.383 132.491 142.878 126.144 147.507C119.798 152.137 115.085 158.663 112.686 166.144H183.315Z" fill="#457BF8"/>
<path d="M183.315 166.144C180.915 158.663 176.203 152.137 169.857 147.507C163.509 142.878 155.856 140.383 148 140.383C140.144 140.383 132.491 142.878 126.144 147.507C119.798 152.137 115.085 158.663 112.686 166.144H183.315Z" stroke="#457BF8" stroke-linecap="round" stroke-linejoin="round"/>
<path d="M148 140.429C161.356 140.429 172.184 129.602 172.184 116.246C172.184 102.89 161.356 92.0625 148 92.0625C134.644 92.0625 123.817 102.89 123.817 116.246C123.817 129.602 134.644 140.429 148 140.429Z" fill="white"/>
<path d="M155.897 125.602C155.897 125.602 153.89 129.55 148 129.55C142.11 129.55 140.104 125.602 140.104 125.602" stroke="#457BF8" stroke-width="2" stroke-linecap="round" stroke-linejoin="round"/>
<path d="M171.745 111.641C171.691 111.642 171.637 111.642 171.583 111.642C164.554 111.642 158.243 108.567 153.922 103.688C149.601 108.567 143.29 111.642 136.261 111.642C132.179 111.642 128.339 110.605 124.991 108.78C128.137 99.0776 137.249 92.0625 148 92.0625C159.781 92.0625 169.595 100.487 171.745 111.641Z" fill="#457BF8"/>
<path d="M171.745 111.641C171.691 111.642 171.637 111.642 171.583 111.642C164.554 111.642 158.243 108.567 153.922 103.688C149.601 108.567 143.29 111.642 136.261 111.642C132.179 111.642 128.339 110.605 124.991 108.78C128.137 99.0776 137.249 92.0625 148 92.0625C159.781 92.0625 169.595 100.487 171.745 111.641Z" stroke="#457BF8" stroke-linecap="round" stroke-linejoin="round"/>
<defs>
<clipPath id="clip0_1065_3746">
<rect width="48" height="48" fill="white" transform="translate(180 73)"/>
</clipPath>
</defs>
</svg>
