<svg width="328" height="195" viewBox="0 0 328 195" fill="none" xmlns="http://www.w3.org/2000/svg">
<rect width="328" height="195" rx="24" fill="#EAF0FE"/>
<path d="M36.992 37.44H33.016V52H28.172V37.44H24.196V33.324H36.992V37.44ZM37.5439 39.484H42.0239V45.924L46.9799 39.484H50.8719V52H46.3919V45.392L41.4919 52H37.5439V39.484ZM53.9502 52V39.484H66.9142V52H62.4342V43.012H58.4302V52H53.9502ZM77.0289 42.872C76.2636 42.872 75.5916 43.1427 75.0129 43.684C74.4343 44.2253 74.1449 44.9067 74.1449 45.728C74.1449 46.4747 74.4343 47.1373 75.0129 47.716C75.5729 48.276 76.2449 48.556 77.0289 48.556C77.7943 48.556 78.4569 48.276 79.0169 47.716C79.5956 47.1747 79.8849 46.512 79.8849 45.728C79.8849 44.944 79.5956 44.2627 79.0169 43.684C78.4383 43.1427 77.7756 42.872 77.0289 42.872ZM82.6009 41.136C83.8889 42.3867 84.5329 43.9173 84.5329 45.728C84.5329 47.5387 83.8889 49.0787 82.6009 50.348C81.2009 51.7293 79.3343 52.42 77.0009 52.42C74.6863 52.42 72.8289 51.7293 71.4289 50.348C70.1409 49.0787 69.4969 47.5387 69.4969 45.728C69.4969 43.9173 70.1409 42.3867 71.4289 41.136C72.8476 39.7547 74.7049 39.064 77.0009 39.064C79.2783 39.064 81.1449 39.7547 82.6009 41.136ZM87.1181 52V39.484H95.9101V43.152H91.5981V52H87.1181ZM102.317 50.796V58.412H97.8369V39.484H102.317V40.856C103.269 39.6613 104.548 39.064 106.153 39.064C107.908 39.064 109.392 39.6707 110.605 40.884C111.874 42.1533 112.509 43.768 112.509 45.728C112.509 47.7253 111.837 49.3773 110.493 50.684C109.317 51.8413 107.889 52.42 106.209 52.42C104.66 52.42 103.362 51.8787 102.317 50.796ZM105.061 42.872C104.277 42.872 103.605 43.152 103.045 43.712C102.466 44.2907 102.177 44.9813 102.177 45.784C102.177 46.5307 102.466 47.1933 103.045 47.772C103.605 48.332 104.277 48.612 105.061 48.612C105.864 48.612 106.526 48.332 107.049 47.772C107.628 47.1933 107.917 46.5307 107.917 45.784C107.917 44.9813 107.628 44.2907 107.049 43.712C106.526 43.152 105.864 42.872 105.061 42.872ZM124.779 40.688V39.484H129.259V52H124.779V50.628C123.92 51.8227 122.623 52.42 120.887 52.42C119.132 52.42 117.629 51.7573 116.379 50.432C115.184 49.1627 114.587 47.632 114.587 45.84C114.587 43.7867 115.231 42.116 116.519 40.828C117.695 39.652 119.197 39.064 121.027 39.064C122.557 39.064 123.808 39.6053 124.779 40.688ZM122.035 42.872C121.288 42.872 120.635 43.1427 120.075 43.684C119.477 44.2627 119.179 44.944 119.179 45.728C119.179 46.5493 119.468 47.2307 120.047 47.772C120.644 48.332 121.316 48.612 122.063 48.612C122.828 48.612 123.5 48.3227 124.079 47.744C124.639 47.184 124.919 46.512 124.919 45.728C124.919 44.9253 124.629 44.244 124.051 43.684C123.472 43.1427 122.8 42.872 122.035 42.872ZM143.461 58.412H138.981V52.196H138.897C136.619 52.196 134.846 51.5613 133.577 50.292C132.419 49.1533 131.841 47.6413 131.841 45.756C131.841 43.7773 132.457 42.2187 133.689 41.08C134.995 39.8853 136.731 39.288 138.897 39.288H138.981V33.324H143.461V39.288H143.545C145.71 39.288 147.446 39.8853 148.753 41.08C149.985 42.2187 150.601 43.7773 150.601 45.756C150.601 47.6413 150.022 49.1533 148.865 50.292C147.595 51.5613 145.822 52.196 143.545 52.196H143.461V58.412ZM143.153 42.508V48.976H143.209C144.086 48.976 144.786 48.7333 145.309 48.248C145.962 47.6693 146.289 46.8293 146.289 45.728C146.289 44.7013 145.971 43.88 145.337 43.264C144.814 42.76 144.114 42.508 143.237 42.508H143.153ZM139.289 42.508H139.205C138.327 42.508 137.627 42.76 137.105 43.264C136.47 43.88 136.153 44.7013 136.153 45.728C136.153 46.8293 136.479 47.6693 137.133 48.248C137.655 48.7333 138.355 48.976 139.233 48.976H139.289V42.508ZM153.181 39.484H157.661V45.924L162.617 39.484H166.509V52H162.029V45.392L157.129 52H153.181V39.484ZM169.587 52V39.484H174.067V44.608L177.847 39.484H183.475L178.295 45.364L183.951 52H178.155L174.067 46.456V52H169.587ZM194.341 40.688V39.484H198.821V52H194.341V50.628C193.483 51.8227 192.185 52.42 190.449 52.42C188.695 52.42 187.192 51.7573 185.941 50.432C184.747 49.1627 184.149 47.632 184.149 45.84C184.149 43.7867 184.793 42.116 186.081 40.828C187.257 39.652 188.76 39.064 190.589 39.064C192.12 39.064 193.371 39.6053 194.341 40.688ZM191.597 42.872C190.851 42.872 190.197 43.1427 189.637 43.684C189.04 44.2627 188.741 44.944 188.741 45.728C188.741 46.5493 189.031 47.2307 189.609 47.772C190.207 48.332 190.879 48.612 191.625 48.612C192.391 48.612 193.063 48.3227 193.641 47.744C194.201 47.184 194.481 46.512 194.481 45.728C194.481 44.9253 194.192 44.244 193.613 43.684C193.035 43.1427 192.363 42.872 191.597 42.872Z" fill="#0B1530"/>
<mask id="path-3-outside-1_1065_3779" maskUnits="userSpaceOnUse" x="41" y="102" width="147" height="64" fill="black">
<rect fill="white" x="41" y="102" width="147" height="64"/>
<path d="M83.44 163L80.16 154.04H60.8L57.2 163H42.56L63.04 109.64H78.16L98.24 163H83.44ZM64.64 143.48H76.48L70.48 126.2L64.64 143.48ZM111.785 131.08H112.345C115.118 127.827 119.145 126.2 124.425 126.2C130.238 126.2 134.958 127.88 138.585 131.24C141.945 134.387 143.625 138.707 143.625 144.2C143.625 149.96 141.785 154.68 138.105 158.36C134.212 162.253 128.878 164.2 122.105 164.2C115.492 164.2 110.345 162.307 106.665 158.52C102.612 154.36 100.585 148.093 100.585 139.72C100.585 129 103.145 120.973 108.265 115.64C110.025 113.88 111.998 112.493 114.185 111.48C116.425 110.467 119.305 109.613 122.825 108.92L125.145 108.44C127.972 107.907 129.785 107.24 130.585 106.44C131.278 105.64 131.625 104.76 131.625 103.8H142.745C142.372 106.573 141.278 109.16 139.465 111.56C137.758 113.8 135.305 115.507 132.105 116.68C130.932 117.107 127.838 118.013 122.825 119.4C119.145 120.413 116.532 121.72 114.985 123.32C113.118 125.347 112.052 127.933 111.785 131.08ZM122.105 136.76C119.972 136.76 118.132 137.453 116.585 138.84C114.772 140.44 113.865 142.467 113.865 144.92C113.865 147.373 114.772 149.427 116.585 151.08C118.132 152.467 119.972 153.16 122.105 153.16C124.292 153.16 126.132 152.467 127.625 151.08C129.438 149.373 130.345 147.213 130.345 144.6C130.345 142.36 129.438 140.44 127.625 138.84C126.025 137.453 124.185 136.76 122.105 136.76ZM151.009 127.24H172.929C177.196 127.24 180.236 128.093 182.049 129.8C183.703 131.347 184.529 133.427 184.529 136.04C184.529 138.12 184.023 139.907 183.009 141.4C182.156 142.627 180.849 143.613 179.089 144.36V144.52C181.169 144.947 182.876 145.773 184.209 147C185.916 148.547 186.769 150.6 186.769 153.16C186.769 156.04 185.916 158.333 184.209 160.04C182.236 162.013 179.329 163 175.489 163H151.009V127.24ZM163.809 141.48H168.609C170.156 141.48 171.249 141.213 171.889 140.68C172.529 140.093 172.849 139.24 172.849 138.12C172.849 137.107 172.556 136.36 171.969 135.88C171.329 135.293 170.183 135 168.529 135H163.809V141.48ZM163.809 155.24H169.489C170.823 155.24 171.863 154.893 172.609 154.2C173.303 153.507 173.649 152.653 173.649 151.64C173.649 150.52 173.329 149.64 172.689 149C172.103 148.413 171.036 148.12 169.489 148.12H163.809V155.24Z"/>
</mask>
<path d="M83.44 163L80.16 154.04H60.8L57.2 163H42.56L63.04 109.64H78.16L98.24 163H83.44ZM64.64 143.48H76.48L70.48 126.2L64.64 143.48ZM111.785 131.08H112.345C115.118 127.827 119.145 126.2 124.425 126.2C130.238 126.2 134.958 127.88 138.585 131.24C141.945 134.387 143.625 138.707 143.625 144.2C143.625 149.96 141.785 154.68 138.105 158.36C134.212 162.253 128.878 164.2 122.105 164.2C115.492 164.2 110.345 162.307 106.665 158.52C102.612 154.36 100.585 148.093 100.585 139.72C100.585 129 103.145 120.973 108.265 115.64C110.025 113.88 111.998 112.493 114.185 111.48C116.425 110.467 119.305 109.613 122.825 108.92L125.145 108.44C127.972 107.907 129.785 107.24 130.585 106.44C131.278 105.64 131.625 104.76 131.625 103.8H142.745C142.372 106.573 141.278 109.16 139.465 111.56C137.758 113.8 135.305 115.507 132.105 116.68C130.932 117.107 127.838 118.013 122.825 119.4C119.145 120.413 116.532 121.72 114.985 123.32C113.118 125.347 112.052 127.933 111.785 131.08ZM122.105 136.76C119.972 136.76 118.132 137.453 116.585 138.84C114.772 140.44 113.865 142.467 113.865 144.92C113.865 147.373 114.772 149.427 116.585 151.08C118.132 152.467 119.972 153.16 122.105 153.16C124.292 153.16 126.132 152.467 127.625 151.08C129.438 149.373 130.345 147.213 130.345 144.6C130.345 142.36 129.438 140.44 127.625 138.84C126.025 137.453 124.185 136.76 122.105 136.76ZM151.009 127.24H172.929C177.196 127.24 180.236 128.093 182.049 129.8C183.703 131.347 184.529 133.427 184.529 136.04C184.529 138.12 184.023 139.907 183.009 141.4C182.156 142.627 180.849 143.613 179.089 144.36V144.52C181.169 144.947 182.876 145.773 184.209 147C185.916 148.547 186.769 150.6 186.769 153.16C186.769 156.04 185.916 158.333 184.209 160.04C182.236 162.013 179.329 163 175.489 163H151.009V127.24ZM163.809 141.48H168.609C170.156 141.48 171.249 141.213 171.889 140.68C172.529 140.093 172.849 139.24 172.849 138.12C172.849 137.107 172.556 136.36 171.969 135.88C171.329 135.293 170.183 135 168.529 135H163.809V141.48ZM163.809 155.24H169.489C170.823 155.24 171.863 154.893 172.609 154.2C173.303 153.507 173.649 152.653 173.649 151.64C173.649 150.52 173.329 149.64 172.689 149C172.103 148.413 171.036 148.12 169.489 148.12H163.809V155.24Z" fill="#457BF8"/>
<path d="M83.44 163L82.5009 163.344L82.7412 164H83.44V163ZM80.16 154.04L81.0991 153.696L80.8588 153.04H80.16V154.04ZM60.8 154.04V153.04H60.1241L59.8721 153.667L60.8 154.04ZM57.2 163V164H57.8759L58.1279 163.373L57.2 163ZM42.56 163L41.6264 162.642L41.1051 164H42.56V163ZM63.04 109.64V108.64H62.3527L62.1064 109.282L63.04 109.64ZM78.16 109.64L79.0959 109.288L78.8521 108.64H78.16V109.64ZM98.24 163V164H99.6848L99.1759 162.648L98.24 163ZM64.64 143.48L63.6926 143.16L63.2465 144.48H64.64V143.48ZM76.48 143.48V144.48H77.8858L77.4247 143.152L76.48 143.48ZM70.48 126.2L71.4247 125.872L70.4672 123.115L69.5326 125.88L70.48 126.2ZM84.3791 162.656L81.0991 153.696L79.2209 154.384L82.5009 163.344L84.3791 162.656ZM80.16 153.04H60.8V155.04H80.16V153.04ZM59.8721 153.667L56.2721 162.627L58.1279 163.373L61.7279 154.413L59.8721 153.667ZM57.2 162H42.56V164H57.2V162ZM43.4936 163.358L63.9736 109.998L62.1064 109.282L41.6264 162.642L43.4936 163.358ZM63.04 110.64H78.16V108.64H63.04V110.64ZM77.2241 109.992L97.3041 163.352L99.1759 162.648L79.0959 109.288L77.2241 109.992ZM98.24 162H83.44V164H98.24V162ZM64.64 144.48H76.48V142.48H64.64V144.48ZM77.4247 143.152L71.4247 125.872L69.5353 126.528L75.5353 143.808L77.4247 143.152ZM69.5326 125.88L63.6926 143.16L65.5874 143.8L71.4274 126.52L69.5326 125.88ZM111.785 131.08L110.789 130.996L110.697 132.08H111.785V131.08ZM112.345 131.08V132.08H112.807L113.106 131.729L112.345 131.08ZM138.585 131.24L139.269 130.51L139.265 130.506L138.585 131.24ZM138.105 158.36L138.812 159.067L138.105 158.36ZM106.665 158.52L107.382 157.823L107.381 157.822L106.665 158.52ZM108.265 115.64L107.558 114.933L107.551 114.94L107.544 114.947L108.265 115.64ZM114.185 111.48L113.773 110.569L113.765 110.573L114.185 111.48ZM122.825 108.92L123.018 109.901L123.028 109.899L122.825 108.92ZM125.145 108.44L124.96 107.457L124.951 107.459L124.942 107.461L125.145 108.44ZM130.585 106.44L131.292 107.147L131.317 107.122L131.341 107.095L130.585 106.44ZM131.625 103.8V102.8H130.625V103.8H131.625ZM142.745 103.8L143.736 103.933L143.889 102.8H142.745V103.8ZM139.465 111.56L140.26 112.166L140.263 112.163L139.465 111.56ZM132.105 116.68L132.447 117.62L132.449 117.619L132.105 116.68ZM122.825 119.4L123.09 120.364L123.092 120.364L122.825 119.4ZM114.985 123.32L114.266 122.625L114.258 122.634L114.249 122.643L114.985 123.32ZM116.585 138.84L117.247 139.59L117.253 139.585L116.585 138.84ZM116.585 151.08L115.911 151.819L115.917 151.825L116.585 151.08ZM127.625 151.08L128.305 151.813L128.31 151.808L127.625 151.08ZM127.625 138.84L128.287 138.09L128.28 138.084L127.625 138.84ZM111.785 132.08H112.345V130.08H111.785V132.08ZM113.106 131.729C115.646 128.75 119.363 127.2 124.425 127.2V125.2C118.927 125.2 114.591 126.904 111.584 130.431L113.106 131.729ZM124.425 127.2C130.034 127.2 134.496 128.814 137.905 131.974L139.265 130.506C135.421 126.946 130.443 125.2 124.425 125.2V127.2ZM137.901 131.97C141.021 134.891 142.625 138.925 142.625 144.2H144.625C144.625 138.488 142.869 133.882 139.269 130.51L137.901 131.97ZM142.625 144.2C142.625 149.726 140.869 154.181 137.398 157.653L138.812 159.067C142.701 155.179 144.625 150.194 144.625 144.2H142.625ZM137.398 157.653C133.733 161.317 128.678 163.2 122.105 163.2V165.2C129.079 165.2 134.69 163.189 138.812 159.067L137.398 157.653ZM122.105 163.2C115.69 163.2 110.829 161.37 107.382 157.823L105.948 159.217C109.861 163.244 115.294 165.2 122.105 165.2V163.2ZM107.381 157.822C103.577 153.918 101.585 147.948 101.585 139.72H99.585C99.585 148.239 101.646 154.802 105.949 159.218L107.381 157.822ZM101.585 139.72C101.585 129.143 104.112 121.41 108.986 116.333L107.544 114.947C102.178 120.536 99.585 128.857 99.585 139.72H101.585ZM108.972 116.347C110.652 114.667 112.529 113.35 114.605 112.387L113.765 110.573C111.468 111.637 109.398 113.093 107.558 114.933L108.972 116.347ZM114.597 112.391C116.743 111.42 119.543 110.586 123.018 109.901L122.632 107.939C119.067 108.641 116.107 109.513 113.773 110.569L114.597 112.391ZM123.028 109.899L125.348 109.419L124.942 107.461L122.622 107.941L123.028 109.899ZM125.33 109.423C126.775 109.15 127.993 108.838 128.97 108.479C129.93 108.126 130.741 107.698 131.292 107.147L129.878 105.733C129.629 105.982 129.134 106.288 128.28 106.601C127.444 106.909 126.342 107.196 124.96 107.457L125.33 109.423ZM131.341 107.095C132.174 106.133 132.625 105.026 132.625 103.8H130.625C130.625 104.494 130.382 105.147 129.829 105.785L131.341 107.095ZM131.625 104.8H142.745V102.8H131.625V104.8ZM141.754 103.667C141.405 106.257 140.385 108.684 138.667 110.957L140.263 112.163C142.172 109.636 143.338 106.89 143.736 103.933L141.754 103.667ZM138.67 110.954C137.101 113.013 134.82 114.62 131.761 115.741L132.449 117.619C135.79 116.394 138.416 114.587 140.26 112.166L138.67 110.954ZM131.763 115.74C130.636 116.15 127.587 117.045 122.558 118.436L123.092 120.364C128.09 118.981 131.228 118.063 132.447 117.62L131.763 115.74ZM122.56 118.436C118.815 119.467 115.997 120.834 114.266 122.625L115.704 124.015C117.066 122.606 119.475 121.36 123.09 120.364L122.56 118.436ZM114.249 122.643C112.211 124.856 111.071 127.662 110.789 130.996L112.781 131.164C113.032 128.205 114.026 125.838 115.721 123.997L114.249 122.643ZM122.105 135.76C119.733 135.76 117.653 136.539 115.917 138.095L117.253 139.585C118.61 138.367 120.211 137.76 122.105 137.76V135.76ZM115.923 138.09C113.891 139.883 112.865 142.185 112.865 144.92H114.865C114.865 142.749 115.652 140.997 117.247 139.59L115.923 138.09ZM112.865 144.92C112.865 147.655 113.89 149.976 115.911 151.819L117.259 150.341C115.653 148.877 114.865 147.092 114.865 144.92H112.865ZM115.917 151.825C117.653 153.381 119.733 154.16 122.105 154.16V152.16C120.211 152.16 118.61 151.553 117.253 150.335L115.917 151.825ZM122.105 154.16C124.524 154.16 126.613 153.384 128.305 151.813L126.945 150.347C125.65 151.549 124.059 152.16 122.105 152.16V154.16ZM128.31 151.808C130.335 149.902 131.345 147.474 131.345 144.6H129.345C129.345 146.953 128.541 148.844 126.94 150.352L128.31 151.808ZM131.345 144.6C131.345 142.048 130.296 139.863 128.287 138.09L126.963 139.59C128.581 141.017 129.345 142.672 129.345 144.6H131.345ZM128.28 138.084C126.502 136.543 124.43 135.76 122.105 135.76V137.76C123.94 137.76 125.548 138.363 126.97 139.596L128.28 138.084ZM151.009 127.24V126.24H150.009V127.24H151.009ZM182.049 129.8L181.364 130.528L181.366 130.53L182.049 129.8ZM183.009 141.4L183.83 141.971L183.837 141.962L183.009 141.4ZM179.089 144.36L178.699 143.439L178.089 143.698V144.36H179.089ZM179.089 144.52H178.089V145.336L178.888 145.5L179.089 144.52ZM184.209 147L183.532 147.736L183.538 147.741L184.209 147ZM151.009 163H150.009V164H151.009V163ZM163.809 141.48H162.809V142.48H163.809V141.48ZM171.889 140.68L172.53 141.448L172.548 141.433L172.565 141.417L171.889 140.68ZM171.969 135.88L171.294 136.617L171.314 136.636L171.336 136.654L171.969 135.88ZM163.809 135V134H162.809V135H163.809ZM163.809 155.24H162.809V156.24H163.809V155.24ZM172.609 154.2L173.29 154.933L173.303 154.92L173.316 154.907L172.609 154.2ZM172.689 149L171.982 149.707V149.707L172.689 149ZM163.809 148.12V147.12H162.809V148.12H163.809ZM151.009 128.24H172.929V126.24H151.009V128.24ZM172.929 128.24C177.11 128.24 179.83 129.085 181.364 130.528L182.735 129.072C180.642 127.102 177.283 126.24 172.929 126.24V128.24ZM181.366 130.53C182.786 131.858 183.529 133.657 183.529 136.04H185.529C185.529 133.197 184.62 130.835 182.733 129.07L181.366 130.53ZM183.529 136.04C183.529 137.951 183.066 139.535 182.182 140.838L183.837 141.962C184.979 140.278 185.529 138.289 185.529 136.04H183.529ZM182.188 140.829C181.469 141.863 180.333 142.746 178.699 143.439L179.48 145.281C181.366 144.481 182.843 143.39 183.83 141.971L182.188 140.829ZM178.089 144.36V144.52H180.089V144.36H178.089ZM178.888 145.5C180.822 145.896 182.354 146.652 183.532 147.736L184.886 146.264C183.398 144.895 181.517 143.997 179.29 143.54L178.888 145.5ZM183.538 147.741C185.011 149.076 185.769 150.847 185.769 153.16H187.769C187.769 150.353 186.821 148.018 184.881 146.259L183.538 147.741ZM185.769 153.16C185.769 155.83 184.986 157.849 183.502 159.333L184.916 160.747C186.846 158.817 187.769 156.25 187.769 153.16H185.769ZM183.502 159.333C181.778 161.057 179.166 162 175.489 162V164C179.493 164 182.694 162.969 184.916 160.747L183.502 159.333ZM175.489 162H151.009V164H175.489V162ZM152.009 163V127.24H150.009V163H152.009ZM163.809 142.48H168.609V140.48H163.809V142.48ZM168.609 142.48C170.214 142.48 171.61 142.215 172.53 141.448L171.249 139.912C170.889 140.212 170.098 140.48 168.609 140.48V142.48ZM172.565 141.417C173.468 140.59 173.849 139.434 173.849 138.12H171.849C171.849 139.046 171.591 139.597 171.214 139.943L172.565 141.417ZM173.849 138.12C173.849 136.915 173.494 135.835 172.603 135.106L171.336 136.654C171.618 136.885 171.849 137.299 171.849 138.12H173.849ZM172.645 135.143C171.714 134.289 170.234 134 168.529 134V136C170.131 136 170.945 136.298 171.294 136.617L172.645 135.143ZM168.529 134H163.809V136H168.529V134ZM162.809 135V141.48H164.809V135H162.809ZM163.809 156.24H169.489V154.24H163.809V156.24ZM169.489 156.24C170.995 156.24 172.307 155.846 173.29 154.933L171.929 153.467C171.419 153.941 170.65 154.24 169.489 154.24V156.24ZM173.316 154.907C174.204 154.019 174.649 152.909 174.649 151.64H172.649C172.649 152.398 172.401 152.994 171.902 153.493L173.316 154.907ZM174.649 151.64C174.649 150.322 174.266 149.163 173.396 148.293L171.982 149.707C172.392 150.117 172.649 150.718 172.649 151.64H174.649ZM173.396 148.293C172.515 147.411 171.095 147.12 169.489 147.12V149.12C170.977 149.12 171.691 149.416 171.982 149.707L173.396 148.293ZM169.489 147.12H163.809V149.12H169.489V147.12ZM162.809 148.12V155.24H164.809V148.12H162.809Z" fill="#457BF8" mask="url(#path-3-outside-1_1065_3779)"/>
<path d="M228.471 146.619L201 149L203.381 121.529L260.521 64.7551C261.374 63.883 262.392 63.19 263.517 62.7168C264.641 62.2437 265.848 62 267.068 62C268.288 62 269.496 62.2437 270.62 62.7168C271.745 63.19 272.763 63.883 273.615 64.7551L285.245 76.4762C286.104 77.3275 286.785 78.3403 287.249 79.4562C287.715 80.572 287.954 81.7689 287.954 82.9777C287.954 84.1866 287.715 85.3834 287.249 86.4993C286.785 87.6152 286.104 88.628 285.245 89.4792L228.471 146.619Z" fill="#C1D3FD"/>
<path d="M201 148.999L228.471 146.618L203.381 121.527L201 148.999Z" fill="#6E98FA"/>
</svg>
