<svg width="328" height="195" viewBox="0 0 328 195" fill="none" xmlns="http://www.w3.org/2000/svg">
<rect width="328" height="195" rx="24" fill="#F5F6F8"/>
<path d="M30.804 33.324V41.024L36.74 33.324H42.732L35.312 42.172L43.404 52H37.132L30.804 43.908V52H25.96V33.324H30.804ZM50.5602 42.872C49.7949 42.872 49.1229 43.1427 48.5442 43.684C47.9655 44.2253 47.6762 44.9067 47.6762 45.728C47.6762 46.4747 47.9655 47.1373 48.5442 47.716C49.1042 48.276 49.7762 48.556 50.5602 48.556C51.3255 48.556 51.9882 48.276 52.5482 47.716C53.1269 47.1747 53.4162 46.512 53.4162 45.728C53.4162 44.944 53.1269 44.2627 52.5482 43.684C51.9695 43.1427 51.3069 42.872 50.5602 42.872ZM56.1322 41.136C57.4202 42.3867 58.0642 43.9173 58.0642 45.728C58.0642 47.5387 57.4202 49.0787 56.1322 50.348C54.7322 51.7293 52.8655 52.42 50.5322 52.42C48.2175 52.42 46.3602 51.7293 44.9602 50.348C43.6722 49.0787 43.0282 47.5387 43.0282 45.728C43.0282 43.9173 43.6722 42.3867 44.9602 41.136C46.3789 39.7547 48.2362 39.064 50.5322 39.064C52.8095 39.064 54.6762 39.7547 56.1322 41.136ZM59.6694 52L61.6574 39.484H65.5494L68.6294 46.26L71.7094 39.484H75.6014L77.5894 52H73.3894L72.3814 45.476L69.4414 52H67.8174L64.8774 45.476L63.8694 52H59.6694ZM79.6806 52V39.484H92.6446V52H88.1646V43.012H84.1606V52H79.6806ZM102.759 42.872C101.994 42.872 101.322 43.1427 100.743 43.684C100.165 44.2253 99.8754 44.9067 99.8754 45.728C99.8754 46.4747 100.165 47.1373 100.743 47.716C101.303 48.276 101.975 48.556 102.759 48.556C103.525 48.556 104.187 48.276 104.747 47.716C105.326 47.1747 105.615 46.512 105.615 45.728C105.615 44.944 105.326 44.2627 104.747 43.684C104.169 43.1427 103.506 42.872 102.759 42.872ZM108.331 41.136C109.619 42.3867 110.263 43.9173 110.263 45.728C110.263 47.5387 109.619 49.0787 108.331 50.348C106.931 51.7293 105.065 52.42 102.731 52.42C100.417 52.42 98.5594 51.7293 97.1594 50.348C95.8714 49.0787 95.2274 47.5387 95.2274 45.728C95.2274 43.9173 95.8714 42.3867 97.1594 41.136C98.5781 39.7547 100.435 39.064 102.731 39.064C105.009 39.064 106.875 39.7547 108.331 41.136ZM112.849 52V39.484H117.329V43.712H121.501V39.484H125.981V52H121.501V47.24H117.329V52H112.849ZM142.335 46.092V46.568H133.011C133.011 47.4453 133.273 48.1453 133.795 48.668C134.206 49.0787 134.822 49.284 135.643 49.284C136.203 49.284 136.689 49.172 137.099 48.948C137.454 48.7427 137.715 48.4627 137.883 48.108H142.167C141.887 49.116 141.383 49.9747 140.655 50.684C139.461 51.8413 137.762 52.42 135.559 52.42C133.375 52.42 131.649 51.7853 130.379 50.516C129.147 49.284 128.531 47.7067 128.531 45.784C128.531 43.768 129.157 42.1533 130.407 40.94C131.658 39.7267 133.366 39.12 135.531 39.12C137.529 39.12 139.134 39.6893 140.347 40.828C141.673 42.0973 142.335 43.852 142.335 46.092ZM133.151 43.992H138.219C138.089 43.4507 137.846 43.0027 137.491 42.648C137.043 42.2 136.427 41.976 135.643 41.976C134.878 41.976 134.271 42.2 133.823 42.648C133.45 43.0587 133.226 43.5067 133.151 43.992ZM144.923 52V39.484H149.403V43.712H153.575V39.484H158.055V52H153.575V47.24H149.403V52H144.923ZM163.126 52V43.152H159.878V39.484H170.854V43.152H167.606V52H163.126ZM185.893 52V39.484H190.373V52H185.893ZM177.157 43.656H180.209C181.665 43.656 182.785 44.0293 183.569 44.776C184.315 45.504 184.689 46.5027 184.689 47.772C184.689 49.06 184.334 50.0587 183.625 50.768C182.803 51.5893 181.665 52 180.209 52H172.677V39.484H177.157V43.656ZM177.157 49.088H178.837C179.378 49.088 179.779 48.9573 180.041 48.696C180.246 48.4907 180.349 48.192 180.349 47.8C180.349 47.3893 180.237 47.0907 180.013 46.904C179.733 46.68 179.322 46.568 178.781 46.568H177.157V49.088Z" fill="#0B1530"/>
<path d="M188.143 73.5703H195.285C197.18 73.5703 198.997 74.3229 200.336 75.6624C201.675 77.002 202.428 78.8187 202.428 80.7132V87.856" stroke="#4147D5" stroke-linecap="round" stroke-linejoin="round"/>
<path d="M109.571 87.856V80.7132C109.571 78.8187 110.324 77.002 111.663 75.6624C113.003 74.3229 114.82 73.5703 116.714 73.5703H123.857" stroke="#4147D5" stroke-linecap="round" stroke-linejoin="round"/>
<path d="M145.286 73.5703H166.714" stroke="#4147D5" stroke-linecap="round" stroke-linejoin="round"/>
<path d="M202.428 109.285V130.714" stroke="#4147D5" stroke-linecap="round" stroke-linejoin="round"/>
<path d="M109.571 109.285V130.714" stroke="#4147D5" stroke-linecap="round" stroke-linejoin="round"/>
<path d="M188.143 166.426H195.285C197.18 166.426 198.997 165.673 200.336 164.334C201.675 162.995 202.428 161.178 202.428 159.283V152.141" stroke="#4147D5" stroke-linecap="round" stroke-linejoin="round"/>
<path d="M109.571 152.141V159.283C109.571 161.178 110.324 162.995 111.663 164.334C113.003 165.673 114.82 166.426 116.714 166.426H123.857" stroke="#4147D5" stroke-linecap="round" stroke-linejoin="round"/>
<path d="M145.286 166.426H166.714" stroke="#4147D5" stroke-linecap="round" stroke-linejoin="round"/>
<path d="M170.286 98.5703H141.714C137.769 98.5703 134.571 101.768 134.571 105.713V134.285C134.571 138.229 137.769 141.427 141.714 141.427H170.286C174.23 141.427 177.428 138.229 177.428 134.285V105.713C177.428 101.768 174.23 98.5703 170.286 98.5703Z" fill="#D7E0FF"/>
<path d="M170.286 98.5703H141.714C137.769 98.5703 134.571 101.768 134.571 105.713V134.285C134.571 138.229 137.769 141.427 141.714 141.427H170.286C174.23 141.427 177.428 138.229 177.428 134.285V105.713C177.428 101.768 174.23 98.5703 170.286 98.5703Z" stroke="#4147D5" stroke-linecap="round" stroke-linejoin="round"/>
</svg>
