<svg width="328" height="195" viewBox="0 0 328 195" fill="none" xmlns="http://www.w3.org/2000/svg">
<rect width="328" height="195" rx="24" fill="#F5F6F8"/>
<path d="M30.804 33.324V40.296H37.804V33.324H42.676V52H37.804V44.44H30.804V52H25.96V33.324H30.804ZM55.8725 40.688V39.484H60.3525V52H55.8725V50.628C55.0139 51.8227 53.7165 52.42 51.9805 52.42C50.2259 52.42 48.7232 51.7573 47.4725 50.432C46.2779 49.1627 45.6805 47.632 45.6805 45.84C45.6805 43.7867 46.3245 42.116 47.6125 40.828C48.7885 39.652 50.2912 39.064 52.1205 39.064C53.6512 39.064 54.9019 39.6053 55.8725 40.688ZM53.1285 42.872C52.3819 42.872 51.7285 43.1427 51.1685 43.684C50.5712 44.2627 50.2725 44.944 50.2725 45.728C50.2725 46.5493 50.5619 47.2307 51.1405 47.772C51.7379 48.332 52.4099 48.612 53.1565 48.612C53.9219 48.612 54.5939 48.3227 55.1725 47.744C55.7325 47.184 56.0125 46.512 56.0125 45.728C56.0125 44.9253 55.7232 44.244 55.1445 43.684C54.5659 43.1427 53.8939 42.872 53.1285 42.872ZM63.4384 39.484H71.1104C72.6038 39.484 73.6678 39.7827 74.3024 40.38C74.8811 40.9213 75.1704 41.6493 75.1704 42.564C75.1704 43.292 74.9931 43.9173 74.6384 44.44C74.3398 44.8693 73.8824 45.2147 73.2664 45.476V45.532C73.9944 45.6813 74.5918 45.9707 75.0584 46.4C75.6558 46.9413 75.9544 47.66 75.9544 48.556C75.9544 49.564 75.6558 50.3667 75.0584 50.964C74.3678 51.6547 73.3504 52 72.0064 52H63.4384V39.484ZM67.9184 44.468H69.5984C70.1398 44.468 70.5224 44.3747 70.7464 44.188C70.9704 43.9827 71.0824 43.684 71.0824 43.292C71.0824 42.9373 70.9798 42.676 70.7744 42.508C70.5504 42.3027 70.1491 42.2 69.5704 42.2H67.9184V44.468ZM67.9184 49.284H69.9064C70.3731 49.284 70.7371 49.1627 70.9984 48.92C71.2411 48.6773 71.3624 48.3787 71.3624 48.024C71.3624 47.632 71.2504 47.324 71.0264 47.1C70.8211 46.8947 70.4478 46.792 69.9064 46.792H67.9184V49.284ZM78.2588 39.484H82.7388V45.924L87.6948 39.484H91.5868V52H87.1068V45.392L82.2068 52H78.2588V39.484ZM94.665 52V39.484H103.457V43.152H99.145V52H94.665ZM115.072 40.688V39.484H119.552V52H115.072V50.628C114.213 51.8227 112.916 52.42 111.18 52.42C109.425 52.42 107.922 51.7573 106.672 50.432C105.477 49.1627 104.88 47.632 104.88 45.84C104.88 43.7867 105.524 42.116 106.812 40.828C107.988 39.652 109.49 39.064 111.32 39.064C112.85 39.064 114.101 39.6053 115.072 40.688ZM112.328 42.872C111.581 42.872 110.928 43.1427 110.368 43.684C109.77 44.2627 109.472 44.944 109.472 45.728C109.472 46.5493 109.761 47.2307 110.34 47.772C110.937 48.332 111.609 48.612 112.356 48.612C113.121 48.612 113.793 48.3227 114.372 47.744C114.932 47.184 115.212 46.512 115.212 45.728C115.212 44.9253 114.922 44.244 114.344 43.684C113.765 43.1427 113.093 42.872 112.328 42.872ZM122.638 52V39.484H127.118V48.472H130.954V39.484H135.434V48.472H137.506V55.64H133.586V52H122.638ZM139.317 39.484H143.797V45.924L148.753 39.484H152.645V52H148.165V45.392L143.265 52H139.317V39.484ZM154.968 52L158.44 47.632C157.581 47.464 156.853 47.1 156.256 46.54C155.602 45.8867 155.276 44.9907 155.276 43.852C155.276 42.6013 155.649 41.584 156.396 40.8C157.217 39.9227 158.636 39.484 160.652 39.484H167.26V52H162.78V48.024H162.416L159.672 52H154.968ZM162.78 45.28V42.396H161.436C160.782 42.396 160.316 42.5267 160.036 42.788C159.774 43.0493 159.644 43.404 159.644 43.852C159.644 44.3187 159.784 44.6733 160.064 44.916C160.362 45.1587 160.801 45.28 161.38 45.28H162.78Z" fill="#0B1530"/>
</svg>
