<svg width="415" height="154" viewBox="0 0 415 154" fill="none" xmlns="http://www.w3.org/2000/svg">
<rect width="415" height="154" rx="24" fill="#F5F6F8"/>
<path d="M120.998 92L120.998 75.8926" stroke="#33F7C3" stroke-width="2"/>
<path d="M137.018 92L137.018 74.0781" stroke="#33F7C3" stroke-width="2"/>
<path d="M138.027 92H120" stroke="#33F7C3" stroke-width="2"/>
<rect x="110.75" y="102.75" width="35.9061" height="20.7027" rx="3.75176" fill="#33F7C3"/>
<rect x="110.75" y="102.75" width="35.9061" height="20.7027" rx="3.75176" stroke="#33F7C3" stroke-width="1.5007"/>
<path d="M121.168 117.721C120.512 117.721 119.928 117.614 119.416 117.401C118.907 117.185 118.508 116.891 118.218 116.519C117.928 116.146 117.783 115.724 117.783 115.252C117.783 114.889 117.866 114.555 118.03 114.251C118.198 113.944 118.426 113.689 118.713 113.487C119 113.283 119.321 113.152 119.676 113.095V113.036C119.21 112.942 118.832 112.716 118.542 112.358C118.252 111.997 118.107 111.577 118.107 111.1C118.107 110.648 118.239 110.246 118.504 109.893C118.768 109.538 119.13 109.26 119.591 109.058C120.054 108.853 120.58 108.751 121.168 108.751C121.757 108.751 122.281 108.853 122.741 109.058C123.205 109.262 123.569 109.542 123.833 109.898C124.097 110.25 124.231 110.651 124.234 111.1C124.231 111.58 124.083 112 123.79 112.358C123.498 112.716 123.122 112.942 122.665 113.036V113.095C123.014 113.152 123.331 113.283 123.615 113.487C123.903 113.689 124.13 113.944 124.298 114.251C124.468 114.555 124.555 114.889 124.558 115.252C124.555 115.724 124.408 116.146 124.119 116.519C123.829 116.891 123.428 117.185 122.916 117.401C122.408 117.614 121.825 117.721 121.168 117.721ZM121.168 116.365C121.461 116.365 121.717 116.313 121.936 116.207C122.155 116.099 122.325 115.952 122.447 115.764C122.572 115.574 122.635 115.355 122.635 115.107C122.635 114.855 122.571 114.631 122.443 114.438C122.315 114.242 122.142 114.089 121.923 113.978C121.704 113.864 121.453 113.807 121.168 113.807C120.887 113.807 120.635 113.864 120.414 113.978C120.192 114.089 120.017 114.242 119.889 114.438C119.764 114.631 119.702 114.855 119.702 115.107C119.702 115.355 119.763 115.574 119.885 115.764C120.007 115.952 120.179 116.099 120.401 116.207C120.623 116.313 120.878 116.365 121.168 116.365ZM121.168 112.464C121.413 112.464 121.63 112.414 121.821 112.315C122.011 112.216 122.16 112.078 122.268 111.901C122.376 111.725 122.43 111.522 122.43 111.292C122.43 111.064 122.376 110.865 122.268 110.695C122.16 110.522 122.012 110.387 121.825 110.29C121.637 110.19 121.418 110.141 121.168 110.141C120.921 110.141 120.702 110.19 120.512 110.29C120.321 110.387 120.172 110.522 120.064 110.695C119.959 110.865 119.906 111.064 119.906 111.292C119.906 111.522 119.96 111.725 120.068 111.901C120.176 112.078 120.326 112.216 120.516 112.315C120.706 112.414 120.924 112.464 121.168 112.464ZM125.865 120.057V111.053H127.656V112.153H127.737C127.817 111.977 127.932 111.798 128.082 111.616C128.236 111.431 128.435 111.278 128.679 111.155C128.927 111.03 129.234 110.968 129.6 110.968C130.078 110.968 130.518 111.093 130.922 111.343C131.325 111.59 131.648 111.964 131.89 112.464C132.131 112.962 132.252 113.585 132.252 114.336C132.252 115.066 132.134 115.683 131.898 116.186C131.665 116.686 131.347 117.066 130.943 117.324C130.542 117.58 130.093 117.708 129.596 117.708C129.243 117.708 128.944 117.65 128.696 117.533C128.452 117.417 128.252 117.27 128.095 117.094C127.939 116.915 127.819 116.735 127.737 116.553H127.682V120.057H125.865ZM127.643 114.327C127.643 114.717 127.697 115.056 127.805 115.346C127.913 115.636 128.07 115.862 128.274 116.024C128.479 116.183 128.728 116.263 129.02 116.263C129.316 116.263 129.566 116.182 129.771 116.02C129.975 115.855 130.13 115.628 130.235 115.338C130.343 115.045 130.397 114.708 130.397 114.327C130.397 113.949 130.345 113.617 130.24 113.33C130.135 113.043 129.98 112.818 129.775 112.656C129.57 112.494 129.319 112.413 129.02 112.413C128.725 112.413 128.475 112.491 128.27 112.648C128.068 112.804 127.913 113.026 127.805 113.313C127.697 113.6 127.643 113.938 127.643 114.327ZM134.746 111.053L135.948 113.342L137.18 111.053H139.044L137.146 114.327L139.095 117.602H137.24L135.948 115.338L134.678 117.602H132.802L134.746 114.327L132.87 111.053H134.746Z" fill="#0B1530"/>
<path d="M121.313 51.2656L109 63.5791L121.313 75.8925" stroke="#457BF8" stroke-width="3.07836" stroke-linecap="round"/>
<path d="M136.09 53.5455H151.173V74.0781H148.034V56.5007H139.229V74.0781H136.09V53.5455ZM156.85 62.719C158.184 61.4261 159.836 60.7796 161.806 60.7796C163.776 60.7796 165.418 61.4261 166.731 62.719C168.065 63.9914 168.732 65.6229 168.732 67.6136C168.732 69.5837 168.065 71.2255 166.731 72.5389C165.418 73.8319 163.776 74.4783 161.806 74.4783C159.836 74.4783 158.184 73.8319 156.85 72.5389C155.536 71.2255 154.88 69.5837 154.88 67.6136C154.88 65.6229 155.536 63.9914 156.85 62.719ZM159.005 70.6611C159.702 71.4 160.636 71.7694 161.806 71.7694C162.976 71.7694 163.909 71.4 164.607 70.6611C165.305 69.9018 165.654 68.8962 165.654 67.6444C165.654 66.2694 165.274 65.233 164.515 64.5352C163.776 63.8375 162.873 63.4886 161.806 63.4886C160.739 63.4886 159.825 63.8375 159.066 64.5352C158.327 65.233 157.958 66.2694 157.958 67.6444C157.958 68.8962 158.307 69.9018 159.005 70.6611ZM171.88 61.1182H174.897V68.4755L183.763 59.9485V74.0781H180.746V66.5361L171.88 75.0632V61.1182ZM197.608 61.7031V65.0893C196.521 64.0222 195.3 63.4886 193.945 63.4886C192.796 63.4886 191.842 63.8682 191.082 64.6276C190.343 65.3664 189.974 66.3617 189.974 67.6136C189.974 68.9065 190.364 69.9429 191.144 70.7227C191.883 71.4205 192.796 71.7694 193.884 71.7694C195.382 71.7694 196.623 71.2153 197.608 70.107V73.4625C196.521 74.1397 195.207 74.4783 193.668 74.4783C191.595 74.4783 189.953 73.8421 188.743 72.5697C187.511 71.2973 186.896 69.6761 186.896 67.7059C186.896 65.6742 187.552 64.0016 188.866 62.6882C190.138 61.4158 191.872 60.7796 194.068 60.7796C195.32 60.7796 196.5 61.0875 197.608 61.7031ZM200.5 61.1182H203.516V65.7358L207.826 61.1182H211.828L206.164 66.7824L212.136 74.0781H208.319L204.009 68.7526L203.516 69.2451V74.0781H200.5V61.1182ZM222.595 62.719C223.929 61.4261 225.581 60.7796 227.552 60.7796C229.522 60.7796 231.164 61.4261 232.477 62.719C233.811 63.9914 234.478 65.6229 234.478 67.6136C234.478 69.5837 233.811 71.2255 232.477 72.5389C231.164 73.8319 229.522 74.4783 227.552 74.4783C225.581 74.4783 223.929 73.8319 222.595 72.5389C221.282 71.2255 220.625 69.5837 220.625 67.6136C220.625 65.6229 221.282 63.9914 222.595 62.719ZM224.75 70.6611C225.448 71.4 226.382 71.7694 227.552 71.7694C228.721 71.7694 229.655 71.4 230.353 70.6611C231.051 69.9018 231.4 68.8962 231.4 67.6444C231.4 66.2694 231.02 65.233 230.261 64.5352C229.522 63.8375 228.619 63.4886 227.552 63.4886C226.484 63.4886 225.571 63.8375 224.812 64.5352C224.073 65.233 223.704 66.2694 223.704 67.6444C223.704 68.8962 224.053 69.9018 224.75 70.6611ZM246.554 63.8888H242.767V74.0781H239.75V63.8888H235.964V61.1182H246.554V63.8888ZM257.47 69.7069L259.994 71.1229C259.419 72.149 258.691 72.9391 257.808 73.4932C256.803 74.15 255.53 74.4783 253.991 74.4783C252.185 74.4783 250.728 73.9242 249.62 72.816C248.347 71.5436 247.711 69.8916 247.711 67.8598C247.711 65.7255 248.399 63.9503 249.774 62.5343C250.944 61.3645 252.39 60.7796 254.114 60.7796C255.797 60.7796 257.182 61.344 258.27 62.4727C259.481 63.7246 260.086 65.5511 260.086 67.9522V68.3216H250.79C250.872 69.4093 251.241 70.2815 251.898 70.9382C252.452 71.4923 253.222 71.7694 254.207 71.7694C255.007 71.7694 255.694 71.5539 256.269 71.1229C256.741 70.7535 257.141 70.2815 257.47 69.7069ZM251.005 65.8589H257.008C256.885 65.1406 256.577 64.5557 256.084 64.1042C255.551 63.6117 254.874 63.3654 254.053 63.3654C253.191 63.3654 252.483 63.6425 251.929 64.1966C251.477 64.607 251.169 65.1611 251.005 65.8589ZM273.89 61.1182V74.0781H270.873V63.8888H267.056V69.0296C267.056 70.6304 266.646 71.872 265.825 72.7544C264.778 73.9242 263.362 74.3654 261.577 74.0781V71.3076C262.459 71.5128 263.167 71.3179 263.701 70.7227C264.009 70.3533 264.163 69.7889 264.163 69.0296V61.1182H273.89ZM286.78 69.7069L289.304 71.1229C288.73 72.149 288.001 72.9391 287.119 73.4932C286.113 74.15 284.841 74.4783 283.302 74.4783C281.496 74.4783 280.039 73.9242 278.93 72.816C277.658 71.5436 277.022 69.8916 277.022 67.8598C277.022 65.7255 277.709 63.9503 279.084 62.5343C280.254 61.3645 281.701 60.7796 283.425 60.7796C285.108 60.7796 286.493 61.344 287.581 62.4727C288.791 63.7246 289.397 65.5511 289.397 67.9522V68.3216H280.1C280.182 69.4093 280.552 70.2815 281.208 70.9382C281.762 71.4923 282.532 71.7694 283.517 71.7694C284.318 71.7694 285.005 71.5539 285.58 71.1229C286.052 70.7535 286.452 70.2815 286.78 69.7069ZM280.316 65.8589H286.318C286.195 65.1406 285.887 64.5557 285.395 64.1042C284.861 63.6117 284.184 63.3654 283.363 63.3654C282.501 63.3654 281.793 63.6425 281.239 64.1966C280.788 64.607 280.48 65.1611 280.316 65.8589ZM292.55 61.1182H295.567V68.4755L304.432 59.9485V74.0781H301.415V66.5361L292.55 75.0632V61.1182ZM293.535 55.5156L295.997 54.8076C296.387 56.1416 297.229 56.8085 298.522 56.8085C299.794 56.8085 300.636 56.1416 301.046 54.8076L303.509 55.5156C303.18 56.6854 302.513 57.5884 301.508 58.2246C300.523 58.8403 299.527 59.1481 298.522 59.1481C297.516 59.1481 296.511 58.8403 295.505 58.2246C294.52 57.5884 293.863 56.6854 293.535 55.5156Z" fill="#457BF8"/>
</svg>
