<svg width="418" height="240" viewBox="0 0 418 240" fill="none" xmlns="http://www.w3.org/2000/svg">
<rect width="418" height="240" rx="24" fill="#F5F6F8"/>
<path d="M217 164.57H191" stroke="#33F7C3" stroke-width="2"/>
<path d="M217 164.57L213 160.57" stroke="#33F7C3" stroke-width="2" stroke-linecap="round"/>
<path d="M217 164.57L213 168.57" stroke="#33F7C3" stroke-width="2" stroke-linecap="round"/>
<path d="M191 164.57L195 168.57" stroke="#33F7C3" stroke-width="2" stroke-linecap="round"/>
<path d="M191 164.57L195 160.57" stroke="#33F7C3" stroke-width="2" stroke-linecap="round"/>
<rect x="182.75" y="175.321" width="42.9061" height="20.7027" rx="3.75176" fill="#33F7C3"/>
<rect x="182.75" y="175.321" width="42.9061" height="20.7027" rx="3.75176" stroke="#33F7C3" stroke-width="1.5007"/>
<path d="M189.911 190.172V188.842L193.019 185.964C193.283 185.708 193.505 185.478 193.684 185.273C193.866 185.069 194.004 184.868 194.098 184.672C194.192 184.473 194.238 184.259 194.238 184.028C194.238 183.773 194.18 183.552 194.064 183.368C193.947 183.18 193.788 183.036 193.586 182.937C193.384 182.835 193.156 182.783 192.9 182.783C192.633 182.783 192.399 182.837 192.201 182.945C192.002 183.053 191.848 183.208 191.74 183.41C191.632 183.612 191.578 183.852 191.578 184.131H189.826C189.826 183.559 189.955 183.063 190.214 182.643C190.472 182.222 190.835 181.897 191.301 181.666C191.767 181.436 192.304 181.321 192.912 181.321C193.538 181.321 194.082 181.432 194.545 181.654C195.011 181.873 195.374 182.177 195.633 182.566C195.891 182.955 196.02 183.402 196.02 183.905C196.02 184.234 195.955 184.56 195.824 184.881C195.696 185.202 195.468 185.559 195.138 185.951C194.808 186.341 194.344 186.808 193.744 187.354L192.469 188.603V188.663H196.136V190.172H189.911ZM197.153 188.637V187.183L200.799 181.441H202.052V183.453H201.31L199.012 187.089V187.158H204.192V188.637H197.153ZM201.344 190.172V188.194L201.378 187.55V181.441H203.109V190.172H201.344ZM205.439 192.628V183.623H207.23V184.723H207.311C207.391 184.547 207.506 184.368 207.656 184.186C207.81 184.001 208.009 183.848 208.253 183.726C208.5 183.601 208.807 183.538 209.174 183.538C209.652 183.538 210.092 183.663 210.496 183.913C210.899 184.161 211.222 184.534 211.463 185.035C211.705 185.532 211.826 186.156 211.826 186.906C211.826 187.637 211.708 188.253 211.472 188.756C211.239 189.257 210.921 189.636 210.517 189.895C210.116 190.151 209.667 190.278 209.17 190.278C208.817 190.278 208.517 190.22 208.27 190.104C208.026 189.987 207.825 189.841 207.669 189.665C207.513 189.485 207.393 189.305 207.311 189.123H207.256V192.628H205.439ZM207.217 186.898C207.217 187.287 207.271 187.627 207.379 187.917C207.487 188.206 207.643 188.432 207.848 188.594C208.053 188.754 208.301 188.833 208.594 188.833C208.89 188.833 209.14 188.752 209.345 188.59C209.549 188.425 209.704 188.198 209.809 187.908C209.917 187.615 209.971 187.278 209.971 186.898C209.971 186.52 209.919 186.187 209.814 185.9C209.708 185.613 209.553 185.388 209.349 185.226C209.144 185.064 208.893 184.983 208.594 184.983C208.299 184.983 208.048 185.062 207.844 185.218C207.642 185.374 207.487 185.596 207.379 185.883C207.271 186.17 207.217 186.508 207.217 186.898ZM214.32 183.623L215.522 185.913L216.754 183.623H218.617L216.72 186.898L218.669 190.172H216.814L215.522 187.908L214.252 190.172H212.376L214.32 186.898L212.444 183.623H214.32Z" fill="#0B1530"/>
<path d="M190 72H149.999" stroke="#33F7C3" stroke-width="2"/>
<path d="M190 72.2031L186 68.2031" stroke="#33F7C3" stroke-width="2" stroke-linecap="round"/>
<path d="M190 72.2031L186 76.2031" stroke="#33F7C3" stroke-width="2" stroke-linecap="round"/>
<path d="M150 72.2031L154 76.2031" stroke="#33F7C3" stroke-width="2" stroke-linecap="round"/>
<path d="M150 72.2031L154 68.2031" stroke="#33F7C3" stroke-width="2" stroke-linecap="round"/>
<rect x="147.75" y="40.7504" width="43.9061" height="20.7027" rx="3.75176" fill="#33F7C3"/>
<rect x="147.75" y="40.7504" width="43.9061" height="20.7027" rx="3.75176" stroke="#33F7C3" stroke-width="1.5007"/>
<path d="M158.138 55.7209C157.502 55.7209 156.935 55.6115 156.437 55.3927C155.943 55.171 155.552 54.8668 155.265 54.4803C154.981 54.0909 154.834 53.6418 154.826 53.1331H156.685C156.696 53.3462 156.766 53.5338 156.894 53.6958C157.024 53.855 157.198 53.9786 157.414 54.0668C157.63 54.1549 157.873 54.1989 158.143 54.1989C158.424 54.1989 158.673 54.1492 158.889 54.0497C159.105 53.9502 159.274 53.8124 159.396 53.6362C159.518 53.4599 159.579 53.2567 159.579 53.0265C159.579 52.7934 159.514 52.5874 159.383 52.4083C159.255 52.2264 159.071 52.0843 158.829 51.982C158.59 51.8796 158.306 51.8285 157.976 51.8285H157.162V50.4727H157.976C158.255 50.4727 158.501 50.4244 158.714 50.3278C158.93 50.2311 159.098 50.0976 159.217 49.927C159.336 49.7537 159.396 49.5519 159.396 49.3216C159.396 49.1028 159.344 48.9109 159.238 48.7461C159.136 48.5784 158.991 48.4476 158.804 48.3538C158.619 48.2601 158.403 48.2132 158.156 48.2132C157.905 48.2132 157.677 48.2586 157.469 48.3496C157.262 48.4377 157.095 48.5642 156.97 48.729C156.845 48.8939 156.778 49.0871 156.77 49.3088H155.001C155.009 48.8058 155.153 48.3624 155.431 47.9787C155.71 47.595 156.085 47.2951 156.557 47.0791C157.031 46.8602 157.567 46.7508 158.164 46.7508C158.767 46.7508 159.294 46.8602 159.746 47.0791C160.198 47.298 160.549 47.5935 160.799 47.9659C161.052 48.3354 161.177 48.7503 161.174 49.2108C161.177 49.6996 161.025 50.1075 160.718 50.4344C160.414 50.7612 160.017 50.9687 159.528 51.0568V51.125C160.171 51.2075 160.66 51.4306 160.995 51.7944C161.333 52.1553 161.501 52.6073 161.498 53.1501C161.501 53.6475 161.357 54.0895 161.067 54.476C160.78 54.8626 160.384 55.1667 159.878 55.3884C159.372 55.6101 158.792 55.7209 158.138 55.7209ZM166.176 55.7209C165.727 55.7181 165.293 55.6428 164.876 55.495C164.461 55.3472 164.088 55.107 163.759 54.7745C163.429 54.4419 163.167 54.0014 162.974 53.4528C162.784 52.9043 162.689 52.2307 162.689 51.432C162.691 50.6987 162.775 50.0436 162.94 49.4666C163.108 48.8868 163.347 48.3951 163.656 47.9915C163.969 47.5879 164.343 47.2809 164.778 47.0706C165.212 46.8574 165.7 46.7508 166.24 46.7508C166.823 46.7508 167.337 46.8645 167.783 47.0919C168.229 47.3164 168.588 47.622 168.858 48.0085C169.13 48.3951 169.295 48.8285 169.352 49.3088H167.532C167.461 49.0047 167.311 48.766 167.084 48.5926C166.857 48.4192 166.575 48.3325 166.24 48.3325C165.671 48.3325 165.239 48.5798 164.944 49.0744C164.651 49.5689 164.502 50.2411 164.496 51.0909H164.556C164.687 50.8323 164.863 50.612 165.085 50.4301C165.309 50.2454 165.563 50.1047 165.848 50.008C166.135 49.9086 166.437 49.8588 166.756 49.8588C167.273 49.8588 167.734 49.981 168.137 50.2255C168.541 50.4671 168.859 50.7996 169.092 51.2231C169.325 51.6466 169.442 52.1312 169.442 52.6769C169.442 53.2681 169.304 53.7939 169.028 54.2543C168.755 54.7148 168.373 55.0757 167.881 55.3372C167.392 55.5959 166.824 55.7238 166.176 55.7209ZM166.167 54.2714C166.452 54.2714 166.706 54.2032 166.931 54.0668C167.155 53.9303 167.331 53.7456 167.459 53.5125C167.587 53.2795 167.651 53.018 167.651 52.7281C167.651 52.4381 167.587 52.1781 167.459 51.9479C167.334 51.7176 167.161 51.5343 166.939 51.3979C166.717 51.2615 166.464 51.1932 166.18 51.1932C165.967 51.1932 165.77 51.233 165.588 51.3126C165.409 51.3922 165.251 51.5031 165.114 51.6452C164.981 51.7873 164.876 51.9521 164.799 52.1397C164.722 52.3245 164.684 52.522 164.684 52.7323C164.684 53.0137 164.748 53.2709 164.876 53.504C165.006 53.7371 165.183 53.9232 165.404 54.0625C165.629 54.2018 165.883 54.2714 166.167 54.2714ZM170.768 58.0573V49.053H172.558V50.153H172.639C172.719 49.9768 172.834 49.7977 172.985 49.6158C173.138 49.4311 173.337 49.2776 173.581 49.1554C173.829 49.0303 174.136 48.9678 174.502 48.9678C174.98 48.9678 175.42 49.0928 175.824 49.3429C176.228 49.5902 176.55 49.964 176.792 50.4642C177.033 50.9616 177.154 51.5855 177.154 52.3358C177.154 53.0663 177.036 53.683 176.8 54.1861C176.567 54.6864 176.249 55.0658 175.845 55.3244C175.445 55.5802 174.995 55.7081 174.498 55.7081C174.146 55.7081 173.846 55.6499 173.598 55.5333C173.354 55.4168 173.154 55.2704 172.997 55.0942C172.841 54.9152 172.722 54.7347 172.639 54.5528H172.584V58.0573H170.768ZM172.545 52.3273C172.545 52.7167 172.599 53.0563 172.707 53.3462C172.815 53.6362 172.972 53.8621 173.176 54.0241C173.381 54.1833 173.63 54.2629 173.922 54.2629C174.218 54.2629 174.468 54.1819 174.673 54.0199C174.877 53.855 175.032 53.6276 175.138 53.3377C175.246 53.045 175.3 52.7082 175.3 52.3273C175.3 51.9493 175.247 51.6167 175.142 51.3297C175.037 51.0426 174.882 50.8181 174.677 50.6561C174.472 50.4941 174.221 50.4131 173.922 50.4131C173.627 50.4131 173.377 50.4912 173.172 50.6475C172.97 50.8039 172.815 51.0256 172.707 51.3126C172.599 51.5997 172.545 51.9379 172.545 52.3273ZM179.648 49.053L180.85 51.3425L182.083 49.053H183.946L182.048 52.3273L183.997 55.6016H182.142L180.85 53.3377L179.58 55.6016H177.704L179.648 52.3273L177.772 49.053H179.648Z" fill="#0B1530"/>
<path d="M321 72H280.999" stroke="#33F7C3" stroke-width="2"/>
<path d="M321 72.2031L317 68.2031" stroke="#33F7C3" stroke-width="2" stroke-linecap="round"/>
<path d="M321 72.2031L317 76.2031" stroke="#33F7C3" stroke-width="2" stroke-linecap="round"/>
<path d="M281 72.2031L285 76.2031" stroke="#33F7C3" stroke-width="2" stroke-linecap="round"/>
<path d="M281 72.2031L285 68.2031" stroke="#33F7C3" stroke-width="2" stroke-linecap="round"/>
<rect x="278.75" y="40.7504" width="43.9061" height="20.7027" rx="3.75176" fill="#33F7C3"/>
<rect x="278.75" y="40.7504" width="43.9061" height="20.7027" rx="3.75176" stroke="#33F7C3" stroke-width="1.5007"/>
<path d="M289.138 55.7209C288.502 55.7209 287.935 55.6115 287.437 55.3927C286.943 55.171 286.552 54.8668 286.265 54.4803C285.981 54.0909 285.834 53.6418 285.826 53.1331H287.685C287.696 53.3462 287.766 53.5338 287.894 53.6958C288.024 53.855 288.198 53.9786 288.414 54.0668C288.63 54.1549 288.873 54.1989 289.143 54.1989C289.424 54.1989 289.673 54.1492 289.889 54.0497C290.105 53.9502 290.274 53.8124 290.396 53.6362C290.518 53.4599 290.579 53.2567 290.579 53.0265C290.579 52.7934 290.514 52.5874 290.383 52.4083C290.255 52.2264 290.071 52.0843 289.829 51.982C289.59 51.8796 289.306 51.8285 288.976 51.8285H288.162V50.4727H288.976C289.255 50.4727 289.501 50.4244 289.714 50.3278C289.93 50.2311 290.098 50.0976 290.217 49.927C290.336 49.7537 290.396 49.5519 290.396 49.3216C290.396 49.1028 290.344 48.9109 290.238 48.7461C290.136 48.5784 289.991 48.4476 289.804 48.3538C289.619 48.2601 289.403 48.2132 289.156 48.2132C288.905 48.2132 288.677 48.2586 288.469 48.3496C288.262 48.4377 288.095 48.5642 287.97 48.729C287.845 48.8939 287.778 49.0871 287.77 49.3088H286.001C286.009 48.8058 286.153 48.3624 286.431 47.9787C286.71 47.595 287.085 47.2951 287.557 47.0791C288.031 46.8602 288.567 46.7508 289.164 46.7508C289.767 46.7508 290.294 46.8602 290.746 47.0791C291.198 47.298 291.549 47.5935 291.799 47.9659C292.052 48.3354 292.177 48.7503 292.174 49.2108C292.177 49.6996 292.025 50.1075 291.718 50.4344C291.414 50.7612 291.017 50.9687 290.528 51.0568V51.125C291.171 51.2075 291.66 51.4306 291.995 51.7944C292.333 52.1553 292.501 52.6073 292.498 53.1501C292.501 53.6475 292.357 54.0895 292.067 54.476C291.78 54.8626 291.384 55.1667 290.878 55.3884C290.372 55.6101 289.792 55.7209 289.138 55.7209ZM297.176 55.7209C296.727 55.7181 296.293 55.6428 295.876 55.495C295.461 55.3472 295.088 55.107 294.759 54.7745C294.429 54.4419 294.167 54.0014 293.974 53.4528C293.784 52.9043 293.689 52.2307 293.689 51.432C293.691 50.6987 293.775 50.0436 293.94 49.4666C294.108 48.8868 294.347 48.3951 294.656 47.9915C294.969 47.5879 295.343 47.2809 295.778 47.0706C296.212 46.8574 296.7 46.7508 297.24 46.7508C297.823 46.7508 298.337 46.8645 298.783 47.0919C299.229 47.3164 299.588 47.622 299.858 48.0085C300.13 48.3951 300.295 48.8285 300.352 49.3088H298.532C298.461 49.0047 298.311 48.766 298.084 48.5926C297.857 48.4192 297.575 48.3325 297.24 48.3325C296.671 48.3325 296.239 48.5798 295.944 49.0744C295.651 49.5689 295.502 50.2411 295.496 51.0909H295.556C295.687 50.8323 295.863 50.612 296.085 50.4301C296.309 50.2454 296.563 50.1047 296.848 50.008C297.135 49.9086 297.437 49.8588 297.756 49.8588C298.273 49.8588 298.734 49.981 299.137 50.2255C299.541 50.4671 299.859 50.7996 300.092 51.2231C300.325 51.6466 300.442 52.1312 300.442 52.6769C300.442 53.2681 300.304 53.7939 300.028 54.2543C299.755 54.7148 299.373 55.0757 298.881 55.3372C298.392 55.5959 297.824 55.7238 297.176 55.7209ZM297.167 54.2714C297.452 54.2714 297.706 54.2032 297.931 54.0668C298.155 53.9303 298.331 53.7456 298.459 53.5125C298.587 53.2795 298.651 53.018 298.651 52.7281C298.651 52.4381 298.587 52.1781 298.459 51.9479C298.334 51.7176 298.161 51.5343 297.939 51.3979C297.717 51.2615 297.464 51.1932 297.18 51.1932C296.967 51.1932 296.77 51.233 296.588 51.3126C296.409 51.3922 296.251 51.5031 296.114 51.6452C295.981 51.7873 295.876 51.9521 295.799 52.1397C295.722 52.3245 295.684 52.522 295.684 52.7323C295.684 53.0137 295.748 53.2709 295.876 53.504C296.006 53.7371 296.183 53.9232 296.404 54.0625C296.629 54.2018 296.883 54.2714 297.167 54.2714ZM301.768 58.0573V49.053H303.558V50.153H303.639C303.719 49.9768 303.834 49.7977 303.985 49.6158C304.138 49.4311 304.337 49.2776 304.581 49.1554C304.829 49.0303 305.136 48.9678 305.502 48.9678C305.98 48.9678 306.42 49.0928 306.824 49.3429C307.228 49.5902 307.55 49.964 307.792 50.4642C308.033 50.9616 308.154 51.5855 308.154 52.3358C308.154 53.0663 308.036 53.683 307.8 54.1861C307.567 54.6864 307.249 55.0658 306.845 55.3244C306.445 55.5802 305.995 55.7081 305.498 55.7081C305.146 55.7081 304.846 55.6499 304.598 55.5333C304.354 55.4168 304.154 55.2704 303.997 55.0942C303.841 54.9152 303.722 54.7347 303.639 54.5528H303.584V58.0573H301.768ZM303.545 52.3273C303.545 52.7167 303.599 53.0563 303.707 53.3462C303.815 53.6362 303.972 53.8621 304.176 54.0241C304.381 54.1833 304.63 54.2629 304.922 54.2629C305.218 54.2629 305.468 54.1819 305.673 54.0199C305.877 53.855 306.032 53.6276 306.138 53.3377C306.246 53.045 306.3 52.7082 306.3 52.3273C306.3 51.9493 306.247 51.6167 306.142 51.3297C306.037 51.0426 305.882 50.8181 305.677 50.6561C305.472 50.4941 305.221 50.4131 304.922 50.4131C304.627 50.4131 304.377 50.4912 304.172 50.6475C303.97 50.8039 303.815 51.0256 303.707 51.3126C303.599 51.5997 303.545 51.9379 303.545 52.3273ZM310.648 49.053L311.85 51.3425L313.083 49.053H314.946L313.048 52.3273L314.997 55.6016H313.142L311.85 53.3377L310.58 55.6016H308.704L310.648 52.3273L308.772 49.053H310.648Z" fill="#0B1530"/>
<path d="M224 72H213" stroke="#33F7C3" stroke-width="2"/>
<path d="M225 72.2031L221 68.2031" stroke="#33F7C3" stroke-width="2" stroke-linecap="round"/>
<path d="M225 72.2031L221 76.2031" stroke="#33F7C3" stroke-width="2" stroke-linecap="round"/>
<path d="M212 72.2031L216 76.2031" stroke="#33F7C3" stroke-width="2" stroke-linecap="round"/>
<path d="M212 72.2031L216 68.2031" stroke="#33F7C3" stroke-width="2" stroke-linecap="round"/>
<rect x="201.75" y="40.7504" width="34.9061" height="20.7027" rx="3.75176" fill="#33F7C3"/>
<rect x="201.75" y="40.7504" width="34.9061" height="20.7027" rx="3.75176" stroke="#33F7C3" stroke-width="1.5007"/>
<path d="M208.911 55.6016V54.2714L212.019 51.3936C212.283 51.1378 212.505 50.9076 212.684 50.703C212.866 50.4983 213.004 50.2979 213.098 50.1018C213.192 49.9029 213.238 49.6883 213.238 49.4581C213.238 49.2023 213.18 48.982 213.064 48.7972C212.947 48.6096 212.788 48.4661 212.586 48.3666C212.384 48.2643 212.156 48.2132 211.9 48.2132C211.633 48.2132 211.399 48.2672 211.201 48.3752C211.002 48.4832 210.848 48.6381 210.74 48.8399C210.632 49.0417 210.578 49.2818 210.578 49.5604H208.826C208.826 48.9891 208.955 48.4931 209.214 48.0725C209.472 47.6518 209.835 47.3264 210.301 47.0962C210.767 46.8659 211.304 46.7508 211.912 46.7508C212.538 46.7508 213.082 46.8617 213.545 47.0834C214.011 47.3022 214.374 47.6063 214.633 47.9957C214.891 48.3851 215.02 48.8313 215.02 49.3344C215.02 49.6641 214.955 49.9896 214.824 50.3107C214.696 50.6319 214.468 50.9886 214.138 51.3808C213.808 51.7702 213.344 52.2378 212.744 52.7835L211.469 54.0326V54.0923H215.136V55.6016H208.911ZM216.49 58.0573V49.053H218.281V50.153H218.362C218.441 49.9768 218.557 49.7977 218.707 49.6158C218.861 49.4311 219.06 49.2776 219.304 49.1554C219.551 49.0303 219.858 48.9678 220.225 48.9678C220.702 48.9678 221.143 49.0928 221.547 49.3429C221.95 49.5902 222.273 49.964 222.514 50.4642C222.756 50.9616 222.877 51.5855 222.877 52.3358C222.877 53.0663 222.759 53.683 222.523 54.1861C222.29 54.6864 221.972 55.0658 221.568 55.3244C221.167 55.5802 220.718 55.7081 220.221 55.7081C219.868 55.7081 219.568 55.6499 219.321 55.5333C219.077 55.4168 218.876 55.2704 218.72 55.0942C218.564 54.9152 218.444 54.7347 218.362 54.5528H218.306V58.0573H216.49ZM218.268 52.3273C218.268 52.7167 218.322 53.0563 218.43 53.3462C218.538 53.6362 218.694 53.8621 218.899 54.0241C219.104 54.1833 219.352 54.2629 219.645 54.2629C219.941 54.2629 220.191 54.1819 220.396 54.0199C220.6 53.855 220.755 53.6276 220.86 53.3377C220.968 53.045 221.022 52.7082 221.022 52.3273C221.022 51.9493 220.97 51.6167 220.864 51.3297C220.759 51.0426 220.604 50.8181 220.4 50.6561C220.195 50.4941 219.944 50.4131 219.645 50.4131C219.35 50.4131 219.099 50.4912 218.895 50.6475C218.693 50.8039 218.538 51.0256 218.43 51.3126C218.322 51.5997 218.268 51.9379 218.268 52.3273ZM225.371 49.053L226.573 51.3425L227.805 49.053H229.668L227.771 52.3273L229.719 55.6016H227.865L226.573 53.3377L225.303 55.6016H223.427L225.371 52.3273L223.495 49.053H225.371Z" fill="#0B1530"/>
<path d="M137.407 86L136.994 151" stroke="#33F7C3" stroke-width="2"/>
<path d="M137.407 86L133.407 90" stroke="#33F7C3" stroke-width="2" stroke-linecap="round"/>
<path d="M137.407 86L141.407 90" stroke="#33F7C3" stroke-width="2" stroke-linecap="round"/>
<path d="M137 151L141 147" stroke="#33F7C3" stroke-width="2" stroke-linecap="round"/>
<path d="M137 151L133 147" stroke="#33F7C3" stroke-width="2" stroke-linecap="round"/>
<rect x="79.7504" y="107.75" width="42.9061" height="20.7027" rx="3.75176" fill="#33F7C3"/>
<rect x="79.7504" y="107.75" width="42.9061" height="20.7027" rx="3.75176" stroke="#33F7C3" stroke-width="1.5007"/>
<path d="M90.1001 122.721C89.4975 122.721 88.9603 122.61 88.4885 122.388C88.0196 122.167 87.6472 121.861 87.3715 121.472C87.0958 121.082 86.9523 120.636 86.9409 120.133H88.7315C88.7514 120.471 88.8936 120.746 89.1579 120.956C89.4222 121.166 89.7363 121.271 90.1001 121.271C90.39 121.271 90.6458 121.207 90.8675 121.08C91.092 120.949 91.2668 120.768 91.3919 120.538C91.5198 120.305 91.5837 120.038 91.5837 119.737C91.5837 119.43 91.5184 119.16 91.3876 118.927C91.2597 118.693 91.0821 118.512 90.8547 118.381C90.6273 118.25 90.3673 118.183 90.0745 118.18C89.8187 118.18 89.57 118.233 89.3284 118.338C89.0897 118.443 88.9035 118.587 88.7699 118.769L87.1285 118.475L87.5421 113.87H92.8798V115.379H89.0641L88.8381 117.567H88.8893C89.0428 117.351 89.2744 117.171 89.5842 117.029C89.894 116.887 90.2408 116.816 90.6245 116.816C91.1503 116.816 91.6193 116.94 92.0314 117.187C92.4435 117.434 92.7689 117.774 93.0077 118.206C93.2464 118.635 93.3644 119.13 93.3616 119.69C93.3644 120.278 93.228 120.801 92.9523 121.259C92.6794 121.713 92.2971 122.071 91.8054 122.333C91.3166 122.592 90.7481 122.721 90.1001 122.721ZM98.0001 122.721C97.551 122.718 97.1176 122.643 96.6998 122.495C96.2848 122.347 95.9125 122.107 95.5828 121.774C95.2531 121.442 94.9916 121.001 94.7983 120.453C94.6079 119.904 94.5127 119.231 94.5127 118.432C94.5155 117.699 94.5993 117.044 94.7642 116.467C94.9319 115.887 95.1706 115.395 95.4804 114.991C95.7931 114.588 96.1668 114.281 96.6017 114.071C97.0366 113.857 97.524 113.751 98.064 113.751C98.6467 113.751 99.1611 113.865 99.6074 114.092C100.054 114.316 100.412 114.622 100.682 115.009C100.955 115.395 101.119 115.829 101.176 116.309H99.3558C99.2848 116.005 99.1356 115.766 98.9082 115.593C98.6808 115.419 98.3994 115.333 98.064 115.333C97.4956 115.333 97.0636 115.58 96.768 116.074C96.4752 116.569 96.326 117.241 96.3203 118.091H96.38C96.5108 117.832 96.687 117.612 96.9087 117.43C97.1332 117.245 97.3876 117.105 97.6718 117.008C97.9589 116.909 98.2616 116.859 98.5799 116.859C99.0972 116.859 99.5576 116.981 99.9612 117.225C100.365 117.467 100.683 117.8 100.916 118.223C101.149 118.647 101.266 119.131 101.266 119.677C101.266 120.268 101.128 120.794 100.852 121.254C100.579 121.715 100.197 122.076 99.7054 122.337C99.2166 122.596 98.6481 122.724 98.0001 122.721ZM97.9916 121.271C98.2758 121.271 98.5302 121.203 98.7547 121.067C98.9792 120.93 99.1555 120.746 99.2834 120.513C99.4113 120.279 99.4752 120.018 99.4752 119.728C99.4752 119.438 99.4113 119.178 99.2834 118.948C99.1583 118.718 98.9849 118.534 98.7632 118.398C98.5415 118.261 98.2886 118.193 98.0044 118.193C97.7912 118.193 97.5937 118.233 97.4117 118.313C97.2327 118.392 97.0749 118.503 96.9385 118.645C96.8049 118.787 96.6998 118.952 96.623 119.14C96.5463 119.324 96.5079 119.522 96.5079 119.732C96.5079 120.014 96.5719 120.271 96.6998 120.504C96.8305 120.737 97.0067 120.923 97.2284 121.062C97.453 121.202 97.7073 121.271 97.9916 121.271ZM102.592 125.057V116.053H104.382V117.153H104.463C104.543 116.977 104.658 116.798 104.809 116.616C104.962 116.431 105.161 116.278 105.406 116.155C105.653 116.03 105.96 115.968 106.326 115.968C106.804 115.968 107.244 116.093 107.648 116.343C108.052 116.59 108.374 116.964 108.616 117.464C108.857 117.962 108.978 118.585 108.978 119.336C108.978 120.066 108.86 120.683 108.624 121.186C108.391 121.686 108.073 122.066 107.669 122.324C107.269 122.58 106.82 122.708 106.322 122.708C105.97 122.708 105.67 122.65 105.423 122.533C105.178 122.417 104.978 122.27 104.821 122.094C104.665 121.915 104.546 121.735 104.463 121.553H104.408V125.057H102.592ZM104.37 119.327C104.37 119.717 104.424 120.056 104.532 120.346C104.64 120.636 104.796 120.862 105.001 121.024C105.205 121.183 105.454 121.263 105.747 121.263C106.042 121.263 106.292 121.182 106.497 121.02C106.702 120.855 106.857 120.628 106.962 120.338C107.07 120.045 107.124 119.708 107.124 119.327C107.124 118.949 107.071 118.617 106.966 118.33C106.861 118.043 106.706 117.818 106.501 117.656C106.297 117.494 106.045 117.413 105.747 117.413C105.451 117.413 105.201 117.491 104.996 117.648C104.794 117.804 104.64 118.026 104.532 118.313C104.424 118.6 104.37 118.938 104.37 119.327ZM111.472 116.053L112.675 118.342L113.907 116.053H115.77L113.873 119.327L115.821 122.602H113.966L112.675 120.338L111.404 122.602H109.528L111.472 119.327L109.596 116.053H111.472Z" fill="#0B1530"/>
<rect x="151.407" y="86.2031" width="172.571" height="64.5714" rx="18.2857" fill="#457BF8"/>
<path d="M206.264 109.348V127.633" stroke="white" stroke-width="2.28571" stroke-linecap="round"/>
<path d="M215.407 118.492L197.121 118.492" stroke="white" stroke-width="2.28571" stroke-linecap="round"/>
<path d="M228.801 111.243H231.544C233.068 111.243 234.233 111.563 235.041 112.203C235.955 112.904 236.412 113.955 236.412 115.357C236.412 116.667 235.91 117.665 234.904 118.351C235.879 118.595 236.603 119.09 237.075 119.837C237.563 120.568 237.807 121.353 237.807 122.191C237.807 122.877 237.654 123.509 237.35 124.088C237.06 124.667 236.694 125.132 236.252 125.483C235.399 126.153 234.18 126.488 232.595 126.488H228.801V111.243ZM230.492 112.843V117.94H231.772C232.001 117.94 232.222 117.932 232.435 117.917C232.649 117.886 232.9 117.825 233.19 117.734C233.494 117.627 233.753 117.49 233.967 117.323C234.195 117.155 234.386 116.904 234.538 116.568C234.691 116.233 234.767 115.844 234.767 115.403C234.767 114.93 234.675 114.526 234.492 114.191C234.31 113.841 234.104 113.582 233.875 113.414C233.647 113.246 233.372 113.117 233.052 113.025C232.732 112.934 232.489 112.881 232.321 112.865C232.153 112.85 231.986 112.843 231.818 112.843H230.492ZM230.492 119.448V124.888H232.435C233.67 124.888 234.561 124.675 235.11 124.248C235.78 123.761 236.115 123.06 236.115 122.145C236.115 121.124 235.681 120.378 234.812 119.905C234.264 119.601 233.403 119.448 232.23 119.448H230.492ZM242.156 117.003V122.534C242.156 123.494 242.308 124.172 242.613 124.568C242.994 125.056 243.55 125.3 244.282 125.3C245.013 125.3 245.569 125.056 245.95 124.568C246.255 124.172 246.407 123.494 246.407 122.534V117.003H248.053V122.717C248.053 123.997 247.763 124.949 247.184 125.574C246.438 126.366 245.47 126.763 244.282 126.763C243.093 126.763 242.125 126.366 241.379 125.574C240.8 124.949 240.51 123.997 240.51 122.717V117.003H242.156ZM254.495 118.511H252.849V126.488H251.203V118.511H250.197V117.003H251.203V113.574H252.849V117.003H254.495V118.511ZM259.829 118.511H258.184V126.488H256.538V118.511H255.532V117.003H256.538V113.574H258.184V117.003H259.829V118.511ZM269.404 125.345C268.459 126.29 267.263 126.763 265.815 126.763C264.367 126.763 263.164 126.29 262.204 125.345C261.259 124.401 260.786 123.212 260.786 121.78C260.786 120.332 261.259 119.136 262.204 118.191C263.164 117.246 264.367 116.774 265.815 116.774C267.263 116.774 268.459 117.246 269.404 118.191C270.364 119.136 270.844 120.332 270.844 121.78C270.844 123.212 270.364 124.401 269.404 125.345ZM268.169 119.174C267.529 118.549 266.744 118.237 265.815 118.237C264.885 118.237 264.093 118.557 263.438 119.197C262.798 119.822 262.478 120.683 262.478 121.78C262.478 122.877 262.805 123.738 263.461 124.363C264.116 124.987 264.901 125.3 265.815 125.3C266.729 125.3 267.514 124.987 268.169 124.363C268.824 123.738 269.152 122.877 269.152 121.78C269.152 120.667 268.824 119.799 268.169 119.174ZM273.367 126.488V117.003H275.013V118.1C275.683 117.216 276.59 116.774 277.733 116.774C278.952 116.774 279.859 117.208 280.453 118.077C280.819 118.61 281.002 119.456 281.002 120.614V126.488H279.356V120.66C279.356 119.883 279.211 119.304 278.922 118.923C278.571 118.465 278.053 118.237 277.367 118.237C276.666 118.237 276.11 118.481 275.699 118.968C275.242 119.502 275.013 120.355 275.013 121.528V126.488H273.367Z" fill="white"/>
</svg>
