<svg width="418" height="240" viewBox="0 0 418 240" fill="none" xmlns="http://www.w3.org/2000/svg">
<rect width="418" height="240" rx="24" fill="#F5F6F8"/>
<path d="M219.978 164.57H192.407" stroke="#33F7C3" stroke-width="2"/>
<path d="M193.401 164L193.401 138" stroke="#33F7C3" stroke-width="2"/>
<path d="M218.979 164L218.979 138" stroke="#33F7C3" stroke-width="2"/>
<rect x="184.739" y="175.321" width="42.9061" height="20.7027" rx="3.75176" fill="#33F7C3"/>
<rect x="184.739" y="175.321" width="42.9061" height="20.7027" rx="3.75176" stroke="#33F7C3" stroke-width="1.5007"/>
<path d="M191.9 190.172V188.842L195.008 185.964C195.272 185.708 195.494 185.478 195.673 185.273C195.855 185.069 195.993 184.868 196.087 184.672C196.181 184.473 196.227 184.259 196.227 184.028C196.227 183.773 196.169 183.552 196.053 183.368C195.936 183.18 195.777 183.036 195.575 182.937C195.373 182.835 195.145 182.783 194.889 182.783C194.622 182.783 194.388 182.837 194.19 182.945C193.991 183.053 193.837 183.208 193.729 183.41C193.621 183.612 193.567 183.852 193.567 184.131H191.815C191.815 183.559 191.944 183.063 192.203 182.643C192.461 182.222 192.824 181.897 193.29 181.666C193.756 181.436 194.293 181.321 194.902 181.321C195.527 181.321 196.071 181.432 196.534 181.654C197.001 181.873 197.363 182.177 197.622 182.566C197.88 182.955 198.009 183.402 198.009 183.905C198.009 184.234 197.944 184.56 197.813 184.881C197.685 185.202 197.457 185.559 197.127 185.951C196.797 186.341 196.333 186.808 195.733 187.354L194.458 188.603V188.663H198.125V190.172H191.9ZM199.142 188.637V187.183L202.788 181.441H204.041V183.453H203.299L201.001 187.089V187.158H206.181V188.637H199.142ZM203.333 190.172V188.194L203.367 187.55V181.441H205.098V190.172H203.333ZM207.428 192.628V183.623H209.219V184.723H209.3C209.38 184.547 209.495 184.368 209.645 184.186C209.799 184.001 209.998 183.848 210.242 183.726C210.489 183.601 210.796 183.538 211.163 183.538C211.641 183.538 212.081 183.663 212.485 183.913C212.888 184.161 213.211 184.534 213.452 185.035C213.694 185.532 213.815 186.156 213.815 186.906C213.815 187.637 213.697 188.253 213.461 188.756C213.228 189.257 212.91 189.636 212.506 189.895C212.105 190.151 211.656 190.278 211.159 190.278C210.806 190.278 210.506 190.22 210.259 190.104C210.015 189.987 209.814 189.841 209.658 189.665C209.502 189.485 209.382 189.305 209.3 189.123H209.245V192.628H207.428ZM209.206 186.898C209.206 187.287 209.26 187.627 209.368 187.917C209.476 188.206 209.632 188.432 209.837 188.594C210.042 188.754 210.29 188.833 210.583 188.833C210.879 188.833 211.129 188.752 211.334 188.59C211.538 188.425 211.693 188.198 211.798 187.908C211.906 187.615 211.96 187.278 211.96 186.898C211.96 186.52 211.908 186.187 211.803 185.9C211.697 185.613 211.542 185.388 211.338 185.226C211.133 185.064 210.882 184.983 210.583 184.983C210.288 184.983 210.038 185.062 209.833 185.218C209.631 185.374 209.476 185.596 209.368 185.883C209.26 186.17 209.206 186.508 209.206 186.898ZM216.309 183.623L217.511 185.913L218.743 183.623H220.606L218.709 186.898L220.658 190.172H218.803L217.511 187.908L216.241 190.172H214.365L216.309 186.898L214.433 183.623H216.309Z" fill="#0B1530"/>
<path d="M193.41 72H151.433" stroke="#33F7C3" stroke-width="2"/>
<path d="M152.432 112L152.432 71.9995" stroke="#33F7C3" stroke-width="2"/>
<path d="M192.407 111.996L192.407 71.9956" stroke="#33F7C3" stroke-width="2"/>
<path d="M219.014 112L219.014 71.9995" stroke="#33F7C3" stroke-width="2"/>
<path d="M283.828 112L283.828 71.9995" stroke="#33F7C3" stroke-width="2"/>
<path d="M228.002 112L228.002 71.9995" stroke="#33F7C3" stroke-width="2"/>
<path d="M322.917 112.07L322.917 72.0698" stroke="#33F7C3" stroke-width="2"/>
<rect x="147.75" y="40.7504" width="43.9061" height="20.7027" rx="3.75176" fill="#33F7C3"/>
<rect x="147.75" y="40.7504" width="43.9061" height="20.7027" rx="3.75176" stroke="#33F7C3" stroke-width="1.5007"/>
<path d="M158.138 55.7209C157.502 55.7209 156.935 55.6115 156.437 55.3927C155.943 55.171 155.552 54.8668 155.265 54.4803C154.981 54.0909 154.834 53.6418 154.826 53.1331H156.685C156.696 53.3462 156.766 53.5338 156.894 53.6958C157.024 53.855 157.198 53.9786 157.414 54.0668C157.63 54.1549 157.873 54.1989 158.143 54.1989C158.424 54.1989 158.673 54.1492 158.889 54.0497C159.105 53.9502 159.274 53.8124 159.396 53.6362C159.518 53.4599 159.579 53.2567 159.579 53.0265C159.579 52.7934 159.514 52.5874 159.383 52.4083C159.255 52.2264 159.071 52.0843 158.829 51.982C158.59 51.8796 158.306 51.8285 157.976 51.8285H157.162V50.4727H157.976C158.255 50.4727 158.501 50.4244 158.714 50.3278C158.93 50.2311 159.098 50.0976 159.217 49.927C159.336 49.7537 159.396 49.5519 159.396 49.3216C159.396 49.1028 159.344 48.9109 159.238 48.7461C159.136 48.5784 158.991 48.4476 158.804 48.3538C158.619 48.2601 158.403 48.2132 158.156 48.2132C157.905 48.2132 157.677 48.2586 157.469 48.3496C157.262 48.4377 157.095 48.5642 156.97 48.729C156.845 48.8939 156.778 49.0871 156.77 49.3088H155.001C155.009 48.8058 155.153 48.3624 155.431 47.9787C155.71 47.595 156.085 47.2951 156.557 47.0791C157.031 46.8602 157.567 46.7508 158.164 46.7508C158.767 46.7508 159.294 46.8602 159.746 47.0791C160.198 47.298 160.549 47.5935 160.799 47.9659C161.052 48.3354 161.177 48.7503 161.174 49.2108C161.177 49.6996 161.025 50.1075 160.718 50.4344C160.414 50.7612 160.017 50.9687 159.528 51.0568V51.125C160.171 51.2075 160.66 51.4306 160.995 51.7944C161.333 52.1553 161.501 52.6073 161.498 53.1501C161.501 53.6475 161.357 54.0895 161.067 54.476C160.78 54.8626 160.384 55.1667 159.878 55.3884C159.372 55.6101 158.792 55.7209 158.138 55.7209ZM166.176 55.7209C165.727 55.7181 165.293 55.6428 164.876 55.495C164.461 55.3472 164.088 55.107 163.759 54.7745C163.429 54.4419 163.167 54.0014 162.974 53.4528C162.784 52.9043 162.689 52.2307 162.689 51.432C162.691 50.6987 162.775 50.0436 162.94 49.4666C163.108 48.8868 163.347 48.3951 163.656 47.9915C163.969 47.5879 164.343 47.2809 164.778 47.0706C165.212 46.8574 165.7 46.7508 166.24 46.7508C166.823 46.7508 167.337 46.8645 167.783 47.0919C168.229 47.3164 168.588 47.622 168.858 48.0085C169.13 48.3951 169.295 48.8285 169.352 49.3088H167.532C167.461 49.0047 167.311 48.766 167.084 48.5926C166.857 48.4192 166.575 48.3325 166.24 48.3325C165.671 48.3325 165.239 48.5798 164.944 49.0744C164.651 49.5689 164.502 50.2411 164.496 51.0909H164.556C164.687 50.8323 164.863 50.612 165.085 50.4301C165.309 50.2454 165.563 50.1047 165.848 50.008C166.135 49.9086 166.437 49.8588 166.756 49.8588C167.273 49.8588 167.734 49.981 168.137 50.2255C168.541 50.4671 168.859 50.7996 169.092 51.2231C169.325 51.6466 169.442 52.1312 169.442 52.6769C169.442 53.2681 169.304 53.7939 169.028 54.2543C168.755 54.7148 168.373 55.0757 167.881 55.3372C167.392 55.5959 166.824 55.7238 166.176 55.7209ZM166.167 54.2714C166.452 54.2714 166.706 54.2032 166.931 54.0668C167.155 53.9303 167.331 53.7456 167.459 53.5125C167.587 53.2795 167.651 53.018 167.651 52.7281C167.651 52.4381 167.587 52.1781 167.459 51.9479C167.334 51.7176 167.161 51.5343 166.939 51.3979C166.717 51.2615 166.464 51.1932 166.18 51.1932C165.967 51.1932 165.77 51.233 165.588 51.3126C165.409 51.3922 165.251 51.5031 165.114 51.6452C164.981 51.7873 164.876 51.9521 164.799 52.1397C164.722 52.3245 164.684 52.522 164.684 52.7323C164.684 53.0137 164.748 53.2709 164.876 53.504C165.006 53.7371 165.183 53.9232 165.404 54.0625C165.629 54.2018 165.883 54.2714 166.167 54.2714ZM170.768 58.0573V49.053H172.558V50.153H172.639C172.719 49.9768 172.834 49.7977 172.985 49.6158C173.138 49.4311 173.337 49.2776 173.581 49.1554C173.829 49.0303 174.136 48.9678 174.502 48.9678C174.98 48.9678 175.42 49.0928 175.824 49.3429C176.228 49.5902 176.55 49.964 176.792 50.4642C177.033 50.9616 177.154 51.5855 177.154 52.3358C177.154 53.0663 177.036 53.683 176.8 54.1861C176.567 54.6864 176.249 55.0658 175.845 55.3244C175.445 55.5802 174.995 55.7081 174.498 55.7081C174.146 55.7081 173.846 55.6499 173.598 55.5333C173.354 55.4168 173.154 55.2704 172.997 55.0942C172.841 54.9152 172.722 54.7347 172.639 54.5528H172.584V58.0573H170.768ZM172.545 52.3273C172.545 52.7167 172.599 53.0563 172.707 53.3462C172.815 53.6362 172.972 53.8621 173.176 54.0241C173.381 54.1833 173.63 54.2629 173.922 54.2629C174.218 54.2629 174.468 54.1819 174.673 54.0199C174.877 53.855 175.032 53.6276 175.138 53.3377C175.246 53.045 175.3 52.7082 175.3 52.3273C175.3 51.9493 175.247 51.6167 175.142 51.3297C175.037 51.0426 174.882 50.8181 174.677 50.6561C174.472 50.4941 174.221 50.4131 173.922 50.4131C173.627 50.4131 173.377 50.4912 173.172 50.6475C172.97 50.8039 172.815 51.0256 172.707 51.3126C172.599 51.5997 172.545 51.9379 172.545 52.3273ZM179.648 49.053L180.85 51.3425L182.083 49.053H183.946L182.048 52.3273L183.997 55.6016H182.142L180.85 53.3377L179.58 55.6016H177.704L179.648 52.3273L177.772 49.053H179.648Z" fill="#0B1530"/>
<path d="M323.918 72H282.835" stroke="#33F7C3" stroke-width="2"/>
<rect x="281.75" y="40.7504" width="43.9061" height="20.7027" rx="3.75176" fill="#33F7C3"/>
<rect x="281.75" y="40.7504" width="43.9061" height="20.7027" rx="3.75176" stroke="#33F7C3" stroke-width="1.5007"/>
<path d="M292.138 55.7209C291.502 55.7209 290.935 55.6115 290.437 55.3927C289.943 55.171 289.552 54.8668 289.265 54.4803C288.981 54.0909 288.834 53.6418 288.826 53.1331H290.685C290.696 53.3462 290.766 53.5338 290.894 53.6958C291.024 53.855 291.198 53.9786 291.414 54.0668C291.63 54.1549 291.873 54.1989 292.143 54.1989C292.424 54.1989 292.673 54.1492 292.889 54.0497C293.105 53.9502 293.274 53.8124 293.396 53.6362C293.518 53.4599 293.579 53.2567 293.579 53.0265C293.579 52.7934 293.514 52.5874 293.383 52.4083C293.255 52.2264 293.071 52.0843 292.829 51.982C292.59 51.8796 292.306 51.8285 291.976 51.8285H291.162V50.4727H291.976C292.255 50.4727 292.501 50.4244 292.714 50.3278C292.93 50.2311 293.098 50.0976 293.217 49.927C293.336 49.7537 293.396 49.5519 293.396 49.3216C293.396 49.1028 293.344 48.9109 293.238 48.7461C293.136 48.5784 292.991 48.4476 292.804 48.3538C292.619 48.2601 292.403 48.2132 292.156 48.2132C291.905 48.2132 291.677 48.2586 291.469 48.3496C291.262 48.4377 291.095 48.5642 290.97 48.729C290.845 48.8939 290.778 49.0871 290.77 49.3088H289.001C289.009 48.8058 289.153 48.3624 289.431 47.9787C289.71 47.595 290.085 47.2951 290.557 47.0791C291.031 46.8602 291.567 46.7508 292.164 46.7508C292.767 46.7508 293.294 46.8602 293.746 47.0791C294.198 47.298 294.549 47.5935 294.799 47.9659C295.052 48.3354 295.177 48.7503 295.174 49.2108C295.177 49.6996 295.025 50.1075 294.718 50.4344C294.414 50.7612 294.017 50.9687 293.528 51.0568V51.125C294.171 51.2075 294.66 51.4306 294.995 51.7944C295.333 52.1553 295.501 52.6073 295.498 53.1501C295.501 53.6475 295.357 54.0895 295.067 54.476C294.78 54.8626 294.384 55.1667 293.878 55.3884C293.372 55.6101 292.792 55.7209 292.138 55.7209ZM300.176 55.7209C299.727 55.7181 299.293 55.6428 298.876 55.495C298.461 55.3472 298.088 55.107 297.759 54.7745C297.429 54.4419 297.167 54.0014 296.974 53.4528C296.784 52.9043 296.689 52.2307 296.689 51.432C296.691 50.6987 296.775 50.0436 296.94 49.4666C297.108 48.8868 297.347 48.3951 297.656 47.9915C297.969 47.5879 298.343 47.2809 298.778 47.0706C299.212 46.8574 299.7 46.7508 300.24 46.7508C300.823 46.7508 301.337 46.8645 301.783 47.0919C302.229 47.3164 302.588 47.622 302.858 48.0085C303.13 48.3951 303.295 48.8285 303.352 49.3088H301.532C301.461 49.0047 301.311 48.766 301.084 48.5926C300.857 48.4192 300.575 48.3325 300.24 48.3325C299.671 48.3325 299.239 48.5798 298.944 49.0744C298.651 49.5689 298.502 50.2411 298.496 51.0909H298.556C298.687 50.8323 298.863 50.612 299.085 50.4301C299.309 50.2454 299.563 50.1047 299.848 50.008C300.135 49.9086 300.437 49.8588 300.756 49.8588C301.273 49.8588 301.734 49.981 302.137 50.2255C302.541 50.4671 302.859 50.7996 303.092 51.2231C303.325 51.6466 303.442 52.1312 303.442 52.6769C303.442 53.2681 303.304 53.7939 303.028 54.2543C302.755 54.7148 302.373 55.0757 301.881 55.3372C301.392 55.5959 300.824 55.7238 300.176 55.7209ZM300.167 54.2714C300.452 54.2714 300.706 54.2032 300.931 54.0668C301.155 53.9303 301.331 53.7456 301.459 53.5125C301.587 53.2795 301.651 53.018 301.651 52.7281C301.651 52.4381 301.587 52.1781 301.459 51.9479C301.334 51.7176 301.161 51.5343 300.939 51.3979C300.717 51.2615 300.464 51.1932 300.18 51.1932C299.967 51.1932 299.77 51.233 299.588 51.3126C299.409 51.3922 299.251 51.5031 299.114 51.6452C298.981 51.7873 298.876 51.9521 298.799 52.1397C298.722 52.3245 298.684 52.522 298.684 52.7323C298.684 53.0137 298.748 53.2709 298.876 53.504C299.006 53.7371 299.183 53.9232 299.404 54.0625C299.629 54.2018 299.883 54.2714 300.167 54.2714ZM304.768 58.0573V49.053H306.558V50.153H306.639C306.719 49.9768 306.834 49.7977 306.985 49.6158C307.138 49.4311 307.337 49.2776 307.581 49.1554C307.829 49.0303 308.136 48.9678 308.502 48.9678C308.98 48.9678 309.42 49.0928 309.824 49.3429C310.228 49.5902 310.55 49.964 310.792 50.4642C311.033 50.9616 311.154 51.5855 311.154 52.3358C311.154 53.0663 311.036 53.683 310.8 54.1861C310.567 54.6864 310.249 55.0658 309.845 55.3244C309.445 55.5802 308.995 55.7081 308.498 55.7081C308.146 55.7081 307.846 55.6499 307.598 55.5333C307.354 55.4168 307.154 55.2704 306.997 55.0942C306.841 54.9152 306.722 54.7347 306.639 54.5528H306.584V58.0573H304.768ZM306.545 52.3273C306.545 52.7167 306.599 53.0563 306.707 53.3462C306.815 53.6362 306.972 53.8621 307.176 54.0241C307.381 54.1833 307.63 54.2629 307.922 54.2629C308.218 54.2629 308.468 54.1819 308.673 54.0199C308.877 53.855 309.032 53.6276 309.138 53.3377C309.246 53.045 309.3 52.7082 309.3 52.3273C309.3 51.9493 309.247 51.6167 309.142 51.3297C309.037 51.0426 308.882 50.8181 308.677 50.6561C308.472 50.4941 308.221 50.4131 307.922 50.4131C307.627 50.4131 307.377 50.4912 307.172 50.6475C306.97 50.8039 306.815 51.0256 306.707 51.3126C306.599 51.5997 306.545 51.9379 306.545 52.3273ZM313.648 49.053L314.85 51.3425L316.083 49.053H317.946L316.048 52.3273L317.997 55.6016H316.142L314.85 53.3377L313.58 55.6016H311.704L313.648 52.3273L311.772 49.053H313.648Z" fill="#0B1530"/>
<path d="M229 72H218" stroke="#33F7C3" stroke-width="2"/>
<rect x="206.047" y="40.7504" width="34.9061" height="20.7027" rx="3.75176" fill="#33F7C3"/>
<rect x="206.047" y="40.7504" width="34.9061" height="20.7027" rx="3.75176" stroke="#33F7C3" stroke-width="1.5007"/>
<path d="M213.208 55.6016V54.2714L216.316 51.3936C216.58 51.1378 216.802 50.9076 216.981 50.703C217.163 50.4983 217.301 50.2979 217.394 50.1018C217.488 49.9029 217.535 49.6883 217.535 49.4581C217.535 49.2023 217.477 48.982 217.36 48.7972C217.244 48.6096 217.085 48.4661 216.883 48.3666C216.681 48.2643 216.452 48.2132 216.196 48.2132C215.929 48.2132 215.696 48.2672 215.497 48.3752C215.298 48.4832 215.145 48.6381 215.037 48.8399C214.929 49.0417 214.875 49.2818 214.875 49.5604H213.122C213.122 48.9891 213.252 48.4931 213.51 48.0725C213.769 47.6518 214.131 47.3264 214.598 47.0962C215.064 46.8659 215.601 46.7508 216.209 46.7508C216.834 46.7508 217.379 46.8617 217.842 47.0834C218.308 47.3022 218.671 47.6063 218.929 47.9957C219.188 48.3851 219.317 48.8313 219.317 49.3344C219.317 49.6641 219.252 49.9896 219.121 50.3107C218.993 50.6319 218.764 50.9886 218.435 51.3808C218.105 51.7702 217.64 52.2378 217.04 52.7835L215.766 54.0326V54.0923H219.432V55.6016H213.208ZM220.787 58.0573V49.053H222.578V50.153H222.659C222.738 49.9768 222.853 49.7977 223.004 49.6158C223.157 49.4311 223.356 49.2776 223.601 49.1554C223.848 49.0303 224.155 48.9678 224.522 48.9678C224.999 48.9678 225.44 49.0928 225.843 49.3429C226.247 49.5902 226.569 49.964 226.811 50.4642C227.053 50.9616 227.173 51.5855 227.173 52.3358C227.173 53.0663 227.055 53.683 226.82 54.1861C226.587 54.6864 226.268 55.0658 225.865 55.3244C225.464 55.5802 225.015 55.7081 224.517 55.7081C224.165 55.7081 223.865 55.6499 223.618 55.5333C223.373 55.4168 223.173 55.2704 223.017 55.0942C222.86 54.9152 222.741 54.7347 222.659 54.5528H222.603V58.0573H220.787ZM222.565 52.3273C222.565 52.7167 222.619 53.0563 222.727 53.3462C222.835 53.6362 222.991 53.8621 223.196 54.0241C223.4 54.1833 223.649 54.2629 223.942 54.2629C224.237 54.2629 224.488 54.1819 224.692 54.0199C224.897 53.855 225.052 53.6276 225.157 53.3377C225.265 53.045 225.319 52.7082 225.319 52.3273C225.319 51.9493 225.266 51.6167 225.161 51.3297C225.056 51.0426 224.901 50.8181 224.696 50.6561C224.492 50.4941 224.24 50.4131 223.942 50.4131C223.646 50.4131 223.396 50.4912 223.191 50.6475C222.99 50.8039 222.835 51.0256 222.727 51.3126C222.619 51.5997 222.565 51.9379 222.565 52.3273ZM229.667 49.053L230.87 51.3425L232.102 49.053H233.965L232.068 52.3273L234.016 55.6016H232.162L230.87 53.3377L229.599 55.6016H227.723L229.667 52.3273L227.792 49.053H229.667Z" fill="#0B1530"/>
<path d="M137.401 86.2188L137.056 150.758" stroke="#33F7C3" stroke-width="2"/>
<path d="M168.853 87.2031H136.388" stroke="#33F7C3" stroke-width="2"/>
<path d="M168.853 149.762H136.388" stroke="#33F7C3" stroke-width="2"/>
<rect x="79.7504" y="107.75" width="42.9061" height="20.7027" rx="3.75176" fill="#33F7C3"/>
<rect x="79.7504" y="107.75" width="42.9061" height="20.7027" rx="3.75176" stroke="#33F7C3" stroke-width="1.5007"/>
<path d="M90.1001 122.721C89.4975 122.721 88.9603 122.61 88.4885 122.388C88.0196 122.167 87.6472 121.861 87.3715 121.472C87.0958 121.082 86.9523 120.636 86.9409 120.133H88.7315C88.7514 120.471 88.8936 120.746 89.1579 120.956C89.4222 121.166 89.7363 121.271 90.1001 121.271C90.39 121.271 90.6458 121.207 90.8675 121.08C91.092 120.949 91.2668 120.768 91.3919 120.538C91.5198 120.305 91.5837 120.038 91.5837 119.737C91.5837 119.43 91.5184 119.16 91.3876 118.927C91.2597 118.693 91.0821 118.512 90.8547 118.381C90.6273 118.25 90.3673 118.183 90.0745 118.18C89.8187 118.18 89.57 118.233 89.3284 118.338C89.0897 118.443 88.9035 118.587 88.7699 118.769L87.1285 118.475L87.5421 113.87H92.8798V115.379H89.0641L88.8381 117.567H88.8893C89.0428 117.351 89.2744 117.171 89.5842 117.029C89.894 116.887 90.2408 116.816 90.6245 116.816C91.1503 116.816 91.6193 116.94 92.0314 117.187C92.4435 117.434 92.7689 117.774 93.0077 118.206C93.2464 118.635 93.3644 119.13 93.3616 119.69C93.3644 120.278 93.228 120.801 92.9523 121.259C92.6794 121.713 92.2971 122.071 91.8054 122.333C91.3166 122.592 90.7481 122.721 90.1001 122.721ZM98.0001 122.721C97.551 122.718 97.1176 122.643 96.6998 122.495C96.2848 122.347 95.9125 122.107 95.5828 121.774C95.2531 121.442 94.9916 121.001 94.7983 120.453C94.6079 119.904 94.5127 119.231 94.5127 118.432C94.5155 117.699 94.5993 117.044 94.7642 116.467C94.9319 115.887 95.1706 115.395 95.4804 114.991C95.7931 114.588 96.1668 114.281 96.6017 114.071C97.0366 113.857 97.524 113.751 98.064 113.751C98.6467 113.751 99.1611 113.865 99.6074 114.092C100.054 114.316 100.412 114.622 100.682 115.009C100.955 115.395 101.119 115.829 101.176 116.309H99.3558C99.2848 116.005 99.1356 115.766 98.9082 115.593C98.6808 115.419 98.3994 115.333 98.064 115.333C97.4956 115.333 97.0636 115.58 96.768 116.074C96.4752 116.569 96.326 117.241 96.3203 118.091H96.38C96.5108 117.832 96.687 117.612 96.9087 117.43C97.1332 117.245 97.3876 117.105 97.6718 117.008C97.9589 116.909 98.2616 116.859 98.5799 116.859C99.0972 116.859 99.5576 116.981 99.9612 117.225C100.365 117.467 100.683 117.8 100.916 118.223C101.149 118.647 101.266 119.131 101.266 119.677C101.266 120.268 101.128 120.794 100.852 121.254C100.579 121.715 100.197 122.076 99.7054 122.337C99.2166 122.596 98.6481 122.724 98.0001 122.721ZM97.9916 121.271C98.2758 121.271 98.5302 121.203 98.7547 121.067C98.9792 120.93 99.1555 120.746 99.2834 120.513C99.4113 120.279 99.4752 120.018 99.4752 119.728C99.4752 119.438 99.4113 119.178 99.2834 118.948C99.1583 118.718 98.9849 118.534 98.7632 118.398C98.5415 118.261 98.2886 118.193 98.0044 118.193C97.7912 118.193 97.5937 118.233 97.4117 118.313C97.2327 118.392 97.0749 118.503 96.9385 118.645C96.8049 118.787 96.6998 118.952 96.623 119.14C96.5463 119.324 96.5079 119.522 96.5079 119.732C96.5079 120.014 96.5719 120.271 96.6998 120.504C96.8305 120.737 97.0067 120.923 97.2284 121.062C97.453 121.202 97.7073 121.271 97.9916 121.271ZM102.592 125.057V116.053H104.382V117.153H104.463C104.543 116.977 104.658 116.798 104.809 116.616C104.962 116.431 105.161 116.278 105.406 116.155C105.653 116.03 105.96 115.968 106.326 115.968C106.804 115.968 107.244 116.093 107.648 116.343C108.052 116.59 108.374 116.964 108.616 117.464C108.857 117.962 108.978 118.585 108.978 119.336C108.978 120.066 108.86 120.683 108.624 121.186C108.391 121.686 108.073 122.066 107.669 122.324C107.269 122.58 106.82 122.708 106.322 122.708C105.97 122.708 105.67 122.65 105.423 122.533C105.178 122.417 104.978 122.27 104.821 122.094C104.665 121.915 104.546 121.735 104.463 121.553H104.408V125.057H102.592ZM104.37 119.327C104.37 119.717 104.424 120.056 104.532 120.346C104.64 120.636 104.796 120.862 105.001 121.024C105.205 121.183 105.454 121.263 105.747 121.263C106.042 121.263 106.292 121.182 106.497 121.02C106.702 120.855 106.857 120.628 106.962 120.338C107.07 120.045 107.124 119.708 107.124 119.327C107.124 118.949 107.071 118.617 106.966 118.33C106.861 118.043 106.706 117.818 106.501 117.656C106.297 117.494 106.045 117.413 105.747 117.413C105.451 117.413 105.201 117.491 104.996 117.648C104.794 117.804 104.64 118.026 104.532 118.313C104.424 118.6 104.37 118.938 104.37 119.327ZM111.472 116.053L112.675 118.342L113.907 116.053H115.77L113.873 119.327L115.821 122.602H113.966L112.675 120.338L111.404 122.602H109.528L111.472 119.327L109.596 116.053H111.472Z" fill="#0B1530"/>
<rect x="151.407" y="86.2031" width="172.571" height="64.5714" rx="18.2857" fill="#457BF8"/>
<path d="M206.264 109.348V127.633" stroke="white" stroke-width="2.28571" stroke-linecap="round"/>
<path d="M215.407 118.492L197.121 118.492" stroke="white" stroke-width="2.28571" stroke-linecap="round"/>
<path d="M228.801 111.243H231.544C233.068 111.243 234.233 111.563 235.041 112.203C235.955 112.904 236.412 113.955 236.412 115.357C236.412 116.667 235.91 117.665 234.904 118.351C235.879 118.595 236.603 119.09 237.075 119.837C237.563 120.568 237.807 121.353 237.807 122.191C237.807 122.877 237.654 123.509 237.35 124.088C237.06 124.667 236.694 125.132 236.252 125.483C235.399 126.153 234.18 126.488 232.595 126.488H228.801V111.243ZM230.492 112.843V117.94H231.772C232.001 117.94 232.222 117.932 232.435 117.917C232.649 117.886 232.9 117.825 233.19 117.734C233.494 117.627 233.753 117.49 233.967 117.323C234.195 117.155 234.386 116.904 234.538 116.568C234.691 116.233 234.767 115.844 234.767 115.403C234.767 114.93 234.675 114.526 234.492 114.191C234.31 113.841 234.104 113.582 233.875 113.414C233.647 113.246 233.372 113.117 233.052 113.025C232.732 112.934 232.489 112.881 232.321 112.865C232.153 112.85 231.986 112.843 231.818 112.843H230.492ZM230.492 119.448V124.888H232.435C233.67 124.888 234.561 124.675 235.11 124.248C235.78 123.761 236.115 123.06 236.115 122.145C236.115 121.124 235.681 120.378 234.812 119.905C234.264 119.601 233.403 119.448 232.23 119.448H230.492ZM242.156 117.003V122.534C242.156 123.494 242.308 124.172 242.613 124.568C242.994 125.056 243.55 125.3 244.282 125.3C245.013 125.3 245.569 125.056 245.95 124.568C246.255 124.172 246.407 123.494 246.407 122.534V117.003H248.053V122.717C248.053 123.997 247.763 124.949 247.184 125.574C246.438 126.366 245.47 126.763 244.282 126.763C243.093 126.763 242.125 126.366 241.379 125.574C240.8 124.949 240.51 123.997 240.51 122.717V117.003H242.156ZM254.495 118.511H252.849V126.488H251.203V118.511H250.197V117.003H251.203V113.574H252.849V117.003H254.495V118.511ZM259.829 118.511H258.184V126.488H256.538V118.511H255.532V117.003H256.538V113.574H258.184V117.003H259.829V118.511ZM269.404 125.345C268.459 126.29 267.263 126.763 265.815 126.763C264.367 126.763 263.164 126.29 262.204 125.345C261.259 124.401 260.786 123.212 260.786 121.78C260.786 120.332 261.259 119.136 262.204 118.191C263.164 117.246 264.367 116.774 265.815 116.774C267.263 116.774 268.459 117.246 269.404 118.191C270.364 119.136 270.844 120.332 270.844 121.78C270.844 123.212 270.364 124.401 269.404 125.345ZM268.169 119.174C267.529 118.549 266.744 118.237 265.815 118.237C264.885 118.237 264.093 118.557 263.438 119.197C262.798 119.822 262.478 120.683 262.478 121.78C262.478 122.877 262.805 123.738 263.461 124.363C264.116 124.987 264.901 125.3 265.815 125.3C266.729 125.3 267.514 124.987 268.169 124.363C268.824 123.738 269.152 122.877 269.152 121.78C269.152 120.667 268.824 119.799 268.169 119.174ZM273.367 126.488V117.003H275.013V118.1C275.683 117.216 276.59 116.774 277.733 116.774C278.952 116.774 279.859 117.208 280.453 118.077C280.819 118.61 281.002 119.456 281.002 120.614V126.488H279.356V120.66C279.356 119.883 279.211 119.304 278.922 118.923C278.571 118.465 278.053 118.237 277.367 118.237C276.666 118.237 276.11 118.481 275.699 118.968C275.242 119.502 275.013 120.355 275.013 121.528V126.488H273.367Z" fill="white"/>
</svg>
