<svg width="200" height="56" viewBox="0 0 200 56" fill="none" xmlns="http://www.w3.org/2000/svg">
<rect x="0.5" y="0.5" width="199" height="55" rx="11.5" fill="white"/>
<rect x="0.5" y="0.5" width="199" height="55" rx="11.5" stroke="#FA4646"/>
<path d="M21.32 35V23.06H19.08L19.86 21.66H22.8V35H21.32ZM33.9794 35H25.3594L30.2194 29.38C31.046 28.4067 31.566 27.76 31.7794 27.44C32.2727 26.7333 32.5194 26.0533 32.5194 25.4C32.5194 24.64 32.2727 24.02 31.7794 23.54C31.286 23.0467 30.646 22.8 29.8594 22.8C28.8994 22.8 28.1594 23.1933 27.6394 23.98C27.3594 24.4067 27.2127 24.9333 27.1994 25.56H25.7194C25.7727 24.4267 26.106 23.5067 26.7194 22.8C27.5194 21.8933 28.5727 21.44 29.8794 21.44C31.066 21.44 32.046 21.82 32.8194 22.58C33.606 23.3267 33.9994 24.2733 33.9994 25.42C33.9994 26.3133 33.646 27.2667 32.9394 28.28C32.5794 28.7733 31.9727 29.5133 31.1194 30.5L28.3394 33.64H33.9794V35ZM37.3066 34.9C37.1066 34.7 37.0066 34.4667 37.0066 34.2C37.0066 33.9333 37.1066 33.7 37.3066 33.5C37.5066 33.3 37.7399 33.2 38.0066 33.2C38.2732 33.2 38.5066 33.3 38.7066 33.5C38.9066 33.7 39.0066 33.9333 39.0066 34.2C39.0066 34.4667 38.9066 34.7 38.7066 34.9C38.5066 35.1 38.2732 35.2 38.0066 35.2C37.7399 35.2 37.5066 35.1 37.3066 34.9ZM45.5973 35V23.06H43.3573L44.1373 21.66H47.0773V35H45.5973ZM58.7245 21.66V23.02H54.4445L53.5845 25.9C53.8112 25.8467 54.0912 25.82 54.4245 25.82C55.7445 25.82 56.8045 26.26 57.6045 27.14C58.4179 28.02 58.8245 29.12 58.8245 30.44C58.8245 31.88 58.3512 33.04 57.4045 33.92C56.4712 34.8 55.3245 35.24 53.9645 35.24C52.8179 35.24 51.8245 34.8933 50.9845 34.2C50.5045 33.7867 50.1179 33.3333 49.8245 32.84L51.0045 32C51.2045 32.4 51.5045 32.76 51.9045 33.08C52.5579 33.6133 53.2779 33.88 54.0645 33.88C54.9979 33.88 55.7779 33.5467 56.4045 32.88C57.0312 32.2133 57.3445 31.4067 57.3445 30.46C57.3445 29.5 57.0312 28.7133 56.4045 28.1C55.7912 27.4867 55.0112 27.18 54.0645 27.18C53.2245 27.18 52.3645 27.4867 51.4845 28.1L53.4245 21.66H58.7245ZM62.0917 34.9C61.8917 34.7 61.7917 34.4667 61.7917 34.2C61.7917 33.9333 61.8917 33.7 62.0917 33.5C62.2917 33.3 62.5251 33.2 62.7917 33.2C63.0584 33.2 63.2917 33.3 63.4917 33.5C63.6917 33.7 63.7917 33.9333 63.7917 34.2C63.7917 34.4667 63.6917 34.7 63.4917 34.9C63.2917 35.1 63.0584 35.2 62.7917 35.2C62.5251 35.2 62.2917 35.1 62.0917 34.9ZM74.6825 35H66.0625L70.9225 29.38C71.7492 28.4067 72.2692 27.76 72.4825 27.44C72.9758 26.7333 73.2225 26.0533 73.2225 25.4C73.2225 24.64 72.9758 24.02 72.4825 23.54C71.9892 23.0467 71.3492 22.8 70.5625 22.8C69.6025 22.8 68.8625 23.1933 68.3425 23.98C68.0625 24.4067 67.9158 24.9333 67.9025 25.56H66.4225C66.4758 24.4267 66.8092 23.5067 67.4225 22.8C68.2225 21.8933 69.2758 21.44 70.5825 21.44C71.7692 21.44 72.7492 21.82 73.5225 22.58C74.3092 23.3267 74.7025 24.2733 74.7025 25.42C74.7025 26.3133 74.3492 27.2667 73.6425 28.28C73.2825 28.7733 72.6758 29.5133 71.8225 30.5L69.0425 33.64H74.6825V35ZM85.0219 33.24C84.1019 34.5733 82.9619 35.24 81.6019 35.24C80.2419 35.24 79.1019 34.5733 78.1819 33.24C77.2885 31.9467 76.8419 30.3133 76.8419 28.34C76.8419 26.3667 77.2885 24.7333 78.1819 23.44C79.1019 22.1067 80.2419 21.44 81.6019 21.44C82.9619 21.44 84.1019 22.1067 85.0219 23.44C85.9152 24.7333 86.3619 26.3667 86.3619 28.34C86.3619 30.3133 85.9152 31.9467 85.0219 33.24ZM83.9019 24.28C83.2885 23.2933 82.5219 22.8 81.6019 22.8C80.6819 22.8 79.9152 23.2933 79.3019 24.28C78.6485 25.32 78.3219 26.6733 78.3219 28.34C78.3219 30.0067 78.6485 31.36 79.3019 32.4C79.9152 33.3867 80.6819 33.88 81.6019 33.88C82.5219 33.88 83.2885 33.3867 83.9019 32.4C84.5552 31.36 84.8819 30.0067 84.8819 28.34C84.8819 26.6733 84.5552 25.32 83.9019 24.28ZM96.9091 35H88.2891L93.1491 29.38C93.9757 28.4067 94.4957 27.76 94.7091 27.44C95.2024 26.7333 95.4491 26.0533 95.4491 25.4C95.4491 24.64 95.2024 24.02 94.7091 23.54C94.2157 23.0467 93.5757 22.8 92.7891 22.8C91.8291 22.8 91.0891 23.1933 90.5691 23.98C90.2891 24.4067 90.1424 24.9333 90.1291 25.56H88.6491C88.7024 24.4267 89.0357 23.5067 89.6491 22.8C90.4491 21.8933 91.5024 21.44 92.8091 21.44C93.9957 21.44 94.9757 21.82 95.7491 22.58C96.5357 23.3267 96.9291 24.2733 96.9291 25.42C96.9291 26.3133 96.5757 27.2667 95.8691 28.28C95.5091 28.7733 94.9024 29.5133 94.0491 30.5L91.2691 33.64H96.9091V35Z" fill="#6C7383"/>
<rect x="163" y="20" width="18" height="18" rx="2" fill="#6C7383" stroke="#6C7383" stroke-width="2"/>
<path d="M168 17L168 22" stroke="#6C7383" stroke-width="2" stroke-linecap="round"/>
<path d="M176 17L176 22" stroke="#6C7383" stroke-width="2" stroke-linecap="round"/>
<path d="M162 26H182" stroke="white" stroke-width="2" stroke-linecap="round"/>
</svg>
