<svg width="416" height="174" viewBox="0 0 416 174" fill="none" xmlns="http://www.w3.org/2000/svg">
<rect width="416" height="174" rx="24" fill="#F5F6F8"/>
<rect x="108.5" y="36.5" width="199" height="55" rx="11.5" fill="white"/>
<rect x="108.5" y="36.5" width="199" height="55" rx="11.5" stroke="#6C7383"/>
<path d="M129.32 71V59.06H127.08L127.86 57.66H130.8V71H129.32ZM141.979 71H133.359L138.219 65.38C139.046 64.4067 139.566 63.76 139.779 63.44C140.273 62.7333 140.519 62.0533 140.519 61.4C140.519 60.64 140.273 60.02 139.779 59.54C139.286 59.0467 138.646 58.8 137.859 58.8C136.899 58.8 136.159 59.1933 135.639 59.98C135.359 60.4067 135.213 60.9333 135.199 61.56H133.719C133.773 60.4267 134.106 59.5067 134.719 58.8C135.519 57.8933 136.573 57.44 137.879 57.44C139.066 57.44 140.046 57.82 140.819 58.58C141.606 59.3267 141.999 60.2733 141.999 61.42C141.999 62.3133 141.646 63.2667 140.939 64.28C140.579 64.7733 139.973 65.5133 139.119 66.5L136.339 69.64H141.979V71ZM145.307 70.9C145.107 70.7 145.007 70.4667 145.007 70.2C145.007 69.9333 145.107 69.7 145.307 69.5C145.507 69.3 145.74 69.2 146.007 69.2C146.273 69.2 146.507 69.3 146.707 69.5C146.907 69.7 147.007 69.9333 147.007 70.2C147.007 70.4667 146.907 70.7 146.707 70.9C146.507 71.1 146.273 71.2 146.007 71.2C145.74 71.2 145.507 71.1 145.307 70.9ZM153.597 71V59.06H151.357L152.137 57.66H155.077V71H153.597ZM166.257 71H157.637L162.497 65.38C163.323 64.4067 163.843 63.76 164.057 63.44C164.55 62.7333 164.797 62.0533 164.797 61.4C164.797 60.64 164.55 60.02 164.057 59.54C163.563 59.0467 162.923 58.8 162.137 58.8C161.177 58.8 160.437 59.1933 159.917 59.98C159.637 60.4067 159.49 60.9333 159.477 61.56H157.997C158.05 60.4267 158.383 59.5067 158.997 58.8C159.797 57.8933 160.85 57.44 162.157 57.44C163.343 57.44 164.323 57.82 165.097 58.58C165.883 59.3267 166.277 60.2733 166.277 61.42C166.277 62.3133 165.923 63.2667 165.217 64.28C164.857 64.7733 164.25 65.5133 163.397 66.5L160.617 69.64H166.257V71ZM169.584 70.9C169.384 70.7 169.284 70.4667 169.284 70.2C169.284 69.9333 169.384 69.7 169.584 69.5C169.784 69.3 170.017 69.2 170.284 69.2C170.551 69.2 170.784 69.3 170.984 69.5C171.184 69.7 171.284 69.9333 171.284 70.2C171.284 70.4667 171.184 70.7 170.984 70.9C170.784 71.1 170.551 71.2 170.284 71.2C170.017 71.2 169.784 71.1 169.584 70.9ZM182.175 71H173.555L178.415 65.38C179.241 64.4067 179.761 63.76 179.975 63.44C180.468 62.7333 180.715 62.0533 180.715 61.4C180.715 60.64 180.468 60.02 179.975 59.54C179.481 59.0467 178.841 58.8 178.055 58.8C177.095 58.8 176.355 59.1933 175.835 59.98C175.555 60.4067 175.408 60.9333 175.395 61.56H173.915C173.968 60.4267 174.301 59.5067 174.915 58.8C175.715 57.8933 176.768 57.44 178.075 57.44C179.261 57.44 180.241 57.82 181.015 58.58C181.801 59.3267 182.195 60.2733 182.195 61.42C182.195 62.3133 181.841 63.2667 181.135 64.28C180.775 64.7733 180.168 65.5133 179.315 66.5L176.535 69.64H182.175V71ZM192.514 69.24C191.594 70.5733 190.454 71.24 189.094 71.24C187.734 71.24 186.594 70.5733 185.674 69.24C184.781 67.9467 184.334 66.3133 184.334 64.34C184.334 62.3667 184.781 60.7333 185.674 59.44C186.594 58.1067 187.734 57.44 189.094 57.44C190.454 57.44 191.594 58.1067 192.514 59.44C193.407 60.7333 193.854 62.3667 193.854 64.34C193.854 66.3133 193.407 67.9467 192.514 69.24ZM191.394 60.28C190.781 59.2933 190.014 58.8 189.094 58.8C188.174 58.8 187.407 59.2933 186.794 60.28C186.141 61.32 185.814 62.6733 185.814 64.34C185.814 66.0067 186.141 67.36 186.794 68.4C187.407 69.3867 188.174 69.88 189.094 69.88C190.014 69.88 190.781 69.3867 191.394 68.4C192.047 67.36 192.374 66.0067 192.374 64.34C192.374 62.6733 192.047 61.32 191.394 60.28ZM204.401 71H195.781L200.641 65.38C201.468 64.4067 201.988 63.76 202.201 63.44C202.695 62.7333 202.941 62.0533 202.941 61.4C202.941 60.64 202.695 60.02 202.201 59.54C201.708 59.0467 201.068 58.8 200.281 58.8C199.321 58.8 198.581 59.1933 198.061 59.98C197.781 60.4067 197.635 60.9333 197.621 61.56H196.141C196.195 60.4267 196.528 59.5067 197.141 58.8C197.941 57.8933 198.995 57.44 200.301 57.44C201.488 57.44 202.468 57.82 203.241 58.58C204.028 59.3267 204.421 60.2733 204.421 61.42C204.421 62.3133 204.068 63.2667 203.361 64.28C203.001 64.7733 202.395 65.5133 201.541 66.5L198.761 69.64H204.401V71ZM208.587 60.96H207.107C207.147 60.2533 207.353 59.6 207.727 59C208.393 57.96 209.427 57.44 210.827 57.44C212.013 57.44 212.933 57.7933 213.587 58.5C214.253 59.2067 214.587 60.0533 214.587 61.04C214.587 62.44 214.013 63.4267 212.867 64C213.04 64.0667 213.207 64.16 213.367 64.28C213.54 64.3867 213.747 64.56 213.987 64.8C214.227 65.04 214.42 65.3733 214.567 65.8C214.713 66.2133 214.787 66.6867 214.787 67.22C214.787 68.4333 214.393 69.4067 213.607 70.14C212.833 70.8733 211.86 71.24 210.687 71.24C209.9 71.24 209.167 71.06 208.487 70.7C207.807 70.3267 207.3 69.74 206.967 68.94C206.793 68.5133 206.693 68.0467 206.667 67.54H208.147C208.213 68.0867 208.373 68.5333 208.627 68.88C209.08 69.5467 209.767 69.88 210.687 69.88C211.42 69.88 212.04 69.62 212.547 69.1C213.053 68.5667 213.307 67.9267 213.307 67.18C213.307 66.0867 212.867 65.34 211.987 64.94C211.547 64.7267 211.04 64.6333 210.467 64.66V63.34C211.04 63.38 211.547 63.2867 211.987 63.06C212.733 62.6733 213.107 62.0133 213.107 61.08C213.107 60.4267 212.92 59.8867 212.547 59.46C212.173 59.02 211.6 58.8 210.827 58.8C210.08 58.8 209.507 59.0533 209.107 59.56C208.8 59.96 208.627 60.4267 208.587 60.96Z" fill="#6C7383"/>
<rect x="271" y="56" width="18" height="18" rx="2" fill="#6C7383" stroke="#6C7383" stroke-width="2"/>
<path d="M276 53L276 58" stroke="#6C7383" stroke-width="2" stroke-linecap="round"/>
<path d="M284 53L284 58" stroke="#6C7383" stroke-width="2" stroke-linecap="round"/>
<path d="M270 62H290" stroke="white" stroke-width="2" stroke-linecap="round"/>
<path d="M109.72 107.66H112.12C113.453 107.66 114.473 107.94 115.18 108.5C115.98 109.113 116.38 110.033 116.38 111.26C116.38 112.407 115.94 113.28 115.06 113.88C115.913 114.093 116.547 114.527 116.96 115.18C117.387 115.82 117.6 116.507 117.6 117.24C117.6 117.84 117.467 118.393 117.2 118.9C116.947 119.407 116.627 119.813 116.24 120.12C115.493 120.707 114.427 121 113.04 121H109.72V107.66ZM111.2 109.06V113.52H112.32C112.52 113.52 112.713 113.513 112.9 113.5C113.087 113.473 113.307 113.42 113.56 113.34C113.827 113.247 114.053 113.127 114.24 112.98C114.44 112.833 114.607 112.613 114.74 112.32C114.873 112.027 114.94 111.687 114.94 111.3C114.94 110.887 114.86 110.533 114.7 110.24C114.54 109.933 114.36 109.707 114.16 109.56C113.96 109.413 113.72 109.3 113.44 109.22C113.16 109.14 112.947 109.093 112.8 109.08C112.653 109.067 112.507 109.06 112.36 109.06H111.2ZM111.2 114.84V119.6H112.9C113.98 119.6 114.76 119.413 115.24 119.04C115.827 118.613 116.12 118 116.12 117.2C116.12 116.307 115.74 115.653 114.98 115.24C114.5 114.973 113.747 114.84 112.72 114.84H111.2ZM124.405 121V117.74C123.619 117.86 122.965 117.92 122.445 117.92C121.539 117.92 120.865 117.72 120.425 117.32C119.959 116.907 119.725 116.227 119.725 115.28V112.7H121.165V115.08C121.165 115.533 121.225 115.86 121.345 116.06C121.532 116.42 121.952 116.6 122.605 116.6C123.192 116.6 123.792 116.54 124.405 116.42V112.7H125.845V121H124.405ZM134.719 118.22L135.919 118.88C135.639 119.413 135.299 119.86 134.899 120.22C134.139 120.9 133.219 121.24 132.139 121.24C131.019 121.24 130.053 120.88 129.239 120.16C128.439 119.427 128.039 118.34 128.039 116.9C128.039 115.633 128.399 114.587 129.119 113.76C129.853 112.92 130.833 112.5 132.059 112.5C133.446 112.5 134.493 113.007 135.199 114.02C135.759 114.82 136.019 115.86 135.979 117.14H129.519C129.533 117.98 129.793 118.66 130.299 119.18C130.806 119.7 131.426 119.96 132.159 119.96C132.813 119.96 133.379 119.76 133.859 119.36C134.233 119.04 134.519 118.66 134.719 118.22ZM129.619 115.94H134.499C134.379 115.287 134.093 114.767 133.639 114.38C133.199 113.98 132.673 113.78 132.059 113.78C131.459 113.78 130.926 113.987 130.459 114.4C130.006 114.8 129.726 115.313 129.619 115.94ZM139.628 119.84V125.6H138.188V112.7H139.628V113.86C140.361 112.953 141.308 112.5 142.468 112.5C143.708 112.5 144.688 112.94 145.408 113.82C146.141 114.687 146.508 115.713 146.508 116.9C146.508 118.1 146.148 119.127 145.428 119.98C144.708 120.82 143.741 121.24 142.528 121.24C141.315 121.24 140.348 120.773 139.628 119.84ZM142.328 119.96C143.141 119.96 143.795 119.667 144.288 119.08C144.781 118.48 145.028 117.753 145.028 116.9C145.028 115.94 144.755 115.18 144.208 114.62C143.661 114.06 143.028 113.78 142.308 113.78C141.588 113.78 140.948 114.06 140.388 114.62C139.828 115.18 139.548 115.933 139.548 116.88C139.548 117.747 139.801 118.48 140.308 119.08C140.828 119.667 141.501 119.96 142.328 119.96ZM155.075 113.88V112.7H156.515V121H155.075V119.84C154.355 120.773 153.409 121.24 152.235 121.24C151.115 121.24 150.162 120.853 149.375 120.08C148.589 119.307 148.195 118.227 148.195 116.84C148.195 115.48 148.582 114.42 149.355 113.66C150.142 112.887 151.102 112.5 152.235 112.5C153.435 112.5 154.382 112.96 155.075 113.88ZM152.395 113.78C151.635 113.78 150.989 114.053 150.455 114.6C149.935 115.133 149.675 115.88 149.675 116.84C149.675 117.76 149.915 118.513 150.395 119.1C150.889 119.673 151.555 119.96 152.395 119.96C153.235 119.96 153.902 119.66 154.395 119.06C154.902 118.46 155.155 117.727 155.155 116.86C155.155 115.873 154.875 115.113 154.315 114.58C153.755 114.047 153.115 113.78 152.395 113.78Z" fill="#0B1530"/>
<path d="M108 130H158" stroke="#0B1530" stroke-width="2" stroke-linecap="round"/>
<path d="M181.92 108.76V110.6C181.387 110.067 180.807 109.653 180.18 109.36C179.42 109.013 178.653 108.84 177.88 108.84C176.347 108.84 175.067 109.38 174.04 110.46C173.027 111.527 172.52 112.84 172.52 114.4C172.52 116.08 173.073 117.407 174.18 118.38C175.3 119.353 176.54 119.84 177.9 119.84C178.753 119.84 179.58 119.633 180.38 119.22C180.94 118.94 181.453 118.567 181.92 118.1V119.94C180.707 120.807 179.367 121.24 177.9 121.24C175.927 121.24 174.28 120.58 172.96 119.26C171.653 117.94 171 116.313 171 114.38C171 112.393 171.66 110.74 172.98 109.42C174.313 108.1 175.98 107.44 177.98 107.44C179.447 107.44 180.76 107.88 181.92 108.76ZM190.45 118.22L191.65 118.88C191.37 119.413 191.03 119.86 190.63 120.22C189.87 120.9 188.95 121.24 187.87 121.24C186.75 121.24 185.783 120.88 184.97 120.16C184.17 119.427 183.77 118.34 183.77 116.9C183.77 115.633 184.13 114.587 184.85 113.76C185.583 112.92 186.563 112.5 187.79 112.5C189.176 112.5 190.223 113.007 190.93 114.02C191.49 114.82 191.75 115.86 191.71 117.14H185.25C185.263 117.98 185.523 118.66 186.03 119.18C186.536 119.7 187.156 119.96 187.89 119.96C188.543 119.96 189.11 119.76 189.59 119.36C189.963 119.04 190.25 118.66 190.45 118.22ZM185.35 115.94H190.23C190.11 115.287 189.823 114.767 189.37 114.38C188.93 113.98 188.403 113.78 187.79 113.78C187.19 113.78 186.656 113.987 186.19 114.4C185.736 114.8 185.456 115.313 185.35 115.94ZM193.919 121V112.7H198.839V114.02H195.359V121H193.919ZM206.876 120C206.049 120.827 205.003 121.24 203.736 121.24C202.469 121.24 201.416 120.827 200.576 120C199.749 119.173 199.336 118.133 199.336 116.88C199.336 115.613 199.749 114.567 200.576 113.74C201.416 112.913 202.469 112.5 203.736 112.5C205.003 112.5 206.049 112.913 206.876 113.74C207.716 114.567 208.136 115.613 208.136 116.88C208.136 118.133 207.716 119.173 206.876 120ZM205.796 114.6C205.236 114.053 204.549 113.78 203.736 113.78C202.923 113.78 202.229 114.06 201.656 114.62C201.096 115.167 200.816 115.92 200.816 116.88C200.816 117.84 201.103 118.593 201.676 119.14C202.249 119.687 202.936 119.96 203.736 119.96C204.536 119.96 205.223 119.687 205.796 119.14C206.369 118.593 206.656 117.84 206.656 116.88C206.656 115.907 206.369 115.147 205.796 114.6ZM210.944 112.7H216.784V119.68H218.024V123.2H216.704V121H210.384V123.2H209.064V119.68C209.758 119.667 210.271 119.307 210.604 118.6C210.831 118.133 210.944 117.4 210.944 116.4V112.7ZM215.344 119.68V114.02H212.384V117.14C212.384 118.247 212.051 119.093 211.384 119.68H215.344ZM219.544 121V112.7H220.984V116.1H224.904V112.7H226.344V121H224.904V117.42H220.984V121H219.544ZM228.095 121L230.675 117.58C230.595 117.58 230.482 117.567 230.335 117.54C230.202 117.513 230.002 117.447 229.735 117.34C229.469 117.233 229.249 117.093 229.075 116.92C228.635 116.507 228.415 115.953 228.415 115.26C228.415 114.473 228.662 113.853 229.155 113.4C229.649 112.933 230.462 112.7 231.595 112.7H234.495V121H233.055V117.66H232.175L229.815 121H228.095ZM233.055 116.46V113.98H231.715C231.089 113.98 230.655 114.053 230.415 114.2C230.069 114.427 229.895 114.767 229.895 115.22C229.895 115.673 230.069 116.007 230.415 116.22C230.669 116.38 231.095 116.46 231.695 116.46H233.055Z" fill="#0B1530"/>
<path d="M170 130H236" stroke="#0B1530" stroke-width="2" stroke-linecap="round"/>
<path d="M251.14 110.28L250 109.38C250.867 108.087 252.14 107.44 253.82 107.44C255.02 107.44 255.96 107.753 256.64 108.38C257.333 109.007 257.68 109.827 257.68 110.84C257.68 111.493 257.507 112.067 257.16 112.56C256.827 113.04 256.387 113.407 255.84 113.66C256.707 113.86 257.367 114.273 257.82 114.9C258.287 115.527 258.52 116.26 258.52 117.1C258.52 118.487 257.967 119.573 256.86 120.36C256.007 120.947 254.993 121.24 253.82 121.24C252.607 121.24 251.6 120.933 250.8 120.32C250 119.707 249.4 118.947 249 118.04L250.44 117.4C250.707 118.147 251.147 118.74 251.76 119.18C252.373 119.62 253.08 119.84 253.88 119.84C254.693 119.84 255.373 119.653 255.92 119.28C256.64 118.773 257 118.06 257 117.14C257 115.393 255.813 114.52 253.44 114.52H252.24V113.12H253.44C254.32 113.12 254.993 112.907 255.46 112.48C255.927 112.053 256.16 111.513 256.16 110.86C256.16 110.287 255.98 109.82 255.62 109.46C255.22 109.047 254.62 108.84 253.82 108.84C252.7 108.84 251.807 109.32 251.14 110.28ZM267.243 113.88V112.7H268.683V121H267.243V119.84C266.523 120.773 265.577 121.24 264.403 121.24C263.283 121.24 262.33 120.853 261.543 120.08C260.757 119.307 260.363 118.227 260.363 116.84C260.363 115.48 260.75 114.42 261.523 113.66C262.31 112.887 263.27 112.5 264.403 112.5C265.603 112.5 266.55 112.96 267.243 113.88ZM264.563 113.78C263.803 113.78 263.157 114.053 262.623 114.6C262.103 115.133 261.843 115.88 261.843 116.84C261.843 117.76 262.083 118.513 262.563 119.1C263.057 119.673 263.723 119.96 264.563 119.96C265.403 119.96 266.07 119.66 266.563 119.06C267.07 118.46 267.323 117.727 267.323 116.86C267.323 115.873 267.043 115.113 266.483 114.58C265.923 114.047 265.283 113.78 264.563 113.78ZM271.411 112.7H274.551C275.311 112.7 275.891 112.86 276.291 113.18C276.771 113.567 277.011 114.087 277.011 114.74C277.011 115.46 276.711 116.013 276.111 116.4C276.524 116.507 276.871 116.693 277.151 116.96C277.591 117.387 277.811 117.92 277.811 118.56C277.811 119.36 277.524 119.987 276.951 120.44C276.457 120.813 275.804 121 274.991 121H271.411V112.7ZM272.851 116.08H274.371C274.757 116.08 275.064 116 275.291 115.84C275.557 115.64 275.691 115.353 275.691 114.98C275.691 114.647 275.557 114.38 275.291 114.18C275.091 114.047 274.704 113.98 274.131 113.98H272.851V116.08ZM272.851 119.72H274.631C275.244 119.72 275.677 119.627 275.931 119.44C276.251 119.2 276.411 118.893 276.411 118.52C276.411 118.12 276.271 117.807 275.991 117.58C275.737 117.38 275.304 117.28 274.691 117.28H272.851V119.72ZM285.445 114.02H282.845V121H281.405V114.02H278.805V112.7H285.445V114.02ZM288.398 119.84V125.6H286.958V112.7H288.398V113.86C289.131 112.953 290.078 112.5 291.238 112.5C292.478 112.5 293.458 112.94 294.178 113.82C294.911 114.687 295.278 115.713 295.278 116.9C295.278 118.1 294.918 119.127 294.198 119.98C293.478 120.82 292.511 121.24 291.298 121.24C290.084 121.24 289.118 120.773 288.398 119.84ZM291.098 119.96C291.911 119.96 292.564 119.667 293.058 119.08C293.551 118.48 293.798 117.753 293.798 116.9C293.798 115.94 293.524 115.18 292.978 114.62C292.431 114.06 291.798 113.78 291.078 113.78C290.358 113.78 289.718 114.06 289.158 114.62C288.598 115.18 288.318 115.933 288.318 116.88C288.318 117.747 288.571 118.48 289.078 119.08C289.598 119.667 290.271 119.96 291.098 119.96ZM303.845 113.88V112.7H305.285V121H303.845V119.84C303.125 120.773 302.178 121.24 301.005 121.24C299.885 121.24 298.932 120.853 298.145 120.08C297.358 119.307 296.965 118.227 296.965 116.84C296.965 115.48 297.352 114.42 298.125 113.66C298.912 112.887 299.872 112.5 301.005 112.5C302.205 112.5 303.152 112.96 303.845 113.88ZM301.165 113.78C300.405 113.78 299.758 114.053 299.225 114.6C298.705 115.133 298.445 115.88 298.445 116.84C298.445 117.76 298.685 118.513 299.165 119.1C299.658 119.673 300.325 119.96 301.165 119.96C302.005 119.96 302.672 119.66 303.165 119.06C303.672 118.46 303.925 117.727 303.925 116.86C303.925 115.873 303.645 115.113 303.085 114.58C302.525 114.047 301.885 113.78 301.165 113.78Z" fill="#0B1530"/>
<path d="M248 130H307" stroke="#0B1530" stroke-width="2" stroke-linecap="round"/>
</svg>
