<svg width="409" height="116" viewBox="0 0 409 116" fill="none" xmlns="http://www.w3.org/2000/svg">
<rect width="409" height="116" rx="24" fill="#F5F6F8"/>
<g filter="url(#filter0_d_983_3016)">
<rect x="70" y="32" width="268" height="44" rx="8" fill="white"/>
<path d="M91.1341 46.75C91.519 46.0833 92.4812 46.0833 92.8661 46.75L99.7943 58.75C100.179 59.4167 99.6981 60.25 98.9283 60.25H85.0719C84.3021 60.25 83.821 59.4167 84.2059 58.75L91.1341 46.75Z" fill="#FF8A36"/>
<circle cx="92.0004" cy="57.85" r="0.5" fill="white" stroke="white" stroke-width="0.2"/>
<path d="M92 56.0488V53.0488V50.0488" stroke="white" stroke-linecap="round"/>
<path d="M108.352 49.72C109.408 48.664 110.731 48.136 112.32 48.136C113.909 48.136 115.232 48.664 116.288 49.72C117.344 50.776 117.872 52.0933 117.872 53.672C117.872 55.2507 117.344 56.568 116.288 57.624C115.232 58.68 113.909 59.208 112.32 59.208C110.731 59.208 109.408 58.68 108.352 57.624C107.296 56.568 106.768 55.2507 106.768 53.672C106.768 52.0933 107.296 50.776 108.352 49.72ZM109.504 56.584C110.24 57.3307 111.179 57.704 112.32 57.704C113.461 57.704 114.4 57.3307 115.136 56.584C115.872 55.8267 116.24 54.856 116.24 53.672C116.24 52.488 115.872 51.5227 115.136 50.776C114.4 50.0187 113.461 49.64 112.32 49.64C111.179 49.64 110.24 50.0187 109.504 50.776C108.768 51.5227 108.4 52.488 108.4 53.672C108.4 54.856 108.768 55.8267 109.504 56.584ZM124.849 52.568V54.328C124.283 53.7733 123.649 53.496 122.945 53.496C122.347 53.496 121.851 53.6933 121.457 54.088C121.073 54.472 120.881 54.9893 120.881 55.64C120.881 56.312 121.083 56.8507 121.489 57.256C121.873 57.6187 122.347 57.8 122.913 57.8C123.691 57.8 124.337 57.512 124.849 56.936V58.68C124.283 59.032 123.601 59.208 122.801 59.208C121.723 59.208 120.87 58.8773 120.241 58.216C119.601 57.5547 119.281 56.712 119.281 55.688C119.281 54.632 119.622 53.7627 120.305 53.08C120.966 52.4187 121.867 52.088 123.009 52.088C123.659 52.088 124.273 52.248 124.849 52.568ZM131.148 53.704H129.18V59H127.612V53.704H125.644V52.264H131.148V53.704ZM137.029 53.048V52.264H138.597V59H137.029V58.296C136.507 58.904 135.835 59.208 135.013 59.208C134.021 59.208 133.227 58.856 132.629 58.152C132.043 57.448 131.749 56.6053 131.749 55.624C131.749 54.5573 132.064 53.704 132.693 53.064C133.333 52.4133 134.112 52.088 135.029 52.088C135.872 52.088 136.539 52.408 137.029 53.048ZM135.221 53.496C134.667 53.496 134.213 53.704 133.861 54.12C133.52 54.536 133.349 55.048 133.349 55.656C133.349 56.2533 133.52 56.76 133.861 57.176C134.213 57.592 134.667 57.8 135.221 57.8C135.755 57.8 136.203 57.6133 136.565 57.24C136.939 56.8667 137.125 56.344 137.125 55.672C137.125 54.9787 136.939 54.4453 136.565 54.072C136.203 53.688 135.755 53.496 135.221 53.496ZM140.586 52.264H143.226C143.898 52.264 144.41 52.3973 144.762 52.664C145.178 52.9947 145.386 53.4267 145.386 53.96C145.386 54.568 145.119 55.0053 144.586 55.272C144.927 55.336 145.231 55.4853 145.498 55.72C145.85 56.04 146.026 56.472 146.026 57.016C146.026 57.6667 145.78 58.1787 145.29 58.552C144.884 58.8507 144.367 59 143.738 59H140.586V52.264ZM142.154 54.888H142.954C143.231 54.888 143.439 54.84 143.578 54.744C143.78 54.616 143.882 54.4347 143.882 54.2C143.882 53.976 143.791 53.8 143.61 53.672C143.482 53.5867 143.252 53.544 142.922 53.544H142.154V54.888ZM142.154 57.72H143.322C143.674 57.72 143.946 57.656 144.138 57.528C144.351 57.3893 144.458 57.192 144.458 56.936C144.458 56.6587 144.356 56.4613 144.154 56.344C143.972 56.2267 143.711 56.168 143.37 56.168H142.154V57.72ZM147.664 52.264H149.232V56.088L153.84 51.656V59H152.272V55.08L147.664 59.512V52.264ZM160.46 53.704H158.492V59H156.924V53.704H154.956V52.264H160.46V53.704ZM161.586 59V52.264H163.154V54.648H164.05C164.338 54.648 164.572 54.6587 164.754 54.68C164.935 54.6907 165.154 54.7493 165.41 54.856C165.666 54.9627 165.89 55.1227 166.082 55.336C166.434 55.7307 166.61 56.2213 166.61 56.808C166.61 57.48 166.407 58.0187 166.002 58.424C165.82 58.6053 165.602 58.744 165.346 58.84C165.1 58.9253 164.892 58.9733 164.722 58.984C164.562 58.9947 164.332 59 164.034 59H161.586ZM163.154 57.656H163.874C164.258 57.656 164.53 57.608 164.69 57.512C164.924 57.3413 165.042 57.112 165.042 56.824C165.042 56.5253 164.93 56.3013 164.706 56.152C164.535 56.0453 164.263 55.992 163.89 55.992H163.154V57.656ZM171.726 52.264H177.582V59H176.014V53.704H173.294V59H171.726V52.264ZM180.242 53.096C180.935 52.424 181.794 52.088 182.818 52.088C183.842 52.088 184.695 52.424 185.378 53.096C186.071 53.7573 186.418 54.6053 186.418 55.64C186.418 56.664 186.071 57.5173 185.378 58.2C184.695 58.872 183.842 59.208 182.818 59.208C181.794 59.208 180.935 58.872 180.242 58.2C179.559 57.5173 179.218 56.664 179.218 55.64C179.218 54.6053 179.559 53.7573 180.242 53.096ZM181.362 57.224C181.725 57.608 182.21 57.8 182.818 57.8C183.426 57.8 183.911 57.608 184.274 57.224C184.637 56.8293 184.818 56.3067 184.818 55.656C184.818 54.9413 184.621 54.4027 184.226 54.04C183.842 53.6773 183.373 53.496 182.818 53.496C182.263 53.496 181.789 53.6773 181.394 54.04C181.01 54.4027 180.818 54.9413 180.818 55.656C180.818 56.3067 180.999 56.8293 181.362 57.224ZM193.591 52.264V59H192.023V53.704H190.039V56.376C190.039 57.208 189.825 57.8533 189.399 58.312C188.855 58.92 188.119 59.1493 187.191 59V57.56C187.649 57.6667 188.017 57.5653 188.295 57.256C188.455 57.064 188.535 56.7707 188.535 56.376V52.264H193.591ZM194.706 59L196.818 56.328C196.402 56.264 196.045 56.0933 195.746 55.816C195.373 55.4533 195.186 54.9893 195.186 54.424C195.186 53.784 195.394 53.2667 195.81 52.872C196.237 52.4667 196.887 52.264 197.762 52.264H200.274V59H198.706V56.52H198.386L196.546 59H194.706ZM198.706 55.24V53.608H197.794C197.421 53.608 197.149 53.656 196.978 53.752C196.722 53.912 196.594 54.136 196.594 54.424C196.594 54.712 196.701 54.9307 196.914 55.08C197.074 55.1867 197.362 55.24 197.778 55.24H198.706ZM205.992 59V52.264H207.56V54.76H210.344V52.264H211.912V59H210.344V56.2H207.56V59H205.992ZM218.618 56.728L219.93 57.464C219.632 57.9973 219.253 58.408 218.794 58.696C218.272 59.0373 217.61 59.208 216.81 59.208C215.872 59.208 215.114 58.92 214.538 58.344C213.877 57.6827 213.546 56.824 213.546 55.768C213.546 54.6587 213.904 53.736 214.618 53C215.226 52.392 215.978 52.088 216.874 52.088C217.749 52.088 218.469 52.3813 219.034 52.968C219.664 53.6187 219.978 54.568 219.978 55.816V56.008H215.146C215.189 56.5733 215.381 57.0267 215.722 57.368C216.01 57.656 216.41 57.8 216.922 57.8C217.338 57.8 217.696 57.688 217.994 57.464C218.24 57.272 218.448 57.0267 218.618 56.728ZM215.258 54.728H218.378C218.314 54.3547 218.154 54.0507 217.898 53.816C217.621 53.56 217.269 53.432 216.842 53.432C216.394 53.432 216.026 53.576 215.738 53.864C215.504 54.0773 215.344 54.3653 215.258 54.728ZM222.529 54.008L221.521 53.128C221.777 52.8187 222.118 52.568 222.545 52.376C222.993 52.184 223.521 52.088 224.129 52.088C224.833 52.088 225.404 52.2427 225.841 52.552C226.31 52.8933 226.545 53.352 226.545 53.928C226.545 54.3013 226.449 54.6107 226.257 54.856C226.097 55.0693 225.884 55.2293 225.617 55.336C226.022 55.4213 226.348 55.5867 226.593 55.832C226.881 56.12 227.025 56.4933 227.025 56.952C227.025 57.56 226.833 58.056 226.449 58.44C225.937 58.952 225.148 59.208 224.081 59.208C223.366 59.208 222.78 59.0747 222.321 58.808C221.841 58.5307 221.489 58.1307 221.265 57.608L222.513 56.968C222.662 57.288 222.86 57.5227 223.105 57.672C223.372 57.8427 223.708 57.928 224.113 57.928C224.604 57.928 224.961 57.816 225.185 57.592C225.345 57.4107 225.425 57.2133 225.425 57C225.425 56.776 225.356 56.5947 225.217 56.456C225.036 56.264 224.662 56.168 224.097 56.168H223.393V54.888H223.985C224.326 54.888 224.582 54.8293 224.753 54.712C224.945 54.5627 225.041 54.3653 225.041 54.12C225.041 53.864 224.945 53.672 224.753 53.544C224.593 53.4267 224.342 53.368 224.001 53.368C223.681 53.368 223.388 53.432 223.121 53.56C222.897 53.6667 222.7 53.816 222.529 54.008ZM233.592 53.048V52.264H235.16V59H233.592V58.296C233.069 58.904 232.397 59.208 231.576 59.208C230.584 59.208 229.789 58.856 229.192 58.152C228.605 57.448 228.312 56.6053 228.312 55.624C228.312 54.5573 228.627 53.704 229.256 53.064C229.896 52.4133 230.675 52.088 231.592 52.088C232.435 52.088 233.101 52.408 233.592 53.048ZM231.784 53.496C231.229 53.496 230.776 53.704 230.424 54.12C230.083 54.536 229.912 55.048 229.912 55.656C229.912 56.2533 230.083 56.76 230.424 57.176C230.776 57.592 231.229 57.8 231.784 57.8C232.317 57.8 232.765 57.6133 233.128 57.24C233.501 56.8667 233.688 56.344 233.688 55.672C233.688 54.9787 233.501 54.4453 233.128 54.072C232.765 53.688 232.317 53.496 231.784 53.496ZM237.148 52.264H243.004V59H241.436V53.704H238.716V59H237.148V52.264ZM245.664 53.096C246.357 52.424 247.216 52.088 248.24 52.088C249.264 52.088 250.117 52.424 250.8 53.096C251.493 53.7573 251.84 54.6053 251.84 55.64C251.84 56.664 251.493 57.5173 250.8 58.2C250.117 58.872 249.264 59.208 248.24 59.208C247.216 59.208 246.357 58.872 245.664 58.2C244.981 57.5173 244.64 56.664 244.64 55.64C244.64 54.6053 244.981 53.7573 245.664 53.096ZM246.784 57.224C247.147 57.608 247.632 57.8 248.24 57.8C248.848 57.8 249.333 57.608 249.696 57.224C250.059 56.8293 250.24 56.3067 250.24 55.656C250.24 54.9413 250.043 54.4027 249.648 54.04C249.264 53.6773 248.795 53.496 248.24 53.496C247.685 53.496 247.211 53.6773 246.816 54.04C246.432 54.4027 246.24 54.9413 246.24 55.656C246.24 56.3067 246.421 56.8293 246.784 57.224ZM259.012 52.264V59H257.444V53.704H255.46V56.376C255.46 57.208 255.247 57.8533 254.82 58.312C254.276 58.92 253.54 59.1493 252.612 59V57.56C253.071 57.6667 253.439 57.5653 253.716 57.256C253.876 57.064 253.956 56.7707 253.956 56.376V52.264H259.012ZM260.992 59V52.264H262.56V54.76H265.344V52.264H266.912V59H265.344V56.2H262.56V59H260.992ZM273.618 56.728L274.93 57.464C274.632 57.9973 274.253 58.408 273.794 58.696C273.272 59.0373 272.61 59.208 271.81 59.208C270.872 59.208 270.114 58.92 269.538 58.344C268.877 57.6827 268.546 56.824 268.546 55.768C268.546 54.6587 268.904 53.736 269.618 53C270.226 52.392 270.978 52.088 271.874 52.088C272.749 52.088 273.469 52.3813 274.034 52.968C274.664 53.6187 274.978 54.568 274.978 55.816V56.008H270.146C270.189 56.5733 270.381 57.0267 270.722 57.368C271.01 57.656 271.41 57.8 271.922 57.8C272.338 57.8 272.696 57.688 272.994 57.464C273.24 57.272 273.448 57.0267 273.618 56.728ZM270.258 54.728H273.378C273.314 54.3547 273.154 54.0507 272.898 53.816C272.621 53.56 272.269 53.432 271.842 53.432C271.394 53.432 271.026 53.576 270.738 53.864C270.504 54.0773 270.344 54.3653 270.258 54.728ZM276.617 59V52.264H278.185V54.76H280.969V52.264H282.537V59H280.969V56.2H278.185V59H276.617ZM284.523 59V52.264H286.091V54.76H288.875V52.264H290.443V59H288.875V56.2H286.091V59H284.523ZM292.43 59V52.264H293.998V54.648H294.894C295.182 54.648 295.416 54.6587 295.598 54.68C295.779 54.6907 295.998 54.7493 296.254 54.856C296.51 54.9627 296.734 55.1227 296.926 55.336C297.278 55.7307 297.454 56.2213 297.454 56.808C297.454 57.48 297.251 58.0187 296.846 58.424C296.664 58.6053 296.446 58.744 296.19 58.84C295.944 58.9253 295.736 58.9733 295.566 58.984C295.406 58.9947 295.176 59 294.878 59H292.43ZM293.998 57.656H294.718C295.102 57.656 295.374 57.608 295.534 57.512C295.768 57.3413 295.886 57.112 295.886 56.824C295.886 56.5253 295.774 56.3013 295.549 56.152C295.379 56.0453 295.107 55.992 294.734 55.992H293.998V57.656ZM298.158 59V52.264H299.726V59H298.158ZM300.943 59L302.575 51.656L305.359 56.792L308.143 51.656L309.775 59H308.175L307.503 55.624L305.359 59.512L303.215 55.624L302.543 59H300.943ZM310.992 52.264H312.56V56.088L317.168 51.656V59H315.6V55.08L310.992 59.512V52.264ZM320.684 51.24H319.052C319.031 50.9947 319.02 50.8133 319.02 50.696C319.02 49.896 319.26 49.2667 319.74 48.808C320.21 48.36 320.834 48.136 321.612 48.136C322.412 48.136 323.058 48.3707 323.548 48.84C324.007 49.2773 324.236 49.8747 324.236 50.632C324.236 51.496 323.922 52.152 323.292 52.6C323.068 52.76 322.695 52.9467 322.172 53.16L321.692 53.352C321.372 53.48 321.159 53.5973 321.052 53.704C320.892 53.864 320.812 54.056 320.812 54.28C320.812 54.5467 320.903 54.7547 321.084 54.904C321.212 55.0107 321.372 55.064 321.564 55.064C321.82 55.064 322.023 54.984 322.172 54.824C322.343 54.6427 322.428 54.36 322.428 53.976H323.996C323.996 54.7227 323.762 55.3413 323.292 55.832C322.844 56.28 322.263 56.504 321.548 56.504C320.887 56.504 320.327 56.2853 319.868 55.848C319.431 55.4107 319.212 54.8453 319.212 54.152C319.212 53.608 319.383 53.1493 319.724 52.776C319.98 52.4987 320.444 52.2267 321.116 51.96C321.746 51.7147 322.135 51.528 322.284 51.4C322.519 51.176 322.636 50.9093 322.636 50.6C322.636 50.28 322.546 50.0293 322.364 49.848C322.183 49.6667 321.938 49.576 321.628 49.576C321.308 49.576 321.063 49.672 320.892 49.864C320.711 50.0453 320.62 50.328 320.62 50.712C320.62 50.8507 320.642 51.0267 320.684 51.24ZM320.956 58.936C320.775 58.744 320.684 58.5147 320.684 58.248C320.684 57.9813 320.775 57.7573 320.956 57.576C321.148 57.384 321.378 57.288 321.644 57.288C321.911 57.288 322.135 57.384 322.316 57.576C322.508 57.7573 322.604 57.9813 322.604 58.248C322.604 58.5147 322.508 58.744 322.316 58.936C322.135 59.1173 321.911 59.208 321.644 59.208C321.378 59.208 321.148 59.1173 320.956 58.936Z" fill="#FF8A36"/>
<path d="M204 84L196 76L212 76L204 84Z" fill="white"/>
</g>
<defs>
<filter id="filter0_d_983_3016" x="58" y="20" width="292" height="76" filterUnits="userSpaceOnUse" color-interpolation-filters="sRGB">
<feFlood flood-opacity="0" result="BackgroundImageFix"/>
<feColorMatrix in="SourceAlpha" type="matrix" values="0 0 0 0 0 0 0 0 0 0 0 0 0 0 0 0 0 0 127 0" result="hardAlpha"/>
<feOffset/>
<feGaussianBlur stdDeviation="6"/>
<feComposite in2="hardAlpha" operator="out"/>
<feColorMatrix type="matrix" values="0 0 0 0 0 0 0 0 0 0 0 0 0 0 0 0 0 0 0.07 0"/>
<feBlend mode="normal" in2="BackgroundImageFix" result="effect1_dropShadow_983_3016"/>
<feBlend mode="normal" in="SourceGraphic" in2="effect1_dropShadow_983_3016" result="shape"/>
</filter>
</defs>
</svg>
