<svg width="409" height="146" viewBox="0 0 409 146" fill="none" xmlns="http://www.w3.org/2000/svg">
<rect width="409" height="146" rx="24" fill="#F5F6F8"/>
<path d="M32.72 67V53.66H38.8V55.06H34.2V67H32.72ZM45.1808 66C44.3541 66.8267 43.3074 67.24 42.0408 67.24C40.7741 67.24 39.7208 66.8267 38.8808 66C38.0541 65.1733 37.6408 64.1333 37.6408 62.88C37.6408 61.6133 38.0541 60.5667 38.8808 59.74C39.7208 58.9133 40.7741 58.5 42.0408 58.5C43.3074 58.5 44.3541 58.9133 45.1808 59.74C46.0208 60.5667 46.4408 61.6133 46.4408 62.88C46.4408 64.1333 46.0208 65.1733 45.1808 66ZM44.1008 60.6C43.5408 60.0533 42.8541 59.78 42.0408 59.78C41.2274 59.78 40.5341 60.06 39.9608 60.62C39.4008 61.1667 39.1208 61.92 39.1208 62.88C39.1208 63.84 39.4074 64.5933 39.9808 65.14C40.5541 65.6867 41.2408 65.96 42.0408 65.96C42.8408 65.96 43.5274 65.6867 44.1008 65.14C44.6741 64.5933 44.9608 63.84 44.9608 62.88C44.9608 61.9067 44.6741 61.1467 44.1008 60.6ZM50.0891 65.84V71.6H48.6491V58.7H50.0891V59.86C50.8224 58.9533 51.7691 58.5 52.9291 58.5C54.1691 58.5 55.1491 58.94 55.8691 59.82C56.6024 60.6867 56.9691 61.7133 56.9691 62.9C56.9691 64.1 56.6091 65.1267 55.8891 65.98C55.1691 66.82 54.2024 67.24 52.9891 67.24C51.7757 67.24 50.8091 66.7733 50.0891 65.84ZM52.7891 65.96C53.6024 65.96 54.2557 65.6667 54.7491 65.08C55.2424 64.48 55.4891 63.7533 55.4891 62.9C55.4891 61.94 55.2157 61.18 54.6691 60.62C54.1224 60.06 53.4891 59.78 52.7691 59.78C52.0491 59.78 51.4091 60.06 50.8491 60.62C50.2891 61.18 50.0091 61.9333 50.0091 62.88C50.0091 63.7467 50.2624 64.48 50.7691 65.08C51.2891 65.6667 51.9624 65.96 52.7891 65.96ZM66.1964 66C65.3697 66.8267 64.3231 67.24 63.0564 67.24C61.7897 67.24 60.7364 66.8267 59.8964 66C59.0697 65.1733 58.6564 64.1333 58.6564 62.88C58.6564 61.6133 59.0697 60.5667 59.8964 59.74C60.7364 58.9133 61.7897 58.5 63.0564 58.5C64.3231 58.5 65.3697 58.9133 66.1964 59.74C67.0364 60.5667 67.4564 61.6133 67.4564 62.88C67.4564 64.1333 67.0364 65.1733 66.1964 66ZM65.1164 60.6C64.5564 60.0533 63.8697 59.78 63.0564 59.78C62.2431 59.78 61.5497 60.06 60.9764 60.62C60.4164 61.1667 60.1364 61.92 60.1364 62.88C60.1364 63.84 60.4231 64.5933 60.9964 65.14C61.5697 65.6867 62.2564 65.96 63.0564 65.96C63.8564 65.96 64.5431 65.6867 65.1164 65.14C65.6897 64.5933 65.9764 63.84 65.9764 62.88C65.9764 61.9067 65.6897 61.1467 65.1164 60.6ZM70.2647 58.7H76.1047V65.68H77.3447V69.2H76.0247V67H69.7047V69.2H68.3847V65.68C69.078 65.6667 69.5914 65.3067 69.9247 64.6C70.1514 64.1333 70.2647 63.4 70.2647 62.4V58.7ZM74.6647 65.68V60.02H71.7047V63.14C71.7047 64.2467 71.3714 65.0933 70.7047 65.68H74.6647Z" fill="#0B1530"/>
<rect x="98.5" y="40.5" width="279" height="39" rx="7.5" fill="white"/>
<rect x="98.5" y="40.5" width="279" height="39" rx="7.5" stroke="#0FBC7E"/>
<path d="M121.92 54.76V56.6C121.387 56.0667 120.807 55.6533 120.18 55.36C119.42 55.0133 118.653 54.84 117.88 54.84C116.347 54.84 115.067 55.38 114.04 56.46C113.027 57.5267 112.52 58.84 112.52 60.4C112.52 62.08 113.073 63.4067 114.18 64.38C115.3 65.3533 116.54 65.84 117.9 65.84C118.753 65.84 119.58 65.6333 120.38 65.22C120.94 64.94 121.453 64.5667 121.92 64.1V65.94C120.707 66.8067 119.367 67.24 117.9 67.24C115.927 67.24 114.28 66.58 112.96 65.26C111.653 63.94 111 62.3133 111 60.38C111 58.3933 111.66 56.74 112.98 55.42C114.313 54.1 115.98 53.44 117.98 53.44C119.447 53.44 120.76 53.88 121.92 54.76ZM130.65 59.88V58.7H132.09V67H130.65V65.84C129.93 66.7733 128.983 67.24 127.81 67.24C126.69 67.24 125.736 66.8533 124.95 66.08C124.163 65.3067 123.77 64.2267 123.77 62.84C123.77 61.48 124.156 60.42 124.93 59.66C125.716 58.8867 126.676 58.5 127.81 58.5C129.01 58.5 129.956 58.96 130.65 59.88ZM127.97 59.78C127.21 59.78 126.563 60.0533 126.03 60.6C125.51 61.1333 125.25 61.88 125.25 62.84C125.25 63.76 125.49 64.5133 125.97 65.1C126.463 65.6733 127.13 65.96 127.97 65.96C128.81 65.96 129.476 65.66 129.97 65.06C130.476 64.46 130.73 63.7267 130.73 62.86C130.73 61.8733 130.45 61.1133 129.89 60.58C129.33 60.0467 128.69 59.78 127.97 59.78ZM134.817 67V58.7H136.257V62.1H140.177V58.7H141.617V67H140.177V63.42H136.257V67H134.817ZM144.329 58.7H145.769V62.1L149.129 58.7H150.889L147.289 62.4L151.329 67H149.449L146.209 63.36L145.769 63.78V67H144.329V58.7ZM158.206 60.02H155.606V67H154.166V60.02H151.566V58.7H158.206V60.02ZM160.199 63.48V62H164.599V63.48H160.199ZM167.325 53.66H177.125V67H175.645V55.06H168.805V67H167.325V53.66ZM186.368 64.22L187.568 64.88C187.288 65.4133 186.948 65.86 186.548 66.22C185.788 66.9 184.868 67.24 183.788 67.24C182.668 67.24 181.701 66.88 180.888 66.16C180.088 65.4267 179.688 64.34 179.688 62.9C179.688 61.6333 180.048 60.5867 180.768 59.76C181.501 58.92 182.481 58.5 183.708 58.5C185.094 58.5 186.141 59.0067 186.848 60.02C187.408 60.82 187.668 61.86 187.628 63.14H181.168C181.181 63.98 181.441 64.66 181.948 65.18C182.454 65.7 183.074 65.96 183.808 65.96C184.461 65.96 185.028 65.76 185.508 65.36C185.881 65.04 186.168 64.66 186.368 64.22ZM181.268 61.94H186.148C186.028 61.2867 185.741 60.7667 185.288 60.38C184.848 59.98 184.321 59.78 183.708 59.78C183.108 59.78 182.574 59.9867 182.108 60.4C181.654 60.8 181.374 61.3133 181.268 61.94ZM195.277 60.02H192.677V67H191.237V60.02H188.637V58.7H195.277V60.02ZM202.754 64.22L203.954 64.88C203.674 65.4133 203.334 65.86 202.934 66.22C202.174 66.9 201.254 67.24 200.174 67.24C199.054 67.24 198.088 66.88 197.274 66.16C196.474 65.4267 196.074 64.34 196.074 62.9C196.074 61.6333 196.434 60.5867 197.154 59.76C197.888 58.92 198.868 58.5 200.094 58.5C201.481 58.5 202.528 59.0067 203.234 60.02C203.794 60.82 204.054 61.86 204.014 63.14H197.554C197.568 63.98 197.828 64.66 198.334 65.18C198.841 65.7 199.461 65.96 200.194 65.96C200.848 65.96 201.414 65.76 201.894 65.36C202.268 65.04 202.554 64.66 202.754 64.22ZM197.654 61.94H202.534C202.414 61.2867 202.128 60.7667 201.674 60.38C201.234 59.98 200.708 59.78 200.094 59.78C199.494 59.78 198.961 59.9867 198.494 60.4C198.041 60.8 197.761 61.3133 197.654 61.94ZM207.663 65.84V71.6H206.223V58.7H207.663V59.86C208.397 58.9533 209.343 58.5 210.503 58.5C211.743 58.5 212.723 58.94 213.443 59.82C214.177 60.6867 214.543 61.7133 214.543 62.9C214.543 64.1 214.183 65.1267 213.463 65.98C212.743 66.82 211.777 67.24 210.563 67.24C209.35 67.24 208.383 66.7733 207.663 65.84ZM210.363 65.96C211.177 65.96 211.83 65.6667 212.323 65.08C212.817 64.48 213.063 63.7533 213.063 62.9C213.063 61.94 212.79 61.18 212.243 60.62C211.697 60.06 211.063 59.78 210.343 59.78C209.623 59.78 208.983 60.06 208.423 60.62C207.863 61.18 207.583 61.9333 207.583 62.88C207.583 63.7467 207.837 64.48 208.343 65.08C208.863 65.6667 209.537 65.96 210.363 65.96ZM223.151 53H224.751C224.604 53.4933 224.351 53.9133 223.991 54.26C223.644 54.5933 223.324 54.82 223.031 54.94C222.751 55.06 222.417 55.1667 222.031 55.26C221.964 55.2733 221.804 55.3133 221.551 55.38C221.297 55.4333 221.104 55.48 220.971 55.52C220.837 55.56 220.664 55.6133 220.451 55.68C220.237 55.7467 220.044 55.8267 219.871 55.92C219.697 56.0133 219.537 56.1133 219.391 56.22C218.884 56.6067 218.471 57.1467 218.151 57.84C217.844 58.52 217.677 59.2467 217.651 60.02H217.691C218.291 59.0067 219.297 58.5 220.711 58.5C221.951 58.5 222.977 58.92 223.791 59.76C224.617 60.6 225.031 61.64 225.031 62.88C225.031 64.1333 224.611 65.1733 223.771 66C222.931 66.8267 221.837 67.24 220.491 67.24C219.331 67.24 218.377 66.8933 217.631 66.2C216.697 65.3467 216.231 63.92 216.231 61.92C216.231 58.44 217.017 56.16 218.591 55.08C218.711 55 218.837 54.9267 218.971 54.86C219.104 54.78 219.244 54.7133 219.391 54.66C219.551 54.5933 219.684 54.54 219.791 54.5C219.897 54.4467 220.044 54.4 220.231 54.36C220.431 54.3067 220.564 54.2733 220.631 54.26C220.711 54.2333 220.857 54.2 221.071 54.16C221.297 54.1067 221.437 54.0733 221.491 54.06C222.024 53.94 222.411 53.8 222.651 53.64C222.891 53.4667 223.057 53.2533 223.151 53ZM222.691 60.6C222.131 60.0533 221.444 59.78 220.631 59.78C219.817 59.78 219.124 60.06 218.551 60.62C217.991 61.1667 217.711 61.92 217.711 62.88C217.711 63.84 217.997 64.5933 218.571 65.14C219.144 65.6867 219.831 65.96 220.631 65.96C221.431 65.96 222.117 65.6867 222.691 65.14C223.264 64.5933 223.551 63.84 223.551 62.88C223.551 61.9067 223.264 61.1467 222.691 60.6ZM227.219 71.6L229.859 66.22L226.039 58.7H227.679L230.619 64.64L233.319 58.7H234.919L228.819 71.6H227.219ZM237.878 65.84V71.6H236.438V58.7H237.878V59.86C238.611 58.9533 239.558 58.5 240.718 58.5C241.958 58.5 242.938 58.94 243.658 59.82C244.391 60.6867 244.758 61.7133 244.758 62.9C244.758 64.1 244.398 65.1267 243.678 65.98C242.958 66.82 241.991 67.24 240.778 67.24C239.565 67.24 238.598 66.7733 237.878 65.84ZM240.578 65.96C241.391 65.96 242.045 65.6667 242.538 65.08C243.031 64.48 243.278 63.7533 243.278 62.9C243.278 61.94 243.005 61.18 242.458 60.62C241.911 60.06 241.278 59.78 240.558 59.78C239.838 59.78 239.198 60.06 238.638 60.62C238.078 61.18 237.798 61.9333 237.798 62.88C237.798 63.7467 238.051 64.48 238.558 65.08C239.078 65.6667 239.751 65.96 240.578 65.96ZM246.965 67V58.7H251.885V60.02H248.405V67H246.965Z" fill="#0B1530"/>
<circle cx="106" cy="98" r="8" fill="#0FBC7E"/>
<path d="M102.333 94.334L109.666 101.667" stroke="white" stroke-linecap="round"/>
<path d="M109.666 94.334L102.333 101.667" stroke="white" stroke-linecap="round"/>
<path d="M124.304 92.328H130.96V101.464H132.176V105.4H130.64V103H123.76V105.4H122.224V101.464C122.587 101.475 122.917 101.347 123.216 101.08C123.515 100.803 123.749 100.451 123.92 100.024C124.176 99.3733 124.304 98.44 124.304 97.224V92.328ZM125.936 93.864V97.224C125.936 98.5573 125.813 99.5493 125.568 100.2C125.376 100.691 125.099 101.112 124.736 101.464H129.328V93.864H125.936ZM138.326 97.048V96.264H139.894V103H138.326V102.296C137.804 102.904 137.132 103.208 136.31 103.208C135.318 103.208 134.524 102.856 133.926 102.152C133.34 101.448 133.046 100.605 133.046 99.624C133.046 98.5573 133.361 97.704 133.99 97.064C134.63 96.4133 135.409 96.088 136.326 96.088C137.169 96.088 137.836 96.408 138.326 97.048ZM136.518 97.496C135.964 97.496 135.51 97.704 135.158 98.12C134.817 98.536 134.646 99.048 134.646 99.656C134.646 100.253 134.817 100.76 135.158 101.176C135.51 101.592 135.964 101.8 136.518 101.8C137.052 101.8 137.5 101.613 137.862 101.24C138.236 100.867 138.422 100.344 138.422 99.672C138.422 98.9787 138.236 98.4453 137.862 98.072C137.5 97.688 137.052 97.496 136.518 97.496ZM141.883 103V96.264H143.451V98.76H146.235V96.264H147.803V103H146.235V100.2H143.451V103H141.883ZM149.789 103V96.264H151.357V98.76H154.141V96.264H155.709V103H154.141V100.2H151.357V103H149.789ZM157.695 103V96.264H159.263V98.648H160.159C160.447 98.648 160.682 98.6587 160.863 98.68C161.044 98.6907 161.263 98.7493 161.519 98.856C161.775 98.9627 161.999 99.1227 162.191 99.336C162.543 99.7307 162.719 100.221 162.719 100.808C162.719 101.48 162.516 102.019 162.111 102.424C161.93 102.605 161.711 102.744 161.455 102.84C161.21 102.925 161.002 102.973 160.831 102.984C160.671 102.995 160.442 103 160.143 103H157.695ZM159.263 101.656H159.983C160.367 101.656 160.639 101.608 160.799 101.512C161.034 101.341 161.151 101.112 161.151 100.824C161.151 100.525 161.039 100.301 160.815 100.152C160.644 100.045 160.372 99.992 159.999 99.992H159.263V101.656ZM163.423 103V96.264H164.991V103H163.423ZM171.696 100.728L173.008 101.464C172.71 101.997 172.331 102.408 171.872 102.696C171.35 103.037 170.688 103.208 169.888 103.208C168.95 103.208 168.192 102.92 167.616 102.344C166.955 101.683 166.624 100.824 166.624 99.768C166.624 98.6587 166.982 97.736 167.696 97C168.304 96.392 169.056 96.088 169.952 96.088C170.827 96.088 171.547 96.3813 172.112 96.968C172.742 97.6187 173.056 98.568 173.056 99.816V100.008H168.224C168.267 100.573 168.459 101.027 168.8 101.368C169.088 101.656 169.488 101.8 170 101.8C170.416 101.8 170.774 101.688 171.072 101.464C171.318 101.272 171.526 101.027 171.696 100.728ZM168.336 98.728H171.456C171.392 98.3547 171.232 98.0507 170.976 97.816C170.699 97.56 170.347 97.432 169.92 97.432C169.472 97.432 169.104 97.576 168.816 97.864C168.582 98.0773 168.422 98.3653 168.336 98.728ZM178.43 96.264H181.07C181.742 96.264 182.254 96.3973 182.606 96.664C183.022 96.9947 183.23 97.4267 183.23 97.96C183.23 98.568 182.963 99.0053 182.43 99.272C182.771 99.336 183.075 99.4853 183.342 99.72C183.694 100.04 183.87 100.472 183.87 101.016C183.87 101.667 183.624 102.179 183.134 102.552C182.728 102.851 182.211 103 181.582 103H178.43V96.264ZM179.998 98.888H180.798C181.075 98.888 181.283 98.84 181.422 98.744C181.624 98.616 181.726 98.4347 181.726 98.2C181.726 97.976 181.635 97.8 181.454 97.672C181.326 97.5867 181.096 97.544 180.766 97.544H179.998V98.888ZM179.998 101.72H181.166C181.518 101.72 181.79 101.656 181.982 101.528C182.195 101.389 182.302 101.192 182.302 100.936C182.302 100.659 182.2 100.461 181.998 100.344C181.816 100.227 181.555 100.168 181.214 100.168H179.998V101.72ZM185.508 96.264H188.148C188.82 96.264 189.332 96.3973 189.684 96.664C190.1 96.9947 190.308 97.4267 190.308 97.96C190.308 98.568 190.041 99.0053 189.508 99.272C189.849 99.336 190.153 99.4853 190.42 99.72C190.772 100.04 190.948 100.472 190.948 101.016C190.948 101.667 190.702 102.179 190.212 102.552C189.806 102.851 189.289 103 188.66 103H185.508V96.264ZM187.076 98.888H187.876C188.153 98.888 188.361 98.84 188.5 98.744C188.702 98.616 188.804 98.4347 188.804 98.2C188.804 97.976 188.713 97.8 188.532 97.672C188.404 97.5867 188.174 97.544 187.844 97.544H187.076V98.888ZM187.076 101.72H188.244C188.596 101.72 188.868 101.656 189.06 101.528C189.273 101.389 189.38 101.192 189.38 100.936C189.38 100.659 189.278 100.461 189.076 100.344C188.894 100.227 188.633 100.168 188.292 100.168H187.076V101.72ZM197.306 100.728L198.618 101.464C198.319 101.997 197.94 102.408 197.482 102.696C196.959 103.037 196.298 103.208 195.498 103.208C194.559 103.208 193.802 102.92 193.226 102.344C192.564 101.683 192.234 100.824 192.234 99.768C192.234 98.6587 192.591 97.736 193.306 97C193.914 96.392 194.666 96.088 195.562 96.088C196.436 96.088 197.156 96.3813 197.722 96.968C198.351 97.6187 198.666 98.568 198.666 99.816V100.008H193.834C193.876 100.573 194.068 101.027 194.41 101.368C194.698 101.656 195.098 101.8 195.61 101.8C196.026 101.8 196.383 101.688 196.682 101.464C196.927 101.272 197.135 101.027 197.306 100.728ZM193.946 98.728H197.066C197.002 98.3547 196.842 98.0507 196.586 97.816C196.308 97.56 195.956 97.432 195.53 97.432C195.082 97.432 194.714 97.576 194.426 97.864C194.191 98.0773 194.031 98.3653 193.946 98.728ZM200.881 96.264H205.937V101.56H206.961V104.92H205.521V103H200.817V104.92H199.377V101.56C199.921 101.528 200.331 101.235 200.609 100.68C200.79 100.285 200.881 99.6933 200.881 98.904V96.264ZM204.369 101.56V97.704H202.385V99.496C202.385 100.467 202.123 101.155 201.601 101.56H204.369ZM212.806 100.728L214.118 101.464C213.819 101.997 213.44 102.408 212.982 102.696C212.459 103.037 211.798 103.208 210.998 103.208C210.059 103.208 209.302 102.92 208.726 102.344C208.064 101.683 207.734 100.824 207.734 99.768C207.734 98.6587 208.091 97.736 208.806 97C209.414 96.392 210.166 96.088 211.062 96.088C211.936 96.088 212.656 96.3813 213.222 96.968C213.851 97.6187 214.166 98.568 214.166 99.816V100.008H209.334C209.376 100.573 209.568 101.027 209.91 101.368C210.198 101.656 210.598 101.8 211.11 101.8C211.526 101.8 211.883 101.688 212.182 101.464C212.427 101.272 212.635 101.027 212.806 100.728ZM209.446 98.728H212.566C212.502 98.3547 212.342 98.0507 212.086 97.816C211.808 97.56 211.456 97.432 211.03 97.432C210.582 97.432 210.214 97.576 209.926 97.864C209.691 98.0773 209.531 98.3653 209.446 98.728ZM215.805 103V96.264H217.373V98.76H220.157V96.264H221.725V103H220.157V100.2H217.373V103H215.805ZM223.711 103V96.264H225.279V98.648H226.175C226.463 98.648 226.697 98.6587 226.879 98.68C227.06 98.6907 227.279 98.7493 227.535 98.856C227.791 98.9627 228.015 99.1227 228.207 99.336C228.559 99.7307 228.735 100.221 228.735 100.808C228.735 101.48 228.532 102.019 228.127 102.424C227.945 102.605 227.727 102.744 227.471 102.84C227.225 102.925 227.017 102.973 226.847 102.984C226.687 102.995 226.457 103 226.159 103H223.711ZM225.279 101.656H225.999C226.383 101.656 226.655 101.608 226.815 101.512C227.049 101.341 227.167 101.112 227.167 100.824C227.167 100.525 227.055 100.301 226.831 100.152C226.66 100.045 226.388 99.992 226.015 99.992H225.279V101.656ZM229.439 103V96.264H231.007V103H229.439ZM236.726 96.264H239.366C240.038 96.264 240.55 96.3973 240.902 96.664C241.318 96.9947 241.526 97.4267 241.526 97.96C241.526 98.568 241.26 99.0053 240.726 99.272C241.068 99.336 241.372 99.4853 241.638 99.72C241.99 100.04 242.166 100.472 242.166 101.016C242.166 101.667 241.921 102.179 241.43 102.552C241.025 102.851 240.508 103 239.878 103H236.726V96.264ZM238.294 98.888H239.094C239.372 98.888 239.58 98.84 239.718 98.744C239.921 98.616 240.022 98.4347 240.022 98.2C240.022 97.976 239.932 97.8 239.75 97.672C239.622 97.5867 239.393 97.544 239.062 97.544H238.294V98.888ZM238.294 101.72H239.462C239.814 101.72 240.086 101.656 240.278 101.528C240.492 101.389 240.598 101.192 240.598 100.936C240.598 100.659 240.497 100.461 240.294 100.344C240.113 100.227 239.852 100.168 239.51 100.168H238.294V101.72ZM248.525 100.728L249.837 101.464C249.538 101.997 249.159 102.408 248.701 102.696C248.178 103.037 247.517 103.208 246.717 103.208C245.778 103.208 245.021 102.92 244.445 102.344C243.783 101.683 243.453 100.824 243.453 99.768C243.453 98.6587 243.81 97.736 244.525 97C245.133 96.392 245.885 96.088 246.781 96.088C247.655 96.088 248.375 96.3813 248.941 96.968C249.57 97.6187 249.885 98.568 249.885 99.816V100.008H245.053C245.095 100.573 245.287 101.027 245.629 101.368C245.917 101.656 246.317 101.8 246.829 101.8C247.245 101.8 247.602 101.688 247.901 101.464C248.146 101.272 248.354 101.027 248.525 100.728ZM245.164 98.728H248.285C248.221 98.3547 248.061 98.0507 247.805 97.816C247.527 97.56 247.175 97.432 246.749 97.432C246.301 97.432 245.933 97.576 245.645 97.864C245.41 98.0773 245.25 98.3653 245.164 98.728ZM253.091 102.216V106.664H251.523V96.264H253.091V97C253.603 96.392 254.27 96.088 255.091 96.088C256.009 96.088 256.782 96.4133 257.411 97.064C258.051 97.704 258.371 98.5467 258.371 99.592C258.371 100.669 258.041 101.544 257.379 102.216C256.718 102.877 255.961 103.208 255.107 103.208C254.307 103.208 253.635 102.877 253.091 102.216ZM254.899 97.496C254.366 97.496 253.913 97.688 253.539 98.072C253.177 98.4453 252.995 98.9787 252.995 99.672C252.995 100.344 253.177 100.867 253.539 101.24C253.913 101.613 254.366 101.8 254.899 101.8C255.454 101.8 255.902 101.592 256.243 101.176C256.595 100.76 256.771 100.253 256.771 99.656C256.771 99.048 256.595 98.536 256.243 98.12C255.902 97.704 255.454 97.496 254.899 97.496ZM260.008 103V96.264H261.576V98.76H264.36V96.264H265.928V103H264.36V100.2H261.576V103H260.008ZM268.586 97.096C269.279 96.424 270.138 96.088 271.162 96.088C272.186 96.088 273.039 96.424 273.722 97.096C274.415 97.7573 274.762 98.6053 274.762 99.64C274.762 100.664 274.415 101.517 273.722 102.2C273.039 102.872 272.186 103.208 271.162 103.208C270.138 103.208 269.279 102.872 268.586 102.2C267.903 101.517 267.562 100.664 267.562 99.64C267.562 98.6053 267.903 97.7573 268.586 97.096ZM269.706 101.224C270.069 101.608 270.554 101.8 271.162 101.8C271.77 101.8 272.255 101.608 272.618 101.224C272.981 100.829 273.162 100.307 273.162 99.656C273.162 98.9413 272.965 98.4027 272.57 98.04C272.186 97.6773 271.717 97.496 271.162 97.496C270.607 97.496 270.133 97.6773 269.738 98.04C269.354 98.4027 269.162 98.9413 269.162 99.656C269.162 100.307 269.343 100.829 269.706 101.224Z" fill="#0FBC7E"/>
</svg>
