<svg width="409" height="138" viewBox="0 0 409 138" fill="none" xmlns="http://www.w3.org/2000/svg">
<rect width="409" height="138" rx="24" fill="#F5F6F8"/>
<g filter="url(#filter0_d_983_3432)">
<g filter="url(#filter1_d_983_3432)">
<rect x="94" y="32" width="221" height="40" rx="8" fill="white"/>
<path d="M108.624 57H106.96L109.2 45.528L112.912 53.816L116.656 45.528L118.672 57H117.008L115.92 50.568L112.816 57.496L109.744 50.552L108.624 57ZM120.617 57V50.264H122.185V52.648H123.081C123.369 52.648 123.604 52.6587 123.785 52.68C123.966 52.6907 124.185 52.7493 124.441 52.856C124.697 52.9627 124.921 53.1227 125.113 53.336C125.465 53.7307 125.641 54.2213 125.641 54.808C125.641 55.48 125.438 56.0187 125.033 56.424C124.852 56.6053 124.633 56.744 124.377 56.84C124.132 56.9253 123.924 56.9733 123.753 56.984C123.593 56.9947 123.364 57 123.065 57H120.617ZM122.185 55.656H122.905C123.289 55.656 123.561 55.608 123.721 55.512C123.956 55.3413 124.073 55.112 124.073 54.824C124.073 54.5253 123.961 54.3013 123.737 54.152C123.566 54.0453 123.294 53.992 122.921 53.992H122.185V55.656ZM126.345 57V50.264H127.913V57H126.345ZM133.633 50.264H135.201V54.088L139.809 49.656V57H138.241V53.08L133.633 57.512V50.264ZM147.005 50.568V52.328C146.44 51.7733 145.805 51.496 145.101 51.496C144.504 51.496 144.008 51.6933 143.613 52.088C143.229 52.472 143.037 52.9893 143.037 53.64C143.037 54.312 143.24 54.8507 143.645 55.256C144.029 55.6187 144.504 55.8 145.069 55.8C145.848 55.8 146.493 55.512 147.005 54.936V56.68C146.44 57.032 145.757 57.208 144.957 57.208C143.88 57.208 143.026 56.8773 142.397 56.216C141.757 55.5547 141.437 54.712 141.437 53.688C141.437 52.632 141.778 51.7627 142.461 51.08C143.122 50.4187 144.024 50.088 145.165 50.088C145.816 50.088 146.429 50.248 147.005 50.568ZM148.508 50.264H154.364V57H152.796V51.704H150.076V57H148.508V50.264ZM157.023 51.096C157.717 50.424 158.575 50.088 159.599 50.088C160.623 50.088 161.477 50.424 162.159 51.096C162.853 51.7573 163.199 52.6053 163.199 53.64C163.199 54.664 162.853 55.5173 162.159 56.2C161.477 56.872 160.623 57.208 159.599 57.208C158.575 57.208 157.717 56.872 157.023 56.2C156.341 55.5173 155.999 54.664 155.999 53.64C155.999 52.6053 156.341 51.7573 157.023 51.096ZM158.143 55.224C158.506 55.608 158.991 55.8 159.599 55.8C160.207 55.8 160.693 55.608 161.055 55.224C161.418 54.8293 161.599 54.3067 161.599 53.656C161.599 52.9413 161.402 52.4027 161.007 52.04C160.623 51.6773 160.154 51.496 159.599 51.496C159.045 51.496 158.57 51.6773 158.175 52.04C157.791 52.4027 157.599 52.9413 157.599 53.656C157.599 54.3067 157.781 54.8293 158.143 55.224ZM170.372 50.264V57H168.804V51.704H166.82V54.376C166.82 55.208 166.606 55.8533 166.18 56.312C165.636 56.92 164.9 57.1493 163.972 57V55.56C164.43 55.6667 164.798 55.5653 165.076 55.256C165.236 55.064 165.316 54.7707 165.316 54.376V50.264H170.372ZM172.351 57V50.264H173.919V52.648H174.815C175.103 52.648 175.338 52.6587 175.519 52.68C175.701 52.6907 175.919 52.7493 176.175 52.856C176.431 52.9627 176.655 53.1227 176.847 53.336C177.199 53.7307 177.375 54.2213 177.375 54.808C177.375 55.48 177.173 56.0187 176.767 56.424C176.586 56.6053 176.367 56.744 176.111 56.84C175.866 56.9253 175.658 56.9733 175.487 56.984C175.327 56.9947 175.098 57 174.799 57H172.351ZM173.919 55.656H174.639C175.023 55.656 175.295 55.608 175.455 55.512C175.69 55.3413 175.807 55.112 175.807 54.824C175.807 54.5253 175.695 54.3013 175.471 54.152C175.301 54.0453 175.029 53.992 174.655 53.992H173.919V55.656ZM179.498 52.008L178.49 51.128C178.746 50.8187 179.087 50.568 179.514 50.376C179.962 50.184 180.49 50.088 181.098 50.088C181.802 50.088 182.372 50.2427 182.81 50.552C183.279 50.8933 183.514 51.352 183.514 51.928C183.514 52.3013 183.418 52.6107 183.226 52.856C183.066 53.0693 182.852 53.2293 182.586 53.336C182.991 53.4213 183.316 53.5867 183.562 53.832C183.85 54.12 183.994 54.4933 183.994 54.952C183.994 55.56 183.802 56.056 183.418 56.44C182.906 56.952 182.116 57.208 181.05 57.208C180.335 57.208 179.748 57.0747 179.29 56.808C178.81 56.5307 178.458 56.1307 178.234 55.608L179.482 54.968C179.631 55.288 179.828 55.5227 180.074 55.672C180.34 55.8427 180.676 55.928 181.082 55.928C181.572 55.928 181.93 55.816 182.154 55.592C182.314 55.4107 182.394 55.2133 182.394 55C182.394 54.776 182.324 54.5947 182.186 54.456C182.004 54.264 181.631 54.168 181.066 54.168H180.362V52.888H180.954C181.295 52.888 181.551 52.8293 181.722 52.712C181.914 52.5627 182.01 52.3653 182.01 52.12C182.01 51.864 181.914 51.672 181.722 51.544C181.562 51.4267 181.311 51.368 180.97 51.368C180.65 51.368 180.356 51.432 180.09 51.56C179.866 51.6667 179.668 51.816 179.498 52.008ZM184.793 60.664L187.273 55.944L184.393 50.264H186.281L188.201 54.2L190.153 50.264H191.913L186.553 60.664H184.793ZM197.384 54.728L198.696 55.464C198.397 55.9973 198.019 56.408 197.56 56.696C197.037 57.0373 196.376 57.208 195.576 57.208C194.637 57.208 193.88 56.92 193.304 56.344C192.643 55.6827 192.312 54.824 192.312 53.768C192.312 52.6587 192.669 51.736 193.384 51C193.992 50.392 194.744 50.088 195.64 50.088C196.515 50.088 197.235 50.3813 197.8 50.968C198.429 51.6187 198.744 52.568 198.744 53.816V54.008H193.912C193.955 54.5733 194.147 55.0267 194.488 55.368C194.776 55.656 195.176 55.8 195.688 55.8C196.104 55.8 196.461 55.688 196.76 55.464C197.005 55.272 197.213 55.0267 197.384 54.728ZM194.024 52.728H197.144C197.08 52.3547 196.92 52.0507 196.664 51.816C196.387 51.56 196.035 51.432 195.608 51.432C195.16 51.432 194.792 51.576 194.504 51.864C194.269 52.0773 194.109 52.3653 194.024 52.728ZM199.615 57L201.247 49.656L204.031 54.792L206.815 49.656L208.447 57H206.847L206.175 53.624L204.031 57.512L201.887 53.624L201.215 57H199.615ZM216.982 60.664V57.112C215.83 57.1227 214.908 56.8293 214.214 56.232C213.457 55.592 213.078 54.7227 213.078 53.624C213.078 52.536 213.452 51.672 214.198 51.032C214.881 50.4453 215.809 50.152 216.982 50.152V46.328H218.55V50.152C219.724 50.152 220.652 50.4453 221.334 51.032C222.081 51.672 222.454 52.536 222.454 53.624C222.454 54.7227 222.076 55.592 221.318 56.232C220.625 56.8293 219.702 57.1227 218.55 57.112V60.664H216.982ZM216.982 55.704V51.56C216.364 51.56 215.873 51.6773 215.51 51.912C214.956 52.2427 214.678 52.8133 214.678 53.624C214.678 54.3813 214.94 54.9413 215.462 55.304C215.868 55.592 216.374 55.7253 216.982 55.704ZM218.55 51.56V55.704C219.158 55.7253 219.665 55.592 220.07 55.304C220.593 54.9413 220.854 54.3813 220.854 53.624C220.854 52.8133 220.577 52.2427 220.022 51.912C219.66 51.6773 219.169 51.56 218.55 51.56ZM229.045 51.048V50.264H230.613V57H229.045V56.296C228.522 56.904 227.85 57.208 227.029 57.208C226.037 57.208 225.242 56.856 224.645 56.152C224.058 55.448 223.765 54.6053 223.765 53.624C223.765 52.5573 224.08 51.704 224.709 51.064C225.349 50.4133 226.128 50.088 227.045 50.088C227.888 50.088 228.554 50.408 229.045 51.048ZM227.237 51.496C226.682 51.496 226.229 51.704 225.877 52.12C225.536 52.536 225.365 53.048 225.365 53.656C225.365 54.2533 225.536 54.76 225.877 55.176C226.229 55.592 226.682 55.8 227.237 55.8C227.77 55.8 228.218 55.6133 228.581 55.24C228.954 54.8667 229.141 54.344 229.141 53.672C229.141 52.9787 228.954 52.4453 228.581 52.072C228.218 51.688 227.77 51.496 227.237 51.496ZM232.601 50.264H234.169V54.088L238.777 49.656V57H237.209V53.08L232.601 57.512V50.264ZM233.113 47.352L234.393 46.984C234.596 47.6773 235.033 48.024 235.705 48.024C236.367 48.024 236.804 47.6773 237.017 46.984L238.297 47.352C238.127 47.96 237.78 48.4293 237.257 48.76C236.745 49.08 236.228 49.24 235.705 49.24C235.183 49.24 234.66 49.08 234.137 48.76C233.625 48.4293 233.284 47.96 233.113 47.352ZM246.294 50.264V57H244.726V51.704H242.742V54.376C242.742 55.208 242.528 55.8533 242.102 56.312C241.558 56.92 240.822 57.1493 239.894 57V55.56C240.352 55.6667 240.72 55.5653 240.998 55.256C241.158 55.064 241.238 54.7707 241.238 54.376V50.264H246.294ZM248.273 57V50.264H249.841V52.648H250.737C251.025 52.648 251.26 52.6587 251.441 52.68C251.623 52.6907 251.841 52.7493 252.097 52.856C252.353 52.9627 252.577 53.1227 252.769 53.336C253.121 53.7307 253.297 54.2213 253.297 54.808C253.297 55.48 253.095 56.0187 252.689 56.424C252.508 56.6053 252.289 56.744 252.033 56.84C251.788 56.9253 251.58 56.9733 251.409 56.984C251.249 56.9947 251.02 57 250.721 57H248.273ZM249.841 55.656H250.561C250.945 55.656 251.217 55.608 251.377 55.512C251.612 55.3413 251.729 55.112 251.729 54.824C251.729 54.5253 251.617 54.3013 251.393 54.152C251.223 54.0453 250.951 53.992 250.577 53.992H249.841V55.656ZM254.001 57V50.264H255.569V57H254.001ZM266.505 50.568V52.328C265.94 51.7733 265.305 51.496 264.601 51.496C264.004 51.496 263.508 51.6933 263.113 52.088C262.729 52.472 262.537 52.9893 262.537 53.64C262.537 54.312 262.74 54.8507 263.145 55.256C263.529 55.6187 264.004 55.8 264.569 55.8C265.348 55.8 265.993 55.512 266.505 54.936V56.68C265.94 57.032 265.257 57.208 264.457 57.208C263.38 57.208 262.526 56.8773 261.897 56.216C261.257 55.5547 260.937 54.712 260.937 53.688C260.937 52.632 261.278 51.7627 261.961 51.08C262.622 50.4187 263.524 50.088 264.665 50.088C265.316 50.088 265.929 50.248 266.505 50.568ZM268.68 51.096C269.373 50.424 270.232 50.088 271.256 50.088C272.28 50.088 273.133 50.424 273.816 51.096C274.509 51.7573 274.856 52.6053 274.856 53.64C274.856 54.664 274.509 55.5173 273.816 56.2C273.133 56.872 272.28 57.208 271.256 57.208C270.232 57.208 269.373 56.872 268.68 56.2C267.997 55.5173 267.656 54.664 267.656 53.64C267.656 52.6053 267.997 51.7573 268.68 51.096ZM269.8 55.224C270.162 55.608 270.648 55.8 271.256 55.8C271.864 55.8 272.349 55.608 272.712 55.224C273.074 54.8293 273.256 54.3067 273.256 53.656C273.256 52.9413 273.058 52.4027 272.664 52.04C272.28 51.6773 271.81 51.496 271.256 51.496C270.701 51.496 270.226 51.6773 269.832 52.04C269.448 52.4027 269.256 52.9413 269.256 53.656C269.256 54.3067 269.437 54.8293 269.8 55.224ZM277.164 51.096C277.857 50.424 278.716 50.088 279.74 50.088C280.764 50.088 281.617 50.424 282.3 51.096C282.993 51.7573 283.34 52.6053 283.34 53.64C283.34 54.664 282.993 55.5173 282.3 56.2C281.617 56.872 280.764 57.208 279.74 57.208C278.716 57.208 277.857 56.872 277.164 56.2C276.481 55.5173 276.14 54.664 276.14 53.64C276.14 52.6053 276.481 51.7573 277.164 51.096ZM278.284 55.224C278.647 55.608 279.132 55.8 279.74 55.8C280.348 55.8 280.833 55.608 281.196 55.224C281.559 54.8293 281.74 54.3067 281.74 53.656C281.74 52.9413 281.543 52.4027 281.148 52.04C280.764 51.6773 280.295 51.496 279.74 51.496C279.185 51.496 278.711 51.6773 278.316 52.04C277.932 52.4027 277.74 52.9413 277.74 53.656C277.74 54.3067 277.921 54.8293 278.284 55.224ZM284.976 45.336H286.544V52.52L288.736 50.264H290.816L287.92 53.064L291.024 57H289.04L286.832 54.12L286.544 54.408V57H284.976V45.336ZM292.055 50.264H293.623V57H292.055V50.264ZM292.118 48.2C291.927 48.008 291.831 47.768 291.831 47.48C291.831 47.192 291.927 46.952 292.118 46.76C292.311 46.568 292.551 46.472 292.839 46.472C293.127 46.472 293.367 46.568 293.559 46.76C293.751 46.952 293.847 47.192 293.847 47.48C293.847 47.768 293.751 48.008 293.559 48.2C293.367 48.392 293.127 48.488 292.839 48.488C292.551 48.488 292.311 48.392 292.118 48.2ZM300.321 54.728L301.633 55.464C301.335 55.9973 300.956 56.408 300.497 56.696C299.975 57.0373 299.313 57.208 298.513 57.208C297.575 57.208 296.817 56.92 296.241 56.344C295.58 55.6827 295.249 54.824 295.249 53.768C295.249 52.6587 295.607 51.736 296.321 51C296.929 50.392 297.681 50.088 298.577 50.088C299.452 50.088 300.172 50.3813 300.737 50.968C301.367 51.6187 301.681 52.568 301.681 53.816V54.008H296.849C296.892 54.5733 297.084 55.0267 297.425 55.368C297.713 55.656 298.113 55.8 298.625 55.8C299.041 55.8 299.399 55.688 299.697 55.464C299.943 55.272 300.151 55.0267 300.321 54.728ZM296.961 52.728H300.081C300.017 52.3547 299.857 52.0507 299.601 51.816C299.324 51.56 298.972 51.432 298.545 51.432C298.097 51.432 297.729 51.576 297.441 51.864C297.207 52.0773 297.047 52.3653 296.961 52.728Z" fill="#2767FB"/>
<path d="M204.5 80L196.5 72L212.5 72L204.5 80Z" fill="white"/>
</g>
<path d="M204.5 97.3312C205.364 97.3312 206.066 98.0317 206.064 98.897C206.064 99.7609 205.364 100.46 204.5 100.46C203.636 100.46 202.936 99.7607 202.936 98.897C202.936 98.0333 203.636 97.3328 204.5 97.3312ZM203.841 87.1169H205.161C205.78 87.1169 206.279 87.6923 206.279 88.407L205.887 94.7437C205.887 95.4584 205.387 96.0337 204.5 96.0337C203.614 96.0337 203.115 95.4584 203.115 94.7437L202.723 88.407C202.723 87.6925 203.222 87.1169 203.841 87.1169ZM204.5 84C199.094 84 194.711 88.3819 194.711 93.7892C194.711 99.1952 199.094 103.577 204.5 103.577C209.906 103.579 214.289 99.1952 214.289 93.7892C214.289 88.3819 209.906 84 204.5 84Z" fill="#2767FB"/>
</g>
<defs>
<filter id="filter0_d_983_3432" x="69" y="7" width="271" height="121.576" filterUnits="userSpaceOnUse" color-interpolation-filters="sRGB">
<feFlood flood-opacity="0" result="BackgroundImageFix"/>
<feColorMatrix in="SourceAlpha" type="matrix" values="0 0 0 0 0 0 0 0 0 0 0 0 0 0 0 0 0 0 127 0" result="hardAlpha"/>
<feOffset/>
<feGaussianBlur stdDeviation="12.5"/>
<feComposite in2="hardAlpha" operator="out"/>
<feColorMatrix type="matrix" values="0 0 0 0 0 0 0 0 0 0 0 0 0 0 0 0 0 0 0.1 0"/>
<feBlend mode="normal" in2="BackgroundImageFix" result="effect1_dropShadow_983_3432"/>
<feBlend mode="normal" in="SourceGraphic" in2="effect1_dropShadow_983_3432" result="shape"/>
</filter>
<filter id="filter1_d_983_3432" x="82" y="20" width="245" height="72" filterUnits="userSpaceOnUse" color-interpolation-filters="sRGB">
<feFlood flood-opacity="0" result="BackgroundImageFix"/>
<feColorMatrix in="SourceAlpha" type="matrix" values="0 0 0 0 0 0 0 0 0 0 0 0 0 0 0 0 0 0 127 0" result="hardAlpha"/>
<feOffset/>
<feGaussianBlur stdDeviation="6"/>
<feComposite in2="hardAlpha" operator="out"/>
<feColorMatrix type="matrix" values="0 0 0 0 0 0 0 0 0 0 0 0 0 0 0 0 0 0 0.07 0"/>
<feBlend mode="normal" in2="BackgroundImageFix" result="effect1_dropShadow_983_3432"/>
<feBlend mode="normal" in="SourceGraphic" in2="effect1_dropShadow_983_3432" result="shape"/>
</filter>
</defs>
</svg>
