<svg width="409" height="343" viewBox="0 0 409 343" fill="none" xmlns="http://www.w3.org/2000/svg">
<rect width="409" height="343" rx="24" fill="#F5F6F8"/>
<rect x="16" y="111" width="377" height="176" rx="18" fill="white"/>
<rect x="68.5" y="143.5" width="255" height="39" rx="7.5" fill="#F5F6F8"/>
<rect x="68.5" y="143.5" width="255" height="39" rx="7.5" stroke="#B6B9C1"/>
<path d="M81.72 156.66H91.52V170H90.04V158.06H83.2V170H81.72V156.66ZM101.622 169C100.796 169.827 99.7489 170.24 98.4822 170.24C97.2155 170.24 96.1622 169.827 95.3222 169C94.4955 168.173 94.0822 167.133 94.0822 165.88C94.0822 164.613 94.4955 163.567 95.3222 162.74C96.1622 161.913 97.2155 161.5 98.4822 161.5C99.7489 161.5 100.796 161.913 101.622 162.74C102.462 163.567 102.882 164.613 102.882 165.88C102.882 167.133 102.462 168.173 101.622 169ZM100.542 163.6C99.9822 163.053 99.2955 162.78 98.4822 162.78C97.6689 162.78 96.9755 163.06 96.4022 163.62C95.8422 164.167 95.5622 164.92 95.5622 165.88C95.5622 166.84 95.8489 167.593 96.4222 168.14C96.9955 168.687 97.6822 168.96 98.4822 168.96C99.2822 168.96 99.9689 168.687 100.542 168.14C101.116 167.593 101.402 166.84 101.402 165.88C101.402 164.907 101.116 164.147 100.542 163.6ZM105.69 161.7H111.53V168.68H112.77V172.2H111.45V170H105.13V172.2H103.81V168.68C104.504 168.667 105.017 168.307 105.35 167.6C105.577 167.133 105.69 166.4 105.69 165.4V161.7ZM110.09 168.68V163.02H107.13V166.14C107.13 167.247 106.797 168.093 106.13 168.68H110.09ZM120.79 162.3V164.02C120.136 163.193 119.27 162.78 118.19 162.78C117.376 162.78 116.683 163.06 116.11 163.62C115.536 164.167 115.25 164.92 115.25 165.88C115.25 166.84 115.536 167.593 116.11 168.14C116.683 168.687 117.37 168.96 118.17 168.96C119.236 168.96 120.13 168.527 120.85 167.66V169.38C120.063 169.953 119.183 170.24 118.21 170.24C116.916 170.24 115.85 169.833 115.01 169.02C114.183 168.193 113.77 167.153 113.77 165.9C113.77 164.633 114.19 163.587 115.03 162.76C115.87 161.92 116.93 161.5 118.21 161.5C119.17 161.5 120.03 161.767 120.79 162.3ZM123.059 161.7H124.499V165.1L127.859 161.7H129.619L126.019 165.4L130.059 170H128.179L124.939 166.36L124.499 166.78V170H123.059V161.7ZM137.857 162.88V161.7H139.297V170H137.857V168.84C137.137 169.773 136.19 170.24 135.017 170.24C133.897 170.24 132.943 169.853 132.157 169.08C131.37 168.307 130.977 167.227 130.977 165.84C130.977 164.48 131.363 163.42 132.137 162.66C132.923 161.887 133.883 161.5 135.017 161.5C136.217 161.5 137.163 161.96 137.857 162.88ZM135.177 162.78C134.417 162.78 133.77 163.053 133.237 163.6C132.717 164.133 132.457 164.88 132.457 165.84C132.457 166.76 132.697 167.513 133.177 168.1C133.67 168.673 134.337 168.96 135.177 168.96C136.017 168.96 136.683 168.66 137.177 168.06C137.683 167.46 137.937 166.727 137.937 165.86C137.937 164.873 137.657 164.113 137.097 163.58C136.537 163.047 135.897 162.78 135.177 162.78ZM143.104 163.82L142.104 163C142.424 162.533 142.777 162.187 143.164 161.96C143.684 161.653 144.291 161.5 144.984 161.5C145.824 161.5 146.477 161.693 146.944 162.08C147.424 162.493 147.664 163.02 147.664 163.66C147.664 164.433 147.351 165.013 146.724 165.4C147.124 165.493 147.444 165.673 147.684 165.94C148.071 166.353 148.264 166.86 148.264 167.46C148.264 168.353 147.904 169.067 147.184 169.6C146.597 170.027 145.811 170.24 144.824 170.24C143.944 170.24 143.204 170.007 142.604 169.54C142.151 169.207 141.784 168.733 141.504 168.12L142.744 167.6C142.891 167.973 143.137 168.287 143.484 168.54C143.857 168.82 144.311 168.96 144.844 168.96C145.471 168.96 145.937 168.853 146.244 168.64C146.631 168.387 146.824 168 146.824 167.48C146.824 167.053 146.657 166.733 146.324 166.52C146.044 166.333 145.591 166.24 144.964 166.24H144.124V164.92H144.824C145.331 164.92 145.691 164.847 145.904 164.7C146.197 164.513 146.344 164.26 146.344 163.94C146.344 163.567 146.224 163.28 145.984 163.08C145.757 162.88 145.404 162.78 144.924 162.78C144.511 162.78 144.131 162.887 143.784 163.1C143.491 163.287 143.264 163.527 143.104 163.82ZM150.462 161.7H151.902V165.1L155.262 161.7H157.022L153.422 165.4L157.462 170H155.582L152.342 166.36L151.902 166.78V170H150.462V161.7ZM165.259 162.88V161.7H166.699V170H165.259V168.84C164.539 169.773 163.592 170.24 162.419 170.24C161.299 170.24 160.346 169.853 159.559 169.08C158.772 168.307 158.379 167.227 158.379 165.84C158.379 164.48 158.766 163.42 159.539 162.66C160.326 161.887 161.286 161.5 162.419 161.5C163.619 161.5 164.566 161.96 165.259 162.88ZM162.579 162.78C161.819 162.78 161.172 163.053 160.639 163.6C160.119 164.133 159.859 164.88 159.859 165.84C159.859 166.76 160.099 167.513 160.579 168.1C161.072 168.673 161.739 168.96 162.579 168.96C163.419 168.96 164.086 168.66 164.579 168.06C165.086 167.46 165.339 166.727 165.339 165.86C165.339 164.873 165.059 164.113 164.499 163.58C163.939 163.047 163.299 162.78 162.579 162.78Z" fill="#B6B9C1"/>
<line x1="75.5" y1="207" x2="75.5" y2="167" stroke="black"/>
<circle cx="76" cy="231" r="15.5" fill="#F5F6F8" stroke="#CED0D6"/>
<path d="M103.2 238H101.72V224.1L112.12 235V224.66H113.6V238.6L103.2 227.7V238ZM122.833 235.22L124.033 235.88C123.753 236.413 123.413 236.86 123.013 237.22C122.253 237.9 121.333 238.24 120.253 238.24C119.133 238.24 118.166 237.88 117.353 237.16C116.553 236.427 116.153 235.34 116.153 233.9C116.153 232.633 116.513 231.587 117.233 230.76C117.966 229.92 118.946 229.5 120.173 229.5C121.559 229.5 122.606 230.007 123.313 231.02C123.873 231.82 124.133 232.86 124.093 234.14H117.633C117.646 234.98 117.906 235.66 118.413 236.18C118.919 236.7 119.539 236.96 120.273 236.96C120.926 236.96 121.493 236.76 121.973 236.36C122.346 236.04 122.633 235.66 122.833 235.22ZM117.733 232.94H122.613C122.493 232.287 122.206 231.767 121.753 231.38C121.313 230.98 120.786 230.78 120.173 230.78C119.573 230.78 119.039 230.987 118.573 231.4C118.119 231.8 117.839 232.313 117.733 232.94ZM127.741 229.7V234.54C127.741 235.38 127.875 235.973 128.141 236.32C128.475 236.747 128.961 236.96 129.601 236.96C130.241 236.96 130.728 236.747 131.061 236.32C131.328 235.973 131.461 235.38 131.461 234.54V229.7H132.901V234.7C132.901 235.82 132.648 236.653 132.141 237.2C131.488 237.893 130.641 238.24 129.601 238.24C128.561 238.24 127.715 237.893 127.061 237.2C126.555 236.653 126.301 235.82 126.301 234.7V229.7H127.741ZM135.618 238V229.7H137.058V230.6C137.524 229.867 138.151 229.5 138.938 229.5C139.338 229.5 139.764 229.613 140.218 229.84L139.538 231.14C139.271 230.953 138.991 230.86 138.698 230.86C138.191 230.86 137.804 231.033 137.538 231.38C137.218 231.807 137.058 232.553 137.058 233.62V238H135.618ZM147.466 230.88V229.7H148.906V238H147.466V236.84C146.746 237.773 145.799 238.24 144.626 238.24C143.506 238.24 142.553 237.853 141.766 237.08C140.979 236.307 140.586 235.227 140.586 233.84C140.586 232.48 140.973 231.42 141.746 230.66C142.533 229.887 143.493 229.5 144.626 229.5C145.826 229.5 146.773 229.96 147.466 230.88ZM144.786 230.78C144.026 230.78 143.379 231.053 142.846 231.6C142.326 232.133 142.066 232.88 142.066 233.84C142.066 234.76 142.306 235.513 142.786 236.1C143.279 236.673 143.946 236.96 144.786 236.96C145.626 236.96 146.293 236.66 146.786 236.06C147.293 235.46 147.546 234.727 147.546 233.86C147.546 232.873 147.266 232.113 146.706 231.58C146.146 231.047 145.506 230.78 144.786 230.78ZM151.633 223.42H153.073V238H151.633V223.42ZM160.142 237.54L167.722 226.02H160.422V224.66H170.222L161.302 238.32L160.142 237.54ZM178.573 236.24C177.653 237.573 176.513 238.24 175.153 238.24C173.793 238.24 172.653 237.573 171.733 236.24C170.839 234.947 170.393 233.313 170.393 231.34C170.393 229.367 170.839 227.733 171.733 226.44C172.653 225.107 173.793 224.44 175.153 224.44C176.513 224.44 177.653 225.107 178.573 226.44C179.466 227.733 179.913 229.367 179.913 231.34C179.913 233.313 179.466 234.947 178.573 236.24ZM177.453 227.28C176.839 226.293 176.073 225.8 175.153 225.8C174.233 225.8 173.466 226.293 172.853 227.28C172.199 228.32 171.873 229.673 171.873 231.34C171.873 233.007 172.199 234.36 172.853 235.4C173.466 236.387 174.233 236.88 175.153 236.88C176.073 236.88 176.839 236.387 177.453 235.4C178.106 234.36 178.433 233.007 178.433 231.34C178.433 229.673 178.106 228.32 177.453 227.28Z" fill="#0B1530"/>
<line x1="250.5" y1="207" x2="250.5" y2="183" stroke="black"/>
<circle cx="251" cy="231" r="16" fill="#B6B9C1"/>
<path d="M278.2 238H276.72V224.1L287.12 235V224.66H288.6V238.6L278.2 227.7V238ZM297.833 235.22L299.033 235.88C298.753 236.413 298.413 236.86 298.013 237.22C297.253 237.9 296.333 238.24 295.253 238.24C294.133 238.24 293.166 237.88 292.353 237.16C291.553 236.427 291.153 235.34 291.153 233.9C291.153 232.633 291.513 231.587 292.233 230.76C292.966 229.92 293.946 229.5 295.173 229.5C296.559 229.5 297.606 230.007 298.313 231.02C298.873 231.82 299.133 232.86 299.093 234.14H292.633C292.646 234.98 292.906 235.66 293.413 236.18C293.919 236.7 294.539 236.96 295.273 236.96C295.926 236.96 296.493 236.76 296.973 236.36C297.346 236.04 297.633 235.66 297.833 235.22ZM292.733 232.94H297.613C297.493 232.287 297.206 231.767 296.753 231.38C296.313 230.98 295.786 230.78 295.173 230.78C294.573 230.78 294.039 230.987 293.573 231.4C293.119 231.8 292.839 232.313 292.733 232.94ZM302.741 229.7V234.54C302.741 235.38 302.875 235.973 303.141 236.32C303.475 236.747 303.961 236.96 304.601 236.96C305.241 236.96 305.728 236.747 306.061 236.32C306.328 235.973 306.461 235.38 306.461 234.54V229.7H307.901V234.7C307.901 235.82 307.648 236.653 307.141 237.2C306.488 237.893 305.641 238.24 304.601 238.24C303.561 238.24 302.715 237.893 302.061 237.2C301.555 236.653 301.301 235.82 301.301 234.7V229.7H302.741ZM310.618 238V229.7H312.058V230.6C312.524 229.867 313.151 229.5 313.938 229.5C314.338 229.5 314.764 229.613 315.218 229.84L314.538 231.14C314.271 230.953 313.991 230.86 313.698 230.86C313.191 230.86 312.804 231.033 312.538 231.38C312.218 231.807 312.058 232.553 312.058 233.62V238H310.618ZM322.466 230.88V229.7H323.906V238H322.466V236.84C321.746 237.773 320.799 238.24 319.626 238.24C318.506 238.24 317.553 237.853 316.766 237.08C315.979 236.307 315.586 235.227 315.586 233.84C315.586 232.48 315.973 231.42 316.746 230.66C317.533 229.887 318.493 229.5 319.626 229.5C320.826 229.5 321.773 229.96 322.466 230.88ZM319.786 230.78C319.026 230.78 318.379 231.053 317.846 231.6C317.326 232.133 317.066 232.88 317.066 233.84C317.066 234.76 317.306 235.513 317.786 236.1C318.279 236.673 318.946 236.96 319.786 236.96C320.626 236.96 321.293 236.66 321.786 236.06C322.293 235.46 322.546 234.727 322.546 233.86C322.546 232.873 322.266 232.113 321.706 231.58C321.146 231.047 320.506 230.78 319.786 230.78ZM326.633 223.42H328.073V238H326.633V223.42ZM340.822 224.34L341.942 225.18L338.882 229.44C339.255 229.32 339.648 229.26 340.062 229.26C341.328 229.26 342.362 229.68 343.162 230.52C343.975 231.36 344.382 232.407 344.382 233.66C344.382 234.993 343.948 236.093 343.082 236.96C342.228 237.813 341.135 238.24 339.802 238.24C338.815 238.24 337.955 238.007 337.222 237.54C336.502 237.06 335.982 236.487 335.662 235.82C335.342 235.14 335.182 234.433 335.182 233.7C335.182 232.687 335.548 231.667 336.282 230.64L340.822 224.34ZM339.782 236.88C340.688 236.88 341.435 236.58 342.022 235.98C342.608 235.367 342.902 234.607 342.902 233.7C342.902 232.807 342.602 232.073 342.002 231.5C341.415 230.913 340.668 230.62 339.762 230.62C338.855 230.62 338.108 230.913 337.522 231.5C336.948 232.087 336.662 232.82 336.662 233.7C336.662 234.607 336.948 235.367 337.522 235.98C338.108 236.58 338.862 236.88 339.782 236.88ZM354.569 236.24C353.649 237.573 352.509 238.24 351.149 238.24C349.789 238.24 348.649 237.573 347.729 236.24C346.835 234.947 346.389 233.313 346.389 231.34C346.389 229.367 346.835 227.733 347.729 226.44C348.649 225.107 349.789 224.44 351.149 224.44C352.509 224.44 353.649 225.107 354.569 226.44C355.462 227.733 355.909 229.367 355.909 231.34C355.909 233.313 355.462 234.947 354.569 236.24ZM353.449 227.28C352.835 226.293 352.069 225.8 351.149 225.8C350.229 225.8 349.462 226.293 348.849 227.28C348.195 228.32 347.869 229.673 347.869 231.34C347.869 233.007 348.195 234.36 348.849 235.4C349.462 236.387 350.229 236.88 351.149 236.88C352.069 236.88 352.835 236.387 353.449 235.4C354.102 234.36 354.429 233.007 354.429 231.34C354.429 229.673 354.102 228.32 353.449 227.28Z" fill="#0B1530"/>
<circle cx="110" cy="56" r="16" fill="white"/>
<path d="M142.308 63H140.268V48.76L149.948 58.9V49.66H151.988V63.82L142.308 53.68V63ZM160.73 60.16L162.37 61.08C161.997 61.7467 161.523 62.26 160.95 62.62C160.297 63.0467 159.47 63.26 158.47 63.26C157.297 63.26 156.35 62.9 155.63 62.18C154.803 61.3533 154.39 60.28 154.39 58.96C154.39 57.5733 154.837 56.42 155.73 55.5C156.49 54.74 157.43 54.36 158.55 54.36C159.643 54.36 160.543 54.7267 161.25 55.46C162.037 56.2733 162.43 57.46 162.43 59.02V59.26H156.39C156.443 59.9667 156.683 60.5333 157.11 60.96C157.47 61.32 157.97 61.5 158.61 61.5C159.13 61.5 159.577 61.36 159.95 61.08C160.257 60.84 160.517 60.5333 160.73 60.16ZM156.53 57.66H160.43C160.35 57.1933 160.15 56.8133 159.83 56.52C159.483 56.2 159.043 56.04 158.51 56.04C157.95 56.04 157.49 56.22 157.13 56.58C156.837 56.8467 156.637 57.2067 156.53 57.66ZM164.478 54.58H166.438V59.4C166.438 60.1067 166.558 60.6133 166.798 60.92C167.092 61.3067 167.518 61.5 168.078 61.5C168.638 61.5 169.065 61.3067 169.358 60.92C169.598 60.6133 169.718 60.1067 169.718 59.4V54.58H171.678V59.46C171.678 60.7 171.378 61.62 170.778 62.22C170.085 62.9133 169.172 63.26 168.038 63.26C166.945 63.26 166.058 62.9133 165.378 62.22C164.778 61.62 164.478 60.7 164.478 59.46V54.58ZM174.166 63V54.58H176.126V55.34C176.379 55.0467 176.652 54.8133 176.946 54.64C177.266 54.4533 177.666 54.36 178.146 54.36C178.719 54.36 179.232 54.4933 179.686 54.76L178.886 56.54C178.566 56.34 178.232 56.24 177.886 56.24C177.366 56.24 176.959 56.3933 176.666 56.7C176.306 57.0867 176.126 57.7333 176.126 58.64V63H174.166ZM186.537 55.56V54.58H188.497V63H186.537V62.12C185.883 62.88 185.043 63.26 184.017 63.26C182.777 63.26 181.783 62.82 181.037 61.94C180.303 61.06 179.937 60.0067 179.937 58.78C179.937 57.4467 180.33 56.38 181.117 55.58C181.917 54.7667 182.89 54.36 184.037 54.36C185.09 54.36 185.923 54.76 186.537 55.56ZM184.277 56.12C183.583 56.12 183.017 56.38 182.577 56.9C182.15 57.42 181.937 58.06 181.937 58.82C181.937 59.5667 182.15 60.2 182.577 60.72C183.017 61.24 183.583 61.5 184.277 61.5C184.943 61.5 185.503 61.2667 185.957 60.8C186.423 60.3333 186.657 59.68 186.657 58.84C186.657 57.9733 186.423 57.3067 185.957 56.84C185.503 56.36 184.943 56.12 184.277 56.12ZM190.982 48.42H192.942V63H190.982V48.42ZM198.964 54.58H201.164L203.344 59.4L205.704 53.86L208.064 59.4L210.244 54.58H212.444L208.064 63.6L205.704 58.22L203.344 63.6L198.964 54.58ZM213.795 63V48.42H215.755V55.3C216.368 54.6733 217.121 54.36 218.015 54.36C219.135 54.36 219.961 54.74 220.495 55.5C220.855 56.02 221.035 56.8 221.035 57.84V63H219.075V58.02C219.075 57.3267 218.948 56.84 218.695 56.56C218.428 56.2667 218.061 56.12 217.595 56.12C216.955 56.12 216.475 56.3533 216.155 56.82C215.888 57.2067 215.755 57.9133 215.755 58.94V63H213.795ZM223.521 54.58H225.481V63H223.521V54.58ZM223.601 52C223.361 51.76 223.241 51.46 223.241 51.1C223.241 50.74 223.361 50.44 223.601 50.2C223.841 49.96 224.141 49.84 224.501 49.84C224.861 49.84 225.161 49.96 225.401 50.2C225.641 50.44 225.761 50.74 225.761 51.1C225.761 51.46 225.641 51.76 225.401 52C225.161 52.24 224.861 52.36 224.501 52.36C224.141 52.36 223.841 52.24 223.601 52ZM231.475 56.38H229.975V63H228.015V56.38H227.195V54.58H228.015V51.5H229.975V54.58H231.475V56.38ZM238.699 60.16L240.339 61.08C239.965 61.7467 239.492 62.26 238.919 62.62C238.265 63.0467 237.439 63.26 236.439 63.26C235.265 63.26 234.319 62.9 233.599 62.18C232.772 61.3533 232.359 60.28 232.359 58.96C232.359 57.5733 232.805 56.42 233.699 55.5C234.459 54.74 235.399 54.36 236.519 54.36C237.612 54.36 238.512 54.7267 239.219 55.46C240.005 56.2733 240.399 57.46 240.399 59.02V59.26H234.359C234.412 59.9667 234.652 60.5333 235.079 60.96C235.439 61.32 235.939 61.5 236.579 61.5C237.099 61.5 237.545 61.36 237.919 61.08C238.225 60.84 238.485 60.5333 238.699 60.16ZM234.499 57.66H238.399C238.319 57.1933 238.119 56.8133 237.799 56.52C237.452 56.2 237.012 56.04 236.479 56.04C235.919 56.04 235.459 56.22 235.099 56.58C234.805 56.8467 234.605 57.2067 234.499 57.66Z" fill="#0B1530"/>
<line x1="109.5" y1="120" x2="109.5" y2="80" stroke="black"/>
</svg>
