<svg width="409" height="331" viewBox="0 0 409 331" fill="none" xmlns="http://www.w3.org/2000/svg">
<rect width="409" height="331" rx="24" fill="#F5F6F8"/>
<rect x="57.5" y="111.5" width="255" height="39" rx="7.5" fill="white"/>
<rect x="57.5" y="111.5" width="255" height="39" rx="7.5" stroke="#0B1530"/>
<path d="M70.72 124.66H80.52V138H79.04V126.06H72.2V138H70.72V124.66ZM90.6222 137C89.7955 137.827 88.7489 138.24 87.4822 138.24C86.2155 138.24 85.1622 137.827 84.3222 137C83.4955 136.173 83.0822 135.133 83.0822 133.88C83.0822 132.613 83.4955 131.567 84.3222 130.74C85.1622 129.913 86.2155 129.5 87.4822 129.5C88.7489 129.5 89.7955 129.913 90.6222 130.74C91.4622 131.567 91.8822 132.613 91.8822 133.88C91.8822 135.133 91.4622 136.173 90.6222 137ZM89.5422 131.6C88.9822 131.053 88.2955 130.78 87.4822 130.78C86.6689 130.78 85.9755 131.06 85.4022 131.62C84.8422 132.167 84.5622 132.92 84.5622 133.88C84.5622 134.84 84.8489 135.593 85.4222 136.14C85.9955 136.687 86.6822 136.96 87.4822 136.96C88.2822 136.96 88.9689 136.687 89.5422 136.14C90.1155 135.593 90.4022 134.84 90.4022 133.88C90.4022 132.907 90.1155 132.147 89.5422 131.6ZM94.6905 129.7H100.53V136.68H101.77V140.2H100.45V138H94.1305V140.2H92.8105V136.68C93.5038 136.667 94.0171 136.307 94.3505 135.6C94.5771 135.133 94.6905 134.4 94.6905 133.4V129.7ZM99.0905 136.68V131.02H96.1305V134.14C96.1305 135.247 95.7971 136.093 95.1305 136.68H99.0905ZM109.79 130.3V132.02C109.136 131.193 108.27 130.78 107.19 130.78C106.376 130.78 105.683 131.06 105.11 131.62C104.536 132.167 104.25 132.92 104.25 133.88C104.25 134.84 104.536 135.593 105.11 136.14C105.683 136.687 106.37 136.96 107.17 136.96C108.236 136.96 109.13 136.527 109.85 135.66V137.38C109.063 137.953 108.183 138.24 107.21 138.24C105.916 138.24 104.85 137.833 104.01 137.02C103.183 136.193 102.77 135.153 102.77 133.9C102.77 132.633 103.19 131.587 104.03 130.76C104.87 129.92 105.93 129.5 107.21 129.5C108.17 129.5 109.03 129.767 109.79 130.3ZM112.059 129.7H113.499V133.1L116.859 129.7H118.619L115.019 133.4L119.059 138H117.179L113.939 134.36L113.499 134.78V138H112.059V129.7ZM126.857 130.88V129.7H128.297V138H126.857V136.84C126.137 137.773 125.19 138.24 124.017 138.24C122.897 138.24 121.943 137.853 121.157 137.08C120.37 136.307 119.977 135.227 119.977 133.84C119.977 132.48 120.363 131.42 121.137 130.66C121.923 129.887 122.883 129.5 124.017 129.5C125.217 129.5 126.163 129.96 126.857 130.88ZM124.177 130.78C123.417 130.78 122.77 131.053 122.237 131.6C121.717 132.133 121.457 132.88 121.457 133.84C121.457 134.76 121.697 135.513 122.177 136.1C122.67 136.673 123.337 136.96 124.177 136.96C125.017 136.96 125.683 136.66 126.177 136.06C126.683 135.46 126.937 134.727 126.937 133.86C126.937 132.873 126.657 132.113 126.097 131.58C125.537 131.047 124.897 130.78 124.177 130.78ZM132.104 131.82L131.104 131C131.424 130.533 131.777 130.187 132.164 129.96C132.684 129.653 133.291 129.5 133.984 129.5C134.824 129.5 135.477 129.693 135.944 130.08C136.424 130.493 136.664 131.02 136.664 131.66C136.664 132.433 136.351 133.013 135.724 133.4C136.124 133.493 136.444 133.673 136.684 133.94C137.071 134.353 137.264 134.86 137.264 135.46C137.264 136.353 136.904 137.067 136.184 137.6C135.597 138.027 134.811 138.24 133.824 138.24C132.944 138.24 132.204 138.007 131.604 137.54C131.151 137.207 130.784 136.733 130.504 136.12L131.744 135.6C131.891 135.973 132.137 136.287 132.484 136.54C132.857 136.82 133.311 136.96 133.844 136.96C134.471 136.96 134.937 136.853 135.244 136.64C135.631 136.387 135.824 136 135.824 135.48C135.824 135.053 135.657 134.733 135.324 134.52C135.044 134.333 134.591 134.24 133.964 134.24H133.124V132.92H133.824C134.331 132.92 134.691 132.847 134.904 132.7C135.197 132.513 135.344 132.26 135.344 131.94C135.344 131.567 135.224 131.28 134.984 131.08C134.757 130.88 134.404 130.78 133.924 130.78C133.511 130.78 133.131 130.887 132.784 131.1C132.491 131.287 132.264 131.527 132.104 131.82ZM139.462 129.7H140.902V133.1L144.262 129.7H146.022L142.422 133.4L146.462 138H144.582L141.342 134.36L140.902 134.78V138H139.462V129.7ZM154.259 130.88V129.7H155.699V138H154.259V136.84C153.539 137.773 152.592 138.24 151.419 138.24C150.299 138.24 149.346 137.853 148.559 137.08C147.772 136.307 147.379 135.227 147.379 133.84C147.379 132.48 147.766 131.42 148.539 130.66C149.326 129.887 150.286 129.5 151.419 129.5C152.619 129.5 153.566 129.96 154.259 130.88ZM151.579 130.78C150.819 130.78 150.172 131.053 149.639 131.6C149.119 132.133 148.859 132.88 148.859 133.84C148.859 134.76 149.099 135.513 149.579 136.1C150.072 136.673 150.739 136.96 151.579 136.96C152.419 136.96 153.086 136.66 153.579 136.06C154.086 135.46 154.339 134.727 154.339 133.86C154.339 132.873 154.059 132.113 153.499 131.58C152.939 131.047 152.299 130.78 151.579 130.78Z" fill="#B6B9C1"/>
<path d="M69 117V145" stroke="black" stroke-linecap="round"/>
<path d="M68.7464 178.325C71.7955 178.325 74.2659 180.797 74.2659 183.845C74.2659 186.894 71.7952 189.365 68.7464 189.365C65.6977 189.365 63.2267 186.894 63.2267 183.845C63.2267 180.797 65.6977 178.325 68.7464 178.325ZM66.8996 174C66.0654 174 65.8196 174.804 65.3949 175.553L65.1349 176.01H60.3057C59.0268 176.01 58 177.072 58 178.389V188.994C58 190.311 59.0271 191.371 60.3057 191.371H77.1889C78.4661 191.371 79.4945 190.311 79.4945 188.994V178.389C79.4945 177.072 78.4658 176.01 77.1889 176.01H72.3593L72.0993 175.553C71.6743 174.804 71.4288 174 70.5946 174H66.8996Z" fill="#6C7383"/>
<path d="M68.7451 187.242C70.6221 187.242 72.1436 185.721 72.1436 183.844C72.1436 181.967 70.6221 180.445 68.7451 180.445C66.8682 180.445 65.3467 181.967 65.3467 183.844C65.3467 185.721 66.8682 187.242 68.7451 187.242Z" fill="#6C7383"/>
<path d="M92.14 179.28L91 178.38C91.8667 177.087 93.14 176.44 94.82 176.44C96.02 176.44 96.96 176.753 97.64 177.38C98.3333 178.007 98.68 178.827 98.68 179.84C98.68 180.493 98.5067 181.067 98.16 181.56C97.8267 182.04 97.3867 182.407 96.84 182.66C97.7067 182.86 98.3667 183.273 98.82 183.9C99.2867 184.527 99.52 185.26 99.52 186.1C99.52 187.487 98.9667 188.573 97.86 189.36C97.0067 189.947 95.9933 190.24 94.82 190.24C93.6067 190.24 92.6 189.933 91.8 189.32C91 188.707 90.4 187.947 90 187.04L91.44 186.4C91.7067 187.147 92.1467 187.74 92.76 188.18C93.3733 188.62 94.08 188.84 94.88 188.84C95.6933 188.84 96.3733 188.653 96.92 188.28C97.64 187.773 98 187.06 98 186.14C98 184.393 96.8133 183.52 94.44 183.52H93.24V182.12H94.44C95.32 182.12 95.9933 181.907 96.46 181.48C96.9267 181.053 97.16 180.513 97.16 179.86C97.16 179.287 96.98 178.82 96.62 178.46C96.22 178.047 95.62 177.84 94.82 177.84C93.7 177.84 92.8067 178.32 92.14 179.28ZM108.243 182.88V181.7H109.683V190H108.243V188.84C107.523 189.773 106.577 190.24 105.403 190.24C104.283 190.24 103.33 189.853 102.543 189.08C101.757 188.307 101.363 187.227 101.363 185.84C101.363 184.48 101.75 183.42 102.523 182.66C103.31 181.887 104.27 181.5 105.403 181.5C106.603 181.5 107.55 181.96 108.243 182.88ZM105.563 182.78C104.803 182.78 104.157 183.053 103.623 183.6C103.103 184.133 102.843 184.88 102.843 185.84C102.843 186.76 103.083 187.513 103.563 188.1C104.057 188.673 104.723 188.96 105.563 188.96C106.403 188.96 107.07 188.66 107.563 188.06C108.07 187.46 108.323 186.727 108.323 185.86C108.323 184.873 108.043 184.113 107.483 183.58C106.923 183.047 106.283 182.78 105.563 182.78ZM112.411 190V181.7H117.331V183.02H113.851V190H112.411ZM120.218 188.84V194.6H118.778V181.7H120.218V182.86C120.951 181.953 121.898 181.5 123.058 181.5C124.298 181.5 125.278 181.94 125.998 182.82C126.731 183.687 127.098 184.713 127.098 185.9C127.098 187.1 126.738 188.127 126.018 188.98C125.298 189.82 124.331 190.24 123.118 190.24C121.905 190.24 120.938 189.773 120.218 188.84ZM122.918 188.96C123.731 188.96 124.385 188.667 124.878 188.08C125.371 187.48 125.618 186.753 125.618 185.9C125.618 184.94 125.345 184.18 124.798 183.62C124.251 183.06 123.618 182.78 122.898 182.78C122.178 182.78 121.538 183.06 120.978 183.62C120.418 184.18 120.138 184.933 120.138 185.88C120.138 186.747 120.391 187.48 120.898 188.08C121.418 188.667 122.091 188.96 122.918 188.96ZM129.285 194.6L131.925 189.22L128.105 181.7H129.745L132.685 187.64L135.385 181.7H136.985L130.885 194.6H129.285ZM139.194 183.82L138.194 183C138.514 182.533 138.867 182.187 139.254 181.96C139.774 181.653 140.381 181.5 141.074 181.5C141.914 181.5 142.567 181.693 143.034 182.08C143.514 182.493 143.754 183.02 143.754 183.66C143.754 184.433 143.441 185.013 142.814 185.4C143.214 185.493 143.534 185.673 143.774 185.94C144.161 186.353 144.354 186.86 144.354 187.46C144.354 188.353 143.994 189.067 143.274 189.6C142.687 190.027 141.901 190.24 140.914 190.24C140.034 190.24 139.294 190.007 138.694 189.54C138.241 189.207 137.874 188.733 137.594 188.12L138.834 187.6C138.981 187.973 139.227 188.287 139.574 188.54C139.947 188.82 140.401 188.96 140.934 188.96C141.561 188.96 142.027 188.853 142.334 188.64C142.721 188.387 142.914 188 142.914 187.48C142.914 187.053 142.747 186.733 142.414 186.52C142.134 186.333 141.681 186.24 141.054 186.24H140.214V184.92H140.914C141.421 184.92 141.781 184.847 141.994 184.7C142.287 184.513 142.434 184.26 142.434 183.94C142.434 183.567 142.314 183.28 142.074 183.08C141.847 182.88 141.494 182.78 141.014 182.78C140.601 182.78 140.221 182.887 139.874 183.1C139.581 183.287 139.354 183.527 139.194 183.82ZM146.551 181.7H147.991V187.18L153.671 181.06V190H152.231V184.46L146.551 190.58V181.7ZM161.835 183.02H159.235V190H157.795V183.02H155.195V181.7H161.835V183.02ZM169.313 187.22L170.513 187.88C170.233 188.413 169.893 188.86 169.493 189.22C168.733 189.9 167.813 190.24 166.733 190.24C165.613 190.24 164.646 189.88 163.833 189.16C163.033 188.427 162.633 187.34 162.633 185.9C162.633 184.633 162.993 183.587 163.713 182.76C164.446 181.92 165.426 181.5 166.653 181.5C168.04 181.5 169.086 182.007 169.793 183.02C170.353 183.82 170.613 184.86 170.573 186.14H164.113C164.126 186.98 164.386 187.66 164.893 188.18C165.4 188.7 166.02 188.96 166.753 188.96C167.406 188.96 167.973 188.76 168.453 188.36C168.826 188.04 169.113 187.66 169.313 187.22ZM164.213 184.94H169.093C168.973 184.287 168.686 183.767 168.233 183.38C167.793 182.98 167.266 182.78 166.653 182.78C166.053 182.78 165.52 182.987 165.053 183.4C164.6 183.8 164.32 184.313 164.213 184.94ZM181.87 194.6V190.14C180.417 190.14 179.25 189.78 178.37 189.06C177.41 188.287 176.93 187.213 176.93 185.84C176.93 184.48 177.403 183.413 178.35 182.64C179.203 181.92 180.377 181.56 181.87 181.56V176.66H183.31V181.56C184.803 181.56 185.977 181.92 186.83 182.64C187.777 183.413 188.25 184.48 188.25 185.84C188.25 187.213 187.77 188.287 186.81 189.06C185.93 189.78 184.763 190.14 183.31 190.14V194.6H181.87ZM181.87 188.86V182.84C180.923 182.84 180.183 183.013 179.65 183.36C178.823 183.88 178.41 184.707 178.41 185.84C178.41 186.907 178.797 187.713 179.57 188.26C180.13 188.66 180.897 188.86 181.87 188.86ZM183.31 182.84V188.86C184.283 188.86 185.05 188.66 185.61 188.26C186.383 187.713 186.77 186.907 186.77 185.84C186.77 184.707 186.357 183.88 185.53 183.36C184.997 183.013 184.257 182.84 183.31 182.84ZM197.478 189C196.651 189.827 195.604 190.24 194.338 190.24C193.071 190.24 192.018 189.827 191.178 189C190.351 188.173 189.938 187.133 189.938 185.88C189.938 184.613 190.351 183.567 191.178 182.74C192.018 181.913 193.071 181.5 194.338 181.5C195.604 181.5 196.651 181.913 197.478 182.74C198.318 183.567 198.738 184.613 198.738 185.88C198.738 187.133 198.318 188.173 197.478 189ZM196.398 183.6C195.838 183.053 195.151 182.78 194.338 182.78C193.524 182.78 192.831 183.06 192.258 183.62C191.698 184.167 191.418 184.92 191.418 185.88C191.418 186.84 191.704 187.593 192.278 188.14C192.851 188.687 193.538 188.96 194.338 188.96C195.138 188.96 195.824 188.687 196.398 188.14C196.971 187.593 197.258 186.84 197.258 185.88C197.258 184.907 196.971 184.147 196.398 183.6ZM206.191 183.02H203.591V190H202.151V183.02H199.551V181.7H206.191V183.02ZM214.528 189C213.702 189.827 212.655 190.24 211.388 190.24C210.122 190.24 209.068 189.827 208.228 189C207.402 188.173 206.988 187.133 206.988 185.88C206.988 184.613 207.402 183.567 208.228 182.74C209.068 181.913 210.122 181.5 211.388 181.5C212.655 181.5 213.702 181.913 214.528 182.74C215.368 183.567 215.788 184.613 215.788 185.88C215.788 187.133 215.368 188.173 214.528 189ZM213.448 183.6C212.888 183.053 212.202 182.78 211.388 182.78C210.575 182.78 209.882 183.06 209.308 183.62C208.748 184.167 208.468 184.92 208.468 185.88C208.468 186.84 208.755 187.593 209.328 188.14C209.902 188.687 210.588 188.96 211.388 188.96C212.188 188.96 212.875 188.687 213.448 188.14C214.022 187.593 214.308 186.84 214.308 185.88C214.308 184.907 214.022 184.147 213.448 183.6ZM217.997 190V181.7H222.917V183.02H219.437V190H217.997ZM225.804 188.84V194.6H224.364V181.7H225.804V182.86C226.537 181.953 227.484 181.5 228.644 181.5C229.884 181.5 230.864 181.94 231.584 182.82C232.317 183.687 232.684 184.713 232.684 185.9C232.684 187.1 232.324 188.127 231.604 188.98C230.884 189.82 229.917 190.24 228.704 190.24C227.491 190.24 226.524 189.773 225.804 188.84ZM228.504 188.96C229.317 188.96 229.971 188.667 230.464 188.08C230.957 187.48 231.204 186.753 231.204 185.9C231.204 184.94 230.931 184.18 230.384 183.62C229.837 183.06 229.204 182.78 228.484 182.78C227.764 182.78 227.124 183.06 226.564 183.62C226.004 184.18 225.724 184.933 225.724 185.88C225.724 186.747 225.977 187.48 226.484 188.08C227.004 188.667 227.677 188.96 228.504 188.96ZM241.251 182.88V181.7H242.691V190H241.251V188.84C240.531 189.773 239.585 190.24 238.411 190.24C237.291 190.24 236.338 189.853 235.551 189.08C234.765 188.307 234.371 187.227 234.371 185.84C234.371 184.48 234.758 183.42 235.531 182.66C236.318 181.887 237.278 181.5 238.411 181.5C239.611 181.5 240.558 181.96 241.251 182.88ZM238.571 182.78C237.811 182.78 237.165 183.053 236.631 183.6C236.111 184.133 235.851 184.88 235.851 185.84C235.851 186.76 236.091 187.513 236.571 188.1C237.065 188.673 237.731 188.96 238.571 188.96C239.411 188.96 240.078 188.66 240.571 188.06C241.078 187.46 241.331 186.727 241.331 185.86C241.331 184.873 241.051 184.113 240.491 183.58C239.931 183.047 239.291 182.78 238.571 182.78ZM249.839 194.6V190.14C248.385 190.14 247.219 189.78 246.339 189.06C245.379 188.287 244.899 187.213 244.899 185.84C244.899 184.48 245.372 183.413 246.319 182.64C247.172 181.92 248.345 181.56 249.839 181.56V176.66H251.279V181.56C252.772 181.56 253.945 181.92 254.799 182.64C255.745 183.413 256.219 184.48 256.219 185.84C256.219 187.213 255.739 188.287 254.779 189.06C253.899 189.78 252.732 190.14 251.279 190.14V194.6H249.839ZM249.839 188.86V182.84C248.892 182.84 248.152 183.013 247.619 183.36C246.792 183.88 246.379 184.707 246.379 185.84C246.379 186.907 246.765 187.713 247.539 188.26C248.099 188.66 248.865 188.86 249.839 188.86ZM251.279 182.84V188.86C252.252 188.86 253.019 188.66 253.579 188.26C254.352 187.713 254.739 186.907 254.739 185.84C254.739 184.707 254.325 183.88 253.499 183.36C252.965 183.013 252.225 182.84 251.279 182.84ZM258.426 181.7H259.866V187.18L265.546 181.06V190H264.106V184.46L258.426 190.58V181.7ZM269.71 185.1H271.21C271.343 184.167 271.717 183.38 272.33 182.74C273.117 181.913 274.163 181.5 275.47 181.5C276.75 181.5 277.803 181.913 278.63 182.74C279.457 183.567 279.87 184.613 279.87 185.88C279.87 187.133 279.45 188.173 278.61 189C277.783 189.827 276.737 190.24 275.47 190.24C274.017 190.24 272.877 189.72 272.05 188.68C271.517 188.013 271.21 187.26 271.13 186.42H269.71V190H268.27V181.7H269.71V185.1ZM275.47 182.78C274.67 182.78 273.99 183.06 273.43 183.62C272.883 184.167 272.61 184.92 272.61 185.88C272.61 186.853 272.89 187.613 273.45 188.16C274.01 188.693 274.683 188.96 275.47 188.96C276.27 188.96 276.957 188.687 277.53 188.14C278.103 187.593 278.39 186.84 278.39 185.88C278.39 184.92 278.103 184.167 277.53 183.62C276.97 183.06 276.283 182.78 275.47 182.78Z" fill="#0B1530"/>
<circle cx="110" cy="56" r="16" fill="#B6B9C1"/>
<path d="M137.2 63H135.72V49.1L146.12 60V49.66H147.6V63.6L137.2 52.7V63ZM156.833 60.22L158.033 60.88C157.753 61.4133 157.413 61.86 157.013 62.22C156.253 62.9 155.333 63.24 154.253 63.24C153.133 63.24 152.166 62.88 151.353 62.16C150.553 61.4267 150.153 60.34 150.153 58.9C150.153 57.6333 150.513 56.5867 151.233 55.76C151.966 54.92 152.946 54.5 154.173 54.5C155.559 54.5 156.606 55.0067 157.313 56.02C157.873 56.82 158.133 57.86 158.093 59.14H151.633C151.646 59.98 151.906 60.66 152.413 61.18C152.919 61.7 153.539 61.96 154.273 61.96C154.926 61.96 155.493 61.76 155.973 61.36C156.346 61.04 156.633 60.66 156.833 60.22ZM151.733 57.94H156.613C156.493 57.2867 156.206 56.7667 155.753 56.38C155.313 55.98 154.786 55.78 154.173 55.78C153.573 55.78 153.039 55.9867 152.573 56.4C152.119 56.8 151.839 57.3133 151.733 57.94ZM161.741 54.7V59.54C161.741 60.38 161.875 60.9733 162.141 61.32C162.475 61.7467 162.961 61.96 163.601 61.96C164.241 61.96 164.728 61.7467 165.061 61.32C165.328 60.9733 165.461 60.38 165.461 59.54V54.7H166.901V59.7C166.901 60.82 166.648 61.6533 166.141 62.2C165.488 62.8933 164.641 63.24 163.601 63.24C162.561 63.24 161.715 62.8933 161.061 62.2C160.555 61.6533 160.301 60.82 160.301 59.7V54.7H161.741ZM169.618 63V54.7H171.058V55.6C171.524 54.8667 172.151 54.5 172.938 54.5C173.338 54.5 173.764 54.6133 174.218 54.84L173.538 56.14C173.271 55.9533 172.991 55.86 172.698 55.86C172.191 55.86 171.804 56.0333 171.538 56.38C171.218 56.8067 171.058 57.5533 171.058 58.62V63H169.618ZM181.466 55.88V54.7H182.906V63H181.466V61.84C180.746 62.7733 179.799 63.24 178.626 63.24C177.506 63.24 176.553 62.8533 175.766 62.08C174.979 61.3067 174.586 60.2267 174.586 58.84C174.586 57.48 174.973 56.42 175.746 55.66C176.533 54.8867 177.493 54.5 178.626 54.5C179.826 54.5 180.773 54.96 181.466 55.88ZM178.786 55.78C178.026 55.78 177.379 56.0533 176.846 56.6C176.326 57.1333 176.066 57.88 176.066 58.84C176.066 59.76 176.306 60.5133 176.786 61.1C177.279 61.6733 177.946 61.96 178.786 61.96C179.626 61.96 180.293 61.66 180.786 61.06C181.293 60.46 181.546 59.7267 181.546 58.86C181.546 57.8733 181.266 57.1133 180.706 56.58C180.146 56.0467 179.506 55.78 178.786 55.78ZM185.633 48.42H187.073V63H185.633V48.42ZM199.822 49.34L200.942 50.18L197.882 54.44C198.255 54.32 198.648 54.26 199.062 54.26C200.328 54.26 201.362 54.68 202.162 55.52C202.975 56.36 203.382 57.4067 203.382 58.66C203.382 59.9933 202.948 61.0933 202.082 61.96C201.228 62.8133 200.135 63.24 198.802 63.24C197.815 63.24 196.955 63.0067 196.222 62.54C195.502 62.06 194.982 61.4867 194.662 60.82C194.342 60.14 194.182 59.4333 194.182 58.7C194.182 57.6867 194.548 56.6667 195.282 55.64L199.822 49.34ZM198.782 61.88C199.688 61.88 200.435 61.58 201.022 60.98C201.608 60.3667 201.902 59.6067 201.902 58.7C201.902 57.8067 201.602 57.0733 201.002 56.5C200.415 55.9133 199.668 55.62 198.762 55.62C197.855 55.62 197.108 55.9133 196.522 56.5C195.948 57.0867 195.662 57.82 195.662 58.7C195.662 59.6067 195.948 60.3667 196.522 60.98C197.108 61.58 197.862 61.88 198.782 61.88ZM213.569 61.24C212.649 62.5733 211.509 63.24 210.149 63.24C208.789 63.24 207.649 62.5733 206.729 61.24C205.835 59.9467 205.389 58.3133 205.389 56.34C205.389 54.3667 205.835 52.7333 206.729 51.44C207.649 50.1067 208.789 49.44 210.149 49.44C211.509 49.44 212.649 50.1067 213.569 51.44C214.462 52.7333 214.909 54.3667 214.909 56.34C214.909 58.3133 214.462 59.9467 213.569 61.24ZM212.449 52.28C211.835 51.2933 211.069 50.8 210.149 50.8C209.229 50.8 208.462 51.2933 207.849 52.28C207.195 53.32 206.869 54.6733 206.869 56.34C206.869 58.0067 207.195 59.36 207.849 60.4C208.462 61.3867 209.229 61.88 210.149 61.88C211.069 61.88 211.835 61.3867 212.449 60.4C213.102 59.36 213.429 58.0067 213.429 56.34C213.429 54.6733 213.102 53.32 212.449 52.28Z" fill="#0B1530"/>
<line x1="109.5" y1="120" x2="109.5" y2="80" stroke="black"/>
<line x1="67.5" y1="235" x2="67.5" y2="195" stroke="black"/>
<circle cx="68" cy="259" r="16" fill="#6C7383"/>
<path d="M95.2 266H93.72V252.1L104.12 263V252.66H105.6V266.6L95.2 255.7V266ZM114.833 263.22L116.033 263.88C115.753 264.413 115.413 264.86 115.013 265.22C114.253 265.9 113.333 266.24 112.253 266.24C111.133 266.24 110.166 265.88 109.353 265.16C108.553 264.427 108.153 263.34 108.153 261.9C108.153 260.633 108.513 259.587 109.233 258.76C109.966 257.92 110.946 257.5 112.173 257.5C113.559 257.5 114.606 258.007 115.313 259.02C115.873 259.82 116.133 260.86 116.093 262.14H109.633C109.646 262.98 109.906 263.66 110.413 264.18C110.919 264.7 111.539 264.96 112.273 264.96C112.926 264.96 113.493 264.76 113.973 264.36C114.346 264.04 114.633 263.66 114.833 263.22ZM109.733 260.94H114.613C114.493 260.287 114.206 259.767 113.753 259.38C113.313 258.98 112.786 258.78 112.173 258.78C111.573 258.78 111.039 258.987 110.573 259.4C110.119 259.8 109.839 260.313 109.733 260.94ZM119.741 257.7V262.54C119.741 263.38 119.875 263.973 120.141 264.32C120.475 264.747 120.961 264.96 121.601 264.96C122.241 264.96 122.728 264.747 123.061 264.32C123.328 263.973 123.461 263.38 123.461 262.54V257.7H124.901V262.7C124.901 263.82 124.648 264.653 124.141 265.2C123.488 265.893 122.641 266.24 121.601 266.24C120.561 266.24 119.715 265.893 119.061 265.2C118.555 264.653 118.301 263.82 118.301 262.7V257.7H119.741ZM127.618 266V257.7H129.058V258.6C129.524 257.867 130.151 257.5 130.938 257.5C131.338 257.5 131.764 257.613 132.218 257.84L131.538 259.14C131.271 258.953 130.991 258.86 130.698 258.86C130.191 258.86 129.804 259.033 129.538 259.38C129.218 259.807 129.058 260.553 129.058 261.62V266H127.618ZM139.466 258.88V257.7H140.906V266H139.466V264.84C138.746 265.773 137.799 266.24 136.626 266.24C135.506 266.24 134.553 265.853 133.766 265.08C132.979 264.307 132.586 263.227 132.586 261.84C132.586 260.48 132.973 259.42 133.746 258.66C134.533 257.887 135.493 257.5 136.626 257.5C137.826 257.5 138.773 257.96 139.466 258.88ZM136.786 258.78C136.026 258.78 135.379 259.053 134.846 259.6C134.326 260.133 134.066 260.88 134.066 261.84C134.066 262.76 134.306 263.513 134.786 264.1C135.279 264.673 135.946 264.96 136.786 264.96C137.626 264.96 138.293 264.66 138.786 264.06C139.293 263.46 139.546 262.727 139.546 261.86C139.546 260.873 139.266 260.113 138.706 259.58C138.146 259.047 137.506 258.78 136.786 258.78ZM143.633 251.42H145.073V266H143.633V251.42ZM152.142 265.54L159.722 254.02H152.422V252.66H162.222L153.302 266.32L152.142 265.54ZM170.573 264.24C169.653 265.573 168.513 266.24 167.153 266.24C165.793 266.24 164.653 265.573 163.733 264.24C162.839 262.947 162.393 261.313 162.393 259.34C162.393 257.367 162.839 255.733 163.733 254.44C164.653 253.107 165.793 252.44 167.153 252.44C168.513 252.44 169.653 253.107 170.573 254.44C171.466 255.733 171.913 257.367 171.913 259.34C171.913 261.313 171.466 262.947 170.573 264.24ZM169.453 255.28C168.839 254.293 168.073 253.8 167.153 253.8C166.233 253.8 165.466 254.293 164.853 255.28C164.199 256.32 163.873 257.673 163.873 259.34C163.873 261.007 164.199 262.36 164.853 263.4C165.466 264.387 166.233 264.88 167.153 264.88C168.073 264.88 168.839 264.387 169.453 263.4C170.106 262.36 170.433 261.007 170.433 259.34C170.433 257.673 170.106 256.32 169.453 255.28Z" fill="#0B1530"/>
<line x1="239.5" y1="235" x2="239.5" y2="195" stroke="black"/>
<circle cx="240" cy="259" r="16" fill="#0B1530"/>
<path d="M267.2 266H265.72V252.1L276.12 263V252.66H277.6V266.6L267.2 255.7V266ZM286.833 263.22L288.033 263.88C287.753 264.413 287.413 264.86 287.013 265.22C286.253 265.9 285.333 266.24 284.253 266.24C283.133 266.24 282.166 265.88 281.353 265.16C280.553 264.427 280.153 263.34 280.153 261.9C280.153 260.633 280.513 259.587 281.233 258.76C281.966 257.92 282.946 257.5 284.173 257.5C285.559 257.5 286.606 258.007 287.313 259.02C287.873 259.82 288.133 260.86 288.093 262.14H281.633C281.646 262.98 281.906 263.66 282.413 264.18C282.919 264.7 283.539 264.96 284.273 264.96C284.926 264.96 285.493 264.76 285.973 264.36C286.346 264.04 286.633 263.66 286.833 263.22ZM281.733 260.94H286.613C286.493 260.287 286.206 259.767 285.753 259.38C285.313 258.98 284.786 258.78 284.173 258.78C283.573 258.78 283.039 258.987 282.573 259.4C282.119 259.8 281.839 260.313 281.733 260.94ZM291.741 257.7V262.54C291.741 263.38 291.875 263.973 292.141 264.32C292.475 264.747 292.961 264.96 293.601 264.96C294.241 264.96 294.728 264.747 295.061 264.32C295.328 263.973 295.461 263.38 295.461 262.54V257.7H296.901V262.7C296.901 263.82 296.648 264.653 296.141 265.2C295.488 265.893 294.641 266.24 293.601 266.24C292.561 266.24 291.715 265.893 291.061 265.2C290.555 264.653 290.301 263.82 290.301 262.7V257.7H291.741ZM299.618 266V257.7H301.058V258.6C301.524 257.867 302.151 257.5 302.938 257.5C303.338 257.5 303.764 257.613 304.218 257.84L303.538 259.14C303.271 258.953 302.991 258.86 302.698 258.86C302.191 258.86 301.804 259.033 301.538 259.38C301.218 259.807 301.058 260.553 301.058 261.62V266H299.618ZM311.466 258.88V257.7H312.906V266H311.466V264.84C310.746 265.773 309.799 266.24 308.626 266.24C307.506 266.24 306.553 265.853 305.766 265.08C304.979 264.307 304.586 263.227 304.586 261.84C304.586 260.48 304.973 259.42 305.746 258.66C306.533 257.887 307.493 257.5 308.626 257.5C309.826 257.5 310.773 257.96 311.466 258.88ZM308.786 258.78C308.026 258.78 307.379 259.053 306.846 259.6C306.326 260.133 306.066 260.88 306.066 261.84C306.066 262.76 306.306 263.513 306.786 264.1C307.279 264.673 307.946 264.96 308.786 264.96C309.626 264.96 310.293 264.66 310.786 264.06C311.293 263.46 311.546 262.727 311.546 261.86C311.546 260.873 311.266 260.113 310.706 259.58C310.146 259.047 309.506 258.78 308.786 258.78ZM315.633 251.42H317.073V266H315.633V251.42ZM328.422 266V254.06H326.182L326.962 252.66H329.902V266H328.422ZM342.299 264.24C341.379 265.573 340.239 266.24 338.879 266.24C337.519 266.24 336.379 265.573 335.459 264.24C334.566 262.947 334.119 261.313 334.119 259.34C334.119 257.367 334.566 255.733 335.459 254.44C336.379 253.107 337.519 252.44 338.879 252.44C340.239 252.44 341.379 253.107 342.299 254.44C343.193 255.733 343.639 257.367 343.639 259.34C343.639 261.313 343.193 262.947 342.299 264.24ZM341.179 255.28C340.566 254.293 339.799 253.8 338.879 253.8C337.959 253.8 337.193 254.293 336.579 255.28C335.926 256.32 335.599 257.673 335.599 259.34C335.599 261.007 335.926 262.36 336.579 263.4C337.193 264.387 337.959 264.88 338.879 264.88C339.799 264.88 340.566 264.387 341.179 263.4C341.833 262.36 342.159 261.007 342.159 259.34C342.159 257.673 341.833 256.32 341.179 255.28ZM353.666 264.24C352.746 265.573 351.606 266.24 350.246 266.24C348.886 266.24 347.746 265.573 346.826 264.24C345.933 262.947 345.486 261.313 345.486 259.34C345.486 257.367 345.933 255.733 346.826 254.44C347.746 253.107 348.886 252.44 350.246 252.44C351.606 252.44 352.746 253.107 353.666 254.44C354.56 255.733 355.006 257.367 355.006 259.34C355.006 261.313 354.56 262.947 353.666 264.24ZM352.546 255.28C351.933 254.293 351.166 253.8 350.246 253.8C349.326 253.8 348.56 254.293 347.946 255.28C347.293 256.32 346.966 257.673 346.966 259.34C346.966 261.007 347.293 262.36 347.946 263.4C348.56 264.387 349.326 264.88 350.246 264.88C351.166 264.88 351.933 264.387 352.546 263.4C353.2 262.36 353.526 261.007 353.526 259.34C353.526 257.673 353.2 256.32 352.546 255.28Z" fill="#0B1530"/>
</svg>
