<svg width="409" height="114" viewBox="0 0 409 114" fill="none" xmlns="http://www.w3.org/2000/svg">
<rect width="409" height="114" rx="24" fill="#F5F6F8"/>
<g filter="url(#filter0_d_983_3016)">
<rect x="70" y="33" width="276" height="48" rx="8" fill="white"/>
<path d="M93.134 46.5C93.5189 45.8333 94.4811 45.8333 94.866 46.5L103.526 61.5C103.911 62.1667 103.43 63 102.66 63H85.3397C84.5699 63 84.0888 62.1667 84.4737 61.5L93.134 46.5Z" fill="#FF8A36"/>
<circle cx="94.0003" cy="60.1204" r="0.5" fill="white" stroke="white" stroke-width="0.44"/>
<path d="M94 57.9609V54.3609V50.7609" stroke="white" stroke-linecap="round"/>
<path d="M116.352 48.72C117.408 47.664 118.731 47.136 120.32 47.136C121.909 47.136 123.232 47.664 124.288 48.72C125.344 49.776 125.872 51.0933 125.872 52.672C125.872 54.2507 125.344 55.568 124.288 56.624C123.232 57.68 121.909 58.208 120.32 58.208C118.731 58.208 117.408 57.68 116.352 56.624C115.296 55.568 114.768 54.2507 114.768 52.672C114.768 51.0933 115.296 49.776 116.352 48.72ZM117.504 55.584C118.24 56.3307 119.179 56.704 120.32 56.704C121.461 56.704 122.4 56.3307 123.136 55.584C123.872 54.8267 124.24 53.856 124.24 52.672C124.24 51.488 123.872 50.5227 123.136 49.776C122.4 49.0187 121.461 48.64 120.32 48.64C119.179 48.64 118.24 49.0187 117.504 49.776C116.768 50.5227 116.4 51.488 116.4 52.672C116.4 53.856 116.768 54.8267 117.504 55.584ZM132.849 51.568V53.328C132.283 52.7733 131.649 52.496 130.945 52.496C130.347 52.496 129.851 52.6933 129.457 53.088C129.073 53.472 128.881 53.9893 128.881 54.64C128.881 55.312 129.083 55.8507 129.489 56.256C129.873 56.6187 130.347 56.8 130.913 56.8C131.691 56.8 132.337 56.512 132.849 55.936V57.68C132.283 58.032 131.601 58.208 130.801 58.208C129.723 58.208 128.87 57.8773 128.241 57.216C127.601 56.5547 127.281 55.712 127.281 54.688C127.281 53.632 127.622 52.7627 128.305 52.08C128.966 51.4187 129.867 51.088 131.009 51.088C131.659 51.088 132.273 51.248 132.849 51.568ZM139.148 52.704H137.18V58H135.612V52.704H133.644V51.264H139.148V52.704ZM145.029 52.048V51.264H146.597V58H145.029V57.296C144.507 57.904 143.835 58.208 143.013 58.208C142.021 58.208 141.227 57.856 140.629 57.152C140.043 56.448 139.749 55.6053 139.749 54.624C139.749 53.5573 140.064 52.704 140.693 52.064C141.333 51.4133 142.112 51.088 143.029 51.088C143.872 51.088 144.539 51.408 145.029 52.048ZM143.221 52.496C142.667 52.496 142.213 52.704 141.861 53.12C141.52 53.536 141.349 54.048 141.349 54.656C141.349 55.2533 141.52 55.76 141.861 56.176C142.213 56.592 142.667 56.8 143.221 56.8C143.755 56.8 144.203 56.6133 144.565 56.24C144.939 55.8667 145.125 55.344 145.125 54.672C145.125 53.9787 144.939 53.4453 144.565 53.072C144.203 52.688 143.755 52.496 143.221 52.496ZM148.586 51.264H151.226C151.898 51.264 152.41 51.3973 152.762 51.664C153.178 51.9947 153.386 52.4267 153.386 52.96C153.386 53.568 153.119 54.0053 152.586 54.272C152.927 54.336 153.231 54.4853 153.498 54.72C153.85 55.04 154.026 55.472 154.026 56.016C154.026 56.6667 153.78 57.1787 153.29 57.552C152.884 57.8507 152.367 58 151.738 58H148.586V51.264ZM150.154 53.888H150.954C151.231 53.888 151.439 53.84 151.578 53.744C151.78 53.616 151.882 53.4347 151.882 53.2C151.882 52.976 151.791 52.8 151.61 52.672C151.482 52.5867 151.252 52.544 150.922 52.544H150.154V53.888ZM150.154 56.72H151.322C151.674 56.72 151.946 56.656 152.138 56.528C152.351 56.3893 152.458 56.192 152.458 55.936C152.458 55.6587 152.356 55.4613 152.154 55.344C151.972 55.2267 151.711 55.168 151.37 55.168H150.154V56.72ZM155.664 51.264H157.232V55.088L161.84 50.656V58H160.272V54.08L155.664 58.512V51.264ZM168.46 52.704H166.492V58H164.924V52.704H162.956V51.264H168.46V52.704ZM169.586 58V51.264H171.154V53.648H172.05C172.338 53.648 172.572 53.6587 172.754 53.68C172.935 53.6907 173.154 53.7493 173.41 53.856C173.666 53.9627 173.89 54.1227 174.082 54.336C174.434 54.7307 174.61 55.2213 174.61 55.808C174.61 56.48 174.407 57.0187 174.002 57.424C173.82 57.6053 173.602 57.744 173.346 57.84C173.1 57.9253 172.892 57.9733 172.722 57.984C172.562 57.9947 172.332 58 172.034 58H169.586ZM171.154 56.656H171.874C172.258 56.656 172.53 56.608 172.69 56.512C172.924 56.3413 173.042 56.112 173.042 55.824C173.042 55.5253 172.93 55.3013 172.706 55.152C172.535 55.0453 172.263 54.992 171.89 54.992H171.154V56.656ZM179.726 51.264H185.582V58H184.014V52.704H181.294V58H179.726V51.264ZM188.242 52.096C188.935 51.424 189.794 51.088 190.818 51.088C191.842 51.088 192.695 51.424 193.378 52.096C194.071 52.7573 194.418 53.6053 194.418 54.64C194.418 55.664 194.071 56.5173 193.378 57.2C192.695 57.872 191.842 58.208 190.818 58.208C189.794 58.208 188.935 57.872 188.242 57.2C187.559 56.5173 187.218 55.664 187.218 54.64C187.218 53.6053 187.559 52.7573 188.242 52.096ZM189.362 56.224C189.725 56.608 190.21 56.8 190.818 56.8C191.426 56.8 191.911 56.608 192.274 56.224C192.637 55.8293 192.818 55.3067 192.818 54.656C192.818 53.9413 192.621 53.4027 192.226 53.04C191.842 52.6773 191.373 52.496 190.818 52.496C190.263 52.496 189.789 52.6773 189.394 53.04C189.01 53.4027 188.818 53.9413 188.818 54.656C188.818 55.3067 188.999 55.8293 189.362 56.224ZM201.591 51.264V58H200.023V52.704H198.039V55.376C198.039 56.208 197.825 56.8533 197.399 57.312C196.855 57.92 196.119 58.1493 195.191 58V56.56C195.649 56.6667 196.017 56.5653 196.295 56.256C196.455 56.064 196.535 55.7707 196.535 55.376V51.264H201.591ZM202.706 58L204.818 55.328C204.402 55.264 204.045 55.0933 203.746 54.816C203.373 54.4533 203.186 53.9893 203.186 53.424C203.186 52.784 203.394 52.2667 203.81 51.872C204.237 51.4667 204.887 51.264 205.762 51.264H208.274V58H206.706V55.52H206.386L204.546 58H202.706ZM206.706 54.24V52.608H205.794C205.421 52.608 205.149 52.656 204.978 52.752C204.722 52.912 204.594 53.136 204.594 53.424C204.594 53.712 204.701 53.9307 204.914 54.08C205.074 54.1867 205.362 54.24 205.778 54.24H206.706ZM213.992 58V51.264H215.56V53.76H218.344V51.264H219.912V58H218.344V55.2H215.56V58H213.992ZM226.618 55.728L227.93 56.464C227.632 56.9973 227.253 57.408 226.794 57.696C226.272 58.0373 225.61 58.208 224.81 58.208C223.872 58.208 223.114 57.92 222.538 57.344C221.877 56.6827 221.546 55.824 221.546 54.768C221.546 53.6587 221.904 52.736 222.618 52C223.226 51.392 223.978 51.088 224.874 51.088C225.749 51.088 226.469 51.3813 227.034 51.968C227.664 52.6187 227.978 53.568 227.978 54.816V55.008H223.146C223.189 55.5733 223.381 56.0267 223.722 56.368C224.01 56.656 224.41 56.8 224.922 56.8C225.338 56.8 225.696 56.688 225.994 56.464C226.24 56.272 226.448 56.0267 226.618 55.728ZM223.258 53.728H226.378C226.314 53.3547 226.154 53.0507 225.898 52.816C225.621 52.56 225.269 52.432 224.842 52.432C224.394 52.432 224.026 52.576 223.738 52.864C223.504 53.0773 223.344 53.3653 223.258 53.728ZM230.529 53.008L229.521 52.128C229.777 51.8187 230.118 51.568 230.545 51.376C230.993 51.184 231.521 51.088 232.129 51.088C232.833 51.088 233.404 51.2427 233.841 51.552C234.31 51.8933 234.545 52.352 234.545 52.928C234.545 53.3013 234.449 53.6107 234.257 53.856C234.097 54.0693 233.884 54.2293 233.617 54.336C234.022 54.4213 234.348 54.5867 234.593 54.832C234.881 55.12 235.025 55.4933 235.025 55.952C235.025 56.56 234.833 57.056 234.449 57.44C233.937 57.952 233.148 58.208 232.081 58.208C231.366 58.208 230.78 58.0747 230.321 57.808C229.841 57.5307 229.489 57.1307 229.265 56.608L230.513 55.968C230.662 56.288 230.86 56.5227 231.105 56.672C231.372 56.8427 231.708 56.928 232.113 56.928C232.604 56.928 232.961 56.816 233.185 56.592C233.345 56.4107 233.425 56.2133 233.425 56C233.425 55.776 233.356 55.5947 233.217 55.456C233.036 55.264 232.662 55.168 232.097 55.168H231.393V53.888H231.985C232.326 53.888 232.582 53.8293 232.753 53.712C232.945 53.5627 233.041 53.3653 233.041 53.12C233.041 52.864 232.945 52.672 232.753 52.544C232.593 52.4267 232.342 52.368 232.001 52.368C231.681 52.368 231.388 52.432 231.121 52.56C230.897 52.6667 230.7 52.816 230.529 53.008ZM241.592 52.048V51.264H243.16V58H241.592V57.296C241.069 57.904 240.397 58.208 239.576 58.208C238.584 58.208 237.789 57.856 237.192 57.152C236.605 56.448 236.312 55.6053 236.312 54.624C236.312 53.5573 236.627 52.704 237.256 52.064C237.896 51.4133 238.675 51.088 239.592 51.088C240.435 51.088 241.101 51.408 241.592 52.048ZM239.784 52.496C239.229 52.496 238.776 52.704 238.424 53.12C238.083 53.536 237.912 54.048 237.912 54.656C237.912 55.2533 238.083 55.76 238.424 56.176C238.776 56.592 239.229 56.8 239.784 56.8C240.317 56.8 240.765 56.6133 241.128 56.24C241.501 55.8667 241.688 55.344 241.688 54.672C241.688 53.9787 241.501 53.4453 241.128 53.072C240.765 52.688 240.317 52.496 239.784 52.496ZM245.148 51.264H251.004V58H249.436V52.704H246.716V58H245.148V51.264ZM253.664 52.096C254.357 51.424 255.216 51.088 256.24 51.088C257.264 51.088 258.117 51.424 258.8 52.096C259.493 52.7573 259.84 53.6053 259.84 54.64C259.84 55.664 259.493 56.5173 258.8 57.2C258.117 57.872 257.264 58.208 256.24 58.208C255.216 58.208 254.357 57.872 253.664 57.2C252.981 56.5173 252.64 55.664 252.64 54.64C252.64 53.6053 252.981 52.7573 253.664 52.096ZM254.784 56.224C255.147 56.608 255.632 56.8 256.24 56.8C256.848 56.8 257.333 56.608 257.696 56.224C258.059 55.8293 258.24 55.3067 258.24 54.656C258.24 53.9413 258.043 53.4027 257.648 53.04C257.264 52.6773 256.795 52.496 256.24 52.496C255.685 52.496 255.211 52.6773 254.816 53.04C254.432 53.4027 254.24 53.9413 254.24 54.656C254.24 55.3067 254.421 55.8293 254.784 56.224ZM267.012 51.264V58H265.444V52.704H263.46V55.376C263.46 56.208 263.247 56.8533 262.82 57.312C262.276 57.92 261.54 58.1493 260.612 58V56.56C261.071 56.6667 261.439 56.5653 261.716 56.256C261.876 56.064 261.956 55.7707 261.956 55.376V51.264H267.012ZM268.992 58V51.264H270.56V53.76H273.344V51.264H274.912V58H273.344V55.2H270.56V58H268.992ZM281.618 55.728L282.93 56.464C282.632 56.9973 282.253 57.408 281.794 57.696C281.272 58.0373 280.61 58.208 279.81 58.208C278.872 58.208 278.114 57.92 277.538 57.344C276.877 56.6827 276.546 55.824 276.546 54.768C276.546 53.6587 276.904 52.736 277.618 52C278.226 51.392 278.978 51.088 279.874 51.088C280.749 51.088 281.469 51.3813 282.034 51.968C282.664 52.6187 282.978 53.568 282.978 54.816V55.008H278.146C278.189 55.5733 278.381 56.0267 278.722 56.368C279.01 56.656 279.41 56.8 279.922 56.8C280.338 56.8 280.696 56.688 280.994 56.464C281.24 56.272 281.448 56.0267 281.618 55.728ZM278.258 53.728H281.378C281.314 53.3547 281.154 53.0507 280.898 52.816C280.621 52.56 280.269 52.432 279.842 52.432C279.394 52.432 279.026 52.576 278.738 52.864C278.504 53.0773 278.344 53.3653 278.258 53.728ZM284.617 58V51.264H286.185V53.76H288.969V51.264H290.537V58H288.969V55.2H286.185V58H284.617ZM292.523 58V51.264H294.091V53.76H296.875V51.264H298.443V58H296.875V55.2H294.091V58H292.523ZM300.43 58V51.264H301.998V53.648H302.894C303.182 53.648 303.416 53.6587 303.598 53.68C303.779 53.6907 303.998 53.7493 304.254 53.856C304.51 53.9627 304.734 54.1227 304.926 54.336C305.278 54.7307 305.454 55.2213 305.454 55.808C305.454 56.48 305.251 57.0187 304.846 57.424C304.664 57.6053 304.446 57.744 304.19 57.84C303.944 57.9253 303.736 57.9733 303.566 57.984C303.406 57.9947 303.176 58 302.878 58H300.43ZM301.998 56.656H302.718C303.102 56.656 303.374 56.608 303.534 56.512C303.768 56.3413 303.886 56.112 303.886 55.824C303.886 55.5253 303.774 55.3013 303.549 55.152C303.379 55.0453 303.107 54.992 302.734 54.992H301.998V56.656ZM306.158 58V51.264H307.726V58H306.158ZM308.943 58L310.575 50.656L313.359 55.792L316.143 50.656L317.775 58H316.175L315.503 54.624L313.359 58.512L311.215 54.624L310.543 58H308.943ZM318.992 51.264H320.56V55.088L325.168 50.656V58H323.6V54.08L318.992 58.512V51.264ZM328.684 50.24H327.052C327.031 49.9947 327.02 49.8133 327.02 49.696C327.02 48.896 327.26 48.2667 327.74 47.808C328.21 47.36 328.834 47.136 329.612 47.136C330.412 47.136 331.058 47.3707 331.548 47.84C332.007 48.2773 332.236 48.8747 332.236 49.632C332.236 50.496 331.922 51.152 331.292 51.6C331.068 51.76 330.695 51.9467 330.172 52.16L329.692 52.352C329.372 52.48 329.159 52.5973 329.052 52.704C328.892 52.864 328.812 53.056 328.812 53.28C328.812 53.5467 328.903 53.7547 329.084 53.904C329.212 54.0107 329.372 54.064 329.564 54.064C329.82 54.064 330.023 53.984 330.172 53.824C330.343 53.6427 330.428 53.36 330.428 52.976H331.996C331.996 53.7227 331.762 54.3413 331.292 54.832C330.844 55.28 330.263 55.504 329.548 55.504C328.887 55.504 328.327 55.2853 327.868 54.848C327.431 54.4107 327.212 53.8453 327.212 53.152C327.212 52.608 327.383 52.1493 327.724 51.776C327.98 51.4987 328.444 51.2267 329.116 50.96C329.746 50.7147 330.135 50.528 330.284 50.4C330.519 50.176 330.636 49.9093 330.636 49.6C330.636 49.28 330.546 49.0293 330.364 48.848C330.183 48.6667 329.938 48.576 329.628 48.576C329.308 48.576 329.063 48.672 328.892 48.864C328.711 49.0453 328.62 49.328 328.62 49.712C328.62 49.8507 328.642 50.0267 328.684 50.24ZM328.956 57.936C328.775 57.744 328.684 57.5147 328.684 57.248C328.684 56.9813 328.775 56.7573 328.956 56.576C329.148 56.384 329.378 56.288 329.644 56.288C329.911 56.288 330.135 56.384 330.316 56.576C330.508 56.7573 330.604 56.9813 330.604 57.248C330.604 57.5147 330.508 57.744 330.316 57.936C330.135 58.1173 329.911 58.208 329.644 58.208C329.378 58.208 329.148 58.1173 328.956 57.936Z" fill="#FF8A36"/>
<path d="M208 89L200 81L216 81L208 89Z" fill="white"/>
</g>
<defs>
<filter id="filter0_d_983_3016" x="45" y="8" width="326" height="106" filterUnits="userSpaceOnUse" color-interpolation-filters="sRGB">
<feFlood flood-opacity="0" result="BackgroundImageFix"/>
<feColorMatrix in="SourceAlpha" type="matrix" values="0 0 0 0 0 0 0 0 0 0 0 0 0 0 0 0 0 0 127 0" result="hardAlpha"/>
<feOffset/>
<feGaussianBlur stdDeviation="12.5"/>
<feComposite in2="hardAlpha" operator="out"/>
<feColorMatrix type="matrix" values="0 0 0 0 0 0 0 0 0 0 0 0 0 0 0 0 0 0 0.1 0"/>
<feBlend mode="normal" in2="BackgroundImageFix" result="effect1_dropShadow_983_3016"/>
<feBlend mode="normal" in="SourceGraphic" in2="effect1_dropShadow_983_3016" result="shape"/>
</filter>
</defs>
</svg>
