<svg width="409" height="146" viewBox="0 0 409 146" fill="none" xmlns="http://www.w3.org/2000/svg">
<rect width="409" height="146" rx="24" fill="#F5F6F8"/>
<path d="M32.72 67V53.66H38.8V55.06H34.2V67H32.72ZM45.1808 66C44.3541 66.8267 43.3074 67.24 42.0408 67.24C40.7741 67.24 39.7208 66.8267 38.8808 66C38.0541 65.1733 37.6408 64.1333 37.6408 62.88C37.6408 61.6133 38.0541 60.5667 38.8808 59.74C39.7208 58.9133 40.7741 58.5 42.0408 58.5C43.3074 58.5 44.3541 58.9133 45.1808 59.74C46.0208 60.5667 46.4408 61.6133 46.4408 62.88C46.4408 64.1333 46.0208 65.1733 45.1808 66ZM44.1008 60.6C43.5408 60.0533 42.8541 59.78 42.0408 59.78C41.2274 59.78 40.5341 60.06 39.9608 60.62C39.4008 61.1667 39.1208 61.92 39.1208 62.88C39.1208 63.84 39.4074 64.5933 39.9808 65.14C40.5541 65.6867 41.2408 65.96 42.0408 65.96C42.8408 65.96 43.5274 65.6867 44.1008 65.14C44.6741 64.5933 44.9608 63.84 44.9608 62.88C44.9608 61.9067 44.6741 61.1467 44.1008 60.6ZM50.0891 65.84V71.6H48.6491V58.7H50.0891V59.86C50.8224 58.9533 51.7691 58.5 52.9291 58.5C54.1691 58.5 55.1491 58.94 55.8691 59.82C56.6024 60.6867 56.9691 61.7133 56.9691 62.9C56.9691 64.1 56.6091 65.1267 55.8891 65.98C55.1691 66.82 54.2024 67.24 52.9891 67.24C51.7757 67.24 50.8091 66.7733 50.0891 65.84ZM52.7891 65.96C53.6024 65.96 54.2557 65.6667 54.7491 65.08C55.2424 64.48 55.4891 63.7533 55.4891 62.9C55.4891 61.94 55.2157 61.18 54.6691 60.62C54.1224 60.06 53.4891 59.78 52.7691 59.78C52.0491 59.78 51.4091 60.06 50.8491 60.62C50.2891 61.18 50.0091 61.9333 50.0091 62.88C50.0091 63.7467 50.2624 64.48 50.7691 65.08C51.2891 65.6667 51.9624 65.96 52.7891 65.96ZM66.1964 66C65.3697 66.8267 64.3231 67.24 63.0564 67.24C61.7897 67.24 60.7364 66.8267 59.8964 66C59.0697 65.1733 58.6564 64.1333 58.6564 62.88C58.6564 61.6133 59.0697 60.5667 59.8964 59.74C60.7364 58.9133 61.7897 58.5 63.0564 58.5C64.3231 58.5 65.3697 58.9133 66.1964 59.74C67.0364 60.5667 67.4564 61.6133 67.4564 62.88C67.4564 64.1333 67.0364 65.1733 66.1964 66ZM65.1164 60.6C64.5564 60.0533 63.8697 59.78 63.0564 59.78C62.2431 59.78 61.5497 60.06 60.9764 60.62C60.4164 61.1667 60.1364 61.92 60.1364 62.88C60.1364 63.84 60.4231 64.5933 60.9964 65.14C61.5697 65.6867 62.2564 65.96 63.0564 65.96C63.8564 65.96 64.5431 65.6867 65.1164 65.14C65.6897 64.5933 65.9764 63.84 65.9764 62.88C65.9764 61.9067 65.6897 61.1467 65.1164 60.6ZM70.2647 58.7H76.1047V65.68H77.3447V69.2H76.0247V67H69.7047V69.2H68.3847V65.68C69.078 65.6667 69.5914 65.3067 69.9247 64.6C70.1514 64.1333 70.2647 63.4 70.2647 62.4V58.7ZM74.6647 65.68V60.02H71.7047V63.14C71.7047 64.2467 71.3714 65.0933 70.7047 65.68H74.6647Z" fill="#0B1530"/>
<rect x="98.5" y="40.5" width="279" height="39" rx="7.5" fill="white"/>
<rect x="98.5" y="40.5" width="279" height="39" rx="7.5" stroke="#FA4646"/>
<path d="M121.92 54.76V56.6C121.387 56.0667 120.807 55.6533 120.18 55.36C119.42 55.0133 118.653 54.84 117.88 54.84C116.347 54.84 115.067 55.38 114.04 56.46C113.027 57.5267 112.52 58.84 112.52 60.4C112.52 62.08 113.073 63.4067 114.18 64.38C115.3 65.3533 116.54 65.84 117.9 65.84C118.753 65.84 119.58 65.6333 120.38 65.22C120.94 64.94 121.453 64.5667 121.92 64.1V65.94C120.707 66.8067 119.367 67.24 117.9 67.24C115.927 67.24 114.28 66.58 112.96 65.26C111.653 63.94 111 62.3133 111 60.38C111 58.3933 111.66 56.74 112.98 55.42C114.313 54.1 115.98 53.44 117.98 53.44C119.447 53.44 120.76 53.88 121.92 54.76ZM130.65 59.88V58.7H132.09V67H130.65V65.84C129.93 66.7733 128.983 67.24 127.81 67.24C126.69 67.24 125.736 66.8533 124.95 66.08C124.163 65.3067 123.77 64.2267 123.77 62.84C123.77 61.48 124.156 60.42 124.93 59.66C125.716 58.8867 126.676 58.5 127.81 58.5C129.01 58.5 129.956 58.96 130.65 59.88ZM127.97 59.78C127.21 59.78 126.563 60.0533 126.03 60.6C125.51 61.1333 125.25 61.88 125.25 62.84C125.25 63.76 125.49 64.5133 125.97 65.1C126.463 65.6733 127.13 65.96 127.97 65.96C128.81 65.96 129.476 65.66 129.97 65.06C130.476 64.46 130.73 63.7267 130.73 62.86C130.73 61.8733 130.45 61.1133 129.89 60.58C129.33 60.0467 128.69 59.78 127.97 59.78ZM134.817 67V58.7H136.257V62.1H140.177V58.7H141.617V67H140.177V63.42H136.257V67H134.817ZM144.329 58.7H145.769V62.1L149.129 58.7H150.889L147.289 62.4L151.329 67H149.449L146.209 63.36L145.769 63.78V67H144.329V58.7ZM158.206 60.02H155.606V67H154.166V60.02H151.566V58.7H158.206V60.02ZM160.199 63.48V62H164.599V63.48H160.199ZM174.245 53.66V55.06H168.805V59.02H174.085V60.42H168.805V65.6H174.245V67H167.325V53.66H174.245ZM176.614 58.7H178.054V62.1L181.414 58.7H183.174L179.574 62.4L183.614 67H181.734L178.494 63.36L178.054 63.78V67H176.614V58.7ZM191.411 59.88V58.7H192.851V67H191.411V65.84C190.691 66.7733 189.745 67.24 188.571 67.24C187.451 67.24 186.498 66.8533 185.711 66.08C184.925 65.3067 184.531 64.2267 184.531 62.84C184.531 61.48 184.918 60.42 185.691 59.66C186.478 58.8867 187.438 58.5 188.571 58.5C189.771 58.5 190.718 58.96 191.411 59.88ZM188.731 59.78C187.971 59.78 187.325 60.0533 186.791 60.6C186.271 61.1333 186.011 61.88 186.011 62.84C186.011 63.76 186.251 64.5133 186.731 65.1C187.225 65.6733 187.891 65.96 188.731 65.96C189.571 65.96 190.238 65.66 190.731 65.06C191.238 64.46 191.491 63.7267 191.491 62.86C191.491 61.8733 191.211 61.1133 190.651 60.58C190.091 60.0467 189.451 59.78 188.731 59.78ZM201.019 60.02H198.419V67H196.979V60.02H194.379V58.7H201.019V60.02ZM208.497 64.22L209.697 64.88C209.417 65.4133 209.077 65.86 208.677 66.22C207.917 66.9 206.997 67.24 205.917 67.24C204.797 67.24 203.83 66.88 203.017 66.16C202.217 65.4267 201.817 64.34 201.817 62.9C201.817 61.6333 202.177 60.5867 202.897 59.76C203.63 58.92 204.61 58.5 205.837 58.5C207.223 58.5 208.27 59.0067 208.977 60.02C209.537 60.82 209.797 61.86 209.757 63.14H203.297C203.31 63.98 203.57 64.66 204.077 65.18C204.583 65.7 205.203 65.96 205.937 65.96C206.59 65.96 207.157 65.76 207.637 65.36C208.01 65.04 208.297 64.66 208.497 64.22ZM203.397 61.94H208.277C208.157 61.2867 207.87 60.7667 207.417 60.38C206.977 59.98 206.45 59.78 205.837 59.78C205.237 59.78 204.703 59.9867 204.237 60.4C203.783 60.8 203.503 61.3133 203.397 61.94ZM213.405 65.84V71.6H211.965V58.7H213.405V59.86C214.139 58.9533 215.085 58.5 216.245 58.5C217.485 58.5 218.465 58.94 219.185 59.82C219.919 60.6867 220.285 61.7133 220.285 62.9C220.285 64.1 219.925 65.1267 219.205 65.98C218.485 66.82 217.519 67.24 216.305 67.24C215.092 67.24 214.125 66.7733 213.405 65.84ZM216.105 65.96C216.919 65.96 217.572 65.6667 218.065 65.08C218.559 64.48 218.805 63.7533 218.805 62.9C218.805 61.94 218.532 61.18 217.985 60.62C217.439 60.06 216.805 59.78 216.085 59.78C215.365 59.78 214.725 60.06 214.165 60.62C213.605 61.18 213.325 61.9333 213.325 62.88C213.325 63.7467 213.579 64.48 214.085 65.08C214.605 65.6667 215.279 65.96 216.105 65.96ZM222.493 58.7H223.933V64.18L229.613 58.06V67H228.173V61.46L222.493 67.58V58.7ZM232.337 67V58.7H233.777V62.1H237.697V58.7H239.137V67H237.697V63.42H233.777V67H232.337ZM248.248 53H249.848C249.702 53.4933 249.448 53.9133 249.088 54.26C248.742 54.5933 248.422 54.82 248.128 54.94C247.848 55.06 247.515 55.1667 247.128 55.26C247.062 55.2733 246.902 55.3133 246.648 55.38C246.395 55.4333 246.202 55.48 246.068 55.52C245.935 55.56 245.762 55.6133 245.548 55.68C245.335 55.7467 245.142 55.8267 244.968 55.92C244.795 56.0133 244.635 56.1133 244.488 56.22C243.982 56.6067 243.568 57.1467 243.248 57.84C242.942 58.52 242.775 59.2467 242.748 60.02H242.788C243.388 59.0067 244.395 58.5 245.808 58.5C247.048 58.5 248.075 58.92 248.888 59.76C249.715 60.6 250.128 61.64 250.128 62.88C250.128 64.1333 249.708 65.1733 248.868 66C248.028 66.8267 246.935 67.24 245.588 67.24C244.428 67.24 243.475 66.8933 242.728 66.2C241.795 65.3467 241.328 63.92 241.328 61.92C241.328 58.44 242.115 56.16 243.688 55.08C243.808 55 243.935 54.9267 244.068 54.86C244.202 54.78 244.342 54.7133 244.488 54.66C244.648 54.5933 244.782 54.54 244.888 54.5C244.995 54.4467 245.142 54.4 245.328 54.36C245.528 54.3067 245.662 54.2733 245.728 54.26C245.808 54.2333 245.955 54.2 246.168 54.16C246.395 54.1067 246.535 54.0733 246.588 54.06C247.122 53.94 247.508 53.8 247.748 53.64C247.988 53.4667 248.155 53.2533 248.248 53ZM247.788 60.6C247.228 60.0533 246.542 59.78 245.728 59.78C244.915 59.78 244.222 60.06 243.648 60.62C243.088 61.1667 242.808 61.92 242.808 62.88C242.808 63.84 243.095 64.5933 243.668 65.14C244.242 65.6867 244.928 65.96 245.728 65.96C246.528 65.96 247.215 65.6867 247.788 65.14C248.362 64.5933 248.648 63.84 248.648 62.88C248.648 61.9067 248.362 61.1467 247.788 60.6ZM252.317 71.6L254.957 66.22L251.137 58.7H252.777L255.717 64.64L258.417 58.7H260.017L253.917 71.6H252.317ZM262.976 65.84V71.6H261.536V58.7H262.976V59.86C263.709 58.9533 264.656 58.5 265.816 58.5C267.056 58.5 268.036 58.94 268.756 59.82C269.489 60.6867 269.856 61.7133 269.856 62.9C269.856 64.1 269.496 65.1267 268.776 65.98C268.056 66.82 267.089 67.24 265.876 67.24C264.662 67.24 263.696 66.7733 262.976 65.84ZM265.676 65.96C266.489 65.96 267.142 65.6667 267.636 65.08C268.129 64.48 268.376 63.7533 268.376 62.9C268.376 61.94 268.102 61.18 267.556 60.62C267.009 60.06 266.376 59.78 265.656 59.78C264.936 59.78 264.296 60.06 263.736 60.62C263.176 61.18 262.896 61.9333 262.896 62.88C262.896 63.7467 263.149 64.48 263.656 65.08C264.176 65.6667 264.849 65.96 265.676 65.96ZM272.063 67V58.7H276.983V60.02H273.503V67H272.063Z" fill="#0B1530"/>
<circle cx="106" cy="98" r="8" fill="#FA4646"/>
<path d="M102.333 94.334L109.666 101.667" stroke="white" stroke-linecap="round"/>
<path d="M109.666 94.334L102.333 101.667" stroke="white" stroke-linecap="round"/>
<path d="M124.912 92.328V96.552H129.488V92.328H131.12V103H129.488V98.088H124.912V103H123.28V92.328H124.912ZM138.118 100.728L139.43 101.464C139.132 101.997 138.753 102.408 138.294 102.696C137.772 103.037 137.11 103.208 136.31 103.208C135.372 103.208 134.614 102.92 134.038 102.344C133.377 101.683 133.046 100.824 133.046 99.768C133.046 98.6587 133.404 97.736 134.118 97C134.726 96.392 135.478 96.088 136.374 96.088C137.249 96.088 137.969 96.3813 138.534 96.968C139.164 97.6187 139.478 98.568 139.478 99.816V100.008H134.646C134.689 100.573 134.881 101.027 135.222 101.368C135.51 101.656 135.91 101.8 136.422 101.8C136.838 101.8 137.196 101.688 137.494 101.464C137.74 101.272 137.948 101.027 138.118 100.728ZM134.758 98.728H137.878C137.814 98.3547 137.654 98.0507 137.398 97.816C137.121 97.56 136.769 97.432 136.342 97.432C135.894 97.432 135.526 97.576 135.238 97.864C135.004 98.0773 134.844 98.3653 134.758 98.728ZM141.117 96.264H143.757C144.429 96.264 144.941 96.3973 145.293 96.664C145.709 96.9947 145.917 97.4267 145.917 97.96C145.917 98.568 145.65 99.0053 145.117 99.272C145.458 99.336 145.762 99.4853 146.029 99.72C146.381 100.04 146.557 100.472 146.557 101.016C146.557 101.667 146.312 102.179 145.821 102.552C145.416 102.851 144.898 103 144.269 103H141.117V96.264ZM142.685 98.888H143.485C143.762 98.888 143.97 98.84 144.109 98.744C144.312 98.616 144.413 98.4347 144.413 98.2C144.413 97.976 144.322 97.8 144.141 97.672C144.013 97.5867 143.784 97.544 143.453 97.544H142.685V98.888ZM142.685 101.72H143.853C144.205 101.72 144.477 101.656 144.669 101.528C144.882 101.389 144.989 101.192 144.989 100.936C144.989 100.659 144.888 100.461 144.685 100.344C144.504 100.227 144.242 100.168 143.901 100.168H142.685V101.72ZM152.915 100.728L154.227 101.464C153.928 101.997 153.55 102.408 153.091 102.696C152.568 103.037 151.907 103.208 151.107 103.208C150.168 103.208 149.411 102.92 148.835 102.344C148.174 101.683 147.843 100.824 147.843 99.768C147.843 98.6587 148.2 97.736 148.915 97C149.523 96.392 150.275 96.088 151.171 96.088C152.046 96.088 152.766 96.3813 153.331 96.968C153.96 97.6187 154.275 98.568 154.275 99.816V100.008H149.443C149.486 100.573 149.678 101.027 150.019 101.368C150.307 101.656 150.707 101.8 151.219 101.8C151.635 101.8 151.992 101.688 152.291 101.464C152.536 101.272 152.744 101.027 152.915 100.728ZM149.555 98.728H152.675C152.611 98.3547 152.451 98.0507 152.195 97.816C151.918 97.56 151.566 97.432 151.139 97.432C150.691 97.432 150.323 97.576 150.035 97.864C149.8 98.0773 149.64 98.3653 149.555 98.728ZM157.482 102.216V106.664H155.914V96.264H157.482V97C157.994 96.392 158.661 96.088 159.482 96.088C160.399 96.088 161.173 96.4133 161.802 97.064C162.442 97.704 162.762 98.5467 162.762 99.592C162.762 100.669 162.431 101.544 161.77 102.216C161.109 102.877 160.351 103.208 159.498 103.208C158.698 103.208 158.026 102.877 157.482 102.216ZM159.29 97.496C158.757 97.496 158.303 97.688 157.93 98.072C157.567 98.4453 157.386 98.9787 157.386 99.672C157.386 100.344 157.567 100.867 157.93 101.24C158.303 101.613 158.757 101.8 159.29 101.8C159.845 101.8 160.293 101.592 160.634 101.176C160.986 100.76 161.162 100.253 161.162 99.656C161.162 99.048 160.986 98.536 160.634 98.12C160.293 97.704 159.845 97.496 159.29 97.496ZM164.398 103V96.264H165.966V98.76H168.75V96.264H170.318V103H168.75V100.2H165.966V103H164.398ZM172.305 103V96.264H173.873V98.648H174.769C175.057 98.648 175.291 98.6587 175.473 98.68C175.654 98.6907 175.873 98.7493 176.129 98.856C176.385 98.9627 176.609 99.1227 176.801 99.336C177.153 99.7307 177.329 100.221 177.329 100.808C177.329 101.48 177.126 102.019 176.721 102.424C176.539 102.605 176.321 102.744 176.065 102.84C175.819 102.925 175.611 102.973 175.441 102.984C175.281 102.995 175.051 103 174.753 103H172.305ZM173.873 101.656H174.593C174.977 101.656 175.249 101.608 175.409 101.512C175.643 101.341 175.761 101.112 175.761 100.824C175.761 100.525 175.649 100.301 175.424 100.152C175.254 100.045 174.982 99.992 174.609 99.992H173.873V101.656ZM178.033 103V96.264H179.601V103H178.033ZM181.586 96.264H183.154V100.088L187.762 95.656V103H186.194V99.08L181.586 103.512V96.264ZM182.098 93.352L183.378 92.984C183.58 93.6773 184.018 94.024 184.69 94.024C185.351 94.024 185.788 93.6773 186.002 92.984L187.282 93.352C187.111 93.96 186.764 94.4293 186.242 94.76C185.73 95.08 185.212 95.24 184.69 95.24C184.167 95.24 183.644 95.08 183.122 94.76C182.61 94.4293 182.268 93.96 182.098 93.352ZM193.476 103V96.264H197.604V97.704H195.044V103H193.476ZM199.242 97.096C199.935 96.424 200.794 96.088 201.818 96.088C202.842 96.088 203.695 96.424 204.378 97.096C205.071 97.7573 205.418 98.6053 205.418 99.64C205.418 100.664 205.071 101.517 204.378 102.2C203.695 102.872 202.842 103.208 201.818 103.208C200.794 103.208 199.935 102.872 199.242 102.2C198.559 101.517 198.218 100.664 198.218 99.64C198.218 98.6053 198.559 97.7573 199.242 97.096ZM200.362 101.224C200.725 101.608 201.21 101.8 201.818 101.8C202.426 101.8 202.911 101.608 203.274 101.224C203.637 100.829 203.818 100.307 203.818 99.656C203.818 98.9413 203.621 98.4027 203.226 98.04C202.842 97.6773 202.373 97.496 201.818 97.496C201.263 97.496 200.789 97.6773 200.394 98.04C200.01 98.4027 199.818 98.9413 199.818 99.656C199.818 100.307 199.999 100.829 200.362 101.224ZM208.623 102.216V106.664H207.055V96.264H208.623V97C209.135 96.392 209.801 96.088 210.623 96.088C211.54 96.088 212.313 96.4133 212.943 97.064C213.583 97.704 213.903 98.5467 213.903 99.592C213.903 100.669 213.572 101.544 212.911 102.216C212.249 102.877 211.492 103.208 210.639 103.208C209.839 103.208 209.167 102.877 208.623 102.216ZM210.431 97.496C209.897 97.496 209.444 97.688 209.071 98.072C208.708 98.4453 208.527 98.9787 208.527 99.672C208.527 100.344 208.708 100.867 209.071 101.24C209.444 101.613 209.897 101.8 210.431 101.8C210.985 101.8 211.433 101.592 211.775 101.176C212.127 100.76 212.303 100.253 212.303 99.656C212.303 99.048 212.127 98.536 211.775 98.12C211.433 97.704 210.985 97.496 210.431 97.496ZM216.211 97.096C216.904 96.424 217.763 96.088 218.787 96.088C219.811 96.088 220.664 96.424 221.347 97.096C222.04 97.7573 222.387 98.6053 222.387 99.64C222.387 100.664 222.04 101.517 221.347 102.2C220.664 102.872 219.811 103.208 218.787 103.208C217.763 103.208 216.904 102.872 216.211 102.2C215.528 101.517 215.187 100.664 215.187 99.64C215.187 98.6053 215.528 97.7573 216.211 97.096ZM217.331 101.224C217.694 101.608 218.179 101.8 218.787 101.8C219.395 101.8 219.88 101.608 220.243 101.224C220.606 100.829 220.787 100.307 220.787 99.656C220.787 98.9413 220.59 98.4027 220.195 98.04C219.811 97.6773 219.342 97.496 218.787 97.496C218.232 97.496 217.758 97.6773 217.363 98.04C216.979 98.4027 216.787 98.9413 216.787 99.656C216.787 100.307 216.968 100.829 217.331 101.224ZM224.599 96.264H229.655V101.56H230.679V104.92H229.239V103H224.535V104.92H223.095V101.56C223.639 101.528 224.05 101.235 224.327 100.68C224.509 100.285 224.599 99.6933 224.599 98.904V96.264ZM228.087 101.56V97.704H226.103V99.496C226.103 100.467 225.842 101.155 225.319 101.56H228.087Z" fill="#FA4646"/>
</svg>
