<svg width="16" height="24" viewBox="0 0 16 24" fill="none" xmlns="http://www.w3.org/2000/svg">
<g id="Frame 40952">
<path id="icon Copy" fill-rule="evenodd" clip-rule="evenodd" d="M5.25 5C3.73122 5 2.5 6.23122 2.5 7.75L2.5 8C1.67157 8 1 8.67157 1 9.5V17.5C1 18.3284 1.67157 19 2.5 19H9.5C10.3284 19 11 18.3284 11 17.5H11.25C12.7688 17.5 14 16.2688 14 14.75V7.75C14 6.23122 12.7688 5 11.25 5H5.25ZM11 16H11.25C11.9404 16 12.5 15.4404 12.5 14.75V7.75C12.5 7.05964 11.9404 6.5 11.25 6.5H5.25C4.55964 6.5 4 7.05964 4 7.75V8H9.5C10.3284 8 11 8.67157 11 9.5V16Z" fill="#3B4459"/>
</g>
</svg>
