<svg width="16" height="16" viewBox="0 0 16 16" fill="none" xmlns="http://www.w3.org/2000/svg">
<path id="Vector" d="M8.00056 10.8953C8.70642 10.8953 9.28007 11.4679 9.27895 12.1751C9.27895 12.8812 8.70642 13.4524 8.00056 13.4524C7.29448 13.4524 6.72216 12.8809 6.72216 12.1751C6.72216 11.4692 7.29448 10.8967 8.00056 10.8953ZM7.46169 2.54743H8.54054C9.04686 2.54743 9.45441 3.01763 9.45441 3.60176L9.13381 8.78066C9.13381 9.36479 8.72515 9.83499 8.00056 9.83499C7.27597 9.83499 6.86842 9.36479 6.86842 8.78066L6.54782 3.60176C6.54804 3.01785 6.95559 2.54743 7.46169 2.54743ZM8.00056 0C3.58236 0 0 3.58124 0 8.00056C0 12.4188 3.58214 16 8.00056 16C12.4185 16.0013 16.0009 12.4188 16.0009 8.00056C16.0009 3.58124 12.4188 0 8.00056 0Z" fill="#FA4646"/>
</svg>
