<svg width="20" height="31" viewBox="0 0 20 31" fill="none" xmlns="http://www.w3.org/2000/svg">
<g id="Figma_ The Collaborative Interface Design Tool-0 1" clip-path="url(#clip0_719_2163)">
<path id="Vector" d="M10 15.5007C10 14.1304 10.5268 12.8162 11.4645 11.8473C12.4021 10.8783 13.6739 10.334 15 10.334C16.3261 10.334 17.5979 10.8783 18.5355 11.8473C19.4732 12.8162 20 14.1304 20 15.5007C20 16.8709 19.4732 18.1851 18.5355 19.154C17.5979 20.123 16.3261 20.6673 15 20.6673C13.6739 20.6673 12.4021 20.123 11.4645 19.154C10.5268 18.1851 10 16.8709 10 15.5007Z" fill="#1ABCFE"/>
<path id="Vector_2" d="M0 25.8327C0 24.4624 0.526784 23.1482 1.46447 22.1793C2.40215 21.2104 3.67392 20.666 5 20.666H10V25.8327C10 27.203 9.47322 28.5171 8.53553 29.4861C7.59785 30.455 6.32608 30.9993 5 30.9993C3.67392 30.9993 2.40215 30.455 1.46447 29.4861C0.526784 28.5171 0 27.203 0 25.8327Z" fill="#0ACF83"/>
<path id="Vector_3" d="M10 0V10.3333H15C16.3261 10.3333 17.5979 9.78899 18.5355 8.82005C19.4732 7.85111 20 6.53695 20 5.16667C20 3.79638 19.4732 2.48222 18.5355 1.51328C17.5979 0.544344 16.3261 0 15 0L10 0Z" fill="#FF7262"/>
<path id="Vector_4" d="M0 5.16667C0 6.53695 0.526784 7.85111 1.46447 8.82005C2.40215 9.78899 3.67392 10.3333 5 10.3333H10V0H5C3.67392 0 2.40215 0.544344 1.46447 1.51328C0.526784 2.48222 0 3.79638 0 5.16667Z" fill="#F24E1E"/>
<path id="Vector_5" d="M0 15.5007C0 16.8709 0.526784 18.1851 1.46447 19.154C2.40215 20.123 3.67392 20.6673 5 20.6673H10V10.334H5C3.67392 10.334 2.40215 10.8783 1.46447 11.8473C0.526784 12.8162 0 14.1304 0 15.5007Z" fill="#A259FF"/>
</g>
<defs>
<clipPath id="clip0_719_2163">
<rect width="20" height="31" fill="white"/>
</clipPath>
</defs>
</svg>
