<svg width="152" height="150" viewBox="0 0 152 150" fill="none" xmlns="http://www.w3.org/2000/svg">
<rect width="152" height="150" rx="24" fill="#F5F6F8"/>
<rect x="51.5" y="32.5" width="49" height="49" stroke="#33F7C3"/>
<path d="M75.2282 47.3722C78.9752 47.3722 82.0123 50.4127 82.0123 54.1636C82.0123 57.9156 78.9752 60.9527 75.2282 60.9527C71.4836 60.9527 68.447 57.9156 68.447 54.1636C68.4476 50.4127 71.4836 47.3722 75.2282 47.3722ZM57.25 54.1636C57.25 60.3685 60.4406 66.1108 65.6441 69.3917C66.1476 69.706 66.8285 70.3431 67.1456 70.8466L71.8484 78.299C73.1033 80.287 77.6322 80.2807 78.8843 78.2956L83.7508 70.5738C84.0673 70.0731 84.7385 69.4247 85.2335 69.0951C90.191 65.7732 93.2014 60.1821 93.2099 54.1636C93.2099 44.2225 85.1591 36.166 75.2282 36.166C65.3008 36.166 57.25 44.2225 57.25 54.1636Z" fill="#0B1530"/>
<rect x="40.7504" y="92.7504" width="69.9061" height="20.7027" rx="3.75176" fill="#33F7C3"/>
<rect x="40.7504" y="92.7504" width="69.9061" height="20.7027" rx="3.75176" stroke="#33F7C3" stroke-width="1.5007"/>
<path d="M47.9108 107.602V106.271L51.0188 103.394C51.2832 103.138 51.5049 102.908 51.6839 102.703C51.8658 102.498 52.0037 102.298 52.0975 102.102C52.1913 101.903 52.2382 101.688 52.2382 101.458C52.2382 101.202 52.1799 100.982 52.0634 100.797C51.9468 100.61 51.7877 100.466 51.5859 100.367C51.3841 100.264 51.1553 100.213 50.8995 100.213C50.6323 100.213 50.3992 100.267 50.2003 100.375C50.0013 100.483 49.8478 100.638 49.7398 100.84C49.6318 101.042 49.5778 101.282 49.5778 101.56H47.8256C47.8256 100.989 47.9549 100.493 48.2135 100.072C48.4722 99.6518 48.8346 99.3264 49.3007 99.0962C49.7668 98.8659 50.304 98.7508 50.9122 98.7508C51.5375 98.7508 52.0818 98.8617 52.5451 99.0834C53.0112 99.3022 53.3736 99.6063 53.6323 99.9957C53.8909 100.385 54.0202 100.831 54.0202 101.334C54.0202 101.664 53.9549 101.99 53.8241 102.311C53.6962 102.632 53.4674 102.989 53.1377 103.381C52.808 103.77 52.3433 104.238 51.7436 104.783L50.4689 106.033V106.092H54.1354V107.602H47.9108ZM55.1532 106.067V104.613L58.7984 98.8702H60.0518V100.883H59.31L57.0121 104.519V104.587H62.192V106.067H55.1532ZM59.3441 107.602V105.623L59.3782 104.98V98.8702H61.1091V107.602H59.3441ZM68.7811 106.391L63.6863 101.305L64.8033 100.175L69.9023 105.274L68.7811 106.391ZM64.8033 106.391L63.6863 105.274L68.7811 100.175L69.9023 101.305L64.8033 106.391ZM71.5821 107.602V106.271L74.6901 103.394C74.9544 103.138 75.1761 102.908 75.3552 102.703C75.5371 102.498 75.6749 102.298 75.7687 102.102C75.8625 101.903 75.9094 101.688 75.9094 101.458C75.9094 101.202 75.8511 100.982 75.7346 100.797C75.6181 100.61 75.4589 100.466 75.2571 100.367C75.0553 100.264 74.8265 100.213 74.5707 100.213C74.3035 100.213 74.0705 100.267 73.8715 100.375C73.6726 100.483 73.5191 100.638 73.4111 100.84C73.3031 101.042 73.2491 101.282 73.2491 101.56H71.4968C71.4968 100.989 71.6261 100.493 71.8848 100.072C72.1434 99.6518 72.5058 99.3264 72.9719 99.0962C73.4381 98.8659 73.9753 98.7508 74.5835 98.7508C75.2088 98.7508 75.7531 98.8617 76.2164 99.0834C76.6825 99.3022 77.0449 99.6063 77.3035 99.9957C77.5622 100.385 77.6915 100.831 77.6915 101.334C77.6915 101.664 77.6261 101.99 77.4954 102.311C77.3675 102.632 77.1387 102.989 76.809 103.381C76.4793 103.77 76.0146 104.238 75.4149 104.783L74.1401 106.033V106.092H77.8066V107.602H71.5821ZM78.8245 106.067V104.613L82.4697 98.8702H83.7231V100.883H82.9813L80.6833 104.519V104.587H85.8633V106.067H78.8245ZM83.0154 107.602V105.623L83.0495 104.98V98.8702H84.7804V107.602H83.0154ZM89.889 110.057V101.053H91.6796V102.153H91.7606C91.8402 101.977 91.9553 101.798 92.1059 101.616C92.2594 101.431 92.4584 101.278 92.7028 101.155C92.9501 101.03 93.257 100.968 93.6237 100.968C94.1012 100.968 94.5417 101.093 94.9453 101.343C95.3489 101.59 95.6715 101.964 95.9131 102.464C96.1547 102.962 96.2755 103.585 96.2755 104.336C96.2755 105.066 96.1575 105.683 95.9216 106.186C95.6886 106.686 95.3702 107.066 94.9666 107.324C94.5659 107.58 94.1168 107.708 93.6194 107.708C93.267 107.708 92.9671 107.65 92.7198 107.533C92.4754 107.417 92.275 107.27 92.1187 107.094C91.9624 106.915 91.843 106.735 91.7606 106.553H91.7052V110.057H89.889ZM91.6668 104.327C91.6668 104.717 91.7208 105.056 91.8288 105.346C91.9368 105.636 92.0931 105.862 92.2978 106.024C92.5024 106.183 92.7511 106.263 93.0439 106.263C93.3394 106.263 93.5896 106.182 93.7942 106.02C93.9988 105.855 94.1538 105.628 94.2589 105.338C94.3669 105.045 94.4209 104.708 94.4209 104.327C94.4209 103.949 94.3683 103.617 94.2632 103.33C94.158 103.043 94.0031 102.818 93.7985 102.656C93.5938 102.494 93.3423 102.413 93.0439 102.413C92.7483 102.413 92.4981 102.491 92.2935 102.648C92.0917 102.804 91.9368 103.026 91.8288 103.313C91.7208 103.6 91.6668 103.938 91.6668 104.327ZM98.7696 101.053L99.9718 103.342L101.204 101.053H103.067L101.17 104.327L103.118 107.602H101.264L99.9718 105.338L98.7013 107.602H96.8255L98.7696 104.327L96.8937 101.053H98.7696Z" fill="#0B1530"/>
</svg>
