<svg width="768" height="272" viewBox="0 0 768 272" fill="none" xmlns="http://www.w3.org/2000/svg">
<path d="M0 24C0 10.7452 10.7452 0 24 0H744C757.255 0 768 10.7452 768 24V248C768 261.255 757.255 272 744 272H24C10.7452 272 0 261.255 0 248V24Z" fill="#F5F6F8"/>
<path d="M131.532 77.4016V84.8022C131.532 85.4501 132.057 85.973 132.707 85.973H151.051C151.702 85.973 152.225 85.4501 152.225 84.8022V77.4016C152.225 76.904 151.77 77.1356 151.307 77.3077L144.276 79.9249V81.6795C144.276 82.5519 143.524 83.3422 142.638 83.3422H141.12C140.234 83.3422 139.482 82.5522 139.482 81.6795V79.9249L132.452 77.3077C132.03 77.1514 131.532 76.8644 131.532 77.4016Z" fill="#0B1530"/>
<path d="M139.552 68.7137H144.147C144.688 68.7137 144.8 68.8853 144.866 69.1215L145.11 69.9898H138.589L138.833 69.1215C138.9 68.8853 139.012 68.7137 139.552 68.7137ZM138.989 67.0003C137.878 67.0003 137.346 67.4564 137.023 68.2153L136.27 69.9898H132.995C131.89 69.9898 131 70.7285 131 71.6432V74.3131C131 75.2296 131.414 75.5747 132.449 75.9602L140.41 78.9222C141.575 79.3556 142.338 79.3 143.344 78.9222L151.251 75.9599C152.287 75.5717 152.7 75.2294 152.7 74.3128V71.6429C152.7 70.728 151.811 69.9623 150.705 69.9895H147.432L146.679 68.215C146.357 67.4561 145.822 67 144.709 67H138.989V67.0003Z" fill="#0B1530"/>
<path d="M141.117 80.332C140.789 80.332 140.524 80.5947 140.524 80.9499V81.6788C140.524 82.0343 140.789 82.297 141.117 82.297H142.634C142.964 82.297 143.228 82.0343 143.228 81.6788V80.9499C143.228 80.5947 142.964 80.332 142.634 80.332H141.117Z" fill="#0B1530"/>
<path d="M181.312 67C179.611 67 180.126 69.8774 174.387 71.4915C172.8 71.9367 172 72.2726 172 73.9238V78.3275C172 79.9787 172.8 80.3145 174.387 80.7592C180.126 82.3736 179.611 85.2494 181.312 85.2494H182.051C182.828 85.2494 183.459 84.6195 183.459 83.8415V68.4093C183.459 67.6315 182.828 67 182.051 67H181.312Z" fill="#0B1530"/>
<path d="M186.195 72.4245C186.023 72.4288 185.86 72.491 185.736 72.6149L185.132 73.2191C184.848 73.5039 184.884 73.9944 185.212 74.3231L187.013 76.1266L185.212 77.9297C184.884 78.2568 184.848 78.7506 185.132 79.0334L185.736 79.638C186.019 79.9211 186.511 79.8854 186.837 79.5583L188.639 77.7546L190.442 79.5583C190.769 79.8854 191.26 79.9211 191.543 79.638L192.147 79.0334C192.43 78.7506 192.395 78.2565 192.067 77.9297L190.266 76.1266L192.067 74.3231C192.395 73.9944 192.43 73.5039 192.147 73.2191L191.543 72.6149C191.26 72.3317 190.769 72.3675 190.442 72.6945L188.639 74.498L186.837 72.6945C186.654 72.5112 186.418 72.4187 186.195 72.4245Z" fill="#0B1530"/>
<path d="M229.838 67.0005C229.321 66.9877 228.771 67.201 228.341 67.6318L218.554 77.4275L215.426 74.2956C214.663 73.5315 213.516 73.4494 212.854 74.1106L211.446 75.5202C210.785 76.1817 210.868 77.331 211.631 78.0948L217.363 83.8308C218.007 84.4779 219.15 84.4296 219.748 83.8308L232.136 71.4296C232.899 70.6658 232.983 69.5179 232.321 68.8566L230.913 67.4457C230.623 67.1571 230.241 67.0104 229.838 67.0005Z" fill="#0B1530"/>
<path d="M254.394 67C252.821 67 252 70.8437 252 75.6159C252 80.3898 252.821 84.2329 254.394 84.2329H270.007C271.024 84.2329 271.842 83.2926 271.842 82.1256V81.2447H268.606C266.829 81.2447 265.429 79.716 265.429 77.9398V77.4333C265.429 75.6568 266.829 74.1284 268.606 74.1284H271.841V73.2647C271.839 72.2914 271.377 71.2373 270.541 71.2373H256.326C255.684 71.2373 254.944 71.0098 254.944 70.0695C254.944 69.2107 255.673 69.0732 256.326 69.0732H271.189C272.129 69.0732 272.043 67 271.17 67H254.394Z" fill="#0B1530"/>
<path d="M268.771 75.6074H271.331C272.302 75.6074 272.479 76.4386 272.479 77.4701V77.9027C272.479 78.9341 272.302 79.7653 271.331 79.7653H268.771C267.802 79.7653 267.021 78.9341 267.021 77.9027V77.4701C267.021 76.4386 267.802 75.6074 268.771 75.6074Z" fill="#0B1530"/>
<path d="M297.412 78.4505H299.013C299.175 78.4505 299.307 78.5713 299.307 78.7205V81.5971C299.307 81.7463 299.175 81.8656 299.013 81.8656H297.412C297.249 81.8656 297.118 81.7461 297.118 81.5971V78.7205C297.118 78.5713 297.249 78.4505 297.412 78.4505ZM297.412 73.9065H299.013C299.175 73.9065 299.307 74.0274 299.307 74.1766V77.0538C299.307 77.2024 299.175 77.3216 299.013 77.3216H297.412C297.249 77.3216 297.118 77.2022 297.118 77.0538V74.1769C297.118 74.0277 297.249 73.9065 297.412 73.9065ZM297.412 69.3623H299.013C299.175 69.3623 299.307 69.4832 299.307 69.6329V72.5085C299.307 72.6593 299.175 72.7785 299.013 72.7785H297.412C297.249 72.7785 297.118 72.659 297.118 72.5085V69.6329C297.118 69.4835 297.249 69.3623 297.412 69.3623ZM293.251 68C292.003 68 291 69.0033 291 70.2511V71.8906C291 72.6039 291.043 72.5709 291.597 72.7191C292.797 73.0399 293.667 74.2222 293.667 75.6159C293.667 77.0082 292.797 78.1905 291.597 78.5116C291.043 78.6591 291 78.6278 291 79.3395V80.9795C291 82.2267 292.003 83.2295 293.251 83.2295H310.457C311.703 83.2295 312.708 82.2267 312.708 80.9795V79.3395C312.708 78.6278 312.664 78.6591 312.111 78.5116C310.911 78.1902 310.041 77.0079 310.041 75.6159C310.041 74.2222 310.911 73.0399 312.111 72.7191C312.664 72.5709 312.708 72.6039 312.708 71.8906V70.2511C312.708 69.0033 311.703 68 310.457 68H293.251Z" fill="#0B1530"/>
<path d="M341.312 67C339.611 67 340.126 69.8774 334.387 71.4915C332.8 71.9367 332 72.2726 332 73.9238V78.3275C332 79.9787 332.8 80.3145 334.387 80.7592C340.126 82.3736 339.611 85.2494 341.312 85.2494H342.051C342.828 85.2494 343.459 84.6195 343.459 83.8415V68.4093C343.459 67.6315 342.828 67 342.051 67H341.312Z" fill="#0B1530"/>
<path d="M346.407 71.5021C345.562 71.5119 345.038 72.4222 345.452 73.1587C346.442 74.9851 346.442 77.2637 345.452 79.0915C345.14 79.6335 345.337 80.3248 345.885 80.6232C346.433 80.9208 347.119 80.7075 347.404 80.151C348.759 77.6508 348.759 74.5972 347.404 72.0965C347.209 71.7268 346.824 71.4961 346.407 71.5021Z" fill="#0B1530"/>
<path d="M349.432 68.6791C348.539 68.72 348.059 69.7484 348.6 70.461C349.666 71.912 350.309 73.9699 350.309 76.1247C350.309 78.2795 349.666 80.3388 348.6 81.7885C348.235 82.2833 348.34 82.9817 348.834 83.3456C349.33 83.7097 350.026 83.6031 350.39 83.1069C351.787 81.2036 352.531 78.7132 352.531 76.1247C352.531 73.5373 351.787 71.0472 350.39 69.1439C350.17 68.8354 349.811 68.6605 349.432 68.6791Z" fill="#0B1530"/>
<path d="M387.059 66.2949L374.577 75.1107C373.27 76.0325 372.542 77.5402 373.319 78.6969C373.898 79.5333 374.785 79.6034 375.823 79.596L382.739 79.5521L386.805 85.1471C387.416 85.987 387.999 86.6589 389.015 86.6273C390.407 86.5692 391.189 85.089 391.157 83.4888L390.85 68.2099C390.835 67.4229 390.191 66.7251 389.371 66.3287C388.553 65.9326 387.669 65.8628 387.059 66.2949Z" fill="#0B1530"/>
<path d="M421.699 72.5509C423.46 72.5509 424.888 73.9806 424.89 75.7443C424.888 77.5076 423.46 78.9373 421.699 78.9373C419.937 78.9373 418.509 77.5076 418.509 75.7443C418.509 73.9804 419.937 72.5509 421.699 72.5509ZM420.843 65C420.131 65 419.557 65.2785 419.557 65.8533C419.557 67.5427 419.3 68.2015 418.695 68.453C418.089 68.7034 417.443 68.4187 416.251 67.2241C415.845 66.819 415.242 67.0263 414.739 67.5313L413.529 68.7433C413.025 69.2485 412.817 69.8514 413.222 70.2581C414.415 71.4516 414.698 72.0989 414.448 72.7031C414.198 73.3104 413.541 73.5679 411.852 73.5679C411.278 73.5679 411 74.141 411 74.8536V76.5673C411 77.2798 411.278 77.8546 411.852 77.8546C413.541 77.8546 414.198 78.1124 414.448 78.7182C414.7 79.3241 414.415 79.9696 413.222 81.1644C412.817 81.5714 413.025 82.1745 413.529 82.6781L414.739 83.8899C415.242 84.3945 415.845 84.604 416.252 84.1968C417.445 83.0036 418.09 82.7193 418.695 82.9692C419.3 83.2199 419.558 83.8781 419.558 85.5678C419.558 86.1423 420.131 86.4214 420.843 86.4214H422.556C423.267 86.4214 423.841 86.1426 423.841 85.5678C423.841 83.8779 424.098 83.2199 424.704 82.9692C425.307 82.719 425.954 83.0036 427.147 84.1968C427.552 84.604 428.155 84.3945 428.659 83.8899L429.87 82.6781C430.374 82.1745 430.582 81.5714 430.177 81.1644C428.983 79.9698 428.699 79.3241 428.949 78.7182C429.201 78.1124 429.857 77.8546 431.546 77.8546C432.121 77.8546 432.399 77.2801 432.399 76.5673V74.8536C432.399 74.141 432.121 73.5679 431.546 73.5679C429.857 73.5679 429.201 73.3104 428.95 72.7031C428.699 72.0989 428.983 71.4516 430.177 70.2581C430.582 69.8514 430.374 69.2485 429.87 68.7433L428.659 67.5315C428.155 67.0266 427.554 66.8193 427.147 67.2244C425.954 68.4189 425.309 68.7037 424.704 68.4533C424.098 68.2018 423.841 67.543 423.841 65.8536C423.841 65.2785 423.267 65.0003 422.556 65.0003L420.843 65Z" fill="#0B1530"/>
<path d="M465.237 71.8195V73.1805H469.444C469.798 73.1805 470.084 73.5447 470.084 73.9959V77.4819C470.084 77.9325 469.798 78.2967 469.444 78.2967H465.237V79.6577C465.235 80.9922 463.726 81.1684 463.08 80.2878L460.387 76.6283C460.263 76.4606 459.986 76.1545 459.986 75.7382C459.986 75.3227 460.263 75.0167 460.387 74.8489L463.08 71.1896C463.835 70.1609 465.235 70.7725 465.237 71.8195Z" fill="#0B1530"/>
<path d="M455.088 66C454.486 66 454 66.5229 454 67.1744V84.3064C454 84.9578 454.486 85.4829 455.088 85.4829H464.011C464.662 85.4829 465.186 84.9965 465.186 84.392V83.0081C465.186 82.4053 464.662 81.9186 464.011 81.9186H457.559V69.563H464.011C464.662 69.563 465.186 69.0766 465.186 68.4737V67.0895C465.186 66.485 464.662 66.0003 464.011 66.0003H455.088V66Z" fill="#0B1530"/>
<path d="M501.963 68C498.025 67.997 494.279 69.2259 491.664 71.5673C489.799 73.1673 492.271 75.9367 494.068 74.2595C495.84 72.6738 498.801 71.6112 501.962 71.6126C505.124 71.6156 508.08 72.682 509.846 74.2696C511.635 75.8807 514.047 73.1929 512.259 71.5829C509.65 69.2374 505.902 68.003 501.963 68Z" fill="#0B1530"/>
<path d="M504.736 81.3992C504.736 82.0945 504.461 82.7618 503.976 83.2533C503.488 83.7441 502.827 84.0218 502.138 84.0218C500.704 84.0218 499.541 82.8469 499.541 81.3992C499.541 79.9525 500.705 78.7773 502.138 78.7773C502.827 78.7773 503.488 79.0534 503.976 79.5458C504.461 80.0377 504.736 80.7049 504.736 81.3992Z" fill="#0B1530"/>
<path d="M497.604 78.178C500.15 76.4529 503.763 76.4559 506.305 78.1851C508.296 79.539 510.325 76.5492 508.333 75.1956C506.426 73.8998 504.192 73.2514 501.958 73.25C499.724 73.2484 497.491 73.8938 495.502 75.2084C493.514 76.5211 495.598 79.6047 497.604 78.178Z" fill="#0B1530"/>
<path d="M547.667 67.3766L545.974 69.0723C544.969 68.8958 543.931 68.8033 542.879 68.8033C538.971 68.7992 535.253 70.0178 532.658 72.3406C530.809 73.9297 533.261 76.677 535.045 75.0146C536.76 73.4768 539.603 72.4375 542.657 72.3919L540.9 74.1495C539.327 74.4144 537.803 75.0045 536.515 75.8575C535.228 76.7097 535.446 78.0949 536.239 78.8176L535.444 79.6111C535.044 80.0135 534.96 80.5782 535.258 80.8772L535.943 81.5624C536.241 81.8614 536.806 81.7787 537.208 81.3764L549.429 69.1413C549.832 68.7389 549.914 68.1743 549.615 67.8755L548.932 67.19C548.562 66.8207 547.995 67.0482 547.667 67.3766Z" fill="#0B1530"/>
<path d="M545.631 82.0977C545.631 82.7876 545.36 83.4489 544.877 83.9369C544.394 84.4247 543.737 84.6991 543.054 84.6991C542.371 84.6991 541.715 84.4247 541.232 83.9369C540.748 83.4489 540.477 82.7876 540.477 82.0977C540.477 80.6612 541.63 79.4961 543.054 79.4961C544.478 79.4961 545.631 80.6612 545.631 82.0977Z" fill="#0B1530"/>
<path d="M550.022 70.3379L547.263 73.1016C548.625 73.5639 549.815 74.2282 550.699 75.0242C552.476 76.6217 554.87 73.9551 553.093 72.3577C552.193 71.5483 551.154 70.8758 550.022 70.3379Z" fill="#0B1530"/>
<path d="M545.933 74.4316L542.743 77.625C544.313 77.602 545.889 78.0273 547.186 78.9093C549.163 80.252 551.174 77.2864 549.199 75.9426C548.186 75.2541 547.081 74.7516 545.933 74.4316Z" fill="#0B1530"/>
<path d="M582.198 78.2632C583.031 78.2645 583.701 78.9345 583.701 79.7679V81.6281C583.701 82.4617 583.031 83.1331 582.198 83.1331C581.365 83.1331 580.695 82.4617 580.695 81.6281V79.7679C580.695 78.9342 581.365 78.2643 582.198 78.2632ZM582.198 69.0959C583.727 69.0959 584.687 70.0575 584.687 71.3135V74.8723H579.708V71.3135C579.708 70.0575 580.669 69.0959 582.198 69.0959ZM582.198 66C579.01 66 576.616 68.3654 576.616 71.3137V74.8723H575.031C574.462 74.8723 574 75.3345 574 75.9035V80.7079C574 83.8855 576.01 86.4426 579.183 86.4426H585.213C588.385 86.4426 590.396 83.8855 590.396 80.7079V75.9035C590.396 75.3345 589.934 74.8723 589.365 74.8723H587.78V71.3135C587.78 68.3654 585.386 66 582.198 66Z" fill="#0B1530"/>
<path d="M622.198 78.2634C623.03 78.2648 623.701 78.9348 623.701 79.7682V81.6284C623.701 82.462 623.03 83.1334 622.198 83.1334C621.365 83.1334 620.695 82.462 620.695 81.6284V79.7682C620.695 78.9345 621.365 78.2645 622.198 78.2634ZM622.196 66.0003C619.01 66.0003 616.614 68.3657 616.614 71.314V74.8726H615.031C614.462 74.8726 614 75.3347 614 75.9038V80.7082C614 83.8857 616.009 86.4429 619.183 86.4429H625.212C628.386 86.4429 630.395 83.8857 630.395 80.7082V75.9038C630.395 75.3347 629.934 74.8726 629.365 74.8726H619.709V71.3137C619.709 70.0578 620.669 69.0962 622.196 69.0962V69.0938L622.198 69.0962C623.725 69.0962 624.687 70.0578 624.687 71.3137V71.6493C624.674 72.5026 625.356 73.2069 626.209 73.2198C627.081 73.2339 627.793 72.5228 627.78 71.6493V71.3137C627.78 68.3654 625.386 66 622.198 66L622.196 66.0014V66.0003Z" fill="#0B1530"/>
<path d="M138.683 115.013V109.637C138.683 108.916 138.997 108.606 139.279 108.404L141.116 107.088C141.472 106.833 141.876 106.738 142.235 106.738H148.928C149.904 106.738 150.469 107.381 150.753 108.482L152.553 115.457C152.813 116.743 152.399 118.35 150.211 118.35H147.429V121.608C147.429 124.021 146.838 125.323 145.333 125.38C144.049 125.396 145.042 122.44 143.06 120.483L139.413 116.882C138.71 116.186 138.683 115.867 138.683 115.013Z" fill="#0B1530"/>
<path fill-rule="evenodd" clip-rule="evenodd" d="M131.874 117.232H136.158C136.679 117.232 137.098 116.861 137.098 116.4V107.572C137.098 107.111 136.679 106.738 136.158 106.738H131.874C131.353 106.738 130.934 107.111 130.934 107.572V116.4C130.933 116.861 131.353 117.232 131.874 117.232Z" fill="#0B1530"/>
<path d="M178.749 117.367V122.743C178.749 123.465 179.063 123.775 179.346 123.977L181.183 125.292C181.538 125.547 181.943 125.642 182.301 125.642H188.994C189.97 125.642 190.536 125 190.82 123.898L192.619 116.923C192.879 115.636 192.465 114.031 190.277 114.031H187.495V110.772C187.495 108.36 186.904 107.057 185.4 107C184.115 106.983 185.108 109.938 183.127 111.897L179.479 115.498C178.776 116.193 178.749 116.514 178.749 117.367Z" fill="#0B1530"/>
<path fill-rule="evenodd" clip-rule="evenodd" d="M171.941 115.146H176.225C176.746 115.146 177.165 115.52 177.165 115.98V124.808C177.165 125.27 176.746 125.641 176.225 125.641H171.941C171.419 125.641 171 125.27 171 124.808V115.98C171 115.52 171.419 115.146 171.941 115.146Z" fill="#0B1530"/>
<path d="M223.501 107.077L225.977 112.328L231.628 113.184C233.179 113.419 233.273 114.118 232.165 115.25L228.158 119.339L229.075 124.914C229.375 126.736 228.829 127.175 227.577 126.487L222.454 123.679L217.33 126.49C216.079 127.178 215.533 126.74 215.833 124.917L216.749 119.342L212.743 115.253C211.635 114.122 211.728 113.423 213.28 113.187L218.93 112.33L221.407 107.073C222.136 105.529 222.88 105.759 223.501 107.077Z" fill="#0B1530"/>
<path d="M265.023 111.161C267.194 113.332 267.194 116.851 265.023 119.022C262.852 121.193 259.331 121.193 257.16 119.022C254.99 116.851 254.99 113.332 257.162 111.161C259.333 108.99 262.852 108.99 265.023 111.161ZM254.663 108.663C251.112 112.214 251.112 117.969 254.663 121.52C257.757 124.61 262.614 125.061 266.222 122.591L268.592 124.96C270.193 126.562 272.563 124.194 270.961 122.591L268.592 120.221C271.061 116.613 270.611 111.756 267.521 108.663C263.97 105.112 258.215 105.112 254.663 108.663Z" fill="#0B1530"/>
<path d="M301.63 111.379C303.428 111.379 304.886 112.838 304.886 114.639C304.886 116.44 303.428 117.898 301.63 117.898C299.832 117.898 298.375 116.44 298.375 114.639C298.375 112.838 299.832 111.379 301.63 111.379ZM293 114.639C293 117.617 294.531 120.373 297.029 121.948C297.271 122.099 297.598 122.405 297.75 122.647L300.007 126.224C300.61 127.178 302.783 127.175 303.384 126.222L305.72 122.516C305.872 122.275 306.194 121.964 306.432 121.806C308.812 120.211 310.257 117.528 310.261 114.639C310.261 109.867 306.396 106 301.63 106C296.864 106 293 109.867 293 114.639Z" fill="#0B1530"/>
<path d="M344.608 114.126C345.131 114.126 345.553 114.548 345.553 115.071V123.275C345.553 123.799 345.131 124.219 344.608 124.219C344.084 124.219 343.662 123.799 343.662 123.275V115.071C343.662 114.548 344.084 114.126 344.608 114.126ZM339.646 114.126C340.171 114.126 340.593 114.548 340.593 115.071V123.275C340.593 123.799 340.171 124.219 339.646 124.219C339.124 124.219 338.702 123.799 338.702 123.275V115.071C338.702 114.548 339.124 114.126 339.646 114.126ZM333.277 109.375C333.11 109.372 332.965 109.405 332.842 109.462C332.349 109.645 332 110.115 332 110.895C332 111.677 332.53 112.229 332.976 112.255C333.422 112.282 333.836 112.522 333.861 112.836L334.741 124.248C334.793 124.914 335.019 125.542 335.434 126.042C335.847 126.541 336.493 126.906 337.211 126.906H347.045C347.763 126.906 348.409 126.541 348.822 126.042C349.236 125.542 349.462 124.914 349.514 124.248L350.395 112.836C350.419 112.522 350.834 112.282 351.279 112.255C351.725 112.229 352.254 111.677 352.254 110.895C352.254 110.115 351.905 109.645 351.412 109.462C351.29 109.405 351.147 109.372 350.979 109.375H333.277Z" fill="#0B1530"/>
<path fill-rule="evenodd" clip-rule="evenodd" d="M345.06 107.546V108.288H339.195V107.546C339.195 106.692 339.888 106 340.743 106H343.514C344.369 106 345.06 106.692 345.06 107.546Z" fill="#0B1530"/>
<path d="M380.33 113.807L379.651 112.631C383.109 110.421 387.15 111.491 388.07 114.932C388.605 116.929 392.209 115.939 391.486 113.203C390.192 108.371 386.212 105.787 381.481 106.431C379.983 106.636 378.476 107.218 377.072 108.166L376.255 106.75C375.951 106.225 375.512 105.997 375.086 106C374.536 106.003 374.005 106.384 373.8 106.991L372.17 111.839C371.664 113.345 372.3 114.494 373.895 114.814L378.896 115.817C380.134 116.064 380.775 114.645 380.33 113.807Z" fill="#0B1530"/>
<path d="M383.252 118.911L383.931 120.087C380.473 122.296 376.434 121.226 375.513 117.786C374.977 115.789 371.374 116.779 372.098 119.514C373.39 124.346 377.37 126.931 382.102 126.287C383.599 126.082 385.107 125.5 386.51 124.551L387.327 125.967C387.631 126.493 388.07 126.72 388.498 126.718C389.046 126.715 389.578 126.334 389.782 125.726L391.412 120.879C391.918 119.373 391.283 118.224 389.687 117.904L384.686 116.901C383.448 116.653 382.807 118.073 383.252 118.911Z" fill="#0B1530"/>
<path d="M412.436 107C411.641 107 411 107.635 411 108.425V110.11C411 110.9 411.641 111.537 412.436 111.537H431.006C431.803 111.537 432.444 110.9 432.444 110.11V108.425C432.444 107.635 431.803 107 431.006 107H412.436Z" fill="#0B1530"/>
<path d="M412.436 113.889C411.641 113.889 411 114.524 411 115.314V116.999C411 117.789 411.641 118.426 412.436 118.426H431.006C431.803 118.426 432.444 117.789 432.444 116.999V115.314C432.444 114.524 431.803 113.889 431.006 113.889H412.436Z" fill="#0B1530"/>
<path d="M412.436 120.777C411.641 120.777 411 121.412 411 122.202V123.888C411 124.678 411.641 125.314 412.436 125.314H431.006C431.803 125.314 432.444 124.678 432.444 123.888V122.202C432.444 121.412 431.803 120.777 431.006 120.777H412.436Z" fill="#0B1530"/>
<path d="M464.834 111.821V113.182H460.627C460.272 113.182 459.986 113.547 459.986 113.998V117.484C459.986 117.935 460.272 118.299 460.627 118.299H464.834V119.66C464.836 120.994 466.343 121.17 466.991 120.29L469.683 116.63C469.806 116.463 470.084 116.156 470.084 115.742C470.084 115.325 469.806 115.019 469.683 114.851L466.991 111.192C466.235 110.163 464.836 110.774 464.834 111.821Z" fill="#0B1530"/>
<path d="M455.089 106C454.486 106 454 106.525 454 107.176V124.308C454 124.959 454.486 125.483 455.089 125.483H464.011C464.662 125.483 465.186 124.998 465.186 124.393V123.009C465.186 122.406 464.662 121.92 464.011 121.92H457.559V109.564H464.011C464.662 109.564 465.186 109.078 465.186 108.475V107.091C465.186 106.486 464.662 106 464.011 106H455.089Z" fill="#0B1530"/>
<path d="M505.581 108.347V114.081C505.581 115.934 503.965 117.427 501.958 117.427C499.95 117.427 498.335 115.934 498.335 114.081V108.347C498.335 106.492 499.95 105 501.958 105C503.965 105 505.581 106.493 505.581 108.347Z" fill="#0B1530"/>
<path d="M508.398 111.945C507.574 111.958 506.915 112.638 506.926 113.461V114.03C506.926 116.747 504.748 118.908 501.959 118.908C499.169 118.908 496.989 116.747 496.989 114.03V113.461C497.001 112.621 496.314 111.934 495.473 111.947C494.648 111.958 493.989 112.638 494 113.461V114.03C494 117.883 496.825 121.089 500.513 121.764V124.121H497.944C497.565 124.121 497.261 124.454 497.261 124.866V125.917C497.261 126.329 497.565 126.662 497.944 126.662H505.973C506.351 126.662 506.656 126.329 506.656 125.917V124.866C506.656 124.454 506.351 124.121 505.973 124.121H503.501V121.748C507.142 121.034 509.915 117.85 509.915 114.03V113.461C509.928 112.62 509.242 111.933 508.398 111.945Z" fill="#0B1530"/>
<path d="M538.101 107C537.573 107 537.146 107.465 537.146 108.04V110.134C537.146 110.709 537.573 111.175 538.101 111.175H551.745C552.274 111.175 552.7 110.709 552.7 110.134V108.04C552.7 107.465 552.273 107 551.745 107H538.101Z" fill="#0B1530"/>
<path d="M538.101 113.557C537.573 113.557 537.146 114.02 537.146 114.597V116.69C537.146 117.267 537.573 117.73 538.101 117.73H551.745C552.274 117.73 552.7 117.267 552.7 116.69V114.597C552.7 114.02 552.273 113.557 551.745 113.557H538.101Z" fill="#0B1530"/>
<path d="M538.101 120.113C537.573 120.113 537.146 120.578 537.146 121.153V123.246C537.146 123.823 537.573 124.286 538.101 124.286H551.745C552.274 124.286 552.7 123.823 552.7 123.246V121.153C552.7 120.578 552.273 120.113 551.745 120.113H538.101Z" fill="#0B1530"/>
<path d="M533.087 120.113C532.534 120.113 532.003 120.333 531.611 120.724C531.22 121.117 531 121.646 531 122.2C531 122.755 531.22 123.285 531.612 123.675C532.003 124.067 532.534 124.287 533.087 124.286C534.239 124.286 535.174 123.353 535.174 122.2C535.174 121.646 534.954 121.117 534.564 120.724C534.171 120.333 533.641 120.113 533.087 120.113Z" fill="#0B1530"/>
<path d="M533.087 113.557C532.534 113.557 532.003 113.776 531.611 114.168C531.22 114.558 531 115.09 531 115.644C531 116.196 531.22 116.728 531.612 117.119C532.003 117.51 532.534 117.73 533.087 117.73C534.239 117.73 535.174 116.796 535.174 115.644C535.174 115.089 534.954 114.559 534.564 114.167C534.171 113.777 533.641 113.557 533.087 113.557Z" fill="#0B1530"/>
<path d="M533.087 107C532.534 107 532.003 107.22 531.612 107.611C531.22 108.003 531 108.533 531 109.087C531 109.64 531.22 110.171 531.611 110.563C532.003 110.954 532.534 111.174 533.087 111.174C533.641 111.174 534.171 110.954 534.563 110.562C534.954 110.171 535.174 109.64 535.174 109.087C535.174 107.935 534.239 107 533.087 107Z" fill="#0B1530"/>
<path d="M586.062 112.332C586.431 112.333 586.796 112.653 587.082 113.29L589.95 119.682C590.459 120.623 590.294 121.795 588.988 121.793L575.467 121.791C574.541 121.79 574.424 120.959 574.786 120.293L577.248 115.922C577.759 115.017 578.393 114.888 578.953 115.924L580.84 119.41C581.191 120.059 581.793 120.042 582.097 119.403L585.014 113.289C585.32 112.649 585.693 112.331 586.062 112.332ZM581.336 111.113C582.275 111.113 583.035 111.875 583.035 112.813C583.035 113.751 582.275 114.512 581.336 114.512C580.398 114.512 579.637 113.752 579.637 112.813C579.637 111.873 580.397 111.113 581.336 111.113ZM574.232 108C572.995 108 572 109.029 572 110.304V122.171C572 123.447 572.995 124.473 574.232 124.473H590.579C591.817 124.473 592.813 123.447 592.813 122.171V110.304C592.813 109.029 591.817 108 590.579 108H574.232Z" fill="#0B1530"/>
<path d="M617.559 109.581C618.066 109.588 618.55 109.792 618.908 110.152C619.67 110.913 619.67 112.147 618.908 112.909C618.147 113.67 616.913 113.67 616.152 112.909C615.39 112.147 615.39 110.913 616.152 110.152C616.524 109.778 617.031 109.573 617.559 109.581ZM614.232 108.232C611.256 111.208 611.256 116.032 614.232 119.007C615.923 120.693 618.294 121.39 620.67 121.157C621.821 121.044 622.568 121.196 623.352 121.727L624.365 122.741C624.543 122.918 624.699 122.954 624.874 122.915C625.33 122.818 625.786 122.725 626.174 122.61C626.64 122.471 627.16 123.032 627.078 123.495L626.832 124.86C626.792 125.083 626.848 125.221 626.998 125.372L628.123 126.497C628.261 126.668 628.476 126.794 628.726 126.839C633.259 126.704 632.833 126.852 632.852 122.901C632.853 122.597 632.715 122.364 632.525 122.151L627.725 117.351C627.059 116.685 627.045 115.825 627.157 114.688C627.393 112.306 626.7 109.927 625.009 108.232C623.52 106.744 621.57 106 619.62 106C617.671 106 615.72 106.744 614.232 108.232Z" fill="#0B1530"/>
<path d="M137.619 146.001C135.742 145.962 133.918 146.797 132.728 148.228C130.526 150.876 130.108 155.598 133.376 158.277L140.172 164.645C141.098 165.513 142.621 165.513 143.547 164.645L150.343 158.277C153.612 155.598 153.194 150.876 150.992 148.228C149.801 146.797 147.977 145.962 146.1 146.001C144.543 146.034 143.041 146.899 141.859 148.315C140.678 146.899 139.176 146.034 137.619 146.001Z" fill="#0B1530"/>
<path d="M182.915 152.807L178.806 156.916C176.861 158.777 179.738 161.653 181.598 159.708L185.707 155.599C187.764 153.542 184.551 151.172 182.915 152.807Z" fill="#0B1530"/>
<path d="M176.677 152.591C176.306 152.22 175.711 152.22 175.34 152.591L174.138 153.792C171.255 156.676 171.279 161.408 174.262 164.295C177.245 167.181 181.844 167.15 184.669 164.325L185.872 163.122C186.241 162.752 186.241 162.156 185.872 161.786L184.416 160.33C184.046 159.961 183.45 159.961 183.08 160.33L181.877 161.533C180.504 162.906 178.359 162.904 176.958 161.504C175.559 160.104 175.557 157.957 176.93 156.585L178.132 155.383C178.501 155.012 178.503 154.417 178.132 154.046L176.677 152.591Z" fill="#0B1530"/>
<path d="M178.59 150.677C178.221 150.306 178.221 149.711 178.592 149.34L179.794 148.137C182.677 145.255 187.409 145.279 190.295 148.263C193.182 151.245 193.15 155.844 190.326 158.67L189.122 159.872C188.752 160.242 188.156 160.243 187.787 159.872L186.33 158.416C185.96 158.046 185.961 157.451 186.33 157.08L187.532 155.877C188.906 154.504 188.903 152.359 187.504 150.96C186.103 149.559 183.958 149.558 182.585 150.93L181.382 152.132C181.012 152.502 180.416 152.502 180.046 152.132L178.59 150.677Z" fill="#0B1530"/>
<path d="M218.83 146.567C217.768 149.044 217.612 151.503 214.874 153.447L212.291 154.999C210.985 155.783 210.447 158.204 211.744 160.328C212.447 161.618 213.561 162.403 214.479 162.659C215.398 162.915 216.179 163.153 216.935 163.915L218.713 165.954C219.035 166.323 219.64 166.428 220.098 166.164L221.759 165.205C222.247 164.908 222.225 164.388 222.025 164.041L220.139 160.77C221.657 159.893 225.412 160.75 227.203 161.07C228.1 161.229 228.661 160.229 228.177 159.391C225.707 155.114 220.771 146.564 220.771 146.564C220.235 145.634 219.187 145.735 218.83 146.567Z" fill="#0B1530"/>
<path d="M224.187 148.555C223.562 148.926 223.563 149.832 224.187 150.201C225.712 151.136 226.692 152.832 226.739 154.62C226.739 155.157 227.184 155.588 227.721 155.572C228.258 155.558 228.677 155.105 228.65 154.568C228.585 152.123 227.272 149.848 225.186 148.569C224.882 148.378 224.495 148.372 224.187 148.555Z" fill="#0B1530"/>
<path d="M225.229 145.151C224.581 145.567 224.665 146.539 225.375 146.838C226.793 147.461 228.158 148.715 229.085 150.321C230.011 151.925 230.416 153.735 230.246 155.274C230.186 155.799 230.565 156.272 231.09 156.33C231.615 156.39 232.088 156.01 232.147 155.485C232.37 153.466 231.854 151.291 230.74 149.364C229.628 147.436 228.004 145.902 226.142 145.086C225.847 144.951 225.503 144.976 225.229 145.151Z" fill="#0B1530"/>
<path d="M261.637 145C261.233 144.998 260.828 145.221 260.414 145.668L257.883 148.4C257.087 149.26 257.386 150.168 258.277 150.168L260.049 150.169V154.05H256.171V152.278C256.171 151.386 255.263 151.087 254.403 151.883L251.67 154.404C250.781 155.223 250.773 156.014 251.668 156.844L254.401 159.375C255.26 160.17 256.168 159.872 256.168 158.98V157.208H260.05V161.088L258.277 161.089C257.386 161.089 257.088 161.998 257.883 162.857L260.414 165.589C261.243 166.484 262.034 166.477 262.854 165.586L265.373 162.854C266.17 161.995 265.872 161.087 264.98 161.087L263.208 161.085V157.208H267.088V158.98C267.089 159.872 267.997 160.17 268.857 159.374L271.588 156.844C272.484 156.014 272.477 155.223 271.586 154.403L268.854 151.883C267.995 151.087 267.086 151.386 267.086 152.278L267.085 154.05H263.208V150.172L264.98 150.171C265.872 150.171 266.17 149.263 265.373 148.403L262.854 145.671C262.444 145.224 262.042 145.002 261.637 145Z" fill="#0B1530"/>
<path d="M294.556 146.006C292 146.006 291.335 148.535 292.678 150.142L299.584 158.413V164.825C299.584 165.56 300.319 166.066 301.005 165.807L303.932 164.696C304.29 164.561 304.527 164.217 304.527 163.835V158.428L311.435 150.134C312.774 148.524 312.117 145.997 309.561 146L294.556 146.006Z" fill="#0B1530"/>
<path d="M341.472 159.557L335.544 154.364C334.549 153.632 334.725 152.417 336 152.416H338.584V145.98C338.584 145.436 339.138 145 339.828 145H345.151C345.839 145 346.393 145.436 346.393 145.98V152.416H348.979C350.252 152.417 350.428 153.632 349.434 154.364L343.506 159.557C343.214 159.811 342.838 159.947 342.464 159.938C342.091 159.93 341.744 159.794 341.472 159.557Z" fill="#0B1530"/>
<path d="M334 164.828V163.312C334 162.651 334.574 162.117 335.287 162.117H349.677C350.391 162.117 350.964 162.651 350.964 163.312V164.828C350.964 165.489 350.391 166.023 349.677 166.023H335.287C334.574 166.023 334 165.489 334 164.828Z" fill="#0B1530"/>
<path d="M373 165.216V163.669C373 162.994 373.587 162.451 374.315 162.451H389.008C389.735 162.451 390.322 162.994 390.322 163.669V165.216C390.322 165.891 389.735 166.435 389.008 166.435H374.315C373.587 166.435 373 165.891 373 165.216Z" fill="#0B1530"/>
<path d="M387.771 145.506C387.021 144.756 385.717 144.85 384.849 145.718L383.334 147.233L387.507 151.405L389.021 149.891C389.89 149.023 389.983 147.718 389.232 146.967L387.771 145.506Z" fill="#0B1530"/>
<path d="M382.444 148.125L375.318 155.25C374.946 155.622 374.716 156.076 374.635 156.53L374.102 159.688C373.96 160.165 374.557 160.732 375.042 160.628L378.046 160.128C378.555 160.077 379.051 159.817 379.491 159.423L386.617 152.298L382.444 148.125Z" fill="#0B1530"/>
<path d="M421.614 151.321C422.949 151.321 424.226 151.851 425.169 152.795C426.111 153.738 426.641 155.018 426.641 156.354C426.641 159.133 424.391 161.384 421.614 161.384C420.282 161.386 419.003 160.855 418.059 159.911C417.117 158.968 416.588 157.688 416.588 156.354C416.588 155.018 417.117 153.738 418.059 152.795C419.003 151.851 420.282 151.32 421.614 151.321ZM421.614 149C414.896 149 411 154.513 411 156.354C411 158.194 414.896 163.705 421.614 163.705C428.335 163.705 432.229 158.194 432.229 156.354C432.229 154.513 428.335 149 421.614 149Z" fill="#0B1530"/>
<path d="M424.735 156.354C424.735 157.859 423.668 159.153 422.192 159.439C420.715 159.725 419.244 158.922 418.682 157.526C418.121 156.13 418.628 154.531 419.892 153.715C421.154 152.897 422.82 153.092 423.86 154.178L421.595 156.354L424.735 156.354Z" fill="#0B1530"/>
<path d="M456.302 146C454.611 146 454 146.655 454 148.401V163.739C454 165.485 454.611 166.14 456.302 166.14H468.057C469.748 166.14 470.36 165.485 470.36 163.739L470.363 152.104H467.857C465.687 152.104 464.389 150.403 464.389 148.539V146H456.302Z" fill="#0B1530"/>
<path d="M466.022 146V148.376C466.022 149.331 466.196 149.828 466.436 150.078C466.675 150.329 467.117 150.499 468.03 150.499H470.363C470.363 150.095 470.116 149.908 469.865 149.649L466.687 146.379C466.48 146.142 466.231 146.003 466.022 146Z" fill="#0B1530"/>
<path d="M494 147.577V165.376C494 166.203 494.884 166.73 495.611 166.336L502.131 162.263L508.651 166.336C509.378 166.73 510.262 166.203 510.262 165.376V147.577C510.262 146.894 509.99 146.238 509.507 145.755C509.024 145.271 508.368 145 507.684 145H496.577C495.153 145 494 146.154 494 147.577Z" fill="#0B1530"/>
<path d="M533.869 147C532.834 147 532 147.692 532 148.553L532.005 162.856C532.005 163.673 532.794 164.329 533.775 164.329H548.633C549.615 164.329 550.126 163.623 550.404 162.856L553.568 154.665C553.691 154.205 553.578 153.948 553.065 153.948H539.522C538.473 153.948 538.151 154.487 537.845 155.358L535.977 161.245C535.502 162.741 533.765 162.183 534.092 161.156L536.65 153.107C536.851 152.477 537.536 152.105 538.233 152.105H549.477V150.609C549.477 149.791 548.687 149.135 547.705 149.135H540.836L540.039 147.447C539.91 147.175 539.635 147 539.333 147H533.869Z" fill="#0B1530"/>
<path d="M575.734 146C575.434 146 575.136 146.078 574.867 146.233C574.331 146.541 574 147.114 574 147.733V165.505C574 166.288 574.5 166.688 575.123 166.688H576.344C576.965 166.688 577.465 166.288 577.465 165.505V158.624C582.031 158.319 584.169 161.582 589.411 160.038C590.082 159.84 590.361 159.57 590.361 158.926V150.607C590.361 150.133 589.915 149.579 589.411 149.753C584.409 151.46 581.681 148.485 577.466 148.45V147.733C577.466 147.114 577.136 146.541 576.599 146.233C576.332 146.078 576.032 146 575.734 146Z" fill="#0B1530"/>
<path d="M615.735 147.04L612.339 151.154C611.761 151.836 611.863 153.079 613.112 153.079H614.949V165.46C614.983 166.108 615.612 166.633 616.437 166.633H618.278C619.102 166.633 619.731 166.108 619.765 165.46V153.079H621.602C622.852 153.079 622.955 151.836 622.375 151.154L618.981 147.04C618.37 146.321 617.866 145.996 617.349 146C616.83 146.005 616.333 146.334 615.735 147.04Z" fill="#0B1530"/>
<path d="M624.945 165.595L621.551 161.48C620.971 160.798 621.074 159.555 622.323 159.555H624.16V147.174C624.194 146.526 624.824 146.002 625.648 146.002H627.489C628.313 146.002 628.942 146.526 628.977 147.174V159.555H630.814C632.062 159.555 632.166 160.798 631.586 161.48L628.193 165.595C627.582 166.314 627.077 166.639 626.559 166.635C626.042 166.629 625.544 166.301 624.945 165.595Z" fill="#0B1530"/>
<path fill-rule="evenodd" clip-rule="evenodd" d="M131.462 192.963C131.206 192.968 131 193.115 131 193.39V199.387C131 199.827 131.492 199.936 131.953 199.669L136.365 196.474C136.643 196.285 136.641 196.004 136.378 195.851L131.967 193.108C131.794 193.007 131.616 192.96 131.462 192.963Z" fill="#0B1530"/>
<path fill-rule="evenodd" clip-rule="evenodd" d="M152.216 192.963C152.473 192.968 152.679 193.115 152.679 193.39V199.387C152.679 199.827 152.187 199.936 151.726 199.669L147.314 196.474C147.034 196.285 147.037 196.004 147.301 195.851L151.711 193.108C151.885 193.007 152.062 192.96 152.216 192.963Z" fill="#0B1530"/>
<path d="M133.946 188C132.724 188 131.682 188.744 131.242 189.803C131.09 190.172 131.322 190.673 131.658 190.887L138.408 195.211C139.691 196.032 140.777 196.377 141.864 196.376C142.95 196.376 144.028 196.032 145.311 195.211L152.069 190.882C152.405 190.667 152.636 190.165 152.483 189.797C152.041 188.741 151.002 188 149.782 188H133.946Z" fill="#0B1530"/>
<path d="M137.754 197.276L131.873 201.719C131.555 201.959 131.43 202.456 131.682 202.763C132.218 203.42 133.032 203.84 133.949 203.84H149.729C150.647 203.84 151.462 203.42 151.998 202.763C152.249 202.456 152.123 201.959 151.806 201.719L145.926 197.275C145.698 197.104 145.313 197.079 145.056 197.201C144.29 197.562 143.032 198.014 141.84 198.021C140.645 198.014 139.388 197.562 138.622 197.201C138.365 197.079 137.98 197.104 137.754 197.276Z" fill="#0B1530"/>
<path d="M181.746 191.325C184.795 191.325 187.266 193.797 187.266 196.845C187.266 199.894 184.795 202.365 181.746 202.365C178.698 202.365 176.227 199.894 176.227 196.845C176.227 193.797 178.698 191.325 181.746 191.325ZM179.9 187C179.065 187 178.82 187.804 178.395 188.553L178.135 189.01H173.306C172.027 189.01 171 190.072 171 191.389V201.994C171 203.311 172.027 204.371 173.306 204.371H190.189C191.466 204.371 192.495 203.311 192.495 201.994V191.389C192.495 190.072 191.466 189.01 190.189 189.01H185.359L185.099 188.553C184.674 187.804 184.429 187 183.595 187H179.9Z" fill="#0B1530"/>
<path d="M181.745 200.242C183.622 200.242 185.144 198.721 185.144 196.844C185.144 194.967 183.622 193.445 181.745 193.445C179.868 193.445 178.347 194.967 178.347 196.844C178.347 198.721 179.868 200.242 181.745 200.242Z" fill="#0B1530"/>
<path d="M221.647 186C221.283 185.998 220.933 186.13 220.66 186.369L214.53 192.263C213.563 192.975 214.021 194.076 215.086 194.076H217.742V204.325C217.742 204.868 218.296 205.304 218.985 205.304H224.309C224.996 205.304 225.55 204.868 225.55 204.325V194.076H228.207C229.271 194.076 229.729 192.976 228.761 192.263L222.633 186.369C222.359 186.13 222.009 186 221.647 186Z" fill="#0B1530"/>
<path d="M252 195.646C252 195.283 252.132 194.932 252.371 194.659L258.264 188.529C258.976 187.563 260.077 188.021 260.077 189.085V191.74H270.326C270.868 191.74 271.305 192.294 271.305 192.983V198.307C271.305 198.995 270.868 199.549 270.326 199.549H260.077V202.206C260.077 203.272 258.976 203.728 258.264 202.762L252.371 196.633C252.132 196.36 252 196.009 252 195.646Z" fill="#0B1530"/>
<path d="M301.646 205.306C301.283 205.306 300.932 205.175 300.66 204.936L294.53 199.041C293.563 198.329 294.02 197.228 295.086 197.228H297.741V186.979C297.741 186.438 298.296 186 298.984 186H304.308C304.996 186 305.55 186.438 305.55 186.979V197.229H308.207C309.271 197.229 309.728 198.329 308.761 199.041L302.633 204.936C302.359 205.175 302.01 205.306 301.646 205.306Z" fill="#0B1530"/>
<path d="M351.305 195.646C351.305 195.283 351.174 194.932 350.936 194.659L345.041 188.529C344.329 187.563 343.228 188.021 343.228 189.085V191.74H332.979C332.438 191.74 332 192.294 332 192.983V198.307C332 198.995 332.438 199.549 332.979 199.549H343.228V202.206C343.228 203.272 344.329 203.728 345.041 202.762L350.936 196.633C351.173 196.36 351.305 196.009 351.305 195.646Z" fill="#0B1530"/>
<path d="M385.012 203.68C385.012 204.692 384.472 205.467 383.596 205.974C382.719 206.48 381.639 206.48 380.764 205.974C379.887 205.467 379.348 204.692 379.348 203.68" fill="#0B1530"/>
<path d="M382.178 186C382.95 186 383.573 186.476 383.573 187.209C383.573 187.67 383.589 188.014 383.878 188.102C386.342 188.846 387.922 190.589 387.922 192.854V196.66C387.922 198.404 388.635 198.757 389.533 199.424C390.833 200.388 390.536 202.396 389.044 202.395H375.312C373.82 202.396 373.523 200.388 374.823 199.424C375.72 198.757 376.434 198.404 376.434 196.66V192.854C376.434 190.589 378.014 188.846 380.478 188.102C380.767 188.014 380.784 187.67 380.784 187.209C380.784 186.476 381.406 186 382.178 186Z" fill="#0B1530"/>
<path d="M421.789 199.331C422.653 199.331 423.355 200.032 423.353 200.897C423.353 201.761 422.653 202.46 421.789 202.46C420.925 202.46 420.225 201.761 420.225 200.897C420.225 200.033 420.925 199.333 421.789 199.331ZM421.13 189.117H422.45C423.069 189.117 423.568 189.692 423.568 190.407L423.176 196.744C423.176 197.458 422.676 198.034 421.789 198.034C420.903 198.034 420.404 197.458 420.404 196.744L420.012 190.407C420.012 189.693 420.511 189.117 421.13 189.117ZM421.789 186C416.383 186 412 190.382 412 195.789C412 201.195 416.383 205.577 421.789 205.577C427.195 205.579 431.578 201.195 431.578 195.789C431.578 190.382 427.195 186 421.789 186Z" fill="#0B1530"/>
<path fill-rule="evenodd" clip-rule="evenodd" d="M462.166 199.997C462.806 199.999 463.324 200.51 463.324 201.141C463.324 201.773 462.806 202.285 462.166 202.285C461.527 202.285 461.007 201.773 461.007 201.141C461.007 200.51 461.527 199.997 462.166 199.997ZM462.511 190.309C465.046 190.35 467.185 193.125 465.457 195.557C465.043 196.1 464.522 196.262 464.076 196.506C463.264 196.953 463.031 196.839 463.031 197.848C463.031 199.039 461.26 199.03 461.206 197.848L461.173 197.127C461.141 196.442 461.626 195.873 462.044 195.579C462.659 195.145 463.013 195.168 463.543 194.499C464.785 192.933 462.517 191.34 460.771 192.548C460.323 192.857 460.055 193.282 460.055 194.095C460.086 195.287 458.283 195.287 458.314 194.095C458.314 192.801 458.912 191.755 459.742 191.145C460.572 190.537 461.574 190.309 462.511 190.309ZM462.37 187.002C461.432 186.981 460.52 187.098 459.656 187.335C456.201 188.281 453.518 191.153 453.102 194.611C452.686 198.069 453.574 200.563 455.244 202.41L454.44 204.689C454.163 205.475 454.659 206.082 455.432 205.765L458.252 204.609C459.131 205.014 460.088 205.293 461.105 205.415C466.189 206.027 470.754 202.565 471.382 197.349C472.012 192.135 468.398 187.683 463.316 187.071C462.999 187.032 462.682 187.01 462.37 187.002Z" fill="#0B1530"/>
<path fill-rule="evenodd" clip-rule="evenodd" d="M502.128 187.005C500.383 186.947 498.62 187.423 497.098 188.439C495.389 189.581 494.194 191.267 493.644 193.153C493.492 193.134 493.31 193.143 493.094 193.204C492.288 193.433 491.681 194.094 491.408 194.676C491.054 195.434 490.905 196.438 491.062 197.473C491.219 198.506 491.655 199.357 492.201 199.886C492.748 200.414 493.366 200.586 493.979 200.457C494.893 200.262 495.346 200.116 495.218 199.265L494.599 195.138C494.724 192.904 495.88 190.801 497.814 189.508C500.403 187.779 503.797 187.89 506.267 189.785C507.984 191.102 508.982 193.076 509.097 195.147L508.664 198.034C507.697 200.679 505.302 202.51 502.53 202.77H500.684C500.208 202.77 499.825 203.154 499.825 203.629V204.083C499.825 204.559 500.208 204.942 500.684 204.942H503.012C503.488 204.942 503.87 204.559 503.87 204.083V203.846C505.96 203.336 507.784 202.051 508.972 200.26L509.718 200.457C510.324 200.615 510.95 200.414 511.497 199.886C512.042 199.357 512.478 198.506 512.635 197.474C512.793 196.438 512.639 195.436 512.289 194.676C511.938 193.916 511.415 193.433 510.812 193.26C510.559 193.187 510.284 193.16 510.049 193.153C509.551 191.448 508.527 189.897 507.051 188.765C505.599 187.652 503.873 187.062 502.128 187.005Z" fill="#0B1530"/>
<path fill-rule="evenodd" clip-rule="evenodd" d="M504.853 194.429C505.468 194.429 505.967 194.928 505.969 195.545C505.967 196.16 505.468 196.66 504.853 196.66C504.237 196.66 503.737 196.16 503.737 195.545C503.737 194.928 504.237 194.429 504.853 194.429ZM501.85 194.429C502.466 194.429 502.965 194.928 502.965 195.545C502.965 196.16 502.466 196.66 501.85 196.66C501.233 196.66 500.734 196.16 500.734 195.545C500.734 194.928 501.233 194.429 501.85 194.429ZM498.848 194.429C499.463 194.429 499.963 194.928 499.963 195.545C499.963 196.16 499.463 196.66 498.848 196.66C498.231 196.66 497.732 196.16 497.732 195.545C497.732 194.928 498.231 194.429 498.848 194.429ZM501.85 189.639C498.579 189.639 495.943 192.188 495.943 195.545C495.943 197.157 496.553 198.582 497.546 199.628L497.194 201.208C497.078 201.728 497.438 202.078 497.906 201.818L499.448 200.957C500.182 201.275 500.993 201.451 501.85 201.451C505.122 201.451 507.756 198.904 507.756 195.545C507.756 192.188 505.122 189.639 501.85 189.639Z" fill="#0B1530"/>
</svg>
