<svg width="416" height="266" viewBox="0 0 416 266" fill="none" xmlns="http://www.w3.org/2000/svg">
<rect y="0.199219" width="416" height="265" rx="24" fill="#F5F6F8"/>
<mask id="path-2-inside-1_971_2776" fill="white">
<path d="M319 83.1992H331V125.199H319V83.1992Z"/>
</mask>
<path d="M331 83.1992H333V81.1992H331V83.1992ZM331 125.199V127.199H333V125.199H331ZM319 85.1992H331V81.1992H319V85.1992ZM329 83.1992V125.199H333V83.1992H329ZM331 123.199H319V127.199H331V123.199Z" fill="#33F7C3" mask="url(#path-2-inside-1_971_2776)"/>
<rect x="341.75" y="93.848" width="43.9061" height="20.7027" rx="3.75176" fill="#33F7C3"/>
<rect x="341.75" y="93.848" width="43.9061" height="20.7027" rx="3.75176" stroke="#33F7C3" stroke-width="1.5007"/>
<path d="M348.779 107.164V105.711L352.424 99.9679H353.677V101.98H352.935L350.638 105.617V105.685H355.817V107.164H348.779ZM352.97 108.699V106.721L353.004 106.077V99.9679H354.735V108.699H352.97ZM360.471 108.891C359.738 108.888 359.107 108.708 358.578 108.35C358.052 107.992 357.647 107.473 357.363 106.793C357.082 106.114 356.942 105.297 356.945 104.342C356.945 103.39 357.086 102.578 357.367 101.908C357.651 101.237 358.056 100.727 358.582 100.377C359.111 100.025 359.74 99.8485 360.471 99.8485C361.201 99.8485 361.83 100.025 362.355 100.377C362.884 100.73 363.29 101.241 363.575 101.912C363.859 102.58 364 103.39 363.997 104.342C363.997 105.3 363.855 106.118 363.57 106.798C363.289 107.477 362.885 107.996 362.36 108.354C361.834 108.712 361.204 108.891 360.471 108.891ZM360.471 107.361C360.971 107.361 361.371 107.109 361.669 106.606C361.967 106.103 362.115 105.348 362.112 104.342C362.112 103.68 362.044 103.128 361.908 102.688C361.774 102.247 361.584 101.916 361.336 101.695C361.092 101.473 360.803 101.362 360.471 101.362C359.974 101.362 359.576 101.611 359.277 102.108C358.979 102.605 358.828 103.35 358.825 104.342C358.825 105.013 358.892 105.573 359.026 106.022C359.162 106.468 359.354 106.803 359.601 107.028C359.848 107.25 360.138 107.361 360.471 107.361ZM365.33 111.155V102.151H367.121V103.251H367.202C367.281 103.074 367.396 102.895 367.547 102.713C367.701 102.529 367.9 102.375 368.144 102.253C368.391 102.128 368.698 102.065 369.065 102.065C369.542 102.065 369.983 102.19 370.386 102.441C370.79 102.688 371.113 103.062 371.354 103.562C371.596 104.059 371.717 104.683 371.717 105.433C371.717 106.164 371.599 106.781 371.363 107.284C371.13 107.784 370.811 108.163 370.408 108.422C370.007 108.678 369.558 108.806 369.061 108.806C368.708 108.806 368.408 108.748 368.161 108.631C367.917 108.514 367.716 108.368 367.56 108.192C367.404 108.013 367.284 107.832 367.202 107.65H367.146V111.155H365.33ZM367.108 105.425C367.108 105.814 367.162 106.154 367.27 106.444C367.378 106.734 367.534 106.96 367.739 107.122C367.944 107.281 368.192 107.361 368.485 107.361C368.781 107.361 369.031 107.28 369.235 107.118C369.44 106.953 369.595 106.725 369.7 106.435C369.808 106.143 369.862 105.806 369.862 105.425C369.862 105.047 369.809 104.714 369.704 104.427C369.599 104.14 369.444 103.916 369.24 103.754C369.035 103.592 368.783 103.511 368.485 103.511C368.189 103.511 367.939 103.589 367.735 103.745C367.533 103.902 367.378 104.123 367.27 104.41C367.162 104.697 367.108 105.036 367.108 105.425ZM374.211 102.151L375.413 104.44L376.645 102.151H378.508L376.611 105.425L378.559 108.699H376.705L375.413 106.435L374.142 108.699H372.267L374.211 105.425L372.335 102.151H374.211Z" fill="#0B1530"/>
<mask id="path-6-inside-2_971_2776" fill="white">
<path d="M319 123.301H331V145.301H319V123.301Z"/>
</mask>
<path d="M331 123.301H333V121.301H331V123.301ZM331 145.301V147.301H333V145.301H331ZM319 125.301H331V121.301H319V125.301ZM329 123.301V145.301H333V123.301H329ZM331 143.301H319V147.301H331V143.301Z" fill="#33F7C3" mask="url(#path-6-inside-2_971_2776)"/>
<rect x="341.75" y="123.95" width="43.9061" height="20.7027" rx="3.75176" fill="#33F7C3"/>
<rect x="341.75" y="123.95" width="43.9061" height="20.7027" rx="3.75176" stroke="#33F7C3" stroke-width="1.5007"/>
<path d="M348.911 138.801V137.471L352.019 134.593C352.283 134.337 352.505 134.107 352.684 133.902C352.866 133.698 353.004 133.497 353.097 133.301C353.191 133.102 353.238 132.887 353.238 132.657C353.238 132.401 353.18 132.181 353.063 131.996C352.947 131.809 352.788 131.665 352.586 131.566C352.384 131.464 352.155 131.412 351.899 131.412C351.632 131.412 351.399 131.466 351.2 131.574C351.001 131.682 350.848 131.837 350.74 132.039C350.632 132.241 350.578 132.481 350.578 132.76H348.826C348.826 132.188 348.955 131.692 349.214 131.272C349.472 130.851 349.835 130.526 350.301 130.295C350.767 130.065 351.304 129.95 351.912 129.95C352.538 129.95 353.082 130.061 353.545 130.283C354.011 130.501 354.374 130.806 354.632 131.195C354.891 131.584 355.02 132.031 355.02 132.534C355.02 132.863 354.955 133.189 354.824 133.51C354.696 133.831 354.467 134.188 354.138 134.58C353.808 134.969 353.343 135.437 352.744 135.983L351.469 137.232V137.292H355.135V138.801H348.911ZM359.896 138.993C359.163 138.99 358.532 138.809 358.004 138.451C357.478 138.093 357.073 137.574 356.788 136.895C356.507 136.216 356.368 135.399 356.371 134.444C356.371 133.491 356.511 132.68 356.793 132.009C357.077 131.338 357.482 130.828 358.008 130.479C358.536 130.126 359.166 129.95 359.896 129.95C360.627 129.95 361.255 130.126 361.781 130.479C362.31 130.831 362.716 131.343 363 132.014C363.284 132.681 363.425 133.491 363.422 134.444C363.422 135.401 363.28 136.22 362.996 136.899C362.715 137.579 362.311 138.097 361.785 138.455C361.259 138.814 360.63 138.993 359.896 138.993ZM359.896 137.462C360.397 137.462 360.796 137.211 361.094 136.707C361.393 136.204 361.541 135.45 361.538 134.444C361.538 133.781 361.47 133.23 361.333 132.789C361.2 132.349 361.009 132.018 360.762 131.796C360.517 131.574 360.229 131.464 359.896 131.464C359.399 131.464 359.001 131.712 358.703 132.21C358.404 132.707 358.254 133.452 358.251 134.444C358.251 135.114 358.318 135.674 358.451 136.123C358.588 136.57 358.779 136.905 359.027 137.13C359.274 137.351 359.564 137.462 359.896 137.462ZM364.756 141.256V132.252H366.546V133.352H366.627C366.707 133.176 366.822 132.997 366.973 132.815C367.126 132.63 367.325 132.477 367.569 132.355C367.817 132.23 368.124 132.167 368.49 132.167C368.968 132.167 369.408 132.292 369.812 132.542C370.216 132.789 370.538 133.163 370.78 133.663C371.021 134.161 371.142 134.785 371.142 135.535C371.142 136.266 371.024 136.882 370.788 137.385C370.555 137.886 370.237 138.265 369.833 138.524C369.433 138.779 368.983 138.907 368.486 138.907C368.134 138.907 367.834 138.849 367.586 138.733C367.342 138.616 367.142 138.47 366.985 138.293C366.829 138.114 366.71 137.934 366.627 137.752H366.572V141.256H364.756ZM366.533 135.527C366.533 135.916 366.587 136.256 366.695 136.545C366.803 136.835 366.96 137.061 367.164 137.223C367.369 137.383 367.618 137.462 367.911 137.462C368.206 137.462 368.456 137.381 368.661 137.219C368.866 137.054 369.02 136.827 369.126 136.537C369.234 136.244 369.288 135.907 369.288 135.527C369.288 135.149 369.235 134.816 369.13 134.529C369.025 134.242 368.87 134.017 368.665 133.855C368.46 133.693 368.209 133.612 367.911 133.612C367.615 133.612 367.365 133.69 367.16 133.847C366.958 134.003 366.803 134.225 366.695 134.512C366.587 134.799 366.533 135.137 366.533 135.527ZM373.636 132.252L374.838 134.542L376.071 132.252H377.934L376.036 135.527L377.985 138.801H376.13L374.838 136.537L373.568 138.801H371.692L373.636 135.527L371.76 132.252H373.636Z" fill="#0B1530"/>
<mask id="path-10-inside-3_971_2776" fill="white">
<path d="M319 63.3008H331V85.3008H319V63.3008Z"/>
</mask>
<path d="M331 63.3008H333V61.3008H331V63.3008ZM331 85.3008V87.3008H333V85.3008H331ZM319 65.3008H331V61.3008H319V65.3008ZM329 63.3008V85.3008H333V63.3008H329ZM331 83.3008H319V87.3008H331V83.3008Z" fill="#33F7C3" mask="url(#path-10-inside-3_971_2776)"/>
<rect x="341.75" y="63.9496" width="43.9061" height="20.7027" rx="3.75176" fill="#33F7C3"/>
<rect x="341.75" y="63.9496" width="43.9061" height="20.7027" rx="3.75176" stroke="#33F7C3" stroke-width="1.5007"/>
<path d="M348.911 78.8008V77.4706L352.019 74.5928C352.283 74.337 352.505 74.1068 352.684 73.9022C352.866 73.6975 353.004 73.4972 353.097 73.301C353.191 73.1021 353.238 72.8875 353.238 72.6573C353.238 72.4015 353.18 72.1812 353.063 71.9965C352.947 71.8089 352.788 71.6653 352.586 71.5659C352.384 71.4635 352.155 71.4124 351.899 71.4124C351.632 71.4124 351.399 71.4664 351.2 71.5744C351.001 71.6824 350.848 71.8373 350.74 72.0391C350.632 72.2409 350.578 72.4811 350.578 72.7596H348.826C348.826 72.1883 348.955 71.6923 349.214 71.2717C349.472 70.851 349.835 70.5256 350.301 70.2954C350.767 70.0652 351.304 69.95 351.912 69.95C352.538 69.95 353.082 70.0609 353.545 70.2826C354.011 70.5014 354.374 70.8056 354.632 71.1949C354.891 71.5843 355.02 72.0306 355.02 72.5336C355.02 72.8633 354.955 73.1888 354.824 73.5099C354.696 73.8311 354.467 74.1878 354.138 74.5801C353.808 74.9694 353.343 75.437 352.744 75.9827L351.469 77.2319V77.2916H355.135V78.8008H348.911ZM359.896 78.9926C359.163 78.9898 358.532 78.8093 358.004 78.4512C357.478 78.0931 357.073 77.5744 356.788 76.8951C356.507 76.2158 356.368 75.3986 356.371 74.4436C356.371 73.4915 356.511 72.68 356.793 72.0092C357.077 71.3385 357.482 70.8283 358.008 70.4787C358.536 70.1263 359.166 69.95 359.896 69.95C360.627 69.95 361.255 70.1263 361.781 70.4787C362.31 70.8311 362.716 71.3427 363 72.0135C363.284 72.6814 363.425 73.4915 363.422 74.4436C363.422 75.4015 363.28 76.22 362.996 76.8993C362.715 77.5786 362.311 78.0973 361.785 78.4554C361.259 78.8136 360.63 78.9926 359.896 78.9926ZM359.896 77.4621C360.397 77.4621 360.796 77.2105 361.094 76.7075C361.393 76.2044 361.541 75.4498 361.538 74.4436C361.538 73.7814 361.47 73.23 361.333 72.7894C361.2 72.3489 361.009 72.0178 360.762 71.7961C360.517 71.5744 360.229 71.4635 359.896 71.4635C359.399 71.4635 359.001 71.7122 358.703 72.2096C358.404 72.707 358.254 73.4517 358.251 74.4436C358.251 75.1144 358.318 75.6743 358.451 76.1234C358.588 76.5696 358.779 76.905 359.027 77.1295C359.274 77.3512 359.564 77.4621 359.896 77.4621ZM364.756 81.2565V72.2523H366.546V73.3522H366.627C366.707 73.176 366.822 72.9969 366.973 72.815C367.126 72.6303 367.325 72.4768 367.569 72.3546C367.817 72.2295 368.124 72.167 368.49 72.167C368.968 72.167 369.408 72.292 369.812 72.5422C370.216 72.7894 370.538 73.1632 370.78 73.6634C371.021 74.1608 371.142 74.7847 371.142 75.535C371.142 76.2655 371.024 76.8823 370.788 77.3853C370.555 77.8856 370.237 78.265 369.833 78.5237C369.433 78.7795 368.983 78.9074 368.486 78.9074C368.134 78.9074 367.834 78.8491 367.586 78.7326C367.342 78.616 367.142 78.4697 366.985 78.2934C366.829 78.1144 366.71 77.9339 366.627 77.752H366.572V81.2565H364.756ZM366.533 75.5265C366.533 75.9159 366.587 76.2556 366.695 76.5455C366.803 76.8354 366.96 77.0613 367.164 77.2233C367.369 77.3825 367.618 77.4621 367.911 77.4621C368.206 77.4621 368.456 77.3811 368.661 77.2191C368.866 77.0542 369.02 76.8268 369.126 76.5369C369.234 76.2442 369.288 75.9074 369.288 75.5265C369.288 75.1485 369.235 74.816 369.13 74.5289C369.025 74.2418 368.87 74.0173 368.665 73.8553C368.46 73.6933 368.209 73.6123 367.911 73.6123C367.615 73.6123 367.365 73.6904 367.16 73.8468C366.958 74.0031 366.803 74.2248 366.695 74.5118C366.587 74.7989 366.533 75.1371 366.533 75.5265ZM373.636 72.2523L374.838 74.5417L376.071 72.2523H377.934L376.036 75.5265L377.985 78.8008H376.13L374.838 76.5369L373.568 78.8008H371.692L373.636 75.5265L371.76 72.2523H373.636Z" fill="#0B1530"/>
<path d="M115 116V142" stroke="#33F7C3" stroke-width="2" stroke-linecap="square"/>
<path d="M136 116V142" stroke="#33F7C3" stroke-width="2" stroke-linecap="square"/>
<mask id="path-16-inside-4_971_2776" fill="white">
<path d="M135.204 177L135.204 193L114.204 193L114.204 177L135.204 177Z"/>
</mask>
<path d="M135.204 193L135.204 195L137.204 195L137.204 193L135.204 193ZM114.204 193L112.204 193L112.204 195L114.204 195L114.204 193ZM133.204 177L133.204 193L137.204 193L137.204 177L133.204 177ZM135.204 191L114.204 191L114.204 195L135.204 195L135.204 191ZM116.204 193L116.204 177L112.204 177L112.204 193L116.204 193Z" fill="#33F7C3" mask="url(#path-16-inside-4_971_2776)"/>
<rect x="102.75" y="203.75" width="43.9061" height="20.7027" rx="3.75176" fill="#33F7C3"/>
<rect x="102.75" y="203.75" width="43.9061" height="20.7027" rx="3.75176" stroke="#33F7C3" stroke-width="1.5007"/>
<path d="M109.911 218.602V217.271L113.019 214.394C113.283 214.138 113.505 213.908 113.684 213.703C113.866 213.498 114.004 213.298 114.097 213.102C114.191 212.903 114.238 212.688 114.238 212.458C114.238 212.202 114.18 211.982 114.063 211.797C113.947 211.61 113.788 211.466 113.586 211.367C113.384 211.264 113.155 211.213 112.899 211.213C112.632 211.213 112.399 211.267 112.2 211.375C112.001 211.483 111.848 211.638 111.74 211.84C111.632 212.042 111.578 212.282 111.578 212.56H109.826C109.826 211.989 109.955 211.493 110.214 211.072C110.472 210.652 110.835 210.326 111.301 210.096C111.767 209.866 112.304 209.751 112.912 209.751C113.538 209.751 114.082 209.862 114.545 210.083C115.011 210.302 115.374 210.606 115.632 210.996C115.891 211.385 116.02 211.831 116.02 212.334C116.02 212.664 115.955 212.99 115.824 213.311C115.696 213.632 115.467 213.989 115.138 214.381C114.808 214.77 114.343 215.238 113.744 215.783L112.469 217.033V217.092H116.135V218.602H109.911ZM120.896 218.793C120.163 218.791 119.532 218.61 119.004 218.252C118.478 217.894 118.073 217.375 117.788 216.696C117.507 216.017 117.368 215.199 117.371 214.244C117.371 213.292 117.511 212.481 117.793 211.81C118.077 211.139 118.482 210.629 119.008 210.279C119.536 209.927 120.166 209.751 120.896 209.751C121.627 209.751 122.255 209.927 122.781 210.279C123.31 210.632 123.716 211.144 124 211.814C124.284 212.482 124.425 213.292 124.422 214.244C124.422 215.202 124.28 216.021 123.996 216.7C123.715 217.379 123.311 217.898 122.785 218.256C122.259 218.614 121.63 218.793 120.896 218.793ZM120.896 217.263C121.397 217.263 121.796 217.011 122.094 216.508C122.393 216.005 122.541 215.251 122.538 214.244C122.538 213.582 122.47 213.031 122.333 212.59C122.2 212.15 122.009 211.819 121.762 211.597C121.517 211.375 121.229 211.264 120.896 211.264C120.399 211.264 120.001 211.513 119.703 212.01C119.404 212.508 119.254 213.252 119.251 214.244C119.251 214.915 119.318 215.475 119.451 215.924C119.588 216.37 119.779 216.706 120.027 216.93C120.274 217.152 120.564 217.263 120.896 217.263ZM125.756 221.057V212.053H127.546V213.153H127.627C127.707 212.977 127.822 212.798 127.973 212.616C128.126 212.431 128.325 212.278 128.569 212.155C128.817 212.03 129.124 211.968 129.49 211.968C129.968 211.968 130.408 212.093 130.812 212.343C131.216 212.59 131.538 212.964 131.78 213.464C132.021 213.962 132.142 214.585 132.142 215.336C132.142 216.066 132.024 216.683 131.788 217.186C131.555 217.686 131.237 218.066 130.833 218.324C130.433 218.58 129.983 218.708 129.486 218.708C129.134 218.708 128.834 218.65 128.586 218.533C128.342 218.417 128.142 218.27 127.985 218.094C127.829 217.915 127.71 217.735 127.627 217.553H127.572V221.057H125.756ZM127.533 215.327C127.533 215.717 127.587 216.056 127.695 216.346C127.803 216.636 127.96 216.862 128.164 217.024C128.369 217.183 128.618 217.263 128.911 217.263C129.206 217.263 129.456 217.182 129.661 217.02C129.866 216.855 130.02 216.628 130.126 216.338C130.234 216.045 130.288 215.708 130.288 215.327C130.288 214.949 130.235 214.617 130.13 214.33C130.025 214.043 129.87 213.818 129.665 213.656C129.46 213.494 129.209 213.413 128.911 213.413C128.615 213.413 128.365 213.491 128.16 213.648C127.958 213.804 127.803 214.026 127.695 214.313C127.587 214.6 127.533 214.938 127.533 215.327ZM134.636 212.053L135.838 214.342L137.071 212.053H138.934L137.036 215.327L138.985 218.602H137.13L135.838 216.338L134.568 218.602H132.692L134.636 215.327L132.76 212.053H134.636Z" fill="#0B1530"/>
<path d="M30.72 45.8592H40.52V59.1992H39.04V47.2592H32.2V59.1992H30.72V45.8592ZM45.0422 58.0392V63.7992H43.6022V50.8992H45.0422V52.0592C45.7755 51.1526 46.7222 50.6992 47.8822 50.6992C49.1222 50.6992 50.1022 51.1392 50.8222 52.0192C51.5555 52.8859 51.9222 53.9126 51.9222 55.0992C51.9222 56.2992 51.5622 57.3259 50.8422 58.1792C50.1222 59.0192 49.1555 59.4392 47.9422 59.4392C46.7289 59.4392 45.7622 58.9726 45.0422 58.0392ZM47.7422 58.1592C48.5555 58.1592 49.2089 57.8659 49.7022 57.2792C50.1955 56.6792 50.4422 55.9526 50.4422 55.0992C50.4422 54.1392 50.1689 53.3792 49.6222 52.8192C49.0755 52.2592 48.4422 51.9792 47.7222 51.9792C47.0022 51.9792 46.3622 52.2592 45.8022 52.8192C45.2422 53.3792 44.9622 54.1326 44.9622 55.0792C44.9622 55.9459 45.2155 56.6792 45.7222 57.2792C46.2422 57.8659 46.9155 58.1592 47.7422 58.1592ZM60.2895 56.4192L61.4895 57.0792C61.2095 57.6126 60.8695 58.0592 60.4695 58.4192C59.7095 59.0992 58.7895 59.4392 57.7095 59.4392C56.5895 59.4392 55.6229 59.0792 54.8095 58.3592C54.0095 57.6259 53.6095 56.5392 53.6095 55.0992C53.6095 53.8326 53.9695 52.7859 54.6895 51.9592C55.4229 51.1192 56.4029 50.6992 57.6295 50.6992C59.0162 50.6992 60.0629 51.2059 60.7695 52.2192C61.3295 53.0192 61.5895 54.0592 61.5495 55.3392H55.0895C55.1029 56.1792 55.3629 56.8592 55.8695 57.3792C56.3762 57.8992 56.9962 58.1592 57.7295 58.1592C58.3829 58.1592 58.9495 57.9592 59.4295 57.5592C59.8029 57.2392 60.0895 56.8592 60.2895 56.4192ZM55.1895 54.1392H60.0695C59.9495 53.4859 59.6629 52.9659 59.2095 52.5792C58.7695 52.1792 58.2429 51.9792 57.6295 51.9792C57.0295 51.9792 56.4962 52.1859 56.0295 52.5992C55.5762 52.9992 55.2962 53.5126 55.1895 54.1392ZM64.3584 50.8992H70.1984V57.8792H71.4384V61.3992H70.1184V59.1992H63.7984V61.3992H62.4784V57.8792C63.1718 57.8659 63.6851 57.5059 64.0184 56.7992C64.2451 56.3326 64.3584 55.5992 64.3584 54.5992V50.8992ZM68.7584 57.8792V52.2192H65.7984V55.3392C65.7984 56.4459 65.4651 57.2926 64.7984 57.8792H68.7584ZM72.9577 59.1992V50.8992H74.3977V57.8792H77.5977V50.8992H79.0377V57.8792H82.2377V50.8992H83.6777V59.1992H72.9577ZM92.5552 56.4192L93.7552 57.0792C93.4752 57.6126 93.1352 58.0592 92.7352 58.4192C91.9752 59.0992 91.0552 59.4392 89.9752 59.4392C88.8552 59.4392 87.8885 59.0792 87.0752 58.3592C86.2752 57.6259 85.8752 56.5392 85.8752 55.0992C85.8752 53.8326 86.2352 52.7859 86.9552 51.9592C87.6885 51.1192 88.6685 50.6992 89.8952 50.6992C91.2818 50.6992 92.3285 51.2059 93.0352 52.2192C93.5952 53.0192 93.8552 54.0592 93.8152 55.3392H87.3552C87.3685 56.1792 87.6285 56.8592 88.1352 57.3792C88.6418 57.8992 89.2618 58.1592 89.9952 58.1592C90.6485 58.1592 91.2152 57.9592 91.6952 57.5592C92.0685 57.2392 92.3552 56.8592 92.5552 56.4192ZM87.4552 54.1392H92.3352C92.2152 53.4859 91.9285 52.9659 91.4752 52.5792C91.0352 52.1792 90.5085 51.9792 89.8952 51.9792C89.2952 51.9792 88.7618 52.1859 88.2952 52.5992C87.8418 52.9992 87.5618 53.5126 87.4552 54.1392ZM102.524 51.4992V53.2192C101.871 52.3926 101.004 51.9792 99.9241 51.9792C99.1107 51.9792 98.4174 52.2592 97.8441 52.8192C97.2707 53.3659 96.9841 54.1192 96.9841 55.0792C96.9841 56.0392 97.2707 56.7926 97.8441 57.3392C98.4174 57.8859 99.1041 58.1592 99.9041 58.1592C100.971 58.1592 101.864 57.7259 102.584 56.8592V58.5792C101.797 59.1526 100.917 59.4392 99.9441 59.4392C98.6507 59.4392 97.5841 59.0326 96.7441 58.2192C95.9174 57.3926 95.5041 56.3526 95.5041 55.0992C95.5041 53.8326 95.9241 52.7859 96.7641 51.9592C97.6041 51.1192 98.6641 50.6992 99.9441 50.6992C100.904 50.6992 101.764 50.9659 102.524 51.4992ZM110.234 52.2192H107.634V59.1992H106.194V52.2192H103.594V50.8992H110.234V52.2192ZM111.747 50.8992H114.887C115.647 50.8992 116.227 51.0592 116.627 51.3792C117.107 51.7659 117.347 52.2859 117.347 52.9392C117.347 53.6592 117.047 54.2126 116.447 54.5992C116.86 54.7059 117.207 54.8926 117.487 55.1592C117.927 55.5859 118.147 56.1192 118.147 56.7592C118.147 57.5592 117.86 58.1859 117.287 58.6392C116.793 59.0126 116.14 59.1992 115.327 59.1992H111.747V50.8992ZM113.187 54.2792H114.707C115.093 54.2792 115.4 54.1992 115.627 54.0392C115.893 53.8392 116.027 53.5526 116.027 53.1792C116.027 52.8459 115.893 52.5792 115.627 52.3792C115.427 52.2459 115.04 52.1792 114.467 52.1792H113.187V54.2792ZM113.187 57.9192H114.967C115.58 57.9192 116.013 57.8259 116.267 57.6392C116.587 57.3992 116.747 57.0926 116.747 56.7192C116.747 56.3192 116.607 56.0059 116.327 55.7792C116.073 55.5792 115.64 55.4792 115.027 55.4792H113.187V57.9192ZM120.32 63.7992L122.96 58.4192L119.14 50.8992H120.78L123.72 56.8392L126.42 50.8992H128.02L121.92 63.7992H120.32ZM130.98 54.2992H132.48C132.613 53.3659 132.986 52.5792 133.6 51.9392C134.386 51.1126 135.433 50.6992 136.74 50.6992C138.02 50.6992 139.073 51.1126 139.9 51.9392C140.726 52.7659 141.14 53.8126 141.14 55.0792C141.14 56.3326 140.72 57.3726 139.88 58.1992C139.053 59.0259 138.006 59.4392 136.74 59.4392C135.286 59.4392 134.146 58.9192 133.32 57.8792C132.786 57.2126 132.48 56.4592 132.4 55.6192H130.98V59.1992H129.54V50.8992H130.98V54.2992ZM136.74 51.9792C135.94 51.9792 135.26 52.2592 134.7 52.8192C134.153 53.3659 133.88 54.1192 133.88 55.0792C133.88 56.0526 134.16 56.8126 134.72 57.3592C135.28 57.8926 135.953 58.1592 136.74 58.1592C137.54 58.1592 138.226 57.8859 138.8 57.3392C139.373 56.7926 139.66 56.0392 139.66 55.0792C139.66 54.1192 139.373 53.3659 138.8 52.8192C138.24 52.2592 137.553 51.9792 136.74 51.9792ZM143.348 59.1992V50.8992H144.788V57.8792H147.988V50.8992H149.428V57.8792H152.628V50.8992H154.068V57.8792H155.428V61.3992H154.108V59.1992H143.348ZM156.942 50.8992H158.382V56.3792L164.062 50.2592V59.1992H162.622V53.6592L156.942 59.7792V50.8992ZM166.786 50.8992H168.226V56.3792L173.906 50.2592V59.1992H172.466V53.6592L166.786 59.7792V50.8992ZM167.506 47.3192L168.706 46.8592C168.946 47.6592 169.512 48.0592 170.406 48.0592C171.299 48.0592 171.866 47.6592 172.106 46.8592L173.306 47.3192C173.092 47.9192 172.726 48.3926 172.206 48.7392C171.699 49.0859 171.099 49.2592 170.406 49.2592C169.712 49.2592 169.106 49.0859 168.586 48.7392C168.079 48.3926 167.719 47.9192 167.506 47.3192ZM186.738 52.2192H184.138V59.1992H182.698V52.2192H180.098V50.8992H186.738V52.2192ZM194.215 56.4192L195.415 57.0792C195.135 57.6126 194.795 58.0592 194.395 58.4192C193.635 59.0992 192.715 59.4392 191.635 59.4392C190.515 59.4392 189.549 59.0792 188.735 58.3592C187.935 57.6259 187.535 56.5392 187.535 55.0992C187.535 53.8326 187.895 52.7859 188.615 51.9592C189.349 51.1192 190.329 50.6992 191.555 50.6992C192.942 50.6992 193.989 51.2059 194.695 52.2192C195.255 53.0192 195.515 54.0592 195.475 55.3392H189.015C189.029 56.1792 189.289 56.8592 189.795 57.3792C190.302 57.8992 190.922 58.1592 191.655 58.1592C192.309 58.1592 192.875 57.9592 193.355 57.5592C193.729 57.2392 194.015 56.8592 194.215 56.4192ZM189.115 54.1392H193.995C193.875 53.4859 193.589 52.9659 193.135 52.5792C192.695 52.1792 192.169 51.9792 191.555 51.9792C190.955 51.9792 190.422 52.1859 189.955 52.5992C189.502 52.9992 189.222 53.5126 189.115 54.1392ZM197.684 50.8992H199.124V54.2992L202.484 50.8992H204.244L200.644 54.5992L204.684 59.1992H202.804L199.564 55.5592L199.124 55.9792V59.1992H197.684V50.8992ZM212.192 51.4992V53.2192C211.539 52.3926 210.672 51.9792 209.592 51.9792C208.779 51.9792 208.085 52.2592 207.512 52.8192C206.939 53.3659 206.652 54.1192 206.652 55.0792C206.652 56.0392 206.939 56.7926 207.512 57.3392C208.085 57.8859 208.772 58.1592 209.572 58.1592C210.639 58.1592 211.532 57.7259 212.252 56.8592V58.5792C211.465 59.1526 210.585 59.4392 209.612 59.4392C208.319 59.4392 207.252 59.0326 206.412 58.2192C205.585 57.3926 205.172 56.3526 205.172 55.0992C205.172 53.8326 205.592 52.7859 206.432 51.9592C207.272 51.1192 208.332 50.6992 209.612 50.6992C210.572 50.6992 211.432 50.9659 212.192 51.4992ZM219.902 52.2192H217.302V59.1992H215.862V52.2192H213.262V50.8992H219.902V52.2192ZM221.029 59.0992C220.829 58.8992 220.729 58.6659 220.729 58.3992C220.729 58.1326 220.829 57.8992 221.029 57.6992C221.229 57.4992 221.463 57.3992 221.729 57.3992C221.996 57.3992 222.229 57.4992 222.429 57.6992C222.629 57.8992 222.729 58.1326 222.729 58.3992C222.729 58.6659 222.629 58.8992 222.429 59.0992C222.229 59.2992 221.996 59.3992 221.729 59.3992C221.463 59.3992 221.229 59.2992 221.029 59.0992Z" fill="#B6B9C1"/>
<path d="M32.14 100.479L31 99.5792C31.8667 98.2859 33.14 97.6392 34.82 97.6392C36.02 97.6392 36.96 97.9526 37.64 98.5792C38.3333 99.2059 38.68 100.026 38.68 101.039C38.68 101.693 38.5067 102.266 38.16 102.759C37.8267 103.239 37.3867 103.606 36.84 103.859C37.7067 104.059 38.3667 104.473 38.82 105.099C39.2867 105.726 39.52 106.459 39.52 107.299C39.52 108.686 38.9667 109.773 37.86 110.559C37.0067 111.146 35.9933 111.439 34.82 111.439C33.6067 111.439 32.6 111.133 31.8 110.519C31 109.906 30.4 109.146 30 108.239L31.44 107.599C31.7067 108.346 32.1467 108.939 32.76 109.379C33.3733 109.819 34.08 110.039 34.88 110.039C35.6933 110.039 36.3733 109.853 36.92 109.479C37.64 108.973 38 108.259 38 107.339C38 105.593 36.8133 104.719 34.44 104.719H33.24V103.319H34.44C35.32 103.319 35.9933 103.106 36.46 102.679C36.9267 102.253 37.16 101.713 37.16 101.059C37.16 100.486 36.98 100.019 36.62 99.6592C36.22 99.2459 35.62 99.0392 34.82 99.0392C33.7 99.0392 32.8067 99.5192 32.14 100.479ZM48.2434 104.079V102.899H49.6834V111.199H48.2434V110.039C47.5234 110.973 46.5768 111.439 45.4034 111.439C44.2834 111.439 43.3301 111.053 42.5434 110.279C41.7568 109.506 41.3634 108.426 41.3634 107.039C41.3634 105.679 41.7501 104.619 42.5234 103.859C43.3101 103.086 44.2701 102.699 45.4034 102.699C46.6034 102.699 47.5501 103.159 48.2434 104.079ZM45.5634 103.979C44.8034 103.979 44.1568 104.253 43.6234 104.799C43.1034 105.333 42.8434 106.079 42.8434 107.039C42.8434 107.959 43.0834 108.713 43.5634 109.299C44.0568 109.873 44.7234 110.159 45.5634 110.159C46.4034 110.159 47.0701 109.859 47.5634 109.259C48.0701 108.659 48.3234 107.926 48.3234 107.059C48.3234 106.073 48.0434 105.313 47.4834 104.779C46.9234 104.246 46.2834 103.979 45.5634 103.979ZM52.4108 111.199V102.899H57.3308V104.219H53.8508V111.199H52.4108ZM65.3683 110.199C64.5416 111.026 63.4949 111.439 62.2283 111.439C60.9616 111.439 59.9083 111.026 59.0683 110.199C58.2416 109.373 57.8283 108.333 57.8283 107.079C57.8283 105.813 58.2416 104.766 59.0683 103.939C59.9083 103.113 60.9616 102.699 62.2283 102.699C63.4949 102.699 64.5416 103.113 65.3683 103.939C66.2083 104.766 66.6283 105.813 66.6283 107.079C66.6283 108.333 66.2083 109.373 65.3683 110.199ZM64.2883 104.799C63.7283 104.253 63.0416 103.979 62.2283 103.979C61.4149 103.979 60.7216 104.259 60.1483 104.819C59.5883 105.366 59.3083 106.119 59.3083 107.079C59.3083 108.039 59.5949 108.793 60.1683 109.339C60.7416 109.886 61.4283 110.159 62.2283 110.159C63.0283 110.159 63.7149 109.886 64.2883 109.339C64.8616 108.793 65.1483 108.039 65.1483 107.079C65.1483 106.106 64.8616 105.346 64.2883 104.799ZM75.1166 102.899V111.199H73.6766V104.219H70.7166V107.959C70.7166 109.039 70.5032 109.839 70.0766 110.359C69.5966 110.946 68.9299 111.239 68.0766 111.239C67.9699 111.239 67.8232 111.226 67.6366 111.199V109.879C67.7699 109.906 67.8766 109.919 67.9566 109.919C68.4232 109.919 68.7699 109.739 68.9966 109.379C69.1832 109.086 69.2766 108.613 69.2766 107.959V102.899H75.1166ZM84.8605 110.199C84.0338 111.026 82.9871 111.439 81.7205 111.439C80.4538 111.439 79.4005 111.026 78.5605 110.199C77.7338 109.373 77.3205 108.333 77.3205 107.079C77.3205 105.813 77.7338 104.766 78.5605 103.939C79.4005 103.113 80.4538 102.699 81.7205 102.699C82.9871 102.699 84.0338 103.113 84.8605 103.939C85.7005 104.766 86.1205 105.813 86.1205 107.079C86.1205 108.333 85.7005 109.373 84.8605 110.199ZM83.7805 104.799C83.2205 104.253 82.5338 103.979 81.7205 103.979C80.9071 103.979 80.2138 104.259 79.6405 104.819C79.0805 105.366 78.8005 106.119 78.8005 107.079C78.8005 108.039 79.0871 108.793 79.6605 109.339C80.2338 109.886 80.9205 110.159 81.7205 110.159C82.5205 110.159 83.2071 109.886 83.7805 109.339C84.3538 108.793 84.6405 108.039 84.6405 107.079C84.6405 106.106 84.3538 105.346 83.7805 104.799ZM88.3288 102.899H91.4688C92.2288 102.899 92.8088 103.059 93.2088 103.379C93.6888 103.766 93.9288 104.286 93.9288 104.939C93.9288 105.659 93.6288 106.213 93.0288 106.599C93.4421 106.706 93.7888 106.893 94.0688 107.159C94.5088 107.586 94.7288 108.119 94.7288 108.759C94.7288 109.559 94.4421 110.186 93.8688 110.639C93.3754 111.013 92.7221 111.199 91.9088 111.199H88.3288V102.899ZM89.7688 106.279H91.2888C91.6754 106.279 91.9821 106.199 92.2088 106.039C92.4754 105.839 92.6088 105.553 92.6088 105.179C92.6088 104.846 92.4754 104.579 92.2088 104.379C92.0088 104.246 91.6221 104.179 91.0488 104.179H89.7688V106.279ZM89.7688 109.919H91.5488C92.1621 109.919 92.5954 109.826 92.8487 109.639C93.1688 109.399 93.3288 109.093 93.3288 108.719C93.3288 108.319 93.1888 108.006 92.9088 107.779C92.6554 107.579 92.2221 107.479 91.6088 107.479H89.7688V109.919ZM103.943 110.199C103.116 111.026 102.069 111.439 100.803 111.439C99.5358 111.439 98.4825 111.026 97.6425 110.199C96.8158 109.373 96.4025 108.333 96.4025 107.079C96.4025 105.813 96.8158 104.766 97.6425 103.939C98.4825 103.113 99.5358 102.699 100.803 102.699C102.069 102.699 103.116 103.113 103.943 103.939C104.783 104.766 105.203 105.813 105.203 107.079C105.203 108.333 104.783 109.373 103.943 110.199ZM102.863 104.799C102.303 104.253 101.616 103.979 100.803 103.979C99.9892 103.979 99.2958 104.259 98.7225 104.819C98.1625 105.366 97.8825 106.119 97.8825 107.079C97.8825 108.039 98.1692 108.793 98.7425 109.339C99.3158 109.886 100.003 110.159 100.803 110.159C101.603 110.159 102.289 109.886 102.863 109.339C103.436 108.793 103.723 108.039 103.723 107.079C103.723 106.106 103.436 105.346 102.863 104.799ZM107.411 102.899H108.851V106.299L112.211 102.899H113.971L110.371 106.599L114.411 111.199H112.531L109.291 107.559L108.851 107.979V111.199H107.411V102.899Z" fill="#0B1530"/>
<rect x="135.5" y="84.6992" width="175" height="39" rx="7.5" fill="white"/>
<rect x="135.5" y="84.6992" width="175" height="39" rx="7.5" stroke="#B6B9C1"/>
<path d="M147.22 97.8592H157.02V111.199H155.54V99.2592H148.7V111.199H147.22V97.8592ZM167.122 110.199C166.296 111.026 165.249 111.439 163.982 111.439C162.716 111.439 161.662 111.026 160.822 110.199C159.996 109.373 159.582 108.333 159.582 107.079C159.582 105.813 159.996 104.766 160.822 103.939C161.662 103.113 162.716 102.699 163.982 102.699C165.249 102.699 166.296 103.113 167.122 103.939C167.962 104.766 168.382 105.813 168.382 107.079C168.382 108.333 167.962 109.373 167.122 110.199ZM166.042 104.799C165.482 104.253 164.796 103.979 163.982 103.979C163.169 103.979 162.476 104.259 161.902 104.819C161.342 105.366 161.062 106.119 161.062 107.079C161.062 108.039 161.349 108.793 161.922 109.339C162.496 109.886 163.182 110.159 163.982 110.159C164.782 110.159 165.469 109.886 166.042 109.339C166.616 108.793 166.902 108.039 166.902 107.079C166.902 106.106 166.616 105.346 166.042 104.799ZM171.19 102.899H177.03V109.879H178.27V113.399H176.95V111.199H170.63V113.399H169.31V109.879C170.004 109.866 170.517 109.506 170.85 108.799C171.077 108.333 171.19 107.599 171.19 106.599V102.899ZM175.59 109.879V104.219H172.63V107.339C172.63 108.446 172.297 109.293 171.63 109.879H175.59ZM186.29 103.499V105.219C185.636 104.393 184.77 103.979 183.69 103.979C182.876 103.979 182.183 104.259 181.61 104.819C181.036 105.366 180.75 106.119 180.75 107.079C180.75 108.039 181.036 108.793 181.61 109.339C182.183 109.886 182.87 110.159 183.67 110.159C184.736 110.159 185.63 109.726 186.35 108.859V110.579C185.563 111.153 184.683 111.439 183.71 111.439C182.416 111.439 181.35 111.033 180.51 110.219C179.683 109.393 179.27 108.353 179.27 107.099C179.27 105.833 179.69 104.786 180.53 103.959C181.37 103.119 182.43 102.699 183.71 102.699C184.67 102.699 185.53 102.966 186.29 103.499ZM188.559 102.899H189.999V106.299L193.359 102.899H195.119L191.519 106.599L195.559 111.199H193.679L190.439 107.559L189.999 107.979V111.199H188.559V102.899ZM203.357 104.079V102.899H204.797V111.199H203.357V110.039C202.637 110.973 201.69 111.439 200.517 111.439C199.397 111.439 198.443 111.053 197.657 110.279C196.87 109.506 196.477 108.426 196.477 107.039C196.477 105.679 196.863 104.619 197.637 103.859C198.423 103.086 199.383 102.699 200.517 102.699C201.717 102.699 202.663 103.159 203.357 104.079ZM200.677 103.979C199.917 103.979 199.27 104.253 198.737 104.799C198.217 105.333 197.957 106.079 197.957 107.039C197.957 107.959 198.197 108.713 198.677 109.299C199.17 109.873 199.837 110.159 200.677 110.159C201.517 110.159 202.183 109.859 202.677 109.259C203.183 108.659 203.437 107.926 203.437 107.059C203.437 106.073 203.157 105.313 202.597 104.779C202.037 104.246 201.397 103.979 200.677 103.979ZM208.604 105.019L207.604 104.199C207.924 103.733 208.277 103.386 208.664 103.159C209.184 102.853 209.791 102.699 210.484 102.699C211.324 102.699 211.977 102.893 212.444 103.279C212.924 103.693 213.164 104.219 213.164 104.859C213.164 105.633 212.851 106.213 212.224 106.599C212.624 106.693 212.944 106.873 213.184 107.139C213.571 107.553 213.764 108.059 213.764 108.659C213.764 109.553 213.404 110.266 212.684 110.799C212.097 111.226 211.311 111.439 210.324 111.439C209.444 111.439 208.704 111.206 208.104 110.739C207.651 110.406 207.284 109.933 207.004 109.319L208.244 108.799C208.391 109.173 208.637 109.486 208.984 109.739C209.357 110.019 209.811 110.159 210.344 110.159C210.971 110.159 211.437 110.053 211.744 109.839C212.131 109.586 212.324 109.199 212.324 108.679C212.324 108.253 212.157 107.933 211.824 107.719C211.544 107.533 211.091 107.439 210.464 107.439H209.624V106.119H210.324C210.831 106.119 211.191 106.046 211.404 105.899C211.697 105.713 211.844 105.459 211.844 105.139C211.844 104.766 211.724 104.479 211.484 104.279C211.257 104.079 210.904 103.979 210.424 103.979C210.011 103.979 209.631 104.086 209.284 104.299C208.991 104.486 208.764 104.726 208.604 105.019ZM215.962 102.899H217.402V106.299L220.762 102.899H222.522L218.922 106.599L222.962 111.199H221.082L217.842 107.559L217.402 107.979V111.199H215.962V102.899ZM230.759 104.079V102.899H232.199V111.199H230.759V110.039C230.039 110.973 229.092 111.439 227.919 111.439C226.799 111.439 225.846 111.053 225.059 110.279C224.272 109.506 223.879 108.426 223.879 107.039C223.879 105.679 224.266 104.619 225.039 103.859C225.826 103.086 226.786 102.699 227.919 102.699C229.119 102.699 230.066 103.159 230.759 104.079ZM228.079 103.979C227.319 103.979 226.672 104.253 226.139 104.799C225.619 105.333 225.359 106.079 225.359 107.039C225.359 107.959 225.599 108.713 226.079 109.299C226.572 109.873 227.239 110.159 228.079 110.159C228.919 110.159 229.586 109.859 230.079 109.259C230.586 108.659 230.839 107.926 230.839 107.059C230.839 106.073 230.559 105.313 229.999 104.779C229.439 104.246 228.799 103.979 228.079 103.979Z" fill="#B6B9C1"/>
<path d="M30.72 149.859H40.52V163.199H39.04V151.259H32.2V163.199H30.72V149.859ZM50.6222 162.199C49.7955 163.026 48.7489 163.439 47.4822 163.439C46.2155 163.439 45.1622 163.026 44.3222 162.199C43.4955 161.373 43.0822 160.333 43.0822 159.079C43.0822 157.813 43.4955 156.766 44.3222 155.939C45.1622 155.113 46.2155 154.699 47.4822 154.699C48.7489 154.699 49.7955 155.113 50.6222 155.939C51.4622 156.766 51.8822 157.813 51.8822 159.079C51.8822 160.333 51.4622 161.373 50.6222 162.199ZM49.5422 156.799C48.9822 156.253 48.2955 155.979 47.4822 155.979C46.6689 155.979 45.9755 156.259 45.4022 156.819C44.8422 157.366 44.5622 158.119 44.5622 159.079C44.5622 160.039 44.8489 160.793 45.4222 161.339C45.9955 161.886 46.6822 162.159 47.4822 162.159C48.2822 162.159 48.9689 161.886 49.5422 161.339C50.1155 160.793 50.4022 160.039 50.4022 159.079C50.4022 158.106 50.1155 157.346 49.5422 156.799ZM60.5905 155.499V157.219C59.9371 156.393 59.0705 155.979 57.9905 155.979C57.1771 155.979 56.4838 156.259 55.9105 156.819C55.3371 157.366 55.0505 158.119 55.0505 159.079C55.0505 160.039 55.3371 160.793 55.9105 161.339C56.4838 161.886 57.1705 162.159 57.9705 162.159C59.0371 162.159 59.9305 161.726 60.6505 160.859V162.579C59.8638 163.153 58.9838 163.439 58.0105 163.439C56.7171 163.439 55.6505 163.033 54.8105 162.219C53.9838 161.393 53.5705 160.353 53.5705 159.099C53.5705 157.833 53.9905 156.786 54.8305 155.959C55.6705 155.119 56.7305 154.699 58.0105 154.699C58.9705 154.699 59.8305 154.966 60.5905 155.499ZM69.14 154.899V163.199H67.7V156.219H64.74V159.959C64.74 161.039 64.5267 161.839 64.1 162.359C63.62 162.946 62.9533 163.239 62.1 163.239C61.9933 163.239 61.8467 163.226 61.66 163.199V161.879C61.7933 161.906 61.9 161.919 61.98 161.919C62.4467 161.919 62.7933 161.739 63.02 161.379C63.2067 161.086 63.3 160.613 63.3 159.959V154.899H69.14ZM78.0239 160.419L79.2239 161.079C78.9439 161.613 78.6039 162.059 78.2039 162.419C77.4439 163.099 76.5239 163.439 75.4439 163.439C74.3239 163.439 73.3572 163.079 72.5439 162.359C71.7439 161.626 71.3439 160.539 71.3439 159.099C71.3439 157.833 71.7039 156.786 72.4239 155.959C73.1572 155.119 74.1372 154.699 75.3639 154.699C76.7506 154.699 77.7972 155.206 78.5039 156.219C79.0639 157.019 79.3239 158.059 79.2839 159.339H72.8239C72.8372 160.179 73.0972 160.859 73.6039 161.379C74.1106 161.899 74.7306 162.159 75.4639 162.159C76.1172 162.159 76.6839 161.959 77.1639 161.559C77.5372 161.239 77.8239 160.859 78.0239 160.419ZM72.9239 158.139H77.8039C77.6839 157.486 77.3972 156.966 76.9439 156.579C76.5039 156.179 75.9772 155.979 75.3639 155.979C74.7639 155.979 74.2306 156.186 73.7639 156.599C73.3106 156.999 73.0306 157.513 72.9239 158.139ZM82.0928 154.899H87.9328V161.879H89.1728V165.399H87.8528V163.199H81.5328V165.399H80.2128V161.879C80.9061 161.866 81.4195 161.506 81.7528 160.799C81.9795 160.333 82.0928 159.599 82.0928 158.599V154.899ZM86.4928 161.879V156.219H83.5328V159.339C83.5328 160.446 83.1995 161.293 82.5328 161.879H86.4928ZM90.672 167.799L93.312 162.419L89.492 154.899H91.132L94.072 160.839L96.772 154.899H98.372L92.272 167.799H90.672ZM101.331 158.299H102.831C102.965 157.366 103.338 156.579 103.951 155.939C104.738 155.113 105.785 154.699 107.091 154.699C108.371 154.699 109.425 155.113 110.251 155.939C111.078 156.766 111.491 157.813 111.491 159.079C111.491 160.333 111.071 161.373 110.231 162.199C109.405 163.026 108.358 163.439 107.091 163.439C105.638 163.439 104.498 162.919 103.671 161.879C103.138 161.213 102.831 160.459 102.751 159.619H101.331V163.199H99.8913V154.899H101.331V158.299ZM107.091 155.979C106.291 155.979 105.611 156.259 105.051 156.819C104.505 157.366 104.231 158.119 104.231 159.079C104.231 160.053 104.511 160.813 105.071 161.359C105.631 161.893 106.305 162.159 107.091 162.159C107.891 162.159 108.578 161.886 109.151 161.339C109.725 160.793 110.011 160.039 110.011 159.079C110.011 158.119 109.725 157.366 109.151 156.819C108.591 156.259 107.905 155.979 107.091 155.979ZM113.7 163.199V154.899H115.14V161.879H118.34V154.899H119.78V161.879H122.98V154.899H124.42V161.879H125.78V165.399H124.46V163.199H113.7ZM127.294 154.899H128.734V160.379L134.414 154.259V163.199H132.974V157.659L127.294 163.779V154.899ZM137.137 154.899H138.577V160.379L144.257 154.259V163.199H142.817V157.659L137.137 163.779V154.899ZM137.857 151.319L139.057 150.859C139.297 151.659 139.864 152.059 140.757 152.059C141.651 152.059 142.217 151.659 142.457 150.859L143.657 151.319C143.444 151.919 143.077 152.393 142.557 152.739C142.051 153.086 141.451 153.259 140.757 153.259C140.064 153.259 139.457 153.086 138.937 152.739C138.431 152.393 138.071 151.919 137.857 151.319ZM157.089 156.219H154.489V163.199H153.049V156.219H150.449V154.899H157.089V156.219ZM164.567 160.419L165.767 161.079C165.487 161.613 165.147 162.059 164.747 162.419C163.987 163.099 163.067 163.439 161.987 163.439C160.867 163.439 159.9 163.079 159.087 162.359C158.287 161.626 157.887 160.539 157.887 159.099C157.887 157.833 158.247 156.786 158.967 155.959C159.7 155.119 160.68 154.699 161.907 154.699C163.294 154.699 164.34 155.206 165.047 156.219C165.607 157.019 165.867 158.059 165.827 159.339H159.367C159.38 160.179 159.64 160.859 160.147 161.379C160.654 161.899 161.274 162.159 162.007 162.159C162.66 162.159 163.227 161.959 163.707 161.559C164.08 161.239 164.367 160.859 164.567 160.419ZM159.467 158.139H164.347C164.227 157.486 163.94 156.966 163.487 156.579C163.047 156.179 162.52 155.979 161.907 155.979C161.307 155.979 160.774 156.186 160.307 156.599C159.854 156.999 159.574 157.513 159.467 158.139ZM168.036 154.899H169.476V158.299L172.836 154.899H174.596L170.996 158.599L175.036 163.199H173.156L169.916 159.559L169.476 159.979V163.199H168.036V154.899ZM182.544 155.499V157.219C181.89 156.393 181.024 155.979 179.944 155.979C179.13 155.979 178.437 156.259 177.864 156.819C177.29 157.366 177.004 158.119 177.004 159.079C177.004 160.039 177.29 160.793 177.864 161.339C178.437 161.886 179.124 162.159 179.924 162.159C180.99 162.159 181.884 161.726 182.604 160.859V162.579C181.817 163.153 180.937 163.439 179.964 163.439C178.67 163.439 177.604 163.033 176.764 162.219C175.937 161.393 175.524 160.353 175.524 159.099C175.524 157.833 175.944 156.786 176.784 155.959C177.624 155.119 178.684 154.699 179.964 154.699C180.924 154.699 181.784 154.966 182.544 155.499ZM190.253 156.219H187.653V163.199H186.213V156.219H183.613V154.899H190.253V156.219ZM191.381 163.099C191.181 162.899 191.081 162.666 191.081 162.399C191.081 162.133 191.181 161.899 191.381 161.699C191.581 161.499 191.814 161.399 192.081 161.399C192.347 161.399 192.581 161.499 192.781 161.699C192.981 161.899 193.081 162.133 193.081 162.399C193.081 162.666 192.981 162.899 192.781 163.099C192.581 163.299 192.347 163.399 192.081 163.399C191.814 163.399 191.581 163.299 191.381 163.099Z" fill="#B6B9C1"/>
</svg>
