<svg width="416" height="129" viewBox="0 0 416 129" fill="none" xmlns="http://www.w3.org/2000/svg">
<rect y="0.199219" width="416" height="128" rx="24" fill="#F5F6F8"/>
<path d="M33.2 53.8592V59.2792H40.04V53.8592H41.52V67.1992H40.04V60.6792H33.2V67.1992H31.72V53.8592H33.2ZM50.9622 60.0792V58.8992H52.4022V67.1992H50.9622V66.0392C50.2422 66.9726 49.2955 67.4392 48.1222 67.4392C47.0022 67.4392 46.0489 67.0526 45.2622 66.2792C44.4755 65.5059 44.0822 64.4259 44.0822 63.0392C44.0822 61.6792 44.4689 60.6192 45.2422 59.8592C46.0289 59.0859 46.9889 58.6992 48.1222 58.6992C49.3222 58.6992 50.2689 59.1592 50.9622 60.0792ZM48.2822 59.9792C47.5222 59.9792 46.8755 60.2526 46.3422 60.7992C45.8222 61.3326 45.5622 62.0792 45.5622 63.0392C45.5622 63.9592 45.8022 64.7126 46.2822 65.2992C46.7755 65.8726 47.4422 66.1592 48.2822 66.1592C49.1222 66.1592 49.7889 65.8592 50.2822 65.2592C50.7889 64.6592 51.0422 63.9259 51.0422 63.0592C51.0422 62.0726 50.7622 61.3126 50.2022 60.7792C49.6422 60.2459 49.0022 59.9792 48.2822 59.9792ZM56.2095 61.0192L55.2095 60.1992C55.5295 59.7326 55.8829 59.3859 56.2695 59.1592C56.7895 58.8526 57.3962 58.6992 58.0895 58.6992C58.9295 58.6992 59.5829 58.8926 60.0495 59.2792C60.5295 59.6926 60.7695 60.2192 60.7695 60.8592C60.7695 61.6326 60.4562 62.2126 59.8295 62.5992C60.2295 62.6926 60.5495 62.8726 60.7895 63.1392C61.1762 63.5526 61.3695 64.0592 61.3695 64.6592C61.3695 65.5526 61.0095 66.2659 60.2895 66.7992C59.7029 67.2259 58.9162 67.4392 57.9295 67.4392C57.0495 67.4392 56.3095 67.2059 55.7095 66.7392C55.2562 66.4059 54.8895 65.9326 54.6095 65.3192L55.8495 64.7992C55.9962 65.1726 56.2429 65.4859 56.5895 65.7392C56.9629 66.0192 57.4162 66.1592 57.9495 66.1592C58.5762 66.1592 59.0429 66.0526 59.3495 65.8392C59.7362 65.5859 59.9295 65.1992 59.9295 64.6792C59.9295 64.2526 59.7629 63.9326 59.4295 63.7192C59.1495 63.5326 58.6962 63.4392 58.0695 63.4392H57.2295V62.1192H57.9295C58.4362 62.1192 58.7962 62.0459 59.0095 61.8992C59.3029 61.7126 59.4495 61.4592 59.4495 61.1392C59.4495 60.7659 59.3295 60.4792 59.0895 60.2792C58.8629 60.0792 58.5095 59.9792 58.0295 59.9792C57.6162 59.9792 57.2362 60.0859 56.8895 60.2992C56.5962 60.4859 56.3695 60.7259 56.2095 61.0192ZM63.567 58.8992H66.707C67.467 58.8992 68.047 59.0592 68.447 59.3792C68.927 59.7659 69.167 60.2859 69.167 60.9392C69.167 61.6592 68.867 62.2126 68.267 62.5992C68.6804 62.7059 69.027 62.8926 69.307 63.1592C69.747 63.5859 69.967 64.1192 69.967 64.7592C69.967 65.5592 69.6804 66.1859 69.107 66.6392C68.6137 67.0126 67.9604 67.1992 67.147 67.1992H63.567V58.8992ZM65.007 62.2792H66.527C66.9137 62.2792 67.2204 62.1992 67.447 62.0392C67.7137 61.8392 67.847 61.5526 67.847 61.1792C67.847 60.8459 67.7137 60.5792 67.447 60.3792C67.247 60.2459 66.8604 60.1792 66.287 60.1792H65.007V62.2792ZM65.007 65.9192H66.787C67.4004 65.9192 67.8337 65.8259 68.087 65.6392C68.407 65.3992 68.567 65.0926 68.567 64.7192C68.567 64.3192 68.427 64.0059 68.147 63.7792C67.8937 63.5792 67.4604 63.4792 66.847 63.4792H65.007V65.9192ZM78.5208 60.0792V58.8992H79.9608V67.1992H78.5208V66.0392C77.8008 66.9726 76.8541 67.4392 75.6808 67.4392C74.5608 67.4392 73.6074 67.0526 72.8208 66.2792C72.0341 65.5059 71.6408 64.4259 71.6408 63.0392C71.6408 61.6792 72.0274 60.6192 72.8008 59.8592C73.5874 59.0859 74.5474 58.6992 75.6808 58.6992C76.8808 58.6992 77.8274 59.1592 78.5208 60.0792ZM75.8408 59.9792C75.0808 59.9792 74.4341 60.2526 73.9008 60.7992C73.3808 61.3326 73.1208 62.0792 73.1208 63.0392C73.1208 63.9592 73.3608 64.7126 73.8408 65.2992C74.3341 65.8726 75.0008 66.1592 75.8408 66.1592C76.6808 66.1592 77.3474 65.8592 77.8408 65.2592C78.3474 64.6592 78.6008 63.9259 78.6008 63.0592C78.6008 62.0726 78.3208 61.3126 77.7608 60.7792C77.2008 60.2459 76.5608 59.9792 75.8408 59.9792ZM82.6881 67.1992V58.8992H84.1281V62.2992H88.0481V58.8992H89.4881V67.1992H88.0481V63.6192H84.1281V67.1992H82.6881ZM92.1998 58.8992H93.6398V64.3792L99.3198 58.2592V67.1992H97.8798V61.6592L92.1998 67.7792V58.8992ZM108.204 64.4192L109.404 65.0792C109.124 65.6126 108.784 66.0592 108.384 66.4192C107.624 67.0992 106.704 67.4392 105.624 67.4392C104.504 67.4392 103.537 67.0792 102.724 66.3592C101.924 65.6259 101.524 64.5392 101.524 63.0992C101.524 61.8326 101.884 60.7859 102.604 59.9592C103.337 59.1192 104.317 58.6992 105.544 58.6992C106.93 58.6992 107.977 59.2059 108.684 60.2192C109.244 61.0192 109.504 62.0592 109.464 63.3392H103.004C103.017 64.1792 103.277 64.8592 103.784 65.3792C104.29 65.8992 104.91 66.1592 105.644 66.1592C106.297 66.1592 106.864 65.9592 107.344 65.5592C107.717 65.2392 108.004 64.8592 108.204 64.4192ZM103.104 62.1392H107.984C107.864 61.4859 107.577 60.9659 107.124 60.5792C106.684 60.1792 106.157 59.9792 105.544 59.9792C104.944 59.9792 104.41 60.1859 103.944 60.5992C103.49 60.9992 103.21 61.5126 103.104 62.1392ZM116.34 58.8992H123.02V67.1992H121.58V60.2192H117.78V67.1992H116.34V58.8992ZM132.755 66.1992C131.928 67.0259 130.882 67.4392 129.615 67.4392C128.348 67.4392 127.295 67.0259 126.455 66.1992C125.628 65.3726 125.215 64.3326 125.215 63.0792C125.215 61.8126 125.628 60.7659 126.455 59.9392C127.295 59.1126 128.348 58.6992 129.615 58.6992C130.882 58.6992 131.928 59.1126 132.755 59.9392C133.595 60.7659 134.015 61.8126 134.015 63.0792C134.015 64.3326 133.595 65.3726 132.755 66.1992ZM131.675 60.7992C131.115 60.2526 130.428 59.9792 129.615 59.9792C128.802 59.9792 128.108 60.2592 127.535 60.8192C126.975 61.3659 126.695 62.1192 126.695 63.0792C126.695 64.0392 126.982 64.7926 127.555 65.3392C128.128 65.8859 128.815 66.1592 129.615 66.1592C130.415 66.1592 131.102 65.8859 131.675 65.3392C132.248 64.7926 132.535 64.0392 132.535 63.0792C132.535 62.1059 132.248 61.3459 131.675 60.7992ZM142.503 58.8992V67.1992H141.063V60.2192H138.103V63.9592C138.103 65.0392 137.89 65.8392 137.463 66.3592C136.983 66.9459 136.317 67.2392 135.463 67.2392C135.357 67.2392 135.21 67.2259 135.023 67.1992V65.8792C135.157 65.9059 135.263 65.9192 135.343 65.9192C135.81 65.9192 136.157 65.7392 136.383 65.3792C136.57 65.0859 136.663 64.6126 136.663 63.9592V58.8992H142.503ZM144.267 67.1992L146.847 63.7792C146.767 63.7792 146.654 63.7659 146.507 63.7392C146.374 63.7126 146.174 63.6459 145.907 63.5392C145.641 63.4326 145.421 63.2926 145.247 63.1192C144.807 62.7059 144.587 62.1526 144.587 61.4592C144.587 60.6726 144.834 60.0526 145.327 59.5992C145.821 59.1326 146.634 58.8992 147.767 58.8992H150.667V67.1992H149.227V63.8592H148.347L145.987 67.1992H144.267ZM149.227 62.6592V60.1792H147.887C147.261 60.1792 146.827 60.2526 146.587 60.3992C146.241 60.6259 146.067 60.9659 146.067 61.4192C146.067 61.8726 146.241 62.2059 146.587 62.4192C146.841 62.5792 147.267 62.6592 147.867 62.6592H149.227Z" fill="#0B1530"/>
<rect x="173.5" y="40.6992" width="216" height="39" rx="7.5" fill="white"/>
<rect x="173.5" y="40.6992" width="216" height="39" rx="7.5" stroke="#B6B9C1"/>
<path d="M186.72 53.8592H196.52V67.1992H195.04V55.2592H188.2V67.1992H186.72V53.8592ZM206.622 66.1992C205.796 67.0259 204.749 67.4392 203.482 67.4392C202.216 67.4392 201.162 67.0259 200.322 66.1992C199.496 65.3726 199.082 64.3326 199.082 63.0792C199.082 61.8126 199.496 60.7659 200.322 59.9392C201.162 59.1126 202.216 58.6992 203.482 58.6992C204.749 58.6992 205.796 59.1126 206.622 59.9392C207.462 60.7659 207.882 61.8126 207.882 63.0792C207.882 64.3326 207.462 65.3726 206.622 66.1992ZM205.542 60.7992C204.982 60.2526 204.296 59.9792 203.482 59.9792C202.669 59.9792 201.976 60.2592 201.402 60.8192C200.842 61.3659 200.562 62.1192 200.562 63.0792C200.562 64.0392 200.849 64.7926 201.422 65.3392C201.996 65.8859 202.682 66.1592 203.482 66.1592C204.282 66.1592 204.969 65.8859 205.542 65.3392C206.116 64.7926 206.402 64.0392 206.402 63.0792C206.402 62.1059 206.116 61.3459 205.542 60.7992ZM210.69 58.8992H216.53V65.8792H217.77V69.3992H216.45V67.1992H210.13V69.3992H208.81V65.8792C209.504 65.8659 210.017 65.5059 210.35 64.7992C210.577 64.3326 210.69 63.5992 210.69 62.5992V58.8992ZM215.09 65.8792V60.2192H212.13V63.3392C212.13 64.4459 211.797 65.2926 211.13 65.8792H215.09ZM225.79 59.4992V61.2192C225.136 60.3926 224.27 59.9792 223.19 59.9792C222.376 59.9792 221.683 60.2592 221.11 60.8192C220.536 61.3659 220.25 62.1192 220.25 63.0792C220.25 64.0392 220.536 64.7926 221.11 65.3392C221.683 65.8859 222.37 66.1592 223.17 66.1592C224.236 66.1592 225.13 65.7259 225.85 64.8592V66.5792C225.063 67.1526 224.183 67.4392 223.21 67.4392C221.916 67.4392 220.85 67.0326 220.01 66.2192C219.183 65.3926 218.77 64.3526 218.77 63.0992C218.77 61.8326 219.19 60.7859 220.03 59.9592C220.87 59.1192 221.93 58.6992 223.21 58.6992C224.17 58.6992 225.03 58.9659 225.79 59.4992ZM228.059 58.8992H229.499V62.2992L232.859 58.8992H234.619L231.019 62.5992L235.059 67.1992H233.179L229.939 63.5592L229.499 63.9792V67.1992H228.059V58.8992ZM242.857 60.0792V58.8992H244.297V67.1992H242.857V66.0392C242.137 66.9726 241.19 67.4392 240.017 67.4392C238.897 67.4392 237.943 67.0526 237.157 66.2792C236.37 65.5059 235.977 64.4259 235.977 63.0392C235.977 61.6792 236.363 60.6192 237.137 59.8592C237.923 59.0859 238.883 58.6992 240.017 58.6992C241.217 58.6992 242.163 59.1592 242.857 60.0792ZM240.177 59.9792C239.417 59.9792 238.77 60.2526 238.237 60.7992C237.717 61.3326 237.457 62.0792 237.457 63.0392C237.457 63.9592 237.697 64.7126 238.177 65.2992C238.67 65.8726 239.337 66.1592 240.177 66.1592C241.017 66.1592 241.683 65.8592 242.177 65.2592C242.683 64.6592 242.937 63.9259 242.937 63.0592C242.937 62.0726 242.657 61.3126 242.097 60.7792C241.537 60.2459 240.897 59.9792 240.177 59.9792ZM248.104 61.0192L247.104 60.1992C247.424 59.7326 247.777 59.3859 248.164 59.1592C248.684 58.8526 249.291 58.6992 249.984 58.6992C250.824 58.6992 251.477 58.8926 251.944 59.2792C252.424 59.6926 252.664 60.2192 252.664 60.8592C252.664 61.6326 252.351 62.2126 251.724 62.5992C252.124 62.6926 252.444 62.8726 252.684 63.1392C253.071 63.5526 253.264 64.0592 253.264 64.6592C253.264 65.5526 252.904 66.2659 252.184 66.7992C251.597 67.2259 250.811 67.4392 249.824 67.4392C248.944 67.4392 248.204 67.2059 247.604 66.7392C247.151 66.4059 246.784 65.9326 246.504 65.3192L247.744 64.7992C247.891 65.1726 248.137 65.4859 248.484 65.7392C248.857 66.0192 249.311 66.1592 249.844 66.1592C250.471 66.1592 250.937 66.0526 251.244 65.8392C251.631 65.5859 251.824 65.1992 251.824 64.6792C251.824 64.2526 251.657 63.9326 251.324 63.7192C251.044 63.5326 250.591 63.4392 249.964 63.4392H249.124V62.1192H249.824C250.331 62.1192 250.691 62.0459 250.904 61.8992C251.197 61.7126 251.344 61.4592 251.344 61.1392C251.344 60.7659 251.224 60.4792 250.984 60.2792C250.757 60.0792 250.404 59.9792 249.924 59.9792C249.511 59.9792 249.131 60.0859 248.784 60.2992C248.491 60.4859 248.264 60.7259 248.104 61.0192ZM255.462 58.8992H256.902V62.2992L260.262 58.8992H262.022L258.422 62.5992L262.462 67.1992H260.582L257.342 63.5592L256.902 63.9792V67.1992H255.462V58.8992ZM270.259 60.0792V58.8992H271.699V67.1992H270.259V66.0392C269.539 66.9726 268.592 67.4392 267.419 67.4392C266.299 67.4392 265.346 67.0526 264.559 66.2792C263.772 65.5059 263.379 64.4259 263.379 63.0392C263.379 61.6792 263.766 60.6192 264.539 59.8592C265.326 59.0859 266.286 58.6992 267.419 58.6992C268.619 58.6992 269.566 59.1592 270.259 60.0792ZM267.579 59.9792C266.819 59.9792 266.172 60.2526 265.639 60.7992C265.119 61.3326 264.859 62.0792 264.859 63.0392C264.859 63.9592 265.099 64.7126 265.579 65.2992C266.072 65.8726 266.739 66.1592 267.579 66.1592C268.419 66.1592 269.086 65.8592 269.579 65.2592C270.086 64.6592 270.339 63.9259 270.339 63.0592C270.339 62.0726 270.059 61.3126 269.499 60.7792C268.939 60.2459 268.299 59.9792 267.579 59.9792Z" fill="#B6B9C1"/>
<path d="M30 67.6992L222 67.6992" stroke="#33F7C3"/>
</svg>
