<svg width="416" height="153" viewBox="0 0 416 153" fill="none" xmlns="http://www.w3.org/2000/svg">
<rect y="0.199219" width="416" height="152" rx="24" fill="#F5F6F8"/>
<path d="M31.72 67.1992V53.8592H38.34V55.2592H33.2V59.3992H35C38.0667 59.3992 39.6 60.6526 39.6 63.1592C39.6 64.4126 39.2067 65.3992 38.42 66.1192C37.6467 66.8392 36.6 67.1992 35.28 67.1992H31.72ZM33.2 60.7992V65.7992H34.92C36.0533 65.7992 36.8733 65.5526 37.38 65.0592C37.8467 64.6192 38.08 63.9859 38.08 63.1592C38.08 62.1992 37.72 61.5259 37 61.1392C36.5867 60.9126 35.84 60.7992 34.76 60.7992H33.2ZM48.9855 66.1992C48.1588 67.0259 47.1121 67.4392 45.8455 67.4392C44.5788 67.4392 43.5255 67.0259 42.6855 66.1992C41.8588 65.3726 41.4455 64.3326 41.4455 63.0792C41.4455 61.8126 41.8588 60.7659 42.6855 59.9392C43.5255 59.1126 44.5788 58.6992 45.8455 58.6992C47.1121 58.6992 48.1588 59.1126 48.9855 59.9392C49.8255 60.7659 50.2455 61.8126 50.2455 63.0792C50.2455 64.3326 49.8255 65.3726 48.9855 66.1992ZM47.9055 60.7992C47.3455 60.2526 46.6588 59.9792 45.8455 59.9792C45.0321 59.9792 44.3388 60.2592 43.7655 60.8192C43.2055 61.3659 42.9255 62.1192 42.9255 63.0792C42.9255 64.0392 43.2121 64.7926 43.7855 65.3392C44.3588 65.8859 45.0455 66.1592 45.8455 66.1592C46.6455 66.1592 47.3321 65.8859 47.9055 65.3392C48.4788 64.7926 48.7655 64.0392 48.7655 63.0792C48.7655 62.1059 48.4788 61.3459 47.9055 60.7992ZM58.7338 58.8992V67.1992H57.2938V60.2192H54.3338V63.9592C54.3338 65.0392 54.1204 65.8392 53.6938 66.3592C53.2138 66.9459 52.5471 67.2392 51.6938 67.2392C51.5871 67.2392 51.4404 67.2259 51.2538 67.1992V65.8792C51.3871 65.9059 51.4938 65.9192 51.5738 65.9192C52.0404 65.9192 52.3871 65.7392 52.6138 65.3792C52.8004 65.0859 52.8938 64.6126 52.8938 63.9592V58.8992H58.7338ZM61.4577 67.1992V58.8992H62.8977V62.0792H64.3777C65.5243 62.0792 66.3643 62.3526 66.8977 62.8992C67.3243 63.3259 67.5377 63.9059 67.5377 64.6392C67.5377 65.4126 67.291 66.0326 66.7977 66.4992C66.3043 66.9659 65.491 67.1992 64.3577 67.1992H61.4577ZM62.8977 65.9192H64.2377C64.8377 65.9192 65.2643 65.8459 65.5177 65.6992C65.8777 65.4592 66.0577 65.1059 66.0577 64.6392C66.0577 64.1592 65.8843 63.8126 65.5377 63.5992C65.2977 63.4392 64.871 63.3592 64.2577 63.3592H62.8977V65.9192ZM69.4655 67.1992V58.8992H70.9055V65.8792H74.1055V58.8992H75.5455V65.8792H78.7455V58.8992H80.1855V67.1992H69.4655ZM89.923 66.1992C89.0963 67.0259 88.0496 67.4392 86.783 67.4392C85.5163 67.4392 84.463 67.0259 83.623 66.1992C82.7963 65.3726 82.383 64.3326 82.383 63.0792C82.383 61.8126 82.7963 60.7659 83.623 59.9392C84.463 59.1126 85.5163 58.6992 86.783 58.6992C88.0496 58.6992 89.0963 59.1126 89.923 59.9392C90.763 60.7659 91.183 61.8126 91.183 63.0792C91.183 64.3326 90.763 65.3726 89.923 66.1992ZM88.843 60.7992C88.283 60.2526 87.5963 59.9792 86.783 59.9792C85.9696 59.9792 85.2763 60.2592 84.703 60.8192C84.143 61.3659 83.863 62.1192 83.863 63.0792C83.863 64.0392 84.1496 64.7926 84.723 65.3392C85.2963 65.8859 85.983 66.1592 86.783 66.1592C87.583 66.1592 88.2696 65.8859 88.843 65.3392C89.4163 64.7926 89.703 64.0392 89.703 63.0792C89.703 62.1059 89.4163 61.3459 88.843 60.7992ZM99.5513 64.4192L100.751 65.0792C100.471 65.6126 100.131 66.0592 99.7313 66.4192C98.9713 67.0992 98.0513 67.4392 96.9713 67.4392C95.8513 67.4392 94.8846 67.0792 94.0713 66.3592C93.2713 65.6259 92.8713 64.5392 92.8713 63.0992C92.8713 61.8326 93.2313 60.7859 93.9513 59.9592C94.6846 59.1192 95.6646 58.6992 96.8913 58.6992C98.2779 58.6992 99.3246 59.2059 100.031 60.2192C100.591 61.0192 100.851 62.0592 100.811 63.3392H94.3513C94.3646 64.1792 94.6246 64.8592 95.1313 65.3792C95.6379 65.8992 96.2579 66.1592 96.9913 66.1592C97.6446 66.1592 98.2113 65.9592 98.6913 65.5592C99.0646 65.2392 99.3513 64.8592 99.5513 64.4192ZM94.4513 62.1392H99.3313C99.2113 61.4859 98.9246 60.9659 98.4713 60.5792C98.0313 60.1792 97.5046 59.9792 96.8913 59.9792C96.2913 59.9792 95.7579 60.1859 95.2913 60.5992C94.8379 60.9992 94.5579 61.5126 94.4513 62.1392ZM31.36 91.1992V82.8992H32.8V86.2992H36.72V82.8992H38.16V91.1992H36.72V87.6192H32.8V91.1992H31.36ZM47.2317 84.0792V82.8992H48.6717V91.1992H47.2317V90.0392C46.5117 90.9726 45.5651 91.4392 44.3917 91.4392C43.2717 91.4392 42.3184 91.0526 41.5317 90.2792C40.7451 89.5059 40.3517 88.4259 40.3517 87.0392C40.3517 85.6792 40.7384 84.6192 41.5117 83.8592C42.2984 83.0859 43.2584 82.6992 44.3917 82.6992C45.5917 82.6992 46.5384 83.1592 47.2317 84.0792ZM44.5517 83.9792C43.7917 83.9792 43.1451 84.2526 42.6117 84.7992C42.0917 85.3326 41.8317 86.0792 41.8317 87.0392C41.8317 87.9592 42.0717 88.7126 42.5517 89.2992C43.0451 89.8726 43.7117 90.1592 44.5517 90.1592C45.3917 90.1592 46.0584 89.8592 46.5517 89.2592C47.0584 88.6592 47.3117 87.9259 47.3117 87.0592C47.3117 86.0726 47.0317 85.3126 46.4717 84.7792C45.9117 84.2459 45.2717 83.9792 44.5517 83.9792ZM52.4791 85.0192L51.4791 84.1992C51.7991 83.7326 52.1524 83.3859 52.5391 83.1592C53.0591 82.8526 53.6657 82.6992 54.3591 82.6992C55.1991 82.6992 55.8524 82.8926 56.3191 83.2792C56.7991 83.6926 57.0391 84.2192 57.0391 84.8592C57.0391 85.6326 56.7257 86.2126 56.0991 86.5992C56.4991 86.6926 56.8191 86.8726 57.0591 87.1392C57.4457 87.5526 57.6391 88.0592 57.6391 88.6592C57.6391 89.5526 57.2791 90.2659 56.5591 90.7992C55.9724 91.2259 55.1857 91.4392 54.1991 91.4392C53.3191 91.4392 52.5791 91.2059 51.9791 90.7392C51.5257 90.4059 51.1591 89.9326 50.8791 89.3192L52.1191 88.7992C52.2657 89.1726 52.5124 89.4859 52.8591 89.7392C53.2324 90.0192 53.6857 90.1592 54.2191 90.1592C54.8457 90.1592 55.3124 90.0526 55.6191 89.8392C56.0057 89.5859 56.1991 89.1992 56.1991 88.6792C56.1991 88.2526 56.0324 87.9326 55.6991 87.7192C55.4191 87.5326 54.9657 87.4392 54.3391 87.4392H53.4991V86.1192H54.1991C54.7057 86.1192 55.0657 86.0459 55.2791 85.8992C55.5724 85.7126 55.7191 85.4592 55.7191 85.1392C55.7191 84.7659 55.5991 84.4792 55.3591 84.2792C55.1324 84.0792 54.7791 83.9792 54.2991 83.9792C53.8857 83.9792 53.5057 84.0859 53.1591 84.2992C52.8657 84.4859 52.6391 84.7259 52.4791 85.0192ZM59.8366 82.8992H62.9766C63.7366 82.8992 64.3166 83.0592 64.7166 83.3792C65.1966 83.7659 65.4366 84.2859 65.4366 84.9392C65.4366 85.6592 65.1366 86.2126 64.5366 86.5992C64.9499 86.7059 65.2966 86.8926 65.5766 87.1592C66.0166 87.5859 66.2366 88.1192 66.2366 88.7592C66.2366 89.5592 65.9499 90.1859 65.3766 90.6392C64.8832 91.0126 64.2299 91.1992 63.4166 91.1992H59.8366V82.8992ZM61.2766 86.2792H62.7966C63.1832 86.2792 63.4899 86.1992 63.7166 86.0392C63.9832 85.8392 64.1166 85.5526 64.1166 85.1792C64.1166 84.8459 63.9832 84.5792 63.7166 84.3792C63.5166 84.2459 63.1299 84.1792 62.5566 84.1792H61.2766V86.2792ZM61.2766 89.9192H63.0566C63.6699 89.9192 64.1032 89.8259 64.3566 89.6392C64.6766 89.3992 64.8366 89.0926 64.8366 88.7192C64.8366 88.3192 64.6966 88.0059 64.4166 87.7792C64.1632 87.5792 63.7299 87.4792 63.1166 87.4792H61.2766V89.9192ZM74.7903 84.0792V82.8992H76.2303V91.1992H74.7903V90.0392C74.0703 90.9726 73.1236 91.4392 71.9503 91.4392C70.8303 91.4392 69.877 91.0526 69.0903 90.2792C68.3036 89.5059 67.9103 88.4259 67.9103 87.0392C67.9103 85.6792 68.297 84.6192 69.0703 83.8592C69.857 83.0859 70.817 82.6992 71.9503 82.6992C73.1503 82.6992 74.097 83.1592 74.7903 84.0792ZM72.1103 83.9792C71.3503 83.9792 70.7036 84.2526 70.1703 84.7992C69.6503 85.3326 69.3903 86.0792 69.3903 87.0392C69.3903 87.9592 69.6303 88.7126 70.1103 89.2992C70.6036 89.8726 71.2703 90.1592 72.1103 90.1592C72.9503 90.1592 73.617 89.8592 74.1103 89.2592C74.617 88.6592 74.8703 87.9259 74.8703 87.0592C74.8703 86.0726 74.5903 85.3126 74.0303 84.7792C73.4703 84.2459 72.8303 83.9792 72.1103 83.9792ZM78.9577 91.1992V82.8992H80.3977V86.2992H84.3177V82.8992H85.7577V91.1992H84.3177V87.6192H80.3977V91.1992H78.9577ZM88.4694 82.8992H89.9094V88.3792L95.5894 82.2592V91.1992H94.1494V85.6592L88.4694 91.7792V82.8992ZM104.473 88.4192L105.673 89.0792C105.393 89.6126 105.053 90.0592 104.653 90.4192C103.893 91.0992 102.973 91.4392 101.893 91.4392C100.773 91.4392 99.8065 91.0792 98.9931 90.3592C98.1931 89.6259 97.7931 88.5392 97.7931 87.0992C97.7931 85.8326 98.1531 84.7859 98.8731 83.9592C99.6065 83.1192 100.586 82.6992 101.813 82.6992C103.2 82.6992 104.246 83.2059 104.953 84.2192C105.513 85.0192 105.773 86.0592 105.733 87.3392H99.2731C99.2865 88.1792 99.5465 88.8592 100.053 89.3792C100.56 89.8992 101.18 90.1592 101.913 90.1592C102.566 90.1592 103.133 89.9592 103.613 89.5592C103.986 89.2392 104.273 88.8592 104.473 88.4192ZM99.3731 86.1392H104.253C104.133 85.4859 103.846 84.9659 103.393 84.5792C102.953 84.1792 102.426 83.9792 101.813 83.9792C101.213 83.9792 100.68 84.1859 100.213 84.5992C99.7598 84.9992 99.4798 85.5126 99.3731 86.1392ZM112.61 82.8992H119.29V91.1992H117.85V84.2192H114.05V91.1992H112.61V82.8992ZM129.025 90.1992C128.198 91.0259 127.151 91.4392 125.885 91.4392C124.618 91.4392 123.565 91.0259 122.725 90.1992C121.898 89.3726 121.485 88.3326 121.485 87.0792C121.485 85.8126 121.898 84.7659 122.725 83.9392C123.565 83.1126 124.618 82.6992 125.885 82.6992C127.151 82.6992 128.198 83.1126 129.025 83.9392C129.865 84.7659 130.285 85.8126 130.285 87.0792C130.285 88.3326 129.865 89.3726 129.025 90.1992ZM127.945 84.7992C127.385 84.2526 126.698 83.9792 125.885 83.9792C125.071 83.9792 124.378 84.2592 123.805 84.8192C123.245 85.3659 122.965 86.1192 122.965 87.0792C122.965 88.0392 123.251 88.7926 123.825 89.3392C124.398 89.8859 125.085 90.1592 125.885 90.1592C126.685 90.1592 127.371 89.8859 127.945 89.3392C128.518 88.7926 128.805 88.0392 128.805 87.0792C128.805 86.1059 128.518 85.3459 127.945 84.7992ZM138.773 82.8992V91.1992H137.333V84.2192H134.373V87.9592C134.373 89.0392 134.159 89.8392 133.733 90.3592C133.253 90.9459 132.586 91.2392 131.733 91.2392C131.626 91.2392 131.479 91.2259 131.293 91.1992V89.8792C131.426 89.9059 131.533 89.9192 131.613 89.9192C132.079 89.9192 132.426 89.7392 132.653 89.3792C132.839 89.0859 132.933 88.6126 132.933 87.9592V82.8992H138.773ZM140.537 91.1992L143.117 87.7792C143.037 87.7792 142.923 87.7659 142.777 87.7392C142.643 87.7126 142.443 87.6459 142.177 87.5392C141.91 87.4326 141.69 87.2926 141.517 87.1192C141.077 86.7059 140.857 86.1526 140.857 85.4592C140.857 84.6726 141.103 84.0526 141.597 83.5992C142.09 83.1326 142.903 82.8992 144.037 82.8992H146.937V91.1992H145.497V87.8592H144.617L142.257 91.1992H140.537ZM145.497 86.6592V84.1792H144.157C143.53 84.1792 143.097 84.2526 142.857 84.3992C142.51 84.6259 142.337 84.9659 142.337 85.4192C142.337 85.8726 142.51 86.2059 142.857 86.4192C143.11 86.5792 143.537 86.6592 144.137 86.6592H145.497Z" fill="#0B1530"/>
<rect x="169.5" y="40.6992" width="216" height="39" rx="7.5" fill="white"/>
<rect x="169.5" y="40.6992" width="216" height="39" rx="7.5" stroke="#B6B9C1"/>
<path d="M182.72 53.8592H192.52V67.1992H191.04V55.2592H184.2V67.1992H182.72V53.8592ZM202.622 66.1992C201.796 67.0259 200.749 67.4392 199.482 67.4392C198.216 67.4392 197.162 67.0259 196.322 66.1992C195.496 65.3726 195.082 64.3326 195.082 63.0792C195.082 61.8126 195.496 60.7659 196.322 59.9392C197.162 59.1126 198.216 58.6992 199.482 58.6992C200.749 58.6992 201.796 59.1126 202.622 59.9392C203.462 60.7659 203.882 61.8126 203.882 63.0792C203.882 64.3326 203.462 65.3726 202.622 66.1992ZM201.542 60.7992C200.982 60.2526 200.296 59.9792 199.482 59.9792C198.669 59.9792 197.976 60.2592 197.402 60.8192C196.842 61.3659 196.562 62.1192 196.562 63.0792C196.562 64.0392 196.849 64.7926 197.422 65.3392C197.996 65.8859 198.682 66.1592 199.482 66.1592C200.282 66.1592 200.969 65.8859 201.542 65.3392C202.116 64.7926 202.402 64.0392 202.402 63.0792C202.402 62.1059 202.116 61.3459 201.542 60.7992ZM206.69 58.8992H212.53V65.8792H213.77V69.3992H212.45V67.1992H206.13V69.3992H204.81V65.8792C205.504 65.8659 206.017 65.5059 206.35 64.7992C206.577 64.3326 206.69 63.5992 206.69 62.5992V58.8992ZM211.09 65.8792V60.2192H208.13V63.3392C208.13 64.4459 207.797 65.2926 207.13 65.8792H211.09ZM221.79 59.4992V61.2192C221.136 60.3926 220.27 59.9792 219.19 59.9792C218.376 59.9792 217.683 60.2592 217.11 60.8192C216.536 61.3659 216.25 62.1192 216.25 63.0792C216.25 64.0392 216.536 64.7926 217.11 65.3392C217.683 65.8859 218.37 66.1592 219.17 66.1592C220.236 66.1592 221.13 65.7259 221.85 64.8592V66.5792C221.063 67.1526 220.183 67.4392 219.21 67.4392C217.916 67.4392 216.85 67.0326 216.01 66.2192C215.183 65.3926 214.77 64.3526 214.77 63.0992C214.77 61.8326 215.19 60.7859 216.03 59.9592C216.87 59.1192 217.93 58.6992 219.21 58.6992C220.17 58.6992 221.03 58.9659 221.79 59.4992ZM224.059 58.8992H225.499V62.2992L228.859 58.8992H230.619L227.019 62.5992L231.059 67.1992H229.179L225.939 63.5592L225.499 63.9792V67.1992H224.059V58.8992ZM238.857 60.0792V58.8992H240.297V67.1992H238.857V66.0392C238.137 66.9726 237.19 67.4392 236.017 67.4392C234.897 67.4392 233.943 67.0526 233.157 66.2792C232.37 65.5059 231.977 64.4259 231.977 63.0392C231.977 61.6792 232.363 60.6192 233.137 59.8592C233.923 59.0859 234.883 58.6992 236.017 58.6992C237.217 58.6992 238.163 59.1592 238.857 60.0792ZM236.177 59.9792C235.417 59.9792 234.77 60.2526 234.237 60.7992C233.717 61.3326 233.457 62.0792 233.457 63.0392C233.457 63.9592 233.697 64.7126 234.177 65.2992C234.67 65.8726 235.337 66.1592 236.177 66.1592C237.017 66.1592 237.683 65.8592 238.177 65.2592C238.683 64.6592 238.937 63.9259 238.937 63.0592C238.937 62.0726 238.657 61.3126 238.097 60.7792C237.537 60.2459 236.897 59.9792 236.177 59.9792ZM244.104 61.0192L243.104 60.1992C243.424 59.7326 243.777 59.3859 244.164 59.1592C244.684 58.8526 245.291 58.6992 245.984 58.6992C246.824 58.6992 247.477 58.8926 247.944 59.2792C248.424 59.6926 248.664 60.2192 248.664 60.8592C248.664 61.6326 248.351 62.2126 247.724 62.5992C248.124 62.6926 248.444 62.8726 248.684 63.1392C249.071 63.5526 249.264 64.0592 249.264 64.6592C249.264 65.5526 248.904 66.2659 248.184 66.7992C247.597 67.2259 246.811 67.4392 245.824 67.4392C244.944 67.4392 244.204 67.2059 243.604 66.7392C243.151 66.4059 242.784 65.9326 242.504 65.3192L243.744 64.7992C243.891 65.1726 244.137 65.4859 244.484 65.7392C244.857 66.0192 245.311 66.1592 245.844 66.1592C246.471 66.1592 246.937 66.0526 247.244 65.8392C247.631 65.5859 247.824 65.1992 247.824 64.6792C247.824 64.2526 247.657 63.9326 247.324 63.7192C247.044 63.5326 246.591 63.4392 245.964 63.4392H245.124V62.1192H245.824C246.331 62.1192 246.691 62.0459 246.904 61.8992C247.197 61.7126 247.344 61.4592 247.344 61.1392C247.344 60.7659 247.224 60.4792 246.984 60.2792C246.757 60.0792 246.404 59.9792 245.924 59.9792C245.511 59.9792 245.131 60.0859 244.784 60.2992C244.491 60.4859 244.264 60.7259 244.104 61.0192ZM251.462 58.8992H252.902V62.2992L256.262 58.8992H258.022L254.422 62.5992L258.462 67.1992H256.582L253.342 63.5592L252.902 63.9792V67.1992H251.462V58.8992ZM266.259 60.0792V58.8992H267.699V67.1992H266.259V66.0392C265.539 66.9726 264.592 67.4392 263.419 67.4392C262.299 67.4392 261.346 67.0526 260.559 66.2792C259.772 65.5059 259.379 64.4259 259.379 63.0392C259.379 61.6792 259.766 60.6192 260.539 59.8592C261.326 59.0859 262.286 58.6992 263.419 58.6992C264.619 58.6992 265.566 59.1592 266.259 60.0792ZM263.579 59.9792C262.819 59.9792 262.172 60.2526 261.639 60.7992C261.119 61.3326 260.859 62.0792 260.859 63.0392C260.859 63.9592 261.099 64.7126 261.579 65.2992C262.072 65.8726 262.739 66.1592 263.579 66.1592C264.419 66.1592 265.086 65.8592 265.579 65.2592C266.086 64.6592 266.339 63.9259 266.339 63.0592C266.339 62.0726 266.059 61.3126 265.499 60.7792C264.939 60.2459 264.299 59.9792 263.579 59.9792Z" fill="#B6B9C1"/>
<path d="M30 67.6992L222 67.6992" stroke="#33F7C3"/>
</svg>
