<svg width="416" height="297" viewBox="0 0 416 297" fill="none" xmlns="http://www.w3.org/2000/svg">
<rect width="416" height="296.2" rx="24" fill="#F5F6F8"/>
<mask id="path-2-inside-1_962_2610" fill="white">
<path d="M319 117H331V159H319V117Z"/>
</mask>
<path d="M331 117H333V115H331V117ZM331 159V161H333V159H331ZM319 119H331V115H319V119ZM329 117V159H333V117H329ZM331 157H319V161H331V157Z" fill="#33F7C3" mask="url(#path-2-inside-1_962_2610)"/>
<rect x="341.75" y="127.649" width="43.9061" height="20.7027" rx="3.75176" fill="#33F7C3"/>
<rect x="341.75" y="127.649" width="43.9061" height="20.7027" rx="3.75176" stroke="#33F7C3" stroke-width="1.5007"/>
<path d="M348.779 140.965V139.511L352.424 133.769H353.677V135.781H352.935L350.638 139.418V139.486H355.817V140.965H348.779ZM352.97 142.5V140.522L353.004 139.878V133.769H354.735V142.5H352.97ZM360.471 142.692C359.738 142.689 359.107 142.509 358.578 142.15C358.052 141.792 357.647 141.274 357.363 140.594C357.082 139.915 356.942 139.098 356.945 138.143C356.945 137.191 357.086 136.379 357.367 135.708C357.651 135.038 358.056 134.528 358.582 134.178C359.111 133.825 359.74 133.649 360.471 133.649C361.201 133.649 361.83 133.825 362.355 134.178C362.884 134.53 363.29 135.042 363.575 135.713C363.859 136.381 364 137.191 363.997 138.143C363.997 139.101 363.855 139.919 363.57 140.599C363.289 141.278 362.885 141.797 362.36 142.155C361.834 142.513 361.204 142.692 360.471 142.692ZM360.471 141.161C360.971 141.161 361.371 140.91 361.669 140.407C361.967 139.904 362.115 139.149 362.112 138.143C362.112 137.481 362.044 136.929 361.908 136.489C361.774 136.048 361.584 135.717 361.336 135.495C361.092 135.274 360.803 135.163 360.471 135.163C359.974 135.163 359.576 135.411 359.277 135.909C358.979 136.406 358.828 137.151 358.825 138.143C358.825 138.814 358.892 139.374 359.026 139.823C359.162 140.269 359.354 140.604 359.601 140.829C359.848 141.05 360.138 141.161 360.471 141.161ZM365.33 144.956V135.951H367.121V137.051H367.202C367.281 136.875 367.396 136.696 367.547 136.514C367.701 136.329 367.9 136.176 368.144 136.054C368.391 135.929 368.698 135.866 369.065 135.866C369.542 135.866 369.983 135.991 370.386 136.241C370.79 136.489 371.113 136.862 371.354 137.363C371.596 137.86 371.717 138.484 371.717 139.234C371.717 139.965 371.599 140.581 371.363 141.085C371.13 141.585 370.811 141.964 370.408 142.223C370.007 142.479 369.558 142.607 369.061 142.607C368.708 142.607 368.408 142.548 368.161 142.432C367.917 142.315 367.716 142.169 367.56 141.993C367.404 141.814 367.284 141.633 367.202 141.451H367.146V144.956H365.33ZM367.108 139.226C367.108 139.615 367.162 139.955 367.27 140.245C367.378 140.535 367.534 140.761 367.739 140.923C367.944 141.082 368.192 141.161 368.485 141.161C368.781 141.161 369.031 141.08 369.235 140.918C369.44 140.753 369.595 140.526 369.7 140.236C369.808 139.943 369.862 139.607 369.862 139.226C369.862 138.848 369.809 138.515 369.704 138.228C369.599 137.941 369.444 137.717 369.24 137.555C369.035 137.392 368.783 137.311 368.485 137.311C368.189 137.311 367.939 137.39 367.735 137.546C367.533 137.702 367.378 137.924 367.27 138.211C367.162 138.498 367.108 138.836 367.108 139.226ZM374.211 135.951L375.413 138.241L376.645 135.951H378.508L376.611 139.226L378.559 142.5H376.705L375.413 140.236L374.142 142.5H372.267L374.211 139.226L372.335 135.951H374.211Z" fill="#0B1530"/>
<mask id="path-6-inside-2_962_2610" fill="white">
<path d="M319 157.102H331V179.102H319V157.102Z"/>
</mask>
<path d="M331 157.102H333V155.102H331V157.102ZM331 179.102V181.102H333V179.102H331ZM319 159.102H331V155.102H319V159.102ZM329 157.102V179.102H333V157.102H329ZM331 177.102H319V181.102H331V177.102Z" fill="#33F7C3" mask="url(#path-6-inside-2_962_2610)"/>
<rect x="341.75" y="157.75" width="43.9061" height="20.7027" rx="3.75176" fill="#33F7C3"/>
<rect x="341.75" y="157.75" width="43.9061" height="20.7027" rx="3.75176" stroke="#33F7C3" stroke-width="1.5007"/>
<path d="M348.911 172.602V171.271L352.019 168.394C352.283 168.138 352.505 167.908 352.684 167.703C352.866 167.498 353.004 167.298 353.097 167.102C353.191 166.903 353.238 166.688 353.238 166.458C353.238 166.202 353.18 165.982 353.063 165.797C352.947 165.61 352.788 165.466 352.586 165.367C352.384 165.264 352.155 165.213 351.899 165.213C351.632 165.213 351.399 165.267 351.2 165.375C351.001 165.483 350.848 165.638 350.74 165.84C350.632 166.042 350.578 166.282 350.578 166.56H348.826C348.826 165.989 348.955 165.493 349.214 165.072C349.472 164.652 349.835 164.326 350.301 164.096C350.767 163.866 351.304 163.751 351.912 163.751C352.538 163.751 353.082 163.862 353.545 164.083C354.011 164.302 354.374 164.606 354.632 164.996C354.891 165.385 355.02 165.831 355.02 166.334C355.02 166.664 354.955 166.99 354.824 167.311C354.696 167.632 354.467 167.989 354.138 168.381C353.808 168.77 353.343 169.238 352.744 169.783L351.469 171.033V171.092H355.135V172.602H348.911ZM359.896 172.793C359.163 172.791 358.532 172.61 358.004 172.252C357.478 171.894 357.073 171.375 356.788 170.696C356.507 170.017 356.368 169.199 356.371 168.244C356.371 167.292 356.511 166.481 356.793 165.81C357.077 165.139 357.482 164.629 358.008 164.279C358.536 163.927 359.166 163.751 359.896 163.751C360.627 163.751 361.255 163.927 361.781 164.279C362.31 164.632 362.716 165.144 363 165.814C363.284 166.482 363.425 167.292 363.422 168.244C363.422 169.202 363.28 170.021 362.996 170.7C362.715 171.379 362.311 171.898 361.785 172.256C361.259 172.614 360.63 172.793 359.896 172.793ZM359.896 171.263C360.397 171.263 360.796 171.011 361.094 170.508C361.393 170.005 361.541 169.251 361.538 168.244C361.538 167.582 361.47 167.031 361.333 166.59C361.2 166.15 361.009 165.819 360.762 165.597C360.517 165.375 360.229 165.264 359.896 165.264C359.399 165.264 359.001 165.513 358.703 166.01C358.404 166.508 358.254 167.252 358.251 168.244C358.251 168.915 358.318 169.475 358.451 169.924C358.588 170.37 358.779 170.706 359.027 170.93C359.274 171.152 359.564 171.263 359.896 171.263ZM364.756 175.057V166.053H366.546V167.153H366.627C366.707 166.977 366.822 166.798 366.973 166.616C367.126 166.431 367.325 166.278 367.569 166.155C367.817 166.03 368.124 165.968 368.49 165.968C368.968 165.968 369.408 166.093 369.812 166.343C370.216 166.59 370.538 166.964 370.78 167.464C371.021 167.962 371.142 168.585 371.142 169.336C371.142 170.066 371.024 170.683 370.788 171.186C370.555 171.686 370.237 172.066 369.833 172.324C369.433 172.58 368.983 172.708 368.486 172.708C368.134 172.708 367.834 172.65 367.586 172.533C367.342 172.417 367.142 172.27 366.985 172.094C366.829 171.915 366.71 171.735 366.627 171.553H366.572V175.057H364.756ZM366.533 169.327C366.533 169.717 366.587 170.056 366.695 170.346C366.803 170.636 366.96 170.862 367.164 171.024C367.369 171.183 367.618 171.263 367.911 171.263C368.206 171.263 368.456 171.182 368.661 171.02C368.866 170.855 369.02 170.628 369.126 170.338C369.234 170.045 369.288 169.708 369.288 169.327C369.288 168.949 369.235 168.617 369.13 168.33C369.025 168.043 368.87 167.818 368.665 167.656C368.46 167.494 368.209 167.413 367.911 167.413C367.615 167.413 367.365 167.491 367.16 167.648C366.958 167.804 366.803 168.026 366.695 168.313C366.587 168.6 366.533 168.938 366.533 169.327ZM373.636 166.053L374.838 168.342L376.071 166.053H377.934L376.036 169.327L377.985 172.602H376.13L374.838 170.338L373.568 172.602H371.692L373.636 169.327L371.76 166.053H373.636Z" fill="#0B1530"/>
<mask id="path-10-inside-3_962_2610" fill="white">
<path d="M319 64.1016H331V86.1016H319V64.1016Z"/>
</mask>
<path d="M331 64.1016H333V62.1016H331V64.1016ZM331 86.1016V88.1016H333V86.1016H331ZM319 66.1016H331V62.1016H319V66.1016ZM329 64.1016V86.1016H333V64.1016H329ZM331 84.1016H319V88.1016H331V84.1016Z" fill="#33F7C3" mask="url(#path-10-inside-3_962_2610)"/>
<rect x="341.75" y="64.7504" width="43.9061" height="20.7027" rx="3.75176" fill="#33F7C3"/>
<rect x="341.75" y="64.7504" width="43.9061" height="20.7027" rx="3.75176" stroke="#33F7C3" stroke-width="1.5007"/>
<path d="M348.911 79.6016V78.2714L352.019 75.3936C352.283 75.1378 352.505 74.9076 352.684 74.703C352.866 74.4983 353.004 74.2979 353.097 74.1018C353.191 73.9029 353.238 73.6883 353.238 73.4581C353.238 73.2023 353.18 72.982 353.063 72.7972C352.947 72.6096 352.788 72.4661 352.586 72.3666C352.384 72.2643 352.155 72.2132 351.899 72.2132C351.632 72.2132 351.399 72.2672 351.2 72.3752C351.001 72.4832 350.848 72.6381 350.74 72.8399C350.632 73.0417 350.578 73.2818 350.578 73.5604H348.826C348.826 72.9891 348.955 72.4931 349.214 72.0725C349.472 71.6518 349.835 71.3264 350.301 71.0962C350.767 70.8659 351.304 70.7508 351.912 70.7508C352.538 70.7508 353.082 70.8617 353.545 71.0834C354.011 71.3022 354.374 71.6063 354.632 71.9957C354.891 72.3851 355.02 72.8313 355.02 73.3344C355.02 73.6641 354.955 73.9896 354.824 74.3107C354.696 74.6319 354.467 74.9886 354.138 75.3808C353.808 75.7702 353.343 76.2378 352.744 76.7835L351.469 78.0326V78.0923H355.135V79.6016H348.911ZM359.896 79.7934C359.163 79.7906 358.532 79.6101 358.004 79.252C357.478 78.8938 357.073 78.3751 356.788 77.6958C356.507 77.0165 356.368 76.1994 356.371 75.2444C356.371 74.2923 356.511 73.4808 356.793 72.81C357.077 72.1393 357.482 71.6291 358.008 71.2795C358.536 70.927 359.166 70.7508 359.896 70.7508C360.627 70.7508 361.255 70.927 361.781 71.2795C362.31 71.6319 362.716 72.1435 363 72.8143C363.284 73.4822 363.425 74.2923 363.422 75.2444C363.422 76.2022 363.28 77.0208 362.996 77.7001C362.715 78.3794 362.311 78.8981 361.785 79.2562C361.259 79.6144 360.63 79.7934 359.896 79.7934ZM359.896 78.2629C360.397 78.2629 360.796 78.0113 361.094 77.5083C361.393 77.0052 361.541 76.2506 361.538 75.2444C361.538 74.5822 361.47 74.0308 361.333 73.5902C361.2 73.1497 361.009 72.8186 360.762 72.5969C360.517 72.3752 360.229 72.2643 359.896 72.2643C359.399 72.2643 359.001 72.513 358.703 73.0104C358.404 73.5078 358.254 74.2525 358.251 75.2444C358.251 75.9152 358.318 76.4751 358.451 76.9242C358.588 77.3704 358.779 77.7058 359.027 77.9303C359.274 78.152 359.564 78.2629 359.896 78.2629ZM364.756 82.0573V73.053H366.546V74.153H366.627C366.707 73.9768 366.822 73.7977 366.973 73.6158C367.126 73.4311 367.325 73.2776 367.569 73.1554C367.817 73.0303 368.124 72.9678 368.49 72.9678C368.968 72.9678 369.408 73.0928 369.812 73.3429C370.216 73.5902 370.538 73.964 370.78 74.4642C371.021 74.9616 371.142 75.5855 371.142 76.3358C371.142 77.0663 371.024 77.683 370.788 78.1861C370.555 78.6864 370.237 79.0658 369.833 79.3244C369.433 79.5802 368.983 79.7081 368.486 79.7081C368.134 79.7081 367.834 79.6499 367.586 79.5333C367.342 79.4168 367.142 79.2704 366.985 79.0942C366.829 78.9152 366.71 78.7347 366.627 78.5528H366.572V82.0573H364.756ZM366.533 76.3273C366.533 76.7167 366.587 77.0563 366.695 77.3462C366.803 77.6362 366.96 77.8621 367.164 78.0241C367.369 78.1833 367.618 78.2629 367.911 78.2629C368.206 78.2629 368.456 78.1819 368.661 78.0199C368.866 77.855 369.02 77.6276 369.126 77.3377C369.234 77.045 369.288 76.7082 369.288 76.3273C369.288 75.9493 369.235 75.6167 369.13 75.3297C369.025 75.0426 368.87 74.8181 368.665 74.6561C368.46 74.4941 368.209 74.4131 367.911 74.4131C367.615 74.4131 367.365 74.4912 367.16 74.6475C366.958 74.8039 366.803 75.0256 366.695 75.3126C366.587 75.5997 366.533 75.9379 366.533 76.3273ZM373.636 73.053L374.838 75.3425L376.071 73.053H377.934L376.036 76.3273L377.985 79.6016H376.13L374.838 77.3377L373.568 79.6016H371.692L373.636 76.3273L371.76 73.053H373.636Z" fill="#0B1530"/>
<mask id="path-14-inside-4_962_2610" fill="white">
<path d="M319 109.203H331V119.203H319V109.203Z"/>
</mask>
<path d="M331 109.203H333V107.203H331V109.203ZM331 119.203V121.203H333V119.203H331ZM319 111.203H331V107.203H319V111.203ZM329 109.203V119.203H333V109.203H329ZM331 117.203H319V121.203H331V117.203Z" fill="#33F7C3" mask="url(#path-14-inside-4_962_2610)"/>
<rect x="341.75" y="97.7504" width="41.9061" height="20.7027" rx="3.75176" fill="#33F7C3"/>
<rect x="341.75" y="97.7504" width="41.9061" height="20.7027" rx="3.75176" stroke="#33F7C3" stroke-width="1.5007"/>
<path d="M352.709 103.87V112.602H350.863V105.622H350.812L348.813 106.876V105.239L350.974 103.87H352.709ZM358.208 112.793C357.475 112.791 356.844 112.61 356.315 112.252C355.789 111.894 355.384 111.375 355.1 110.696C354.819 110.017 354.68 109.199 354.682 108.244C354.682 107.292 354.823 106.481 355.104 105.81C355.389 105.139 355.794 104.629 356.319 104.279C356.848 103.927 357.478 103.751 358.208 103.751C358.939 103.751 359.567 103.927 360.093 104.279C360.621 104.632 361.028 105.144 361.312 105.814C361.596 106.482 361.737 107.292 361.734 108.244C361.734 109.202 361.592 110.021 361.308 110.7C361.026 111.379 360.623 111.898 360.097 112.256C359.571 112.614 358.941 112.793 358.208 112.793ZM358.208 111.263C358.708 111.263 359.108 111.011 359.406 110.508C359.705 110.005 359.852 109.251 359.85 108.244C359.85 107.582 359.781 107.031 359.645 106.59C359.511 106.15 359.321 105.819 359.074 105.597C358.829 105.375 358.541 105.264 358.208 105.264C357.711 105.264 357.313 105.513 357.014 106.01C356.716 106.508 356.565 107.252 356.563 108.244C356.563 108.915 356.629 109.475 356.763 109.924C356.899 110.37 357.091 110.706 357.338 110.93C357.586 111.152 357.876 111.263 358.208 111.263ZM363.067 115.057V106.053H364.858V107.153H364.939C365.019 106.977 365.134 106.798 365.284 106.616C365.438 106.431 365.637 106.278 365.881 106.155C366.128 106.03 366.435 105.968 366.802 105.968C367.28 105.968 367.72 106.093 368.124 106.343C368.527 106.59 368.85 106.964 369.091 107.464C369.333 107.962 369.454 108.585 369.454 109.336C369.454 110.066 369.336 110.683 369.1 111.186C368.867 111.686 368.549 112.066 368.145 112.324C367.744 112.58 367.295 112.708 366.798 112.708C366.445 112.708 366.145 112.65 365.898 112.533C365.654 112.417 365.453 112.27 365.297 112.094C365.141 111.915 365.021 111.735 364.939 111.553H364.884V115.057H363.067ZM364.845 109.327C364.845 109.717 364.899 110.056 365.007 110.346C365.115 110.636 365.271 110.862 365.476 111.024C365.681 111.183 365.929 111.263 366.222 111.263C366.518 111.263 366.768 111.182 366.973 111.02C367.177 110.855 367.332 110.628 367.437 110.338C367.545 110.045 367.599 109.708 367.599 109.327C367.599 108.949 367.547 108.617 367.442 108.33C367.336 108.043 367.181 107.818 366.977 107.656C366.772 107.494 366.521 107.413 366.222 107.413C365.927 107.413 365.677 107.491 365.472 107.648C365.27 107.804 365.115 108.026 365.007 108.313C364.899 108.6 364.845 108.938 364.845 109.327ZM371.948 106.053L373.15 108.342L374.382 106.053H376.245L374.348 109.327L376.297 112.602H374.442L373.15 110.338L371.88 112.602H370.004L371.948 109.327L370.072 106.053H371.948Z" fill="#0B1530"/>
<path d="M30 142L30 172" stroke="#33F7C3" stroke-width="2" stroke-linecap="square"/>
<path d="M40 142V172" stroke="#33F7C3" stroke-width="2" stroke-linecap="square"/>
<mask id="path-20-inside-5_962_2610" fill="white">
<path d="M41 208L41 224L29 224L29 208L41 208Z"/>
</mask>
<path d="M41 224L41 226L43 226L43 224L41 224ZM29 224L27 224L27 226L29 226L29 224ZM39 208L39 224L43 224L43 208L39 208ZM41 222L29 222L29 226L41 226L41 222ZM31 224L31 208L27 208L27 224L31 224Z" fill="#33F7C3" mask="url(#path-20-inside-5_962_2610)"/>
<rect x="29.7504" y="234.75" width="40.9061" height="20.7027" rx="3.75176" fill="#33F7C3"/>
<rect x="29.7504" y="234.75" width="40.9061" height="20.7027" rx="3.75176" stroke="#33F7C3" stroke-width="1.5007"/>
<path d="M40.7095 240.87V249.602H38.8635V242.622H38.8123L36.8128 243.876V242.239L38.9743 240.87H40.7095ZM42.7847 249.602V248.271L45.8927 245.394C46.157 245.138 46.3787 244.908 46.5578 244.703C46.7397 244.498 46.8775 244.298 46.9713 244.102C47.0651 243.903 47.112 243.688 47.112 243.458C47.112 243.202 47.0537 242.982 46.9372 242.797C46.8207 242.61 46.6615 242.466 46.4597 242.367C46.2579 242.264 46.0291 242.213 45.7733 242.213C45.5061 242.213 45.2731 242.267 45.0741 242.375C44.8752 242.483 44.7217 242.638 44.6137 242.84C44.5057 243.042 44.4517 243.282 44.4517 243.56H42.6994C42.6994 242.989 42.8287 242.493 43.0874 242.072C43.346 241.652 43.7084 241.326 44.1745 241.096C44.6407 240.866 45.1779 240.751 45.7861 240.751C46.4114 240.751 46.9557 240.862 47.419 241.083C47.8851 241.302 48.2475 241.606 48.5061 241.996C48.7648 242.385 48.8941 242.831 48.8941 243.334C48.8941 243.664 48.8287 243.99 48.698 244.311C48.5701 244.632 48.3413 244.989 48.0116 245.381C47.6819 245.77 47.2172 246.238 46.6175 246.783L45.3427 248.033V248.092H49.0092V249.602H42.7847ZM50.3639 252.057V243.053H52.1545V244.153H52.2355C52.3151 243.977 52.4302 243.798 52.5808 243.616C52.7343 243.431 52.9333 243.278 53.1777 243.155C53.425 243.03 53.7319 242.968 54.0986 242.968C54.5761 242.968 55.0166 243.093 55.4202 243.343C55.8238 243.59 56.1464 243.964 56.388 244.464C56.6296 244.962 56.7504 245.585 56.7504 246.336C56.7504 247.066 56.6324 247.683 56.3965 248.186C56.1635 248.686 55.8451 249.066 55.4415 249.324C55.0408 249.58 54.5917 249.708 54.0943 249.708C53.7419 249.708 53.442 249.65 53.1948 249.533C52.9503 249.417 52.7499 249.27 52.5936 249.094C52.4373 248.915 52.3179 248.735 52.2355 248.553H52.1801V252.057H50.3639ZM52.1417 246.327C52.1417 246.717 52.1957 247.056 52.3037 247.346C52.4117 247.636 52.568 247.862 52.7727 248.024C52.9773 248.183 53.226 248.263 53.5188 248.263C53.8144 248.263 54.0645 248.182 54.2691 248.02C54.4738 247.855 54.6287 247.628 54.7338 247.338C54.8418 247.045 54.8958 246.708 54.8958 246.327C54.8958 245.949 54.8433 245.617 54.7381 245.33C54.6329 245.043 54.478 244.818 54.2734 244.656C54.0687 244.494 53.8172 244.413 53.5188 244.413C53.2232 244.413 52.9731 244.491 52.7684 244.648C52.5666 244.804 52.4117 245.026 52.3037 245.313C52.1957 245.6 52.1417 245.938 52.1417 246.327ZM59.2445 243.053L60.4467 245.342L61.6788 243.053H63.5419L61.6447 246.327L63.5931 249.602H61.7385L60.4467 247.338L59.1763 249.602H57.3004L59.2445 246.327L57.3686 243.053H59.2445Z" fill="#0B1530"/>
<path d="M30.72 45.66H40.52V59H39.04V47.06H32.2V59H30.72V45.66ZM45.0422 57.84V63.6H43.6022V50.7H45.0422V51.86C45.7755 50.9533 46.7222 50.5 47.8822 50.5C49.1222 50.5 50.1022 50.94 50.8222 51.82C51.5555 52.6867 51.9222 53.7133 51.9222 54.9C51.9222 56.1 51.5622 57.1267 50.8422 57.98C50.1222 58.82 49.1555 59.24 47.9422 59.24C46.7289 59.24 45.7622 58.7733 45.0422 57.84ZM47.7422 57.96C48.5555 57.96 49.2089 57.6667 49.7022 57.08C50.1955 56.48 50.4422 55.7533 50.4422 54.9C50.4422 53.94 50.1689 53.18 49.6222 52.62C49.0755 52.06 48.4422 51.78 47.7222 51.78C47.0022 51.78 46.3622 52.06 45.8022 52.62C45.2422 53.18 44.9622 53.9333 44.9622 54.88C44.9622 55.7467 45.2155 56.48 45.7222 57.08C46.2422 57.6667 46.9155 57.96 47.7422 57.96ZM60.2895 56.22L61.4895 56.88C61.2095 57.4133 60.8695 57.86 60.4695 58.22C59.7095 58.9 58.7895 59.24 57.7095 59.24C56.5895 59.24 55.6229 58.88 54.8095 58.16C54.0095 57.4267 53.6095 56.34 53.6095 54.9C53.6095 53.6333 53.9695 52.5867 54.6895 51.76C55.4229 50.92 56.4029 50.5 57.6295 50.5C59.0162 50.5 60.0629 51.0067 60.7695 52.02C61.3295 52.82 61.5895 53.86 61.5495 55.14H55.0895C55.1029 55.98 55.3629 56.66 55.8695 57.18C56.3762 57.7 56.9962 57.96 57.7295 57.96C58.3829 57.96 58.9495 57.76 59.4295 57.36C59.8029 57.04 60.0895 56.66 60.2895 56.22ZM55.1895 53.94H60.0695C59.9495 53.2867 59.6629 52.7667 59.2095 52.38C58.7695 51.98 58.2429 51.78 57.6295 51.78C57.0295 51.78 56.4962 51.9867 56.0295 52.4C55.5762 52.8 55.2962 53.3133 55.1895 53.94ZM64.3584 50.7H70.1984V57.68H71.4384V61.2H70.1184V59H63.7984V61.2H62.4784V57.68C63.1718 57.6667 63.6851 57.3067 64.0184 56.6C64.2451 56.1333 64.3584 55.4 64.3584 54.4V50.7ZM68.7584 57.68V52.02H65.7984V55.14C65.7984 56.2467 65.4651 57.0933 64.7984 57.68H68.7584ZM72.9577 59V50.7H74.3977V57.68H77.5977V50.7H79.0377V57.68H82.2377V50.7H83.6777V59H72.9577ZM92.5552 56.22L93.7552 56.88C93.4752 57.4133 93.1352 57.86 92.7352 58.22C91.9752 58.9 91.0552 59.24 89.9752 59.24C88.8552 59.24 87.8885 58.88 87.0752 58.16C86.2752 57.4267 85.8752 56.34 85.8752 54.9C85.8752 53.6333 86.2352 52.5867 86.9552 51.76C87.6885 50.92 88.6685 50.5 89.8952 50.5C91.2818 50.5 92.3285 51.0067 93.0352 52.02C93.5952 52.82 93.8552 53.86 93.8152 55.14H87.3552C87.3685 55.98 87.6285 56.66 88.1352 57.18C88.6418 57.7 89.2618 57.96 89.9952 57.96C90.6485 57.96 91.2152 57.76 91.6952 57.36C92.0685 57.04 92.3552 56.66 92.5552 56.22ZM87.4552 53.94H92.3352C92.2152 53.2867 91.9285 52.7667 91.4752 52.38C91.0352 51.98 90.5085 51.78 89.8952 51.78C89.2952 51.78 88.7618 51.9867 88.2952 52.4C87.8418 52.8 87.5618 53.3133 87.4552 53.94ZM102.524 51.3V53.02C101.871 52.1933 101.004 51.78 99.9241 51.78C99.1107 51.78 98.4174 52.06 97.8441 52.62C97.2707 53.1667 96.9841 53.92 96.9841 54.88C96.9841 55.84 97.2707 56.5933 97.8441 57.14C98.4174 57.6867 99.1041 57.96 99.9041 57.96C100.971 57.96 101.864 57.5267 102.584 56.66V58.38C101.797 58.9533 100.917 59.24 99.9441 59.24C98.6507 59.24 97.5841 58.8333 96.7441 58.02C95.9174 57.1933 95.5041 56.1533 95.5041 54.9C95.5041 53.6333 95.9241 52.5867 96.7641 51.76C97.6041 50.92 98.6641 50.5 99.9441 50.5C100.904 50.5 101.764 50.7667 102.524 51.3ZM110.234 52.02H107.634V59H106.194V52.02H103.594V50.7H110.234V52.02ZM111.747 50.7H114.887C115.647 50.7 116.227 50.86 116.627 51.18C117.107 51.5667 117.347 52.0867 117.347 52.74C117.347 53.46 117.047 54.0133 116.447 54.4C116.86 54.5067 117.207 54.6933 117.487 54.96C117.927 55.3867 118.147 55.92 118.147 56.56C118.147 57.36 117.86 57.9867 117.287 58.44C116.793 58.8133 116.14 59 115.327 59H111.747V50.7ZM113.187 54.08H114.707C115.093 54.08 115.4 54 115.627 53.84C115.893 53.64 116.027 53.3533 116.027 52.98C116.027 52.6467 115.893 52.38 115.627 52.18C115.427 52.0467 115.04 51.98 114.467 51.98H113.187V54.08ZM113.187 57.72H114.967C115.58 57.72 116.013 57.6267 116.267 57.44C116.587 57.2 116.747 56.8933 116.747 56.52C116.747 56.12 116.607 55.8067 116.327 55.58C116.073 55.38 115.64 55.28 115.027 55.28H113.187V57.72ZM120.32 63.6L122.96 58.22L119.14 50.7H120.78L123.72 56.64L126.42 50.7H128.02L121.92 63.6H120.32ZM130.98 54.1H132.48C132.613 53.1667 132.986 52.38 133.6 51.74C134.386 50.9133 135.433 50.5 136.74 50.5C138.02 50.5 139.073 50.9133 139.9 51.74C140.726 52.5667 141.14 53.6133 141.14 54.88C141.14 56.1333 140.72 57.1733 139.88 58C139.053 58.8267 138.006 59.24 136.74 59.24C135.286 59.24 134.146 58.72 133.32 57.68C132.786 57.0133 132.48 56.26 132.4 55.42H130.98V59H129.54V50.7H130.98V54.1ZM136.74 51.78C135.94 51.78 135.26 52.06 134.7 52.62C134.153 53.1667 133.88 53.92 133.88 54.88C133.88 55.8533 134.16 56.6133 134.72 57.16C135.28 57.6933 135.953 57.96 136.74 57.96C137.54 57.96 138.226 57.6867 138.8 57.14C139.373 56.5933 139.66 55.84 139.66 54.88C139.66 53.92 139.373 53.1667 138.8 52.62C138.24 52.06 137.553 51.78 136.74 51.78ZM143.348 59V50.7H144.788V57.68H147.988V50.7H149.428V57.68H152.628V50.7H154.068V57.68H155.428V61.2H154.108V59H143.348ZM156.942 50.7H158.382V56.18L164.062 50.06V59H162.622V53.46L156.942 59.58V50.7ZM166.786 50.7H168.226V56.18L173.906 50.06V59H172.466V53.46L166.786 59.58V50.7ZM167.506 47.12L168.706 46.66C168.946 47.46 169.512 47.86 170.406 47.86C171.299 47.86 171.866 47.46 172.106 46.66L173.306 47.12C173.092 47.72 172.726 48.1933 172.206 48.54C171.699 48.8867 171.099 49.06 170.406 49.06C169.712 49.06 169.106 48.8867 168.586 48.54C168.079 48.1933 167.719 47.72 167.506 47.12ZM186.738 52.02H184.138V59H182.698V52.02H180.098V50.7H186.738V52.02ZM194.215 56.22L195.415 56.88C195.135 57.4133 194.795 57.86 194.395 58.22C193.635 58.9 192.715 59.24 191.635 59.24C190.515 59.24 189.549 58.88 188.735 58.16C187.935 57.4267 187.535 56.34 187.535 54.9C187.535 53.6333 187.895 52.5867 188.615 51.76C189.349 50.92 190.329 50.5 191.555 50.5C192.942 50.5 193.989 51.0067 194.695 52.02C195.255 52.82 195.515 53.86 195.475 55.14H189.015C189.029 55.98 189.289 56.66 189.795 57.18C190.302 57.7 190.922 57.96 191.655 57.96C192.309 57.96 192.875 57.76 193.355 57.36C193.729 57.04 194.015 56.66 194.215 56.22ZM189.115 53.94H193.995C193.875 53.2867 193.589 52.7667 193.135 52.38C192.695 51.98 192.169 51.78 191.555 51.78C190.955 51.78 190.422 51.9867 189.955 52.4C189.502 52.8 189.222 53.3133 189.115 53.94ZM197.684 50.7H199.124V54.1L202.484 50.7H204.244L200.644 54.4L204.684 59H202.804L199.564 55.36L199.124 55.78V59H197.684V50.7ZM212.192 51.3V53.02C211.539 52.1933 210.672 51.78 209.592 51.78C208.779 51.78 208.085 52.06 207.512 52.62C206.939 53.1667 206.652 53.92 206.652 54.88C206.652 55.84 206.939 56.5933 207.512 57.14C208.085 57.6867 208.772 57.96 209.572 57.96C210.639 57.96 211.532 57.5267 212.252 56.66V58.38C211.465 58.9533 210.585 59.24 209.612 59.24C208.319 59.24 207.252 58.8333 206.412 58.02C205.585 57.1933 205.172 56.1533 205.172 54.9C205.172 53.6333 205.592 52.5867 206.432 51.76C207.272 50.92 208.332 50.5 209.612 50.5C210.572 50.5 211.432 50.7667 212.192 51.3ZM219.902 52.02H217.302V59H215.862V52.02H213.262V50.7H219.902V52.02ZM221.029 58.9C220.829 58.7 220.729 58.4667 220.729 58.2C220.729 57.9333 220.829 57.7 221.029 57.5C221.229 57.3 221.463 57.2 221.729 57.2C221.996 57.2 222.229 57.3 222.429 57.5C222.629 57.7 222.729 57.9333 222.729 58.2C222.729 58.4667 222.629 58.7 222.429 58.9C222.229 59.1 221.996 59.2 221.729 59.2C221.463 59.2 221.229 59.1 221.029 58.9Z" fill="#CED0D6"/>
<path d="M32.14 92.28L31 91.38C31.8667 90.0867 33.14 89.44 34.82 89.44C36.02 89.44 36.96 89.7533 37.64 90.38C38.3333 91.0067 38.68 91.8267 38.68 92.84C38.68 93.4933 38.5067 94.0667 38.16 94.56C37.8267 95.04 37.3867 95.4067 36.84 95.66C37.7067 95.86 38.3667 96.2733 38.82 96.9C39.2867 97.5267 39.52 98.26 39.52 99.1C39.52 100.487 38.9667 101.573 37.86 102.36C37.0067 102.947 35.9933 103.24 34.82 103.24C33.6067 103.24 32.6 102.933 31.8 102.32C31 101.707 30.4 100.947 30 100.04L31.44 99.4C31.7067 100.147 32.1467 100.74 32.76 101.18C33.3733 101.62 34.08 101.84 34.88 101.84C35.6933 101.84 36.3733 101.653 36.92 101.28C37.64 100.773 38 100.06 38 99.14C38 97.3933 36.8133 96.52 34.44 96.52H33.24V95.12H34.44C35.32 95.12 35.9933 94.9067 36.46 94.48C36.9267 94.0533 37.16 93.5133 37.16 92.86C37.16 92.2867 36.98 91.82 36.62 91.46C36.22 91.0467 35.62 90.84 34.82 90.84C33.7 90.84 32.8067 91.32 32.14 92.28ZM48.2434 95.88V94.7H49.6834V103H48.2434V101.84C47.5234 102.773 46.5768 103.24 45.4034 103.24C44.2834 103.24 43.3301 102.853 42.5434 102.08C41.7568 101.307 41.3634 100.227 41.3634 98.84C41.3634 97.48 41.7501 96.42 42.5234 95.66C43.3101 94.8867 44.2701 94.5 45.4034 94.5C46.6034 94.5 47.5501 94.96 48.2434 95.88ZM45.5634 95.78C44.8034 95.78 44.1568 96.0533 43.6234 96.6C43.1034 97.1333 42.8434 97.88 42.8434 98.84C42.8434 99.76 43.0834 100.513 43.5634 101.1C44.0568 101.673 44.7234 101.96 45.5634 101.96C46.4034 101.96 47.0701 101.66 47.5634 101.06C48.0701 100.46 48.3234 99.7267 48.3234 98.86C48.3234 97.8733 48.0434 97.1133 47.4834 96.58C46.9234 96.0467 46.2834 95.78 45.5634 95.78ZM52.4108 103V94.7H57.3308V96.02H53.8508V103H52.4108ZM65.3683 102C64.5416 102.827 63.4949 103.24 62.2283 103.24C60.9616 103.24 59.9083 102.827 59.0683 102C58.2416 101.173 57.8283 100.133 57.8283 98.88C57.8283 97.6133 58.2416 96.5667 59.0683 95.74C59.9083 94.9133 60.9616 94.5 62.2283 94.5C63.4949 94.5 64.5416 94.9133 65.3683 95.74C66.2083 96.5667 66.6283 97.6133 66.6283 98.88C66.6283 100.133 66.2083 101.173 65.3683 102ZM64.2883 96.6C63.7283 96.0533 63.0416 95.78 62.2283 95.78C61.4149 95.78 60.7216 96.06 60.1483 96.62C59.5883 97.1667 59.3083 97.92 59.3083 98.88C59.3083 99.84 59.5949 100.593 60.1683 101.14C60.7416 101.687 61.4283 101.96 62.2283 101.96C63.0283 101.96 63.7149 101.687 64.2883 101.14C64.8616 100.593 65.1483 99.84 65.1483 98.88C65.1483 97.9067 64.8616 97.1467 64.2883 96.6ZM75.1166 94.7V103H73.6766V96.02H70.7166V99.76C70.7166 100.84 70.5032 101.64 70.0766 102.16C69.5966 102.747 68.9299 103.04 68.0766 103.04C67.9699 103.04 67.8232 103.027 67.6366 103V101.68C67.7699 101.707 67.8766 101.72 67.9566 101.72C68.4232 101.72 68.7699 101.54 68.9966 101.18C69.1832 100.887 69.2766 100.413 69.2766 99.76V94.7H75.1166ZM84.8605 102C84.0338 102.827 82.9871 103.24 81.7205 103.24C80.4538 103.24 79.4005 102.827 78.5605 102C77.7338 101.173 77.3205 100.133 77.3205 98.88C77.3205 97.6133 77.7338 96.5667 78.5605 95.74C79.4005 94.9133 80.4538 94.5 81.7205 94.5C82.9871 94.5 84.0338 94.9133 84.8605 95.74C85.7005 96.5667 86.1205 97.6133 86.1205 98.88C86.1205 100.133 85.7005 101.173 84.8605 102ZM83.7805 96.6C83.2205 96.0533 82.5338 95.78 81.7205 95.78C80.9071 95.78 80.2138 96.06 79.6405 96.62C79.0805 97.1667 78.8005 97.92 78.8005 98.88C78.8005 99.84 79.0871 100.593 79.6605 101.14C80.2338 101.687 80.9205 101.96 81.7205 101.96C82.5205 101.96 83.2071 101.687 83.7805 101.14C84.3538 100.593 84.6405 99.84 84.6405 98.88C84.6405 97.9067 84.3538 97.1467 83.7805 96.6ZM88.3288 94.7H91.4688C92.2288 94.7 92.8088 94.86 93.2088 95.18C93.6888 95.5667 93.9288 96.0867 93.9288 96.74C93.9288 97.46 93.6288 98.0133 93.0288 98.4C93.4421 98.5067 93.7888 98.6933 94.0688 98.96C94.5088 99.3867 94.7288 99.92 94.7288 100.56C94.7288 101.36 94.4421 101.987 93.8688 102.44C93.3754 102.813 92.7221 103 91.9088 103H88.3288V94.7ZM89.7688 98.08H91.2888C91.6754 98.08 91.9821 98 92.2088 97.84C92.4754 97.64 92.6088 97.3533 92.6088 96.98C92.6088 96.6467 92.4754 96.38 92.2088 96.18C92.0088 96.0467 91.6221 95.98 91.0488 95.98H89.7688V98.08ZM89.7688 101.72H91.5488C92.1621 101.72 92.5954 101.627 92.8487 101.44C93.1688 101.2 93.3288 100.893 93.3288 100.52C93.3288 100.12 93.1888 99.8067 92.9088 99.58C92.6554 99.38 92.2221 99.28 91.6088 99.28H89.7688V101.72ZM103.943 102C103.116 102.827 102.069 103.24 100.803 103.24C99.5358 103.24 98.4825 102.827 97.6425 102C96.8158 101.173 96.4025 100.133 96.4025 98.88C96.4025 97.6133 96.8158 96.5667 97.6425 95.74C98.4825 94.9133 99.5358 94.5 100.803 94.5C102.069 94.5 103.116 94.9133 103.943 95.74C104.783 96.5667 105.203 97.6133 105.203 98.88C105.203 100.133 104.783 101.173 103.943 102ZM102.863 96.6C102.303 96.0533 101.616 95.78 100.803 95.78C99.9892 95.78 99.2958 96.06 98.7225 96.62C98.1625 97.1667 97.8825 97.92 97.8825 98.88C97.8825 99.84 98.1692 100.593 98.7425 101.14C99.3158 101.687 100.003 101.96 100.803 101.96C101.603 101.96 102.289 101.687 102.863 101.14C103.436 100.593 103.723 99.84 103.723 98.88C103.723 97.9067 103.436 97.1467 102.863 96.6ZM107.411 94.7H108.851V98.1L112.211 94.7H113.971L110.371 98.4L114.411 103H112.531L109.291 99.36L108.851 99.78V103H107.411V94.7Z" fill="#0B1530"/>
<rect x="29.5" y="118.5" width="279" height="39" rx="7.5" fill="white"/>
<rect x="29.5" y="118.5" width="279" height="39" rx="7.5" stroke="#B6B9C1"/>
<path d="M42.72 131.66H52.52V145H51.04V133.06H44.2V145H42.72V131.66ZM62.6222 144C61.7955 144.827 60.7489 145.24 59.4822 145.24C58.2155 145.24 57.1622 144.827 56.3222 144C55.4955 143.173 55.0822 142.133 55.0822 140.88C55.0822 139.613 55.4955 138.567 56.3222 137.74C57.1622 136.913 58.2155 136.5 59.4822 136.5C60.7489 136.5 61.7955 136.913 62.6222 137.74C63.4622 138.567 63.8822 139.613 63.8822 140.88C63.8822 142.133 63.4622 143.173 62.6222 144ZM61.5422 138.6C60.9822 138.053 60.2955 137.78 59.4822 137.78C58.6689 137.78 57.9755 138.06 57.4022 138.62C56.8422 139.167 56.5622 139.92 56.5622 140.88C56.5622 141.84 56.8489 142.593 57.4222 143.14C57.9955 143.687 58.6822 143.96 59.4822 143.96C60.2822 143.96 60.9689 143.687 61.5422 143.14C62.1155 142.593 62.4022 141.84 62.4022 140.88C62.4022 139.907 62.1155 139.147 61.5422 138.6ZM66.6905 136.7H72.5305V143.68H73.7705V147.2H72.4505V145H66.1305V147.2H64.8105V143.68C65.5038 143.667 66.0171 143.307 66.3505 142.6C66.5771 142.133 66.6905 141.4 66.6905 140.4V136.7ZM71.0905 143.68V138.02H68.1305V141.14C68.1305 142.247 67.7971 143.093 67.1305 143.68H71.0905ZM81.7897 137.3V139.02C81.1364 138.193 80.2697 137.78 79.1897 137.78C78.3764 137.78 77.683 138.06 77.1097 138.62C76.5364 139.167 76.2497 139.92 76.2497 140.88C76.2497 141.84 76.5364 142.593 77.1097 143.14C77.683 143.687 78.3697 143.96 79.1697 143.96C80.2364 143.96 81.1297 143.527 81.8497 142.66V144.38C81.063 144.953 80.183 145.24 79.2097 145.24C77.9164 145.24 76.8497 144.833 76.0097 144.02C75.183 143.193 74.7697 142.153 74.7697 140.9C74.7697 139.633 75.1897 138.587 76.0297 137.76C76.8697 136.92 77.9297 136.5 79.2097 136.5C80.1697 136.5 81.0297 136.767 81.7897 137.3ZM84.0592 136.7H85.4992V140.1L88.8592 136.7H90.6192L87.0192 140.4L91.0592 145H89.1792L85.9392 141.36L85.4992 141.78V145H84.0592V136.7ZM98.8567 137.88V136.7H100.297V145H98.8567V143.84C98.1367 144.773 97.1901 145.24 96.0167 145.24C94.8967 145.24 93.9434 144.853 93.1567 144.08C92.3701 143.307 91.9767 142.227 91.9767 140.84C91.9767 139.48 92.3634 138.42 93.1367 137.66C93.9234 136.887 94.8834 136.5 96.0167 136.5C97.2167 136.5 98.1634 136.96 98.8567 137.88ZM96.1767 137.78C95.4167 137.78 94.7701 138.053 94.2367 138.6C93.7167 139.133 93.4567 139.88 93.4567 140.84C93.4567 141.76 93.6967 142.513 94.1767 143.1C94.6701 143.673 95.3367 143.96 96.1767 143.96C97.0167 143.96 97.6834 143.66 98.1767 143.06C98.6834 142.46 98.9367 141.727 98.9367 140.86C98.9367 139.873 98.6567 139.113 98.0967 138.58C97.5367 138.047 96.8967 137.78 96.1767 137.78ZM104.104 138.82L103.104 138C103.424 137.533 103.777 137.187 104.164 136.96C104.684 136.653 105.291 136.5 105.984 136.5C106.824 136.5 107.477 136.693 107.944 137.08C108.424 137.493 108.664 138.02 108.664 138.66C108.664 139.433 108.351 140.013 107.724 140.4C108.124 140.493 108.444 140.673 108.684 140.94C109.071 141.353 109.264 141.86 109.264 142.46C109.264 143.353 108.904 144.067 108.184 144.6C107.597 145.027 106.811 145.24 105.824 145.24C104.944 145.24 104.204 145.007 103.604 144.54C103.151 144.207 102.784 143.733 102.504 143.12L103.744 142.6C103.891 142.973 104.137 143.287 104.484 143.54C104.857 143.82 105.311 143.96 105.844 143.96C106.471 143.96 106.937 143.853 107.244 143.64C107.631 143.387 107.824 143 107.824 142.48C107.824 142.053 107.657 141.733 107.324 141.52C107.044 141.333 106.591 141.24 105.964 141.24H105.124V139.92H105.824C106.331 139.92 106.691 139.847 106.904 139.7C107.197 139.513 107.344 139.26 107.344 138.94C107.344 138.567 107.224 138.28 106.984 138.08C106.757 137.88 106.404 137.78 105.924 137.78C105.511 137.78 105.131 137.887 104.784 138.1C104.491 138.287 104.264 138.527 104.104 138.82ZM111.462 136.7H112.902V140.1L116.262 136.7H118.022L114.422 140.4L118.462 145H116.582L113.342 141.36L112.902 141.78V145H111.462V136.7ZM126.259 137.88V136.7H127.699V145H126.259V143.84C125.539 144.773 124.592 145.24 123.419 145.24C122.299 145.24 121.346 144.853 120.559 144.08C119.772 143.307 119.379 142.227 119.379 140.84C119.379 139.48 119.766 138.42 120.539 137.66C121.326 136.887 122.286 136.5 123.419 136.5C124.619 136.5 125.566 136.96 126.259 137.88ZM123.579 137.78C122.819 137.78 122.172 138.053 121.639 138.6C121.119 139.133 120.859 139.88 120.859 140.84C120.859 141.76 121.099 142.513 121.579 143.1C122.072 143.673 122.739 143.96 123.579 143.96C124.419 143.96 125.086 143.66 125.579 143.06C126.086 142.46 126.339 141.727 126.339 140.86C126.339 139.873 126.059 139.113 125.499 138.58C124.939 138.047 124.299 137.78 123.579 137.78Z" fill="#B6B9C1"/>
<path d="M30.72 183.66H40.52V197H39.04V185.06H32.2V197H30.72V183.66ZM50.6222 196C49.7955 196.827 48.7489 197.24 47.4822 197.24C46.2155 197.24 45.1622 196.827 44.3222 196C43.4955 195.173 43.0822 194.133 43.0822 192.88C43.0822 191.613 43.4955 190.567 44.3222 189.74C45.1622 188.913 46.2155 188.5 47.4822 188.5C48.7489 188.5 49.7955 188.913 50.6222 189.74C51.4622 190.567 51.8822 191.613 51.8822 192.88C51.8822 194.133 51.4622 195.173 50.6222 196ZM49.5422 190.6C48.9822 190.053 48.2955 189.78 47.4822 189.78C46.6689 189.78 45.9755 190.06 45.4022 190.62C44.8422 191.167 44.5622 191.92 44.5622 192.88C44.5622 193.84 44.8489 194.593 45.4222 195.14C45.9955 195.687 46.6822 195.96 47.4822 195.96C48.2822 195.96 48.9689 195.687 49.5422 195.14C50.1155 194.593 50.4022 193.84 50.4022 192.88C50.4022 191.907 50.1155 191.147 49.5422 190.6ZM60.5905 189.3V191.02C59.9371 190.193 59.0705 189.78 57.9905 189.78C57.1771 189.78 56.4838 190.06 55.9105 190.62C55.3371 191.167 55.0505 191.92 55.0505 192.88C55.0505 193.84 55.3371 194.593 55.9105 195.14C56.4838 195.687 57.1705 195.96 57.9705 195.96C59.0371 195.96 59.9305 195.527 60.6505 194.66V196.38C59.8638 196.953 58.9838 197.24 58.0105 197.24C56.7171 197.24 55.6505 196.833 54.8105 196.02C53.9838 195.193 53.5705 194.153 53.5705 192.9C53.5705 191.633 53.9905 190.587 54.8305 189.76C55.6705 188.92 56.7305 188.5 58.0105 188.5C58.9705 188.5 59.8305 188.767 60.5905 189.3ZM69.14 188.7V197H67.7V190.02H64.74V193.76C64.74 194.84 64.5267 195.64 64.1 196.16C63.62 196.747 62.9533 197.04 62.1 197.04C61.9933 197.04 61.8467 197.027 61.66 197V195.68C61.7933 195.707 61.9 195.72 61.98 195.72C62.4467 195.72 62.7933 195.54 63.02 195.18C63.2067 194.887 63.3 194.413 63.3 193.76V188.7H69.14ZM78.0239 194.22L79.2239 194.88C78.9439 195.413 78.6039 195.86 78.2039 196.22C77.4439 196.9 76.5239 197.24 75.4439 197.24C74.3239 197.24 73.3572 196.88 72.5439 196.16C71.7439 195.427 71.3439 194.34 71.3439 192.9C71.3439 191.633 71.7039 190.587 72.4239 189.76C73.1572 188.92 74.1372 188.5 75.3639 188.5C76.7506 188.5 77.7972 189.007 78.5039 190.02C79.0639 190.82 79.3239 191.86 79.2839 193.14H72.8239C72.8372 193.98 73.0972 194.66 73.6039 195.18C74.1106 195.7 74.7306 195.96 75.4639 195.96C76.1172 195.96 76.6839 195.76 77.1639 195.36C77.5372 195.04 77.8239 194.66 78.0239 194.22ZM72.9239 191.94H77.8039C77.6839 191.287 77.3972 190.767 76.9439 190.38C76.5039 189.98 75.9772 189.78 75.3639 189.78C74.7639 189.78 74.2306 189.987 73.7639 190.4C73.3106 190.8 73.0306 191.313 72.9239 191.94ZM82.0928 188.7H87.9328V195.68H89.1728V199.2H87.8528V197H81.5328V199.2H80.2128V195.68C80.9061 195.667 81.4195 195.307 81.7528 194.6C81.9795 194.133 82.0928 193.4 82.0928 192.4V188.7ZM86.4928 195.68V190.02H83.5328V193.14C83.5328 194.247 83.1995 195.093 82.5328 195.68H86.4928ZM90.672 201.6L93.312 196.22L89.492 188.7H91.132L94.072 194.64L96.772 188.7H98.372L92.272 201.6H90.672ZM101.331 192.1H102.831C102.965 191.167 103.338 190.38 103.951 189.74C104.738 188.913 105.785 188.5 107.091 188.5C108.371 188.5 109.425 188.913 110.251 189.74C111.078 190.567 111.491 191.613 111.491 192.88C111.491 194.133 111.071 195.173 110.231 196C109.405 196.827 108.358 197.24 107.091 197.24C105.638 197.24 104.498 196.72 103.671 195.68C103.138 195.013 102.831 194.26 102.751 193.42H101.331V197H99.8913V188.7H101.331V192.1ZM107.091 189.78C106.291 189.78 105.611 190.06 105.051 190.62C104.505 191.167 104.231 191.92 104.231 192.88C104.231 193.853 104.511 194.613 105.071 195.16C105.631 195.693 106.305 195.96 107.091 195.96C107.891 195.96 108.578 195.687 109.151 195.14C109.725 194.593 110.011 193.84 110.011 192.88C110.011 191.92 109.725 191.167 109.151 190.62C108.591 190.06 107.905 189.78 107.091 189.78ZM113.7 197V188.7H115.14V195.68H118.34V188.7H119.78V195.68H122.98V188.7H124.42V195.68H125.78V199.2H124.46V197H113.7ZM127.294 188.7H128.734V194.18L134.414 188.06V197H132.974V191.46L127.294 197.58V188.7ZM137.137 188.7H138.577V194.18L144.257 188.06V197H142.817V191.46L137.137 197.58V188.7ZM137.857 185.12L139.057 184.66C139.297 185.46 139.864 185.86 140.757 185.86C141.651 185.86 142.217 185.46 142.457 184.66L143.657 185.12C143.444 185.72 143.077 186.193 142.557 186.54C142.051 186.887 141.451 187.06 140.757 187.06C140.064 187.06 139.457 186.887 138.937 186.54C138.431 186.193 138.071 185.72 137.857 185.12ZM157.089 190.02H154.489V197H153.049V190.02H150.449V188.7H157.089V190.02ZM164.567 194.22L165.767 194.88C165.487 195.413 165.147 195.86 164.747 196.22C163.987 196.9 163.067 197.24 161.987 197.24C160.867 197.24 159.9 196.88 159.087 196.16C158.287 195.427 157.887 194.34 157.887 192.9C157.887 191.633 158.247 190.587 158.967 189.76C159.7 188.92 160.68 188.5 161.907 188.5C163.294 188.5 164.34 189.007 165.047 190.02C165.607 190.82 165.867 191.86 165.827 193.14H159.367C159.38 193.98 159.64 194.66 160.147 195.18C160.654 195.7 161.274 195.96 162.007 195.96C162.66 195.96 163.227 195.76 163.707 195.36C164.08 195.04 164.367 194.66 164.567 194.22ZM159.467 191.94H164.347C164.227 191.287 163.94 190.767 163.487 190.38C163.047 189.98 162.52 189.78 161.907 189.78C161.307 189.78 160.774 189.987 160.307 190.4C159.854 190.8 159.574 191.313 159.467 191.94ZM168.036 188.7H169.476V192.1L172.836 188.7H174.596L170.996 192.4L175.036 197H173.156L169.916 193.36L169.476 193.78V197H168.036V188.7ZM182.544 189.3V191.02C181.89 190.193 181.024 189.78 179.944 189.78C179.13 189.78 178.437 190.06 177.864 190.62C177.29 191.167 177.004 191.92 177.004 192.88C177.004 193.84 177.29 194.593 177.864 195.14C178.437 195.687 179.124 195.96 179.924 195.96C180.99 195.96 181.884 195.527 182.604 194.66V196.38C181.817 196.953 180.937 197.24 179.964 197.24C178.67 197.24 177.604 196.833 176.764 196.02C175.937 195.193 175.524 194.153 175.524 192.9C175.524 191.633 175.944 190.587 176.784 189.76C177.624 188.92 178.684 188.5 179.964 188.5C180.924 188.5 181.784 188.767 182.544 189.3ZM190.253 190.02H187.653V197H186.213V190.02H183.613V188.7H190.253V190.02ZM191.381 196.9C191.181 196.7 191.081 196.467 191.081 196.2C191.081 195.933 191.181 195.7 191.381 195.5C191.581 195.3 191.814 195.2 192.081 195.2C192.347 195.2 192.581 195.3 192.781 195.5C192.981 195.7 193.081 195.933 193.081 196.2C193.081 196.467 192.981 196.7 192.781 196.9C192.581 197.1 192.347 197.2 192.081 197.2C191.814 197.2 191.581 197.1 191.381 196.9Z" fill="#CED0D6"/>
</svg>
