<svg width="416" height="210" viewBox="0 0 416 210" fill="none" xmlns="http://www.w3.org/2000/svg">
<rect y="0.599609" width="416" height="209.2" rx="24" fill="#F5F6F8"/>
<path d="M150.851 87.4844L150.851 68.6016" stroke="#33F7C3" stroke-width="2"/>
<path d="M168.407 69.5996H151" stroke="#33F7C3" stroke-width="2"/>
<rect x="141.75" y="41.35" width="35.9061" height="20.7027" rx="3.75176" fill="#33F7C3"/>
<rect x="141.75" y="41.35" width="35.9061" height="20.7027" rx="3.75176" stroke="#33F7C3" stroke-width="1.5007"/>
<path d="M152.169 56.3205C151.512 56.3205 150.928 56.214 150.416 56.0008C149.908 55.7848 149.508 55.4906 149.218 55.1183C148.928 54.7459 148.783 54.3239 148.783 53.8521C148.783 53.4883 148.866 53.1543 149.031 52.8502C149.198 52.5432 149.426 52.2888 149.713 52.087C150 51.8824 150.321 51.7516 150.676 51.6948V51.6351C150.21 51.5413 149.832 51.3154 149.542 50.9572C149.252 50.5963 149.107 50.177 149.107 49.6995C149.107 49.2476 149.24 48.8455 149.504 48.493C149.768 48.1377 150.131 47.8592 150.591 47.6574C151.054 47.4528 151.58 47.3504 152.169 47.3504C152.757 47.3504 153.281 47.4528 153.742 47.6574C154.205 47.862 154.569 48.142 154.833 48.4973C155.097 48.8497 155.231 49.2505 155.234 49.6995C155.231 50.1799 155.083 50.5991 154.791 50.9572C154.498 51.3154 154.123 51.5413 153.665 51.6351V51.6948C154.015 51.7516 154.331 51.8824 154.616 52.087C154.903 52.2888 155.13 52.5432 155.298 52.8502C155.468 53.1543 155.555 53.4883 155.558 53.8521C155.555 54.3239 155.409 54.7459 155.119 55.1183C154.829 55.4906 154.428 55.7848 153.917 56.0008C153.408 56.214 152.825 56.3205 152.169 56.3205ZM152.169 54.9648C152.461 54.9648 152.717 54.9122 152.936 54.8071C153.155 54.699 153.325 54.5513 153.448 54.3637C153.573 54.1732 153.635 53.9544 153.635 53.7071C153.635 53.4541 153.571 53.231 153.443 53.0378C153.315 52.8416 153.142 52.6882 152.923 52.5773C152.704 52.4636 152.453 52.4068 152.169 52.4068C151.887 52.4068 151.636 52.4636 151.414 52.5773C151.192 52.6882 151.017 52.8416 150.89 53.0378C150.764 53.231 150.702 53.4541 150.702 53.7071C150.702 53.9544 150.763 54.1732 150.885 54.3637C151.007 54.5513 151.179 54.699 151.401 54.8071C151.623 54.9122 151.879 54.9648 152.169 54.9648ZM152.169 51.0638C152.413 51.0638 152.63 51.0141 152.821 50.9146C153.011 50.8151 153.16 50.6773 153.268 50.5011C153.376 50.3248 153.43 50.1216 153.43 49.8914C153.43 49.664 153.376 49.4651 153.268 49.2945C153.16 49.1211 153.013 48.9861 152.825 48.8895C152.638 48.79 152.419 48.7403 152.169 48.7403C151.921 48.7403 151.702 48.79 151.512 48.8895C151.322 48.9861 151.172 49.1211 151.064 49.2945C150.959 49.4651 150.907 49.664 150.907 49.8914C150.907 50.1216 150.961 50.3248 151.069 50.5011C151.177 50.6773 151.326 50.8151 151.516 50.9146C151.707 51.0141 151.924 51.0638 152.169 51.0638ZM156.866 58.6569V49.6526H158.656V50.7526H158.737C158.817 50.5764 158.932 50.3973 159.083 50.2154C159.236 50.0307 159.435 49.8772 159.68 49.755C159.927 49.6299 160.234 49.5674 160.6 49.5674C161.078 49.5674 161.518 49.6924 161.922 49.9426C162.326 50.1898 162.648 50.5636 162.89 51.0638C163.131 51.5612 163.252 52.1851 163.252 52.9354C163.252 53.6659 163.134 54.2827 162.898 54.7857C162.665 55.286 162.347 55.6654 161.943 55.9241C161.543 56.1799 161.094 56.3078 160.596 56.3078C160.244 56.3078 159.944 56.2495 159.697 56.133C159.452 56.0164 159.252 55.8701 159.095 55.6938C158.939 55.5148 158.82 55.3343 158.737 55.1524H158.682V58.6569H156.866ZM158.644 52.9269C158.644 53.3163 158.698 53.6559 158.806 53.9459C158.914 54.2358 159.07 54.4617 159.274 54.6237C159.479 54.7829 159.728 54.8625 160.021 54.8625C160.316 54.8625 160.566 54.7815 160.771 54.6195C160.976 54.4546 161.13 54.2272 161.236 53.9373C161.344 53.6446 161.398 53.3078 161.398 52.9269C161.398 52.5489 161.345 52.2163 161.24 51.9293C161.135 51.6422 160.98 51.4177 160.775 51.2557C160.571 51.0937 160.319 51.0127 160.021 51.0127C159.725 51.0127 159.475 51.0908 159.27 51.2471C159.068 51.4035 158.914 51.6252 158.806 51.9122C158.698 52.1993 158.644 52.5375 158.644 52.9269ZM165.746 49.6526L166.949 51.9421L168.181 49.6526H170.044L168.147 52.9269L170.095 56.2012H168.24L166.949 53.9373L165.678 56.2012H163.802L165.746 52.9269L163.87 49.6526H165.746Z" fill="#0B1530"/>
<path d="M167.406 83.5996V68.5996" stroke="#33F7C3" stroke-width="2"/>
<path d="M133.251 104.508H109.997" stroke="#33F7C3" stroke-width="2"/>
<path d="M133.251 121.582H109.997" stroke="#33F7C3" stroke-width="2"/>
<path d="M111 103.6L111 121.91" stroke="#33F7C3" stroke-width="2"/>
<rect x="64.7504" y="101.524" width="35.9061" height="20.7027" rx="3.75176" fill="#33F7C3"/>
<rect x="64.7504" y="101.524" width="35.9061" height="20.7027" rx="3.75176" stroke="#33F7C3" stroke-width="1.5007"/>
<path d="M75.1685 116.494C74.512 116.494 73.9279 116.388 73.4163 116.175C72.9075 115.959 72.5082 115.664 72.2183 115.292C71.9284 114.92 71.7834 114.498 71.7834 114.026C71.7834 113.662 71.8659 113.328 72.0307 113.024C72.1984 112.717 72.4258 112.463 72.7128 112.261C72.9999 112.056 73.3211 111.925 73.6764 111.869V111.809C73.2102 111.715 72.8322 111.489 72.5423 111.131C72.2524 110.77 72.1074 110.351 72.1074 109.873C72.1074 109.421 72.2396 109.019 72.5039 108.667C72.7683 108.312 73.1307 108.033 73.5911 107.831C74.0544 107.627 74.5802 107.524 75.1685 107.524C75.7569 107.524 76.2813 107.627 76.7417 107.831C77.205 108.036 77.5688 108.316 77.8331 108.671C78.0975 109.024 78.2311 109.424 78.2339 109.873C78.2311 110.354 78.0833 110.773 77.7905 111.131C77.4978 111.489 77.1226 111.715 76.665 111.809V111.869C77.0146 111.925 77.3315 112.056 77.6157 112.261C77.9028 112.463 78.1302 112.717 78.2978 113.024C78.4684 113.328 78.5551 113.662 78.5579 114.026C78.5551 114.498 78.4087 114.92 78.1188 115.292C77.8289 115.664 77.4281 115.959 76.9165 116.175C76.4078 116.388 75.8251 116.494 75.1685 116.494ZM75.1685 115.139C75.4613 115.139 75.7171 115.086 75.9359 114.981C76.1548 114.873 76.3253 114.725 76.4475 114.537C76.5726 114.347 76.6351 114.128 76.6351 113.881C76.6351 113.628 76.5712 113.405 76.4433 113.212C76.3154 113.015 76.142 112.862 75.9232 112.751C75.7043 112.637 75.4528 112.581 75.1685 112.581C74.8872 112.581 74.6356 112.637 74.4139 112.751C74.1922 112.862 74.0174 113.015 73.8895 113.212C73.7645 113.405 73.7019 113.628 73.7019 113.881C73.7019 114.128 73.7631 114.347 73.8853 114.537C74.0075 114.725 74.1794 114.873 74.4011 114.981C74.6228 115.086 74.8786 115.139 75.1685 115.139ZM75.1685 111.238C75.413 111.238 75.6304 111.188 75.8208 111.088C76.0113 110.989 76.1605 110.851 76.2685 110.675C76.3765 110.499 76.4305 110.295 76.4305 110.065C76.4305 109.838 76.3765 109.639 76.2685 109.468C76.1605 109.295 76.0127 109.16 75.8251 109.063C75.6375 108.964 75.4187 108.914 75.1685 108.914C74.9213 108.914 74.7024 108.964 74.512 109.063C74.3216 109.16 74.1723 109.295 74.0643 109.468C73.9592 109.639 73.9066 109.838 73.9066 110.065C73.9066 110.295 73.9606 110.499 74.0686 110.675C74.1766 110.851 74.3258 110.989 74.5162 111.088C74.7067 111.188 74.9241 111.238 75.1685 111.238ZM79.8657 118.831V109.826H81.6563V110.926H81.7373C81.8169 110.75 81.932 110.571 82.0826 110.389C82.2361 110.204 82.4351 110.051 82.6795 109.929C82.9268 109.804 83.2338 109.741 83.6004 109.741C84.0779 109.741 84.5184 109.866 84.922 110.116C85.3256 110.364 85.6482 110.737 85.8898 111.238C86.1314 111.735 86.2522 112.359 86.2522 113.109C86.2522 113.84 86.1343 114.456 85.8984 114.96C85.6653 115.46 85.347 115.839 84.9434 116.098C84.5426 116.354 84.0935 116.482 83.5961 116.482C83.2437 116.482 82.9438 116.423 82.6966 116.307C82.4521 116.19 82.2518 116.044 82.0954 115.868C81.9391 115.689 81.8197 115.508 81.7373 115.326H81.6819V118.831H79.8657ZM81.6435 113.101C81.6435 113.49 81.6975 113.83 81.8055 114.12C81.9135 114.41 82.0699 114.636 82.2745 114.798C82.4791 114.957 82.7278 115.036 83.0206 115.036C83.3162 115.036 83.5663 114.955 83.7709 114.793C83.9756 114.628 84.1305 114.401 84.2356 114.111C84.3436 113.818 84.3977 113.482 84.3977 113.101C84.3977 112.723 84.3451 112.39 84.2399 112.103C84.1347 111.816 83.9798 111.592 83.7752 111.43C83.5706 111.267 83.319 111.186 83.0206 111.186C82.725 111.186 82.4749 111.265 82.2702 111.421C82.0684 111.577 81.9135 111.799 81.8055 112.086C81.6975 112.373 81.6435 112.711 81.6435 113.101ZM88.7463 109.826L89.9485 112.116L91.1807 109.826H93.0437L91.1466 113.101L93.0949 116.375H91.2403L89.9485 114.111L88.6781 116.375H86.8022L88.7463 113.101L86.8704 109.826H88.7463Z" fill="#0B1530"/>
<path d="M152 137.6L128 137.6" stroke="#33F7C3" stroke-width="2"/>
<rect x="118.75" y="148.35" width="42.9061" height="20.7027" rx="3.75176" fill="#33F7C3"/>
<rect x="118.75" y="148.35" width="42.9061" height="20.7027" rx="3.75176" stroke="#33F7C3" stroke-width="1.5007"/>
<path d="M125.911 163.201V161.871L129.019 158.993C129.284 158.737 129.505 158.507 129.684 158.303C129.866 158.098 130.004 157.898 130.098 157.701C130.192 157.502 130.239 157.288 130.239 157.058C130.239 156.802 130.18 156.582 130.064 156.397C129.947 156.209 129.788 156.066 129.586 155.966C129.385 155.864 129.156 155.813 128.9 155.813C128.633 155.813 128.4 155.867 128.201 155.975C128.002 156.083 127.848 156.238 127.74 156.439C127.632 156.641 127.578 156.881 127.578 157.16H125.826C125.826 156.589 125.955 156.093 126.214 155.672C126.473 155.251 126.835 154.926 127.301 154.696C127.767 154.466 128.304 154.35 128.913 154.35C129.538 154.35 130.082 154.461 130.546 154.683C131.012 154.902 131.374 155.206 131.633 155.595C131.891 155.985 132.021 156.431 132.021 156.934C132.021 157.264 131.955 157.589 131.825 157.91C131.697 158.232 131.468 158.588 131.138 158.98C130.809 159.37 130.344 159.837 129.744 160.383L128.469 161.632V161.692H132.136V163.201H125.911ZM133.154 161.666V160.213L136.799 154.47H138.052V156.482H137.31L135.013 160.119V160.187H140.193V161.666H133.154ZM137.345 163.201V161.223L137.379 160.579V154.47H139.11V163.201H137.345ZM141.44 165.657V156.653H143.23V157.753H143.311C143.391 157.576 143.506 157.397 143.657 157.215C143.81 157.031 144.009 156.877 144.253 156.755C144.501 156.63 144.808 156.567 145.174 156.567C145.652 156.567 146.092 156.692 146.496 156.943C146.9 157.19 147.222 157.564 147.464 158.064C147.705 158.561 147.826 159.185 147.826 159.935C147.826 160.666 147.708 161.283 147.472 161.786C147.239 162.286 146.921 162.665 146.517 162.924C146.116 163.18 145.667 163.308 145.17 163.308C144.818 163.308 144.518 163.249 144.27 163.133C144.026 163.016 143.826 162.87 143.669 162.694C143.513 162.515 143.394 162.334 143.311 162.152H143.256V165.657H141.44ZM143.217 159.927C143.217 160.316 143.271 160.656 143.379 160.946C143.487 161.236 143.644 161.462 143.848 161.624C144.053 161.783 144.302 161.862 144.594 161.862C144.89 161.862 145.14 161.781 145.345 161.619C145.549 161.455 145.704 161.227 145.81 160.937C145.918 160.645 145.972 160.308 145.972 159.927C145.972 159.549 145.919 159.216 145.814 158.929C145.709 158.642 145.554 158.418 145.349 158.256C145.144 158.094 144.893 158.013 144.594 158.013C144.299 158.013 144.049 158.091 143.844 158.247C143.642 158.403 143.487 158.625 143.379 158.912C143.271 159.199 143.217 159.538 143.217 159.927ZM150.32 156.653L151.522 158.942L152.755 156.653H154.618L152.72 159.927L154.669 163.201H152.814L151.522 160.937L150.252 163.201H148.376L150.32 159.927L148.444 156.653H150.32Z" fill="#0B1530"/>
<path d="M134 89.4746C134 88.439 134.839 87.5996 135.875 87.5996C136.911 87.5996 137.75 88.439 137.75 89.4746C137.75 90.5101 136.911 91.3496 135.875 91.3496C134.839 91.3496 134 90.5101 134 89.4746Z" fill="#0B1530"/>
<path fill-rule="evenodd" clip-rule="evenodd" d="M135.623 81.5996C132.96 81.5996 131.992 81.8702 131.018 82.3912C130.058 82.9044 129.305 83.6575 128.792 84.6171C128.271 85.5914 128 86.5598 128 89.2229V97.9763C128 100.639 128.271 101.608 128.792 102.582C129.305 103.542 130.058 104.295 131.018 104.808C131.992 105.329 132.96 105.6 135.623 105.6H144.377C147.04 105.6 148.008 105.329 148.982 104.808C149.942 104.295 150.695 103.542 151.208 102.582C151.729 101.608 152 100.639 152 97.9763V89.2229C152 86.5598 151.729 85.5914 151.208 84.6171C150.695 83.6575 149.942 82.9044 148.982 82.3912C148.008 81.8702 147.04 81.5996 144.377 81.5996H135.623ZM133.69 97.0065C134.109 96.5871 134.471 96.2254 134.793 95.9518C135.133 95.663 135.503 95.4069 135.957 95.2592C136.635 95.039 137.365 95.039 138.043 95.2592C138.497 95.4069 138.867 95.663 139.207 95.9518C139.447 96.1554 139.709 96.4078 140 96.6965L142.69 94.0065C143.109 93.5872 143.471 93.2254 143.793 92.9518C144.133 92.663 144.503 92.4069 144.957 92.2592C145.635 92.039 146.365 92.039 147.043 92.2592C147.497 92.4069 147.867 92.663 148.207 92.9518C148.529 93.2254 148.891 93.5872 149.31 94.0065L149.75 94.4461V89.2229C149.75 86.7328 149.497 86.1879 149.224 85.6782C148.921 85.1107 148.489 84.6788 147.921 84.3753C147.412 84.1027 146.867 83.8496 144.377 83.8496H135.623C133.133 83.8496 132.588 84.1027 132.079 84.3753C131.511 84.6788 131.079 85.1107 130.776 85.6782C130.503 86.1879 130.25 86.7328 130.25 89.2229V97.9763C130.25 99.0863 130.3 99.8098 130.38 100.316L133.69 97.0065ZM134 89.4746C134 90.5101 134.839 91.3496 135.875 91.3496C136.911 91.3496 137.75 90.5101 137.75 89.4746C137.75 88.439 136.911 87.5996 135.875 87.5996C134.839 87.5996 134 88.439 134 89.4746ZM146.348 94.3991C146.122 94.3257 145.878 94.3257 145.652 94.3991C145.593 94.4184 145.483 94.4686 145.249 94.667C145.005 94.874 144.709 95.1695 144.25 95.6282L140.795 99.0826C140.585 99.2936 140.298 99.4121 140 99.4121C139.702 99.4121 139.415 99.2936 139.205 99.0826L138.75 98.6282C138.291 98.1695 137.995 97.874 137.751 97.667C137.517 97.4686 137.407 97.4184 137.348 97.3991C137.122 97.3257 136.878 97.3257 136.652 97.3991C136.593 97.4184 136.483 97.4686 136.249 97.667C136.005 97.874 135.709 98.1695 135.25 98.6282L131.472 102.406C131.654 102.566 131.856 102.705 132.079 102.824C132.588 103.096 133.133 103.35 135.623 103.35H144.377C146.867 103.35 147.412 103.096 147.921 102.824C148.489 102.52 148.921 102.088 149.224 101.521C149.497 101.011 149.75 100.466 149.75 97.9763V97.6256C149.75 97.6256 148.413 96.2921 147.75 95.6282C147.291 95.1695 146.995 94.874 146.751 94.667C146.517 94.4686 146.407 94.4184 146.348 94.3991Z" fill="#0B1530"/>
<path d="M166.4 83.5896H169.43C170.79 83.5896 171.89 83.6996 172.73 83.9196C173.57 84.1396 174.31 84.5496 174.95 85.1496C176.01 86.1496 176.54 87.4696 176.54 89.1096C176.54 90.0496 176.34 90.8396 175.94 91.4796C175.58 92.0996 175.08 92.5596 174.44 92.8596C175.48 93.1196 176.34 93.5996 177.02 94.2996C177.9 95.2196 178.34 96.4696 178.34 98.0496C178.34 99.5096 177.9 100.71 177.02 101.65C175.78 102.95 173.91 103.6 171.41 103.6H166.4V83.5896ZM169.46 86.4696V92.1996H170.39C171.51 92.1996 172.34 91.9396 172.88 91.4196C173.4 90.9196 173.66 90.1596 173.66 89.1396C173.66 88.3196 173.42 87.6796 172.94 87.2196C172.42 86.7196 171.61 86.4696 170.51 86.4696H169.46ZM169.46 94.7196V100.72H171.32C172.7 100.72 173.71 100.46 174.35 99.9396C175.01 99.4196 175.34 98.6796 175.34 97.7196C175.34 96.8596 175.07 96.1596 174.53 95.6196C173.91 95.0196 172.86 94.7196 171.38 94.7196H169.46ZM181.651 103.6V90.9696H184.591V95.4396H186.271C186.811 95.4396 187.251 95.4596 187.591 95.4996C187.931 95.5196 188.341 95.6296 188.821 95.8296C189.301 96.0296 189.721 96.3296 190.081 96.7296C190.741 97.4696 191.071 98.3896 191.071 99.4896C191.071 100.75 190.691 101.76 189.931 102.52C189.591 102.86 189.181 103.12 188.701 103.3C188.241 103.46 187.851 103.55 187.531 103.57C187.231 103.59 186.801 103.6 186.241 103.6H181.651ZM184.591 101.08H185.941C186.661 101.08 187.171 100.99 187.471 100.81C187.911 100.49 188.131 100.06 188.131 99.5196C188.131 98.9596 187.921 98.5396 187.501 98.2596C187.181 98.0596 186.671 97.9596 185.971 97.9596H184.591V101.08ZM192.391 103.6V90.9696H195.331V103.6H192.391ZM208.593 82.2996H211.593C211.373 83.3396 210.913 84.2396 210.213 84.9996C209.513 85.7596 208.653 86.2796 207.633 86.5596L205.653 87.0996C205.133 87.2396 204.733 87.3596 204.453 87.4596C204.173 87.5596 203.823 87.7496 203.403 88.0296C203.003 88.2896 202.663 88.6096 202.383 88.9896C201.723 89.8696 201.373 91.0096 201.333 92.4096H201.363C202.243 91.2296 203.673 90.6396 205.653 90.6396C207.433 90.6396 208.903 91.2396 210.063 92.4396C211.283 93.6996 211.893 95.2996 211.893 97.2396C211.893 99.1996 211.243 100.82 209.943 102.1C208.663 103.36 207.063 103.99 205.143 103.99C203.223 103.99 201.683 103.43 200.523 102.31C199.883 101.71 199.393 100.97 199.053 100.09C198.713 99.2096 198.513 98.4896 198.453 97.9296C198.413 97.3496 198.393 96.6496 198.393 95.8296C198.393 91.9096 199.033 89.0196 200.313 87.1596C201.273 85.7396 202.533 84.8396 204.093 84.4596L206.193 83.9496C207.573 83.6096 208.373 83.0596 208.593 82.2996ZM202.413 100.27C203.093 100.99 204.003 101.35 205.143 101.35C206.283 101.35 207.193 100.99 207.873 100.27C208.553 99.5296 208.893 98.5496 208.893 97.3296C208.893 95.9896 208.523 94.9796 207.783 94.2996C207.063 93.6196 206.183 93.2796 205.143 93.2796C204.103 93.2796 203.213 93.6196 202.473 94.2996C201.753 94.9796 201.393 95.9896 201.393 97.3296C201.393 98.5496 201.733 99.5296 202.413 100.27ZM216.222 92.5296C217.522 91.2696 219.132 90.6396 221.052 90.6396C222.972 90.6396 224.572 91.2696 225.852 92.5296C227.152 93.7696 227.802 95.3596 227.802 97.2996C227.802 99.2196 227.152 100.82 225.852 102.1C224.572 103.36 222.972 103.99 221.052 103.99C219.132 103.99 217.522 103.36 216.222 102.1C214.942 100.82 214.302 99.2196 214.302 97.2996C214.302 95.3596 214.942 93.7696 216.222 92.5296ZM218.322 100.27C219.002 100.99 219.912 101.35 221.052 101.35C222.192 101.35 223.102 100.99 223.782 100.27C224.462 99.5296 224.802 98.5496 224.802 97.3296C224.802 95.9896 224.432 94.9796 223.692 94.2996C222.972 93.6196 222.092 93.2796 221.052 93.2796C220.012 93.2796 219.122 93.6196 218.382 94.2996C217.662 94.9796 217.302 95.9896 217.302 97.3296C217.302 98.5496 217.642 99.5296 218.322 100.27ZM233.81 102.13V110.47H230.87V90.9696H233.81V92.3496C234.77 91.2096 236.02 90.6396 237.56 90.6396C239.28 90.6396 240.73 91.2496 241.91 92.4696C243.11 93.6696 243.71 95.2496 243.71 97.2096C243.71 99.2296 243.09 100.87 241.85 102.13C240.61 103.37 239.19 103.99 237.59 103.99C236.09 103.99 234.83 103.37 233.81 102.13ZM237.2 93.2796C236.2 93.2796 235.35 93.6396 234.65 94.3596C233.97 95.0596 233.63 96.0596 233.63 97.3596C233.63 98.6196 233.97 99.5996 234.65 100.3C235.35 101 236.2 101.35 237.2 101.35C238.24 101.35 239.08 100.96 239.72 100.18C240.38 99.3996 240.71 98.4496 240.71 97.3296C240.71 96.1896 240.38 95.2296 239.72 94.4496C239.08 93.6696 238.24 93.2796 237.2 93.2796ZM252.34 103.6L255.4 89.8296L260.62 99.4596L265.84 89.8296L268.9 103.6H265.9L264.64 97.2696L260.62 104.56L256.6 97.2696L255.34 103.6H252.34ZM280.032 99.3396L282.492 100.72C281.932 101.72 281.222 102.49 280.362 103.03C279.382 103.67 278.142 103.99 276.642 103.99C274.882 103.99 273.462 103.45 272.382 102.37C271.142 101.13 270.522 99.5196 270.522 97.5396C270.522 95.4596 271.192 93.7296 272.532 92.3496C273.672 91.2096 275.082 90.6396 276.762 90.6396C278.402 90.6396 279.752 91.1896 280.812 92.2896C281.992 93.5096 282.582 95.2896 282.582 97.6296V97.9896H273.522C273.602 99.0496 273.962 99.8996 274.602 100.54C275.142 101.08 275.892 101.35 276.852 101.35C277.632 101.35 278.302 101.14 278.862 100.72C279.322 100.36 279.712 99.8996 280.032 99.3396ZM273.732 95.5896H279.582C279.462 94.8896 279.162 94.3196 278.682 93.8796C278.162 93.3996 277.502 93.1596 276.702 93.1596C275.862 93.1596 275.172 93.4296 274.632 93.9696C274.192 94.3696 273.892 94.9096 273.732 95.5896ZM295.435 91.5396V94.8396C294.375 93.7996 293.185 93.2796 291.865 93.2796C290.745 93.2796 289.815 93.6496 289.075 94.3896C288.355 95.1096 287.995 96.0796 287.995 97.2996C287.995 98.5596 288.375 99.5696 289.135 100.33C289.855 101.01 290.745 101.35 291.805 101.35C293.265 101.35 294.475 100.81 295.435 99.7296V103C294.375 103.66 293.095 103.99 291.595 103.99C289.575 103.99 287.975 103.37 286.795 102.13C285.595 100.89 284.995 99.3096 284.995 97.3896C284.995 95.4096 285.635 93.7796 286.915 92.4996C288.155 91.2596 289.845 90.6396 291.985 90.6396C293.205 90.6396 294.355 90.9396 295.435 91.5396ZM307.246 93.6696H303.556V103.6H300.616V93.6696H296.926V90.9696H307.246V93.6696ZM318.274 92.4396V90.9696H321.214V103.6H318.274V102.28C317.294 103.42 316.034 103.99 314.494 103.99C312.634 103.99 311.144 103.33 310.024 102.01C308.924 100.69 308.374 99.1096 308.374 97.2696C308.374 95.2696 308.964 93.6696 310.144 92.4696C311.344 91.2496 312.804 90.6396 314.524 90.6396C316.104 90.6396 317.354 91.2396 318.274 92.4396ZM314.884 93.2796C313.844 93.2796 312.994 93.6696 312.334 94.4496C311.694 95.2296 311.374 96.1896 311.374 97.3296C311.374 98.4496 311.694 99.3996 312.334 100.18C312.994 100.96 313.844 101.35 314.884 101.35C315.884 101.35 316.724 101 317.404 100.3C318.104 99.5996 318.454 98.6196 318.454 97.3596C318.454 96.0596 318.104 95.0596 317.404 94.3596C316.724 93.6396 315.884 93.2796 314.884 93.2796Z" fill="#0B1530"/>
<path d="M125 123.6H324" stroke="#457BF8" stroke-width="6" stroke-linecap="round"/>
<path d="M129 138.596L129 126.6" stroke="#33F7C3" stroke-width="2"/>
<path d="M150.996 138.596L150.996 126.6" stroke="#33F7C3" stroke-width="2"/>
</svg>
