<svg width="1032" height="415" viewBox="0 0 1032 415" fill="none" xmlns="http://www.w3.org/2000/svg">
<rect y="0.699219" width="1032" height="413.62" rx="24" fill="#F5F6F8"/>
<path d="M43.892 58.0232H58.004V72.9472H60.244V80.8992H55.876V76.6992H44.508V80.8992H40.14V72.9472C40.9613 72.8166 41.6707 72.4432 42.268 71.8272C42.9213 71.1552 43.3507 70.3432 43.556 69.3912C43.78 68.4206 43.892 67.1886 43.892 65.6952V58.0232ZM48.596 61.7752V66.1712C48.596 67.7206 48.4467 69.0272 48.148 70.0912C47.8307 71.2112 47.2893 72.1632 46.524 72.9472H53.132V61.7752H48.596ZM75.6206 70.7912V71.2672H66.2966C66.2966 72.1446 66.5579 72.8446 67.0806 73.3672C67.4913 73.7779 68.1073 73.9832 68.9286 73.9832C69.4886 73.9832 69.9739 73.8712 70.3846 73.6472C70.7393 73.4419 71.0006 73.1619 71.1686 72.8072H75.4526C75.1726 73.8152 74.6686 74.6739 73.9406 75.3832C72.7459 76.5406 71.0473 77.1192 68.8446 77.1192C66.6606 77.1192 64.9339 76.4846 63.6646 75.2152C62.4326 73.9832 61.8166 72.4059 61.8166 70.4832C61.8166 68.4672 62.4419 66.8526 63.6926 65.6392C64.9433 64.4259 66.6513 63.8192 68.8166 63.8192C70.8139 63.8192 72.4193 64.3886 73.6326 65.5272C74.9579 66.7966 75.6206 68.5512 75.6206 70.7912ZM66.4366 68.6912H71.5046C71.3739 68.1499 71.1313 67.7019 70.7766 67.3472C70.3286 66.8992 69.7126 66.6752 68.9286 66.6752C68.1633 66.6752 67.5566 66.8992 67.1086 67.3472C66.7353 67.7579 66.5113 68.2059 66.4366 68.6912ZM87.672 72.6672V76.4192C86.72 76.8859 85.684 77.1192 84.564 77.1192C82.5853 77.1192 80.9426 76.4846 79.636 75.2152C78.348 73.9646 77.704 72.4059 77.704 70.5392C77.704 68.6166 78.376 67.0019 79.72 65.6952C81.0453 64.4259 82.7253 63.7912 84.76 63.7912C85.768 63.7912 86.7386 64.0246 87.672 64.4912V68.2432C86.9066 67.7019 86.132 67.4312 85.348 67.4312C84.4706 67.4312 83.7426 67.7206 83.164 68.2992C82.5853 68.8779 82.296 69.5966 82.296 70.4552C82.296 71.2766 82.5573 71.9766 83.08 72.5552C83.6773 73.1899 84.4426 73.5072 85.376 73.5072C86.2533 73.5072 87.0186 73.2272 87.672 72.6672ZM90.2119 76.6992V64.1832H94.6919V69.3072L98.4719 64.1832H104.1L98.9199 70.0632L104.576 76.6992H98.7799L94.6919 71.1552V76.6992H90.2119ZM108.141 76.6992V67.8512H104.893V64.1832H115.869V67.8512H112.621V76.6992H108.141ZM124.72 67.5712C123.955 67.5712 123.283 67.8419 122.704 68.3832C122.126 68.9246 121.836 69.6059 121.836 70.4272C121.836 71.1739 122.126 71.8366 122.704 72.4152C123.264 72.9752 123.936 73.2552 124.72 73.2552C125.486 73.2552 126.148 72.9752 126.708 72.4152C127.287 71.8739 127.576 71.2112 127.576 70.4272C127.576 69.6432 127.287 68.9619 126.708 68.3832C126.13 67.8419 125.467 67.5712 124.72 67.5712ZM130.292 65.8352C131.58 67.0859 132.224 68.6166 132.224 70.4272C132.224 72.2379 131.58 73.7779 130.292 75.0472C128.892 76.4286 127.026 77.1192 124.692 77.1192C122.378 77.1192 120.52 76.4286 119.12 75.0472C117.832 73.7779 117.188 72.2379 117.188 70.4272C117.188 68.6166 117.832 67.0859 119.12 65.8352C120.539 64.4539 122.396 63.7632 124.692 63.7632C126.97 63.7632 128.836 64.4539 130.292 65.8352ZM134.81 76.6992V64.1832H147.774V76.6992H143.294V67.7112H139.29V76.6992H134.81ZM150.86 76.6992V64.1832H155.34V68.4112H159.512V64.1832H163.992V76.6992H159.512V71.9392H155.34V76.6992H150.86ZM176.763 65.3872V64.1832H181.243V76.6992H176.763V75.3272C175.904 76.5219 174.607 77.1192 172.871 77.1192C171.116 77.1192 169.614 76.4566 168.363 75.1312C167.168 73.8619 166.571 72.3312 166.571 70.5392C166.571 68.4859 167.215 66.8152 168.503 65.5272C169.679 64.3512 171.182 63.7632 173.011 63.7632C174.542 63.7632 175.792 64.3046 176.763 65.3872ZM174.019 67.5712C173.272 67.5712 172.619 67.8419 172.059 68.3832C171.462 68.9619 171.163 69.6432 171.163 70.4272C171.163 71.2486 171.452 71.9299 172.031 72.4712C172.628 73.0312 173.3 73.3112 174.047 73.3112C174.812 73.3112 175.484 73.0219 176.063 72.4432C176.623 71.8832 176.903 71.2112 176.903 70.4272C176.903 69.6246 176.614 68.9432 176.035 68.3832C175.456 67.8419 174.784 67.5712 174.019 67.5712ZM183.573 76.6992L187.045 72.3312C186.186 72.1632 185.458 71.7992 184.861 71.2392C184.208 70.5859 183.881 69.6899 183.881 68.5512C183.881 67.3006 184.254 66.2832 185.001 65.4992C185.822 64.6219 187.241 64.1832 189.257 64.1832H195.865V76.6992H191.385V72.7232H191.021L188.277 76.6992H183.573ZM191.385 69.9792V67.0952H190.041C189.388 67.0952 188.921 67.2259 188.641 67.4872C188.38 67.7486 188.249 68.1032 188.249 68.5512C188.249 69.0179 188.389 69.3726 188.669 69.6152C188.968 69.8579 189.406 69.9792 189.985 69.9792H191.385ZM205.493 64.1832H213.165C214.658 64.1832 215.722 64.4819 216.357 65.0792C216.936 65.6206 217.225 66.3486 217.225 67.2632C217.225 67.9912 217.048 68.6166 216.693 69.1392C216.394 69.5686 215.937 69.9139 215.321 70.1752V70.2312C216.049 70.3806 216.646 70.6699 217.113 71.0992C217.71 71.6406 218.009 72.3592 218.009 73.2552C218.009 74.2632 217.71 75.0659 217.113 75.6632C216.422 76.3539 215.405 76.6992 214.061 76.6992H205.493V64.1832ZM209.973 69.1672H211.653C212.194 69.1672 212.577 69.0739 212.801 68.8872C213.025 68.6819 213.137 68.3832 213.137 67.9912C213.137 67.6366 213.034 67.3752 212.829 67.2072C212.605 67.0019 212.204 66.8992 211.625 66.8992H209.973V69.1672ZM209.973 73.9832H211.961C212.428 73.9832 212.792 73.8619 213.053 73.6192C213.296 73.3766 213.417 73.0779 213.417 72.7232C213.417 72.3312 213.305 72.0232 213.081 71.7992C212.876 71.5939 212.502 71.4912 211.961 71.4912H209.973V73.9832ZM233.585 70.7912V71.2672H224.261C224.261 72.1446 224.523 72.8446 225.045 73.3672C225.456 73.7779 226.072 73.9832 226.893 73.9832C227.453 73.9832 227.939 73.8712 228.349 73.6472C228.704 73.4419 228.965 73.1619 229.133 72.8072H233.417C233.137 73.8152 232.633 74.6739 231.905 75.3832C230.711 76.5406 229.012 77.1192 226.809 77.1192C224.625 77.1192 222.899 76.4846 221.629 75.2152C220.397 73.9832 219.781 72.4059 219.781 70.4832C219.781 68.4672 220.407 66.8526 221.657 65.6392C222.908 64.4259 224.616 63.8192 226.781 63.8192C228.779 63.8192 230.384 64.3886 231.597 65.5272C232.923 66.7966 233.585 68.5512 233.585 70.7912ZM224.401 68.6912H229.469C229.339 68.1499 229.096 67.7019 228.741 67.3472C228.293 66.8992 227.677 66.6752 226.893 66.6752C226.128 66.6752 225.521 66.8992 225.073 67.3472C224.7 67.7579 224.476 68.2059 224.401 68.6912ZM240.653 75.4952V83.1112H236.173V64.1832H240.653V65.5552C241.605 64.3606 242.883 63.7632 244.489 63.7632C246.243 63.7632 247.727 64.3699 248.941 65.5832C250.21 66.8526 250.845 68.4672 250.845 70.4272C250.845 72.4246 250.173 74.0766 248.829 75.3832C247.653 76.5406 246.225 77.1192 244.545 77.1192C242.995 77.1192 241.698 76.5779 240.653 75.4952ZM243.397 67.5712C242.613 67.5712 241.941 67.8512 241.381 68.4112C240.802 68.9899 240.513 69.6806 240.513 70.4832C240.513 71.2299 240.802 71.8926 241.381 72.4712C241.941 73.0312 242.613 73.3112 243.397 73.3112C244.199 73.3112 244.862 73.0312 245.385 72.4712C245.963 71.8926 246.253 71.2299 246.253 70.4832C246.253 69.6806 245.963 68.9899 245.385 68.4112C244.862 67.8512 244.199 67.5712 243.397 67.5712ZM262.891 72.6672V76.4192C261.939 76.8859 260.903 77.1192 259.783 77.1192C257.804 77.1192 256.161 76.4846 254.855 75.2152C253.567 73.9646 252.923 72.4059 252.923 70.5392C252.923 68.6166 253.595 67.0019 254.939 65.6952C256.264 64.4259 257.944 63.7912 259.979 63.7912C260.987 63.7912 261.957 64.0246 262.891 64.4912V68.2432C262.125 67.7019 261.351 67.4312 260.567 67.4312C259.689 67.4312 258.961 67.7206 258.383 68.2992C257.804 68.8779 257.515 69.5966 257.515 70.4552C257.515 71.2766 257.776 71.9766 258.299 72.5552C258.896 73.1899 259.661 73.5072 260.595 73.5072C261.472 73.5072 262.237 73.2272 262.891 72.6672ZM265.431 64.1832H269.911V70.6232L274.867 64.1832H278.759V76.6992H274.279V70.0912L269.379 76.6992H265.431V64.1832ZM281.081 76.6992L284.553 72.3312C283.694 72.1632 282.966 71.7992 282.369 71.2392C281.716 70.5859 281.389 69.6899 281.389 68.5512C281.389 67.3006 281.762 66.2832 282.509 65.4992C283.33 64.6219 284.749 64.1832 286.765 64.1832H293.373V76.6992H288.893V72.7232H288.529L285.785 76.6992H281.081ZM288.893 69.9792V67.0952H287.549C286.896 67.0952 286.429 67.2259 286.149 67.4872C285.888 67.7486 285.757 68.1032 285.757 68.5512C285.757 69.0179 285.897 69.3726 286.177 69.6152C286.476 69.8579 286.914 69.9792 287.493 69.9792H288.893ZM308.013 76.6992V62.1392H305.353V58.0232H312.857V76.6992H308.013ZM325.7 62.5312C325.271 62.1392 324.776 61.9432 324.216 61.9432C323.656 61.9432 323.162 62.1392 322.732 62.5312C322.247 62.9419 321.855 63.6326 321.556 64.6032C321.258 65.5552 321.108 66.4886 321.108 67.4032C321.108 68.2432 321.248 69.1579 321.528 70.1472C321.827 71.1179 322.228 71.8272 322.732 72.2752C323.162 72.6672 323.656 72.8632 324.216 72.8632C324.776 72.8632 325.271 72.6672 325.7 72.2752C326.186 71.8459 326.578 71.1552 326.876 70.2032C327.175 69.2326 327.324 68.3086 327.324 67.4312C327.324 66.5539 327.166 65.6206 326.848 64.6312C326.55 63.6419 326.167 62.9419 325.7 62.5312ZM332.14 67.3752C332.14 70.6419 331.216 73.1806 329.368 74.9912C327.931 76.4099 326.214 77.1192 324.216 77.1192C322.219 77.1192 320.502 76.4099 319.064 74.9912C317.216 73.1806 316.292 70.6419 316.292 67.3752C316.292 64.0899 317.216 61.5419 319.064 59.7312C320.502 58.3126 322.219 57.6032 324.216 57.6032C326.214 57.6032 327.931 58.3126 329.368 59.7312C331.216 61.5419 332.14 64.0899 332.14 67.3752ZM348.313 72.5832V76.6992H333.333L338.065 71.7432C339.764 69.9699 341.043 68.3926 341.901 67.0112C342.573 65.9659 342.909 64.9952 342.909 64.0992C342.909 63.3152 342.723 62.7179 342.349 62.3072C342.013 61.9339 341.556 61.7472 340.977 61.7472C340.287 61.7472 339.745 61.9992 339.353 62.5032C338.943 63.0259 338.719 63.7912 338.681 64.7992H333.669C333.688 62.7086 334.379 60.9819 335.741 59.6192C337.085 58.2752 338.849 57.6032 341.033 57.6032C343.255 57.6032 345.009 58.2472 346.297 59.5352C347.511 60.7486 348.117 62.2792 348.117 64.1272C348.117 66.1059 347.193 67.9539 345.345 69.6712L342.209 72.5832H348.313ZM363.227 58.0232V69.4472H365.495V73.1712H363.227V76.6992H358.747V73.1712H349.703V70.0632L356.899 58.0232H363.227ZM354.351 69.4472H358.747V61.8312L354.351 69.4472Z" fill="#0B1530"/>
<path d="M42.78 105.699H41.26L43.48 91.6192L48.6 102.879L53.82 91.5992L55.9 105.699H54.38L53.12 96.4192L48.58 106.259L44.1 96.4192L42.78 105.699ZM65.6456 104.699C64.819 105.526 63.7723 105.939 62.5056 105.939C61.239 105.939 60.1856 105.526 59.3456 104.699C58.519 103.873 58.1056 102.833 58.1056 101.579C58.1056 100.313 58.519 99.2659 59.3456 98.4392C60.1856 97.6126 61.239 97.1992 62.5056 97.1992C63.7723 97.1992 64.819 97.6126 65.6456 98.4392C66.4856 99.2659 66.9056 100.313 66.9056 101.579C66.9056 102.833 66.4856 103.873 65.6456 104.699ZM64.5656 99.2992C64.0056 98.7526 63.319 98.4792 62.5056 98.4792C61.6923 98.4792 60.999 98.7592 60.4256 99.3192C59.8656 99.8659 59.5856 100.619 59.5856 101.579C59.5856 102.539 59.8723 103.293 60.4456 103.839C61.019 104.386 61.7056 104.659 62.5056 104.659C63.3056 104.659 63.9923 104.386 64.5656 103.839C65.139 103.293 65.4256 102.539 65.4256 101.579C65.4256 100.606 65.139 99.8459 64.5656 99.2992ZM69.1139 105.699V97.3992H70.5539V100.799H74.4739V97.3992H75.9139V105.699H74.4739V102.119H70.5539V105.699H69.1139ZM78.6256 97.3992H80.0656V102.879L85.7456 96.7592V105.699H84.3056V100.159L78.6256 106.279V97.3992ZM93.9094 98.7192H91.3094V105.699H89.8694V98.7192H87.2694V97.3992H93.9094V98.7192ZM102.247 104.699C101.421 105.526 100.374 105.939 99.1072 105.939C97.8405 105.939 96.7872 105.526 95.9472 104.699C95.1205 103.873 94.7072 102.833 94.7072 101.579C94.7072 100.313 95.1205 99.2659 95.9472 98.4392C96.7872 97.6126 97.8405 97.1992 99.1072 97.1992C100.374 97.1992 101.421 97.6126 102.247 98.4392C103.087 99.2659 103.507 100.313 103.507 101.579C103.507 102.833 103.087 103.873 102.247 104.699ZM101.167 99.2992C100.607 98.7526 99.9205 98.4792 99.1072 98.4792C98.2939 98.4792 97.6005 98.7592 97.0272 99.3192C96.4672 99.8659 96.1872 100.619 96.1872 101.579C96.1872 102.539 96.4739 103.293 97.0472 103.839C97.6205 104.386 98.3072 104.659 99.1072 104.659C99.9072 104.659 100.594 104.386 101.167 103.839C101.741 103.293 102.027 102.539 102.027 101.579C102.027 100.606 101.741 99.8459 101.167 99.2992ZM107.155 104.539V110.299H105.715V97.3992H107.155V98.5592C107.889 97.6526 108.835 97.1992 109.995 97.1992C111.235 97.1992 112.215 97.6392 112.935 98.5192C113.669 99.3859 114.035 100.413 114.035 101.599C114.035 102.799 113.675 103.826 112.955 104.679C112.235 105.519 111.269 105.939 110.055 105.939C108.842 105.939 107.875 105.473 107.155 104.539ZM109.855 104.659C110.669 104.659 111.322 104.366 111.815 103.779C112.309 103.179 112.555 102.453 112.555 101.599C112.555 100.639 112.282 99.8792 111.735 99.3192C111.189 98.7592 110.555 98.4792 109.835 98.4792C109.115 98.4792 108.475 98.7592 107.915 99.3192C107.355 99.8792 107.075 100.633 107.075 101.579C107.075 102.446 107.329 103.179 107.835 103.779C108.355 104.366 109.029 104.659 109.855 104.659ZM116.243 105.699V97.3992H117.683V100.579H119.163C120.309 100.579 121.149 100.853 121.683 101.399C122.109 101.826 122.323 102.406 122.323 103.139C122.323 103.913 122.076 104.533 121.583 104.999C121.089 105.466 120.276 105.699 119.143 105.699H116.243ZM117.683 104.419H119.023C119.623 104.419 120.049 104.346 120.303 104.199C120.663 103.959 120.843 103.606 120.843 103.139C120.843 102.659 120.669 102.313 120.323 102.099C120.083 101.939 119.656 101.859 119.043 101.859H117.683V104.419ZM123.323 105.699V97.3992H124.763V105.699H123.323ZM126.593 108.359L128.233 103.739L129.553 104.219L127.533 108.739L126.593 108.359ZM137.63 105.699V97.3992H139.07V100.799H142.99V97.3992H144.43V105.699H142.99V102.119H139.07V105.699H137.63ZM154.161 104.699C153.335 105.526 152.288 105.939 151.021 105.939C149.755 105.939 148.701 105.526 147.861 104.699C147.035 103.873 146.621 102.833 146.621 101.579C146.621 100.313 147.035 99.2659 147.861 98.4392C148.701 97.6126 149.755 97.1992 151.021 97.1992C152.288 97.1992 153.335 97.6126 154.161 98.4392C155.001 99.2659 155.421 100.313 155.421 101.579C155.421 102.833 155.001 103.873 154.161 104.699ZM153.081 99.2992C152.521 98.7526 151.835 98.4792 151.021 98.4792C150.208 98.4792 149.515 98.7592 148.941 99.3192C148.381 99.8659 148.101 100.619 148.101 101.579C148.101 102.539 148.388 103.293 148.961 103.839C149.535 104.386 150.221 104.659 151.021 104.659C151.821 104.659 152.508 104.386 153.081 103.839C153.655 103.293 153.941 102.539 153.941 101.579C153.941 100.606 153.655 99.8459 153.081 99.2992ZM157.61 110.299L160.25 104.919L156.43 97.3992H158.07L161.01 103.339L163.71 97.3992H165.31L159.21 110.299H157.61ZM172.698 98.7192H170.098V105.699H168.658V98.7192H166.058V97.3992H172.698V98.7192ZM180.612 91.6992H182.212C182.065 92.1926 181.812 92.6126 181.452 92.9592C181.105 93.2926 180.785 93.5192 180.492 93.6392C180.212 93.7592 179.878 93.8659 179.492 93.9592C179.425 93.9726 179.265 94.0126 179.012 94.0792C178.758 94.1326 178.565 94.1792 178.432 94.2192C178.298 94.2592 178.125 94.3126 177.912 94.3792C177.698 94.4459 177.505 94.5259 177.332 94.6192C177.158 94.7126 176.998 94.8126 176.852 94.9192C176.345 95.3059 175.932 95.8459 175.612 96.5392C175.305 97.2192 175.138 97.9459 175.112 98.7192H175.152C175.752 97.7059 176.758 97.1992 178.172 97.1992C179.412 97.1992 180.438 97.6192 181.252 98.4592C182.078 99.2992 182.492 100.339 182.492 101.579C182.492 102.833 182.072 103.873 181.232 104.699C180.392 105.526 179.298 105.939 177.952 105.939C176.792 105.939 175.838 105.593 175.092 104.899C174.158 104.046 173.692 102.619 173.692 100.619C173.692 97.1392 174.478 94.8592 176.052 93.7792C176.172 93.6992 176.298 93.6259 176.432 93.5592C176.565 93.4792 176.705 93.4126 176.852 93.3592C177.012 93.2926 177.145 93.2392 177.252 93.1992C177.358 93.1459 177.505 93.0992 177.692 93.0592C177.892 93.0059 178.025 92.9726 178.092 92.9592C178.172 92.9326 178.318 92.8992 178.532 92.8592C178.758 92.8059 178.898 92.7726 178.952 92.7592C179.485 92.6392 179.872 92.4992 180.112 92.3392C180.352 92.1659 180.518 91.9526 180.612 91.6992ZM180.152 99.2992C179.592 98.7526 178.905 98.4792 178.092 98.4792C177.278 98.4792 176.585 98.7592 176.012 99.3192C175.452 99.8659 175.172 100.619 175.172 101.579C175.172 102.539 175.458 103.293 176.032 103.839C176.605 104.386 177.292 104.659 178.092 104.659C178.892 104.659 179.578 104.386 180.152 103.839C180.725 103.293 181.012 102.539 181.012 101.579C181.012 100.606 180.725 99.8459 180.152 99.2992ZM184.68 110.299L187.32 104.919L183.5 97.3992H185.14L188.08 103.339L190.78 97.3992H192.38L186.28 110.299H184.68ZM193.899 97.3992H195.339V100.799L198.699 97.3992H200.459L196.859 101.099L200.899 105.699H199.019L195.779 102.059L195.339 102.479V105.699H193.899V97.3992ZM202.337 97.3992H203.777V102.879L209.457 96.7592V105.699H208.017V100.159L202.337 106.279V97.3992Z" fill="#0B1530"/>
<path d="M41.72 128.359H44.14C45.66 128.359 46.78 128.673 47.5 129.299C48.3133 129.993 48.72 130.946 48.72 132.159C48.72 133.199 48.3667 134.086 47.66 134.819C46.9667 135.539 45.9133 135.899 44.5 135.899H43.2V141.699H41.72V128.359ZM43.2 129.759V134.499H44.42C45.3 134.499 45.9867 134.286 46.48 133.859C46.9867 133.433 47.24 132.839 47.24 132.079C47.24 130.533 46.26 129.759 44.3 129.759H43.2ZM56.4505 134.579V133.399H57.8905V141.699H56.4505V140.539C55.7305 141.473 54.7838 141.939 53.6105 141.939C52.4905 141.939 51.5371 141.553 50.7505 140.779C49.9638 140.006 49.5705 138.926 49.5705 137.539C49.5705 136.179 49.9571 135.119 50.7305 134.359C51.5171 133.586 52.4771 133.199 53.6105 133.199C54.8105 133.199 55.7571 133.659 56.4505 134.579ZM53.7705 134.479C53.0105 134.479 52.3638 134.753 51.8305 135.299C51.3105 135.833 51.0505 136.579 51.0505 137.539C51.0505 138.459 51.2905 139.213 51.7705 139.799C52.2638 140.373 52.9305 140.659 53.7705 140.659C54.6105 140.659 55.2771 140.359 55.7705 139.759C56.2771 139.159 56.5305 138.426 56.5305 137.559C56.5305 136.573 56.2505 135.813 55.6905 135.279C55.1305 134.746 54.4905 134.479 53.7705 134.479ZM61.6978 135.519L60.6978 134.699C61.0178 134.233 61.3711 133.886 61.7578 133.659C62.2778 133.353 62.8845 133.199 63.5778 133.199C64.4178 133.199 65.0711 133.393 65.5378 133.779C66.0178 134.193 66.2578 134.719 66.2578 135.359C66.2578 136.133 65.9445 136.713 65.3178 137.099C65.7178 137.193 66.0378 137.373 66.2778 137.639C66.6645 138.053 66.8578 138.559 66.8578 139.159C66.8578 140.053 66.4978 140.766 65.7778 141.299C65.1911 141.726 64.4045 141.939 63.4178 141.939C62.5378 141.939 61.7978 141.706 61.1978 141.239C60.7445 140.906 60.3778 140.433 60.0978 139.819L61.3378 139.299C61.4845 139.673 61.7311 139.986 62.0778 140.239C62.4511 140.519 62.9045 140.659 63.4378 140.659C64.0645 140.659 64.5311 140.553 64.8378 140.339C65.2245 140.086 65.4178 139.699 65.4178 139.179C65.4178 138.753 65.2511 138.433 64.9178 138.219C64.6378 138.033 64.1845 137.939 63.5578 137.939H62.7178V136.619H63.4178C63.9245 136.619 64.2845 136.546 64.4978 136.399C64.7911 136.213 64.9378 135.959 64.9378 135.639C64.9378 135.266 64.8178 134.979 64.5778 134.779C64.3511 134.579 63.9978 134.479 63.5178 134.479C63.1045 134.479 62.7245 134.586 62.3778 134.799C62.0845 134.986 61.8578 135.226 61.6978 135.519ZM70.4953 140.539V146.299H69.0553V133.399H70.4953V134.559C71.2286 133.653 72.1753 133.199 73.3353 133.199C74.5753 133.199 75.5553 133.639 76.2753 134.519C77.0086 135.386 77.3753 136.413 77.3753 137.599C77.3753 138.799 77.0153 139.826 76.2953 140.679C75.5753 141.519 74.6086 141.939 73.3953 141.939C72.182 141.939 71.2153 141.473 70.4953 140.539ZM73.1953 140.659C74.0086 140.659 74.662 140.366 75.1553 139.779C75.6486 139.179 75.8953 138.453 75.8953 137.599C75.8953 136.639 75.622 135.879 75.0753 135.319C74.5286 134.759 73.8953 134.479 73.1753 134.479C72.4553 134.479 71.8153 134.759 71.2553 135.319C70.6953 135.879 70.4153 136.633 70.4153 137.579C70.4153 138.446 70.6686 139.179 71.1753 139.779C71.6953 140.366 72.3686 140.659 73.1953 140.659ZM85.7427 138.919L86.9427 139.579C86.6627 140.113 86.3227 140.559 85.9227 140.919C85.1627 141.599 84.2427 141.939 83.1627 141.939C82.0427 141.939 81.076 141.579 80.2627 140.859C79.4627 140.126 79.0627 139.039 79.0627 137.599C79.0627 136.333 79.4227 135.286 80.1427 134.459C80.876 133.619 81.856 133.199 83.0827 133.199C84.4693 133.199 85.516 133.706 86.2227 134.719C86.7827 135.519 87.0427 136.559 87.0027 137.839H80.5427C80.556 138.679 80.816 139.359 81.3227 139.879C81.8293 140.399 82.4493 140.659 83.1827 140.659C83.836 140.659 84.4027 140.459 84.8827 140.059C85.256 139.739 85.5427 139.359 85.7427 138.919ZM80.6427 136.639H85.5227C85.4027 135.986 85.116 135.466 84.6627 135.079C84.2227 134.679 83.696 134.479 83.0827 134.479C82.4827 134.479 81.9493 134.686 81.4827 135.099C81.0293 135.499 80.7493 136.013 80.6427 136.639ZM89.2116 141.699V133.399H90.6516V140.379H93.8516V133.399H95.2916V140.379H98.4916V133.399H99.9316V141.699H89.2116ZM108.809 138.919L110.009 139.579C109.729 140.113 109.389 140.559 108.989 140.919C108.229 141.599 107.309 141.939 106.229 141.939C105.109 141.939 104.142 141.579 103.329 140.859C102.529 140.126 102.129 139.039 102.129 137.599C102.129 136.333 102.489 135.286 103.209 134.459C103.942 133.619 104.922 133.199 106.149 133.199C107.536 133.199 108.582 133.706 109.289 134.719C109.849 135.519 110.109 136.559 110.069 137.839H103.609C103.622 138.679 103.882 139.359 104.389 139.879C104.896 140.399 105.516 140.659 106.249 140.659C106.902 140.659 107.469 140.459 107.949 140.059C108.322 139.739 108.609 139.359 108.809 138.919ZM103.709 136.639H108.589C108.469 135.986 108.182 135.466 107.729 135.079C107.289 134.679 106.762 134.479 106.149 134.479C105.549 134.479 105.016 134.686 104.549 135.099C104.096 135.499 103.816 136.013 103.709 136.639ZM112.278 141.699V133.399H113.718V136.799H117.638V133.399H119.078V141.699H117.638V138.119H113.718V141.699H112.278ZM121.79 133.399H123.23V138.879L128.91 132.759V141.699H127.47V136.159L121.79 142.279V133.399ZM137.793 138.919L138.993 139.579C138.713 140.113 138.373 140.559 137.973 140.919C137.213 141.599 136.293 141.939 135.213 141.939C134.093 141.939 133.127 141.579 132.313 140.859C131.513 140.126 131.113 139.039 131.113 137.599C131.113 136.333 131.473 135.286 132.193 134.459C132.927 133.619 133.907 133.199 135.133 133.199C136.52 133.199 137.567 133.706 138.273 134.719C138.833 135.519 139.093 136.559 139.053 137.839H132.593C132.607 138.679 132.867 139.359 133.373 139.879C133.88 140.399 134.5 140.659 135.233 140.659C135.887 140.659 136.453 140.459 136.933 140.059C137.307 139.739 137.593 139.359 137.793 138.919ZM132.693 136.639H137.573C137.453 135.986 137.167 135.466 136.713 135.079C136.273 134.679 135.747 134.479 135.133 134.479C134.533 134.479 134 134.686 133.533 135.099C133.08 135.499 132.8 136.013 132.693 136.639ZM145.41 135.019V133.619C146.104 133.339 146.857 133.199 147.67 133.199C149.07 133.199 150.17 133.606 150.97 134.419C151.784 135.233 152.19 136.293 152.19 137.599C152.19 138.866 151.777 139.906 150.95 140.719C150.137 141.533 149.077 141.939 147.77 141.939C146.944 141.939 146.157 141.786 145.41 141.479V140.079C146.144 140.466 146.924 140.659 147.75 140.659C148.524 140.659 149.19 140.426 149.75 139.959C150.31 139.479 150.63 138.859 150.71 138.099H146.33V136.819H150.71C150.55 136.086 150.197 135.513 149.65 135.099C149.104 134.686 148.464 134.479 147.73 134.479C146.957 134.479 146.184 134.659 145.41 135.019ZM154.387 133.399H155.827V136.799L159.187 133.399H160.947L157.347 137.099L161.387 141.699H159.507L156.267 138.059L155.827 138.479V141.699H154.387V133.399ZM164.265 140.539V146.299H162.825V133.399H164.265V134.559C164.998 133.653 165.945 133.199 167.105 133.199C168.345 133.199 169.325 133.639 170.045 134.519C170.778 135.386 171.145 136.413 171.145 137.599C171.145 138.799 170.785 139.826 170.065 140.679C169.345 141.519 168.378 141.939 167.165 141.939C165.952 141.939 164.985 141.473 164.265 140.539ZM166.965 140.659C167.778 140.659 168.432 140.366 168.925 139.779C169.418 139.179 169.665 138.453 169.665 137.599C169.665 136.639 169.392 135.879 168.845 135.319C168.298 134.759 167.665 134.479 166.945 134.479C166.225 134.479 165.585 134.759 165.025 135.319C164.465 135.879 164.185 136.633 164.185 137.579C164.185 138.446 164.438 139.179 164.945 139.779C165.465 140.366 166.138 140.659 166.965 140.659ZM179.712 134.579V133.399H181.152V141.699H179.712V140.539C178.992 141.473 178.046 141.939 176.872 141.939C175.752 141.939 174.799 141.553 174.012 140.779C173.226 140.006 172.832 138.926 172.832 137.539C172.832 136.179 173.219 135.119 173.992 134.359C174.779 133.586 175.739 133.199 176.872 133.199C178.072 133.199 179.019 133.659 179.712 134.579ZM177.032 134.479C176.272 134.479 175.626 134.753 175.092 135.299C174.572 135.833 174.312 136.579 174.312 137.539C174.312 138.459 174.552 139.213 175.032 139.799C175.526 140.373 176.192 140.659 177.032 140.659C177.872 140.659 178.539 140.359 179.032 139.759C179.539 139.159 179.792 138.426 179.792 137.559C179.792 136.573 179.512 135.813 178.952 135.279C178.392 134.746 177.752 134.479 177.032 134.479ZM183.88 141.699V133.399H185.32V136.799H189.24V133.399H190.68V141.699H189.24V138.119H185.32V141.699H183.88ZM199.751 134.579V133.399H201.191V141.699H199.751V140.539C199.031 141.473 198.085 141.939 196.911 141.939C195.791 141.939 194.838 141.553 194.051 140.779C193.265 140.006 192.871 138.926 192.871 137.539C192.871 136.179 193.258 135.119 194.031 134.359C194.818 133.586 195.778 133.199 196.911 133.199C198.111 133.199 199.058 133.659 199.751 134.579ZM197.071 134.479C196.311 134.479 195.665 134.753 195.131 135.299C194.611 135.833 194.351 136.579 194.351 137.539C194.351 138.459 194.591 139.213 195.071 139.799C195.565 140.373 196.231 140.659 197.071 140.659C197.911 140.659 198.578 140.359 199.071 139.759C199.578 139.159 199.831 138.426 199.831 137.559C199.831 136.573 199.551 135.813 198.991 135.279C198.431 134.746 197.791 134.479 197.071 134.479ZM210.567 126.899L211.827 127.479C211.387 128.639 211.047 129.793 210.807 130.939C210.473 132.553 210.307 134.233 210.307 135.979C210.307 137.713 210.467 139.339 210.787 140.859C211.027 142.033 211.373 143.253 211.827 144.519L210.567 145.099C209.953 143.486 209.513 141.979 209.247 140.579C208.967 139.099 208.827 137.553 208.827 135.939C208.827 134.099 209.013 132.366 209.387 130.739C209.68 129.486 210.073 128.206 210.567 126.899ZM215.905 140.539V146.299H214.465V133.399H215.905V134.559C216.639 133.653 217.585 133.199 218.745 133.199C219.985 133.199 220.965 133.639 221.685 134.519C222.419 135.386 222.785 136.413 222.785 137.599C222.785 138.799 222.425 139.826 221.705 140.679C220.985 141.519 220.019 141.939 218.805 141.939C217.592 141.939 216.625 141.473 215.905 140.539ZM218.605 140.659C219.419 140.659 220.072 140.366 220.565 139.779C221.059 139.179 221.305 138.453 221.305 137.599C221.305 136.639 221.032 135.879 220.485 135.319C219.939 134.759 219.305 134.479 218.585 134.479C217.865 134.479 217.225 134.759 216.665 135.319C216.105 135.879 215.825 136.633 215.825 137.579C215.825 138.446 216.079 139.179 216.585 139.779C217.105 140.366 217.779 140.659 218.605 140.659ZM223.793 141.699L227.333 137.259L224.313 133.399H226.073L228.213 136.219L230.393 133.399H232.153L229.113 137.279L232.553 141.699H230.793L228.173 138.319L225.553 141.699H223.793ZM233.995 127.479L235.255 126.899C235.748 128.206 236.142 129.486 236.435 130.739C236.808 132.366 236.995 134.099 236.995 135.939C236.995 137.553 236.855 139.099 236.575 140.579C236.308 141.979 235.868 143.486 235.255 145.099L233.995 144.519C234.448 143.253 234.795 142.033 235.035 140.859C235.355 139.339 235.515 137.713 235.515 135.979C235.515 134.233 235.348 132.553 235.015 130.939C234.775 129.793 234.435 128.639 233.995 127.479Z" fill="#0B1530"/>
<path d="M44.68 167.699V157.299H42.78V154.359H48.14V167.699H44.68ZM57.3139 157.579C57.0072 157.299 56.6539 157.159 56.2539 157.159C55.8539 157.159 55.5006 157.299 55.1939 157.579C54.8472 157.873 54.5672 158.366 54.3539 159.059C54.1406 159.739 54.0339 160.406 54.0339 161.059C54.0339 161.659 54.1339 162.313 54.3339 163.019C54.5472 163.713 54.8339 164.219 55.1939 164.539C55.5006 164.819 55.8539 164.959 56.2539 164.959C56.6539 164.959 57.0072 164.819 57.3139 164.539C57.6606 164.233 57.9406 163.739 58.1539 163.059C58.3672 162.366 58.4739 161.706 58.4739 161.079C58.4739 160.453 58.3606 159.786 58.1339 159.079C57.9206 158.373 57.6472 157.873 57.3139 157.579ZM61.9139 161.039C61.9139 163.373 61.2539 165.186 59.9339 166.479C58.9072 167.493 57.6806 167.999 56.2539 167.999C54.8272 167.999 53.6006 167.493 52.5739 166.479C51.2539 165.186 50.5939 163.373 50.5939 161.039C50.5939 158.693 51.2539 156.873 52.5739 155.579C53.6006 154.566 54.8272 154.059 56.2539 154.059C57.6806 154.059 58.9072 154.566 59.9339 155.579C61.2539 156.873 61.9139 158.693 61.9139 161.039ZM73.4661 164.759V167.699H62.7661L66.1461 164.159C67.3594 162.893 68.2728 161.766 68.8861 160.779C69.3661 160.033 69.6061 159.339 69.6061 158.699C69.6061 158.139 69.4728 157.713 69.2061 157.419C68.9661 157.153 68.6394 157.019 68.2261 157.019C67.7328 157.019 67.3461 157.199 67.0661 157.559C66.7728 157.933 66.6128 158.479 66.5861 159.199H63.0061C63.0194 157.706 63.5128 156.473 64.4861 155.499C65.4461 154.539 66.7061 154.059 68.2661 154.059C69.8528 154.059 71.1061 154.519 72.0261 155.439C72.8928 156.306 73.3261 157.399 73.3261 158.719C73.3261 160.133 72.6661 161.453 71.3461 162.679L69.1061 164.759H73.4661ZM84.1183 154.359V162.519H85.7383V165.179H84.1183V167.699H80.9183V165.179H74.4583V162.959L79.5983 154.359H84.1183ZM77.7783 162.519H80.9183V157.079L77.7783 162.519Z" fill="#0B1530"/>
<path d="M272.72 141.699V128.359H274.2V140.299H279.48V128.359H280.96V140.299H286.24V128.359H287.72V141.699H272.72ZM290.798 133.399H292.238V138.879L297.918 132.759V141.699H296.478V136.159L290.798 142.279V133.399ZM302.081 140.539V146.299H300.641V133.399H302.081V134.559C302.815 133.653 303.761 133.199 304.921 133.199C306.161 133.199 307.141 133.639 307.861 134.519C308.595 135.386 308.961 136.413 308.961 137.599C308.961 138.799 308.601 139.826 307.881 140.679C307.161 141.519 306.195 141.939 304.981 141.939C303.768 141.939 302.801 141.473 302.081 140.539ZM304.781 140.659C305.595 140.659 306.248 140.366 306.741 139.779C307.235 139.179 307.481 138.453 307.481 137.599C307.481 136.639 307.208 135.879 306.661 135.319C306.115 134.759 305.481 134.479 304.761 134.479C304.041 134.479 303.401 134.759 302.841 135.319C302.281 135.879 302.001 136.633 302.001 137.579C302.001 138.446 302.255 139.179 302.761 139.779C303.281 140.366 303.955 140.659 304.781 140.659ZM311.169 133.399H312.609V138.879L318.289 132.759V141.699H316.849V136.159L311.169 142.279V133.399ZM321.012 141.699V133.399H322.452V136.799H326.372V133.399H327.812V141.699H326.372V138.119H322.452V141.699H321.012ZM336.884 134.579V133.399H338.324V141.699H336.884V140.539C336.164 141.473 335.217 141.939 334.044 141.939C332.924 141.939 331.971 141.553 331.184 140.779C330.397 140.006 330.004 138.926 330.004 137.539C330.004 136.179 330.391 135.119 331.164 134.359C331.951 133.586 332.911 133.199 334.044 133.199C335.244 133.199 336.191 133.659 336.884 134.579ZM334.204 134.479C333.444 134.479 332.797 134.753 332.264 135.299C331.744 135.833 331.484 136.579 331.484 137.539C331.484 138.459 331.724 139.213 332.204 139.799C332.697 140.373 333.364 140.659 334.204 140.659C335.044 140.659 335.711 140.359 336.204 139.759C336.711 139.159 336.964 138.426 336.964 137.559C336.964 136.573 336.684 135.813 336.124 135.279C335.564 134.746 334.924 134.479 334.204 134.479ZM345.719 133.399H347.159V136.799L350.519 133.399H352.279L348.679 137.099L352.719 141.699H350.839L347.599 138.059L347.159 138.479V141.699H345.719V133.399ZM360.786 140.699C359.96 141.526 358.913 141.939 357.646 141.939C356.38 141.939 355.326 141.526 354.486 140.699C353.66 139.873 353.246 138.833 353.246 137.579C353.246 136.313 353.66 135.266 354.486 134.439C355.326 133.613 356.38 133.199 357.646 133.199C358.913 133.199 359.96 133.613 360.786 134.439C361.626 135.266 362.046 136.313 362.046 137.579C362.046 138.833 361.626 139.873 360.786 140.699ZM359.706 135.299C359.146 134.753 358.46 134.479 357.646 134.479C356.833 134.479 356.14 134.759 355.566 135.319C355.006 135.866 354.726 136.619 354.726 137.579C354.726 138.539 355.013 139.293 355.586 139.839C356.16 140.386 356.846 140.659 357.646 140.659C358.446 140.659 359.133 140.386 359.706 139.839C360.28 139.293 360.566 138.539 360.566 137.579C360.566 136.606 360.28 135.846 359.706 135.299ZM370.535 133.399V141.699H369.095V134.719H366.135V138.459C366.135 139.539 365.921 140.339 365.495 140.859C365.015 141.446 364.348 141.739 363.495 141.739C363.388 141.739 363.241 141.726 363.055 141.699V140.379C363.188 140.406 363.295 140.419 363.375 140.419C363.841 140.419 364.188 140.239 364.415 139.879C364.601 139.586 364.695 139.113 364.695 138.459V133.399H370.535ZM380.278 140.699C379.452 141.526 378.405 141.939 377.138 141.939C375.872 141.939 374.818 141.526 373.978 140.699C373.152 139.873 372.738 138.833 372.738 137.579C372.738 136.313 373.152 135.266 373.978 134.439C374.818 133.613 375.872 133.199 377.138 133.199C378.405 133.199 379.452 133.613 380.278 134.439C381.118 135.266 381.538 136.313 381.538 137.579C381.538 138.833 381.118 139.873 380.278 140.699ZM379.198 135.299C378.638 134.753 377.952 134.479 377.138 134.479C376.325 134.479 375.632 134.759 375.058 135.319C374.498 135.866 374.218 136.619 374.218 137.579C374.218 138.539 374.505 139.293 375.078 139.839C375.652 140.386 376.338 140.659 377.138 140.659C377.938 140.659 378.625 140.386 379.198 139.839C379.772 139.293 380.058 138.539 380.058 137.579C380.058 136.606 379.772 135.846 379.198 135.299ZM383.747 141.699V133.399H385.187V136.799H389.107V133.399H390.547V141.699H389.107V138.119H385.187V141.699H383.747ZM393.258 133.399H394.698V136.799L398.058 133.399H399.818L396.218 137.099L400.258 141.699H398.378L395.138 138.059L394.698 138.479V141.699H393.258V133.399ZM401.696 133.399H403.136V138.879L408.816 132.759V141.699H407.376V136.159L401.696 142.279V133.399ZM418.188 126.899L419.448 127.479C419.008 128.639 418.668 129.793 418.428 130.939C418.094 132.553 417.928 134.233 417.928 135.979C417.928 137.713 418.088 139.339 418.408 140.859C418.648 142.033 418.994 143.253 419.448 144.519L418.188 145.099C417.574 143.486 417.134 141.979 416.868 140.579C416.588 139.099 416.448 137.553 416.448 135.939C416.448 134.099 416.634 132.366 417.008 130.739C417.301 129.486 417.694 128.206 418.188 126.899ZM423.527 140.539V146.299H422.087V133.399H423.527V134.559C424.26 133.653 425.207 133.199 426.367 133.199C427.607 133.199 428.587 133.639 429.307 134.519C430.04 135.386 430.407 136.413 430.407 137.599C430.407 138.799 430.047 139.826 429.327 140.679C428.607 141.519 427.64 141.939 426.427 141.939C425.213 141.939 424.247 141.473 423.527 140.539ZM426.227 140.659C427.04 140.659 427.693 140.366 428.187 139.779C428.68 139.179 428.927 138.453 428.927 137.599C428.927 136.639 428.653 135.879 428.107 135.319C427.56 134.759 426.927 134.479 426.207 134.479C425.487 134.479 424.847 134.759 424.287 135.319C423.727 135.879 423.447 136.633 423.447 137.579C423.447 138.446 423.7 139.179 424.207 139.779C424.727 140.366 425.4 140.659 426.227 140.659ZM431.414 141.699L434.954 137.259L431.934 133.399H433.694L435.834 136.219L438.014 133.399H439.774L436.734 137.279L440.174 141.699H438.414L435.794 138.319L433.174 141.699H431.414ZM441.616 127.479L442.876 126.899C443.369 128.206 443.763 129.486 444.056 130.739C444.429 132.366 444.616 134.099 444.616 135.939C444.616 137.553 444.476 139.099 444.196 140.579C443.929 141.979 443.489 143.486 442.876 145.099L441.616 144.519C442.069 143.253 442.416 142.033 442.656 140.859C442.976 139.339 443.136 137.713 443.136 135.979C443.136 134.233 442.969 132.553 442.636 130.939C442.396 129.793 442.056 128.639 441.616 127.479Z" fill="#0B1530"/>
<path d="M280.9 154.359V157.299H276.28L276.04 158.779C276.453 158.713 276.813 158.679 277.12 158.679C278.613 158.679 279.787 159.119 280.64 159.999C281.453 160.813 281.86 161.866 281.86 163.159C281.86 164.506 281.433 165.619 280.58 166.499C279.607 167.499 278.22 167.999 276.42 167.999C274.687 167.999 273.187 167.599 271.92 166.799L272.44 163.559C272.947 164.026 273.48 164.386 274.04 164.639C274.693 164.946 275.36 165.099 276.04 165.099C276.787 165.099 277.367 164.879 277.78 164.439C278.127 164.066 278.3 163.613 278.3 163.079C278.3 162.493 278.087 162.013 277.66 161.639C277.167 161.199 276.367 160.979 275.26 160.979C274.367 160.979 273.547 161.166 272.8 161.539L273.96 154.359H280.9ZM288.332 154.359H292.272L288.472 158.899C289.099 158.619 289.719 158.479 290.332 158.479C291.492 158.479 292.499 158.906 293.352 159.759C294.192 160.599 294.612 161.659 294.612 162.939C294.612 164.339 294.152 165.499 293.232 166.419C292.179 167.473 290.759 167.999 288.972 167.999C287.106 167.999 285.646 167.459 284.592 166.379C283.779 165.539 283.372 164.499 283.372 163.259C283.372 161.686 284.032 160.026 285.352 158.279L288.332 154.359ZM287.332 164.579C287.772 165.033 288.299 165.259 288.912 165.259C289.526 165.259 290.039 165.053 290.452 164.639C290.866 164.226 291.072 163.719 291.072 163.119C291.072 162.586 290.866 162.119 290.452 161.719C290.026 161.306 289.512 161.099 288.912 161.099C288.339 161.099 287.839 161.293 287.412 161.679C286.972 162.079 286.752 162.539 286.752 163.059C286.752 163.659 286.946 164.166 287.332 164.579Z" fill="#0B1530"/>
<path d="M481.78 141.699H480.26L482.48 127.619L487.6 138.879L492.82 127.599L494.9 141.699H493.38L492.12 132.419L487.58 142.259L483.1 132.419L481.78 141.699ZM503.786 138.919L504.986 139.579C504.706 140.113 504.366 140.559 503.966 140.919C503.206 141.599 502.286 141.939 501.206 141.939C500.086 141.939 499.119 141.579 498.306 140.859C497.506 140.126 497.106 139.039 497.106 137.599C497.106 136.333 497.466 135.286 498.186 134.459C498.919 133.619 499.899 133.199 501.126 133.199C502.512 133.199 503.559 133.706 504.266 134.719C504.826 135.519 505.086 136.559 505.046 137.839H498.586C498.599 138.679 498.859 139.359 499.366 139.879C499.872 140.399 500.492 140.659 501.226 140.659C501.879 140.659 502.446 140.459 502.926 140.059C503.299 139.739 503.586 139.359 503.786 138.919ZM498.686 136.639H503.566C503.446 135.986 503.159 135.466 502.706 135.079C502.266 134.679 501.739 134.479 501.126 134.479C500.526 134.479 499.992 134.686 499.526 135.099C499.072 135.499 498.792 136.013 498.686 136.639ZM510.939 133.399H512.379V136.799L515.499 133.399H517.179L513.579 137.239L517.539 141.699H515.739L512.659 138.199L512.379 138.479V141.699H510.939V138.479L510.659 138.199L507.579 141.699H505.779L509.739 137.239L506.139 133.399H507.819L510.939 136.799V133.399ZM525.278 133.999V135.719C524.625 134.893 523.758 134.479 522.678 134.479C521.865 134.479 521.171 134.759 520.598 135.319C520.025 135.866 519.738 136.619 519.738 137.579C519.738 138.539 520.025 139.293 520.598 139.839C521.171 140.386 521.858 140.659 522.658 140.659C523.725 140.659 524.618 140.226 525.338 139.359V141.079C524.551 141.653 523.671 141.939 522.698 141.939C521.405 141.939 520.338 141.533 519.498 140.719C518.671 139.893 518.258 138.853 518.258 137.599C518.258 136.333 518.678 135.286 519.518 134.459C520.358 133.619 521.418 133.199 522.698 133.199C523.658 133.199 524.518 133.466 525.278 133.999ZM532.988 134.719H530.388V141.699H528.948V134.719H526.348V133.399H532.988V134.719ZM535.941 140.539V146.299H534.501V133.399H535.941V134.559C536.674 133.653 537.621 133.199 538.781 133.199C540.021 133.199 541.001 133.639 541.721 134.519C542.454 135.386 542.821 136.413 542.821 137.599C542.821 138.799 542.461 139.826 541.741 140.679C541.021 141.519 540.054 141.939 538.841 141.939C537.627 141.939 536.661 141.473 535.941 140.539ZM538.641 140.659C539.454 140.659 540.107 140.366 540.601 139.779C541.094 139.179 541.341 138.453 541.341 137.599C541.341 136.639 541.067 135.879 540.521 135.319C539.974 134.759 539.341 134.479 538.621 134.479C537.901 134.479 537.261 134.759 536.701 135.319C536.141 135.879 535.861 136.633 535.861 137.579C535.861 138.446 536.114 139.179 536.621 139.779C537.141 140.366 537.814 140.659 538.641 140.659ZM552.048 140.699C551.221 141.526 550.175 141.939 548.908 141.939C547.641 141.939 546.588 141.526 545.748 140.699C544.921 139.873 544.508 138.833 544.508 137.579C544.508 136.313 544.921 135.266 545.748 134.439C546.588 133.613 547.641 133.199 548.908 133.199C550.175 133.199 551.221 133.613 552.048 134.439C552.888 135.266 553.308 136.313 553.308 137.579C553.308 138.833 552.888 139.873 552.048 140.699ZM550.968 135.299C550.408 134.753 549.721 134.479 548.908 134.479C548.095 134.479 547.401 134.759 546.828 135.319C546.268 135.866 545.988 136.619 545.988 137.579C545.988 138.539 546.275 139.293 546.848 139.839C547.421 140.386 548.108 140.659 548.908 140.659C549.708 140.659 550.395 140.386 550.968 139.839C551.541 139.293 551.828 138.539 551.828 137.579C551.828 136.606 551.541 135.846 550.968 135.299ZM559.956 141.699V138.439C559.17 138.559 558.516 138.619 557.996 138.619C557.09 138.619 556.416 138.419 555.976 138.019C555.51 137.606 555.276 136.926 555.276 135.979V133.399H556.716V135.779C556.716 136.233 556.776 136.559 556.896 136.759C557.083 137.119 557.503 137.299 558.156 137.299C558.743 137.299 559.343 137.239 559.956 137.119V133.399H561.396V141.699H559.956ZM564.11 141.699V133.399H565.55V136.799H569.47V133.399H570.91V141.699H569.47V138.119H565.55V141.699H564.11ZM573.622 141.699V133.399H575.062V136.579H576.542C577.688 136.579 578.528 136.853 579.062 137.399C579.488 137.826 579.702 138.406 579.702 139.139C579.702 139.913 579.455 140.533 578.962 140.999C578.468 141.466 577.655 141.699 576.522 141.699H573.622ZM575.062 140.419H576.402C577.002 140.419 577.428 140.346 577.682 140.199C578.042 139.959 578.222 139.606 578.222 139.139C578.222 138.659 578.048 138.313 577.702 138.099C577.462 137.939 577.035 137.859 576.422 137.859H575.062V140.419ZM580.702 141.699V133.399H582.142V141.699H580.702ZM584.852 133.399H586.292V138.879L591.972 132.759V141.699H590.532V136.159L584.852 142.279V133.399ZM585.572 129.819L586.772 129.359C587.012 130.159 587.579 130.559 588.472 130.559C589.366 130.559 589.932 130.159 590.172 129.359L591.372 129.819C591.159 130.419 590.792 130.893 590.272 131.239C589.766 131.586 589.166 131.759 588.472 131.759C587.779 131.759 587.172 131.586 586.652 131.239C586.146 130.893 585.786 130.419 585.572 129.819ZM599.364 133.399H600.804V138.879L606.484 132.759V141.699H605.044V136.159L599.364 142.279V133.399ZM609.208 141.699V133.399H610.648V136.799H614.568V133.399H616.008V141.699H614.568V138.119H610.648V141.699H609.208ZM624.159 134.719H621.559V141.699H620.119V134.719H617.519V133.399H624.159V134.719ZM631.637 138.919L632.837 139.579C632.557 140.113 632.217 140.559 631.817 140.919C631.057 141.599 630.137 141.939 629.057 141.939C627.937 141.939 626.971 141.579 626.157 140.859C625.357 140.126 624.957 139.039 624.957 137.599C624.957 136.333 625.317 135.286 626.037 134.459C626.771 133.619 627.751 133.199 628.977 133.199C630.364 133.199 631.411 133.706 632.117 134.719C632.677 135.519 632.937 136.559 632.897 137.839H626.437C626.451 138.679 626.711 139.359 627.217 139.879C627.724 140.399 628.344 140.659 629.077 140.659C629.731 140.659 630.297 140.459 630.777 140.059C631.151 139.739 631.437 139.359 631.637 138.919ZM626.537 136.639H631.417C631.297 135.986 631.011 135.466 630.557 135.079C630.117 134.679 629.591 134.479 628.977 134.479C628.377 134.479 627.844 134.686 627.377 135.099C626.924 135.499 626.644 136.013 626.537 136.639ZM636.546 140.539V146.299H635.106V133.399H636.546V134.559C637.279 133.653 638.226 133.199 639.386 133.199C640.626 133.199 641.606 133.639 642.326 134.519C643.059 135.386 643.426 136.413 643.426 137.599C643.426 138.799 643.066 139.826 642.346 140.679C641.626 141.519 640.659 141.939 639.446 141.939C638.233 141.939 637.266 141.473 636.546 140.539ZM639.246 140.659C640.059 140.659 640.713 140.366 641.206 139.779C641.699 139.179 641.946 138.453 641.946 137.599C641.946 136.639 641.673 135.879 641.126 135.319C640.579 134.759 639.946 134.479 639.226 134.479C638.506 134.479 637.866 134.759 637.306 135.319C636.746 135.879 636.466 136.633 636.466 137.579C636.466 138.446 636.719 139.179 637.226 139.779C637.746 140.366 638.419 140.659 639.246 140.659ZM645.633 133.399H648.773C649.533 133.399 650.113 133.559 650.513 133.879C650.993 134.266 651.233 134.786 651.233 135.439C651.233 136.159 650.933 136.713 650.333 137.099C650.747 137.206 651.093 137.393 651.373 137.659C651.813 138.086 652.033 138.619 652.033 139.259C652.033 140.059 651.747 140.686 651.173 141.139C650.68 141.513 650.027 141.699 649.213 141.699H645.633V133.399ZM647.073 136.779H648.593C648.98 136.779 649.287 136.699 649.513 136.539C649.78 136.339 649.913 136.053 649.913 135.679C649.913 135.346 649.78 135.079 649.513 134.879C649.313 134.746 648.927 134.679 648.353 134.679H647.073V136.779ZM647.073 140.419H648.853C649.467 140.419 649.9 140.326 650.153 140.139C650.473 139.899 650.633 139.593 650.633 139.219C650.633 138.819 650.493 138.506 650.213 138.279C649.96 138.079 649.527 137.979 648.913 137.979H647.073V140.419ZM660.587 134.579V133.399H662.027V141.699H660.587V140.539C659.867 141.473 658.921 141.939 657.747 141.939C656.627 141.939 655.674 141.553 654.887 140.779C654.101 140.006 653.707 138.926 653.707 137.539C653.707 136.179 654.094 135.119 654.867 134.359C655.654 133.586 656.614 133.199 657.747 133.199C658.947 133.199 659.894 133.659 660.587 134.579ZM657.907 134.479C657.147 134.479 656.501 134.753 655.967 135.299C655.447 135.833 655.187 136.579 655.187 137.539C655.187 138.459 655.427 139.213 655.907 139.799C656.401 140.373 657.067 140.659 657.907 140.659C658.747 140.659 659.414 140.359 659.907 139.759C660.414 139.159 660.667 138.426 660.667 137.559C660.667 136.573 660.387 135.813 659.827 135.279C659.267 134.746 658.627 134.479 657.907 134.479ZM671.035 133.399V141.699H669.595V134.719H666.635V138.459C666.635 139.539 666.421 140.339 665.995 140.859C665.515 141.446 664.848 141.739 663.995 141.739C663.888 141.739 663.741 141.726 663.555 141.699V140.379C663.688 140.406 663.795 140.419 663.875 140.419C664.341 140.419 664.688 140.239 664.915 139.879C665.101 139.586 665.195 139.113 665.195 138.459V133.399H671.035ZM680.406 126.899L681.666 127.479C681.226 128.639 680.886 129.793 680.646 130.939C680.313 132.553 680.146 134.233 680.146 135.979C680.146 137.713 680.306 139.339 680.626 140.859C680.866 142.033 681.213 143.253 681.666 144.519L680.406 145.099C679.793 143.486 679.353 141.979 679.086 140.579C678.806 139.099 678.666 137.553 678.666 135.939C678.666 134.099 678.853 132.366 679.226 130.739C679.52 129.486 679.913 128.206 680.406 126.899ZM685.745 140.539V146.299H684.305V133.399H685.745V134.559C686.479 133.653 687.425 133.199 688.585 133.199C689.825 133.199 690.805 133.639 691.525 134.519C692.259 135.386 692.625 136.413 692.625 137.599C692.625 138.799 692.265 139.826 691.545 140.679C690.825 141.519 689.859 141.939 688.645 141.939C687.432 141.939 686.465 141.473 685.745 140.539ZM688.445 140.659C689.259 140.659 689.912 140.366 690.405 139.779C690.899 139.179 691.145 138.453 691.145 137.599C691.145 136.639 690.872 135.879 690.325 135.319C689.779 134.759 689.145 134.479 688.425 134.479C687.705 134.479 687.065 134.759 686.505 135.319C685.945 135.879 685.665 136.633 685.665 137.579C685.665 138.446 685.919 139.179 686.425 139.779C686.945 140.366 687.619 140.659 688.445 140.659ZM693.633 141.699L697.173 137.259L694.153 133.399H695.913L698.053 136.219L700.233 133.399H701.993L698.953 137.279L702.393 141.699H700.633L698.013 138.319L695.393 141.699H693.633ZM703.835 127.479L705.095 126.899C705.588 128.206 705.981 129.486 706.275 130.739C706.648 132.366 706.835 134.099 706.835 135.939C706.835 137.553 706.695 139.099 706.415 140.579C706.148 141.979 705.708 143.486 705.095 145.099L703.835 144.519C704.288 143.253 704.635 142.033 704.875 140.859C705.195 139.339 705.355 137.713 705.355 135.979C705.355 134.233 705.188 132.553 704.855 130.939C704.615 129.793 704.275 128.639 703.835 127.479Z" fill="#0B1530"/>
<path d="M483.68 167.699V157.299H481.78V154.359H487.14V167.699H483.68ZM494.594 154.359H498.534L494.734 158.899C495.361 158.619 495.981 158.479 496.594 158.479C497.754 158.479 498.761 158.906 499.614 159.759C500.454 160.599 500.874 161.659 500.874 162.939C500.874 164.339 500.414 165.499 499.494 166.419C498.441 167.473 497.021 167.999 495.234 167.999C493.367 167.999 491.907 167.459 490.854 166.379C490.041 165.539 489.634 164.499 489.634 163.259C489.634 161.686 490.294 160.026 491.614 158.279L494.594 154.359ZM493.594 164.579C494.034 165.033 494.561 165.259 495.174 165.259C495.787 165.259 496.301 165.053 496.714 164.639C497.127 164.226 497.334 163.719 497.334 163.119C497.334 162.586 497.127 162.119 496.714 161.719C496.287 161.306 495.774 161.099 495.174 161.099C494.601 161.099 494.101 161.293 493.674 161.679C493.234 162.079 493.014 162.539 493.014 163.059C493.014 163.659 493.207 164.166 493.594 164.579Z" fill="#0B1530"/>
<path d="M742.72 128.359H745.12C746.453 128.359 747.473 128.639 748.18 129.199C748.98 129.813 749.38 130.733 749.38 131.959C749.38 133.106 748.94 133.979 748.06 134.579C748.913 134.793 749.547 135.226 749.96 135.879C750.387 136.519 750.6 137.206 750.6 137.939C750.6 138.539 750.467 139.093 750.2 139.599C749.947 140.106 749.627 140.513 749.24 140.819C748.493 141.406 747.427 141.699 746.04 141.699H742.72V128.359ZM744.2 129.759V134.219H745.32C745.52 134.219 745.713 134.213 745.9 134.199C746.087 134.173 746.307 134.119 746.56 134.039C746.827 133.946 747.053 133.826 747.24 133.679C747.44 133.533 747.607 133.313 747.74 133.019C747.873 132.726 747.94 132.386 747.94 131.999C747.94 131.586 747.86 131.233 747.7 130.939C747.54 130.633 747.36 130.406 747.16 130.259C746.96 130.113 746.72 129.999 746.44 129.919C746.16 129.839 745.947 129.793 745.8 129.779C745.653 129.766 745.507 129.759 745.36 129.759H744.2ZM744.2 135.539V140.299H745.9C746.98 140.299 747.76 140.113 748.24 139.739C748.827 139.313 749.12 138.699 749.12 137.899C749.12 137.006 748.74 136.353 747.98 135.939C747.5 135.673 746.747 135.539 745.72 135.539H744.2ZM752.965 141.699V133.399H754.405V136.799H758.325V133.399H759.765V141.699H758.325V138.119H754.405V141.699H752.965ZM768.637 138.919L769.837 139.579C769.557 140.113 769.217 140.559 768.817 140.919C768.057 141.599 767.137 141.939 766.057 141.939C764.937 141.939 763.971 141.579 763.157 140.859C762.357 140.126 761.957 139.039 761.957 137.599C761.957 136.333 762.317 135.286 763.037 134.459C763.771 133.619 764.751 133.199 765.977 133.199C767.364 133.199 768.411 133.706 769.117 134.719C769.677 135.519 769.937 136.559 769.897 137.839H763.437C763.451 138.679 763.711 139.359 764.217 139.879C764.724 140.399 765.344 140.659 766.077 140.659C766.731 140.659 767.297 140.459 767.777 140.059C768.151 139.739 768.437 139.359 768.637 138.919ZM763.537 136.639H768.417C768.297 135.986 768.011 135.466 767.557 135.079C767.117 134.679 766.591 134.479 765.977 134.479C765.377 134.479 764.844 134.686 764.377 135.099C763.924 135.499 763.644 136.013 763.537 136.639ZM772.106 141.699V133.399H773.546V140.379H776.746V133.399H778.186V140.379H781.386V133.399H782.826V141.699H772.106ZM785.544 141.699V133.399H786.984V136.799H790.904V133.399H792.344V141.699H790.904V138.119H786.984V141.699H785.544ZM795.055 133.399H796.495V138.879L802.175 132.759V141.699H800.735V136.159L795.055 142.279V133.399ZM811.059 138.919L812.259 139.579C811.979 140.113 811.639 140.559 811.239 140.919C810.479 141.599 809.559 141.939 808.479 141.939C807.359 141.939 806.392 141.579 805.579 140.859C804.779 140.126 804.379 139.039 804.379 137.599C804.379 136.333 804.739 135.286 805.459 134.459C806.192 133.619 807.172 133.199 808.399 133.199C809.786 133.199 810.832 133.706 811.539 134.719C812.099 135.519 812.359 136.559 812.319 137.839H805.859C805.872 138.679 806.132 139.359 806.639 139.879C807.146 140.399 807.766 140.659 808.499 140.659C809.152 140.659 809.719 140.459 810.199 140.059C810.572 139.739 810.859 139.359 811.059 138.919ZM805.959 136.639H810.839C810.719 135.986 810.432 135.466 809.979 135.079C809.539 134.679 809.012 134.479 808.399 134.479C807.799 134.479 807.266 134.686 806.799 135.099C806.346 135.499 806.066 136.013 805.959 136.639ZM826.216 140.699C825.389 141.526 824.343 141.939 823.076 141.939C821.809 141.939 820.756 141.526 819.916 140.699C819.089 139.873 818.676 138.833 818.676 137.579C818.676 136.313 819.089 135.266 819.916 134.439C820.756 133.613 821.809 133.199 823.076 133.199C824.343 133.199 825.389 133.613 826.216 134.439C827.056 135.266 827.476 136.313 827.476 137.579C827.476 138.833 827.056 139.873 826.216 140.699ZM825.136 135.299C824.576 134.753 823.889 134.479 823.076 134.479C822.263 134.479 821.569 134.759 820.996 135.319C820.436 135.866 820.156 136.619 820.156 137.579C820.156 138.539 820.443 139.293 821.016 139.839C821.589 140.386 822.276 140.659 823.076 140.659C823.876 140.659 824.563 140.386 825.136 139.839C825.709 139.293 825.996 138.539 825.996 137.579C825.996 136.606 825.709 135.846 825.136 135.299ZM834.929 134.719H832.329V141.699H830.889V134.719H828.289V133.399H834.929V134.719ZM842.747 133.999V135.719C842.093 134.893 841.227 134.479 840.147 134.479C839.333 134.479 838.64 134.759 838.067 135.319C837.493 135.866 837.207 136.619 837.207 137.579C837.207 138.539 837.493 139.293 838.067 139.839C838.64 140.386 839.327 140.659 840.127 140.659C841.193 140.659 842.087 140.226 842.807 139.359V141.079C842.02 141.653 841.14 141.939 840.167 141.939C838.873 141.939 837.807 141.533 836.967 140.719C836.14 139.893 835.727 138.853 835.727 137.599C835.727 136.333 836.147 135.286 836.987 134.459C837.827 133.619 838.887 133.199 840.167 133.199C841.127 133.199 841.987 133.466 842.747 133.999ZM850.456 134.719H847.856V141.699H846.416V134.719H843.816V133.399H850.456V134.719ZM852.34 146.299L854.98 140.919L851.16 133.399H852.8L855.74 139.339L858.44 133.399H860.04L853.94 146.299H852.34ZM861.559 133.399H868.239V141.699H866.799V134.719H862.999V141.699H861.559V133.399ZM870.954 141.699V133.399H872.394V136.579H873.874C875.02 136.579 875.86 136.853 876.394 137.399C876.82 137.826 877.034 138.406 877.034 139.139C877.034 139.913 876.787 140.533 876.294 140.999C875.8 141.466 874.987 141.699 873.854 141.699H870.954ZM872.394 140.419H873.734C874.334 140.419 874.76 140.346 875.014 140.199C875.374 139.959 875.554 139.606 875.554 139.139C875.554 138.659 875.38 138.313 875.034 138.099C874.794 137.939 874.367 137.859 873.754 137.859H872.394V140.419ZM878.034 141.699V133.399H879.474V141.699H878.034ZM888.832 126.899L890.092 127.479C889.652 128.639 889.312 129.793 889.072 130.939C888.739 132.553 888.572 134.233 888.572 135.979C888.572 137.713 888.732 139.339 889.052 140.859C889.292 142.033 889.639 143.253 890.092 144.519L888.832 145.099C888.219 143.486 887.779 141.979 887.512 140.579C887.232 139.099 887.092 137.553 887.092 135.939C887.092 134.099 887.279 132.366 887.652 130.739C887.946 129.486 888.339 128.206 888.832 126.899ZM894.171 140.539V146.299H892.731V133.399H894.171V134.559C894.904 133.653 895.851 133.199 897.011 133.199C898.251 133.199 899.231 133.639 899.951 134.519C900.684 135.386 901.051 136.413 901.051 137.599C901.051 138.799 900.691 139.826 899.971 140.679C899.251 141.519 898.284 141.939 897.071 141.939C895.858 141.939 894.891 141.473 894.171 140.539ZM896.871 140.659C897.684 140.659 898.338 140.366 898.831 139.779C899.324 139.179 899.571 138.453 899.571 137.599C899.571 136.639 899.298 135.879 898.751 135.319C898.204 134.759 897.571 134.479 896.851 134.479C896.131 134.479 895.491 134.759 894.931 135.319C894.371 135.879 894.091 136.633 894.091 137.579C894.091 138.446 894.344 139.179 894.851 139.779C895.371 140.366 896.044 140.659 896.871 140.659ZM902.058 141.699L905.598 137.259L902.578 133.399H904.338L906.478 136.219L908.658 133.399H910.418L907.378 137.279L910.818 141.699H909.058L906.438 138.319L903.818 141.699H902.058ZM912.26 127.479L913.52 126.899C914.014 128.206 914.407 129.486 914.7 130.739C915.074 132.366 915.26 134.099 915.26 135.939C915.26 137.553 915.12 139.099 914.84 140.579C914.574 141.979 914.134 143.486 913.52 145.099L912.26 144.519C912.714 143.253 913.06 142.033 913.3 140.859C913.62 139.339 913.78 137.713 913.78 135.979C913.78 134.233 913.614 132.553 913.28 130.939C913.04 129.793 912.7 128.639 912.26 127.479Z" fill="#0B1530"/>
<path d="M749.36 160.679C750.027 160.879 750.6 161.219 751.08 161.699C751.76 162.366 752.1 163.153 752.1 164.059C752.1 165.019 751.74 165.859 751.02 166.579C750.073 167.526 748.727 167.999 746.98 167.999C745.26 167.999 743.933 167.533 743 166.599C742.267 165.866 741.9 165.019 741.9 164.059C741.9 163.633 741.993 163.199 742.18 162.759C742.367 162.306 742.6 161.939 742.88 161.659C743.32 161.219 743.88 160.893 744.56 160.679C744.08 160.493 743.68 160.239 743.36 159.919C742.76 159.319 742.46 158.613 742.46 157.799C742.46 156.813 742.827 155.973 743.56 155.279C744.44 154.466 745.627 154.059 747.12 154.059C748.587 154.059 749.733 154.486 750.56 155.339C751.213 155.993 751.54 156.806 751.54 157.779C751.54 158.619 751.267 159.313 750.72 159.859C750.36 160.219 749.907 160.493 749.36 160.679ZM747.04 156.379C746.587 156.379 746.22 156.533 745.94 156.839C745.673 157.133 745.54 157.473 745.54 157.859C745.54 158.193 745.68 158.513 745.96 158.819C746.24 159.113 746.593 159.259 747.02 159.259C747.407 159.259 747.733 159.126 748 158.859C748.307 158.553 748.46 158.213 748.46 157.839C748.46 157.413 748.307 157.059 748 156.779C747.707 156.513 747.387 156.379 747.04 156.379ZM747 162.079C746.587 162.079 746.213 162.233 745.88 162.539C745.56 162.859 745.4 163.226 745.4 163.639C745.4 164.079 745.553 164.453 745.86 164.759C746.18 165.079 746.56 165.239 747 165.239C747.44 165.239 747.813 165.086 748.12 164.779C748.44 164.459 748.6 164.079 748.6 163.639C748.6 163.199 748.44 162.833 748.12 162.539C747.8 162.233 747.427 162.079 747 162.079ZM761.352 160.679C762.019 160.879 762.592 161.219 763.072 161.699C763.752 162.366 764.092 163.153 764.092 164.059C764.092 165.019 763.732 165.859 763.012 166.579C762.066 167.526 760.719 167.999 758.972 167.999C757.252 167.999 755.926 167.533 754.992 166.599C754.259 165.866 753.892 165.019 753.892 164.059C753.892 163.633 753.986 163.199 754.172 162.759C754.359 162.306 754.592 161.939 754.872 161.659C755.312 161.219 755.872 160.893 756.552 160.679C756.072 160.493 755.672 160.239 755.352 159.919C754.752 159.319 754.452 158.613 754.452 157.799C754.452 156.813 754.819 155.973 755.552 155.279C756.432 154.466 757.619 154.059 759.112 154.059C760.579 154.059 761.726 154.486 762.552 155.339C763.206 155.993 763.532 156.806 763.532 157.779C763.532 158.619 763.259 159.313 762.712 159.859C762.352 160.219 761.899 160.493 761.352 160.679ZM759.032 156.379C758.579 156.379 758.212 156.533 757.932 156.839C757.666 157.133 757.532 157.473 757.532 157.859C757.532 158.193 757.672 158.513 757.952 158.819C758.232 159.113 758.586 159.259 759.012 159.259C759.399 159.259 759.726 159.126 759.992 158.859C760.299 158.553 760.452 158.213 760.452 157.839C760.452 157.413 760.299 157.059 759.992 156.779C759.699 156.513 759.379 156.379 759.032 156.379ZM758.992 162.079C758.579 162.079 758.206 162.233 757.872 162.539C757.552 162.859 757.392 163.226 757.392 163.639C757.392 164.079 757.546 164.453 757.852 164.759C758.172 165.079 758.552 165.239 758.992 165.239C759.432 165.239 759.806 165.086 760.112 164.779C760.432 164.459 760.592 164.079 760.592 163.639C760.592 163.199 760.432 162.833 760.112 162.539C759.792 162.233 759.419 162.079 758.992 162.079Z" fill="#0B1530"/>
<rect x="132" y="230.703" width="82" height="73" fill="#9FE4CB"/>
<rect x="214" y="230.703" width="41.16" height="73" fill="#FDB5B5"/>
<rect x="265.16" y="230.703" width="41.16" height="73" fill="#FDB5B5"/>
<rect x="316.32" y="230.703" width="41.16" height="73" fill="#FDB5B5"/>
<rect x="367.48" y="230.703" width="41.16" height="73" fill="#FDB5B5"/>
<rect x="418.64" y="230.703" width="41.16" height="73" fill="#FDB5B5"/>
<rect x="469.8" y="230.703" width="41.16" height="73" fill="#FDB5B5"/>
<rect x="520.96" y="230.703" width="41.16" height="73" fill="#FDB5B5"/>
<rect x="572.12" y="230.703" width="41.16" height="73" fill="#FDB5B5"/>
<rect x="623.28" y="230.703" width="41.16" height="73" fill="#FDB5B5"/>
<rect x="674.44" y="230.703" width="41.16" height="73" fill="#FDB5B5"/>
<rect x="725.6" y="230.703" width="41.16" height="73" fill="#FDB5B5"/>
<rect x="776.76" y="230.703" width="41.16" height="73" fill="#FDB5B5"/>
<rect x="817.92" y="230.703" width="82" height="73" fill="#9FE4CB"/>
<mask id="path-26-inside-1_808_2612" fill="white">
<path d="M265.703 230.342L265.703 217.342L306.703 217.342L306.703 230.342L265.703 230.342Z"/>
</mask>
<path d="M265.703 217.342L265.703 215.342L263.703 215.342L263.703 217.342L265.703 217.342ZM306.703 217.342L308.703 217.342L308.703 215.342L306.703 215.342L306.703 217.342ZM267.703 230.342L267.703 217.342L263.703 217.342L263.703 230.342L267.703 230.342ZM265.703 219.342L306.703 219.342L306.703 215.342L265.703 215.342L265.703 219.342ZM304.703 217.342L304.703 230.342L308.703 230.342L308.703 217.342L304.703 217.342Z" fill="#33F7C3" mask="url(#path-26-inside-1_808_2612)"/>
<rect x="307.656" y="206.591" width="42.9061" height="20.7027" rx="3.75176" transform="rotate(-180 307.656 206.591)" fill="#33F7C3"/>
<rect x="307.656" y="206.591" width="42.9061" height="20.7027" rx="3.75176" transform="rotate(-180 307.656 206.591)" stroke="#33F7C3" stroke-width="1.5007"/>
<path d="M275.1 200.86C274.498 200.86 273.96 200.749 273.489 200.527C273.02 200.305 272.647 200 272.372 199.61C272.096 199.221 271.952 198.775 271.941 198.272H273.732C273.751 198.61 273.894 198.884 274.158 199.095C274.422 199.305 274.736 199.41 275.1 199.41C275.39 199.41 275.646 199.346 275.867 199.218C276.092 199.087 276.267 198.907 276.392 198.677C276.52 198.444 276.584 198.177 276.584 197.875C276.584 197.568 276.518 197.298 276.388 197.065C276.26 196.832 276.082 196.65 275.855 196.52C275.627 196.389 275.367 196.322 275.075 196.319C274.819 196.319 274.57 196.372 274.328 196.477C274.09 196.582 273.903 196.726 273.77 196.907L272.129 196.613L272.542 192.009H277.88V193.518H274.064L273.838 195.705H273.889C274.043 195.489 274.274 195.31 274.584 195.168C274.894 195.026 275.241 194.955 275.624 194.955C276.15 194.955 276.619 195.078 277.031 195.326C277.444 195.573 277.769 195.913 278.008 196.345C278.246 196.774 278.364 197.268 278.362 197.828C278.364 198.417 278.228 198.94 277.952 199.397C277.679 199.852 277.297 200.21 276.805 200.472C276.317 200.73 275.748 200.86 275.1 200.86ZM283 200.86C282.551 200.857 282.118 200.781 281.7 200.634C281.285 200.486 280.912 200.246 280.583 199.913C280.253 199.581 279.992 199.14 279.798 198.591C279.608 198.043 279.513 197.369 279.513 196.571C279.516 195.837 279.599 195.182 279.764 194.605C279.932 194.025 280.171 193.534 280.48 193.13C280.793 192.727 281.167 192.42 281.602 192.209C282.037 191.996 282.524 191.889 283.064 191.889C283.647 191.889 284.161 192.003 284.607 192.231C285.054 192.455 285.412 192.761 285.682 193.147C285.955 193.534 286.119 193.967 286.176 194.448H284.356C284.285 194.143 284.136 193.905 283.908 193.731C283.681 193.558 283.399 193.471 283.064 193.471C282.496 193.471 282.064 193.718 281.768 194.213C281.475 194.708 281.326 195.38 281.32 196.23H281.38C281.511 195.971 281.687 195.751 281.909 195.569C282.133 195.384 282.388 195.243 282.672 195.147C282.959 195.047 283.262 194.997 283.58 194.997C284.097 194.997 284.558 195.12 284.961 195.364C285.365 195.606 285.683 195.938 285.916 196.362C286.149 196.785 286.266 197.27 286.266 197.816C286.266 198.407 286.128 198.933 285.852 199.393C285.579 199.853 285.197 200.214 284.705 200.476C284.217 200.735 283.648 200.862 283 200.86ZM282.992 199.41C283.276 199.41 283.53 199.342 283.755 199.205C283.979 199.069 284.155 198.884 284.283 198.651C284.411 198.418 284.475 198.157 284.475 197.867C284.475 197.577 284.411 197.317 284.283 197.087C284.158 196.856 283.985 196.673 283.763 196.537C283.542 196.4 283.289 196.332 283.004 196.332C282.791 196.332 282.594 196.372 282.412 196.451C282.233 196.531 282.075 196.642 281.939 196.784C281.805 196.926 281.7 197.091 281.623 197.278C281.546 197.463 281.508 197.661 281.508 197.871C281.508 198.152 281.572 198.41 281.7 198.643C281.831 198.876 282.007 199.062 282.228 199.201C282.453 199.34 282.707 199.41 282.992 199.41ZM287.592 203.196V194.192H289.382V195.292H289.463C289.543 195.115 289.658 194.936 289.809 194.754C289.962 194.57 290.161 194.416 290.406 194.294C290.653 194.169 290.96 194.106 291.326 194.106C291.804 194.106 292.244 194.232 292.648 194.482C293.052 194.729 293.374 195.103 293.616 195.603C293.857 196.1 293.978 196.724 293.978 197.474C293.978 198.205 293.86 198.822 293.624 199.325C293.391 199.825 293.073 200.204 292.669 200.463C292.269 200.719 291.82 200.847 291.322 200.847C290.97 200.847 290.67 200.789 290.423 200.672C290.178 200.555 289.978 200.409 289.821 200.233C289.665 200.054 289.546 199.873 289.463 199.691H289.408V203.196H287.592ZM289.37 197.466C289.37 197.855 289.424 198.195 289.532 198.485C289.64 198.775 289.796 199.001 290.001 199.163C290.205 199.322 290.454 199.402 290.747 199.402C291.042 199.402 291.292 199.321 291.497 199.159C291.702 198.994 291.857 198.766 291.962 198.476C292.07 198.184 292.124 197.847 292.124 197.466C292.124 197.088 292.071 196.755 291.966 196.468C291.861 196.181 291.706 195.957 291.501 195.795C291.297 195.633 291.045 195.552 290.747 195.552C290.451 195.552 290.201 195.63 289.996 195.786C289.794 195.943 289.64 196.164 289.532 196.451C289.424 196.738 289.37 197.077 289.37 197.466ZM296.472 194.192L297.675 196.481L298.907 194.192H300.77L298.873 197.466L300.821 200.74H298.966L297.675 198.476L296.404 200.74H294.528L296.472 197.466L294.596 194.192H296.472Z" fill="#0B1530"/>
<mask id="path-30-inside-2_808_2612" fill="white">
<path d="M132 230.105L132 217.105L214 217.105L214 230.105L132 230.105Z"/>
</mask>
<path d="M132 217.105L132 215.105L130 215.105L130 217.105L132 217.105ZM214 217.105L216 217.105L216 215.105L214 215.105L214 217.105ZM134 230.105L134 217.105L130 217.105L130 230.105L134 230.105ZM132 219.105L214 219.105L214 215.105L132 215.105L132 219.105ZM212 217.105L212 230.105L216 230.105L216 217.105L212 217.105Z" fill="#33F7C3" mask="url(#path-30-inside-2_808_2612)"/>
<rect x="194.953" y="206.355" width="43.9061" height="20.7027" rx="3.75176" transform="rotate(-180 194.953 206.355)" fill="#33F7C3"/>
<rect x="194.953" y="206.355" width="43.9061" height="20.7027" rx="3.75176" transform="rotate(-180 194.953 206.355)" stroke="#33F7C3" stroke-width="1.5007"/>
<path d="M161.465 200.623C160.808 200.623 160.224 200.517 159.713 200.304C159.204 200.088 158.805 199.793 158.515 199.421C158.225 199.049 158.08 198.627 158.08 198.155C158.08 197.791 158.162 197.457 158.327 197.153C158.495 196.846 158.722 196.592 159.009 196.39C159.296 196.185 159.617 196.054 159.973 195.998V195.938C159.507 195.844 159.129 195.618 158.839 195.26C158.549 194.899 158.404 194.48 158.404 194.002C158.404 193.55 158.536 193.148 158.8 192.796C159.065 192.44 159.427 192.162 159.887 191.96C160.351 191.755 160.877 191.653 161.465 191.653C162.053 191.653 162.578 191.755 163.038 191.96C163.501 192.165 163.865 192.445 164.13 192.8C164.394 193.152 164.527 193.553 164.53 194.002C164.527 194.483 164.38 194.902 164.087 195.26C163.794 195.618 163.419 195.844 162.961 195.938V195.998C163.311 196.054 163.628 196.185 163.912 196.39C164.199 196.592 164.427 196.846 164.594 197.153C164.765 197.457 164.851 197.791 164.854 198.155C164.851 198.627 164.705 199.049 164.415 199.421C164.125 199.793 163.725 200.088 163.213 200.304C162.704 200.517 162.121 200.623 161.465 200.623ZM161.465 199.268C161.758 199.268 162.013 199.215 162.232 199.11C162.451 199.002 162.622 198.854 162.744 198.666C162.869 198.476 162.932 198.257 162.932 198.01C162.932 197.757 162.868 197.534 162.74 197.34C162.612 197.144 162.438 196.991 162.22 196.88C162.001 196.766 161.749 196.71 161.465 196.71C161.184 196.71 160.932 196.766 160.71 196.88C160.489 196.991 160.314 197.144 160.186 197.34C160.061 197.534 159.998 197.757 159.998 198.01C159.998 198.257 160.059 198.476 160.182 198.666C160.304 198.854 160.476 199.002 160.698 199.11C160.919 199.215 161.175 199.268 161.465 199.268ZM161.465 195.367C161.709 195.367 161.927 195.317 162.117 195.217C162.308 195.118 162.457 194.98 162.565 194.804C162.673 194.628 162.727 194.424 162.727 194.194C162.727 193.967 162.673 193.768 162.565 193.597C162.457 193.424 162.309 193.289 162.121 193.192C161.934 193.093 161.715 193.043 161.465 193.043C161.218 193.043 160.999 193.093 160.808 193.192C160.618 193.289 160.469 193.424 160.361 193.597C160.256 193.768 160.203 193.967 160.203 194.194C160.203 194.424 160.257 194.628 160.365 194.804C160.473 194.98 160.622 195.118 160.813 195.217C161.003 195.317 161.22 195.367 161.465 195.367ZM169.402 200.623C168.746 200.623 168.162 200.517 167.65 200.304C167.141 200.088 166.742 199.793 166.452 199.421C166.162 199.049 166.017 198.627 166.017 198.155C166.017 197.791 166.1 197.457 166.264 197.153C166.432 196.846 166.659 196.592 166.947 196.39C167.234 196.185 167.555 196.054 167.91 195.998V195.938C167.444 195.844 167.066 195.618 166.776 195.26C166.486 194.899 166.341 194.48 166.341 194.002C166.341 193.55 166.473 193.148 166.738 192.796C167.002 192.44 167.364 192.162 167.825 191.96C168.288 191.755 168.814 191.653 169.402 191.653C169.991 191.653 170.515 191.755 170.975 191.96C171.439 192.165 171.803 192.445 172.067 192.8C172.331 193.152 172.465 193.553 172.468 194.002C172.465 194.483 172.317 194.902 172.024 195.26C171.731 195.618 171.356 195.844 170.899 195.938V195.998C171.248 196.054 171.565 196.185 171.849 196.39C172.136 196.592 172.364 196.846 172.532 197.153C172.702 197.457 172.789 197.791 172.792 198.155C172.789 198.627 172.642 199.049 172.352 199.421C172.063 199.793 171.662 200.088 171.15 200.304C170.641 200.517 170.059 200.623 169.402 200.623ZM169.402 199.268C169.695 199.268 169.951 199.215 170.17 199.11C170.388 199.002 170.559 198.854 170.681 198.666C170.806 198.476 170.869 198.257 170.869 198.01C170.869 197.757 170.805 197.534 170.677 197.34C170.549 197.144 170.376 196.991 170.157 196.88C169.938 196.766 169.686 196.71 169.402 196.71C169.121 196.71 168.869 196.766 168.648 196.88C168.426 196.991 168.251 197.144 168.123 197.34C167.998 197.534 167.936 197.757 167.936 198.01C167.936 198.257 167.997 198.476 168.119 198.666C168.241 198.854 168.413 199.002 168.635 199.11C168.857 199.215 169.112 199.268 169.402 199.268ZM169.402 195.367C169.647 195.367 169.864 195.317 170.055 195.217C170.245 195.118 170.394 194.98 170.502 194.804C170.61 194.628 170.664 194.424 170.664 194.194C170.664 193.967 170.61 193.768 170.502 193.597C170.394 193.424 170.246 193.289 170.059 193.192C169.871 193.093 169.652 193.043 169.402 193.043C169.155 193.043 168.936 193.093 168.746 193.192C168.555 193.289 168.406 193.424 168.298 193.597C168.193 193.768 168.14 193.967 168.14 194.194C168.14 194.424 168.194 194.628 168.302 194.804C168.41 194.98 168.56 195.118 168.75 195.217C168.94 195.317 169.158 195.367 169.402 195.367ZM174.099 202.96V193.955H175.89V195.055H175.971C176.051 194.879 176.166 194.7 176.316 194.518C176.47 194.333 176.669 194.18 176.913 194.058C177.16 193.933 177.467 193.87 177.834 193.87C178.312 193.87 178.752 193.995 179.156 194.245C179.559 194.493 179.882 194.866 180.124 195.367C180.365 195.864 180.486 196.488 180.486 197.238C180.486 197.969 180.368 198.585 180.132 199.088C179.899 199.589 179.581 199.968 179.177 200.227C178.776 200.483 178.327 200.61 177.83 200.61C177.477 200.61 177.178 200.552 176.93 200.436C176.686 200.319 176.485 200.173 176.329 199.997C176.173 199.818 176.053 199.637 175.971 199.455H175.916V202.96H174.099ZM175.877 197.23C175.877 197.619 175.931 197.959 176.039 198.249C176.147 198.538 176.304 198.764 176.508 198.926C176.713 199.086 176.962 199.165 177.254 199.165C177.55 199.165 177.8 199.084 178.005 198.922C178.209 198.757 178.364 198.53 178.469 198.24C178.577 197.947 178.631 197.611 178.631 197.23C178.631 196.852 178.579 196.519 178.474 196.232C178.368 195.945 178.214 195.72 178.009 195.558C177.804 195.396 177.553 195.315 177.254 195.315C176.959 195.315 176.709 195.394 176.504 195.55C176.302 195.706 176.147 195.928 176.039 196.215C175.931 196.502 175.877 196.84 175.877 197.23ZM182.98 193.955L184.182 196.245L185.414 193.955H187.277L185.38 197.23L187.329 200.504H185.474L184.182 198.24L182.912 200.504H181.036L182.98 197.23L181.104 193.955H182.98Z" fill="#0B1530"/>
<mask id="path-34-inside-3_808_2612" fill="white">
<path d="M357.797 229.902L357.797 216.902L367.797 216.902L367.797 229.902L357.797 229.902Z"/>
</mask>
<path d="M357.797 216.902L357.797 214.902L355.797 214.902L355.797 216.902L357.797 216.902ZM367.797 216.902L369.797 216.902L369.797 214.902L367.797 214.902L367.797 216.902ZM359.797 229.902L359.797 216.902L355.797 216.902L355.797 229.902L359.797 229.902ZM357.797 218.902L367.797 218.902L367.797 214.902L357.797 214.902L357.797 218.902ZM365.797 216.902L365.797 229.902L369.797 229.902L369.797 216.902L365.797 216.902Z" fill="#33F7C3" mask="url(#path-34-inside-3_808_2612)"/>
<rect x="383.75" y="206.152" width="41.9061" height="20.7027" rx="3.75176" transform="rotate(-180 383.75 206.152)" fill="#33F7C3"/>
<rect x="383.75" y="206.152" width="41.9061" height="20.7027" rx="3.75176" transform="rotate(-180 383.75 206.152)" stroke="#33F7C3" stroke-width="1.5007"/>
<path d="M352.803 191.569V200.301H350.957V193.322H350.906L348.906 194.575V192.938L351.068 191.569H352.803ZM358.229 200.42C357.78 200.417 357.347 200.342 356.929 200.194C356.514 200.046 356.142 199.806 355.812 199.474C355.482 199.141 355.221 198.701 355.027 198.152C354.837 197.603 354.742 196.93 354.742 196.131C354.745 195.398 354.828 194.743 354.993 194.166C355.161 193.586 355.4 193.094 355.71 192.691C356.022 192.287 356.396 191.98 356.831 191.77C357.266 191.557 357.753 191.45 358.293 191.45C358.876 191.45 359.39 191.564 359.836 191.791C360.283 192.016 360.641 192.321 360.911 192.708C361.184 193.094 361.349 193.528 361.405 194.008H359.585C359.514 193.704 359.365 193.465 359.137 193.292C358.91 193.118 358.629 193.032 358.293 193.032C357.725 193.032 357.293 193.279 356.997 193.774C356.704 194.268 356.555 194.94 356.549 195.79H356.609C356.74 195.532 356.916 195.311 357.138 195.129C357.362 194.945 357.617 194.804 357.901 194.707C358.188 194.608 358.491 194.558 358.809 194.558C359.326 194.558 359.787 194.68 360.19 194.925C360.594 195.166 360.912 195.499 361.145 195.922C361.378 196.346 361.495 196.83 361.495 197.376C361.495 197.967 361.357 198.493 361.081 198.954C360.809 199.414 360.426 199.775 359.935 200.036C359.446 200.295 358.877 200.423 358.229 200.42ZM358.221 198.971C358.505 198.971 358.759 198.902 358.984 198.766C359.208 198.63 359.385 198.445 359.512 198.212C359.64 197.979 359.704 197.717 359.704 197.427C359.704 197.137 359.64 196.877 359.512 196.647C359.387 196.417 359.214 196.234 358.992 196.097C358.771 195.961 358.518 195.892 358.233 195.892C358.02 195.892 357.823 195.932 357.641 196.012C357.462 196.091 357.304 196.202 357.168 196.344C357.034 196.486 356.929 196.651 356.852 196.839C356.775 197.024 356.737 197.221 356.737 197.432C356.737 197.713 356.801 197.97 356.929 198.203C357.06 198.436 357.236 198.622 357.458 198.762C357.682 198.901 357.936 198.971 358.221 198.971ZM362.821 202.756V193.752H364.611V194.852H364.692C364.772 194.676 364.887 194.497 365.038 194.315C365.191 194.13 365.39 193.977 365.635 193.855C365.882 193.73 366.189 193.667 366.556 193.667C367.033 193.667 367.474 193.792 367.877 194.042C368.281 194.289 368.603 194.663 368.845 195.163C369.087 195.661 369.207 196.285 369.207 197.035C369.207 197.766 369.089 198.382 368.853 198.885C368.62 199.386 368.302 199.765 367.899 200.024C367.498 200.279 367.049 200.407 366.551 200.407C366.199 200.407 365.899 200.349 365.652 200.233C365.407 200.116 365.207 199.97 365.051 199.793C364.894 199.614 364.775 199.434 364.692 199.252H364.637V202.756H362.821ZM364.599 197.027C364.599 197.416 364.653 197.756 364.761 198.045C364.869 198.335 365.025 198.561 365.23 198.723C365.434 198.883 365.683 198.962 365.976 198.962C366.271 198.962 366.521 198.881 366.726 198.719C366.931 198.554 367.086 198.327 367.191 198.037C367.299 197.744 367.353 197.407 367.353 197.027C367.353 196.649 367.3 196.316 367.195 196.029C367.09 195.742 366.935 195.517 366.73 195.355C366.526 195.193 366.274 195.112 365.976 195.112C365.68 195.112 365.43 195.19 365.225 195.347C365.024 195.503 364.869 195.725 364.761 196.012C364.653 196.299 364.599 196.637 364.599 197.027ZM371.701 193.752L372.904 196.042L374.136 193.752H375.999L374.102 197.027L376.05 200.301H374.195L372.904 198.037L371.633 200.301H369.757L371.701 197.027L369.826 193.752H371.701Z" fill="#0B1530"/>
<rect x="541.953" y="349.568" width="51.9061" height="20.7027" rx="3.75176" transform="rotate(-180 541.953 349.568)" fill="#33F7C3"/>
<rect x="541.953" y="349.568" width="51.9061" height="20.7027" rx="3.75176" transform="rotate(-180 541.953 349.568)" stroke="#33F7C3" stroke-width="1.5007"/>
<path d="M500.465 343.836C499.808 343.836 499.224 343.73 498.713 343.516C498.204 343.3 497.805 343.006 497.515 342.634C497.225 342.262 497.08 341.839 497.08 341.368C497.08 341.004 497.162 340.67 497.327 340.366C497.495 340.059 497.722 339.804 498.009 339.603C498.296 339.398 498.617 339.267 498.973 339.21V339.151C498.507 339.057 498.129 338.831 497.839 338.473C497.549 338.112 497.404 337.693 497.404 337.215C497.404 336.763 497.536 336.361 497.8 336.009C498.065 335.653 498.427 335.375 498.887 335.173C499.351 334.968 499.877 334.866 500.465 334.866C501.053 334.866 501.578 334.968 502.038 335.173C502.501 335.378 502.865 335.658 503.13 336.013C503.394 336.365 503.527 336.766 503.53 337.215C503.527 337.696 503.38 338.115 503.087 338.473C502.794 338.831 502.419 339.057 501.961 339.151V339.21C502.311 339.267 502.628 339.398 502.912 339.603C503.199 339.804 503.427 340.059 503.594 340.366C503.765 340.67 503.851 341.004 503.854 341.368C503.851 341.839 503.705 342.262 503.415 342.634C503.125 343.006 502.725 343.3 502.213 343.516C501.704 343.73 501.121 343.836 500.465 343.836ZM500.465 342.48C500.758 342.48 501.013 342.428 501.232 342.323C501.451 342.215 501.622 342.067 501.744 341.879C501.869 341.689 501.932 341.47 501.932 341.223C501.932 340.97 501.868 340.747 501.74 340.553C501.612 340.357 501.438 340.204 501.22 340.093C501.001 339.979 500.749 339.922 500.465 339.922C500.184 339.922 499.932 339.979 499.71 340.093C499.489 340.204 499.314 340.357 499.186 340.553C499.061 340.747 498.998 340.97 498.998 341.223C498.998 341.47 499.059 341.689 499.182 341.879C499.304 342.067 499.476 342.215 499.698 342.323C499.919 342.428 500.175 342.48 500.465 342.48ZM500.465 338.579C500.709 338.579 500.927 338.53 501.117 338.43C501.308 338.331 501.457 338.193 501.565 338.017C501.673 337.84 501.727 337.637 501.727 337.407C501.727 337.18 501.673 336.981 501.565 336.81C501.457 336.637 501.309 336.502 501.121 336.405C500.934 336.306 500.715 336.256 500.465 336.256C500.218 336.256 499.999 336.306 499.808 336.405C499.618 336.502 499.469 336.637 499.361 336.81C499.256 336.981 499.203 337.18 499.203 337.407C499.203 337.637 499.257 337.84 499.365 338.017C499.473 338.193 499.622 338.331 499.813 338.43C500.003 338.53 500.22 338.579 500.465 338.579ZM505.013 342.182V340.728L508.658 334.985H509.911V336.998H509.17L506.872 340.634V340.703H512.052V342.182H505.013ZM509.204 343.717V341.739L509.238 341.095V334.985H510.969V343.717H509.204ZM516.539 343.836C515.882 343.836 515.298 343.73 514.787 343.516C514.278 343.3 513.879 343.006 513.589 342.634C513.299 342.262 513.154 341.839 513.154 341.368C513.154 341.004 513.236 340.67 513.401 340.366C513.569 340.059 513.796 339.804 514.083 339.603C514.37 339.398 514.691 339.267 515.047 339.21V339.151C514.581 339.057 514.203 338.831 513.913 338.473C513.623 338.112 513.478 337.693 513.478 337.215C513.478 336.763 513.61 336.361 513.874 336.009C514.139 335.653 514.501 335.375 514.961 335.173C515.425 334.968 515.951 334.866 516.539 334.866C517.127 334.866 517.652 334.968 518.112 335.173C518.575 335.378 518.939 335.658 519.203 336.013C519.468 336.365 519.601 336.766 519.604 337.215C519.601 337.696 519.454 338.115 519.161 338.473C518.868 338.831 518.493 339.057 518.035 339.151V339.21C518.385 339.267 518.702 339.398 518.986 339.603C519.273 339.804 519.5 340.059 519.668 340.366C519.839 340.67 519.925 341.004 519.928 341.368C519.925 341.839 519.779 342.262 519.489 342.634C519.199 343.006 518.798 343.3 518.287 343.516C517.778 343.73 517.195 343.836 516.539 343.836ZM516.539 342.48C516.832 342.48 517.087 342.428 517.306 342.323C517.525 342.215 517.696 342.067 517.818 341.879C517.943 341.689 518.005 341.47 518.005 341.223C518.005 340.97 517.942 340.747 517.814 340.553C517.686 340.357 517.512 340.204 517.293 340.093C517.075 339.979 516.823 339.922 516.539 339.922C516.257 339.922 516.006 339.979 515.784 340.093C515.563 340.204 515.388 340.357 515.26 340.553C515.135 340.747 515.072 340.97 515.072 341.223C515.072 341.47 515.133 341.689 515.256 341.879C515.378 342.067 515.55 342.215 515.771 342.323C515.993 342.428 516.249 342.48 516.539 342.48ZM516.539 338.579C516.783 338.579 517.001 338.53 517.191 338.43C517.382 338.331 517.531 338.193 517.639 338.017C517.747 337.84 517.801 337.637 517.801 337.407C517.801 337.18 517.747 336.981 517.639 336.81C517.531 336.637 517.383 336.502 517.195 336.405C517.008 336.306 516.789 336.256 516.539 336.256C516.292 336.256 516.073 336.306 515.882 336.405C515.692 336.502 515.543 336.637 515.435 336.81C515.329 336.981 515.277 337.18 515.277 337.407C515.277 337.637 515.331 337.84 515.439 338.017C515.547 338.193 515.696 338.331 515.887 338.43C516.077 338.53 516.294 338.579 516.539 338.579ZM521.236 346.172V337.168H523.027V338.268H523.108C523.187 338.092 523.302 337.913 523.453 337.731C523.606 337.546 523.805 337.393 524.05 337.271C524.297 337.146 524.604 337.083 524.971 337.083C525.448 337.083 525.889 337.208 526.292 337.458C526.696 337.705 527.019 338.079 527.26 338.579C527.502 339.077 527.623 339.701 527.623 340.451C527.623 341.182 527.505 341.798 527.269 342.301C527.036 342.802 526.717 343.181 526.314 343.44C525.913 343.695 525.464 343.823 524.966 343.823C524.614 343.823 524.314 343.765 524.067 343.649C523.822 343.532 523.622 343.386 523.466 343.209C523.309 343.03 523.19 342.85 523.108 342.668H523.052V346.172H521.236ZM523.014 340.443C523.014 340.832 523.068 341.172 523.176 341.461C523.284 341.751 523.44 341.977 523.645 342.139C523.849 342.299 524.098 342.378 524.391 342.378C524.687 342.378 524.937 342.297 525.141 342.135C525.346 341.97 525.501 341.743 525.606 341.453C525.714 341.16 525.768 340.823 525.768 340.443C525.768 340.065 525.715 339.732 525.61 339.445C525.505 339.158 525.35 338.933 525.146 338.771C524.941 338.609 524.689 338.528 524.391 338.528C524.095 338.528 523.845 338.606 523.641 338.763C523.439 338.919 523.284 339.141 523.176 339.428C523.068 339.715 523.014 340.053 523.014 340.443ZM530.117 337.168L531.319 339.458L532.551 337.168H534.414L532.517 340.443L534.465 343.717H532.611L531.319 341.453L530.048 343.717H528.173L530.117 340.443L528.241 337.168H530.117Z" fill="#0B1530"/>
<mask id="path-40-inside-4_808_2612" fill="white">
<path d="M818 305.115L818 318.115L214 318.115L214 305.115L818 305.115Z"/>
</mask>
<path d="M818 318.115L818 320.115L820 320.115L820 318.115L818 318.115ZM214 318.115L212 318.115L212 320.115L214 320.115L214 318.115ZM816 305.115L816 318.115L820 318.115L820 305.115L816 305.115ZM818 316.115L214 316.115L214 320.115L818 320.115L818 316.115ZM216 318.115L216 305.115L212 305.115L212 318.115L216 318.115Z" fill="#33F7C3" mask="url(#path-40-inside-4_808_2612)"/>
</svg>
