<svg width="418" height="192" viewBox="0 0 418 192" fill="none" xmlns="http://www.w3.org/2000/svg">
<rect y="0.798828" width="418" height="190.77" rx="24" fill="#F5F6F8"/>
<rect x="177.64" y="31.5492" width="34.9061" height="20.7027" rx="3.75176" fill="#33F7C3"/>
<rect x="177.64" y="31.5492" width="34.9061" height="20.7027" rx="3.75176" stroke="#33F7C3" stroke-width="1.5007"/>
<path d="M184.801 46.4004V45.0702L187.909 42.1925C188.173 41.9367 188.395 41.7064 188.574 41.5018C188.756 41.2971 188.894 41.0968 188.988 40.9007C189.081 40.7017 189.128 40.4871 189.128 40.2569C189.128 40.0011 189.07 39.7808 188.953 39.5961C188.837 39.4085 188.678 39.2649 188.476 39.1655C188.274 39.0631 188.045 39.012 187.79 39.012C187.522 39.012 187.289 39.066 187.09 39.174C186.891 39.282 186.738 39.4369 186.63 39.6387C186.522 39.8405 186.468 40.0807 186.468 40.3592H184.716C184.716 39.7879 184.845 39.2919 185.104 38.8713C185.362 38.4506 185.725 38.1252 186.191 37.895C186.657 37.6648 187.194 37.5497 187.802 37.5497C188.428 37.5497 188.972 37.6605 189.435 37.8822C189.901 38.101 190.264 38.4052 190.522 38.7946C190.781 39.1839 190.91 39.6302 190.91 40.1332C190.91 40.4629 190.845 40.7884 190.714 41.1096C190.586 41.4307 190.358 41.7874 190.028 42.1797C189.698 42.569 189.233 43.0366 188.634 43.5823L187.359 44.8315V44.8912H191.025V46.4004H184.801ZM192.38 48.8561V39.8519H194.171V40.9518H194.252C194.331 40.7756 194.446 40.5965 194.597 40.4146C194.751 40.2299 194.95 40.0764 195.194 39.9542C195.441 39.8291 195.748 39.7666 196.115 39.7666C196.592 39.7666 197.033 39.8917 197.437 40.1418C197.84 40.3891 198.163 40.7628 198.404 41.263C198.646 41.7604 198.767 42.3843 198.767 43.1347C198.767 43.8651 198.649 44.4819 198.413 44.985C198.18 45.4852 197.861 45.8646 197.458 46.1233C197.057 46.3791 196.608 46.507 196.111 46.507C195.758 46.507 195.458 46.4487 195.211 46.3322C194.967 46.2156 194.766 46.0693 194.61 45.8931C194.454 45.714 194.334 45.5335 194.252 45.3516H194.196V48.8561H192.38ZM194.158 43.1261C194.158 43.5155 194.212 43.8552 194.32 44.1451C194.428 44.435 194.584 44.6609 194.789 44.8229C194.994 44.9821 195.242 45.0617 195.535 45.0617C195.831 45.0617 196.081 44.9807 196.285 44.8187C196.49 44.6538 196.645 44.4265 196.75 44.1365C196.858 43.8438 196.912 43.507 196.912 43.1261C196.912 42.7481 196.86 42.4156 196.754 42.1285C196.649 41.8414 196.494 41.6169 196.29 41.4549C196.085 41.2929 195.833 41.2119 195.535 41.2119C195.239 41.2119 194.989 41.29 194.785 41.4464C194.583 41.6027 194.428 41.8244 194.32 42.1114C194.212 42.3985 194.158 42.7367 194.158 43.1261ZM201.261 39.8519L202.463 42.1413L203.695 39.8519H205.558L203.661 43.1261L205.609 46.4004H203.755L202.463 44.1365L201.193 46.4004H199.317L201.261 43.1261L199.385 39.8519H201.261Z" fill="#0B1530"/>
<path d="M190.607 102.799L190.607 62.7983" stroke="#33F7C3" stroke-width="2"/>
<path d="M199.595 102.799L199.595 62.7983" stroke="#33F7C3" stroke-width="2"/>
<path d="M200.593 62.7988H189.593" stroke="#33F7C3" stroke-width="2"/>
<rect x="123" y="77.002" width="172.571" height="64.5714" rx="18.2857" fill="#457BF8"/>
<path d="M177.857 100.146V118.432" stroke="white" stroke-width="2.28571" stroke-linecap="round"/>
<path d="M187 109.289L168.714 109.289" stroke="white" stroke-width="2.28571" stroke-linecap="round"/>
<path d="M200.394 102.041H203.137C204.661 102.041 205.827 102.361 206.634 103.001C207.549 103.702 208.006 104.754 208.006 106.156C208.006 107.466 207.503 108.464 206.497 109.15C207.473 109.394 208.196 109.889 208.669 110.636C209.156 111.367 209.4 112.152 209.4 112.99C209.4 113.676 209.248 114.308 208.943 114.887C208.653 115.466 208.288 115.931 207.846 116.281C206.993 116.952 205.773 117.287 204.189 117.287H200.394V102.041ZM202.086 103.641V108.739H203.366C203.594 108.739 203.815 108.731 204.029 108.716C204.242 108.685 204.493 108.624 204.783 108.533C205.088 108.426 205.347 108.289 205.56 108.121C205.789 107.954 205.979 107.702 206.132 107.367C206.284 107.032 206.36 106.643 206.36 106.201C206.36 105.729 206.269 105.325 206.086 104.99C205.903 104.639 205.697 104.38 205.469 104.213C205.24 104.045 204.966 103.916 204.646 103.824C204.326 103.733 204.082 103.679 203.914 103.664C203.747 103.649 203.579 103.641 203.412 103.641H202.086ZM202.086 110.247V115.687H204.029C205.263 115.687 206.154 115.474 206.703 115.047C207.373 114.559 207.709 113.859 207.709 112.944C207.709 111.923 207.274 111.177 206.406 110.704C205.857 110.399 204.996 110.247 203.823 110.247H202.086ZM213.749 107.801V113.333C213.749 114.293 213.902 114.971 214.206 115.367C214.587 115.855 215.144 116.099 215.875 116.099C216.606 116.099 217.163 115.855 217.544 115.367C217.848 114.971 218.001 114.293 218.001 113.333V107.801H219.646V113.516C219.646 114.796 219.357 115.748 218.778 116.373C218.031 117.165 217.064 117.561 215.875 117.561C214.686 117.561 213.719 117.165 212.972 116.373C212.393 115.748 212.104 114.796 212.104 113.516V107.801H213.749ZM226.088 109.31H224.442V117.287H222.797V109.31H221.791V107.801H222.797V104.373H224.442V107.801H226.088V109.31ZM231.423 109.31H229.777V117.287H228.131V109.31H227.126V107.801H228.131V104.373H229.777V107.801H231.423V109.31ZM240.997 116.144C240.052 117.089 238.856 117.561 237.408 117.561C235.961 117.561 234.757 117.089 233.797 116.144C232.852 115.199 232.38 114.011 232.38 112.579C232.38 111.131 232.852 109.935 233.797 108.99C234.757 108.045 235.961 107.573 237.408 107.573C238.856 107.573 240.052 108.045 240.997 108.99C241.957 109.935 242.437 111.131 242.437 112.579C242.437 114.011 241.957 115.199 240.997 116.144ZM239.763 109.973C239.123 109.348 238.338 109.036 237.408 109.036C236.479 109.036 235.686 109.356 235.031 109.996C234.391 110.62 234.071 111.481 234.071 112.579C234.071 113.676 234.399 114.537 235.054 115.161C235.709 115.786 236.494 116.099 237.408 116.099C238.323 116.099 239.107 115.786 239.763 115.161C240.418 114.537 240.745 113.676 240.745 112.579C240.745 111.466 240.418 110.598 239.763 109.973ZM244.961 117.287V107.801H246.606V108.899C247.277 108.015 248.184 107.573 249.326 107.573C250.545 107.573 251.452 108.007 252.046 108.876C252.412 109.409 252.595 110.255 252.595 111.413V117.287H250.949V111.459C250.949 110.681 250.804 110.102 250.515 109.721C250.164 109.264 249.646 109.036 248.961 109.036C248.26 109.036 247.704 109.279 247.292 109.767C246.835 110.3 246.606 111.154 246.606 112.327V117.287H244.961Z" fill="white"/>
</svg>
