<svg width="1032" height="399" viewBox="0 0 1032 399" fill="none" xmlns="http://www.w3.org/2000/svg">
<rect y="0.5" width="1032" height="398.2" rx="24" fill="#F5F6F8"/>
<path d="M43.892 57.824H58.004V72.748H60.244V80.7H55.876V76.5H44.508V80.7H40.14V72.748C40.9613 72.6173 41.6707 72.244 42.268 71.628C42.9213 70.956 43.3507 70.144 43.556 69.192C43.78 68.2213 43.892 66.9893 43.892 65.496V57.824ZM48.596 61.576V65.972C48.596 67.5213 48.4467 68.828 48.148 69.892C47.8307 71.012 47.2893 71.964 46.524 72.748H53.132V61.576H48.596ZM75.6206 70.592V71.068H66.2966C66.2966 71.9453 66.5579 72.6453 67.0806 73.168C67.4913 73.5787 68.1073 73.784 68.9286 73.784C69.4886 73.784 69.9739 73.672 70.3846 73.448C70.7393 73.2427 71.0006 72.9627 71.1686 72.608H75.4526C75.1726 73.616 74.6686 74.4747 73.9406 75.184C72.7459 76.3413 71.0473 76.92 68.8446 76.92C66.6606 76.92 64.9339 76.2853 63.6646 75.016C62.4326 73.784 61.8166 72.2067 61.8166 70.284C61.8166 68.268 62.4419 66.6533 63.6926 65.44C64.9433 64.2267 66.6513 63.62 68.8166 63.62C70.8139 63.62 72.4193 64.1893 73.6326 65.328C74.9579 66.5973 75.6206 68.352 75.6206 70.592ZM66.4366 68.492H71.5046C71.3739 67.9507 71.1313 67.5027 70.7766 67.148C70.3286 66.7 69.7126 66.476 68.9286 66.476C68.1633 66.476 67.5566 66.7 67.1086 67.148C66.7353 67.5587 66.5113 68.0067 66.4366 68.492ZM87.672 72.468V76.22C86.72 76.6867 85.684 76.92 84.564 76.92C82.5853 76.92 80.9426 76.2853 79.636 75.016C78.348 73.7653 77.704 72.2067 77.704 70.34C77.704 68.4173 78.376 66.8027 79.72 65.496C81.0453 64.2267 82.7253 63.592 84.76 63.592C85.768 63.592 86.7386 63.8253 87.672 64.292V68.044C86.9066 67.5027 86.132 67.232 85.348 67.232C84.4706 67.232 83.7426 67.5213 83.164 68.1C82.5853 68.6787 82.296 69.3973 82.296 70.256C82.296 71.0773 82.5573 71.7773 83.08 72.356C83.6773 72.9907 84.4426 73.308 85.376 73.308C86.2533 73.308 87.0186 73.028 87.672 72.468ZM90.2119 76.5V63.984H94.6919V69.108L98.4719 63.984H104.1L98.9199 69.864L104.576 76.5H98.7799L94.6919 70.956V76.5H90.2119ZM108.141 76.5V67.652H104.893V63.984H115.869V67.652H112.621V76.5H108.141ZM124.72 67.372C123.955 67.372 123.283 67.6427 122.704 68.184C122.126 68.7253 121.836 69.4067 121.836 70.228C121.836 70.9747 122.126 71.6373 122.704 72.216C123.264 72.776 123.936 73.056 124.72 73.056C125.486 73.056 126.148 72.776 126.708 72.216C127.287 71.6747 127.576 71.012 127.576 70.228C127.576 69.444 127.287 68.7627 126.708 68.184C126.13 67.6427 125.467 67.372 124.72 67.372ZM130.292 65.636C131.58 66.8867 132.224 68.4173 132.224 70.228C132.224 72.0387 131.58 73.5787 130.292 74.848C128.892 76.2293 127.026 76.92 124.692 76.92C122.378 76.92 120.52 76.2293 119.12 74.848C117.832 73.5787 117.188 72.0387 117.188 70.228C117.188 68.4173 117.832 66.8867 119.12 65.636C120.539 64.2547 122.396 63.564 124.692 63.564C126.97 63.564 128.836 64.2547 130.292 65.636ZM134.81 76.5V63.984H147.774V76.5H143.294V67.512H139.29V76.5H134.81ZM150.86 76.5V63.984H155.34V68.212H159.512V63.984H163.992V76.5H159.512V71.74H155.34V76.5H150.86ZM176.763 65.188V63.984H181.243V76.5H176.763V75.128C175.904 76.3227 174.607 76.92 172.871 76.92C171.116 76.92 169.614 76.2573 168.363 74.932C167.168 73.6627 166.571 72.132 166.571 70.34C166.571 68.2867 167.215 66.616 168.503 65.328C169.679 64.152 171.182 63.564 173.011 63.564C174.542 63.564 175.792 64.1053 176.763 65.188ZM174.019 67.372C173.272 67.372 172.619 67.6427 172.059 68.184C171.462 68.7627 171.163 69.444 171.163 70.228C171.163 71.0493 171.452 71.7307 172.031 72.272C172.628 72.832 173.3 73.112 174.047 73.112C174.812 73.112 175.484 72.8227 176.063 72.244C176.623 71.684 176.903 71.012 176.903 70.228C176.903 69.4253 176.614 68.744 176.035 68.184C175.456 67.6427 174.784 67.372 174.019 67.372ZM183.573 76.5L187.045 72.132C186.186 71.964 185.458 71.6 184.861 71.04C184.208 70.3867 183.881 69.4907 183.881 68.352C183.881 67.1013 184.254 66.084 185.001 65.3C185.822 64.4227 187.241 63.984 189.257 63.984H195.865V76.5H191.385V72.524H191.021L188.277 76.5H183.573ZM191.385 69.78V66.896H190.041C189.388 66.896 188.921 67.0267 188.641 67.288C188.38 67.5493 188.249 67.904 188.249 68.352C188.249 68.8187 188.389 69.1733 188.669 69.416C188.968 69.6587 189.406 69.78 189.985 69.78H191.385ZM205.493 63.984H213.165C214.658 63.984 215.722 64.2827 216.357 64.88C216.936 65.4213 217.225 66.1493 217.225 67.064C217.225 67.792 217.048 68.4173 216.693 68.94C216.394 69.3693 215.937 69.7147 215.321 69.976V70.032C216.049 70.1813 216.646 70.4707 217.113 70.9C217.71 71.4413 218.009 72.16 218.009 73.056C218.009 74.064 217.71 74.8667 217.113 75.464C216.422 76.1547 215.405 76.5 214.061 76.5H205.493V63.984ZM209.973 68.968H211.653C212.194 68.968 212.577 68.8747 212.801 68.688C213.025 68.4827 213.137 68.184 213.137 67.792C213.137 67.4373 213.034 67.176 212.829 67.008C212.605 66.8027 212.204 66.7 211.625 66.7H209.973V68.968ZM209.973 73.784H211.961C212.428 73.784 212.792 73.6627 213.053 73.42C213.296 73.1773 213.417 72.8787 213.417 72.524C213.417 72.132 213.305 71.824 213.081 71.6C212.876 71.3947 212.502 71.292 211.961 71.292H209.973V73.784ZM233.585 70.592V71.068H224.261C224.261 71.9453 224.523 72.6453 225.045 73.168C225.456 73.5787 226.072 73.784 226.893 73.784C227.453 73.784 227.939 73.672 228.349 73.448C228.704 73.2427 228.965 72.9627 229.133 72.608H233.417C233.137 73.616 232.633 74.4747 231.905 75.184C230.711 76.3413 229.012 76.92 226.809 76.92C224.625 76.92 222.899 76.2853 221.629 75.016C220.397 73.784 219.781 72.2067 219.781 70.284C219.781 68.268 220.407 66.6533 221.657 65.44C222.908 64.2267 224.616 63.62 226.781 63.62C228.779 63.62 230.384 64.1893 231.597 65.328C232.923 66.5973 233.585 68.352 233.585 70.592ZM224.401 68.492H229.469C229.339 67.9507 229.096 67.5027 228.741 67.148C228.293 66.7 227.677 66.476 226.893 66.476C226.128 66.476 225.521 66.7 225.073 67.148C224.7 67.5587 224.476 68.0067 224.401 68.492ZM240.653 75.296V82.912H236.173V63.984H240.653V65.356C241.605 64.1613 242.883 63.564 244.489 63.564C246.243 63.564 247.727 64.1707 248.941 65.384C250.21 66.6533 250.845 68.268 250.845 70.228C250.845 72.2253 250.173 73.8773 248.829 75.184C247.653 76.3413 246.225 76.92 244.545 76.92C242.995 76.92 241.698 76.3787 240.653 75.296ZM243.397 67.372C242.613 67.372 241.941 67.652 241.381 68.212C240.802 68.7907 240.513 69.4813 240.513 70.284C240.513 71.0307 240.802 71.6933 241.381 72.272C241.941 72.832 242.613 73.112 243.397 73.112C244.199 73.112 244.862 72.832 245.385 72.272C245.963 71.6933 246.253 71.0307 246.253 70.284C246.253 69.4813 245.963 68.7907 245.385 68.212C244.862 67.652 244.199 67.372 243.397 67.372ZM262.891 72.468V76.22C261.939 76.6867 260.903 76.92 259.783 76.92C257.804 76.92 256.161 76.2853 254.855 75.016C253.567 73.7653 252.923 72.2067 252.923 70.34C252.923 68.4173 253.595 66.8027 254.939 65.496C256.264 64.2267 257.944 63.592 259.979 63.592C260.987 63.592 261.957 63.8253 262.891 64.292V68.044C262.125 67.5027 261.351 67.232 260.567 67.232C259.689 67.232 258.961 67.5213 258.383 68.1C257.804 68.6787 257.515 69.3973 257.515 70.256C257.515 71.0773 257.776 71.7773 258.299 72.356C258.896 72.9907 259.661 73.308 260.595 73.308C261.472 73.308 262.237 73.028 262.891 72.468ZM265.431 63.984H269.911V70.424L274.867 63.984H278.759V76.5H274.279V69.892L269.379 76.5H265.431V63.984ZM281.081 76.5L284.553 72.132C283.694 71.964 282.966 71.6 282.369 71.04C281.716 70.3867 281.389 69.4907 281.389 68.352C281.389 67.1013 281.762 66.084 282.509 65.3C283.33 64.4227 284.749 63.984 286.765 63.984H293.373V76.5H288.893V72.524H288.529L285.785 76.5H281.081ZM288.893 69.78V66.896H287.549C286.896 66.896 286.429 67.0267 286.149 67.288C285.888 67.5493 285.757 67.904 285.757 68.352C285.757 68.8187 285.897 69.1733 286.177 69.416C286.476 69.6587 286.914 69.78 287.493 69.78H288.893ZM308.013 76.5V61.94H305.353V57.824H312.857V76.5H308.013ZM328.937 57.824V69.248H331.205V72.972H328.937V76.5H324.457V72.972H315.413V69.864L322.609 57.824H328.937ZM320.061 69.248H324.457V61.632L320.061 69.248ZM346.437 57.824V69.248H348.705V72.972H346.437V76.5H341.957V72.972H332.913V69.864L340.109 57.824H346.437ZM337.561 69.248H341.957V61.632L337.561 69.248ZM359.279 62.332C358.849 61.94 358.355 61.744 357.795 61.744C357.235 61.744 356.74 61.94 356.311 62.332C355.825 62.7427 355.433 63.4333 355.135 64.404C354.836 65.356 354.687 66.2893 354.687 67.204C354.687 68.044 354.827 68.9587 355.107 69.948C355.405 70.9187 355.807 71.628 356.311 72.076C356.74 72.468 357.235 72.664 357.795 72.664C358.355 72.664 358.849 72.468 359.279 72.076C359.764 71.6467 360.156 70.956 360.455 70.004C360.753 69.0333 360.903 68.1093 360.903 67.232C360.903 66.3547 360.744 65.4213 360.427 64.432C360.128 63.4427 359.745 62.7427 359.279 62.332ZM365.719 67.176C365.719 70.4427 364.795 72.9813 362.947 74.792C361.509 76.2107 359.792 76.92 357.795 76.92C355.797 76.92 354.08 76.2107 352.643 74.792C350.795 72.9813 349.871 70.4427 349.871 67.176C349.871 63.8907 350.795 61.3427 352.643 59.532C354.08 58.1133 355.797 57.404 357.795 57.404C359.792 57.404 361.509 58.1133 362.947 59.532C364.795 61.3427 365.719 63.8907 365.719 67.176Z" fill="#0B1530"/>
<path d="M42.78 105.5H41.26L43.48 91.42L48.6 102.68L53.82 91.4L55.9 105.5H54.38L53.12 96.22L48.58 106.06L44.1 96.22L42.78 105.5ZM65.6456 104.5C64.819 105.327 63.7723 105.74 62.5056 105.74C61.239 105.74 60.1856 105.327 59.3456 104.5C58.519 103.673 58.1056 102.633 58.1056 101.38C58.1056 100.113 58.519 99.0667 59.3456 98.24C60.1856 97.4133 61.239 97 62.5056 97C63.7723 97 64.819 97.4133 65.6456 98.24C66.4856 99.0667 66.9056 100.113 66.9056 101.38C66.9056 102.633 66.4856 103.673 65.6456 104.5ZM64.5656 99.1C64.0056 98.5533 63.319 98.28 62.5056 98.28C61.6923 98.28 60.999 98.56 60.4256 99.12C59.8656 99.6667 59.5856 100.42 59.5856 101.38C59.5856 102.34 59.8723 103.093 60.4456 103.64C61.019 104.187 61.7056 104.46 62.5056 104.46C63.3056 104.46 63.9923 104.187 64.5656 103.64C65.139 103.093 65.4256 102.34 65.4256 101.38C65.4256 100.407 65.139 99.6467 64.5656 99.1ZM69.1139 105.5V97.2H70.5539V100.6H74.4739V97.2H75.9139V105.5H74.4739V101.92H70.5539V105.5H69.1139ZM78.6256 97.2H80.0656V102.68L85.7456 96.56V105.5H84.3056V99.96L78.6256 106.08V97.2ZM93.9094 98.52H91.3094V105.5H89.8694V98.52H87.2694V97.2H93.9094V98.52ZM102.247 104.5C101.421 105.327 100.374 105.74 99.1072 105.74C97.8405 105.74 96.7872 105.327 95.9472 104.5C95.1205 103.673 94.7072 102.633 94.7072 101.38C94.7072 100.113 95.1205 99.0667 95.9472 98.24C96.7872 97.4133 97.8405 97 99.1072 97C100.374 97 101.421 97.4133 102.247 98.24C103.087 99.0667 103.507 100.113 103.507 101.38C103.507 102.633 103.087 103.673 102.247 104.5ZM101.167 99.1C100.607 98.5533 99.9205 98.28 99.1072 98.28C98.2939 98.28 97.6005 98.56 97.0272 99.12C96.4672 99.6667 96.1872 100.42 96.1872 101.38C96.1872 102.34 96.4739 103.093 97.0472 103.64C97.6205 104.187 98.3072 104.46 99.1072 104.46C99.9072 104.46 100.594 104.187 101.167 103.64C101.741 103.093 102.027 102.34 102.027 101.38C102.027 100.407 101.741 99.6467 101.167 99.1ZM107.155 104.34V110.1H105.715V97.2H107.155V98.36C107.889 97.4533 108.835 97 109.995 97C111.235 97 112.215 97.44 112.935 98.32C113.669 99.1867 114.035 100.213 114.035 101.4C114.035 102.6 113.675 103.627 112.955 104.48C112.235 105.32 111.269 105.74 110.055 105.74C108.842 105.74 107.875 105.273 107.155 104.34ZM109.855 104.46C110.669 104.46 111.322 104.167 111.815 103.58C112.309 102.98 112.555 102.253 112.555 101.4C112.555 100.44 112.282 99.68 111.735 99.12C111.189 98.56 110.555 98.28 109.835 98.28C109.115 98.28 108.475 98.56 107.915 99.12C107.355 99.68 107.075 100.433 107.075 101.38C107.075 102.247 107.329 102.98 107.835 103.58C108.355 104.167 109.029 104.46 109.855 104.46ZM116.243 105.5V97.2H117.683V100.38H119.163C120.309 100.38 121.149 100.653 121.683 101.2C122.109 101.627 122.323 102.207 122.323 102.94C122.323 103.713 122.076 104.333 121.583 104.8C121.089 105.267 120.276 105.5 119.143 105.5H116.243ZM117.683 104.22H119.023C119.623 104.22 120.049 104.147 120.303 104C120.663 103.76 120.843 103.407 120.843 102.94C120.843 102.46 120.669 102.113 120.323 101.9C120.083 101.74 119.656 101.66 119.043 101.66H117.683V104.22ZM123.323 105.5V97.2H124.763V105.5H123.323ZM126.593 108.16L128.233 103.54L129.553 104.02L127.533 108.54L126.593 108.16ZM137.63 105.5V97.2H139.07V100.6H142.99V97.2H144.43V105.5H142.99V101.92H139.07V105.5H137.63ZM154.161 104.5C153.335 105.327 152.288 105.74 151.021 105.74C149.755 105.74 148.701 105.327 147.861 104.5C147.035 103.673 146.621 102.633 146.621 101.38C146.621 100.113 147.035 99.0667 147.861 98.24C148.701 97.4133 149.755 97 151.021 97C152.288 97 153.335 97.4133 154.161 98.24C155.001 99.0667 155.421 100.113 155.421 101.38C155.421 102.633 155.001 103.673 154.161 104.5ZM153.081 99.1C152.521 98.5533 151.835 98.28 151.021 98.28C150.208 98.28 149.515 98.56 148.941 99.12C148.381 99.6667 148.101 100.42 148.101 101.38C148.101 102.34 148.388 103.093 148.961 103.64C149.535 104.187 150.221 104.46 151.021 104.46C151.821 104.46 152.508 104.187 153.081 103.64C153.655 103.093 153.941 102.34 153.941 101.38C153.941 100.407 153.655 99.6467 153.081 99.1ZM157.61 110.1L160.25 104.72L156.43 97.2H158.07L161.01 103.14L163.71 97.2H165.31L159.21 110.1H157.61ZM172.698 98.52H170.098V105.5H168.658V98.52H166.058V97.2H172.698V98.52ZM180.612 91.5H182.212C182.065 91.9933 181.812 92.4133 181.452 92.76C181.105 93.0933 180.785 93.32 180.492 93.44C180.212 93.56 179.878 93.6667 179.492 93.76C179.425 93.7733 179.265 93.8133 179.012 93.88C178.758 93.9333 178.565 93.98 178.432 94.02C178.298 94.06 178.125 94.1133 177.912 94.18C177.698 94.2467 177.505 94.3267 177.332 94.42C177.158 94.5133 176.998 94.6133 176.852 94.72C176.345 95.1067 175.932 95.6467 175.612 96.34C175.305 97.02 175.138 97.7467 175.112 98.52H175.152C175.752 97.5067 176.758 97 178.172 97C179.412 97 180.438 97.42 181.252 98.26C182.078 99.1 182.492 100.14 182.492 101.38C182.492 102.633 182.072 103.673 181.232 104.5C180.392 105.327 179.298 105.74 177.952 105.74C176.792 105.74 175.838 105.393 175.092 104.7C174.158 103.847 173.692 102.42 173.692 100.42C173.692 96.94 174.478 94.66 176.052 93.58C176.172 93.5 176.298 93.4267 176.432 93.36C176.565 93.28 176.705 93.2133 176.852 93.16C177.012 93.0933 177.145 93.04 177.252 93C177.358 92.9467 177.505 92.9 177.692 92.86C177.892 92.8067 178.025 92.7733 178.092 92.76C178.172 92.7333 178.318 92.7 178.532 92.66C178.758 92.6067 178.898 92.5733 178.952 92.56C179.485 92.44 179.872 92.3 180.112 92.14C180.352 91.9667 180.518 91.7533 180.612 91.5ZM180.152 99.1C179.592 98.5533 178.905 98.28 178.092 98.28C177.278 98.28 176.585 98.56 176.012 99.12C175.452 99.6667 175.172 100.42 175.172 101.38C175.172 102.34 175.458 103.093 176.032 103.64C176.605 104.187 177.292 104.46 178.092 104.46C178.892 104.46 179.578 104.187 180.152 103.64C180.725 103.093 181.012 102.34 181.012 101.38C181.012 100.407 180.725 99.6467 180.152 99.1ZM184.68 110.1L187.32 104.72L183.5 97.2H185.14L188.08 103.14L190.78 97.2H192.38L186.28 110.1H184.68ZM193.899 97.2H195.339V100.6L198.699 97.2H200.459L196.859 100.9L200.899 105.5H199.019L195.779 101.86L195.339 102.28V105.5H193.899V97.2ZM202.337 97.2H203.777V102.68L209.457 96.56V105.5H208.017V99.96L202.337 106.08V97.2Z" fill="#0B1530"/>
<path d="M41.72 128.16H44.14C45.66 128.16 46.78 128.473 47.5 129.1C48.3133 129.793 48.72 130.747 48.72 131.96C48.72 133 48.3667 133.887 47.66 134.62C46.9667 135.34 45.9133 135.7 44.5 135.7H43.2V141.5H41.72V128.16ZM43.2 129.56V134.3H44.42C45.3 134.3 45.9867 134.087 46.48 133.66C46.9867 133.233 47.24 132.64 47.24 131.88C47.24 130.333 46.26 129.56 44.3 129.56H43.2ZM56.4505 134.38V133.2H57.8905V141.5H56.4505V140.34C55.7305 141.273 54.7838 141.74 53.6105 141.74C52.4905 141.74 51.5371 141.353 50.7505 140.58C49.9638 139.807 49.5705 138.727 49.5705 137.34C49.5705 135.98 49.9571 134.92 50.7305 134.16C51.5171 133.387 52.4771 133 53.6105 133C54.8105 133 55.7571 133.46 56.4505 134.38ZM53.7705 134.28C53.0105 134.28 52.3638 134.553 51.8305 135.1C51.3105 135.633 51.0505 136.38 51.0505 137.34C51.0505 138.26 51.2905 139.013 51.7705 139.6C52.2638 140.173 52.9305 140.46 53.7705 140.46C54.6105 140.46 55.2771 140.16 55.7705 139.56C56.2771 138.96 56.5305 138.227 56.5305 137.36C56.5305 136.373 56.2505 135.613 55.6905 135.08C55.1305 134.547 54.4905 134.28 53.7705 134.28ZM61.6978 135.32L60.6978 134.5C61.0178 134.033 61.3711 133.687 61.7578 133.46C62.2778 133.153 62.8845 133 63.5778 133C64.4178 133 65.0711 133.193 65.5378 133.58C66.0178 133.993 66.2578 134.52 66.2578 135.16C66.2578 135.933 65.9445 136.513 65.3178 136.9C65.7178 136.993 66.0378 137.173 66.2778 137.44C66.6645 137.853 66.8578 138.36 66.8578 138.96C66.8578 139.853 66.4978 140.567 65.7778 141.1C65.1911 141.527 64.4045 141.74 63.4178 141.74C62.5378 141.74 61.7978 141.507 61.1978 141.04C60.7445 140.707 60.3778 140.233 60.0978 139.62L61.3378 139.1C61.4845 139.473 61.7311 139.787 62.0778 140.04C62.4511 140.32 62.9045 140.46 63.4378 140.46C64.0645 140.46 64.5311 140.353 64.8378 140.14C65.2245 139.887 65.4178 139.5 65.4178 138.98C65.4178 138.553 65.2511 138.233 64.9178 138.02C64.6378 137.833 64.1845 137.74 63.5578 137.74H62.7178V136.42H63.4178C63.9245 136.42 64.2845 136.347 64.4978 136.2C64.7911 136.013 64.9378 135.76 64.9378 135.44C64.9378 135.067 64.8178 134.78 64.5778 134.58C64.3511 134.38 63.9978 134.28 63.5178 134.28C63.1045 134.28 62.7245 134.387 62.3778 134.6C62.0845 134.787 61.8578 135.027 61.6978 135.32ZM70.4953 140.34V146.1H69.0553V133.2H70.4953V134.36C71.2286 133.453 72.1753 133 73.3353 133C74.5753 133 75.5553 133.44 76.2753 134.32C77.0086 135.187 77.3753 136.213 77.3753 137.4C77.3753 138.6 77.0153 139.627 76.2953 140.48C75.5753 141.32 74.6086 141.74 73.3953 141.74C72.182 141.74 71.2153 141.273 70.4953 140.34ZM73.1953 140.46C74.0086 140.46 74.662 140.167 75.1553 139.58C75.6486 138.98 75.8953 138.253 75.8953 137.4C75.8953 136.44 75.622 135.68 75.0753 135.12C74.5286 134.56 73.8953 134.28 73.1753 134.28C72.4553 134.28 71.8153 134.56 71.2553 135.12C70.6953 135.68 70.4153 136.433 70.4153 137.38C70.4153 138.247 70.6686 138.98 71.1753 139.58C71.6953 140.167 72.3686 140.46 73.1953 140.46ZM85.7427 138.72L86.9427 139.38C86.6627 139.913 86.3227 140.36 85.9227 140.72C85.1627 141.4 84.2427 141.74 83.1627 141.74C82.0427 141.74 81.076 141.38 80.2627 140.66C79.4627 139.927 79.0627 138.84 79.0627 137.4C79.0627 136.133 79.4227 135.087 80.1427 134.26C80.876 133.42 81.856 133 83.0827 133C84.4693 133 85.516 133.507 86.2227 134.52C86.7827 135.32 87.0427 136.36 87.0027 137.64H80.5427C80.556 138.48 80.816 139.16 81.3227 139.68C81.8293 140.2 82.4493 140.46 83.1827 140.46C83.836 140.46 84.4027 140.26 84.8827 139.86C85.256 139.54 85.5427 139.16 85.7427 138.72ZM80.6427 136.44H85.5227C85.4027 135.787 85.116 135.267 84.6627 134.88C84.2227 134.48 83.696 134.28 83.0827 134.28C82.4827 134.28 81.9493 134.487 81.4827 134.9C81.0293 135.3 80.7493 135.813 80.6427 136.44ZM89.2116 141.5V133.2H90.6516V140.18H93.8516V133.2H95.2916V140.18H98.4916V133.2H99.9316V141.5H89.2116ZM108.809 138.72L110.009 139.38C109.729 139.913 109.389 140.36 108.989 140.72C108.229 141.4 107.309 141.74 106.229 141.74C105.109 141.74 104.142 141.38 103.329 140.66C102.529 139.927 102.129 138.84 102.129 137.4C102.129 136.133 102.489 135.087 103.209 134.26C103.942 133.42 104.922 133 106.149 133C107.536 133 108.582 133.507 109.289 134.52C109.849 135.32 110.109 136.36 110.069 137.64H103.609C103.622 138.48 103.882 139.16 104.389 139.68C104.896 140.2 105.516 140.46 106.249 140.46C106.902 140.46 107.469 140.26 107.949 139.86C108.322 139.54 108.609 139.16 108.809 138.72ZM103.709 136.44H108.589C108.469 135.787 108.182 135.267 107.729 134.88C107.289 134.48 106.762 134.28 106.149 134.28C105.549 134.28 105.016 134.487 104.549 134.9C104.096 135.3 103.816 135.813 103.709 136.44ZM112.278 141.5V133.2H113.718V136.6H117.638V133.2H119.078V141.5H117.638V137.92H113.718V141.5H112.278ZM121.79 133.2H123.23V138.68L128.91 132.56V141.5H127.47V135.96L121.79 142.08V133.2ZM137.793 138.72L138.993 139.38C138.713 139.913 138.373 140.36 137.973 140.72C137.213 141.4 136.293 141.74 135.213 141.74C134.093 141.74 133.127 141.38 132.313 140.66C131.513 139.927 131.113 138.84 131.113 137.4C131.113 136.133 131.473 135.087 132.193 134.26C132.927 133.42 133.907 133 135.133 133C136.52 133 137.567 133.507 138.273 134.52C138.833 135.32 139.093 136.36 139.053 137.64H132.593C132.607 138.48 132.867 139.16 133.373 139.68C133.88 140.2 134.5 140.46 135.233 140.46C135.887 140.46 136.453 140.26 136.933 139.86C137.307 139.54 137.593 139.16 137.793 138.72ZM132.693 136.44H137.573C137.453 135.787 137.167 135.267 136.713 134.88C136.273 134.48 135.747 134.28 135.133 134.28C134.533 134.28 134 134.487 133.533 134.9C133.08 135.3 132.8 135.813 132.693 136.44ZM145.41 134.82V133.42C146.104 133.14 146.857 133 147.67 133C149.07 133 150.17 133.407 150.97 134.22C151.784 135.033 152.19 136.093 152.19 137.4C152.19 138.667 151.777 139.707 150.95 140.52C150.137 141.333 149.077 141.74 147.77 141.74C146.944 141.74 146.157 141.587 145.41 141.28V139.88C146.144 140.267 146.924 140.46 147.75 140.46C148.524 140.46 149.19 140.227 149.75 139.76C150.31 139.28 150.63 138.66 150.71 137.9H146.33V136.62H150.71C150.55 135.887 150.197 135.313 149.65 134.9C149.104 134.487 148.464 134.28 147.73 134.28C146.957 134.28 146.184 134.46 145.41 134.82ZM154.387 133.2H155.827V136.6L159.187 133.2H160.947L157.347 136.9L161.387 141.5H159.507L156.267 137.86L155.827 138.28V141.5H154.387V133.2ZM164.265 140.34V146.1H162.825V133.2H164.265V134.36C164.998 133.453 165.945 133 167.105 133C168.345 133 169.325 133.44 170.045 134.32C170.778 135.187 171.145 136.213 171.145 137.4C171.145 138.6 170.785 139.627 170.065 140.48C169.345 141.32 168.378 141.74 167.165 141.74C165.952 141.74 164.985 141.273 164.265 140.34ZM166.965 140.46C167.778 140.46 168.432 140.167 168.925 139.58C169.418 138.98 169.665 138.253 169.665 137.4C169.665 136.44 169.392 135.68 168.845 135.12C168.298 134.56 167.665 134.28 166.945 134.28C166.225 134.28 165.585 134.56 165.025 135.12C164.465 135.68 164.185 136.433 164.185 137.38C164.185 138.247 164.438 138.98 164.945 139.58C165.465 140.167 166.138 140.46 166.965 140.46ZM179.712 134.38V133.2H181.152V141.5H179.712V140.34C178.992 141.273 178.046 141.74 176.872 141.74C175.752 141.74 174.799 141.353 174.012 140.58C173.226 139.807 172.832 138.727 172.832 137.34C172.832 135.98 173.219 134.92 173.992 134.16C174.779 133.387 175.739 133 176.872 133C178.072 133 179.019 133.46 179.712 134.38ZM177.032 134.28C176.272 134.28 175.626 134.553 175.092 135.1C174.572 135.633 174.312 136.38 174.312 137.34C174.312 138.26 174.552 139.013 175.032 139.6C175.526 140.173 176.192 140.46 177.032 140.46C177.872 140.46 178.539 140.16 179.032 139.56C179.539 138.96 179.792 138.227 179.792 137.36C179.792 136.373 179.512 135.613 178.952 135.08C178.392 134.547 177.752 134.28 177.032 134.28ZM183.88 141.5V133.2H185.32V136.6H189.24V133.2H190.68V141.5H189.24V137.92H185.32V141.5H183.88ZM199.751 134.38V133.2H201.191V141.5H199.751V140.34C199.031 141.273 198.085 141.74 196.911 141.74C195.791 141.74 194.838 141.353 194.051 140.58C193.265 139.807 192.871 138.727 192.871 137.34C192.871 135.98 193.258 134.92 194.031 134.16C194.818 133.387 195.778 133 196.911 133C198.111 133 199.058 133.46 199.751 134.38ZM197.071 134.28C196.311 134.28 195.665 134.553 195.131 135.1C194.611 135.633 194.351 136.38 194.351 137.34C194.351 138.26 194.591 139.013 195.071 139.6C195.565 140.173 196.231 140.46 197.071 140.46C197.911 140.46 198.578 140.16 199.071 139.56C199.578 138.96 199.831 138.227 199.831 137.36C199.831 136.373 199.551 135.613 198.991 135.08C198.431 134.547 197.791 134.28 197.071 134.28ZM210.567 126.7L211.827 127.28C211.387 128.44 211.047 129.593 210.807 130.74C210.473 132.353 210.307 134.033 210.307 135.78C210.307 137.513 210.467 139.14 210.787 140.66C211.027 141.833 211.373 143.053 211.827 144.32L210.567 144.9C209.953 143.287 209.513 141.78 209.247 140.38C208.967 138.9 208.827 137.353 208.827 135.74C208.827 133.9 209.013 132.167 209.387 130.54C209.68 129.287 210.073 128.007 210.567 126.7ZM215.905 140.34V146.1H214.465V133.2H215.905V134.36C216.639 133.453 217.585 133 218.745 133C219.985 133 220.965 133.44 221.685 134.32C222.419 135.187 222.785 136.213 222.785 137.4C222.785 138.6 222.425 139.627 221.705 140.48C220.985 141.32 220.019 141.74 218.805 141.74C217.592 141.74 216.625 141.273 215.905 140.34ZM218.605 140.46C219.419 140.46 220.072 140.167 220.565 139.58C221.059 138.98 221.305 138.253 221.305 137.4C221.305 136.44 221.032 135.68 220.485 135.12C219.939 134.56 219.305 134.28 218.585 134.28C217.865 134.28 217.225 134.56 216.665 135.12C216.105 135.68 215.825 136.433 215.825 137.38C215.825 138.247 216.079 138.98 216.585 139.58C217.105 140.167 217.779 140.46 218.605 140.46ZM223.793 141.5L227.333 137.06L224.313 133.2H226.073L228.213 136.02L230.393 133.2H232.153L229.113 137.08L232.553 141.5H230.793L228.173 138.12L225.553 141.5H223.793ZM233.995 127.28L235.255 126.7C235.748 128.007 236.142 129.287 236.435 130.54C236.808 132.167 236.995 133.9 236.995 135.74C236.995 137.353 236.855 138.9 236.575 140.38C236.308 141.78 235.868 143.287 235.255 144.9L233.995 144.32C234.448 143.053 234.795 141.833 235.035 140.66C235.355 139.14 235.515 137.513 235.515 135.78C235.515 134.033 235.348 132.353 235.015 130.74C234.775 129.593 234.435 128.44 233.995 127.28Z" fill="#0B1530"/>
<path d="M44.68 167.5V157.1H42.78V154.16H48.14V167.5H44.68ZM59.6261 154.16V162.32H61.2461V164.98H59.6261V167.5H56.4261V164.98H49.9661V162.76L55.1061 154.16H59.6261ZM53.2861 162.32H56.4261V156.88L53.2861 162.32ZM72.1261 154.16V162.32H73.7461V164.98H72.1261V167.5H68.9261V164.98H62.4661V162.76L67.6061 154.16H72.1261ZM65.7861 162.32H68.9261V156.88L65.7861 162.32ZM81.2983 157.38C80.9916 157.1 80.6383 156.96 80.2383 156.96C79.8383 156.96 79.4849 157.1 79.1783 157.38C78.8316 157.673 78.5516 158.167 78.3383 158.86C78.1249 159.54 78.0183 160.207 78.0183 160.86C78.0183 161.46 78.1183 162.113 78.3183 162.82C78.5316 163.513 78.8183 164.02 79.1783 164.34C79.4849 164.62 79.8383 164.76 80.2383 164.76C80.6383 164.76 80.9916 164.62 81.2983 164.34C81.6449 164.033 81.9249 163.54 82.1383 162.86C82.3516 162.167 82.4583 161.507 82.4583 160.88C82.4583 160.253 82.3449 159.587 82.1183 158.88C81.9049 158.173 81.6316 157.673 81.2983 157.38ZM85.8983 160.84C85.8983 163.173 85.2383 164.987 83.9183 166.28C82.8916 167.293 81.6649 167.8 80.2383 167.8C78.8116 167.8 77.5849 167.293 76.5583 166.28C75.2383 164.987 74.5783 163.173 74.5783 160.84C74.5783 158.493 75.2383 156.673 76.5583 155.38C77.5849 154.367 78.8116 153.86 80.2383 153.86C81.6649 153.86 82.8916 154.367 83.9183 155.38C85.2383 156.673 85.8983 158.493 85.8983 160.84Z" fill="#0B1530"/>
<path d="M272.72 141.5V128.16H274.2V140.1H279.48V128.16H280.96V140.1H286.24V128.16H287.72V141.5H272.72ZM290.798 133.2H292.238V138.68L297.918 132.56V141.5H296.478V135.96L290.798 142.08V133.2ZM302.081 140.34V146.1H300.641V133.2H302.081V134.36C302.815 133.453 303.761 133 304.921 133C306.161 133 307.141 133.44 307.861 134.32C308.595 135.187 308.961 136.213 308.961 137.4C308.961 138.6 308.601 139.627 307.881 140.48C307.161 141.32 306.195 141.74 304.981 141.74C303.768 141.74 302.801 141.273 302.081 140.34ZM304.781 140.46C305.595 140.46 306.248 140.167 306.741 139.58C307.235 138.98 307.481 138.253 307.481 137.4C307.481 136.44 307.208 135.68 306.661 135.12C306.115 134.56 305.481 134.28 304.761 134.28C304.041 134.28 303.401 134.56 302.841 135.12C302.281 135.68 302.001 136.433 302.001 137.38C302.001 138.247 302.255 138.98 302.761 139.58C303.281 140.167 303.955 140.46 304.781 140.46ZM311.169 133.2H312.609V138.68L318.289 132.56V141.5H316.849V135.96L311.169 142.08V133.2ZM321.012 141.5V133.2H322.452V136.6H326.372V133.2H327.812V141.5H326.372V137.92H322.452V141.5H321.012ZM336.884 134.38V133.2H338.324V141.5H336.884V140.34C336.164 141.273 335.217 141.74 334.044 141.74C332.924 141.74 331.971 141.353 331.184 140.58C330.397 139.807 330.004 138.727 330.004 137.34C330.004 135.98 330.391 134.92 331.164 134.16C331.951 133.387 332.911 133 334.044 133C335.244 133 336.191 133.46 336.884 134.38ZM334.204 134.28C333.444 134.28 332.797 134.553 332.264 135.1C331.744 135.633 331.484 136.38 331.484 137.34C331.484 138.26 331.724 139.013 332.204 139.6C332.697 140.173 333.364 140.46 334.204 140.46C335.044 140.46 335.711 140.16 336.204 139.56C336.711 138.96 336.964 138.227 336.964 137.36C336.964 136.373 336.684 135.613 336.124 135.08C335.564 134.547 334.924 134.28 334.204 134.28ZM345.719 133.2H347.159V136.6L350.519 133.2H352.279L348.679 136.9L352.719 141.5H350.839L347.599 137.86L347.159 138.28V141.5H345.719V133.2ZM360.786 140.5C359.96 141.327 358.913 141.74 357.646 141.74C356.38 141.74 355.326 141.327 354.486 140.5C353.66 139.673 353.246 138.633 353.246 137.38C353.246 136.113 353.66 135.067 354.486 134.24C355.326 133.413 356.38 133 357.646 133C358.913 133 359.96 133.413 360.786 134.24C361.626 135.067 362.046 136.113 362.046 137.38C362.046 138.633 361.626 139.673 360.786 140.5ZM359.706 135.1C359.146 134.553 358.46 134.28 357.646 134.28C356.833 134.28 356.14 134.56 355.566 135.12C355.006 135.667 354.726 136.42 354.726 137.38C354.726 138.34 355.013 139.093 355.586 139.64C356.16 140.187 356.846 140.46 357.646 140.46C358.446 140.46 359.133 140.187 359.706 139.64C360.28 139.093 360.566 138.34 360.566 137.38C360.566 136.407 360.28 135.647 359.706 135.1ZM370.535 133.2V141.5H369.095V134.52H366.135V138.26C366.135 139.34 365.921 140.14 365.495 140.66C365.015 141.247 364.348 141.54 363.495 141.54C363.388 141.54 363.241 141.527 363.055 141.5V140.18C363.188 140.207 363.295 140.22 363.375 140.22C363.841 140.22 364.188 140.04 364.415 139.68C364.601 139.387 364.695 138.913 364.695 138.26V133.2H370.535ZM380.278 140.5C379.452 141.327 378.405 141.74 377.138 141.74C375.872 141.74 374.818 141.327 373.978 140.5C373.152 139.673 372.738 138.633 372.738 137.38C372.738 136.113 373.152 135.067 373.978 134.24C374.818 133.413 375.872 133 377.138 133C378.405 133 379.452 133.413 380.278 134.24C381.118 135.067 381.538 136.113 381.538 137.38C381.538 138.633 381.118 139.673 380.278 140.5ZM379.198 135.1C378.638 134.553 377.952 134.28 377.138 134.28C376.325 134.28 375.632 134.56 375.058 135.12C374.498 135.667 374.218 136.42 374.218 137.38C374.218 138.34 374.505 139.093 375.078 139.64C375.652 140.187 376.338 140.46 377.138 140.46C377.938 140.46 378.625 140.187 379.198 139.64C379.772 139.093 380.058 138.34 380.058 137.38C380.058 136.407 379.772 135.647 379.198 135.1ZM383.747 141.5V133.2H385.187V136.6H389.107V133.2H390.547V141.5H389.107V137.92H385.187V141.5H383.747ZM393.258 133.2H394.698V136.6L398.058 133.2H399.818L396.218 136.9L400.258 141.5H398.378L395.138 137.86L394.698 138.28V141.5H393.258V133.2ZM401.696 133.2H403.136V138.68L408.816 132.56V141.5H407.376V135.96L401.696 142.08V133.2ZM418.188 126.7L419.448 127.28C419.008 128.44 418.668 129.593 418.428 130.74C418.094 132.353 417.928 134.033 417.928 135.78C417.928 137.513 418.088 139.14 418.408 140.66C418.648 141.833 418.994 143.053 419.448 144.32L418.188 144.9C417.574 143.287 417.134 141.78 416.868 140.38C416.588 138.9 416.448 137.353 416.448 135.74C416.448 133.9 416.634 132.167 417.008 130.54C417.301 129.287 417.694 128.007 418.188 126.7ZM423.527 140.34V146.1H422.087V133.2H423.527V134.36C424.26 133.453 425.207 133 426.367 133C427.607 133 428.587 133.44 429.307 134.32C430.04 135.187 430.407 136.213 430.407 137.4C430.407 138.6 430.047 139.627 429.327 140.48C428.607 141.32 427.64 141.74 426.427 141.74C425.213 141.74 424.247 141.273 423.527 140.34ZM426.227 140.46C427.04 140.46 427.693 140.167 428.187 139.58C428.68 138.98 428.927 138.253 428.927 137.4C428.927 136.44 428.653 135.68 428.107 135.12C427.56 134.56 426.927 134.28 426.207 134.28C425.487 134.28 424.847 134.56 424.287 135.12C423.727 135.68 423.447 136.433 423.447 137.38C423.447 138.247 423.7 138.98 424.207 139.58C424.727 140.167 425.4 140.46 426.227 140.46ZM431.414 141.5L434.954 137.06L431.934 133.2H433.694L435.834 136.02L438.014 133.2H439.774L436.734 137.08L440.174 141.5H438.414L435.794 138.12L433.174 141.5H431.414ZM441.616 127.28L442.876 126.7C443.369 128.007 443.763 129.287 444.056 130.54C444.429 132.167 444.616 133.9 444.616 135.74C444.616 137.353 444.476 138.9 444.196 140.38C443.929 141.78 443.489 143.287 442.876 144.9L441.616 144.32C442.069 143.053 442.416 141.833 442.656 140.66C442.976 139.14 443.136 137.513 443.136 135.78C443.136 134.033 442.969 132.353 442.636 130.74C442.396 129.593 442.056 128.44 441.616 127.28Z" fill="#0B1530"/>
<path d="M276.34 154.16H280.28L276.48 158.7C277.107 158.42 277.727 158.28 278.34 158.28C279.5 158.28 280.507 158.707 281.36 159.56C282.2 160.4 282.62 161.46 282.62 162.74C282.62 164.14 282.16 165.3 281.24 166.22C280.187 167.273 278.767 167.8 276.98 167.8C275.113 167.8 273.653 167.26 272.6 166.18C271.787 165.34 271.38 164.3 271.38 163.06C271.38 161.487 272.04 159.827 273.36 158.08L276.34 154.16ZM275.34 164.38C275.78 164.833 276.307 165.06 276.92 165.06C277.533 165.06 278.047 164.853 278.46 164.44C278.873 164.027 279.08 163.52 279.08 162.92C279.08 162.387 278.873 161.92 278.46 161.52C278.033 161.107 277.52 160.9 276.92 160.9C276.347 160.9 275.847 161.093 275.42 161.48C274.98 161.88 274.76 162.34 274.76 162.86C274.76 163.46 274.953 163.967 275.34 164.38ZM293.634 154.16V162.32H295.254V164.98H293.634V167.5H290.434V164.98H283.974V162.76L289.114 154.16H293.634ZM287.294 162.32H290.434V156.88L287.294 162.32Z" fill="#0B1530"/>
<path d="M481.78 141.5H480.26L482.48 127.42L487.6 138.68L492.82 127.4L494.9 141.5H493.38L492.12 132.22L487.58 142.06L483.1 132.22L481.78 141.5ZM503.786 138.72L504.986 139.38C504.706 139.913 504.366 140.36 503.966 140.72C503.206 141.4 502.286 141.74 501.206 141.74C500.086 141.74 499.119 141.38 498.306 140.66C497.506 139.927 497.106 138.84 497.106 137.4C497.106 136.133 497.466 135.087 498.186 134.26C498.919 133.42 499.899 133 501.126 133C502.512 133 503.559 133.507 504.266 134.52C504.826 135.32 505.086 136.36 505.046 137.64H498.586C498.599 138.48 498.859 139.16 499.366 139.68C499.872 140.2 500.492 140.46 501.226 140.46C501.879 140.46 502.446 140.26 502.926 139.86C503.299 139.54 503.586 139.16 503.786 138.72ZM498.686 136.44H503.566C503.446 135.787 503.159 135.267 502.706 134.88C502.266 134.48 501.739 134.28 501.126 134.28C500.526 134.28 499.992 134.487 499.526 134.9C499.072 135.3 498.792 135.813 498.686 136.44ZM510.939 133.2H512.379V136.6L515.499 133.2H517.179L513.579 137.04L517.539 141.5H515.739L512.659 138L512.379 138.28V141.5H510.939V138.28L510.659 138L507.579 141.5H505.779L509.739 137.04L506.139 133.2H507.819L510.939 136.6V133.2ZM525.278 133.8V135.52C524.625 134.693 523.758 134.28 522.678 134.28C521.865 134.28 521.171 134.56 520.598 135.12C520.025 135.667 519.738 136.42 519.738 137.38C519.738 138.34 520.025 139.093 520.598 139.64C521.171 140.187 521.858 140.46 522.658 140.46C523.725 140.46 524.618 140.027 525.338 139.16V140.88C524.551 141.453 523.671 141.74 522.698 141.74C521.405 141.74 520.338 141.333 519.498 140.52C518.671 139.693 518.258 138.653 518.258 137.4C518.258 136.133 518.678 135.087 519.518 134.26C520.358 133.42 521.418 133 522.698 133C523.658 133 524.518 133.267 525.278 133.8ZM532.988 134.52H530.388V141.5H528.948V134.52H526.348V133.2H532.988V134.52ZM535.941 140.34V146.1H534.501V133.2H535.941V134.36C536.674 133.453 537.621 133 538.781 133C540.021 133 541.001 133.44 541.721 134.32C542.454 135.187 542.821 136.213 542.821 137.4C542.821 138.6 542.461 139.627 541.741 140.48C541.021 141.32 540.054 141.74 538.841 141.74C537.627 141.74 536.661 141.273 535.941 140.34ZM538.641 140.46C539.454 140.46 540.107 140.167 540.601 139.58C541.094 138.98 541.341 138.253 541.341 137.4C541.341 136.44 541.067 135.68 540.521 135.12C539.974 134.56 539.341 134.28 538.621 134.28C537.901 134.28 537.261 134.56 536.701 135.12C536.141 135.68 535.861 136.433 535.861 137.38C535.861 138.247 536.114 138.98 536.621 139.58C537.141 140.167 537.814 140.46 538.641 140.46ZM552.048 140.5C551.221 141.327 550.175 141.74 548.908 141.74C547.641 141.74 546.588 141.327 545.748 140.5C544.921 139.673 544.508 138.633 544.508 137.38C544.508 136.113 544.921 135.067 545.748 134.24C546.588 133.413 547.641 133 548.908 133C550.175 133 551.221 133.413 552.048 134.24C552.888 135.067 553.308 136.113 553.308 137.38C553.308 138.633 552.888 139.673 552.048 140.5ZM550.968 135.1C550.408 134.553 549.721 134.28 548.908 134.28C548.095 134.28 547.401 134.56 546.828 135.12C546.268 135.667 545.988 136.42 545.988 137.38C545.988 138.34 546.275 139.093 546.848 139.64C547.421 140.187 548.108 140.46 548.908 140.46C549.708 140.46 550.395 140.187 550.968 139.64C551.541 139.093 551.828 138.34 551.828 137.38C551.828 136.407 551.541 135.647 550.968 135.1ZM559.956 141.5V138.24C559.17 138.36 558.516 138.42 557.996 138.42C557.09 138.42 556.416 138.22 555.976 137.82C555.51 137.407 555.276 136.727 555.276 135.78V133.2H556.716V135.58C556.716 136.033 556.776 136.36 556.896 136.56C557.083 136.92 557.503 137.1 558.156 137.1C558.743 137.1 559.343 137.04 559.956 136.92V133.2H561.396V141.5H559.956ZM564.11 141.5V133.2H565.55V136.6H569.47V133.2H570.91V141.5H569.47V137.92H565.55V141.5H564.11ZM573.622 141.5V133.2H575.062V136.38H576.542C577.688 136.38 578.528 136.653 579.062 137.2C579.488 137.627 579.702 138.207 579.702 138.94C579.702 139.713 579.455 140.333 578.962 140.8C578.468 141.267 577.655 141.5 576.522 141.5H573.622ZM575.062 140.22H576.402C577.002 140.22 577.428 140.147 577.682 140C578.042 139.76 578.222 139.407 578.222 138.94C578.222 138.46 578.048 138.113 577.702 137.9C577.462 137.74 577.035 137.66 576.422 137.66H575.062V140.22ZM580.702 141.5V133.2H582.142V141.5H580.702ZM584.852 133.2H586.292V138.68L591.972 132.56V141.5H590.532V135.96L584.852 142.08V133.2ZM585.572 129.62L586.772 129.16C587.012 129.96 587.579 130.36 588.472 130.36C589.366 130.36 589.932 129.96 590.172 129.16L591.372 129.62C591.159 130.22 590.792 130.693 590.272 131.04C589.766 131.387 589.166 131.56 588.472 131.56C587.779 131.56 587.172 131.387 586.652 131.04C586.146 130.693 585.786 130.22 585.572 129.62ZM599.364 133.2H600.804V138.68L606.484 132.56V141.5H605.044V135.96L599.364 142.08V133.2ZM609.208 141.5V133.2H610.648V136.6H614.568V133.2H616.008V141.5H614.568V137.92H610.648V141.5H609.208ZM624.159 134.52H621.559V141.5H620.119V134.52H617.519V133.2H624.159V134.52ZM631.637 138.72L632.837 139.38C632.557 139.913 632.217 140.36 631.817 140.72C631.057 141.4 630.137 141.74 629.057 141.74C627.937 141.74 626.971 141.38 626.157 140.66C625.357 139.927 624.957 138.84 624.957 137.4C624.957 136.133 625.317 135.087 626.037 134.26C626.771 133.42 627.751 133 628.977 133C630.364 133 631.411 133.507 632.117 134.52C632.677 135.32 632.937 136.36 632.897 137.64H626.437C626.451 138.48 626.711 139.16 627.217 139.68C627.724 140.2 628.344 140.46 629.077 140.46C629.731 140.46 630.297 140.26 630.777 139.86C631.151 139.54 631.437 139.16 631.637 138.72ZM626.537 136.44H631.417C631.297 135.787 631.011 135.267 630.557 134.88C630.117 134.48 629.591 134.28 628.977 134.28C628.377 134.28 627.844 134.487 627.377 134.9C626.924 135.3 626.644 135.813 626.537 136.44ZM636.546 140.34V146.1H635.106V133.2H636.546V134.36C637.279 133.453 638.226 133 639.386 133C640.626 133 641.606 133.44 642.326 134.32C643.059 135.187 643.426 136.213 643.426 137.4C643.426 138.6 643.066 139.627 642.346 140.48C641.626 141.32 640.659 141.74 639.446 141.74C638.233 141.74 637.266 141.273 636.546 140.34ZM639.246 140.46C640.059 140.46 640.713 140.167 641.206 139.58C641.699 138.98 641.946 138.253 641.946 137.4C641.946 136.44 641.673 135.68 641.126 135.12C640.579 134.56 639.946 134.28 639.226 134.28C638.506 134.28 637.866 134.56 637.306 135.12C636.746 135.68 636.466 136.433 636.466 137.38C636.466 138.247 636.719 138.98 637.226 139.58C637.746 140.167 638.419 140.46 639.246 140.46ZM645.633 133.2H648.773C649.533 133.2 650.113 133.36 650.513 133.68C650.993 134.067 651.233 134.587 651.233 135.24C651.233 135.96 650.933 136.513 650.333 136.9C650.747 137.007 651.093 137.193 651.373 137.46C651.813 137.887 652.033 138.42 652.033 139.06C652.033 139.86 651.747 140.487 651.173 140.94C650.68 141.313 650.027 141.5 649.213 141.5H645.633V133.2ZM647.073 136.58H648.593C648.98 136.58 649.287 136.5 649.513 136.34C649.78 136.14 649.913 135.853 649.913 135.48C649.913 135.147 649.78 134.88 649.513 134.68C649.313 134.547 648.927 134.48 648.353 134.48H647.073V136.58ZM647.073 140.22H648.853C649.467 140.22 649.9 140.127 650.153 139.94C650.473 139.7 650.633 139.393 650.633 139.02C650.633 138.62 650.493 138.307 650.213 138.08C649.96 137.88 649.527 137.78 648.913 137.78H647.073V140.22ZM660.587 134.38V133.2H662.027V141.5H660.587V140.34C659.867 141.273 658.921 141.74 657.747 141.74C656.627 141.74 655.674 141.353 654.887 140.58C654.101 139.807 653.707 138.727 653.707 137.34C653.707 135.98 654.094 134.92 654.867 134.16C655.654 133.387 656.614 133 657.747 133C658.947 133 659.894 133.46 660.587 134.38ZM657.907 134.28C657.147 134.28 656.501 134.553 655.967 135.1C655.447 135.633 655.187 136.38 655.187 137.34C655.187 138.26 655.427 139.013 655.907 139.6C656.401 140.173 657.067 140.46 657.907 140.46C658.747 140.46 659.414 140.16 659.907 139.56C660.414 138.96 660.667 138.227 660.667 137.36C660.667 136.373 660.387 135.613 659.827 135.08C659.267 134.547 658.627 134.28 657.907 134.28ZM671.035 133.2V141.5H669.595V134.52H666.635V138.26C666.635 139.34 666.421 140.14 665.995 140.66C665.515 141.247 664.848 141.54 663.995 141.54C663.888 141.54 663.741 141.527 663.555 141.5V140.18C663.688 140.207 663.795 140.22 663.875 140.22C664.341 140.22 664.688 140.04 664.915 139.68C665.101 139.387 665.195 138.913 665.195 138.26V133.2H671.035ZM680.406 126.7L681.666 127.28C681.226 128.44 680.886 129.593 680.646 130.74C680.313 132.353 680.146 134.033 680.146 135.78C680.146 137.513 680.306 139.14 680.626 140.66C680.866 141.833 681.213 143.053 681.666 144.32L680.406 144.9C679.793 143.287 679.353 141.78 679.086 140.38C678.806 138.9 678.666 137.353 678.666 135.74C678.666 133.9 678.853 132.167 679.226 130.54C679.52 129.287 679.913 128.007 680.406 126.7ZM685.745 140.34V146.1H684.305V133.2H685.745V134.36C686.479 133.453 687.425 133 688.585 133C689.825 133 690.805 133.44 691.525 134.32C692.259 135.187 692.625 136.213 692.625 137.4C692.625 138.6 692.265 139.627 691.545 140.48C690.825 141.32 689.859 141.74 688.645 141.74C687.432 141.74 686.465 141.273 685.745 140.34ZM688.445 140.46C689.259 140.46 689.912 140.167 690.405 139.58C690.899 138.98 691.145 138.253 691.145 137.4C691.145 136.44 690.872 135.68 690.325 135.12C689.779 134.56 689.145 134.28 688.425 134.28C687.705 134.28 687.065 134.56 686.505 135.12C685.945 135.68 685.665 136.433 685.665 137.38C685.665 138.247 685.919 138.98 686.425 139.58C686.945 140.167 687.619 140.46 688.445 140.46ZM693.633 141.5L697.173 137.06L694.153 133.2H695.913L698.053 136.02L700.233 133.2H701.993L698.953 137.08L702.393 141.5H700.633L698.013 138.12L695.393 141.5H693.633ZM703.835 127.28L705.095 126.7C705.588 128.007 705.981 129.287 706.275 130.54C706.648 132.167 706.835 133.9 706.835 135.74C706.835 137.353 706.695 138.9 706.415 140.38C706.148 141.78 705.708 143.287 705.095 144.9L703.835 144.32C704.288 143.053 704.635 141.833 704.875 140.66C705.195 139.14 705.355 137.513 705.355 135.78C705.355 134.033 705.188 132.353 704.855 130.74C704.615 129.593 704.275 128.44 703.835 127.28Z" fill="#0B1530"/>
<path d="M490.22 164.56V167.5H479.52L482.9 163.96C484.113 162.693 485.027 161.567 485.64 160.58C486.12 159.833 486.36 159.14 486.36 158.5C486.36 157.94 486.227 157.513 485.96 157.22C485.72 156.953 485.393 156.82 484.98 156.82C484.487 156.82 484.1 157 483.82 157.36C483.527 157.733 483.367 158.28 483.34 159H479.76C479.773 157.507 480.267 156.273 481.24 155.3C482.2 154.34 483.46 153.86 485.02 153.86C486.607 153.86 487.86 154.32 488.78 155.24C489.647 156.107 490.08 157.2 490.08 158.52C490.08 159.933 489.42 161.253 488.1 162.48L485.86 164.56H490.22ZM500.872 154.16V162.32H502.492V164.98H500.872V167.5H497.672V164.98H491.212V162.76L496.352 154.16H500.872ZM494.532 162.32H497.672V156.88L494.532 162.32Z" fill="#0B1530"/>
<path d="M742.72 128.16H745.12C746.453 128.16 747.473 128.44 748.18 129C748.98 129.613 749.38 130.533 749.38 131.76C749.38 132.907 748.94 133.78 748.06 134.38C748.913 134.593 749.547 135.027 749.96 135.68C750.387 136.32 750.6 137.007 750.6 137.74C750.6 138.34 750.467 138.893 750.2 139.4C749.947 139.907 749.627 140.313 749.24 140.62C748.493 141.207 747.427 141.5 746.04 141.5H742.72V128.16ZM744.2 129.56V134.02H745.32C745.52 134.02 745.713 134.013 745.9 134C746.087 133.973 746.307 133.92 746.56 133.84C746.827 133.747 747.053 133.627 747.24 133.48C747.44 133.333 747.607 133.113 747.74 132.82C747.873 132.527 747.94 132.187 747.94 131.8C747.94 131.387 747.86 131.033 747.7 130.74C747.54 130.433 747.36 130.207 747.16 130.06C746.96 129.913 746.72 129.8 746.44 129.72C746.16 129.64 745.947 129.593 745.8 129.58C745.653 129.567 745.507 129.56 745.36 129.56H744.2ZM744.2 135.34V140.1H745.9C746.98 140.1 747.76 139.913 748.24 139.54C748.827 139.113 749.12 138.5 749.12 137.7C749.12 136.807 748.74 136.153 747.98 135.74C747.5 135.473 746.747 135.34 745.72 135.34H744.2ZM752.965 141.5V133.2H754.405V136.6H758.325V133.2H759.765V141.5H758.325V137.92H754.405V141.5H752.965ZM768.637 138.72L769.837 139.38C769.557 139.913 769.217 140.36 768.817 140.72C768.057 141.4 767.137 141.74 766.057 141.74C764.937 141.74 763.971 141.38 763.157 140.66C762.357 139.927 761.957 138.84 761.957 137.4C761.957 136.133 762.317 135.087 763.037 134.26C763.771 133.42 764.751 133 765.977 133C767.364 133 768.411 133.507 769.117 134.52C769.677 135.32 769.937 136.36 769.897 137.64H763.437C763.451 138.48 763.711 139.16 764.217 139.68C764.724 140.2 765.344 140.46 766.077 140.46C766.731 140.46 767.297 140.26 767.777 139.86C768.151 139.54 768.437 139.16 768.637 138.72ZM763.537 136.44H768.417C768.297 135.787 768.011 135.267 767.557 134.88C767.117 134.48 766.591 134.28 765.977 134.28C765.377 134.28 764.844 134.487 764.377 134.9C763.924 135.3 763.644 135.813 763.537 136.44ZM772.106 141.5V133.2H773.546V140.18H776.746V133.2H778.186V140.18H781.386V133.2H782.826V141.5H772.106ZM785.544 141.5V133.2H786.984V136.6H790.904V133.2H792.344V141.5H790.904V137.92H786.984V141.5H785.544ZM795.055 133.2H796.495V138.68L802.175 132.56V141.5H800.735V135.96L795.055 142.08V133.2ZM811.059 138.72L812.259 139.38C811.979 139.913 811.639 140.36 811.239 140.72C810.479 141.4 809.559 141.74 808.479 141.74C807.359 141.74 806.392 141.38 805.579 140.66C804.779 139.927 804.379 138.84 804.379 137.4C804.379 136.133 804.739 135.087 805.459 134.26C806.192 133.42 807.172 133 808.399 133C809.786 133 810.832 133.507 811.539 134.52C812.099 135.32 812.359 136.36 812.319 137.64H805.859C805.872 138.48 806.132 139.16 806.639 139.68C807.146 140.2 807.766 140.46 808.499 140.46C809.152 140.46 809.719 140.26 810.199 139.86C810.572 139.54 810.859 139.16 811.059 138.72ZM805.959 136.44H810.839C810.719 135.787 810.432 135.267 809.979 134.88C809.539 134.48 809.012 134.28 808.399 134.28C807.799 134.28 807.266 134.487 806.799 134.9C806.346 135.3 806.066 135.813 805.959 136.44ZM826.216 140.5C825.389 141.327 824.343 141.74 823.076 141.74C821.809 141.74 820.756 141.327 819.916 140.5C819.089 139.673 818.676 138.633 818.676 137.38C818.676 136.113 819.089 135.067 819.916 134.24C820.756 133.413 821.809 133 823.076 133C824.343 133 825.389 133.413 826.216 134.24C827.056 135.067 827.476 136.113 827.476 137.38C827.476 138.633 827.056 139.673 826.216 140.5ZM825.136 135.1C824.576 134.553 823.889 134.28 823.076 134.28C822.263 134.28 821.569 134.56 820.996 135.12C820.436 135.667 820.156 136.42 820.156 137.38C820.156 138.34 820.443 139.093 821.016 139.64C821.589 140.187 822.276 140.46 823.076 140.46C823.876 140.46 824.563 140.187 825.136 139.64C825.709 139.093 825.996 138.34 825.996 137.38C825.996 136.407 825.709 135.647 825.136 135.1ZM834.929 134.52H832.329V141.5H830.889V134.52H828.289V133.2H834.929V134.52ZM842.747 133.8V135.52C842.093 134.693 841.227 134.28 840.147 134.28C839.333 134.28 838.64 134.56 838.067 135.12C837.493 135.667 837.207 136.42 837.207 137.38C837.207 138.34 837.493 139.093 838.067 139.64C838.64 140.187 839.327 140.46 840.127 140.46C841.193 140.46 842.087 140.027 842.807 139.16V140.88C842.02 141.453 841.14 141.74 840.167 141.74C838.873 141.74 837.807 141.333 836.967 140.52C836.14 139.693 835.727 138.653 835.727 137.4C835.727 136.133 836.147 135.087 836.987 134.26C837.827 133.42 838.887 133 840.167 133C841.127 133 841.987 133.267 842.747 133.8ZM850.456 134.52H847.856V141.5H846.416V134.52H843.816V133.2H850.456V134.52ZM852.34 146.1L854.98 140.72L851.16 133.2H852.8L855.74 139.14L858.44 133.2H860.04L853.94 146.1H852.34ZM861.559 133.2H868.239V141.5H866.799V134.52H862.999V141.5H861.559V133.2ZM870.954 141.5V133.2H872.394V136.38H873.874C875.02 136.38 875.86 136.653 876.394 137.2C876.82 137.627 877.034 138.207 877.034 138.94C877.034 139.713 876.787 140.333 876.294 140.8C875.8 141.267 874.987 141.5 873.854 141.5H870.954ZM872.394 140.22H873.734C874.334 140.22 874.76 140.147 875.014 140C875.374 139.76 875.554 139.407 875.554 138.94C875.554 138.46 875.38 138.113 875.034 137.9C874.794 137.74 874.367 137.66 873.754 137.66H872.394V140.22ZM878.034 141.5V133.2H879.474V141.5H878.034ZM888.832 126.7L890.092 127.28C889.652 128.44 889.312 129.593 889.072 130.74C888.739 132.353 888.572 134.033 888.572 135.78C888.572 137.513 888.732 139.14 889.052 140.66C889.292 141.833 889.639 143.053 890.092 144.32L888.832 144.9C888.219 143.287 887.779 141.78 887.512 140.38C887.232 138.9 887.092 137.353 887.092 135.74C887.092 133.9 887.279 132.167 887.652 130.54C887.946 129.287 888.339 128.007 888.832 126.7ZM894.171 140.34V146.1H892.731V133.2H894.171V134.36C894.904 133.453 895.851 133 897.011 133C898.251 133 899.231 133.44 899.951 134.32C900.684 135.187 901.051 136.213 901.051 137.4C901.051 138.6 900.691 139.627 899.971 140.48C899.251 141.32 898.284 141.74 897.071 141.74C895.858 141.74 894.891 141.273 894.171 140.34ZM896.871 140.46C897.684 140.46 898.338 140.167 898.831 139.58C899.324 138.98 899.571 138.253 899.571 137.4C899.571 136.44 899.298 135.68 898.751 135.12C898.204 134.56 897.571 134.28 896.851 134.28C896.131 134.28 895.491 134.56 894.931 135.12C894.371 135.68 894.091 136.433 894.091 137.38C894.091 138.247 894.344 138.98 894.851 139.58C895.371 140.167 896.044 140.46 896.871 140.46ZM902.058 141.5L905.598 137.06L902.578 133.2H904.338L906.478 136.02L908.658 133.2H910.418L907.378 137.08L910.818 141.5H909.058L906.438 138.12L903.818 141.5H902.058ZM912.26 127.28L913.52 126.7C914.014 128.007 914.407 129.287 914.7 130.54C915.074 132.167 915.26 133.9 915.26 135.74C915.26 137.353 915.12 138.9 914.84 140.38C914.574 141.78 914.134 143.287 913.52 144.9L912.26 144.32C912.714 143.053 913.06 141.833 913.3 140.66C913.62 139.14 913.78 137.513 913.78 135.78C913.78 134.033 913.614 132.353 913.28 130.74C913.04 129.593 912.7 128.44 912.26 127.28Z" fill="#0B1530"/>
<path d="M752.22 164.56V167.5H741.52L744.9 163.96C746.113 162.693 747.027 161.567 747.64 160.58C748.12 159.833 748.36 159.14 748.36 158.5C748.36 157.94 748.227 157.513 747.96 157.22C747.72 156.953 747.393 156.82 746.98 156.82C746.487 156.82 746.1 157 745.82 157.36C745.527 157.733 745.367 158.28 745.34 159H741.76C741.773 157.507 742.267 156.273 743.24 155.3C744.2 154.34 745.46 153.86 747.02 153.86C748.607 153.86 749.86 154.32 750.78 155.24C751.647 156.107 752.08 157.2 752.08 158.52C752.08 159.933 751.42 161.253 750.1 162.48L747.86 164.56H752.22ZM760.052 157.38C759.746 157.1 759.392 156.96 758.992 156.96C758.592 156.96 758.239 157.1 757.932 157.38C757.586 157.673 757.306 158.167 757.092 158.86C756.879 159.54 756.772 160.207 756.772 160.86C756.772 161.46 756.872 162.113 757.072 162.82C757.286 163.513 757.572 164.02 757.932 164.34C758.239 164.62 758.592 164.76 758.992 164.76C759.392 164.76 759.746 164.62 760.052 164.34C760.399 164.033 760.679 163.54 760.892 162.86C761.106 162.167 761.212 161.507 761.212 160.88C761.212 160.253 761.099 159.587 760.872 158.88C760.659 158.173 760.386 157.673 760.052 157.38ZM764.652 160.84C764.652 163.173 763.992 164.987 762.672 166.28C761.646 167.293 760.419 167.8 758.992 167.8C757.566 167.8 756.339 167.293 755.312 166.28C753.992 164.987 753.332 163.173 753.332 160.84C753.332 158.493 753.992 156.673 755.312 155.38C756.339 154.367 757.566 153.86 758.992 153.86C760.419 153.86 761.646 154.367 762.672 155.38C763.992 156.673 764.652 158.493 764.652 160.84ZM775.372 154.16V162.32H776.992V164.98H775.372V167.5H772.172V164.98H765.712V162.76L770.852 154.16H775.372ZM769.032 162.32H772.172V156.88L769.032 162.32Z" fill="#0B1530"/>
<mask id="path-12-inside-1_808_2531" fill="white">
<path d="M102 229.703L102 216.703L184 216.703L184 229.703L102 229.703Z"/>
</mask>
<path d="M102 216.703L102 214.703L100 214.703L100 216.703L102 216.703ZM184 216.703L186 216.703L186 214.703L184 214.703L184 216.703ZM104 229.703L104 216.703L100 216.703L100 229.703L104 229.703ZM102 218.703L184 218.703L184 214.703L102 214.703L102 218.703ZM182 216.703L182 229.703L186 229.703L186 216.703L182 216.703Z" fill="#33F7C3" mask="url(#path-12-inside-1_808_2531)"/>
<rect x="168.953" y="205.953" width="51.9061" height="20.7027" rx="3.75176" transform="rotate(-180 168.953 205.953)" fill="#33F7C3"/>
<rect x="168.953" y="205.953" width="51.9061" height="20.7027" rx="3.75176" transform="rotate(-180 168.953 205.953)" stroke="#33F7C3" stroke-width="1.5007"/>
<path d="M124.208 200.102V198.771L127.316 195.894C127.58 195.638 127.802 195.408 127.981 195.203C128.163 194.998 128.301 194.798 128.394 194.602C128.488 194.403 128.535 194.188 128.535 193.958C128.535 193.702 128.477 193.482 128.36 193.297C128.244 193.11 128.085 192.966 127.883 192.867C127.681 192.764 127.452 192.713 127.196 192.713C126.929 192.713 126.696 192.767 126.497 192.875C126.298 192.983 126.145 193.138 126.037 193.34C125.929 193.542 125.875 193.782 125.875 194.06H124.122C124.122 193.489 124.252 192.993 124.51 192.572C124.769 192.152 125.131 191.826 125.598 191.596C126.064 191.366 126.601 191.251 127.209 191.251C127.834 191.251 128.379 191.362 128.842 191.583C129.308 191.802 129.671 192.106 129.929 192.496C130.188 192.885 130.317 193.331 130.317 193.834C130.317 194.164 130.252 194.49 130.121 194.811C129.993 195.132 129.764 195.489 129.435 195.881C129.105 196.27 128.64 196.738 128.04 197.283L126.766 198.533V198.592H130.432V200.102H124.208ZM135.193 200.293C134.46 200.291 133.829 200.11 133.3 199.752C132.775 199.394 132.37 198.875 132.085 198.196C131.804 197.517 131.665 196.699 131.668 195.744C131.668 194.792 131.808 193.981 132.09 193.31C132.374 192.639 132.779 192.129 133.305 191.779C133.833 191.427 134.463 191.251 135.193 191.251C135.924 191.251 136.552 191.427 137.078 191.779C137.606 192.132 138.013 192.644 138.297 193.314C138.581 193.982 138.722 194.792 138.719 195.744C138.719 196.702 138.577 197.521 138.293 198.2C138.011 198.879 137.608 199.398 137.082 199.756C136.556 200.114 135.927 200.293 135.193 200.293ZM135.193 198.763C135.694 198.763 136.093 198.511 136.391 198.008C136.69 197.505 136.838 196.751 136.835 195.744C136.835 195.082 136.767 194.531 136.63 194.09C136.497 193.65 136.306 193.319 136.059 193.097C135.814 192.875 135.526 192.764 135.193 192.764C134.696 192.764 134.298 193.013 134 193.51C133.701 194.008 133.551 194.752 133.548 195.744C133.548 196.415 133.614 196.975 133.748 197.424C133.884 197.87 134.076 198.206 134.324 198.43C134.571 198.652 134.861 198.763 135.193 198.763ZM139.903 198.567V197.113L143.548 191.37H144.802V193.383H144.06L141.762 197.019V197.087H146.942V198.567H139.903ZM144.094 200.102V198.123L144.128 197.48V191.37H145.859V200.102H144.094ZM148.189 202.557V193.553H149.98V194.653H150.061C150.14 194.477 150.255 194.298 150.406 194.116C150.56 193.931 150.759 193.778 151.003 193.655C151.25 193.53 151.557 193.468 151.924 193.468C152.401 193.468 152.842 193.593 153.245 193.843C153.649 194.09 153.972 194.464 154.213 194.964C154.455 195.462 154.576 196.085 154.576 196.836C154.576 197.566 154.458 198.183 154.222 198.686C153.989 199.186 153.67 199.566 153.267 199.824C152.866 200.08 152.417 200.208 151.92 200.208C151.567 200.208 151.267 200.15 151.02 200.033C150.776 199.917 150.575 199.77 150.419 199.594C150.263 199.415 150.143 199.235 150.061 199.053H150.005V202.557H148.189ZM149.967 196.827C149.967 197.217 150.021 197.556 150.129 197.846C150.237 198.136 150.393 198.362 150.598 198.524C150.803 198.683 151.051 198.763 151.344 198.763C151.64 198.763 151.89 198.682 152.094 198.52C152.299 198.355 152.454 198.128 152.559 197.838C152.667 197.545 152.721 197.208 152.721 196.827C152.721 196.449 152.669 196.117 152.563 195.83C152.458 195.543 152.303 195.318 152.099 195.156C151.894 194.994 151.642 194.913 151.344 194.913C151.048 194.913 150.798 194.991 150.594 195.148C150.392 195.304 150.237 195.526 150.129 195.813C150.021 196.1 149.967 196.438 149.967 196.827ZM157.07 193.553L158.272 195.842L159.504 193.553H161.367L159.47 196.827L161.418 200.102H159.564L158.272 197.838L157.001 200.102H155.126L157.07 196.827L155.194 193.553H157.07Z" fill="#0B1530"/>
<rect x="102" y="229.529" width="82" height="73" fill="#9FE4CB"/>
<rect x="184" y="229.529" width="46.16" height="73" fill="#FDB5B5"/>
<rect x="240.16" y="229.529" width="46.16" height="73" fill="#FDB5B5"/>
<rect x="296.32" y="229.529" width="46.16" height="73" fill="#FDB5B5"/>
<rect x="352.48" y="229.529" width="46.16" height="73" fill="#FDB5B5"/>
<rect x="408.64" y="229.529" width="46.16" height="73" fill="#FDB5B5"/>
<rect x="464.8" y="229.529" width="46.16" height="73" fill="#FDB5B5"/>
<rect x="520.96" y="229.529" width="46.16" height="73" fill="#FDB5B5"/>
<rect x="577.12" y="229.529" width="46.16" height="73" fill="#FDB5B5"/>
<rect x="633.28" y="229.529" width="46.16" height="73" fill="#FDB5B5"/>
<rect x="689.44" y="229.529" width="46.16" height="73" fill="#FDB5B5"/>
<rect x="745.6" y="229.529" width="46.16" height="73" fill="#FDB5B5"/>
<rect x="801.76" y="229.529" width="46.16" height="73" fill="#FDB5B5"/>
<rect x="847.92" y="229.529" width="82" height="73" fill="#9FE4CB"/>
<mask id="path-30-inside-2_808_2531" fill="white">
<path d="M240 229.727L240 216.727L286 216.727L286 229.727L240 229.727Z"/>
</mask>
<path d="M240 216.727L240 214.727L238 214.727L238 216.727L240 216.727ZM286 216.727L288 216.727L288 214.727L286 214.727L286 216.727ZM242 229.727L242 216.727L238 216.727L238 229.727L242 229.727ZM240 218.727L286 218.727L286 214.727L240 214.727L240 218.727ZM284 216.727L284 229.727L288 229.727L288 216.727L284 216.727Z" fill="#33F7C3" mask="url(#path-30-inside-2_808_2531)"/>
<rect x="284.953" y="205.976" width="43.9061" height="20.7027" rx="3.75176" transform="rotate(-180 284.953 205.976)" fill="#33F7C3"/>
<rect x="284.953" y="205.976" width="43.9061" height="20.7027" rx="3.75176" transform="rotate(-180 284.953 205.976)" stroke="#33F7C3" stroke-width="1.5007"/>
<path d="M251.559 200.244C251.11 200.242 250.676 200.166 250.258 200.018C249.843 199.871 249.471 199.63 249.141 199.298C248.812 198.965 248.55 198.525 248.357 197.976C248.167 197.428 248.071 196.754 248.071 195.955C248.074 195.222 248.158 194.567 248.323 193.99C248.491 193.41 248.729 192.918 249.039 192.515C249.352 192.111 249.725 191.804 250.16 191.594C250.595 191.381 251.083 191.274 251.623 191.274C252.205 191.274 252.72 191.388 253.166 191.615C253.612 191.84 253.97 192.145 254.24 192.532C254.513 192.918 254.678 193.352 254.735 193.832H252.914C252.843 193.528 252.694 193.289 252.467 193.116C252.239 192.943 251.958 192.856 251.623 192.856C251.054 192.856 250.622 193.103 250.327 193.598C250.034 194.092 249.885 194.765 249.879 195.614H249.939C250.069 195.356 250.246 195.135 250.467 194.954C250.692 194.769 250.946 194.628 251.23 194.531C251.518 194.432 251.82 194.382 252.139 194.382C252.656 194.382 253.116 194.504 253.52 194.749C253.923 194.99 254.242 195.323 254.475 195.747C254.708 196.17 254.824 196.655 254.824 197.2C254.824 197.792 254.687 198.317 254.411 198.778C254.138 199.238 253.756 199.599 253.264 199.861C252.775 200.119 252.207 200.247 251.559 200.244ZM251.55 198.795C251.834 198.795 252.089 198.727 252.313 198.59C252.538 198.454 252.714 198.269 252.842 198.036C252.97 197.803 253.034 197.541 253.034 197.251C253.034 196.962 252.97 196.702 252.842 196.471C252.717 196.241 252.544 196.058 252.322 195.921C252.1 195.785 251.847 195.717 251.563 195.717C251.35 195.717 251.152 195.756 250.97 195.836C250.791 195.916 250.634 196.026 250.497 196.169C250.364 196.311 250.258 196.476 250.182 196.663C250.105 196.848 250.067 197.045 250.067 197.256C250.067 197.537 250.13 197.794 250.258 198.027C250.389 198.26 250.565 198.447 250.787 198.586C251.012 198.725 251.266 198.795 251.55 198.795ZM256.001 198.59V197.136L259.646 191.394H260.9V193.406H260.158L257.86 197.043V197.111H263.04V198.59H256.001ZM260.192 200.125V198.147L260.226 197.503V191.394H261.957V200.125H260.192ZM264.287 202.581V193.576H266.078V194.676H266.159C266.238 194.5 266.353 194.321 266.504 194.139C266.657 193.954 266.856 193.801 267.101 193.679C267.348 193.554 267.655 193.491 268.022 193.491C268.499 193.491 268.94 193.616 269.343 193.866C269.747 194.114 270.07 194.487 270.311 194.988C270.553 195.485 270.674 196.109 270.674 196.859C270.674 197.59 270.556 198.206 270.32 198.71C270.087 199.21 269.768 199.589 269.365 199.848C268.964 200.104 268.515 200.232 268.017 200.232C267.665 200.232 267.365 200.173 267.118 200.057C266.873 199.94 266.673 199.794 266.517 199.618C266.36 199.439 266.241 199.258 266.159 199.076H266.103V202.581H264.287ZM266.065 196.851C266.065 197.24 266.119 197.58 266.227 197.87C266.335 198.16 266.491 198.386 266.696 198.548C266.9 198.707 267.149 198.786 267.442 198.786C267.737 198.786 267.988 198.705 268.192 198.543C268.397 198.378 268.552 198.151 268.657 197.861C268.765 197.568 268.819 197.232 268.819 196.851C268.819 196.473 268.766 196.14 268.661 195.853C268.556 195.566 268.401 195.342 268.196 195.18C267.992 195.017 267.74 194.936 267.442 194.936C267.146 194.936 266.896 195.015 266.692 195.171C266.49 195.327 266.335 195.549 266.227 195.836C266.119 196.123 266.065 196.461 266.065 196.851ZM273.168 193.576L274.37 195.866L275.602 193.576H277.465L275.568 196.851L277.516 200.125H275.662L274.37 197.861L273.099 200.125H271.223L273.168 196.851L271.292 193.576H273.168Z" fill="#0B1530"/>
<mask id="path-34-inside-3_808_2531" fill="white">
<path d="M342.203 229.729L342.203 216.729L352.203 216.729L352.203 229.729L342.203 229.729Z"/>
</mask>
<path d="M342.203 216.729L342.203 214.729L340.203 214.729L340.203 216.729L342.203 216.729ZM352.203 216.729L354.203 216.729L354.203 214.729L352.203 214.729L352.203 216.729ZM344.203 229.729L344.203 216.729L340.203 216.729L340.203 229.729L344.203 229.729ZM342.203 218.729L352.203 218.729L352.203 214.729L342.203 214.729L342.203 218.729ZM350.203 216.729L350.203 229.729L354.203 229.729L354.203 216.729L350.203 216.729Z" fill="#33F7C3" mask="url(#path-34-inside-3_808_2531)"/>
<rect x="368.656" y="205.978" width="42.9061" height="20.7027" rx="3.75176" transform="rotate(-180 368.656 205.978)" fill="#33F7C3"/>
<rect x="368.656" y="205.978" width="42.9061" height="20.7027" rx="3.75176" transform="rotate(-180 368.656 205.978)" stroke="#33F7C3" stroke-width="1.5007"/>
<path d="M332.911 200.127V198.797L336.019 195.919C336.283 195.663 336.505 195.433 336.684 195.228C336.866 195.024 337.004 194.823 337.097 194.627C337.191 194.428 337.238 194.214 337.238 193.983C337.238 193.728 337.18 193.507 337.063 193.323C336.947 193.135 336.788 192.992 336.586 192.892C336.384 192.79 336.155 192.739 335.899 192.739C335.632 192.739 335.399 192.793 335.2 192.901C335.001 193.009 334.848 193.163 334.74 193.365C334.632 193.567 334.578 193.807 334.578 194.086H332.826C332.826 193.514 332.955 193.019 333.214 192.598C333.472 192.177 333.835 191.852 334.301 191.622C334.767 191.391 335.304 191.276 335.912 191.276C336.538 191.276 337.082 191.387 337.545 191.609C338.011 191.828 338.374 192.132 338.632 192.521C338.891 192.911 339.02 193.357 339.02 193.86C339.02 194.19 338.955 194.515 338.824 194.836C338.696 195.157 338.467 195.514 338.138 195.906C337.808 196.296 337.343 196.763 336.744 197.309L335.469 198.558V198.618H339.135V200.127H332.911ZM340.153 198.592V197.138L343.798 191.396H345.052V193.408H344.31L342.012 197.045V197.113H347.192V198.592H340.153ZM344.344 200.127V198.149L344.378 197.505V191.396H346.109V200.127H344.344ZM348.439 202.583V193.578H350.23V194.678H350.311C350.39 194.502 350.505 194.323 350.656 194.141C350.81 193.956 351.008 193.803 351.253 193.681C351.5 193.556 351.807 193.493 352.174 193.493C352.651 193.493 353.092 193.618 353.495 193.868C353.899 194.116 354.222 194.489 354.463 194.99C354.705 195.487 354.826 196.111 354.826 196.861C354.826 197.592 354.708 198.208 354.472 198.712C354.239 199.212 353.92 199.591 353.517 199.85C353.116 200.106 352.667 200.234 352.17 200.234C351.817 200.234 351.517 200.175 351.27 200.059C351.026 199.942 350.825 199.796 350.669 199.62C350.512 199.441 350.393 199.26 350.311 199.078H350.255V202.583H348.439ZM350.217 196.853C350.217 197.242 350.271 197.582 350.379 197.872C350.487 198.162 350.643 198.388 350.848 198.55C351.053 198.709 351.301 198.788 351.594 198.788C351.89 198.788 352.14 198.707 352.344 198.545C352.549 198.38 352.704 198.153 352.809 197.863C352.917 197.57 352.971 197.234 352.971 196.853C352.971 196.475 352.918 196.142 352.813 195.855C352.708 195.568 352.553 195.343 352.349 195.181C352.144 195.019 351.892 194.938 351.594 194.938C351.298 194.938 351.048 195.017 350.844 195.173C350.642 195.329 350.487 195.551 350.379 195.838C350.271 196.125 350.217 196.463 350.217 196.853ZM357.32 193.578L358.522 195.868L359.754 193.578H361.617L359.72 196.853L361.668 200.127H359.814L358.522 197.863L357.251 200.127H355.376L357.32 196.853L355.444 193.578H357.32Z" fill="#0B1530"/>
<rect x="544.453" y="349.953" width="56.9061" height="20.7027" rx="3.75176" transform="rotate(-180 544.453 349.953)" fill="#33F7C3"/>
<rect x="544.453" y="349.953" width="56.9061" height="20.7027" rx="3.75176" transform="rotate(-180 544.453 349.953)" stroke="#33F7C3" stroke-width="1.5007"/>
<path d="M498.506 335.37V344.102H496.66V337.122H496.609L494.61 338.376V336.739L496.771 335.37H498.506ZM504.005 344.293C503.272 344.291 502.641 344.11 502.112 343.752C501.586 343.394 501.181 342.875 500.897 342.196C500.616 341.517 500.476 340.699 500.479 339.744C500.479 338.792 500.62 337.981 500.901 337.31C501.186 336.639 501.591 336.129 502.116 335.779C502.645 335.427 503.275 335.251 504.005 335.251C504.736 335.251 505.364 335.427 505.889 335.779C506.418 336.132 506.825 336.644 507.109 337.314C507.393 337.982 507.534 338.792 507.531 339.744C507.531 340.702 507.389 341.521 507.105 342.2C506.823 342.879 506.42 343.398 505.894 343.756C505.368 344.114 504.738 344.293 504.005 344.293ZM504.005 342.763C504.505 342.763 504.905 342.511 505.203 342.008C505.501 341.505 505.649 340.751 505.646 339.744C505.646 339.082 505.578 338.531 505.442 338.09C505.308 337.65 505.118 337.319 504.871 337.097C504.626 336.875 504.338 336.764 504.005 336.764C503.508 336.764 503.11 337.013 502.811 337.51C502.513 338.008 502.362 338.752 502.359 339.744C502.359 340.415 502.426 340.975 502.56 341.424C502.696 341.87 502.888 342.206 503.135 342.43C503.383 342.652 503.673 342.763 504.005 342.763ZM512.075 344.221C511.438 344.221 510.871 344.112 510.373 343.893C509.879 343.671 509.488 343.367 509.201 342.98C508.917 342.591 508.77 342.142 508.762 341.633H510.621C510.632 341.846 510.702 342.034 510.83 342.196C510.96 342.355 511.134 342.479 511.35 342.567C511.566 342.655 511.809 342.699 512.079 342.699C512.36 342.699 512.609 342.649 512.825 342.55C513.041 342.45 513.21 342.312 513.332 342.136C513.454 341.96 513.516 341.757 513.516 341.526C513.516 341.293 513.45 341.087 513.319 340.908C513.192 340.726 513.007 340.584 512.765 340.482C512.526 340.38 512.242 340.328 511.913 340.328H511.098V338.973H511.913C512.191 338.973 512.437 338.924 512.65 338.828C512.866 338.731 513.034 338.598 513.153 338.427C513.273 338.254 513.332 338.052 513.332 337.822C513.332 337.603 513.28 337.411 513.174 337.246C513.072 337.078 512.927 336.948 512.74 336.854C512.555 336.76 512.339 336.713 512.092 336.713C511.841 336.713 511.613 336.759 511.405 336.85C511.198 336.938 511.031 337.064 510.906 337.229C510.781 337.394 510.715 337.587 510.706 337.809H508.937C508.945 337.306 509.089 336.862 509.367 336.479C509.646 336.095 510.021 335.795 510.493 335.579C510.967 335.36 511.503 335.251 512.1 335.251C512.703 335.251 513.23 335.36 513.682 335.579C514.134 335.798 514.485 336.094 514.735 336.466C514.988 336.835 515.113 337.25 515.11 337.711C515.113 338.2 514.961 338.608 514.654 338.934C514.35 339.261 513.953 339.469 513.464 339.557V339.625C514.107 339.707 514.596 339.931 514.931 340.294C515.269 340.655 515.437 341.107 515.434 341.65C515.437 342.148 515.293 342.589 515.003 342.976C514.716 343.363 514.32 343.667 513.814 343.888C513.308 344.11 512.728 344.221 512.075 344.221ZM516.761 344.102V342.771L519.869 339.894C520.133 339.638 520.355 339.408 520.534 339.203C520.716 338.998 520.854 338.798 520.948 338.602C521.041 338.403 521.088 338.188 521.088 337.958C521.088 337.702 521.03 337.482 520.914 337.297C520.797 337.11 520.638 336.966 520.436 336.867C520.234 336.764 520.005 336.713 519.75 336.713C519.482 336.713 519.249 336.767 519.05 336.875C518.851 336.983 518.698 337.138 518.59 337.34C518.482 337.542 518.428 337.782 518.428 338.06H516.676C516.676 337.489 516.805 336.993 517.064 336.572C517.322 336.152 517.685 335.826 518.151 335.596C518.617 335.366 519.154 335.251 519.762 335.251C520.388 335.251 520.932 335.362 521.395 335.583C521.861 335.802 522.224 336.106 522.482 336.496C522.741 336.885 522.87 337.331 522.87 337.834C522.87 338.164 522.805 338.49 522.674 338.811C522.546 339.132 522.318 339.489 521.988 339.881C521.658 340.27 521.193 340.738 520.594 341.283L519.319 342.533V342.592H522.986V344.102H516.761ZM524.34 346.557V337.553H526.131V338.653H526.212C526.291 338.477 526.407 338.298 526.557 338.116C526.711 337.931 526.91 337.778 527.154 337.655C527.401 337.53 527.708 337.468 528.075 337.468C528.552 337.468 528.993 337.593 529.397 337.843C529.8 338.09 530.123 338.464 530.364 338.964C530.606 339.462 530.727 340.085 530.727 340.836C530.727 341.566 530.609 342.183 530.373 342.686C530.14 343.186 529.821 343.566 529.418 343.824C529.017 344.08 528.568 344.208 528.071 344.208C527.718 344.208 527.418 344.15 527.171 344.033C526.927 343.917 526.726 343.77 526.57 343.594C526.414 343.415 526.294 343.235 526.212 343.053H526.156V346.557H524.34ZM526.118 340.827C526.118 341.217 526.172 341.556 526.28 341.846C526.388 342.136 526.544 342.362 526.749 342.524C526.954 342.683 527.202 342.763 527.495 342.763C527.791 342.763 528.041 342.682 528.245 342.52C528.45 342.355 528.605 342.128 528.71 341.838C528.818 341.545 528.872 341.208 528.872 340.827C528.872 340.449 528.82 340.117 528.714 339.83C528.609 339.543 528.454 339.318 528.25 339.156C528.045 338.994 527.794 338.913 527.495 338.913C527.2 338.913 526.949 338.991 526.745 339.148C526.543 339.304 526.388 339.526 526.28 339.813C526.172 340.1 526.118 340.438 526.118 340.827ZM533.221 337.553L534.423 339.842L535.655 337.553H537.518L535.621 340.827L537.569 344.102H535.715L534.423 341.838L533.153 344.102H531.277L533.221 340.827L531.345 337.553H533.221Z" fill="#0B1530"/>
<mask id="path-40-inside-4_808_2531" fill="white">
<path d="M848 305.5L848 318.5L184 318.5L184 305.5L848 305.5Z"/>
</mask>
<path d="M848 318.5L848 320.5L850 320.5L850 318.5L848 318.5ZM184 318.5L182 318.5L182 320.5L184 320.5L184 318.5ZM846 305.5L846 318.5L850 318.5L850 305.5L846 305.5ZM848 316.5L184 316.5L184 320.5L848 320.5L848 316.5ZM186 318.5L186 305.5L182 305.5L182 318.5L186 318.5Z" fill="#33F7C3" mask="url(#path-40-inside-4_808_2531)"/>
</svg>
