<svg width="1032" height="398" viewBox="0 0 1032 398" fill="none" xmlns="http://www.w3.org/2000/svg">
<rect y="0.320312" width="1032" height="397.28" rx="24" fill="#F5F6F8"/>
<path d="M45.936 76.3203H41.12L44.284 57.6443H49.072L52.852 67.6123L56.856 57.6443H61.7L64.5 76.3203H59.656L58.284 65.5683L53.776 76.3203H51.844L47.532 65.5683L45.936 76.3203ZM74.1891 67.1923C73.4238 67.1923 72.7518 67.463 72.1731 68.0043C71.5944 68.5456 71.3051 69.227 71.3051 70.0483C71.3051 70.795 71.5944 71.4576 72.1731 72.0363C72.7331 72.5963 73.4051 72.8763 74.1891 72.8763C74.9544 72.8763 75.6171 72.5963 76.1771 72.0363C76.7558 71.495 77.0451 70.8323 77.0451 70.0483C77.0451 69.2643 76.7558 68.583 76.1771 68.0043C75.5984 67.463 74.9358 67.1923 74.1891 67.1923ZM79.7611 65.4563C81.0491 66.707 81.6931 68.2376 81.6931 70.0483C81.6931 71.859 81.0491 73.399 79.7611 74.6683C78.3611 76.0496 76.4944 76.7403 74.1611 76.7403C71.8464 76.7403 69.9891 76.0496 68.5891 74.6683C67.3011 73.399 66.6571 71.859 66.6571 70.0483C66.6571 68.2376 67.3011 66.707 68.5891 65.4563C70.0078 64.075 71.8651 63.3843 74.1611 63.3843C76.4384 63.3843 78.3051 64.075 79.7611 65.4563ZM87.6943 65.1483H87.8903C88.8609 64.0096 90.2703 63.4403 92.1183 63.4403C94.1529 63.4403 95.8049 64.0283 97.0743 65.2043C98.2503 66.3056 98.8383 67.8176 98.8383 69.7403C98.8383 71.7563 98.1943 73.4083 96.9063 74.6963C95.5436 76.059 93.6769 76.7403 91.3063 76.7403C88.9916 76.7403 87.1903 76.0776 85.9023 74.7523C84.4836 73.2963 83.7743 71.103 83.7743 68.1723C83.7743 64.4203 84.6703 61.611 86.4623 59.7443C87.0783 59.1283 87.7689 58.643 88.5343 58.2883C89.3183 57.9336 90.3263 57.635 91.5583 57.3923L92.3703 57.2243C93.3596 57.0376 93.9943 56.8043 94.2743 56.5243C94.5169 56.2443 94.6383 55.9363 94.6383 55.6003H98.5303C98.3996 56.571 98.0169 57.4763 97.3823 58.3163C96.7849 59.1003 95.9263 59.6976 94.8063 60.1083C94.3956 60.2576 93.3129 60.575 91.5583 61.0603C90.2703 61.415 89.3556 61.8723 88.8143 62.4323C88.1609 63.1416 87.7876 64.047 87.6943 65.1483ZM91.3063 67.1363C90.5596 67.1363 89.9156 67.379 89.3743 67.8643C88.7396 68.4243 88.4223 69.1336 88.4223 69.9923C88.4223 70.851 88.7396 71.5696 89.3743 72.1483C89.9156 72.6336 90.5596 72.8763 91.3063 72.8763C92.0716 72.8763 92.7156 72.6336 93.2383 72.1483C93.8729 71.551 94.1903 70.795 94.1903 69.8803C94.1903 69.0963 93.8729 68.4243 93.2383 67.8643C92.6783 67.379 92.0343 67.1363 91.3063 67.1363ZM101.423 63.8043H105.903V70.2443L110.859 63.8043H114.751V76.3203H110.271V69.7123L105.371 76.3203H101.423V63.8043ZM130.877 63.8043V76.3203H126.397V67.4723H123.205V71.0563C123.205 72.9603 122.766 74.3696 121.889 75.2843C121.105 76.087 119.929 76.4883 118.361 76.4883C117.782 76.4883 117.185 76.4323 116.569 76.3203V73.0723C117.353 73.1656 117.941 73.007 118.333 72.5963C118.706 72.2043 118.893 71.5323 118.893 70.5803V63.8043H130.877ZM138.442 67.9763H141.578C143.053 67.9763 144.182 68.3496 144.966 69.0963C145.713 69.8243 146.086 70.823 146.086 72.0923C146.086 73.3803 145.731 74.379 145.022 75.0883C144.201 75.9096 143.053 76.3203 141.578 76.3203H133.962V63.8043H138.442V67.9763ZM138.442 73.4083H140.122C140.663 73.4083 141.055 73.2776 141.298 73.0163C141.503 72.811 141.606 72.5123 141.606 72.1203C141.606 71.7096 141.494 71.411 141.27 71.2243C140.99 71.0003 140.589 70.8883 140.066 70.8883H138.442V73.4083ZM147.716 76.3203V63.8043H152.196V68.0323H156.368V63.8043H160.848V76.3203H156.368V71.5603H152.196V76.3203H147.716ZM173.619 65.0083V63.8043H178.099V76.3203H173.619V74.9483C172.76 76.143 171.463 76.7403 169.727 76.7403C167.972 76.7403 166.469 76.0776 165.219 74.7523C164.024 73.483 163.427 71.9523 163.427 70.1603C163.427 68.107 164.071 66.4363 165.359 65.1483C166.535 63.9723 168.037 63.3843 169.867 63.3843C171.397 63.3843 172.648 63.9256 173.619 65.0083ZM170.875 67.1923C170.128 67.1923 169.475 67.463 168.915 68.0043C168.317 68.583 168.019 69.2643 168.019 70.0483C168.019 70.8696 168.308 71.551 168.887 72.0923C169.484 72.6523 170.156 72.9323 170.903 72.9323C171.668 72.9323 172.34 72.643 172.919 72.0643C173.479 71.5043 173.759 70.8323 173.759 70.0483C173.759 69.2456 173.469 68.5643 172.891 68.0043C172.312 67.463 171.64 67.1923 170.875 67.1923ZM180.429 76.3203L183.901 71.9523C183.042 71.7843 182.314 71.4203 181.717 70.8603C181.063 70.207 180.737 69.311 180.737 68.1723C180.737 66.9216 181.11 65.9043 181.857 65.1203C182.678 64.243 184.097 63.8043 186.113 63.8043H192.721V76.3203H188.241V72.3443H187.877L185.133 76.3203H180.429ZM188.241 69.6003V66.7163H186.897C186.243 66.7163 185.777 66.847 185.497 67.1083C185.235 67.3696 185.105 67.7243 185.105 68.1723C185.105 68.639 185.245 68.9936 185.525 69.2363C185.823 69.479 186.262 69.6003 186.841 69.6003H188.241ZM202.349 63.8043H210.021C211.514 63.8043 212.578 64.103 213.213 64.7003C213.791 65.2416 214.081 65.9696 214.081 66.8843C214.081 67.6123 213.903 68.2376 213.549 68.7603C213.25 69.1896 212.793 69.535 212.177 69.7963V69.8523C212.905 70.0016 213.502 70.291 213.969 70.7203C214.566 71.2616 214.865 71.9803 214.865 72.8763C214.865 73.8843 214.566 74.687 213.969 75.2843C213.278 75.975 212.261 76.3203 210.917 76.3203H202.349V63.8043ZM206.829 68.7883H208.509C209.05 68.7883 209.433 68.695 209.657 68.5083C209.881 68.303 209.993 68.0043 209.993 67.6123C209.993 67.2576 209.89 66.9963 209.685 66.8283C209.461 66.623 209.059 66.5203 208.481 66.5203H206.829V68.7883ZM206.829 73.6043H208.817C209.283 73.6043 209.647 73.483 209.909 73.2403C210.151 72.9976 210.273 72.699 210.273 72.3443C210.273 71.9523 210.161 71.6443 209.937 71.4203C209.731 71.215 209.358 71.1123 208.817 71.1123H206.829V73.6043ZM230.441 70.4123V70.8883H221.117C221.117 71.7656 221.378 72.4656 221.901 72.9883C222.312 73.399 222.928 73.6043 223.749 73.6043C224.309 73.6043 224.794 73.4923 225.205 73.2683C225.56 73.063 225.821 72.783 225.989 72.4283H230.273C229.993 73.4363 229.489 74.295 228.761 75.0043C227.566 76.1616 225.868 76.7403 223.665 76.7403C221.481 76.7403 219.754 76.1056 218.485 74.8363C217.253 73.6043 216.637 72.027 216.637 70.1043C216.637 68.0883 217.262 66.4736 218.513 65.2603C219.764 64.047 221.472 63.4403 223.637 63.4403C225.634 63.4403 227.24 64.0096 228.453 65.1483C229.778 66.4176 230.441 68.1723 230.441 70.4123ZM221.257 68.3123H226.325C226.194 67.771 225.952 67.323 225.597 66.9683C225.149 66.5203 224.533 66.2963 223.749 66.2963C222.984 66.2963 222.377 66.5203 221.929 66.9683C221.556 67.379 221.332 67.827 221.257 68.3123ZM237.508 75.1163V82.7323H233.028V63.8043H237.508V65.1763C238.46 63.9816 239.739 63.3843 241.344 63.3843C243.099 63.3843 244.583 63.991 245.796 65.2043C247.066 66.4736 247.7 68.0883 247.7 70.0483C247.7 72.0456 247.028 73.6976 245.684 75.0043C244.508 76.1616 243.08 76.7403 241.4 76.7403C239.851 76.7403 238.554 76.199 237.508 75.1163ZM240.252 67.1923C239.468 67.1923 238.796 67.4723 238.236 68.0323C237.658 68.611 237.368 69.3016 237.368 70.1043C237.368 70.851 237.658 71.5136 238.236 72.0923C238.796 72.6523 239.468 72.9323 240.252 72.9323C241.055 72.9323 241.718 72.6523 242.24 72.0923C242.819 71.5136 243.108 70.851 243.108 70.1043C243.108 69.3016 242.819 68.611 242.24 68.0323C241.718 67.4723 241.055 67.1923 240.252 67.1923ZM259.746 72.2883V76.0403C258.794 76.507 257.758 76.7403 256.638 76.7403C254.66 76.7403 253.017 76.1056 251.71 74.8363C250.422 73.5856 249.778 72.027 249.778 70.1603C249.778 68.2376 250.45 66.623 251.794 65.3163C253.12 64.047 254.8 63.4123 256.834 63.4123C257.842 63.4123 258.813 63.6456 259.746 64.1123V67.8643C258.981 67.323 258.206 67.0523 257.422 67.0523C256.545 67.0523 255.817 67.3416 255.238 67.9203C254.66 68.499 254.37 69.2176 254.37 70.0763C254.37 70.8976 254.632 71.5976 255.154 72.1763C255.752 72.811 256.517 73.1283 257.45 73.1283C258.328 73.1283 259.093 72.8483 259.746 72.2883ZM262.286 63.8043H266.766V70.2443L271.722 63.8043H275.614V76.3203H271.134V69.7123L266.234 76.3203H262.286V63.8043ZM277.936 76.3203L281.408 71.9523C280.55 71.7843 279.822 71.4203 279.224 70.8603C278.571 70.207 278.244 69.311 278.244 68.1723C278.244 66.9216 278.618 65.9043 279.364 65.1203C280.186 64.243 281.604 63.8043 283.62 63.8043H290.228V76.3203H285.748V72.3443H285.384L282.64 76.3203H277.936ZM285.748 69.6003V66.7163H284.404C283.751 66.7163 283.284 66.847 283.004 67.1083C282.743 67.3696 282.612 67.7243 282.612 68.1723C282.612 68.639 282.752 68.9936 283.032 69.2363C283.331 69.479 283.77 69.6003 284.348 69.6003H285.748Z" fill="#0B1530"/>
<path d="M43.2 91.9803V97.7003L48.88 91.9803H50.88L44.64 98.2003L51.08 105.32H49.04L43.58 99.2003L43.2 99.5803V105.32H41.72V91.9803H43.2ZM58.9073 104.32C58.0807 105.147 57.034 105.56 55.7673 105.56C54.5007 105.56 53.4473 105.147 52.6073 104.32C51.7807 103.494 51.3673 102.454 51.3673 101.2C51.3673 99.9336 51.7807 98.887 52.6073 98.0603C53.4473 97.2336 54.5007 96.8203 55.7673 96.8203C57.034 96.8203 58.0807 97.2336 58.9073 98.0603C59.7473 98.887 60.1673 99.9336 60.1673 101.2C60.1673 102.454 59.7473 103.494 58.9073 104.32ZM57.8273 98.9203C57.2673 98.3736 56.5807 98.1003 55.7673 98.1003C54.954 98.1003 54.2607 98.3803 53.6873 98.9403C53.1273 99.487 52.8473 100.24 52.8473 101.2C52.8473 102.16 53.134 102.914 53.7073 103.46C54.2807 104.007 54.9673 104.28 55.7673 104.28C56.5673 104.28 57.254 104.007 57.8273 103.46C58.4007 102.914 58.6873 102.16 58.6873 101.2C58.6873 100.227 58.4007 99.467 57.8273 98.9203ZM68.6556 97.0203V105.32H67.2156V98.3403H64.2556V102.08C64.2556 103.16 64.0423 103.96 63.6156 104.48C63.1356 105.067 62.469 105.36 61.6156 105.36C61.509 105.36 61.3623 105.347 61.1756 105.32V104C61.309 104.027 61.4156 104.04 61.4956 104.04C61.9623 104.04 62.309 103.86 62.5356 103.5C62.7223 103.207 62.8156 102.734 62.8156 102.08V97.0203H68.6556ZM71.3795 97.0203H72.8195V102.5L78.4995 96.3803V105.32H77.0595V99.7803L71.3795 105.9V97.0203ZM85.6633 105.32V102.06C84.8766 102.18 84.2233 102.24 83.7033 102.24C82.7966 102.24 82.1233 102.04 81.6833 101.64C81.2166 101.227 80.9833 100.547 80.9833 99.6003V97.0203H82.4233V99.4003C82.4233 99.8536 82.4833 100.18 82.6033 100.38C82.7899 100.74 83.2099 100.92 83.8633 100.92C84.4499 100.92 85.0499 100.86 85.6633 100.74V97.0203H87.1033V105.32H85.6633ZM95.977 102.54L97.177 103.2C96.897 103.734 96.557 104.18 96.157 104.54C95.397 105.22 94.477 105.56 93.397 105.56C92.277 105.56 91.3104 105.2 90.497 104.48C89.697 103.747 89.297 102.66 89.297 101.22C89.297 99.9536 89.657 98.907 90.377 98.0803C91.1104 97.2403 92.0904 96.8203 93.317 96.8203C94.7037 96.8203 95.7504 97.327 96.457 98.3403C97.017 99.1403 97.277 100.18 97.237 101.46H90.777C90.7904 102.3 91.0504 102.98 91.557 103.5C92.0637 104.02 92.6837 104.28 93.417 104.28C94.0704 104.28 94.637 104.08 95.117 103.68C95.4904 103.36 95.777 102.98 95.977 102.54ZM90.877 100.26H95.757C95.637 99.607 95.3504 99.087 94.897 98.7003C94.457 98.3003 93.9304 98.1003 93.317 98.1003C92.717 98.1003 92.1837 98.307 91.717 98.7203C91.2637 99.1203 90.9837 99.6336 90.877 100.26ZM105.946 97.6203V99.3403C105.293 98.5136 104.426 98.1003 103.346 98.1003C102.533 98.1003 101.839 98.3803 101.266 98.9403C100.693 99.487 100.406 100.24 100.406 101.2C100.406 102.16 100.693 102.914 101.266 103.46C101.839 104.007 102.526 104.28 103.326 104.28C104.393 104.28 105.286 103.847 106.006 102.98V104.7C105.219 105.274 104.339 105.56 103.366 105.56C102.073 105.56 101.006 105.154 100.166 104.34C99.3393 103.514 98.9259 102.474 98.9259 101.22C98.9259 99.9536 99.3459 98.907 100.186 98.0803C101.026 97.2403 102.086 96.8203 103.366 96.8203C104.326 96.8203 105.186 97.087 105.946 97.6203ZM113.655 98.3403H111.055V105.32H109.615V98.3403H107.015V97.0203H113.655V98.3403ZM115.169 97.0203H118.309C119.069 97.0203 119.649 97.1803 120.049 97.5003C120.529 97.887 120.769 98.407 120.769 99.0603C120.769 99.7803 120.469 100.334 119.869 100.72C120.282 100.827 120.629 101.014 120.909 101.28C121.349 101.707 121.569 102.24 121.569 102.88C121.569 103.68 121.282 104.307 120.709 104.76C120.215 105.134 119.562 105.32 118.749 105.32H115.169V97.0203ZM116.609 100.4H118.129C118.515 100.4 118.822 100.32 119.049 100.16C119.315 99.9603 119.449 99.6736 119.449 99.3003C119.449 98.967 119.315 98.7003 119.049 98.5003C118.849 98.367 118.462 98.3003 117.889 98.3003H116.609V100.4ZM116.609 104.04H118.389C119.002 104.04 119.435 103.947 119.689 103.76C120.009 103.52 120.169 103.214 120.169 102.84C120.169 102.44 120.029 102.127 119.749 101.9C119.495 101.7 119.062 101.6 118.449 101.6H116.609V104.04ZM130.782 104.32C129.956 105.147 128.909 105.56 127.642 105.56C126.376 105.56 125.322 105.147 124.482 104.32C123.656 103.494 123.242 102.454 123.242 101.2C123.242 99.9336 123.656 98.887 124.482 98.0603C125.322 97.2336 126.376 96.8203 127.642 96.8203C128.909 96.8203 129.956 97.2336 130.782 98.0603C131.622 98.887 132.042 99.9336 132.042 101.2C132.042 102.454 131.622 103.494 130.782 104.32ZM129.702 98.9203C129.142 98.3736 128.456 98.1003 127.642 98.1003C126.829 98.1003 126.136 98.3803 125.562 98.9403C125.002 99.487 124.722 100.24 124.722 101.2C124.722 102.16 125.009 102.914 125.582 103.46C126.156 104.007 126.842 104.28 127.642 104.28C128.442 104.28 129.129 104.007 129.702 103.46C130.276 102.914 130.562 102.16 130.562 101.2C130.562 100.227 130.276 99.467 129.702 98.9203ZM138.919 97.0203H140.359V100.42L143.719 97.0203H145.479L141.879 100.72L145.919 105.32H144.039L140.799 101.68L140.359 102.1V105.32H138.919V97.0203ZM153.985 104.32C153.159 105.147 152.112 105.56 150.845 105.56C149.579 105.56 148.525 105.147 147.685 104.32C146.859 103.494 146.445 102.454 146.445 101.2C146.445 99.9336 146.859 98.887 147.685 98.0603C148.525 97.2336 149.579 96.8203 150.845 96.8203C152.112 96.8203 153.159 97.2336 153.985 98.0603C154.825 98.887 155.245 99.9336 155.245 101.2C155.245 102.454 154.825 103.494 153.985 104.32ZM152.905 98.9203C152.345 98.3736 151.659 98.1003 150.845 98.1003C150.032 98.1003 149.339 98.3803 148.765 98.9403C148.205 99.487 147.925 100.24 147.925 101.2C147.925 102.16 148.212 102.914 148.785 103.46C149.359 104.007 150.045 104.28 150.845 104.28C151.645 104.28 152.332 104.007 152.905 103.46C153.479 102.914 153.765 102.16 153.765 101.2C153.765 100.227 153.479 99.467 152.905 98.9203ZM163.734 97.0203V105.32H162.294V98.3403H159.334V102.08C159.334 103.16 159.12 103.96 158.694 104.48C158.214 105.067 157.547 105.36 156.694 105.36C156.587 105.36 156.44 105.347 156.254 105.32V104C156.387 104.027 156.494 104.04 156.574 104.04C157.04 104.04 157.387 103.86 157.614 103.5C157.8 103.207 157.894 102.734 157.894 102.08V97.0203H163.734ZM173.478 104.32C172.651 105.147 171.604 105.56 170.338 105.56C169.071 105.56 168.018 105.147 167.178 104.32C166.351 103.494 165.938 102.454 165.938 101.2C165.938 99.9336 166.351 98.887 167.178 98.0603C168.018 97.2336 169.071 96.8203 170.338 96.8203C171.604 96.8203 172.651 97.2336 173.478 98.0603C174.318 98.887 174.738 99.9336 174.738 101.2C174.738 102.454 174.318 103.494 173.478 104.32ZM172.398 98.9203C171.838 98.3736 171.151 98.1003 170.338 98.1003C169.524 98.1003 168.831 98.3803 168.258 98.9403C167.698 99.487 167.418 100.24 167.418 101.2C167.418 102.16 167.704 102.914 168.278 103.46C168.851 104.007 169.538 104.28 170.338 104.28C171.138 104.28 171.824 104.007 172.398 103.46C172.971 102.914 173.258 102.16 173.258 101.2C173.258 100.227 172.971 99.467 172.398 98.9203ZM176.946 105.32V97.0203H178.386V100.42H182.306V97.0203H183.746V105.32H182.306V101.74H178.386V105.32H176.946ZM193.478 104.32C192.651 105.147 191.604 105.56 190.338 105.56C189.071 105.56 188.018 105.147 187.178 104.32C186.351 103.494 185.938 102.454 185.938 101.2C185.938 99.9336 186.351 98.887 187.178 98.0603C188.018 97.2336 189.071 96.8203 190.338 96.8203C191.604 96.8203 192.651 97.2336 193.478 98.0603C194.318 98.887 194.738 99.9336 194.738 101.2C194.738 102.454 194.318 103.494 193.478 104.32ZM192.398 98.9203C191.838 98.3736 191.151 98.1003 190.338 98.1003C189.524 98.1003 188.831 98.3803 188.258 98.9403C187.698 99.487 187.418 100.24 187.418 101.2C187.418 102.16 187.704 102.914 188.278 103.46C188.851 104.007 189.538 104.28 190.338 104.28C191.138 104.28 191.824 104.007 192.398 103.46C192.971 102.914 193.258 102.16 193.258 101.2C193.258 100.227 192.971 99.467 192.398 98.9203ZM196.946 97.0203H198.386V100.42L201.746 97.0203H203.506L199.906 100.72L203.946 105.32H202.066L198.826 101.68L198.386 102.1V105.32H196.946V97.0203ZM210.091 101.7V100.42H223.291V101.7H210.091ZM236.075 91.6603L237.195 92.5003L234.135 96.7603C234.509 96.6403 234.902 96.5803 235.315 96.5803C236.582 96.5803 237.615 97.0003 238.415 97.8403C239.229 98.6803 239.635 99.727 239.635 100.98C239.635 102.314 239.202 103.414 238.335 104.28C237.482 105.134 236.389 105.56 235.055 105.56C234.069 105.56 233.209 105.327 232.475 104.86C231.755 104.38 231.235 103.807 230.915 103.14C230.595 102.46 230.435 101.754 230.435 101.02C230.435 100.007 230.802 98.987 231.535 97.9603L236.075 91.6603ZM235.035 104.2C235.942 104.2 236.689 103.9 237.275 103.3C237.862 102.687 238.155 101.927 238.155 101.02C238.155 100.127 237.855 99.3936 237.255 98.8203C236.669 98.2336 235.922 97.9403 235.015 97.9403C234.109 97.9403 233.362 98.2336 232.775 98.8203C232.202 99.407 231.915 100.14 231.915 101.02C231.915 101.927 232.202 102.687 232.775 103.3C233.362 103.9 234.115 104.2 235.035 104.2Z" fill="#0B1530"/>
<path d="M41.72 127.98H44.14C45.66 127.98 46.78 128.294 47.5 128.92C48.3133 129.614 48.72 130.567 48.72 131.78C48.72 132.82 48.3667 133.707 47.66 134.44C46.9667 135.16 45.9133 135.52 44.5 135.52H43.2V141.32H41.72V127.98ZM43.2 129.38V134.12H44.42C45.3 134.12 45.9867 133.907 46.48 133.48C46.9867 133.054 47.24 132.46 47.24 131.7C47.24 130.154 46.26 129.38 44.3 129.38H43.2ZM56.4505 134.2V133.02H57.8905V141.32H56.4505V140.16C55.7305 141.094 54.7838 141.56 53.6105 141.56C52.4905 141.56 51.5371 141.174 50.7505 140.4C49.9638 139.627 49.5705 138.547 49.5705 137.16C49.5705 135.8 49.9571 134.74 50.7305 133.98C51.5171 133.207 52.4771 132.82 53.6105 132.82C54.8105 132.82 55.7571 133.28 56.4505 134.2ZM53.7705 134.1C53.0105 134.1 52.3638 134.374 51.8305 134.92C51.3105 135.454 51.0505 136.2 51.0505 137.16C51.0505 138.08 51.2905 138.834 51.7705 139.42C52.2638 139.994 52.9305 140.28 53.7705 140.28C54.6105 140.28 55.2771 139.98 55.7705 139.38C56.2771 138.78 56.5305 138.047 56.5305 137.18C56.5305 136.194 56.2505 135.434 55.6905 134.9C55.1305 134.367 54.4905 134.1 53.7705 134.1ZM61.6978 135.14L60.6978 134.32C61.0178 133.854 61.3711 133.507 61.7578 133.28C62.2778 132.974 62.8845 132.82 63.5778 132.82C64.4178 132.82 65.0711 133.014 65.5378 133.4C66.0178 133.814 66.2578 134.34 66.2578 134.98C66.2578 135.754 65.9445 136.334 65.3178 136.72C65.7178 136.814 66.0378 136.994 66.2778 137.26C66.6645 137.674 66.8578 138.18 66.8578 138.78C66.8578 139.674 66.4978 140.387 65.7778 140.92C65.1911 141.347 64.4045 141.56 63.4178 141.56C62.5378 141.56 61.7978 141.327 61.1978 140.86C60.7445 140.527 60.3778 140.054 60.0978 139.44L61.3378 138.92C61.4845 139.294 61.7311 139.607 62.0778 139.86C62.4511 140.14 62.9045 140.28 63.4378 140.28C64.0645 140.28 64.5311 140.174 64.8378 139.96C65.2245 139.707 65.4178 139.32 65.4178 138.8C65.4178 138.374 65.2511 138.054 64.9178 137.84C64.6378 137.654 64.1845 137.56 63.5578 137.56H62.7178V136.24H63.4178C63.9245 136.24 64.2845 136.167 64.4978 136.02C64.7911 135.834 64.9378 135.58 64.9378 135.26C64.9378 134.887 64.8178 134.6 64.5778 134.4C64.3511 134.2 63.9978 134.1 63.5178 134.1C63.1045 134.1 62.7245 134.207 62.3778 134.42C62.0845 134.607 61.8578 134.847 61.6978 135.14ZM70.4953 140.16V145.92H69.0553V133.02H70.4953V134.18C71.2286 133.274 72.1753 132.82 73.3353 132.82C74.5753 132.82 75.5553 133.26 76.2753 134.14C77.0086 135.007 77.3753 136.034 77.3753 137.22C77.3753 138.42 77.0153 139.447 76.2953 140.3C75.5753 141.14 74.6086 141.56 73.3953 141.56C72.182 141.56 71.2153 141.094 70.4953 140.16ZM73.1953 140.28C74.0086 140.28 74.662 139.987 75.1553 139.4C75.6486 138.8 75.8953 138.074 75.8953 137.22C75.8953 136.26 75.622 135.5 75.0753 134.94C74.5286 134.38 73.8953 134.1 73.1753 134.1C72.4553 134.1 71.8153 134.38 71.2553 134.94C70.6953 135.5 70.4153 136.254 70.4153 137.2C70.4153 138.067 70.6686 138.8 71.1753 139.4C71.6953 139.987 72.3686 140.28 73.1953 140.28ZM85.7427 138.54L86.9427 139.2C86.6627 139.734 86.3227 140.18 85.9227 140.54C85.1627 141.22 84.2427 141.56 83.1627 141.56C82.0427 141.56 81.076 141.2 80.2627 140.48C79.4627 139.747 79.0627 138.66 79.0627 137.22C79.0627 135.954 79.4227 134.907 80.1427 134.08C80.876 133.24 81.856 132.82 83.0827 132.82C84.4693 132.82 85.516 133.327 86.2227 134.34C86.7827 135.14 87.0427 136.18 87.0027 137.46H80.5427C80.556 138.3 80.816 138.98 81.3227 139.5C81.8293 140.02 82.4493 140.28 83.1827 140.28C83.836 140.28 84.4027 140.08 84.8827 139.68C85.256 139.36 85.5427 138.98 85.7427 138.54ZM80.6427 136.26H85.5227C85.4027 135.607 85.116 135.087 84.6627 134.7C84.2227 134.3 83.696 134.1 83.0827 134.1C82.4827 134.1 81.9493 134.307 81.4827 134.72C81.0293 135.12 80.7493 135.634 80.6427 136.26ZM89.2116 141.32V133.02H90.6516V140H93.8516V133.02H95.2916V140H98.4916V133.02H99.9316V141.32H89.2116ZM108.809 138.54L110.009 139.2C109.729 139.734 109.389 140.18 108.989 140.54C108.229 141.22 107.309 141.56 106.229 141.56C105.109 141.56 104.142 141.2 103.329 140.48C102.529 139.747 102.129 138.66 102.129 137.22C102.129 135.954 102.489 134.907 103.209 134.08C103.942 133.24 104.922 132.82 106.149 132.82C107.536 132.82 108.582 133.327 109.289 134.34C109.849 135.14 110.109 136.18 110.069 137.46H103.609C103.622 138.3 103.882 138.98 104.389 139.5C104.896 140.02 105.516 140.28 106.249 140.28C106.902 140.28 107.469 140.08 107.949 139.68C108.322 139.36 108.609 138.98 108.809 138.54ZM103.709 136.26H108.589C108.469 135.607 108.182 135.087 107.729 134.7C107.289 134.3 106.762 134.1 106.149 134.1C105.549 134.1 105.016 134.307 104.549 134.72C104.096 135.12 103.816 135.634 103.709 136.26ZM112.278 141.32V133.02H113.718V136.42H117.638V133.02H119.078V141.32H117.638V137.74H113.718V141.32H112.278ZM121.79 133.02H123.23V138.5L128.91 132.38V141.32H127.47V135.78L121.79 141.9V133.02ZM137.793 138.54L138.993 139.2C138.713 139.734 138.373 140.18 137.973 140.54C137.213 141.22 136.293 141.56 135.213 141.56C134.093 141.56 133.127 141.2 132.313 140.48C131.513 139.747 131.113 138.66 131.113 137.22C131.113 135.954 131.473 134.907 132.193 134.08C132.927 133.24 133.907 132.82 135.133 132.82C136.52 132.82 137.567 133.327 138.273 134.34C138.833 135.14 139.093 136.18 139.053 137.46H132.593C132.607 138.3 132.867 138.98 133.373 139.5C133.88 140.02 134.5 140.28 135.233 140.28C135.887 140.28 136.453 140.08 136.933 139.68C137.307 139.36 137.593 138.98 137.793 138.54ZM132.693 136.26H137.573C137.453 135.607 137.167 135.087 136.713 134.7C136.273 134.3 135.747 134.1 135.133 134.1C134.533 134.1 134 134.307 133.533 134.72C133.08 135.12 132.8 135.634 132.693 136.26ZM145.41 134.64V133.24C146.104 132.96 146.857 132.82 147.67 132.82C149.07 132.82 150.17 133.227 150.97 134.04C151.784 134.854 152.19 135.914 152.19 137.22C152.19 138.487 151.777 139.527 150.95 140.34C150.137 141.154 149.077 141.56 147.77 141.56C146.944 141.56 146.157 141.407 145.41 141.1V139.7C146.144 140.087 146.924 140.28 147.75 140.28C148.524 140.28 149.19 140.047 149.75 139.58C150.31 139.1 150.63 138.48 150.71 137.72H146.33V136.44H150.71C150.55 135.707 150.197 135.134 149.65 134.72C149.104 134.307 148.464 134.1 147.73 134.1C146.957 134.1 146.184 134.28 145.41 134.64ZM154.387 133.02H155.827V136.42L159.187 133.02H160.947L157.347 136.72L161.387 141.32H159.507L156.267 137.68L155.827 138.1V141.32H154.387V133.02ZM164.265 140.16V145.92H162.825V133.02H164.265V134.18C164.998 133.274 165.945 132.82 167.105 132.82C168.345 132.82 169.325 133.26 170.045 134.14C170.778 135.007 171.145 136.034 171.145 137.22C171.145 138.42 170.785 139.447 170.065 140.3C169.345 141.14 168.378 141.56 167.165 141.56C165.952 141.56 164.985 141.094 164.265 140.16ZM166.965 140.28C167.778 140.28 168.432 139.987 168.925 139.4C169.418 138.8 169.665 138.074 169.665 137.22C169.665 136.26 169.392 135.5 168.845 134.94C168.298 134.38 167.665 134.1 166.945 134.1C166.225 134.1 165.585 134.38 165.025 134.94C164.465 135.5 164.185 136.254 164.185 137.2C164.185 138.067 164.438 138.8 164.945 139.4C165.465 139.987 166.138 140.28 166.965 140.28ZM179.712 134.2V133.02H181.152V141.32H179.712V140.16C178.992 141.094 178.046 141.56 176.872 141.56C175.752 141.56 174.799 141.174 174.012 140.4C173.226 139.627 172.832 138.547 172.832 137.16C172.832 135.8 173.219 134.74 173.992 133.98C174.779 133.207 175.739 132.82 176.872 132.82C178.072 132.82 179.019 133.28 179.712 134.2ZM177.032 134.1C176.272 134.1 175.626 134.374 175.092 134.92C174.572 135.454 174.312 136.2 174.312 137.16C174.312 138.08 174.552 138.834 175.032 139.42C175.526 139.994 176.192 140.28 177.032 140.28C177.872 140.28 178.539 139.98 179.032 139.38C179.539 138.78 179.792 138.047 179.792 137.18C179.792 136.194 179.512 135.434 178.952 134.9C178.392 134.367 177.752 134.1 177.032 134.1ZM183.88 141.32V133.02H185.32V136.42H189.24V133.02H190.68V141.32H189.24V137.74H185.32V141.32H183.88ZM199.751 134.2V133.02H201.191V141.32H199.751V140.16C199.031 141.094 198.085 141.56 196.911 141.56C195.791 141.56 194.838 141.174 194.051 140.4C193.265 139.627 192.871 138.547 192.871 137.16C192.871 135.8 193.258 134.74 194.031 133.98C194.818 133.207 195.778 132.82 196.911 132.82C198.111 132.82 199.058 133.28 199.751 134.2ZM197.071 134.1C196.311 134.1 195.665 134.374 195.131 134.92C194.611 135.454 194.351 136.2 194.351 137.16C194.351 138.08 194.591 138.834 195.071 139.42C195.565 139.994 196.231 140.28 197.071 140.28C197.911 140.28 198.578 139.98 199.071 139.38C199.578 138.78 199.831 138.047 199.831 137.18C199.831 136.194 199.551 135.434 198.991 134.9C198.431 134.367 197.791 134.1 197.071 134.1ZM210.567 126.52L211.827 127.1C211.387 128.26 211.047 129.414 210.807 130.56C210.473 132.174 210.307 133.854 210.307 135.6C210.307 137.334 210.467 138.96 210.787 140.48C211.027 141.654 211.373 142.874 211.827 144.14L210.567 144.72C209.953 143.107 209.513 141.6 209.247 140.2C208.967 138.72 208.827 137.174 208.827 135.56C208.827 133.72 209.013 131.987 209.387 130.36C209.68 129.107 210.073 127.827 210.567 126.52ZM215.905 140.16V145.92H214.465V133.02H215.905V134.18C216.639 133.274 217.585 132.82 218.745 132.82C219.985 132.82 220.965 133.26 221.685 134.14C222.419 135.007 222.785 136.034 222.785 137.22C222.785 138.42 222.425 139.447 221.705 140.3C220.985 141.14 220.019 141.56 218.805 141.56C217.592 141.56 216.625 141.094 215.905 140.16ZM218.605 140.28C219.419 140.28 220.072 139.987 220.565 139.4C221.059 138.8 221.305 138.074 221.305 137.22C221.305 136.26 221.032 135.5 220.485 134.94C219.939 134.38 219.305 134.1 218.585 134.1C217.865 134.1 217.225 134.38 216.665 134.94C216.105 135.5 215.825 136.254 215.825 137.2C215.825 138.067 216.079 138.8 216.585 139.4C217.105 139.987 217.779 140.28 218.605 140.28ZM223.793 141.32L227.333 136.88L224.313 133.02H226.073L228.213 135.84L230.393 133.02H232.153L229.113 136.9L232.553 141.32H230.793L228.173 137.94L225.553 141.32H223.793ZM233.995 127.1L235.255 126.52C235.748 127.827 236.142 129.107 236.435 130.36C236.808 131.987 236.995 133.72 236.995 135.56C236.995 137.174 236.855 138.72 236.575 140.2C236.308 141.6 235.868 143.107 235.255 144.72L233.995 144.14C234.448 142.874 234.795 141.654 235.035 140.48C235.355 138.96 235.515 137.334 235.515 135.6C235.515 133.854 235.348 132.174 235.015 130.56C234.775 129.414 234.435 128.26 233.995 127.1Z" fill="#0B1530"/>
<path d="M40.56 162.76H44.1C44.1267 163.32 44.3067 163.767 44.64 164.1C44.96 164.447 45.4133 164.62 46 164.62C46.5467 164.62 47 164.427 47.36 164.04C47.6267 163.734 47.76 163.367 47.76 162.94C47.76 162.447 47.5867 162.054 47.24 161.76C46.9333 161.507 46.5067 161.38 45.96 161.38C45.7333 161.38 45.54 161.407 45.38 161.46V159.12C45.9667 159.2 46.44 159.087 46.8 158.78C47.0933 158.527 47.24 158.214 47.24 157.84C47.24 157.44 47.12 157.12 46.88 156.88C46.64 156.64 46.3133 156.52 45.9 156.52C45.4867 156.52 45.1667 156.634 44.94 156.86C44.6333 157.14 44.48 157.534 44.48 158.04H41.26C41.3267 156.8 41.76 155.78 42.56 154.98C43.3867 154.114 44.56 153.68 46.08 153.68C47.4933 153.68 48.6 154.074 49.4 154.86C50.12 155.58 50.48 156.44 50.48 157.44C50.48 158.054 50.3467 158.6 50.08 159.08C49.8267 159.547 49.4867 159.887 49.06 160.1C49.7133 160.34 50.24 160.747 50.64 161.32C51.0133 161.867 51.2 162.52 51.2 163.28C51.2 164.44 50.8067 165.414 50.02 166.2C49.0733 167.147 47.7467 167.62 46.04 167.62C44.48 167.62 43.2067 167.16 42.22 166.24C41.2467 165.347 40.6933 164.187 40.56 162.76ZM52.1561 167.32L58.2361 156.92H52.6761V153.98H63.6161L55.9761 167.32H52.1561ZM71.6578 153.98V156.92H67.0378L66.7978 158.4C67.2111 158.334 67.5711 158.3 67.8778 158.3C69.3711 158.3 70.5445 158.74 71.3978 159.62C72.2111 160.434 72.6178 161.487 72.6178 162.78C72.6178 164.127 72.1911 165.24 71.3378 166.12C70.3645 167.12 68.9778 167.62 67.1778 167.62C65.4445 167.62 63.9445 167.22 62.6778 166.42L63.1978 163.18C63.7045 163.647 64.2378 164.007 64.7978 164.26C65.4511 164.567 66.1178 164.72 66.7978 164.72C67.5445 164.72 68.1245 164.5 68.5378 164.06C68.8845 163.687 69.0578 163.234 69.0578 162.7C69.0578 162.114 68.8445 161.634 68.4178 161.26C67.9245 160.82 67.1245 160.6 66.0178 160.6C65.1245 160.6 64.3045 160.787 63.5578 161.16L64.7178 153.98H71.6578Z" fill="#0B1530"/>
<path d="M272.72 141.32V127.98H274.2V139.92H279.48V127.98H280.96V139.92H286.24V127.98H287.72V141.32H272.72ZM290.798 133.02H292.238V138.5L297.918 132.38V141.32H296.478V135.78L290.798 141.9V133.02ZM302.081 140.16V145.92H300.641V133.02H302.081V134.18C302.815 133.274 303.761 132.82 304.921 132.82C306.161 132.82 307.141 133.26 307.861 134.14C308.595 135.007 308.961 136.034 308.961 137.22C308.961 138.42 308.601 139.447 307.881 140.3C307.161 141.14 306.195 141.56 304.981 141.56C303.768 141.56 302.801 141.094 302.081 140.16ZM304.781 140.28C305.595 140.28 306.248 139.987 306.741 139.4C307.235 138.8 307.481 138.074 307.481 137.22C307.481 136.26 307.208 135.5 306.661 134.94C306.115 134.38 305.481 134.1 304.761 134.1C304.041 134.1 303.401 134.38 302.841 134.94C302.281 135.5 302.001 136.254 302.001 137.2C302.001 138.067 302.255 138.8 302.761 139.4C303.281 139.987 303.955 140.28 304.781 140.28ZM311.169 133.02H312.609V138.5L318.289 132.38V141.32H316.849V135.78L311.169 141.9V133.02ZM321.012 141.32V133.02H322.452V136.42H326.372V133.02H327.812V141.32H326.372V137.74H322.452V141.32H321.012ZM336.884 134.2V133.02H338.324V141.32H336.884V140.16C336.164 141.094 335.217 141.56 334.044 141.56C332.924 141.56 331.971 141.174 331.184 140.4C330.397 139.627 330.004 138.547 330.004 137.16C330.004 135.8 330.391 134.74 331.164 133.98C331.951 133.207 332.911 132.82 334.044 132.82C335.244 132.82 336.191 133.28 336.884 134.2ZM334.204 134.1C333.444 134.1 332.797 134.374 332.264 134.92C331.744 135.454 331.484 136.2 331.484 137.16C331.484 138.08 331.724 138.834 332.204 139.42C332.697 139.994 333.364 140.28 334.204 140.28C335.044 140.28 335.711 139.98 336.204 139.38C336.711 138.78 336.964 138.047 336.964 137.18C336.964 136.194 336.684 135.434 336.124 134.9C335.564 134.367 334.924 134.1 334.204 134.1ZM345.719 133.02H347.159V136.42L350.519 133.02H352.279L348.679 136.72L352.719 141.32H350.839L347.599 137.68L347.159 138.1V141.32H345.719V133.02ZM360.786 140.32C359.96 141.147 358.913 141.56 357.646 141.56C356.38 141.56 355.326 141.147 354.486 140.32C353.66 139.494 353.246 138.454 353.246 137.2C353.246 135.934 353.66 134.887 354.486 134.06C355.326 133.234 356.38 132.82 357.646 132.82C358.913 132.82 359.96 133.234 360.786 134.06C361.626 134.887 362.046 135.934 362.046 137.2C362.046 138.454 361.626 139.494 360.786 140.32ZM359.706 134.92C359.146 134.374 358.46 134.1 357.646 134.1C356.833 134.1 356.14 134.38 355.566 134.94C355.006 135.487 354.726 136.24 354.726 137.2C354.726 138.16 355.013 138.914 355.586 139.46C356.16 140.007 356.846 140.28 357.646 140.28C358.446 140.28 359.133 140.007 359.706 139.46C360.28 138.914 360.566 138.16 360.566 137.2C360.566 136.227 360.28 135.467 359.706 134.92ZM370.535 133.02V141.32H369.095V134.34H366.135V138.08C366.135 139.16 365.921 139.96 365.495 140.48C365.015 141.067 364.348 141.36 363.495 141.36C363.388 141.36 363.241 141.347 363.055 141.32V140C363.188 140.027 363.295 140.04 363.375 140.04C363.841 140.04 364.188 139.86 364.415 139.5C364.601 139.207 364.695 138.734 364.695 138.08V133.02H370.535ZM380.278 140.32C379.452 141.147 378.405 141.56 377.138 141.56C375.872 141.56 374.818 141.147 373.978 140.32C373.152 139.494 372.738 138.454 372.738 137.2C372.738 135.934 373.152 134.887 373.978 134.06C374.818 133.234 375.872 132.82 377.138 132.82C378.405 132.82 379.452 133.234 380.278 134.06C381.118 134.887 381.538 135.934 381.538 137.2C381.538 138.454 381.118 139.494 380.278 140.32ZM379.198 134.92C378.638 134.374 377.952 134.1 377.138 134.1C376.325 134.1 375.632 134.38 375.058 134.94C374.498 135.487 374.218 136.24 374.218 137.2C374.218 138.16 374.505 138.914 375.078 139.46C375.652 140.007 376.338 140.28 377.138 140.28C377.938 140.28 378.625 140.007 379.198 139.46C379.772 138.914 380.058 138.16 380.058 137.2C380.058 136.227 379.772 135.467 379.198 134.92ZM383.747 141.32V133.02H385.187V136.42H389.107V133.02H390.547V141.32H389.107V137.74H385.187V141.32H383.747ZM393.258 133.02H394.698V136.42L398.058 133.02H399.818L396.218 136.72L400.258 141.32H398.378L395.138 137.68L394.698 138.1V141.32H393.258V133.02ZM401.696 133.02H403.136V138.5L408.816 132.38V141.32H407.376V135.78L401.696 141.9V133.02ZM418.188 126.52L419.448 127.1C419.008 128.26 418.668 129.414 418.428 130.56C418.094 132.174 417.928 133.854 417.928 135.6C417.928 137.334 418.088 138.96 418.408 140.48C418.648 141.654 418.994 142.874 419.448 144.14L418.188 144.72C417.574 143.107 417.134 141.6 416.868 140.2C416.588 138.72 416.448 137.174 416.448 135.56C416.448 133.72 416.634 131.987 417.008 130.36C417.301 129.107 417.694 127.827 418.188 126.52ZM423.527 140.16V145.92H422.087V133.02H423.527V134.18C424.26 133.274 425.207 132.82 426.367 132.82C427.607 132.82 428.587 133.26 429.307 134.14C430.04 135.007 430.407 136.034 430.407 137.22C430.407 138.42 430.047 139.447 429.327 140.3C428.607 141.14 427.64 141.56 426.427 141.56C425.213 141.56 424.247 141.094 423.527 140.16ZM426.227 140.28C427.04 140.28 427.693 139.987 428.187 139.4C428.68 138.8 428.927 138.074 428.927 137.22C428.927 136.26 428.653 135.5 428.107 134.94C427.56 134.38 426.927 134.1 426.207 134.1C425.487 134.1 424.847 134.38 424.287 134.94C423.727 135.5 423.447 136.254 423.447 137.2C423.447 138.067 423.7 138.8 424.207 139.4C424.727 139.987 425.4 140.28 426.227 140.28ZM431.414 141.32L434.954 136.88L431.934 133.02H433.694L435.834 135.84L438.014 133.02H439.774L436.734 136.9L440.174 141.32H438.414L435.794 137.94L433.174 141.32H431.414ZM441.616 127.1L442.876 126.52C443.369 127.827 443.763 129.107 444.056 130.36C444.429 131.987 444.616 133.72 444.616 135.56C444.616 137.174 444.476 138.72 444.196 140.2C443.929 141.6 443.489 143.107 442.876 144.72L441.616 144.14C442.069 142.874 442.416 141.654 442.656 140.48C442.976 138.96 443.136 137.334 443.136 135.6C443.136 133.854 442.969 132.174 442.636 130.56C442.396 129.414 442.056 128.26 441.616 127.1Z" fill="#0B1530"/>
<path d="M280.88 153.98V162.14H282.5V164.8H280.88V167.32H277.68V164.8H271.22V162.58L276.36 153.98H280.88ZM274.54 162.14H277.68V156.7L274.54 162.14ZM291.352 160.3C292.019 160.5 292.592 160.84 293.072 161.32C293.752 161.987 294.092 162.774 294.092 163.68C294.092 164.64 293.732 165.48 293.012 166.2C292.066 167.147 290.719 167.62 288.972 167.62C287.252 167.62 285.926 167.154 284.992 166.22C284.259 165.487 283.892 164.64 283.892 163.68C283.892 163.254 283.986 162.82 284.172 162.38C284.359 161.927 284.592 161.56 284.872 161.28C285.312 160.84 285.872 160.514 286.552 160.3C286.072 160.114 285.672 159.86 285.352 159.54C284.752 158.94 284.452 158.234 284.452 157.42C284.452 156.434 284.819 155.594 285.552 154.9C286.432 154.087 287.619 153.68 289.112 153.68C290.579 153.68 291.726 154.107 292.552 154.96C293.206 155.614 293.532 156.427 293.532 157.4C293.532 158.24 293.259 158.934 292.712 159.48C292.352 159.84 291.899 160.114 291.352 160.3ZM289.032 156C288.579 156 288.212 156.154 287.932 156.46C287.666 156.754 287.532 157.094 287.532 157.48C287.532 157.814 287.672 158.134 287.952 158.44C288.232 158.734 288.586 158.88 289.012 158.88C289.399 158.88 289.726 158.747 289.992 158.48C290.299 158.174 290.452 157.834 290.452 157.46C290.452 157.034 290.299 156.68 289.992 156.4C289.699 156.134 289.379 156 289.032 156ZM288.992 161.7C288.579 161.7 288.206 161.854 287.872 162.16C287.552 162.48 287.392 162.847 287.392 163.26C287.392 163.7 287.546 164.074 287.852 164.38C288.172 164.7 288.552 164.86 288.992 164.86C289.432 164.86 289.806 164.707 290.112 164.4C290.432 164.08 290.592 163.7 290.592 163.26C290.592 162.82 290.432 162.454 290.112 162.16C289.792 161.854 289.419 161.7 288.992 161.7Z" fill="#0B1530"/>
<path d="M481.78 141.32H480.26L482.48 127.24L487.6 138.5L492.82 127.22L494.9 141.32H493.38L492.12 132.04L487.58 141.88L483.1 132.04L481.78 141.32ZM503.786 138.54L504.986 139.2C504.706 139.734 504.366 140.18 503.966 140.54C503.206 141.22 502.286 141.56 501.206 141.56C500.086 141.56 499.119 141.2 498.306 140.48C497.506 139.747 497.106 138.66 497.106 137.22C497.106 135.954 497.466 134.907 498.186 134.08C498.919 133.24 499.899 132.82 501.126 132.82C502.512 132.82 503.559 133.327 504.266 134.34C504.826 135.14 505.086 136.18 505.046 137.46H498.586C498.599 138.3 498.859 138.98 499.366 139.5C499.872 140.02 500.492 140.28 501.226 140.28C501.879 140.28 502.446 140.08 502.926 139.68C503.299 139.36 503.586 138.98 503.786 138.54ZM498.686 136.26H503.566C503.446 135.607 503.159 135.087 502.706 134.7C502.266 134.3 501.739 134.1 501.126 134.1C500.526 134.1 499.992 134.307 499.526 134.72C499.072 135.12 498.792 135.634 498.686 136.26ZM510.939 133.02H512.379V136.42L515.499 133.02H517.179L513.579 136.86L517.539 141.32H515.739L512.659 137.82L512.379 138.1V141.32H510.939V138.1L510.659 137.82L507.579 141.32H505.779L509.739 136.86L506.139 133.02H507.819L510.939 136.42V133.02ZM525.278 133.62V135.34C524.625 134.514 523.758 134.1 522.678 134.1C521.865 134.1 521.171 134.38 520.598 134.94C520.025 135.487 519.738 136.24 519.738 137.2C519.738 138.16 520.025 138.914 520.598 139.46C521.171 140.007 521.858 140.28 522.658 140.28C523.725 140.28 524.618 139.847 525.338 138.98V140.7C524.551 141.274 523.671 141.56 522.698 141.56C521.405 141.56 520.338 141.154 519.498 140.34C518.671 139.514 518.258 138.474 518.258 137.22C518.258 135.954 518.678 134.907 519.518 134.08C520.358 133.24 521.418 132.82 522.698 132.82C523.658 132.82 524.518 133.087 525.278 133.62ZM532.988 134.34H530.388V141.32H528.948V134.34H526.348V133.02H532.988V134.34ZM535.941 140.16V145.92H534.501V133.02H535.941V134.18C536.674 133.274 537.621 132.82 538.781 132.82C540.021 132.82 541.001 133.26 541.721 134.14C542.454 135.007 542.821 136.034 542.821 137.22C542.821 138.42 542.461 139.447 541.741 140.3C541.021 141.14 540.054 141.56 538.841 141.56C537.627 141.56 536.661 141.094 535.941 140.16ZM538.641 140.28C539.454 140.28 540.107 139.987 540.601 139.4C541.094 138.8 541.341 138.074 541.341 137.22C541.341 136.26 541.067 135.5 540.521 134.94C539.974 134.38 539.341 134.1 538.621 134.1C537.901 134.1 537.261 134.38 536.701 134.94C536.141 135.5 535.861 136.254 535.861 137.2C535.861 138.067 536.114 138.8 536.621 139.4C537.141 139.987 537.814 140.28 538.641 140.28ZM552.048 140.32C551.221 141.147 550.175 141.56 548.908 141.56C547.641 141.56 546.588 141.147 545.748 140.32C544.921 139.494 544.508 138.454 544.508 137.2C544.508 135.934 544.921 134.887 545.748 134.06C546.588 133.234 547.641 132.82 548.908 132.82C550.175 132.82 551.221 133.234 552.048 134.06C552.888 134.887 553.308 135.934 553.308 137.2C553.308 138.454 552.888 139.494 552.048 140.32ZM550.968 134.92C550.408 134.374 549.721 134.1 548.908 134.1C548.095 134.1 547.401 134.38 546.828 134.94C546.268 135.487 545.988 136.24 545.988 137.2C545.988 138.16 546.275 138.914 546.848 139.46C547.421 140.007 548.108 140.28 548.908 140.28C549.708 140.28 550.395 140.007 550.968 139.46C551.541 138.914 551.828 138.16 551.828 137.2C551.828 136.227 551.541 135.467 550.968 134.92ZM559.956 141.32V138.06C559.17 138.18 558.516 138.24 557.996 138.24C557.09 138.24 556.416 138.04 555.976 137.64C555.51 137.227 555.276 136.547 555.276 135.6V133.02H556.716V135.4C556.716 135.854 556.776 136.18 556.896 136.38C557.083 136.74 557.503 136.92 558.156 136.92C558.743 136.92 559.343 136.86 559.956 136.74V133.02H561.396V141.32H559.956ZM564.11 141.32V133.02H565.55V136.42H569.47V133.02H570.91V141.32H569.47V137.74H565.55V141.32H564.11ZM573.622 141.32V133.02H575.062V136.2H576.542C577.688 136.2 578.528 136.474 579.062 137.02C579.488 137.447 579.702 138.027 579.702 138.76C579.702 139.534 579.455 140.154 578.962 140.62C578.468 141.087 577.655 141.32 576.522 141.32H573.622ZM575.062 140.04H576.402C577.002 140.04 577.428 139.967 577.682 139.82C578.042 139.58 578.222 139.227 578.222 138.76C578.222 138.28 578.048 137.934 577.702 137.72C577.462 137.56 577.035 137.48 576.422 137.48H575.062V140.04ZM580.702 141.32V133.02H582.142V141.32H580.702ZM584.852 133.02H586.292V138.5L591.972 132.38V141.32H590.532V135.78L584.852 141.9V133.02ZM585.572 129.44L586.772 128.98C587.012 129.78 587.579 130.18 588.472 130.18C589.366 130.18 589.932 129.78 590.172 128.98L591.372 129.44C591.159 130.04 590.792 130.514 590.272 130.86C589.766 131.207 589.166 131.38 588.472 131.38C587.779 131.38 587.172 131.207 586.652 130.86C586.146 130.514 585.786 130.04 585.572 129.44ZM599.364 133.02H600.804V138.5L606.484 132.38V141.32H605.044V135.78L599.364 141.9V133.02ZM609.208 141.32V133.02H610.648V136.42H614.568V133.02H616.008V141.32H614.568V137.74H610.648V141.32H609.208ZM624.159 134.34H621.559V141.32H620.119V134.34H617.519V133.02H624.159V134.34ZM631.637 138.54L632.837 139.2C632.557 139.734 632.217 140.18 631.817 140.54C631.057 141.22 630.137 141.56 629.057 141.56C627.937 141.56 626.971 141.2 626.157 140.48C625.357 139.747 624.957 138.66 624.957 137.22C624.957 135.954 625.317 134.907 626.037 134.08C626.771 133.24 627.751 132.82 628.977 132.82C630.364 132.82 631.411 133.327 632.117 134.34C632.677 135.14 632.937 136.18 632.897 137.46H626.437C626.451 138.3 626.711 138.98 627.217 139.5C627.724 140.02 628.344 140.28 629.077 140.28C629.731 140.28 630.297 140.08 630.777 139.68C631.151 139.36 631.437 138.98 631.637 138.54ZM626.537 136.26H631.417C631.297 135.607 631.011 135.087 630.557 134.7C630.117 134.3 629.591 134.1 628.977 134.1C628.377 134.1 627.844 134.307 627.377 134.72C626.924 135.12 626.644 135.634 626.537 136.26ZM636.546 140.16V145.92H635.106V133.02H636.546V134.18C637.279 133.274 638.226 132.82 639.386 132.82C640.626 132.82 641.606 133.26 642.326 134.14C643.059 135.007 643.426 136.034 643.426 137.22C643.426 138.42 643.066 139.447 642.346 140.3C641.626 141.14 640.659 141.56 639.446 141.56C638.233 141.56 637.266 141.094 636.546 140.16ZM639.246 140.28C640.059 140.28 640.713 139.987 641.206 139.4C641.699 138.8 641.946 138.074 641.946 137.22C641.946 136.26 641.673 135.5 641.126 134.94C640.579 134.38 639.946 134.1 639.226 134.1C638.506 134.1 637.866 134.38 637.306 134.94C636.746 135.5 636.466 136.254 636.466 137.2C636.466 138.067 636.719 138.8 637.226 139.4C637.746 139.987 638.419 140.28 639.246 140.28ZM645.633 133.02H648.773C649.533 133.02 650.113 133.18 650.513 133.5C650.993 133.887 651.233 134.407 651.233 135.06C651.233 135.78 650.933 136.334 650.333 136.72C650.747 136.827 651.093 137.014 651.373 137.28C651.813 137.707 652.033 138.24 652.033 138.88C652.033 139.68 651.747 140.307 651.173 140.76C650.68 141.134 650.027 141.32 649.213 141.32H645.633V133.02ZM647.073 136.4H648.593C648.98 136.4 649.287 136.32 649.513 136.16C649.78 135.96 649.913 135.674 649.913 135.3C649.913 134.967 649.78 134.7 649.513 134.5C649.313 134.367 648.927 134.3 648.353 134.3H647.073V136.4ZM647.073 140.04H648.853C649.467 140.04 649.9 139.947 650.153 139.76C650.473 139.52 650.633 139.214 650.633 138.84C650.633 138.44 650.493 138.127 650.213 137.9C649.96 137.7 649.527 137.6 648.913 137.6H647.073V140.04ZM660.587 134.2V133.02H662.027V141.32H660.587V140.16C659.867 141.094 658.921 141.56 657.747 141.56C656.627 141.56 655.674 141.174 654.887 140.4C654.101 139.627 653.707 138.547 653.707 137.16C653.707 135.8 654.094 134.74 654.867 133.98C655.654 133.207 656.614 132.82 657.747 132.82C658.947 132.82 659.894 133.28 660.587 134.2ZM657.907 134.1C657.147 134.1 656.501 134.374 655.967 134.92C655.447 135.454 655.187 136.2 655.187 137.16C655.187 138.08 655.427 138.834 655.907 139.42C656.401 139.994 657.067 140.28 657.907 140.28C658.747 140.28 659.414 139.98 659.907 139.38C660.414 138.78 660.667 138.047 660.667 137.18C660.667 136.194 660.387 135.434 659.827 134.9C659.267 134.367 658.627 134.1 657.907 134.1ZM671.035 133.02V141.32H669.595V134.34H666.635V138.08C666.635 139.16 666.421 139.96 665.995 140.48C665.515 141.067 664.848 141.36 663.995 141.36C663.888 141.36 663.741 141.347 663.555 141.32V140C663.688 140.027 663.795 140.04 663.875 140.04C664.341 140.04 664.688 139.86 664.915 139.5C665.101 139.207 665.195 138.734 665.195 138.08V133.02H671.035ZM680.406 126.52L681.666 127.1C681.226 128.26 680.886 129.414 680.646 130.56C680.313 132.174 680.146 133.854 680.146 135.6C680.146 137.334 680.306 138.96 680.626 140.48C680.866 141.654 681.213 142.874 681.666 144.14L680.406 144.72C679.793 143.107 679.353 141.6 679.086 140.2C678.806 138.72 678.666 137.174 678.666 135.56C678.666 133.72 678.853 131.987 679.226 130.36C679.52 129.107 679.913 127.827 680.406 126.52ZM685.745 140.16V145.92H684.305V133.02H685.745V134.18C686.479 133.274 687.425 132.82 688.585 132.82C689.825 132.82 690.805 133.26 691.525 134.14C692.259 135.007 692.625 136.034 692.625 137.22C692.625 138.42 692.265 139.447 691.545 140.3C690.825 141.14 689.859 141.56 688.645 141.56C687.432 141.56 686.465 141.094 685.745 140.16ZM688.445 140.28C689.259 140.28 689.912 139.987 690.405 139.4C690.899 138.8 691.145 138.074 691.145 137.22C691.145 136.26 690.872 135.5 690.325 134.94C689.779 134.38 689.145 134.1 688.425 134.1C687.705 134.1 687.065 134.38 686.505 134.94C685.945 135.5 685.665 136.254 685.665 137.2C685.665 138.067 685.919 138.8 686.425 139.4C686.945 139.987 687.619 140.28 688.445 140.28ZM693.633 141.32L697.173 136.88L694.153 133.02H695.913L698.053 135.84L700.233 133.02H701.993L698.953 136.9L702.393 141.32H700.633L698.013 137.94L695.393 141.32H693.633ZM703.835 127.1L705.095 126.52C705.588 127.827 705.981 129.107 706.275 130.36C706.648 131.987 706.835 133.72 706.835 135.56C706.835 137.174 706.695 138.72 706.415 140.2C706.148 141.6 705.708 143.107 705.095 144.72L703.835 144.14C704.288 142.874 704.635 141.654 704.875 140.48C705.195 138.96 705.355 137.334 705.355 135.6C705.355 133.854 705.188 132.174 704.855 130.56C704.615 129.414 704.275 128.26 703.835 127.1Z" fill="#0B1530"/>
<path d="M487.36 160.3C488.027 160.5 488.6 160.84 489.08 161.32C489.76 161.987 490.1 162.774 490.1 163.68C490.1 164.64 489.74 165.48 489.02 166.2C488.073 167.147 486.727 167.62 484.98 167.62C483.26 167.62 481.933 167.154 481 166.22C480.267 165.487 479.9 164.64 479.9 163.68C479.9 163.254 479.993 162.82 480.18 162.38C480.367 161.927 480.6 161.56 480.88 161.28C481.32 160.84 481.88 160.514 482.56 160.3C482.08 160.114 481.68 159.86 481.36 159.54C480.76 158.94 480.46 158.234 480.46 157.42C480.46 156.434 480.827 155.594 481.56 154.9C482.44 154.087 483.627 153.68 485.12 153.68C486.587 153.68 487.733 154.107 488.56 154.96C489.213 155.614 489.54 156.427 489.54 157.4C489.54 158.24 489.267 158.934 488.72 159.48C488.36 159.84 487.907 160.114 487.36 160.3ZM485.04 156C484.587 156 484.22 156.154 483.94 156.46C483.673 156.754 483.54 157.094 483.54 157.48C483.54 157.814 483.68 158.134 483.96 158.44C484.24 158.734 484.593 158.88 485.02 158.88C485.407 158.88 485.733 158.747 486 158.48C486.307 158.174 486.46 157.834 486.46 157.46C486.46 157.034 486.307 156.68 486 156.4C485.707 156.134 485.387 156 485.04 156ZM485 161.7C484.587 161.7 484.213 161.854 483.88 162.16C483.56 162.48 483.4 162.847 483.4 163.26C483.4 163.7 483.553 164.074 483.86 164.38C484.18 164.7 484.56 164.86 485 164.86C485.44 164.86 485.813 164.707 486.12 164.4C486.44 164.08 486.6 163.7 486.6 163.26C486.6 162.82 486.44 162.454 486.12 162.16C485.8 161.854 485.427 161.7 485 161.7Z" fill="#0B1530"/>
<path d="M742.72 127.98H745.12C746.453 127.98 747.473 128.26 748.18 128.82C748.98 129.434 749.38 130.354 749.38 131.58C749.38 132.727 748.94 133.6 748.06 134.2C748.913 134.414 749.547 134.847 749.96 135.5C750.387 136.14 750.6 136.827 750.6 137.56C750.6 138.16 750.467 138.714 750.2 139.22C749.947 139.727 749.627 140.134 749.24 140.44C748.493 141.027 747.427 141.32 746.04 141.32H742.72V127.98ZM744.2 129.38V133.84H745.32C745.52 133.84 745.713 133.834 745.9 133.82C746.087 133.794 746.307 133.74 746.56 133.66C746.827 133.567 747.053 133.447 747.24 133.3C747.44 133.154 747.607 132.934 747.74 132.64C747.873 132.347 747.94 132.007 747.94 131.62C747.94 131.207 747.86 130.854 747.7 130.56C747.54 130.254 747.36 130.027 747.16 129.88C746.96 129.734 746.72 129.62 746.44 129.54C746.16 129.46 745.947 129.414 745.8 129.4C745.653 129.387 745.507 129.38 745.36 129.38H744.2ZM744.2 135.16V139.92H745.9C746.98 139.92 747.76 139.734 748.24 139.36C748.827 138.934 749.12 138.32 749.12 137.52C749.12 136.627 748.74 135.974 747.98 135.56C747.5 135.294 746.747 135.16 745.72 135.16H744.2ZM752.965 141.32V133.02H754.405V136.42H758.325V133.02H759.765V141.32H758.325V137.74H754.405V141.32H752.965ZM768.637 138.54L769.837 139.2C769.557 139.734 769.217 140.18 768.817 140.54C768.057 141.22 767.137 141.56 766.057 141.56C764.937 141.56 763.971 141.2 763.157 140.48C762.357 139.747 761.957 138.66 761.957 137.22C761.957 135.954 762.317 134.907 763.037 134.08C763.771 133.24 764.751 132.82 765.977 132.82C767.364 132.82 768.411 133.327 769.117 134.34C769.677 135.14 769.937 136.18 769.897 137.46H763.437C763.451 138.3 763.711 138.98 764.217 139.5C764.724 140.02 765.344 140.28 766.077 140.28C766.731 140.28 767.297 140.08 767.777 139.68C768.151 139.36 768.437 138.98 768.637 138.54ZM763.537 136.26H768.417C768.297 135.607 768.011 135.087 767.557 134.7C767.117 134.3 766.591 134.1 765.977 134.1C765.377 134.1 764.844 134.307 764.377 134.72C763.924 135.12 763.644 135.634 763.537 136.26ZM772.106 141.32V133.02H773.546V140H776.746V133.02H778.186V140H781.386V133.02H782.826V141.32H772.106ZM785.544 141.32V133.02H786.984V136.42H790.904V133.02H792.344V141.32H790.904V137.74H786.984V141.32H785.544ZM795.055 133.02H796.495V138.5L802.175 132.38V141.32H800.735V135.78L795.055 141.9V133.02ZM811.059 138.54L812.259 139.2C811.979 139.734 811.639 140.18 811.239 140.54C810.479 141.22 809.559 141.56 808.479 141.56C807.359 141.56 806.392 141.2 805.579 140.48C804.779 139.747 804.379 138.66 804.379 137.22C804.379 135.954 804.739 134.907 805.459 134.08C806.192 133.24 807.172 132.82 808.399 132.82C809.786 132.82 810.832 133.327 811.539 134.34C812.099 135.14 812.359 136.18 812.319 137.46H805.859C805.872 138.3 806.132 138.98 806.639 139.5C807.146 140.02 807.766 140.28 808.499 140.28C809.152 140.28 809.719 140.08 810.199 139.68C810.572 139.36 810.859 138.98 811.059 138.54ZM805.959 136.26H810.839C810.719 135.607 810.432 135.087 809.979 134.7C809.539 134.3 809.012 134.1 808.399 134.1C807.799 134.1 807.266 134.307 806.799 134.72C806.346 135.12 806.066 135.634 805.959 136.26ZM826.216 140.32C825.389 141.147 824.343 141.56 823.076 141.56C821.809 141.56 820.756 141.147 819.916 140.32C819.089 139.494 818.676 138.454 818.676 137.2C818.676 135.934 819.089 134.887 819.916 134.06C820.756 133.234 821.809 132.82 823.076 132.82C824.343 132.82 825.389 133.234 826.216 134.06C827.056 134.887 827.476 135.934 827.476 137.2C827.476 138.454 827.056 139.494 826.216 140.32ZM825.136 134.92C824.576 134.374 823.889 134.1 823.076 134.1C822.263 134.1 821.569 134.38 820.996 134.94C820.436 135.487 820.156 136.24 820.156 137.2C820.156 138.16 820.443 138.914 821.016 139.46C821.589 140.007 822.276 140.28 823.076 140.28C823.876 140.28 824.563 140.007 825.136 139.46C825.709 138.914 825.996 138.16 825.996 137.2C825.996 136.227 825.709 135.467 825.136 134.92ZM834.929 134.34H832.329V141.32H830.889V134.34H828.289V133.02H834.929V134.34ZM842.747 133.62V135.34C842.093 134.514 841.227 134.1 840.147 134.1C839.333 134.1 838.64 134.38 838.067 134.94C837.493 135.487 837.207 136.24 837.207 137.2C837.207 138.16 837.493 138.914 838.067 139.46C838.64 140.007 839.327 140.28 840.127 140.28C841.193 140.28 842.087 139.847 842.807 138.98V140.7C842.02 141.274 841.14 141.56 840.167 141.56C838.873 141.56 837.807 141.154 836.967 140.34C836.14 139.514 835.727 138.474 835.727 137.22C835.727 135.954 836.147 134.907 836.987 134.08C837.827 133.24 838.887 132.82 840.167 132.82C841.127 132.82 841.987 133.087 842.747 133.62ZM850.456 134.34H847.856V141.32H846.416V134.34H843.816V133.02H850.456V134.34ZM852.34 145.92L854.98 140.54L851.16 133.02H852.8L855.74 138.96L858.44 133.02H860.04L853.94 145.92H852.34ZM861.559 133.02H868.239V141.32H866.799V134.34H862.999V141.32H861.559V133.02ZM870.954 141.32V133.02H872.394V136.2H873.874C875.02 136.2 875.86 136.474 876.394 137.02C876.82 137.447 877.034 138.027 877.034 138.76C877.034 139.534 876.787 140.154 876.294 140.62C875.8 141.087 874.987 141.32 873.854 141.32H870.954ZM872.394 140.04H873.734C874.334 140.04 874.76 139.967 875.014 139.82C875.374 139.58 875.554 139.227 875.554 138.76C875.554 138.28 875.38 137.934 875.034 137.72C874.794 137.56 874.367 137.48 873.754 137.48H872.394V140.04ZM878.034 141.32V133.02H879.474V141.32H878.034ZM888.832 126.52L890.092 127.1C889.652 128.26 889.312 129.414 889.072 130.56C888.739 132.174 888.572 133.854 888.572 135.6C888.572 137.334 888.732 138.96 889.052 140.48C889.292 141.654 889.639 142.874 890.092 144.14L888.832 144.72C888.219 143.107 887.779 141.6 887.512 140.2C887.232 138.72 887.092 137.174 887.092 135.56C887.092 133.72 887.279 131.987 887.652 130.36C887.946 129.107 888.339 127.827 888.832 126.52ZM894.171 140.16V145.92H892.731V133.02H894.171V134.18C894.904 133.274 895.851 132.82 897.011 132.82C898.251 132.82 899.231 133.26 899.951 134.14C900.684 135.007 901.051 136.034 901.051 137.22C901.051 138.42 900.691 139.447 899.971 140.3C899.251 141.14 898.284 141.56 897.071 141.56C895.858 141.56 894.891 141.094 894.171 140.16ZM896.871 140.28C897.684 140.28 898.338 139.987 898.831 139.4C899.324 138.8 899.571 138.074 899.571 137.22C899.571 136.26 899.298 135.5 898.751 134.94C898.204 134.38 897.571 134.1 896.851 134.1C896.131 134.1 895.491 134.38 894.931 134.94C894.371 135.5 894.091 136.254 894.091 137.2C894.091 138.067 894.344 138.8 894.851 139.4C895.371 139.987 896.044 140.28 896.871 140.28ZM902.058 141.32L905.598 136.88L902.578 133.02H904.338L906.478 135.84L908.658 133.02H910.418L907.378 136.9L910.818 141.32H909.058L906.438 137.94L903.818 141.32H902.058ZM912.26 127.1L913.52 126.52C914.014 127.827 914.407 129.107 914.7 130.36C915.074 131.987 915.26 133.72 915.26 135.56C915.26 137.174 915.12 138.72 914.84 140.2C914.574 141.6 914.134 143.107 913.52 144.72L912.26 144.14C912.714 142.874 913.06 141.654 913.3 140.48C913.62 138.96 913.78 137.334 913.78 135.6C913.78 133.854 913.614 132.174 913.28 130.56C913.04 129.414 912.7 128.26 912.26 127.1Z" fill="#0B1530"/>
<path d="M752.22 164.38V167.32H741.52L744.9 163.78C746.113 162.514 747.027 161.387 747.64 160.4C748.12 159.654 748.36 158.96 748.36 158.32C748.36 157.76 748.227 157.334 747.96 157.04C747.72 156.774 747.393 156.64 746.98 156.64C746.487 156.64 746.1 156.82 745.82 157.18C745.527 157.554 745.367 158.1 745.34 158.82H741.76C741.773 157.327 742.267 156.094 743.24 155.12C744.2 154.16 745.46 153.68 747.02 153.68C748.607 153.68 749.86 154.14 750.78 155.06C751.647 155.927 752.08 157.02 752.08 158.34C752.08 159.754 751.42 161.074 750.1 162.3L747.86 164.38H752.22ZM753.552 162.76H757.092C757.119 163.32 757.299 163.767 757.632 164.1C757.952 164.447 758.406 164.62 758.992 164.62C759.539 164.62 759.992 164.427 760.352 164.04C760.619 163.734 760.752 163.367 760.752 162.94C760.752 162.447 760.579 162.054 760.232 161.76C759.926 161.507 759.499 161.38 758.952 161.38C758.726 161.38 758.532 161.407 758.372 161.46V159.12C758.959 159.2 759.432 159.087 759.792 158.78C760.086 158.527 760.232 158.214 760.232 157.84C760.232 157.44 760.112 157.12 759.872 156.88C759.632 156.64 759.306 156.52 758.892 156.52C758.479 156.52 758.159 156.634 757.932 156.86C757.626 157.14 757.472 157.534 757.472 158.04H754.252C754.319 156.8 754.752 155.78 755.552 154.98C756.379 154.114 757.552 153.68 759.072 153.68C760.486 153.68 761.592 154.074 762.392 154.86C763.112 155.58 763.472 156.44 763.472 157.44C763.472 158.054 763.339 158.6 763.072 159.08C762.819 159.547 762.479 159.887 762.052 160.1C762.706 160.34 763.232 160.747 763.632 161.32C764.006 161.867 764.192 162.52 764.192 163.28C764.192 164.44 763.799 165.414 763.012 166.2C762.066 167.147 760.739 167.62 759.032 167.62C757.472 167.62 756.199 167.16 755.212 166.24C754.239 165.347 753.686 164.187 753.552 162.76ZM769.484 167.08C769.071 167.494 768.584 167.7 768.024 167.7C767.464 167.7 766.978 167.494 766.564 167.08C766.151 166.667 765.944 166.18 765.944 165.62C765.944 165.06 766.151 164.574 766.564 164.16C766.978 163.747 767.464 163.54 768.024 163.54C768.584 163.54 769.078 163.754 769.504 164.18C769.891 164.567 770.084 165.047 770.084 165.62C770.084 166.194 769.884 166.68 769.484 167.08ZM780.939 153.98V156.92H776.319L776.079 158.4C776.492 158.334 776.852 158.3 777.159 158.3C778.652 158.3 779.826 158.74 780.679 159.62C781.492 160.434 781.899 161.487 781.899 162.78C781.899 164.127 781.472 165.24 780.619 166.12C779.646 167.12 778.259 167.62 776.459 167.62C774.726 167.62 773.226 167.22 771.959 166.42L772.479 163.18C772.986 163.647 773.519 164.007 774.079 164.26C774.732 164.567 775.399 164.72 776.079 164.72C776.826 164.72 777.406 164.5 777.819 164.06C778.166 163.687 778.339 163.234 778.339 162.7C778.339 162.114 778.126 161.634 777.699 161.26C777.206 160.82 776.406 160.6 775.299 160.6C774.406 160.6 773.586 160.787 772.839 161.16L773.999 153.98H780.939Z" fill="#0B1530"/>
<rect x="303" y="230.32" width="80" height="73" fill="#9FE4CB"/>
<rect x="383" y="230.32" width="36.16" height="73" fill="#FDB5B5"/>
<rect x="429.161" y="230.32" width="36.16" height="73" fill="#FDB5B5"/>
<rect x="475.32" y="230.32" width="36.16" height="73" fill="#FDB5B5"/>
<rect x="521.48" y="230.32" width="36.16" height="73" fill="#FDB5B5"/>
<rect x="567.641" y="230.32" width="36.16" height="73" fill="#FDB5B5"/>
<rect x="613.8" y="230.32" width="36.16" height="73" fill="#FDB5B5"/>
<rect x="649.96" y="230.32" width="80" height="73" fill="#9FE4CB"/>
<mask id="path-20-inside-1_808_2693" fill="white">
<path d="M428.704 229.523L428.704 216.523L464.704 216.523L464.704 229.523L428.704 229.523Z"/>
</mask>
<path d="M428.704 216.523L428.704 214.523L426.704 214.523L426.704 216.523L428.704 216.523ZM464.704 216.523L466.704 216.523L466.704 214.523L464.704 214.523L464.704 216.523ZM430.704 229.523L430.704 216.523L426.704 216.523L426.704 229.523L430.704 229.523ZM428.704 218.523L464.704 218.523L464.704 214.523L428.704 214.523L428.704 218.523ZM462.704 216.523L462.704 229.523L466.704 229.523L466.704 216.523L462.704 216.523Z" fill="#33F7C3" mask="url(#path-20-inside-1_808_2693)"/>
<rect x="468.657" y="205.773" width="43.9061" height="20.7027" rx="3.75176" transform="rotate(-180 468.657 205.773)" fill="#33F7C3"/>
<rect x="468.657" y="205.773" width="43.9061" height="20.7027" rx="3.75176" transform="rotate(-180 468.657 205.773)" stroke="#33F7C3" stroke-width="1.5007"/>
<path d="M431.779 198.387V196.933L435.424 191.191H436.678V193.203H435.936L433.638 196.839V196.908H438.818V198.387H431.779ZM435.97 199.922V197.944L436.004 197.3V191.191H437.735V199.922H435.97ZM443.305 200.041C442.649 200.041 442.065 199.935 441.553 199.721C441.044 199.505 440.645 199.211 440.355 198.839C440.065 198.467 439.92 198.045 439.92 197.573C439.92 197.209 440.002 196.875 440.167 196.571C440.335 196.264 440.562 196.01 440.849 195.808C441.137 195.603 441.458 195.472 441.813 195.416V195.356C441.347 195.262 440.969 195.036 440.679 194.678C440.389 194.317 440.244 193.898 440.244 193.42C440.244 192.968 440.376 192.566 440.641 192.214C440.905 191.858 441.267 191.58 441.728 191.378C442.191 191.173 442.717 191.071 443.305 191.071C443.894 191.071 444.418 191.173 444.878 191.378C445.342 191.583 445.705 191.863 445.97 192.218C446.234 192.57 446.368 192.971 446.371 193.42C446.368 193.901 446.22 194.32 445.927 194.678C445.634 195.036 445.259 195.262 444.802 195.356V195.416C445.151 195.472 445.468 195.603 445.752 195.808C446.039 196.01 446.267 196.264 446.434 196.571C446.605 196.875 446.692 197.209 446.695 197.573C446.692 198.045 446.545 198.467 446.255 198.839C445.966 199.211 445.565 199.505 445.053 199.721C444.544 199.935 443.962 200.041 443.305 200.041ZM443.305 198.686C443.598 198.686 443.854 198.633 444.073 198.528C444.291 198.42 444.462 198.272 444.584 198.084C444.709 197.894 444.772 197.675 444.772 197.428C444.772 197.175 444.708 196.952 444.58 196.758C444.452 196.562 444.279 196.409 444.06 196.298C443.841 196.184 443.589 196.127 443.305 196.127C443.024 196.127 442.772 196.184 442.551 196.298C442.329 196.409 442.154 196.562 442.026 196.758C441.901 196.952 441.839 197.175 441.839 197.428C441.839 197.675 441.9 197.894 442.022 198.084C442.144 198.272 442.316 198.42 442.538 198.528C442.759 198.633 443.015 198.686 443.305 198.686ZM443.305 194.785C443.55 194.785 443.767 194.735 443.957 194.635C444.148 194.536 444.297 194.398 444.405 194.222C444.513 194.046 444.567 193.842 444.567 193.612C444.567 193.385 444.513 193.186 444.405 193.015C444.297 192.842 444.149 192.707 443.962 192.61C443.774 192.511 443.555 192.461 443.305 192.461C443.058 192.461 442.839 192.511 442.649 192.61C442.458 192.707 442.309 192.842 442.201 193.015C442.096 193.186 442.043 193.385 442.043 193.612C442.043 193.842 442.097 194.046 442.205 194.222C442.313 194.398 442.462 194.536 442.653 194.635C442.843 194.735 443.061 194.785 443.305 194.785ZM448.002 202.378V193.373H449.793V194.473H449.874C449.954 194.297 450.069 194.118 450.219 193.936C450.373 193.751 450.572 193.598 450.816 193.476C451.063 193.351 451.37 193.288 451.737 193.288C452.215 193.288 452.655 193.413 453.059 193.663C453.462 193.911 453.785 194.284 454.026 194.785C454.268 195.282 454.389 195.906 454.389 196.656C454.389 197.387 454.271 198.003 454.035 198.506C453.802 199.007 453.484 199.386 453.08 199.645C452.679 199.901 452.23 200.028 451.733 200.028C451.38 200.028 451.08 199.97 450.833 199.854C450.589 199.737 450.388 199.591 450.232 199.415C450.076 199.235 449.956 199.055 449.874 198.873H449.819V202.378H448.002ZM449.78 196.648C449.78 197.037 449.834 197.377 449.942 197.667C450.05 197.956 450.206 198.182 450.411 198.344C450.616 198.504 450.864 198.583 451.157 198.583C451.453 198.583 451.703 198.502 451.908 198.34C452.112 198.175 452.267 197.948 452.372 197.658C452.48 197.365 452.534 197.028 452.534 196.648C452.534 196.27 452.482 195.937 452.377 195.65C452.271 195.363 452.116 195.138 451.912 194.976C451.707 194.814 451.456 194.733 451.157 194.733C450.862 194.733 450.612 194.812 450.407 194.968C450.205 195.124 450.05 195.346 449.942 195.633C449.834 195.92 449.78 196.258 449.78 196.648ZM456.883 193.373L458.085 195.663L459.317 193.373H461.18L459.283 196.648L461.232 199.922H459.377L458.085 197.658L456.815 199.922H454.939L456.883 196.648L455.007 193.373H456.883Z" fill="#0B1530"/>
<mask id="path-24-inside-2_808_2693" fill="white">
<path d="M303 229.549L303 216.549L383 216.549L383 229.549L303 229.549Z"/>
</mask>
<path d="M303 216.549L303 214.549L301 214.549L301 216.549L303 216.549ZM383 216.549L385 216.549L385 214.549L383 214.549L383 216.549ZM305 229.549L305 216.549L301 216.549L301 229.549L305 229.549ZM303 218.549L383 218.549L383 214.549L303 214.549L303 218.549ZM381 216.549L381 229.549L385 229.549L385 216.549L381 216.549Z" fill="#33F7C3" mask="url(#path-24-inside-2_808_2693)"/>
<rect x="369.953" y="205.798" width="53.9061" height="20.7027" rx="3.75176" transform="rotate(-180 369.953 205.798)" fill="#33F7C3"/>
<rect x="369.953" y="205.798" width="53.9061" height="20.7027" rx="3.75176" transform="rotate(-180 369.953 205.798)" stroke="#33F7C3" stroke-width="1.5007"/>
<path d="M323.208 199.947V198.617L326.316 195.739C326.58 195.484 326.802 195.253 326.981 195.049C327.163 194.844 327.301 194.644 327.394 194.448C327.488 194.249 327.535 194.034 327.535 193.804C327.535 193.548 327.477 193.328 327.36 193.143C327.244 192.955 327.085 192.812 326.883 192.712C326.681 192.61 326.452 192.559 326.196 192.559C325.929 192.559 325.696 192.613 325.497 192.721C325.298 192.829 325.145 192.984 325.037 193.186C324.929 193.387 324.875 193.628 324.875 193.906H323.122C323.122 193.335 323.252 192.839 323.51 192.418C323.769 191.998 324.131 191.672 324.598 191.442C325.064 191.212 325.601 191.097 326.209 191.097C326.834 191.097 327.379 191.207 327.842 191.429C328.308 191.648 328.671 191.952 328.929 192.341C329.188 192.731 329.317 193.177 329.317 193.68C329.317 194.01 329.252 194.335 329.121 194.656C328.993 194.978 328.764 195.334 328.435 195.727C328.105 196.116 327.64 196.583 327.04 197.129L325.766 198.378V198.438H329.432V199.947H323.208ZM333.997 200.067C333.361 200.067 332.794 199.957 332.296 199.738C331.802 199.517 331.411 199.213 331.124 198.826C330.839 198.437 330.693 197.988 330.685 197.479H332.543C332.555 197.692 332.624 197.88 332.752 198.042C332.883 198.201 333.056 198.324 333.272 198.412C333.488 198.501 333.731 198.545 334.001 198.545C334.283 198.545 334.532 198.495 334.748 198.395C334.964 198.296 335.133 198.158 335.255 197.982C335.377 197.806 335.438 197.602 335.438 197.372C335.438 197.139 335.373 196.933 335.242 196.754C335.114 196.572 334.929 196.43 334.688 196.328C334.449 196.225 334.165 196.174 333.835 196.174H333.021V194.818H333.835C334.114 194.818 334.36 194.77 334.573 194.673C334.789 194.577 334.956 194.443 335.076 194.273C335.195 194.099 335.255 193.898 335.255 193.667C335.255 193.448 335.202 193.257 335.097 193.092C334.995 192.924 334.85 192.793 334.662 192.7C334.478 192.606 334.262 192.559 334.014 192.559C333.764 192.559 333.535 192.604 333.328 192.695C333.12 192.783 332.954 192.91 332.829 193.075C332.704 193.24 332.637 193.433 332.629 193.655H330.859C330.868 193.151 331.011 192.708 331.29 192.324C331.569 191.941 331.944 191.641 332.416 191.425C332.89 191.206 333.426 191.097 334.023 191.097C334.625 191.097 335.153 191.206 335.605 191.425C336.056 191.644 336.407 191.939 336.658 192.312C336.911 192.681 337.036 193.096 337.033 193.556C337.036 194.045 336.884 194.453 336.577 194.78C336.272 195.107 335.876 195.314 335.387 195.403V195.471C336.029 195.553 336.518 195.776 336.854 196.14C337.192 196.501 337.36 196.953 337.357 197.496C337.36 197.993 337.216 198.435 336.926 198.822C336.639 199.208 336.243 199.512 335.737 199.734C335.231 199.956 334.651 200.067 333.997 200.067ZM339.516 200.058C339.235 200.058 338.993 199.959 338.791 199.76C338.592 199.558 338.493 199.316 338.493 199.035C338.493 198.756 338.592 198.518 338.791 198.319C338.993 198.12 339.235 198.02 339.516 198.02C339.789 198.02 340.028 198.12 340.232 198.319C340.437 198.518 340.539 198.756 340.539 199.035C340.539 199.222 340.491 199.394 340.394 199.551C340.301 199.704 340.177 199.828 340.023 199.922C339.87 200.013 339.701 200.058 339.516 200.058ZM345.132 200.067C344.53 200.067 343.992 199.956 343.521 199.734C343.052 199.512 342.679 199.207 342.404 198.817C342.128 198.428 341.984 197.982 341.973 197.479H343.764C343.783 197.817 343.926 198.091 344.19 198.302C344.454 198.512 344.768 198.617 345.132 198.617C345.422 198.617 345.678 198.553 345.899 198.425C346.124 198.295 346.299 198.114 346.424 197.884C346.552 197.651 346.616 197.384 346.616 197.082C346.616 196.775 346.55 196.505 346.42 196.272C346.292 196.039 346.114 195.857 345.887 195.727C345.659 195.596 345.399 195.529 345.106 195.526C344.851 195.526 344.602 195.579 344.36 195.684C344.122 195.789 343.935 195.933 343.802 196.115L342.16 195.82L342.574 191.216H347.912V192.725H344.096L343.87 194.912H343.921C344.075 194.696 344.306 194.517 344.616 194.375C344.926 194.233 345.273 194.162 345.656 194.162C346.182 194.162 346.651 194.286 347.063 194.533C347.475 194.78 347.801 195.12 348.04 195.552C348.278 195.981 348.396 196.475 348.394 197.035C348.396 197.624 348.26 198.147 347.984 198.604C347.711 199.059 347.329 199.417 346.837 199.679C346.349 199.937 345.78 200.067 345.132 200.067ZM349.698 202.403V193.399H351.489V194.499H351.57C351.649 194.322 351.764 194.143 351.915 193.962C352.069 193.777 352.268 193.623 352.512 193.501C352.759 193.376 353.066 193.313 353.433 193.313C353.91 193.313 354.351 193.439 354.754 193.689C355.158 193.936 355.481 194.31 355.722 194.81C355.964 195.307 356.085 195.931 356.085 196.682C356.085 197.412 355.967 198.029 355.731 198.532C355.498 199.032 355.179 199.412 354.776 199.67C354.375 199.926 353.926 200.054 353.429 200.054C353.076 200.054 352.776 199.996 352.529 199.879C352.285 199.763 352.084 199.616 351.928 199.44C351.772 199.261 351.652 199.08 351.57 198.898H351.514V202.403H349.698ZM351.476 196.673C351.476 197.062 351.53 197.402 351.638 197.692C351.746 197.982 351.902 198.208 352.107 198.37C352.312 198.529 352.56 198.609 352.853 198.609C353.149 198.609 353.399 198.528 353.603 198.366C353.808 198.201 353.963 197.973 354.068 197.683C354.176 197.391 354.23 197.054 354.23 196.673C354.23 196.295 354.177 195.962 354.072 195.675C353.967 195.388 353.812 195.164 353.608 195.002C353.403 194.84 353.151 194.759 352.853 194.759C352.557 194.759 352.307 194.837 352.103 194.993C351.901 195.15 351.746 195.371 351.638 195.658C351.53 195.945 351.476 196.284 351.476 196.673ZM358.579 193.399L359.781 195.688L361.013 193.399H362.876L360.979 196.673L362.927 199.947H361.073L359.781 197.683L358.51 199.947H356.635L358.579 196.673L356.703 193.399H358.579Z" fill="#0B1530"/>
<mask id="path-28-inside-3_808_2693" fill="white">
<path d="M511.204 229.523L511.204 216.523L522.204 216.523L522.204 229.523L511.204 229.523Z"/>
</mask>
<path d="M511.204 216.523L511.204 214.523L509.204 214.523L509.204 216.523L511.204 216.523ZM522.204 216.523L524.204 216.523L524.204 214.523L522.204 214.523L522.204 216.523ZM513.204 229.523L513.204 216.523L509.204 216.523L509.204 229.523L513.204 229.523ZM511.204 218.523L522.204 218.523L522.204 214.523L511.204 214.523L511.204 218.523ZM520.204 216.523L520.204 229.523L524.204 229.523L524.204 216.523L520.204 216.523Z" fill="#33F7C3" mask="url(#path-28-inside-3_808_2693)"/>
<rect x="534.657" y="205.773" width="35.9061" height="20.7027" rx="3.75176" transform="rotate(-180 534.657 205.773)" fill="#33F7C3"/>
<rect x="534.657" y="205.773" width="35.9061" height="20.7027" rx="3.75176" transform="rotate(-180 534.657 205.773)" stroke="#33F7C3" stroke-width="1.5007"/>
<path d="M509.169 200.041C508.512 200.041 507.928 199.935 507.416 199.721C506.908 199.505 506.508 199.211 506.218 198.839C505.928 198.467 505.783 198.045 505.783 197.573C505.783 197.209 505.866 196.875 506.031 196.571C506.198 196.264 506.426 196.01 506.713 195.808C507 195.603 507.321 195.472 507.676 195.416V195.356C507.21 195.262 506.832 195.036 506.542 194.678C506.252 194.317 506.107 193.898 506.107 193.42C506.107 192.968 506.24 192.566 506.504 192.214C506.768 191.858 507.131 191.58 507.591 191.378C508.054 191.173 508.58 191.071 509.169 191.071C509.757 191.071 510.281 191.173 510.742 191.378C511.205 191.583 511.569 191.863 511.833 192.218C512.097 192.57 512.231 192.971 512.234 193.42C512.231 193.901 512.083 194.32 511.791 194.678C511.498 195.036 511.123 195.262 510.665 195.356V195.416C511.015 195.472 511.331 195.603 511.616 195.808C511.903 196.01 512.13 196.264 512.298 196.571C512.468 196.875 512.555 197.209 512.558 197.573C512.555 198.045 512.409 198.467 512.119 198.839C511.829 199.211 511.428 199.505 510.917 199.721C510.408 199.935 509.825 200.041 509.169 200.041ZM509.169 198.686C509.461 198.686 509.717 198.633 509.936 198.528C510.155 198.42 510.325 198.272 510.448 198.084C510.573 197.894 510.635 197.675 510.635 197.428C510.635 197.175 510.571 196.952 510.443 196.758C510.315 196.562 510.142 196.409 509.923 196.298C509.704 196.184 509.453 196.127 509.169 196.127C508.887 196.127 508.636 196.184 508.414 196.298C508.192 196.409 508.017 196.562 507.89 196.758C507.764 196.952 507.702 197.175 507.702 197.428C507.702 197.675 507.763 197.894 507.885 198.084C508.007 198.272 508.179 198.42 508.401 198.528C508.623 198.633 508.879 198.686 509.169 198.686ZM509.169 194.785C509.413 194.785 509.63 194.735 509.821 194.635C510.011 194.536 510.16 194.398 510.268 194.222C510.376 194.046 510.43 193.842 510.43 193.612C510.43 193.385 510.376 193.186 510.268 193.015C510.16 192.842 510.013 192.707 509.825 192.61C509.638 192.511 509.419 192.461 509.169 192.461C508.921 192.461 508.702 192.511 508.512 192.61C508.322 192.707 508.172 192.842 508.064 193.015C507.959 193.186 507.907 193.385 507.907 193.612C507.907 193.842 507.961 194.046 508.069 194.222C508.177 194.398 508.326 194.536 508.516 194.635C508.707 194.735 508.924 194.785 509.169 194.785ZM513.866 202.378V193.373H515.656V194.473H515.737C515.817 194.297 515.932 194.118 516.083 193.936C516.236 193.751 516.435 193.598 516.68 193.476C516.927 193.351 517.234 193.288 517.6 193.288C518.078 193.288 518.518 193.413 518.922 193.663C519.326 193.911 519.648 194.284 519.89 194.785C520.131 195.282 520.252 195.906 520.252 196.656C520.252 197.387 520.134 198.003 519.898 198.506C519.665 199.007 519.347 199.386 518.943 199.645C518.543 199.901 518.094 200.028 517.596 200.028C517.244 200.028 516.944 199.97 516.697 199.854C516.452 199.737 516.252 199.591 516.095 199.415C515.939 199.235 515.82 199.055 515.737 198.873H515.682V202.378H513.866ZM515.644 196.648C515.644 197.037 515.698 197.377 515.806 197.667C515.914 197.956 516.07 198.182 516.274 198.344C516.479 198.504 516.728 198.583 517.021 198.583C517.316 198.583 517.566 198.502 517.771 198.34C517.976 198.175 518.13 197.948 518.236 197.658C518.344 197.365 518.398 197.028 518.398 196.648C518.398 196.27 518.345 195.937 518.24 195.65C518.135 195.363 517.98 195.138 517.775 194.976C517.571 194.814 517.319 194.733 517.021 194.733C516.725 194.733 516.475 194.812 516.27 194.968C516.068 195.124 515.914 195.346 515.806 195.633C515.698 195.92 515.644 196.258 515.644 196.648ZM522.746 193.373L523.949 195.663L525.181 193.373H527.044L525.147 196.648L527.095 199.922H525.24L523.949 197.658L522.678 199.922H520.802L522.746 196.648L520.87 193.373H522.746Z" fill="#0B1530"/>
<rect x="541.953" y="348.849" width="50.9061" height="20.7027" rx="3.75176" transform="rotate(-180 541.953 348.849)" fill="#33F7C3"/>
<rect x="541.953" y="348.849" width="50.9061" height="20.7027" rx="3.75176" transform="rotate(-180 541.953 348.849)" stroke="#33F7C3" stroke-width="1.5007"/>
<path d="M501.435 343.117C500.798 343.117 500.231 343.008 499.734 342.789C499.239 342.567 498.849 342.263 498.562 341.877C498.277 341.487 498.131 341.038 498.122 340.53H499.981C499.993 340.743 500.062 340.93 500.19 341.092C500.321 341.251 500.494 341.375 500.71 341.463C500.926 341.551 501.169 341.595 501.439 341.595C501.721 341.595 501.969 341.546 502.185 341.446C502.401 341.347 502.571 341.209 502.693 341.033C502.815 340.856 502.876 340.653 502.876 340.423C502.876 340.19 502.811 339.984 502.68 339.805C502.552 339.623 502.367 339.481 502.126 339.378C501.887 339.276 501.603 339.225 501.273 339.225H500.459V337.869H501.273C501.552 337.869 501.797 337.821 502.011 337.724C502.227 337.628 502.394 337.494 502.514 337.324C502.633 337.15 502.693 336.948 502.693 336.718C502.693 336.499 502.64 336.307 502.535 336.143C502.433 335.975 502.288 335.844 502.1 335.75C501.915 335.657 501.699 335.61 501.452 335.61C501.202 335.61 500.973 335.655 500.766 335.746C500.558 335.834 500.392 335.961 500.267 336.126C500.142 336.29 500.075 336.484 500.067 336.705H498.297C498.306 336.202 498.449 335.759 498.728 335.375C499.006 334.991 499.382 334.692 499.853 334.476C500.328 334.257 500.864 334.147 501.461 334.147C502.063 334.147 502.59 334.257 503.042 334.476C503.494 334.694 503.845 334.99 504.095 335.362C504.348 335.732 504.473 336.147 504.471 336.607C504.473 337.096 504.321 337.504 504.014 337.831C503.71 338.158 503.314 338.365 502.825 338.453V338.522C503.467 338.604 503.956 338.827 504.292 339.191C504.63 339.552 504.797 340.004 504.795 340.547C504.797 341.044 504.654 341.486 504.364 341.873C504.077 342.259 503.68 342.563 503.175 342.785C502.669 343.007 502.089 343.117 501.435 343.117ZM506.122 342.998V341.668L509.23 338.79C509.494 338.534 509.716 338.304 509.895 338.099C510.077 337.895 510.214 337.694 510.308 337.498C510.402 337.299 510.449 337.085 510.449 336.855C510.449 336.599 510.391 336.378 510.274 336.194C510.158 336.006 509.998 335.863 509.797 335.763C509.595 335.661 509.366 335.61 509.11 335.61C508.843 335.61 508.61 335.664 508.411 335.772C508.212 335.88 508.059 336.035 507.951 336.236C507.843 336.438 507.789 336.678 507.789 336.957H506.036C506.036 336.386 506.166 335.89 506.424 335.469C506.683 335.048 507.045 334.723 507.511 334.493C507.978 334.262 508.515 334.147 509.123 334.147C509.748 334.147 510.293 334.258 510.756 334.48C511.222 334.699 511.584 335.003 511.843 335.392C512.102 335.782 512.231 336.228 512.231 336.731C512.231 337.061 512.166 337.386 512.035 337.707C511.907 338.028 511.678 338.385 511.348 338.777C511.019 339.167 510.554 339.634 509.954 340.18L508.68 341.429V341.489H512.346V342.998H506.122ZM516.941 343.117C516.284 343.117 515.7 343.011 515.189 342.798C514.68 342.582 514.281 342.287 513.991 341.915C513.701 341.543 513.556 341.121 513.556 340.649C513.556 340.285 513.638 339.951 513.803 339.647C513.971 339.34 514.198 339.086 514.485 338.884C514.772 338.679 515.093 338.549 515.449 338.492V338.432C514.983 338.338 514.605 338.112 514.315 337.754C514.025 337.393 513.88 336.974 513.88 336.496C513.88 336.045 514.012 335.642 514.276 335.29C514.541 334.935 514.903 334.656 515.363 334.454C515.827 334.25 516.353 334.147 516.941 334.147C517.529 334.147 518.054 334.25 518.514 334.454C518.977 334.659 519.341 334.939 519.606 335.294C519.87 335.647 520.003 336.047 520.006 336.496C520.003 336.977 519.856 337.396 519.563 337.754C519.27 338.112 518.895 338.338 518.437 338.432V338.492C518.787 338.549 519.104 338.679 519.388 338.884C519.675 339.086 519.903 339.34 520.07 339.647C520.241 339.951 520.327 340.285 520.33 340.649C520.327 341.121 520.181 341.543 519.891 341.915C519.601 342.287 519.201 342.582 518.689 342.798C518.18 343.011 517.597 343.117 516.941 343.117ZM516.941 341.762C517.234 341.762 517.489 341.709 517.708 341.604C517.927 341.496 518.098 341.348 518.22 341.161C518.345 340.97 518.408 340.751 518.408 340.504C518.408 340.251 518.344 340.028 518.216 339.835C518.088 339.639 517.914 339.485 517.696 339.374C517.477 339.26 517.225 339.204 516.941 339.204C516.66 339.204 516.408 339.26 516.186 339.374C515.965 339.485 515.79 339.639 515.662 339.835C515.537 340.028 515.474 340.251 515.474 340.504C515.474 340.751 515.535 340.97 515.658 341.161C515.78 341.348 515.952 341.496 516.174 341.604C516.395 341.709 516.651 341.762 516.941 341.762ZM516.941 337.861C517.185 337.861 517.403 337.811 517.593 337.711C517.784 337.612 517.933 337.474 518.041 337.298C518.149 337.122 518.203 336.918 518.203 336.688C518.203 336.461 518.149 336.262 518.041 336.091C517.933 335.918 517.785 335.783 517.597 335.686C517.41 335.587 517.191 335.537 516.941 335.537C516.694 335.537 516.475 335.587 516.284 335.686C516.094 335.783 515.945 335.918 515.837 336.091C515.732 336.262 515.679 336.461 515.679 336.688C515.679 336.918 515.733 337.122 515.841 337.298C515.949 337.474 516.098 337.612 516.289 337.711C516.479 337.811 516.696 337.861 516.941 337.861ZM521.638 345.454V336.45H523.429V337.549H523.51C523.589 337.373 523.704 337.194 523.855 337.012C524.009 336.828 524.207 336.674 524.452 336.552C524.699 336.427 525.006 336.364 525.373 336.364C525.85 336.364 526.291 336.489 526.694 336.739C527.098 336.987 527.421 337.36 527.662 337.861C527.904 338.358 528.025 338.982 528.025 339.732C528.025 340.463 527.907 341.08 527.671 341.583C527.438 342.083 527.119 342.462 526.716 342.721C526.315 342.977 525.866 343.105 525.369 343.105C525.016 343.105 524.716 343.046 524.469 342.93C524.225 342.813 524.024 342.667 523.868 342.491C523.712 342.312 523.592 342.131 523.51 341.949H523.454V345.454H521.638ZM523.416 339.724C523.416 340.113 523.47 340.453 523.578 340.743C523.686 341.033 523.842 341.259 524.047 341.421C524.252 341.58 524.5 341.659 524.793 341.659C525.089 341.659 525.339 341.578 525.543 341.416C525.748 341.251 525.903 341.024 526.008 340.734C526.116 340.441 526.17 340.105 526.17 339.724C526.17 339.346 526.117 339.013 526.012 338.726C525.907 338.439 525.752 338.215 525.548 338.053C525.343 337.891 525.091 337.81 524.793 337.81C524.497 337.81 524.247 337.888 524.043 338.044C523.841 338.2 523.686 338.422 523.578 338.709C523.47 338.996 523.416 339.334 523.416 339.724ZM530.519 336.45L531.721 338.739L532.953 336.45H534.816L532.919 339.724L534.867 342.998H533.013L531.721 340.734L530.45 342.998H528.575L530.519 339.724L528.643 336.45H530.519Z" fill="#0B1530"/>
<mask id="path-34-inside-4_808_2693" fill="white">
<path d="M650 304.396L650 317.396L383 317.396L383 304.396L650 304.396Z"/>
</mask>
<path d="M650 317.396L650 319.396L652 319.396L652 317.396L650 317.396ZM383 317.396L381 317.396L381 319.396L383 319.396L383 317.396ZM648 304.396L648 317.396L652 317.396L652 304.396L648 304.396ZM650 315.396L383 315.396L383 319.396L650 319.396L650 315.396ZM385 317.396L385 304.396L381 304.396L381 317.396L385 317.396Z" fill="#33F7C3" mask="url(#path-34-inside-4_808_2693)"/>
</svg>
