<svg width="1032" height="414" viewBox="0 0 1032 414" fill="none" xmlns="http://www.w3.org/2000/svg">
<rect y="0.219727" width="1032" height="413.28" rx="24" fill="#F5F6F8"/>
<path d="M43.892 57.5437H58.004V72.4677H60.244V80.4197H55.876V76.2197H44.508V80.4197H40.14V72.4677C40.9613 72.3371 41.6707 71.9637 42.268 71.3477C42.9213 70.6757 43.3507 69.8637 43.556 68.9117C43.78 67.9411 43.892 66.7091 43.892 65.2157V57.5437ZM48.596 61.2957V65.6917C48.596 67.2411 48.4467 68.5477 48.148 69.6117C47.8307 70.7317 47.2893 71.6837 46.524 72.4677H53.132V61.2957H48.596ZM75.6206 70.3117V70.7877H66.2966C66.2966 71.6651 66.5579 72.3651 67.0806 72.8877C67.4913 73.2984 68.1073 73.5037 68.9286 73.5037C69.4886 73.5037 69.9739 73.3917 70.3846 73.1677C70.7393 72.9624 71.0006 72.6824 71.1686 72.3277H75.4526C75.1726 73.3357 74.6686 74.1944 73.9406 74.9037C72.7459 76.0611 71.0473 76.6397 68.8446 76.6397C66.6606 76.6397 64.9339 76.0051 63.6646 74.7357C62.4326 73.5037 61.8166 71.9264 61.8166 70.0037C61.8166 67.9877 62.4419 66.3731 63.6926 65.1597C64.9433 63.9464 66.6513 63.3397 68.8166 63.3397C70.8139 63.3397 72.4193 63.9091 73.6326 65.0477C74.9579 66.3171 75.6206 68.0717 75.6206 70.3117ZM66.4366 68.2117H71.5046C71.3739 67.6704 71.1313 67.2224 70.7766 66.8677C70.3286 66.4197 69.7126 66.1957 68.9286 66.1957C68.1633 66.1957 67.5566 66.4197 67.1086 66.8677C66.7353 67.2784 66.5113 67.7264 66.4366 68.2117ZM87.672 72.1877V75.9397C86.72 76.4064 85.684 76.6397 84.564 76.6397C82.5853 76.6397 80.9426 76.0051 79.636 74.7357C78.348 73.4851 77.704 71.9264 77.704 70.0597C77.704 68.1371 78.376 66.5224 79.72 65.2157C81.0453 63.9464 82.7253 63.3117 84.76 63.3117C85.768 63.3117 86.7386 63.5451 87.672 64.0117V67.7637C86.9066 67.2224 86.132 66.9517 85.348 66.9517C84.4706 66.9517 83.7426 67.2411 83.164 67.8197C82.5853 68.3984 82.296 69.1171 82.296 69.9757C82.296 70.7971 82.5573 71.4971 83.08 72.0757C83.6773 72.7104 84.4426 73.0277 85.376 73.0277C86.2533 73.0277 87.0186 72.7477 87.672 72.1877ZM90.2119 76.2197V63.7037H94.6919V68.8277L98.4719 63.7037H104.1L98.9199 69.5837L104.576 76.2197H98.7799L94.6919 70.6757V76.2197H90.2119ZM108.141 76.2197V67.3717H104.893V63.7037H115.869V67.3717H112.621V76.2197H108.141ZM124.72 67.0917C123.955 67.0917 123.283 67.3624 122.704 67.9037C122.126 68.4451 121.836 69.1264 121.836 69.9477C121.836 70.6944 122.126 71.3571 122.704 71.9357C123.264 72.4957 123.936 72.7757 124.72 72.7757C125.486 72.7757 126.148 72.4957 126.708 71.9357C127.287 71.3944 127.576 70.7317 127.576 69.9477C127.576 69.1637 127.287 68.4824 126.708 67.9037C126.13 67.3624 125.467 67.0917 124.72 67.0917ZM130.292 65.3557C131.58 66.6064 132.224 68.1371 132.224 69.9477C132.224 71.7584 131.58 73.2984 130.292 74.5677C128.892 75.9491 127.026 76.6397 124.692 76.6397C122.378 76.6397 120.52 75.9491 119.12 74.5677C117.832 73.2984 117.188 71.7584 117.188 69.9477C117.188 68.1371 117.832 66.6064 119.12 65.3557C120.539 63.9744 122.396 63.2837 124.692 63.2837C126.97 63.2837 128.836 63.9744 130.292 65.3557ZM134.81 76.2197V63.7037H147.774V76.2197H143.294V67.2317H139.29V76.2197H134.81ZM150.86 76.2197V63.7037H155.34V67.9317H159.512V63.7037H163.992V76.2197H159.512V71.4597H155.34V76.2197H150.86ZM176.763 64.9077V63.7037H181.243V76.2197H176.763V74.8477C175.904 76.0424 174.607 76.6397 172.871 76.6397C171.116 76.6397 169.614 75.9771 168.363 74.6517C167.168 73.3824 166.571 71.8517 166.571 70.0597C166.571 68.0064 167.215 66.3357 168.503 65.0477C169.679 63.8717 171.182 63.2837 173.011 63.2837C174.542 63.2837 175.792 63.8251 176.763 64.9077ZM174.019 67.0917C173.272 67.0917 172.619 67.3624 172.059 67.9037C171.462 68.4824 171.163 69.1637 171.163 69.9477C171.163 70.7691 171.452 71.4504 172.031 71.9917C172.628 72.5517 173.3 72.8317 174.047 72.8317C174.812 72.8317 175.484 72.5424 176.063 71.9637C176.623 71.4037 176.903 70.7317 176.903 69.9477C176.903 69.1451 176.614 68.4637 176.035 67.9037C175.456 67.3624 174.784 67.0917 174.019 67.0917ZM183.573 76.2197L187.045 71.8517C186.186 71.6837 185.458 71.3197 184.861 70.7597C184.208 70.1064 183.881 69.2104 183.881 68.0717C183.881 66.8211 184.254 65.8037 185.001 65.0197C185.822 64.1424 187.241 63.7037 189.257 63.7037H195.865V76.2197H191.385V72.2437H191.021L188.277 76.2197H183.573ZM191.385 69.4997V66.6157H190.041C189.388 66.6157 188.921 66.7464 188.641 67.0077C188.38 67.2691 188.249 67.6237 188.249 68.0717C188.249 68.5384 188.389 68.8931 188.669 69.1357C188.968 69.3784 189.406 69.4997 189.985 69.4997H191.385ZM205.493 63.7037H213.165C214.658 63.7037 215.722 64.0024 216.357 64.5997C216.936 65.1411 217.225 65.8691 217.225 66.7837C217.225 67.5117 217.048 68.1371 216.693 68.6597C216.394 69.0891 215.937 69.4344 215.321 69.6957V69.7517C216.049 69.9011 216.646 70.1904 217.113 70.6197C217.71 71.1611 218.009 71.8797 218.009 72.7757C218.009 73.7837 217.71 74.5864 217.113 75.1837C216.422 75.8744 215.405 76.2197 214.061 76.2197H205.493V63.7037ZM209.973 68.6877H211.653C212.194 68.6877 212.577 68.5944 212.801 68.4077C213.025 68.2024 213.137 67.9037 213.137 67.5117C213.137 67.1571 213.034 66.8957 212.829 66.7277C212.605 66.5224 212.204 66.4197 211.625 66.4197H209.973V68.6877ZM209.973 73.5037H211.961C212.428 73.5037 212.792 73.3824 213.053 73.1397C213.296 72.8971 213.417 72.5984 213.417 72.2437C213.417 71.8517 213.305 71.5437 213.081 71.3197C212.876 71.1144 212.502 71.0117 211.961 71.0117H209.973V73.5037ZM233.585 70.3117V70.7877H224.261C224.261 71.6651 224.523 72.3651 225.045 72.8877C225.456 73.2984 226.072 73.5037 226.893 73.5037C227.453 73.5037 227.939 73.3917 228.349 73.1677C228.704 72.9624 228.965 72.6824 229.133 72.3277H233.417C233.137 73.3357 232.633 74.1944 231.905 74.9037C230.711 76.0611 229.012 76.6397 226.809 76.6397C224.625 76.6397 222.899 76.0051 221.629 74.7357C220.397 73.5037 219.781 71.9264 219.781 70.0037C219.781 67.9877 220.407 66.3731 221.657 65.1597C222.908 63.9464 224.616 63.3397 226.781 63.3397C228.779 63.3397 230.384 63.9091 231.597 65.0477C232.923 66.3171 233.585 68.0717 233.585 70.3117ZM224.401 68.2117H229.469C229.339 67.6704 229.096 67.2224 228.741 66.8677C228.293 66.4197 227.677 66.1957 226.893 66.1957C226.128 66.1957 225.521 66.4197 225.073 66.8677C224.7 67.2784 224.476 67.7264 224.401 68.2117ZM240.653 75.0157V82.6317H236.173V63.7037H240.653V65.0757C241.605 63.8811 242.883 63.2837 244.489 63.2837C246.243 63.2837 247.727 63.8904 248.941 65.1037C250.21 66.3731 250.845 67.9877 250.845 69.9477C250.845 71.9451 250.173 73.5971 248.829 74.9037C247.653 76.0611 246.225 76.6397 244.545 76.6397C242.995 76.6397 241.698 76.0984 240.653 75.0157ZM243.397 67.0917C242.613 67.0917 241.941 67.3717 241.381 67.9317C240.802 68.5104 240.513 69.2011 240.513 70.0037C240.513 70.7504 240.802 71.4131 241.381 71.9917C241.941 72.5517 242.613 72.8317 243.397 72.8317C244.199 72.8317 244.862 72.5517 245.385 71.9917C245.963 71.4131 246.253 70.7504 246.253 70.0037C246.253 69.2011 245.963 68.5104 245.385 67.9317C244.862 67.3717 244.199 67.0917 243.397 67.0917ZM262.891 72.1877V75.9397C261.939 76.4064 260.903 76.6397 259.783 76.6397C257.804 76.6397 256.161 76.0051 254.855 74.7357C253.567 73.4851 252.923 71.9264 252.923 70.0597C252.923 68.1371 253.595 66.5224 254.939 65.2157C256.264 63.9464 257.944 63.3117 259.979 63.3117C260.987 63.3117 261.957 63.5451 262.891 64.0117V67.7637C262.125 67.2224 261.351 66.9517 260.567 66.9517C259.689 66.9517 258.961 67.2411 258.383 67.8197C257.804 68.3984 257.515 69.1171 257.515 69.9757C257.515 70.7971 257.776 71.4971 258.299 72.0757C258.896 72.7104 259.661 73.0277 260.595 73.0277C261.472 73.0277 262.237 72.7477 262.891 72.1877ZM265.431 63.7037H269.911V70.1437L274.867 63.7037H278.759V76.2197H274.279V69.6117L269.379 76.2197H265.431V63.7037ZM281.081 76.2197L284.553 71.8517C283.694 71.6837 282.966 71.3197 282.369 70.7597C281.716 70.1064 281.389 69.2104 281.389 68.0717C281.389 66.8211 281.762 65.8037 282.509 65.0197C283.33 64.1424 284.749 63.7037 286.765 63.7037H293.373V76.2197H288.893V72.2437H288.529L285.785 76.2197H281.081ZM288.893 69.4997V66.6157H287.549C286.896 66.6157 286.429 66.7464 286.149 67.0077C285.888 67.2691 285.757 67.6237 285.757 68.0717C285.757 68.5384 285.897 68.8931 286.177 69.1357C286.476 69.3784 286.914 69.4997 287.493 69.4997H288.893ZM308.013 76.2197V61.6597H305.353V57.5437H312.857V76.2197H308.013ZM328.61 57.5437V61.6597H322.142L321.806 63.7317C322.385 63.6384 322.889 63.5917 323.318 63.5917C325.409 63.5917 327.051 64.2077 328.246 65.4397C329.385 66.5784 329.954 68.0531 329.954 69.8637C329.954 71.7491 329.357 73.3077 328.162 74.5397C326.799 75.9397 324.858 76.6397 322.338 76.6397C319.911 76.6397 317.811 76.0797 316.038 74.9597L316.766 70.4237C317.475 71.0771 318.222 71.5811 319.006 71.9357C319.921 72.3651 320.854 72.5797 321.806 72.5797C322.851 72.5797 323.663 72.2717 324.242 71.6557C324.727 71.1331 324.97 70.4984 324.97 69.7517C324.97 68.9304 324.671 68.2584 324.074 67.7357C323.383 67.1197 322.263 66.8117 320.714 66.8117C319.463 66.8117 318.315 67.0731 317.27 67.5957L318.894 57.5437H328.61ZM334.919 76.2197V61.6597H332.259V57.5437H339.763V76.2197H334.919ZM357.364 72.1037V76.2197H342.384L347.116 71.2637C348.815 69.4904 350.094 67.9131 350.952 66.5317C351.624 65.4864 351.96 64.5157 351.96 63.6197C351.96 62.8357 351.774 62.2384 351.4 61.8277C351.064 61.4544 350.607 61.2677 350.028 61.2677C349.338 61.2677 348.796 61.5197 348.404 62.0237C347.994 62.5464 347.77 63.3117 347.732 64.3197H342.72C342.739 62.2291 343.43 60.5024 344.792 59.1397C346.136 57.7957 347.9 57.1237 350.084 57.1237C352.306 57.1237 354.06 57.7677 355.348 59.0557C356.562 60.2691 357.168 61.7997 357.168 63.6477C357.168 65.6264 356.244 67.4744 354.396 69.1917L351.26 72.1037H357.364Z" fill="#0B1530"/>
<path d="M42.78 105.22H41.26L43.48 91.1397L48.6 102.4L53.82 91.1197L55.9 105.22H54.38L53.12 95.9397L48.58 105.78L44.1 95.9397L42.78 105.22ZM65.6456 104.22C64.819 105.046 63.7723 105.46 62.5056 105.46C61.239 105.46 60.1856 105.046 59.3456 104.22C58.519 103.393 58.1056 102.353 58.1056 101.1C58.1056 99.8331 58.519 98.7864 59.3456 97.9597C60.1856 97.1331 61.239 96.7197 62.5056 96.7197C63.7723 96.7197 64.819 97.1331 65.6456 97.9597C66.4856 98.7864 66.9056 99.8331 66.9056 101.1C66.9056 102.353 66.4856 103.393 65.6456 104.22ZM64.5656 98.8197C64.0056 98.2731 63.319 97.9997 62.5056 97.9997C61.6923 97.9997 60.999 98.2797 60.4256 98.8397C59.8656 99.3864 59.5856 100.14 59.5856 101.1C59.5856 102.06 59.8723 102.813 60.4456 103.36C61.019 103.906 61.7056 104.18 62.5056 104.18C63.3056 104.18 63.9923 103.906 64.5656 103.36C65.139 102.813 65.4256 102.06 65.4256 101.1C65.4256 100.126 65.139 99.3664 64.5656 98.8197ZM69.1139 105.22V96.9197H70.5539V100.32H74.4739V96.9197H75.9139V105.22H74.4739V101.64H70.5539V105.22H69.1139ZM78.6256 96.9197H80.0656V102.4L85.7456 96.2797V105.22H84.3056V99.6797L78.6256 105.8V96.9197ZM93.9094 98.2397H91.3094V105.22H89.8694V98.2397H87.2694V96.9197H93.9094V98.2397ZM102.247 104.22C101.421 105.046 100.374 105.46 99.1072 105.46C97.8405 105.46 96.7872 105.046 95.9472 104.22C95.1205 103.393 94.7072 102.353 94.7072 101.1C94.7072 99.8331 95.1205 98.7864 95.9472 97.9597C96.7872 97.1331 97.8405 96.7197 99.1072 96.7197C100.374 96.7197 101.421 97.1331 102.247 97.9597C103.087 98.7864 103.507 99.8331 103.507 101.1C103.507 102.353 103.087 103.393 102.247 104.22ZM101.167 98.8197C100.607 98.2731 99.9205 97.9997 99.1072 97.9997C98.2939 97.9997 97.6005 98.2797 97.0272 98.8397C96.4672 99.3864 96.1872 100.14 96.1872 101.1C96.1872 102.06 96.4739 102.813 97.0472 103.36C97.6205 103.906 98.3072 104.18 99.1072 104.18C99.9072 104.18 100.594 103.906 101.167 103.36C101.741 102.813 102.027 102.06 102.027 101.1C102.027 100.126 101.741 99.3664 101.167 98.8197ZM107.155 104.06V109.82H105.715V96.9197H107.155V98.0797C107.889 97.1731 108.835 96.7197 109.995 96.7197C111.235 96.7197 112.215 97.1597 112.935 98.0397C113.669 98.9064 114.035 99.9331 114.035 101.12C114.035 102.32 113.675 103.346 112.955 104.2C112.235 105.04 111.269 105.46 110.055 105.46C108.842 105.46 107.875 104.993 107.155 104.06ZM109.855 104.18C110.669 104.18 111.322 103.886 111.815 103.3C112.309 102.7 112.555 101.973 112.555 101.12C112.555 100.16 112.282 99.3997 111.735 98.8397C111.189 98.2797 110.555 97.9997 109.835 97.9997C109.115 97.9997 108.475 98.2797 107.915 98.8397C107.355 99.3997 107.075 100.153 107.075 101.1C107.075 101.966 107.329 102.7 107.835 103.3C108.355 103.886 109.029 104.18 109.855 104.18ZM116.243 105.22V96.9197H117.683V100.1H119.163C120.309 100.1 121.149 100.373 121.683 100.92C122.109 101.346 122.323 101.926 122.323 102.66C122.323 103.433 122.076 104.053 121.583 104.52C121.089 104.986 120.276 105.22 119.143 105.22H116.243ZM117.683 103.94H119.023C119.623 103.94 120.049 103.866 120.303 103.72C120.663 103.48 120.843 103.126 120.843 102.66C120.843 102.18 120.669 101.833 120.323 101.62C120.083 101.46 119.656 101.38 119.043 101.38H117.683V103.94ZM123.323 105.22V96.9197H124.763V105.22H123.323ZM126.593 107.88L128.233 103.26L129.553 103.74L127.533 108.26L126.593 107.88ZM137.63 105.22V96.9197H139.07V100.32H142.99V96.9197H144.43V105.22H142.99V101.64H139.07V105.22H137.63ZM154.161 104.22C153.335 105.046 152.288 105.46 151.021 105.46C149.755 105.46 148.701 105.046 147.861 104.22C147.035 103.393 146.621 102.353 146.621 101.1C146.621 99.8331 147.035 98.7864 147.861 97.9597C148.701 97.1331 149.755 96.7197 151.021 96.7197C152.288 96.7197 153.335 97.1331 154.161 97.9597C155.001 98.7864 155.421 99.8331 155.421 101.1C155.421 102.353 155.001 103.393 154.161 104.22ZM153.081 98.8197C152.521 98.2731 151.835 97.9997 151.021 97.9997C150.208 97.9997 149.515 98.2797 148.941 98.8397C148.381 99.3864 148.101 100.14 148.101 101.1C148.101 102.06 148.388 102.813 148.961 103.36C149.535 103.906 150.221 104.18 151.021 104.18C151.821 104.18 152.508 103.906 153.081 103.36C153.655 102.813 153.941 102.06 153.941 101.1C153.941 100.126 153.655 99.3664 153.081 98.8197ZM157.61 109.82L160.25 104.44L156.43 96.9197H158.07L161.01 102.86L163.71 96.9197H165.31L159.21 109.82H157.61ZM172.698 98.2397H170.098V105.22H168.658V98.2397H166.058V96.9197H172.698V98.2397ZM180.612 91.2197H182.212C182.065 91.7131 181.812 92.1331 181.452 92.4797C181.105 92.8131 180.785 93.0397 180.492 93.1597C180.212 93.2797 179.878 93.3864 179.492 93.4797C179.425 93.4931 179.265 93.5331 179.012 93.5997C178.758 93.6531 178.565 93.6997 178.432 93.7397C178.298 93.7797 178.125 93.8331 177.912 93.8997C177.698 93.9664 177.505 94.0464 177.332 94.1397C177.158 94.2331 176.998 94.3331 176.852 94.4397C176.345 94.8264 175.932 95.3664 175.612 96.0597C175.305 96.7397 175.138 97.4664 175.112 98.2397H175.152C175.752 97.2264 176.758 96.7197 178.172 96.7197C179.412 96.7197 180.438 97.1397 181.252 97.9797C182.078 98.8197 182.492 99.8597 182.492 101.1C182.492 102.353 182.072 103.393 181.232 104.22C180.392 105.046 179.298 105.46 177.952 105.46C176.792 105.46 175.838 105.113 175.092 104.42C174.158 103.566 173.692 102.14 173.692 100.14C173.692 96.6597 174.478 94.3797 176.052 93.2997C176.172 93.2197 176.298 93.1464 176.432 93.0797C176.565 92.9997 176.705 92.9331 176.852 92.8797C177.012 92.8131 177.145 92.7597 177.252 92.7197C177.358 92.6664 177.505 92.6197 177.692 92.5797C177.892 92.5264 178.025 92.4931 178.092 92.4797C178.172 92.4531 178.318 92.4197 178.532 92.3797C178.758 92.3264 178.898 92.2931 178.952 92.2797C179.485 92.1597 179.872 92.0197 180.112 91.8597C180.352 91.6864 180.518 91.4731 180.612 91.2197ZM180.152 98.8197C179.592 98.2731 178.905 97.9997 178.092 97.9997C177.278 97.9997 176.585 98.2797 176.012 98.8397C175.452 99.3864 175.172 100.14 175.172 101.1C175.172 102.06 175.458 102.813 176.032 103.36C176.605 103.906 177.292 104.18 178.092 104.18C178.892 104.18 179.578 103.906 180.152 103.36C180.725 102.813 181.012 102.06 181.012 101.1C181.012 100.126 180.725 99.3664 180.152 98.8197ZM184.68 109.82L187.32 104.44L183.5 96.9197H185.14L188.08 102.86L190.78 96.9197H192.38L186.28 109.82H184.68ZM193.899 96.9197H195.339V100.32L198.699 96.9197H200.459L196.859 100.62L200.899 105.22H199.019L195.779 101.58L195.339 102V105.22H193.899V96.9197ZM202.337 96.9197H203.777V102.4L209.457 96.2797V105.22H208.017V99.6797L202.337 105.8V96.9197Z" fill="#0B1530"/>
<path d="M41.72 127.88H44.14C45.66 127.88 46.78 128.193 47.5 128.82C48.3133 129.513 48.72 130.466 48.72 131.68C48.72 132.72 48.3667 133.606 47.66 134.34C46.9667 135.06 45.9133 135.42 44.5 135.42H43.2V141.22H41.72V127.88ZM43.2 129.28V134.02H44.42C45.3 134.02 45.9867 133.806 46.48 133.38C46.9867 132.953 47.24 132.36 47.24 131.6C47.24 130.053 46.26 129.28 44.3 129.28H43.2ZM56.4505 134.1V132.92H57.8905V141.22H56.4505V140.06C55.7305 140.993 54.7838 141.46 53.6105 141.46C52.4905 141.46 51.5371 141.073 50.7505 140.3C49.9638 139.526 49.5705 138.446 49.5705 137.06C49.5705 135.7 49.9571 134.64 50.7305 133.88C51.5171 133.106 52.4771 132.72 53.6105 132.72C54.8105 132.72 55.7571 133.18 56.4505 134.1ZM53.7705 134C53.0105 134 52.3638 134.273 51.8305 134.82C51.3105 135.353 51.0505 136.1 51.0505 137.06C51.0505 137.98 51.2905 138.733 51.7705 139.32C52.2638 139.893 52.9305 140.18 53.7705 140.18C54.6105 140.18 55.2771 139.88 55.7705 139.28C56.2771 138.68 56.5305 137.946 56.5305 137.08C56.5305 136.093 56.2505 135.333 55.6905 134.8C55.1305 134.266 54.4905 134 53.7705 134ZM61.6978 135.04L60.6978 134.22C61.0178 133.753 61.3711 133.406 61.7578 133.18C62.2778 132.873 62.8845 132.72 63.5778 132.72C64.4178 132.72 65.0711 132.913 65.5378 133.3C66.0178 133.713 66.2578 134.24 66.2578 134.88C66.2578 135.653 65.9445 136.233 65.3178 136.62C65.7178 136.713 66.0378 136.893 66.2778 137.16C66.6645 137.573 66.8578 138.08 66.8578 138.68C66.8578 139.573 66.4978 140.286 65.7778 140.82C65.1911 141.246 64.4045 141.46 63.4178 141.46C62.5378 141.46 61.7978 141.226 61.1978 140.76C60.7445 140.426 60.3778 139.953 60.0978 139.34L61.3378 138.82C61.4845 139.193 61.7311 139.506 62.0778 139.76C62.4511 140.04 62.9045 140.18 63.4378 140.18C64.0645 140.18 64.5311 140.073 64.8378 139.86C65.2245 139.606 65.4178 139.22 65.4178 138.7C65.4178 138.273 65.2511 137.953 64.9178 137.74C64.6378 137.553 64.1845 137.46 63.5578 137.46H62.7178V136.14H63.4178C63.9245 136.14 64.2845 136.066 64.4978 135.92C64.7911 135.733 64.9378 135.48 64.9378 135.16C64.9378 134.786 64.8178 134.5 64.5778 134.3C64.3511 134.1 63.9978 134 63.5178 134C63.1045 134 62.7245 134.106 62.3778 134.32C62.0845 134.506 61.8578 134.746 61.6978 135.04ZM70.4953 140.06V145.82H69.0553V132.92H70.4953V134.08C71.2286 133.173 72.1753 132.72 73.3353 132.72C74.5753 132.72 75.5553 133.16 76.2753 134.04C77.0086 134.906 77.3753 135.933 77.3753 137.12C77.3753 138.32 77.0153 139.346 76.2953 140.2C75.5753 141.04 74.6086 141.46 73.3953 141.46C72.182 141.46 71.2153 140.993 70.4953 140.06ZM73.1953 140.18C74.0086 140.18 74.662 139.886 75.1553 139.3C75.6486 138.7 75.8953 137.973 75.8953 137.12C75.8953 136.16 75.622 135.4 75.0753 134.84C74.5286 134.28 73.8953 134 73.1753 134C72.4553 134 71.8153 134.28 71.2553 134.84C70.6953 135.4 70.4153 136.153 70.4153 137.1C70.4153 137.966 70.6686 138.7 71.1753 139.3C71.6953 139.886 72.3686 140.18 73.1953 140.18ZM85.7427 138.44L86.9427 139.1C86.6627 139.633 86.3227 140.08 85.9227 140.44C85.1627 141.12 84.2427 141.46 83.1627 141.46C82.0427 141.46 81.076 141.1 80.2627 140.38C79.4627 139.646 79.0627 138.56 79.0627 137.12C79.0627 135.853 79.4227 134.806 80.1427 133.98C80.876 133.14 81.856 132.72 83.0827 132.72C84.4693 132.72 85.516 133.226 86.2227 134.24C86.7827 135.04 87.0427 136.08 87.0027 137.36H80.5427C80.556 138.2 80.816 138.88 81.3227 139.4C81.8293 139.92 82.4493 140.18 83.1827 140.18C83.836 140.18 84.4027 139.98 84.8827 139.58C85.256 139.26 85.5427 138.88 85.7427 138.44ZM80.6427 136.16H85.5227C85.4027 135.506 85.116 134.986 84.6627 134.6C84.2227 134.2 83.696 134 83.0827 134C82.4827 134 81.9493 134.206 81.4827 134.62C81.0293 135.02 80.7493 135.533 80.6427 136.16ZM89.2116 141.22V132.92H90.6516V139.9H93.8516V132.92H95.2916V139.9H98.4916V132.92H99.9316V141.22H89.2116ZM108.809 138.44L110.009 139.1C109.729 139.633 109.389 140.08 108.989 140.44C108.229 141.12 107.309 141.46 106.229 141.46C105.109 141.46 104.142 141.1 103.329 140.38C102.529 139.646 102.129 138.56 102.129 137.12C102.129 135.853 102.489 134.806 103.209 133.98C103.942 133.14 104.922 132.72 106.149 132.72C107.536 132.72 108.582 133.226 109.289 134.24C109.849 135.04 110.109 136.08 110.069 137.36H103.609C103.622 138.2 103.882 138.88 104.389 139.4C104.896 139.92 105.516 140.18 106.249 140.18C106.902 140.18 107.469 139.98 107.949 139.58C108.322 139.26 108.609 138.88 108.809 138.44ZM103.709 136.16H108.589C108.469 135.506 108.182 134.986 107.729 134.6C107.289 134.2 106.762 134 106.149 134C105.549 134 105.016 134.206 104.549 134.62C104.096 135.02 103.816 135.533 103.709 136.16ZM112.278 141.22V132.92H113.718V136.32H117.638V132.92H119.078V141.22H117.638V137.64H113.718V141.22H112.278ZM121.79 132.92H123.23V138.4L128.91 132.28V141.22H127.47V135.68L121.79 141.8V132.92ZM137.793 138.44L138.993 139.1C138.713 139.633 138.373 140.08 137.973 140.44C137.213 141.12 136.293 141.46 135.213 141.46C134.093 141.46 133.127 141.1 132.313 140.38C131.513 139.646 131.113 138.56 131.113 137.12C131.113 135.853 131.473 134.806 132.193 133.98C132.927 133.14 133.907 132.72 135.133 132.72C136.52 132.72 137.567 133.226 138.273 134.24C138.833 135.04 139.093 136.08 139.053 137.36H132.593C132.607 138.2 132.867 138.88 133.373 139.4C133.88 139.92 134.5 140.18 135.233 140.18C135.887 140.18 136.453 139.98 136.933 139.58C137.307 139.26 137.593 138.88 137.793 138.44ZM132.693 136.16H137.573C137.453 135.506 137.167 134.986 136.713 134.6C136.273 134.2 135.747 134 135.133 134C134.533 134 134 134.206 133.533 134.62C133.08 135.02 132.8 135.533 132.693 136.16ZM145.41 134.54V133.14C146.104 132.86 146.857 132.72 147.67 132.72C149.07 132.72 150.17 133.126 150.97 133.94C151.784 134.753 152.19 135.813 152.19 137.12C152.19 138.386 151.777 139.426 150.95 140.24C150.137 141.053 149.077 141.46 147.77 141.46C146.944 141.46 146.157 141.306 145.41 141V139.6C146.144 139.986 146.924 140.18 147.75 140.18C148.524 140.18 149.19 139.946 149.75 139.48C150.31 139 150.63 138.38 150.71 137.62H146.33V136.34H150.71C150.55 135.606 150.197 135.033 149.65 134.62C149.104 134.206 148.464 134 147.73 134C146.957 134 146.184 134.18 145.41 134.54ZM154.387 132.92H155.827V136.32L159.187 132.92H160.947L157.347 136.62L161.387 141.22H159.507L156.267 137.58L155.827 138V141.22H154.387V132.92ZM164.265 140.06V145.82H162.825V132.92H164.265V134.08C164.998 133.173 165.945 132.72 167.105 132.72C168.345 132.72 169.325 133.16 170.045 134.04C170.778 134.906 171.145 135.933 171.145 137.12C171.145 138.32 170.785 139.346 170.065 140.2C169.345 141.04 168.378 141.46 167.165 141.46C165.952 141.46 164.985 140.993 164.265 140.06ZM166.965 140.18C167.778 140.18 168.432 139.886 168.925 139.3C169.418 138.7 169.665 137.973 169.665 137.12C169.665 136.16 169.392 135.4 168.845 134.84C168.298 134.28 167.665 134 166.945 134C166.225 134 165.585 134.28 165.025 134.84C164.465 135.4 164.185 136.153 164.185 137.1C164.185 137.966 164.438 138.7 164.945 139.3C165.465 139.886 166.138 140.18 166.965 140.18ZM179.712 134.1V132.92H181.152V141.22H179.712V140.06C178.992 140.993 178.046 141.46 176.872 141.46C175.752 141.46 174.799 141.073 174.012 140.3C173.226 139.526 172.832 138.446 172.832 137.06C172.832 135.7 173.219 134.64 173.992 133.88C174.779 133.106 175.739 132.72 176.872 132.72C178.072 132.72 179.019 133.18 179.712 134.1ZM177.032 134C176.272 134 175.626 134.273 175.092 134.82C174.572 135.353 174.312 136.1 174.312 137.06C174.312 137.98 174.552 138.733 175.032 139.32C175.526 139.893 176.192 140.18 177.032 140.18C177.872 140.18 178.539 139.88 179.032 139.28C179.539 138.68 179.792 137.946 179.792 137.08C179.792 136.093 179.512 135.333 178.952 134.8C178.392 134.266 177.752 134 177.032 134ZM183.88 141.22V132.92H185.32V136.32H189.24V132.92H190.68V141.22H189.24V137.64H185.32V141.22H183.88ZM199.751 134.1V132.92H201.191V141.22H199.751V140.06C199.031 140.993 198.085 141.46 196.911 141.46C195.791 141.46 194.838 141.073 194.051 140.3C193.265 139.526 192.871 138.446 192.871 137.06C192.871 135.7 193.258 134.64 194.031 133.88C194.818 133.106 195.778 132.72 196.911 132.72C198.111 132.72 199.058 133.18 199.751 134.1ZM197.071 134C196.311 134 195.665 134.273 195.131 134.82C194.611 135.353 194.351 136.1 194.351 137.06C194.351 137.98 194.591 138.733 195.071 139.32C195.565 139.893 196.231 140.18 197.071 140.18C197.911 140.18 198.578 139.88 199.071 139.28C199.578 138.68 199.831 137.946 199.831 137.08C199.831 136.093 199.551 135.333 198.991 134.8C198.431 134.266 197.791 134 197.071 134ZM210.567 126.42L211.827 127C211.387 128.16 211.047 129.313 210.807 130.46C210.473 132.073 210.307 133.753 210.307 135.5C210.307 137.233 210.467 138.86 210.787 140.38C211.027 141.553 211.373 142.773 211.827 144.04L210.567 144.62C209.953 143.006 209.513 141.5 209.247 140.1C208.967 138.62 208.827 137.073 208.827 135.46C208.827 133.62 209.013 131.886 209.387 130.26C209.68 129.006 210.073 127.726 210.567 126.42ZM215.905 140.06V145.82H214.465V132.92H215.905V134.08C216.639 133.173 217.585 132.72 218.745 132.72C219.985 132.72 220.965 133.16 221.685 134.04C222.419 134.906 222.785 135.933 222.785 137.12C222.785 138.32 222.425 139.346 221.705 140.2C220.985 141.04 220.019 141.46 218.805 141.46C217.592 141.46 216.625 140.993 215.905 140.06ZM218.605 140.18C219.419 140.18 220.072 139.886 220.565 139.3C221.059 138.7 221.305 137.973 221.305 137.12C221.305 136.16 221.032 135.4 220.485 134.84C219.939 134.28 219.305 134 218.585 134C217.865 134 217.225 134.28 216.665 134.84C216.105 135.4 215.825 136.153 215.825 137.1C215.825 137.966 216.079 138.7 216.585 139.3C217.105 139.886 217.779 140.18 218.605 140.18ZM223.793 141.22L227.333 136.78L224.313 132.92H226.073L228.213 135.74L230.393 132.92H232.153L229.113 136.8L232.553 141.22H230.793L228.173 137.84L225.553 141.22H223.793ZM233.995 127L235.255 126.42C235.748 127.726 236.142 129.006 236.435 130.26C236.808 131.886 236.995 133.62 236.995 135.46C236.995 137.073 236.855 138.62 236.575 140.1C236.308 141.5 235.868 143.006 235.255 144.62L233.995 144.04C234.448 142.773 234.795 141.553 235.035 140.38C235.355 138.86 235.515 137.233 235.515 135.5C235.515 133.753 235.348 132.073 235.015 130.46C234.775 129.313 234.435 128.16 233.995 127Z" fill="#0B1530"/>
<path d="M44.68 167.22V156.82H42.78V153.88H48.14V167.22H44.68ZM59.3922 153.88V156.82H54.7722L54.5322 158.3C54.9455 158.233 55.3055 158.2 55.6122 158.2C57.1055 158.2 58.2789 158.64 59.1322 159.52C59.9455 160.333 60.3522 161.386 60.3522 162.68C60.3522 164.026 59.9255 165.14 59.0722 166.02C58.0989 167.02 56.7122 167.52 54.9122 167.52C53.1789 167.52 51.6789 167.12 50.4122 166.32L50.9322 163.08C51.4389 163.546 51.9722 163.906 52.5322 164.16C53.1855 164.466 53.8522 164.62 54.5322 164.62C55.2789 164.62 55.8589 164.4 56.2722 163.96C56.6189 163.586 56.7922 163.133 56.7922 162.6C56.7922 162.013 56.5789 161.533 56.1522 161.16C55.6589 160.72 54.8589 160.5 53.7522 160.5C52.8589 160.5 52.0389 160.686 51.2922 161.06L52.4522 153.88H59.3922ZM63.8988 167.22V156.82H61.9988V153.88H67.3588V167.22H63.8988ZM79.9309 164.28V167.22H69.2309L72.6109 163.68C73.8243 162.413 74.7376 161.286 75.3509 160.3C75.8309 159.553 76.0709 158.86 76.0709 158.22C76.0709 157.66 75.9376 157.233 75.6709 156.94C75.4309 156.673 75.1043 156.54 74.6909 156.54C74.1976 156.54 73.8109 156.72 73.5309 157.08C73.2376 157.453 73.0776 158 73.0509 158.72H69.4709C69.4843 157.226 69.9776 155.993 70.9509 155.02C71.9109 154.06 73.1709 153.58 74.7309 153.58C76.3176 153.58 77.5709 154.04 78.4909 154.96C79.3576 155.826 79.7909 156.92 79.7909 158.24C79.7909 159.653 79.1309 160.973 77.8109 162.2L75.5709 164.28H79.9309Z" fill="#0B1530"/>
<path d="M272.72 141.22V127.88H274.2V139.82H279.48V127.88H280.96V139.82H286.24V127.88H287.72V141.22H272.72ZM290.798 132.92H292.238V138.4L297.918 132.28V141.22H296.478V135.68L290.798 141.8V132.92ZM302.081 140.06V145.82H300.641V132.92H302.081V134.08C302.815 133.173 303.761 132.72 304.921 132.72C306.161 132.72 307.141 133.16 307.861 134.04C308.595 134.906 308.961 135.933 308.961 137.12C308.961 138.32 308.601 139.346 307.881 140.2C307.161 141.04 306.195 141.46 304.981 141.46C303.768 141.46 302.801 140.993 302.081 140.06ZM304.781 140.18C305.595 140.18 306.248 139.886 306.741 139.3C307.235 138.7 307.481 137.973 307.481 137.12C307.481 136.16 307.208 135.4 306.661 134.84C306.115 134.28 305.481 134 304.761 134C304.041 134 303.401 134.28 302.841 134.84C302.281 135.4 302.001 136.153 302.001 137.1C302.001 137.966 302.255 138.7 302.761 139.3C303.281 139.886 303.955 140.18 304.781 140.18ZM311.169 132.92H312.609V138.4L318.289 132.28V141.22H316.849V135.68L311.169 141.8V132.92ZM321.012 141.22V132.92H322.452V136.32H326.372V132.92H327.812V141.22H326.372V137.64H322.452V141.22H321.012ZM336.884 134.1V132.92H338.324V141.22H336.884V140.06C336.164 140.993 335.217 141.46 334.044 141.46C332.924 141.46 331.971 141.073 331.184 140.3C330.397 139.526 330.004 138.446 330.004 137.06C330.004 135.7 330.391 134.64 331.164 133.88C331.951 133.106 332.911 132.72 334.044 132.72C335.244 132.72 336.191 133.18 336.884 134.1ZM334.204 134C333.444 134 332.797 134.273 332.264 134.82C331.744 135.353 331.484 136.1 331.484 137.06C331.484 137.98 331.724 138.733 332.204 139.32C332.697 139.893 333.364 140.18 334.204 140.18C335.044 140.18 335.711 139.88 336.204 139.28C336.711 138.68 336.964 137.946 336.964 137.08C336.964 136.093 336.684 135.333 336.124 134.8C335.564 134.266 334.924 134 334.204 134ZM345.719 132.92H347.159V136.32L350.519 132.92H352.279L348.679 136.62L352.719 141.22H350.839L347.599 137.58L347.159 138V141.22H345.719V132.92ZM360.786 140.22C359.96 141.046 358.913 141.46 357.646 141.46C356.38 141.46 355.326 141.046 354.486 140.22C353.66 139.393 353.246 138.353 353.246 137.1C353.246 135.833 353.66 134.786 354.486 133.96C355.326 133.133 356.38 132.72 357.646 132.72C358.913 132.72 359.96 133.133 360.786 133.96C361.626 134.786 362.046 135.833 362.046 137.1C362.046 138.353 361.626 139.393 360.786 140.22ZM359.706 134.82C359.146 134.273 358.46 134 357.646 134C356.833 134 356.14 134.28 355.566 134.84C355.006 135.386 354.726 136.14 354.726 137.1C354.726 138.06 355.013 138.813 355.586 139.36C356.16 139.906 356.846 140.18 357.646 140.18C358.446 140.18 359.133 139.906 359.706 139.36C360.28 138.813 360.566 138.06 360.566 137.1C360.566 136.126 360.28 135.366 359.706 134.82ZM370.535 132.92V141.22H369.095V134.24H366.135V137.98C366.135 139.06 365.921 139.86 365.495 140.38C365.015 140.966 364.348 141.26 363.495 141.26C363.388 141.26 363.241 141.246 363.055 141.22V139.9C363.188 139.926 363.295 139.94 363.375 139.94C363.841 139.94 364.188 139.76 364.415 139.4C364.601 139.106 364.695 138.633 364.695 137.98V132.92H370.535ZM380.278 140.22C379.452 141.046 378.405 141.46 377.138 141.46C375.872 141.46 374.818 141.046 373.978 140.22C373.152 139.393 372.738 138.353 372.738 137.1C372.738 135.833 373.152 134.786 373.978 133.96C374.818 133.133 375.872 132.72 377.138 132.72C378.405 132.72 379.452 133.133 380.278 133.96C381.118 134.786 381.538 135.833 381.538 137.1C381.538 138.353 381.118 139.393 380.278 140.22ZM379.198 134.82C378.638 134.273 377.952 134 377.138 134C376.325 134 375.632 134.28 375.058 134.84C374.498 135.386 374.218 136.14 374.218 137.1C374.218 138.06 374.505 138.813 375.078 139.36C375.652 139.906 376.338 140.18 377.138 140.18C377.938 140.18 378.625 139.906 379.198 139.36C379.772 138.813 380.058 138.06 380.058 137.1C380.058 136.126 379.772 135.366 379.198 134.82ZM383.747 141.22V132.92H385.187V136.32H389.107V132.92H390.547V141.22H389.107V137.64H385.187V141.22H383.747ZM393.258 132.92H394.698V136.32L398.058 132.92H399.818L396.218 136.62L400.258 141.22H398.378L395.138 137.58L394.698 138V141.22H393.258V132.92ZM401.696 132.92H403.136V138.4L408.816 132.28V141.22H407.376V135.68L401.696 141.8V132.92ZM418.188 126.42L419.448 127C419.008 128.16 418.668 129.313 418.428 130.46C418.094 132.073 417.928 133.753 417.928 135.5C417.928 137.233 418.088 138.86 418.408 140.38C418.648 141.553 418.994 142.773 419.448 144.04L418.188 144.62C417.574 143.006 417.134 141.5 416.868 140.1C416.588 138.62 416.448 137.073 416.448 135.46C416.448 133.62 416.634 131.886 417.008 130.26C417.301 129.006 417.694 127.726 418.188 126.42ZM423.527 140.06V145.82H422.087V132.92H423.527V134.08C424.26 133.173 425.207 132.72 426.367 132.72C427.607 132.72 428.587 133.16 429.307 134.04C430.04 134.906 430.407 135.933 430.407 137.12C430.407 138.32 430.047 139.346 429.327 140.2C428.607 141.04 427.64 141.46 426.427 141.46C425.213 141.46 424.247 140.993 423.527 140.06ZM426.227 140.18C427.04 140.18 427.693 139.886 428.187 139.3C428.68 138.7 428.927 137.973 428.927 137.12C428.927 136.16 428.653 135.4 428.107 134.84C427.56 134.28 426.927 134 426.207 134C425.487 134 424.847 134.28 424.287 134.84C423.727 135.4 423.447 136.153 423.447 137.1C423.447 137.966 423.7 138.7 424.207 139.3C424.727 139.886 425.4 140.18 426.227 140.18ZM431.414 141.22L434.954 136.78L431.934 132.92H433.694L435.834 135.74L438.014 132.92H439.774L436.734 136.8L440.174 141.22H438.414L435.794 137.84L433.174 141.22H431.414ZM441.616 127L442.876 126.42C443.369 127.726 443.763 129.006 444.056 130.26C444.429 131.886 444.616 133.62 444.616 135.46C444.616 137.073 444.476 138.62 444.196 140.1C443.929 141.5 443.489 143.006 442.876 144.62L441.616 144.04C442.069 142.773 442.416 141.553 442.656 140.38C442.976 138.86 443.136 137.233 443.136 135.5C443.136 133.753 442.969 132.073 442.636 130.46C442.396 129.313 442.056 128.16 441.616 127Z" fill="#0B1530"/>
<path d="M279.36 160.2C280.027 160.4 280.6 160.74 281.08 161.22C281.76 161.886 282.1 162.673 282.1 163.58C282.1 164.54 281.74 165.38 281.02 166.1C280.073 167.046 278.727 167.52 276.98 167.52C275.26 167.52 273.933 167.053 273 166.12C272.267 165.386 271.9 164.54 271.9 163.58C271.9 163.153 271.993 162.72 272.18 162.28C272.367 161.826 272.6 161.46 272.88 161.18C273.32 160.74 273.88 160.413 274.56 160.2C274.08 160.013 273.68 159.76 273.36 159.44C272.76 158.84 272.46 158.133 272.46 157.32C272.46 156.333 272.827 155.493 273.56 154.8C274.44 153.986 275.627 153.58 277.12 153.58C278.587 153.58 279.733 154.006 280.56 154.86C281.213 155.513 281.54 156.326 281.54 157.3C281.54 158.14 281.267 158.833 280.72 159.38C280.36 159.74 279.907 160.013 279.36 160.2ZM277.04 155.9C276.587 155.9 276.22 156.053 275.94 156.36C275.673 156.653 275.54 156.993 275.54 157.38C275.54 157.713 275.68 158.033 275.96 158.34C276.24 158.633 276.593 158.78 277.02 158.78C277.407 158.78 277.733 158.646 278 158.38C278.307 158.073 278.46 157.733 278.46 157.36C278.46 156.933 278.307 156.58 278 156.3C277.707 156.033 277.387 155.9 277.04 155.9ZM277 161.6C276.587 161.6 276.213 161.753 275.88 162.06C275.56 162.38 275.4 162.746 275.4 163.16C275.4 163.6 275.553 163.973 275.86 164.28C276.18 164.6 276.56 164.76 277 164.76C277.44 164.76 277.813 164.606 278.12 164.3C278.44 163.98 278.6 163.6 278.6 163.16C278.6 162.72 278.44 162.353 278.12 162.06C277.8 161.753 277.427 161.6 277 161.6ZM290.052 157.1C289.746 156.82 289.392 156.68 288.992 156.68C288.592 156.68 288.239 156.82 287.932 157.1C287.586 157.393 287.306 157.886 287.092 158.58C286.879 159.26 286.772 159.926 286.772 160.58C286.772 161.18 286.872 161.833 287.072 162.54C287.286 163.233 287.572 163.74 287.932 164.06C288.239 164.34 288.592 164.48 288.992 164.48C289.392 164.48 289.746 164.34 290.052 164.06C290.399 163.753 290.679 163.26 290.892 162.58C291.106 161.886 291.212 161.226 291.212 160.6C291.212 159.973 291.099 159.306 290.872 158.6C290.659 157.893 290.386 157.393 290.052 157.1ZM294.652 160.56C294.652 162.893 293.992 164.706 292.672 166C291.646 167.013 290.419 167.52 288.992 167.52C287.566 167.52 286.339 167.013 285.312 166C283.992 164.706 283.332 162.893 283.332 160.56C283.332 158.213 283.992 156.393 285.312 155.1C286.339 154.086 287.566 153.58 288.992 153.58C290.419 153.58 291.646 154.086 292.672 155.1C293.992 156.393 294.652 158.213 294.652 160.56Z" fill="#0B1530"/>
<path d="M481.78 141.22H480.26L482.48 127.14L487.6 138.4L492.82 127.12L494.9 141.22H493.38L492.12 131.94L487.58 141.78L483.1 131.94L481.78 141.22ZM503.786 138.44L504.986 139.1C504.706 139.633 504.366 140.08 503.966 140.44C503.206 141.12 502.286 141.46 501.206 141.46C500.086 141.46 499.119 141.1 498.306 140.38C497.506 139.646 497.106 138.56 497.106 137.12C497.106 135.853 497.466 134.806 498.186 133.98C498.919 133.14 499.899 132.72 501.126 132.72C502.512 132.72 503.559 133.226 504.266 134.24C504.826 135.04 505.086 136.08 505.046 137.36H498.586C498.599 138.2 498.859 138.88 499.366 139.4C499.872 139.92 500.492 140.18 501.226 140.18C501.879 140.18 502.446 139.98 502.926 139.58C503.299 139.26 503.586 138.88 503.786 138.44ZM498.686 136.16H503.566C503.446 135.506 503.159 134.986 502.706 134.6C502.266 134.2 501.739 134 501.126 134C500.526 134 499.992 134.206 499.526 134.62C499.072 135.02 498.792 135.533 498.686 136.16ZM510.939 132.92H512.379V136.32L515.499 132.92H517.179L513.579 136.76L517.539 141.22H515.739L512.659 137.72L512.379 138V141.22H510.939V138L510.659 137.72L507.579 141.22H505.779L509.739 136.76L506.139 132.92H507.819L510.939 136.32V132.92ZM525.278 133.52V135.24C524.625 134.413 523.758 134 522.678 134C521.865 134 521.171 134.28 520.598 134.84C520.025 135.386 519.738 136.14 519.738 137.1C519.738 138.06 520.025 138.813 520.598 139.36C521.171 139.906 521.858 140.18 522.658 140.18C523.725 140.18 524.618 139.746 525.338 138.88V140.6C524.551 141.173 523.671 141.46 522.698 141.46C521.405 141.46 520.338 141.053 519.498 140.24C518.671 139.413 518.258 138.373 518.258 137.12C518.258 135.853 518.678 134.806 519.518 133.98C520.358 133.14 521.418 132.72 522.698 132.72C523.658 132.72 524.518 132.986 525.278 133.52ZM532.988 134.24H530.388V141.22H528.948V134.24H526.348V132.92H532.988V134.24ZM535.941 140.06V145.82H534.501V132.92H535.941V134.08C536.674 133.173 537.621 132.72 538.781 132.72C540.021 132.72 541.001 133.16 541.721 134.04C542.454 134.906 542.821 135.933 542.821 137.12C542.821 138.32 542.461 139.346 541.741 140.2C541.021 141.04 540.054 141.46 538.841 141.46C537.627 141.46 536.661 140.993 535.941 140.06ZM538.641 140.18C539.454 140.18 540.107 139.886 540.601 139.3C541.094 138.7 541.341 137.973 541.341 137.12C541.341 136.16 541.067 135.4 540.521 134.84C539.974 134.28 539.341 134 538.621 134C537.901 134 537.261 134.28 536.701 134.84C536.141 135.4 535.861 136.153 535.861 137.1C535.861 137.966 536.114 138.7 536.621 139.3C537.141 139.886 537.814 140.18 538.641 140.18ZM552.048 140.22C551.221 141.046 550.175 141.46 548.908 141.46C547.641 141.46 546.588 141.046 545.748 140.22C544.921 139.393 544.508 138.353 544.508 137.1C544.508 135.833 544.921 134.786 545.748 133.96C546.588 133.133 547.641 132.72 548.908 132.72C550.175 132.72 551.221 133.133 552.048 133.96C552.888 134.786 553.308 135.833 553.308 137.1C553.308 138.353 552.888 139.393 552.048 140.22ZM550.968 134.82C550.408 134.273 549.721 134 548.908 134C548.095 134 547.401 134.28 546.828 134.84C546.268 135.386 545.988 136.14 545.988 137.1C545.988 138.06 546.275 138.813 546.848 139.36C547.421 139.906 548.108 140.18 548.908 140.18C549.708 140.18 550.395 139.906 550.968 139.36C551.541 138.813 551.828 138.06 551.828 137.1C551.828 136.126 551.541 135.366 550.968 134.82ZM559.956 141.22V137.96C559.17 138.08 558.516 138.14 557.996 138.14C557.09 138.14 556.416 137.94 555.976 137.54C555.51 137.126 555.276 136.446 555.276 135.5V132.92H556.716V135.3C556.716 135.753 556.776 136.08 556.896 136.28C557.083 136.64 557.503 136.82 558.156 136.82C558.743 136.82 559.343 136.76 559.956 136.64V132.92H561.396V141.22H559.956ZM564.11 141.22V132.92H565.55V136.32H569.47V132.92H570.91V141.22H569.47V137.64H565.55V141.22H564.11ZM573.622 141.22V132.92H575.062V136.1H576.542C577.688 136.1 578.528 136.373 579.062 136.92C579.488 137.346 579.702 137.926 579.702 138.66C579.702 139.433 579.455 140.053 578.962 140.52C578.468 140.986 577.655 141.22 576.522 141.22H573.622ZM575.062 139.94H576.402C577.002 139.94 577.428 139.866 577.682 139.72C578.042 139.48 578.222 139.126 578.222 138.66C578.222 138.18 578.048 137.833 577.702 137.62C577.462 137.46 577.035 137.38 576.422 137.38H575.062V139.94ZM580.702 141.22V132.92H582.142V141.22H580.702ZM584.852 132.92H586.292V138.4L591.972 132.28V141.22H590.532V135.68L584.852 141.8V132.92ZM585.572 129.34L586.772 128.88C587.012 129.68 587.579 130.08 588.472 130.08C589.366 130.08 589.932 129.68 590.172 128.88L591.372 129.34C591.159 129.94 590.792 130.413 590.272 130.76C589.766 131.106 589.166 131.28 588.472 131.28C587.779 131.28 587.172 131.106 586.652 130.76C586.146 130.413 585.786 129.94 585.572 129.34ZM599.364 132.92H600.804V138.4L606.484 132.28V141.22H605.044V135.68L599.364 141.8V132.92ZM609.208 141.22V132.92H610.648V136.32H614.568V132.92H616.008V141.22H614.568V137.64H610.648V141.22H609.208ZM624.159 134.24H621.559V141.22H620.119V134.24H617.519V132.92H624.159V134.24ZM631.637 138.44L632.837 139.1C632.557 139.633 632.217 140.08 631.817 140.44C631.057 141.12 630.137 141.46 629.057 141.46C627.937 141.46 626.971 141.1 626.157 140.38C625.357 139.646 624.957 138.56 624.957 137.12C624.957 135.853 625.317 134.806 626.037 133.98C626.771 133.14 627.751 132.72 628.977 132.72C630.364 132.72 631.411 133.226 632.117 134.24C632.677 135.04 632.937 136.08 632.897 137.36H626.437C626.451 138.2 626.711 138.88 627.217 139.4C627.724 139.92 628.344 140.18 629.077 140.18C629.731 140.18 630.297 139.98 630.777 139.58C631.151 139.26 631.437 138.88 631.637 138.44ZM626.537 136.16H631.417C631.297 135.506 631.011 134.986 630.557 134.6C630.117 134.2 629.591 134 628.977 134C628.377 134 627.844 134.206 627.377 134.62C626.924 135.02 626.644 135.533 626.537 136.16ZM636.546 140.06V145.82H635.106V132.92H636.546V134.08C637.279 133.173 638.226 132.72 639.386 132.72C640.626 132.72 641.606 133.16 642.326 134.04C643.059 134.906 643.426 135.933 643.426 137.12C643.426 138.32 643.066 139.346 642.346 140.2C641.626 141.04 640.659 141.46 639.446 141.46C638.233 141.46 637.266 140.993 636.546 140.06ZM639.246 140.18C640.059 140.18 640.713 139.886 641.206 139.3C641.699 138.7 641.946 137.973 641.946 137.12C641.946 136.16 641.673 135.4 641.126 134.84C640.579 134.28 639.946 134 639.226 134C638.506 134 637.866 134.28 637.306 134.84C636.746 135.4 636.466 136.153 636.466 137.1C636.466 137.966 636.719 138.7 637.226 139.3C637.746 139.886 638.419 140.18 639.246 140.18ZM645.633 132.92H648.773C649.533 132.92 650.113 133.08 650.513 133.4C650.993 133.786 651.233 134.306 651.233 134.96C651.233 135.68 650.933 136.233 650.333 136.62C650.747 136.726 651.093 136.913 651.373 137.18C651.813 137.606 652.033 138.14 652.033 138.78C652.033 139.58 651.747 140.206 651.173 140.66C650.68 141.033 650.027 141.22 649.213 141.22H645.633V132.92ZM647.073 136.3H648.593C648.98 136.3 649.287 136.22 649.513 136.06C649.78 135.86 649.913 135.573 649.913 135.2C649.913 134.866 649.78 134.6 649.513 134.4C649.313 134.266 648.927 134.2 648.353 134.2H647.073V136.3ZM647.073 139.94H648.853C649.467 139.94 649.9 139.846 650.153 139.66C650.473 139.42 650.633 139.113 650.633 138.74C650.633 138.34 650.493 138.026 650.213 137.8C649.96 137.6 649.527 137.5 648.913 137.5H647.073V139.94ZM660.587 134.1V132.92H662.027V141.22H660.587V140.06C659.867 140.993 658.921 141.46 657.747 141.46C656.627 141.46 655.674 141.073 654.887 140.3C654.101 139.526 653.707 138.446 653.707 137.06C653.707 135.7 654.094 134.64 654.867 133.88C655.654 133.106 656.614 132.72 657.747 132.72C658.947 132.72 659.894 133.18 660.587 134.1ZM657.907 134C657.147 134 656.501 134.273 655.967 134.82C655.447 135.353 655.187 136.1 655.187 137.06C655.187 137.98 655.427 138.733 655.907 139.32C656.401 139.893 657.067 140.18 657.907 140.18C658.747 140.18 659.414 139.88 659.907 139.28C660.414 138.68 660.667 137.946 660.667 137.08C660.667 136.093 660.387 135.333 659.827 134.8C659.267 134.266 658.627 134 657.907 134ZM671.035 132.92V141.22H669.595V134.24H666.635V137.98C666.635 139.06 666.421 139.86 665.995 140.38C665.515 140.966 664.848 141.26 663.995 141.26C663.888 141.26 663.741 141.246 663.555 141.22V139.9C663.688 139.926 663.795 139.94 663.875 139.94C664.341 139.94 664.688 139.76 664.915 139.4C665.101 139.106 665.195 138.633 665.195 137.98V132.92H671.035ZM680.406 126.42L681.666 127C681.226 128.16 680.886 129.313 680.646 130.46C680.313 132.073 680.146 133.753 680.146 135.5C680.146 137.233 680.306 138.86 680.626 140.38C680.866 141.553 681.213 142.773 681.666 144.04L680.406 144.62C679.793 143.006 679.353 141.5 679.086 140.1C678.806 138.62 678.666 137.073 678.666 135.46C678.666 133.62 678.853 131.886 679.226 130.26C679.52 129.006 679.913 127.726 680.406 126.42ZM685.745 140.06V145.82H684.305V132.92H685.745V134.08C686.479 133.173 687.425 132.72 688.585 132.72C689.825 132.72 690.805 133.16 691.525 134.04C692.259 134.906 692.625 135.933 692.625 137.12C692.625 138.32 692.265 139.346 691.545 140.2C690.825 141.04 689.859 141.46 688.645 141.46C687.432 141.46 686.465 140.993 685.745 140.06ZM688.445 140.18C689.259 140.18 689.912 139.886 690.405 139.3C690.899 138.7 691.145 137.973 691.145 137.12C691.145 136.16 690.872 135.4 690.325 134.84C689.779 134.28 689.145 134 688.425 134C687.705 134 687.065 134.28 686.505 134.84C685.945 135.4 685.665 136.153 685.665 137.1C685.665 137.966 685.919 138.7 686.425 139.3C686.945 139.886 687.619 140.18 688.445 140.18ZM693.633 141.22L697.173 136.78L694.153 132.92H695.913L698.053 135.74L700.233 132.92H701.993L698.953 136.8L702.393 141.22H700.633L698.013 137.84L695.393 141.22H693.633ZM703.835 127L705.095 126.42C705.588 127.726 705.981 129.006 706.275 130.26C706.648 131.886 706.835 133.62 706.835 135.46C706.835 137.073 706.695 138.62 706.415 140.1C706.148 141.5 705.708 143.006 705.095 144.62L703.835 144.04C704.288 142.773 704.635 141.553 704.875 140.38C705.195 138.86 705.355 137.233 705.355 135.5C705.355 133.753 705.188 132.073 704.855 130.46C704.615 129.313 704.275 128.16 703.835 127Z" fill="#0B1530"/>
<path d="M479.56 162.66H483.1C483.127 163.22 483.307 163.666 483.64 164C483.96 164.346 484.413 164.52 485 164.52C485.547 164.52 486 164.326 486.36 163.94C486.627 163.633 486.76 163.266 486.76 162.84C486.76 162.346 486.587 161.953 486.24 161.66C485.933 161.406 485.507 161.28 484.96 161.28C484.733 161.28 484.54 161.306 484.38 161.36V159.02C484.967 159.1 485.44 158.986 485.8 158.68C486.093 158.426 486.24 158.113 486.24 157.74C486.24 157.34 486.12 157.02 485.88 156.78C485.64 156.54 485.313 156.42 484.9 156.42C484.487 156.42 484.167 156.533 483.94 156.76C483.633 157.04 483.48 157.433 483.48 157.94H480.26C480.327 156.7 480.76 155.68 481.56 154.88C482.387 154.013 483.56 153.58 485.08 153.58C486.493 153.58 487.6 153.973 488.4 154.76C489.12 155.48 489.48 156.34 489.48 157.34C489.48 157.953 489.347 158.5 489.08 158.98C488.827 159.446 488.487 159.786 488.06 160C488.713 160.24 489.24 160.646 489.64 161.22C490.013 161.766 490.2 162.42 490.2 163.18C490.2 164.34 489.807 165.313 489.02 166.1C488.073 167.046 486.747 167.52 485.04 167.52C483.48 167.52 482.207 167.06 481.22 166.14C480.247 165.246 479.693 164.086 479.56 162.66ZM502.212 164.28V167.22H491.512L494.892 163.68C496.106 162.413 497.019 161.286 497.632 160.3C498.112 159.553 498.352 158.86 498.352 158.22C498.352 157.66 498.219 157.233 497.952 156.94C497.712 156.673 497.386 156.54 496.972 156.54C496.479 156.54 496.092 156.72 495.812 157.08C495.519 157.453 495.359 158 495.332 158.72H491.752C491.766 157.226 492.259 155.993 493.232 155.02C494.192 154.06 495.452 153.58 497.012 153.58C498.599 153.58 499.852 154.04 500.772 154.96C501.639 155.826 502.072 156.92 502.072 158.24C502.072 159.653 501.412 160.973 500.092 162.2L497.852 164.28H502.212Z" fill="#0B1530"/>
<path d="M742.72 127.88H745.12C746.453 127.88 747.473 128.16 748.18 128.72C748.98 129.333 749.38 130.253 749.38 131.48C749.38 132.626 748.94 133.5 748.06 134.1C748.913 134.313 749.547 134.746 749.96 135.4C750.387 136.04 750.6 136.726 750.6 137.46C750.6 138.06 750.467 138.613 750.2 139.12C749.947 139.626 749.627 140.033 749.24 140.34C748.493 140.926 747.427 141.22 746.04 141.22H742.72V127.88ZM744.2 129.28V133.74H745.32C745.52 133.74 745.713 133.733 745.9 133.72C746.087 133.693 746.307 133.64 746.56 133.56C746.827 133.466 747.053 133.346 747.24 133.2C747.44 133.053 747.607 132.833 747.74 132.54C747.873 132.246 747.94 131.906 747.94 131.52C747.94 131.106 747.86 130.753 747.7 130.46C747.54 130.153 747.36 129.926 747.16 129.78C746.96 129.633 746.72 129.52 746.44 129.44C746.16 129.36 745.947 129.313 745.8 129.3C745.653 129.286 745.507 129.28 745.36 129.28H744.2ZM744.2 135.06V139.82H745.9C746.98 139.82 747.76 139.633 748.24 139.26C748.827 138.833 749.12 138.22 749.12 137.42C749.12 136.526 748.74 135.873 747.98 135.46C747.5 135.193 746.747 135.06 745.72 135.06H744.2ZM752.965 141.22V132.92H754.405V136.32H758.325V132.92H759.765V141.22H758.325V137.64H754.405V141.22H752.965ZM768.637 138.44L769.837 139.1C769.557 139.633 769.217 140.08 768.817 140.44C768.057 141.12 767.137 141.46 766.057 141.46C764.937 141.46 763.971 141.1 763.157 140.38C762.357 139.646 761.957 138.56 761.957 137.12C761.957 135.853 762.317 134.806 763.037 133.98C763.771 133.14 764.751 132.72 765.977 132.72C767.364 132.72 768.411 133.226 769.117 134.24C769.677 135.04 769.937 136.08 769.897 137.36H763.437C763.451 138.2 763.711 138.88 764.217 139.4C764.724 139.92 765.344 140.18 766.077 140.18C766.731 140.18 767.297 139.98 767.777 139.58C768.151 139.26 768.437 138.88 768.637 138.44ZM763.537 136.16H768.417C768.297 135.506 768.011 134.986 767.557 134.6C767.117 134.2 766.591 134 765.977 134C765.377 134 764.844 134.206 764.377 134.62C763.924 135.02 763.644 135.533 763.537 136.16ZM772.106 141.22V132.92H773.546V139.9H776.746V132.92H778.186V139.9H781.386V132.92H782.826V141.22H772.106ZM785.544 141.22V132.92H786.984V136.32H790.904V132.92H792.344V141.22H790.904V137.64H786.984V141.22H785.544ZM795.055 132.92H796.495V138.4L802.175 132.28V141.22H800.735V135.68L795.055 141.8V132.92ZM811.059 138.44L812.259 139.1C811.979 139.633 811.639 140.08 811.239 140.44C810.479 141.12 809.559 141.46 808.479 141.46C807.359 141.46 806.392 141.1 805.579 140.38C804.779 139.646 804.379 138.56 804.379 137.12C804.379 135.853 804.739 134.806 805.459 133.98C806.192 133.14 807.172 132.72 808.399 132.72C809.786 132.72 810.832 133.226 811.539 134.24C812.099 135.04 812.359 136.08 812.319 137.36H805.859C805.872 138.2 806.132 138.88 806.639 139.4C807.146 139.92 807.766 140.18 808.499 140.18C809.152 140.18 809.719 139.98 810.199 139.58C810.572 139.26 810.859 138.88 811.059 138.44ZM805.959 136.16H810.839C810.719 135.506 810.432 134.986 809.979 134.6C809.539 134.2 809.012 134 808.399 134C807.799 134 807.266 134.206 806.799 134.62C806.346 135.02 806.066 135.533 805.959 136.16ZM826.216 140.22C825.389 141.046 824.343 141.46 823.076 141.46C821.809 141.46 820.756 141.046 819.916 140.22C819.089 139.393 818.676 138.353 818.676 137.1C818.676 135.833 819.089 134.786 819.916 133.96C820.756 133.133 821.809 132.72 823.076 132.72C824.343 132.72 825.389 133.133 826.216 133.96C827.056 134.786 827.476 135.833 827.476 137.1C827.476 138.353 827.056 139.393 826.216 140.22ZM825.136 134.82C824.576 134.273 823.889 134 823.076 134C822.263 134 821.569 134.28 820.996 134.84C820.436 135.386 820.156 136.14 820.156 137.1C820.156 138.06 820.443 138.813 821.016 139.36C821.589 139.906 822.276 140.18 823.076 140.18C823.876 140.18 824.563 139.906 825.136 139.36C825.709 138.813 825.996 138.06 825.996 137.1C825.996 136.126 825.709 135.366 825.136 134.82ZM834.929 134.24H832.329V141.22H830.889V134.24H828.289V132.92H834.929V134.24ZM842.747 133.52V135.24C842.093 134.413 841.227 134 840.147 134C839.333 134 838.64 134.28 838.067 134.84C837.493 135.386 837.207 136.14 837.207 137.1C837.207 138.06 837.493 138.813 838.067 139.36C838.64 139.906 839.327 140.18 840.127 140.18C841.193 140.18 842.087 139.746 842.807 138.88V140.6C842.02 141.173 841.14 141.46 840.167 141.46C838.873 141.46 837.807 141.053 836.967 140.24C836.14 139.413 835.727 138.373 835.727 137.12C835.727 135.853 836.147 134.806 836.987 133.98C837.827 133.14 838.887 132.72 840.167 132.72C841.127 132.72 841.987 132.986 842.747 133.52ZM850.456 134.24H847.856V141.22H846.416V134.24H843.816V132.92H850.456V134.24ZM852.34 145.82L854.98 140.44L851.16 132.92H852.8L855.74 138.86L858.44 132.92H860.04L853.94 145.82H852.34ZM861.559 132.92H868.239V141.22H866.799V134.24H862.999V141.22H861.559V132.92ZM870.954 141.22V132.92H872.394V136.1H873.874C875.02 136.1 875.86 136.373 876.394 136.92C876.82 137.346 877.034 137.926 877.034 138.66C877.034 139.433 876.787 140.053 876.294 140.52C875.8 140.986 874.987 141.22 873.854 141.22H870.954ZM872.394 139.94H873.734C874.334 139.94 874.76 139.866 875.014 139.72C875.374 139.48 875.554 139.126 875.554 138.66C875.554 138.18 875.38 137.833 875.034 137.62C874.794 137.46 874.367 137.38 873.754 137.38H872.394V139.94ZM878.034 141.22V132.92H879.474V141.22H878.034ZM888.832 126.42L890.092 127C889.652 128.16 889.312 129.313 889.072 130.46C888.739 132.073 888.572 133.753 888.572 135.5C888.572 137.233 888.732 138.86 889.052 140.38C889.292 141.553 889.639 142.773 890.092 144.04L888.832 144.62C888.219 143.006 887.779 141.5 887.512 140.1C887.232 138.62 887.092 137.073 887.092 135.46C887.092 133.62 887.279 131.886 887.652 130.26C887.946 129.006 888.339 127.726 888.832 126.42ZM894.171 140.06V145.82H892.731V132.92H894.171V134.08C894.904 133.173 895.851 132.72 897.011 132.72C898.251 132.72 899.231 133.16 899.951 134.04C900.684 134.906 901.051 135.933 901.051 137.12C901.051 138.32 900.691 139.346 899.971 140.2C899.251 141.04 898.284 141.46 897.071 141.46C895.858 141.46 894.891 140.993 894.171 140.06ZM896.871 140.18C897.684 140.18 898.338 139.886 898.831 139.3C899.324 138.7 899.571 137.973 899.571 137.12C899.571 136.16 899.298 135.4 898.751 134.84C898.204 134.28 897.571 134 896.851 134C896.131 134 895.491 134.28 894.931 134.84C894.371 135.4 894.091 136.153 894.091 137.1C894.091 137.966 894.344 138.7 894.851 139.3C895.371 139.886 896.044 140.18 896.871 140.18ZM902.058 141.22L905.598 136.78L902.578 132.92H904.338L906.478 135.74L908.658 132.92H910.418L907.378 136.8L910.818 141.22H909.058L906.438 137.84L903.818 141.22H902.058ZM912.26 127L913.52 126.42C914.014 127.726 914.407 129.006 914.7 130.26C915.074 131.886 915.26 133.62 915.26 135.46C915.26 137.073 915.12 138.62 914.84 140.1C914.574 141.5 914.134 143.006 913.52 144.62L912.26 144.04C912.714 142.773 913.06 141.553 913.3 140.38C913.62 138.86 913.78 137.233 913.78 135.5C913.78 133.753 913.614 132.073 913.28 130.46C913.04 129.313 912.7 128.16 912.26 127Z" fill="#0B1530"/>
<path d="M745.68 167.22V156.82H743.78V153.88H749.14V167.22H745.68ZM758.314 157.1C758.007 156.82 757.654 156.68 757.254 156.68C756.854 156.68 756.501 156.82 756.194 157.1C755.847 157.393 755.567 157.886 755.354 158.58C755.141 159.26 755.034 159.926 755.034 160.58C755.034 161.18 755.134 161.833 755.334 162.54C755.547 163.233 755.834 163.74 756.194 164.06C756.501 164.34 756.854 164.48 757.254 164.48C757.654 164.48 758.007 164.34 758.314 164.06C758.661 163.753 758.941 163.26 759.154 162.58C759.367 161.886 759.474 161.226 759.474 160.6C759.474 159.973 759.361 159.306 759.134 158.6C758.921 157.893 758.647 157.393 758.314 157.1ZM762.914 160.56C762.914 162.893 762.254 164.706 760.934 166C759.907 167.013 758.681 167.52 757.254 167.52C755.827 167.52 754.601 167.013 753.574 166C752.254 164.706 751.594 162.893 751.594 160.56C751.594 158.213 752.254 156.393 753.574 155.1C754.601 154.086 755.827 153.58 757.254 153.58C758.681 153.58 759.907 154.086 760.934 155.1C762.254 156.393 762.914 158.213 762.914 160.56ZM770.306 157.1C769.999 156.82 769.646 156.68 769.246 156.68C768.846 156.68 768.493 156.82 768.186 157.1C767.839 157.393 767.559 157.886 767.346 158.58C767.133 159.26 767.026 159.926 767.026 160.58C767.026 161.18 767.126 161.833 767.326 162.54C767.539 163.233 767.826 163.74 768.186 164.06C768.493 164.34 768.846 164.48 769.246 164.48C769.646 164.48 769.999 164.34 770.306 164.06C770.653 163.753 770.933 163.26 771.146 162.58C771.359 161.886 771.466 161.226 771.466 160.6C771.466 159.973 771.353 159.306 771.126 158.6C770.913 157.893 770.639 157.393 770.306 157.1ZM774.906 160.56C774.906 162.893 774.246 164.706 772.926 166C771.899 167.013 770.673 167.52 769.246 167.52C767.819 167.52 766.593 167.013 765.566 166C764.246 164.706 763.586 162.893 763.586 160.56C763.586 158.213 764.246 156.393 765.566 155.1C766.593 154.086 767.819 153.58 769.246 153.58C770.673 153.58 771.899 154.086 772.926 155.1C774.246 156.393 774.906 158.213 774.906 160.56Z" fill="#0B1530"/>
<rect x="74" y="230.292" width="80" height="73" fill="#9FE4CB"/>
<rect x="154" y="230.292" width="51.16" height="73" fill="#FDB5B5"/>
<rect x="215.16" y="230.292" width="51.16" height="73" fill="#FDB5B5"/>
<rect x="276.32" y="230.292" width="51.16" height="73" fill="#FDB5B5"/>
<rect x="337.48" y="230.292" width="51.16" height="73" fill="#FDB5B5"/>
<rect x="398.64" y="230.292" width="51.16" height="73" fill="#FDB5B5"/>
<rect x="459.8" y="230.292" width="51.16" height="73" fill="#FDB5B5"/>
<rect x="520.96" y="230.292" width="51.16" height="73" fill="#FDB5B5"/>
<rect x="582.12" y="230.292" width="51.16" height="73" fill="#FDB5B5"/>
<rect x="643.28" y="230.292" width="51.16" height="73" fill="#FDB5B5"/>
<rect x="704.44" y="230.292" width="51.16" height="73" fill="#FDB5B5"/>
<rect x="765.6" y="230.292" width="51.16" height="73" fill="#FDB5B5"/>
<rect x="826.76" y="230.292" width="51.16" height="73" fill="#FDB5B5"/>
<rect x="877.92" y="230.292" width="80" height="73" fill="#9FE4CB"/>
<mask id="path-26-inside-1_808_2449" fill="white">
<path d="M215 229.423L215 216.423L266 216.423L266 229.423L215 229.423Z"/>
</mask>
<path d="M215 216.423L215 214.423L213 214.423L213 216.423L215 216.423ZM266 216.423L268 216.423L268 214.423L266 214.423L266 216.423ZM217 229.423L217 216.423L213 216.423L213 229.423L217 229.423ZM215 218.423L266 218.423L266 214.423L215 214.423L215 218.423ZM264 216.423L264 229.423L268 229.423L268 216.423L264 216.423Z" fill="#33F7C3" mask="url(#path-26-inside-1_808_2449)"/>
<rect x="262.453" y="205.672" width="43.9061" height="20.7027" rx="3.75176" transform="rotate(-180 262.453 205.672)" fill="#33F7C3"/>
<rect x="262.453" y="205.672" width="43.9061" height="20.7027" rx="3.75176" transform="rotate(-180 262.453 205.672)" stroke="#33F7C3" stroke-width="1.5007"/>
<path d="M228.965 199.941C228.308 199.941 227.724 199.834 227.213 199.621C226.704 199.405 226.305 199.111 226.015 198.738C225.725 198.366 225.58 197.944 225.58 197.472C225.58 197.108 225.662 196.774 225.827 196.47C225.995 196.163 226.222 195.909 226.509 195.707C226.796 195.503 227.117 195.372 227.473 195.315V195.255C227.007 195.161 226.629 194.935 226.339 194.577C226.049 194.216 225.904 193.797 225.904 193.32C225.904 192.868 226.036 192.466 226.3 192.113C226.565 191.758 226.927 191.479 227.387 191.278C227.851 191.073 228.377 190.971 228.965 190.971C229.553 190.971 230.078 191.073 230.538 191.278C231.001 191.482 231.365 191.762 231.63 192.117C231.894 192.47 232.027 192.871 232.03 193.32C232.027 193.8 231.88 194.219 231.587 194.577C231.294 194.935 230.919 195.161 230.461 195.255V195.315C230.811 195.372 231.128 195.503 231.412 195.707C231.699 195.909 231.927 196.163 232.094 196.47C232.265 196.774 232.351 197.108 232.354 197.472C232.351 197.944 232.205 198.366 231.915 198.738C231.625 199.111 231.225 199.405 230.713 199.621C230.204 199.834 229.621 199.941 228.965 199.941ZM228.965 198.585C229.258 198.585 229.513 198.532 229.732 198.427C229.951 198.319 230.122 198.171 230.244 197.984C230.369 197.793 230.432 197.574 230.432 197.327C230.432 197.074 230.368 196.851 230.24 196.658C230.112 196.462 229.938 196.308 229.72 196.197C229.501 196.084 229.249 196.027 228.965 196.027C228.684 196.027 228.432 196.084 228.21 196.197C227.989 196.308 227.814 196.462 227.686 196.658C227.561 196.851 227.498 197.074 227.498 197.327C227.498 197.574 227.559 197.793 227.682 197.984C227.804 198.171 227.976 198.319 228.198 198.427C228.419 198.532 228.675 198.585 228.965 198.585ZM228.965 194.684C229.209 194.684 229.427 194.634 229.617 194.535C229.808 194.435 229.957 194.297 230.065 194.121C230.173 193.945 230.227 193.742 230.227 193.512C230.227 193.284 230.173 193.085 230.065 192.915C229.957 192.741 229.809 192.606 229.621 192.51C229.434 192.41 229.215 192.36 228.965 192.36C228.718 192.36 228.499 192.41 228.308 192.51C228.118 192.606 227.969 192.741 227.861 192.915C227.756 193.085 227.703 193.284 227.703 193.512C227.703 193.742 227.757 193.945 227.865 194.121C227.973 194.297 228.122 194.435 228.313 194.535C228.503 194.634 228.72 194.684 228.965 194.684ZM237.069 200.013C236.335 200.01 235.704 199.83 235.176 199.472C234.65 199.114 234.245 198.595 233.961 197.916C233.679 197.236 233.54 196.419 233.543 195.464C233.543 194.512 233.683 193.701 233.965 193.03C234.249 192.359 234.654 191.849 235.18 191.499C235.708 191.147 236.338 190.971 237.069 190.971C237.799 190.971 238.427 191.147 238.953 191.499C239.482 191.852 239.888 192.363 240.172 193.034C240.456 193.702 240.597 194.512 240.594 195.464C240.594 196.422 240.452 197.241 240.168 197.92C239.887 198.599 239.483 199.118 238.957 199.476C238.431 199.834 237.802 200.013 237.069 200.013ZM237.069 198.483C237.569 198.483 237.968 198.231 238.267 197.728C238.565 197.225 238.713 196.47 238.71 195.464C238.71 194.802 238.642 194.25 238.505 193.81C238.372 193.369 238.181 193.038 237.934 192.817C237.69 192.595 237.401 192.484 237.069 192.484C236.571 192.484 236.173 192.733 235.875 193.23C235.576 193.728 235.426 194.472 235.423 195.464C235.423 196.135 235.49 196.695 235.623 197.144C235.76 197.59 235.952 197.926 236.199 198.15C236.446 198.372 236.736 198.483 237.069 198.483ZM241.928 202.277V193.273H243.718V194.373H243.799C243.879 194.196 243.994 194.017 244.145 193.836C244.298 193.651 244.497 193.497 244.741 193.375C244.989 193.25 245.296 193.187 245.662 193.187C246.14 193.187 246.58 193.313 246.984 193.563C247.388 193.81 247.71 194.184 247.952 194.684C248.193 195.181 248.314 195.805 248.314 196.556C248.314 197.286 248.196 197.903 247.96 198.406C247.727 198.906 247.409 199.286 247.005 199.544C246.605 199.8 246.156 199.928 245.658 199.928C245.306 199.928 245.006 199.87 244.759 199.753C244.514 199.637 244.314 199.49 244.157 199.314C244.001 199.135 243.882 198.954 243.799 198.773H243.744V202.277H241.928ZM243.705 196.547C243.705 196.936 243.76 197.276 243.868 197.566C243.976 197.856 244.132 198.082 244.336 198.244C244.541 198.403 244.79 198.483 245.083 198.483C245.378 198.483 245.628 198.402 245.833 198.24C246.038 198.075 246.192 197.847 246.298 197.557C246.406 197.265 246.46 196.928 246.46 196.547C246.46 196.169 246.407 195.836 246.302 195.549C246.197 195.262 246.042 195.038 245.837 194.876C245.633 194.714 245.381 194.633 245.083 194.633C244.787 194.633 244.537 194.711 244.332 194.867C244.13 195.024 243.976 195.245 243.868 195.532C243.76 195.819 243.705 196.158 243.705 196.547ZM250.808 193.273L252.011 195.562L253.243 193.273H255.106L253.209 196.547L255.157 199.821H253.302L252.011 197.557L250.74 199.821H248.864L250.808 196.547L248.932 193.273H250.808Z" fill="#0B1530"/>
<mask id="path-30-inside-2_808_2449" fill="white">
<path d="M74 229.49L74 216.49L154 216.49L154 229.49L74 229.49Z"/>
</mask>
<path d="M74 216.49L74 214.49L72 214.49L72 216.49L74 216.49ZM154 216.49L156 216.49L156 214.49L154 214.49L154 216.49ZM76 229.49L76 216.49L72 216.49L72 229.49L76 229.49ZM74 218.49L154 218.49L154 214.49L74 214.49L74 218.49ZM152 216.49L152 229.49L156 229.49L156 216.49L152 216.49Z" fill="#33F7C3" mask="url(#path-30-inside-2_808_2449)"/>
<rect x="138.953" y="205.74" width="49.9061" height="20.7027" rx="3.75176" transform="rotate(-180 138.953 205.74)" fill="#33F7C3"/>
<rect x="138.953" y="205.74" width="49.9061" height="20.7027" rx="3.75176" transform="rotate(-180 138.953 205.74)" stroke="#33F7C3" stroke-width="1.5007"/>
<path d="M100.006 191.157V199.889H98.1603V192.91H98.1092L96.1097 194.163V192.526L98.2712 191.157H100.006ZM105.505 200.081C104.772 200.078 104.141 199.897 103.612 199.539C103.086 199.181 102.681 198.662 102.397 197.983C102.116 197.304 101.976 196.487 101.979 195.532C101.979 194.579 102.12 193.768 102.401 193.097C102.686 192.426 103.091 191.916 103.616 191.567C104.145 191.214 104.775 191.038 105.505 191.038C106.236 191.038 106.864 191.214 107.389 191.567C107.918 191.919 108.325 192.431 108.609 193.101C108.893 193.769 109.034 194.579 109.031 195.532C109.031 196.489 108.889 197.308 108.605 197.987C108.323 198.667 107.92 199.185 107.394 199.543C106.868 199.901 106.238 200.081 105.505 200.081ZM105.505 198.55C106.005 198.55 106.405 198.298 106.703 197.795C107.001 197.292 107.149 196.538 107.146 195.532C107.146 194.869 107.078 194.318 106.942 193.877C106.808 193.437 106.618 193.106 106.371 192.884C106.126 192.662 105.838 192.551 105.505 192.551C105.008 192.551 104.61 192.8 104.311 193.298C104.013 193.795 103.862 194.54 103.859 195.532C103.859 196.202 103.926 196.762 104.06 197.211C104.196 197.658 104.388 197.993 104.635 198.217C104.883 198.439 105.173 198.55 105.505 198.55ZM113.771 200.081C113.037 200.078 112.406 199.897 111.878 199.539C111.352 199.181 110.947 198.662 110.663 197.983C110.381 197.304 110.242 196.487 110.245 195.532C110.245 194.579 110.386 193.768 110.667 193.097C110.951 192.426 111.356 191.916 111.882 191.567C112.411 191.214 113.04 191.038 113.771 191.038C114.501 191.038 115.129 191.214 115.655 191.567C116.184 191.919 116.59 192.431 116.874 193.101C117.159 193.769 117.299 194.579 117.296 195.532C117.296 196.489 117.154 197.308 116.87 197.987C116.589 198.667 116.185 199.185 115.659 199.543C115.133 199.901 114.504 200.081 113.771 200.081ZM113.771 198.55C114.271 198.55 114.67 198.298 114.969 197.795C115.267 197.292 115.415 196.538 115.412 195.532C115.412 194.869 115.344 194.318 115.207 193.877C115.074 193.437 114.883 193.106 114.636 192.884C114.392 192.662 114.103 192.551 113.771 192.551C113.273 192.551 112.875 192.8 112.577 193.298C112.278 193.795 112.128 194.54 112.125 195.532C112.125 196.202 112.192 196.762 112.325 197.211C112.462 197.658 112.654 197.993 112.901 198.217C113.148 198.439 113.438 198.55 113.771 198.55ZM118.63 202.344V193.34H120.42V194.44H120.501C120.581 194.264 120.696 194.085 120.847 193.903C121 193.718 121.199 193.565 121.444 193.442C121.691 193.317 121.998 193.255 122.365 193.255C122.842 193.255 123.283 193.38 123.686 193.63C124.09 193.877 124.412 194.251 124.654 194.751C124.896 195.249 125.016 195.873 125.016 196.623C125.016 197.353 124.898 197.97 124.662 198.473C124.429 198.973 124.111 199.353 123.707 199.612C123.307 199.867 122.858 199.995 122.36 199.995C122.008 199.995 121.708 199.937 121.461 199.82C121.216 199.704 121.016 199.558 120.86 199.381C120.703 199.202 120.584 199.022 120.501 198.84H120.446V202.344H118.63ZM120.408 196.614C120.408 197.004 120.462 197.343 120.57 197.633C120.678 197.923 120.834 198.149 121.039 198.311C121.243 198.47 121.492 198.55 121.785 198.55C122.08 198.55 122.33 198.469 122.535 198.307C122.74 198.142 122.895 197.915 123 197.625C123.108 197.332 123.162 196.995 123.162 196.614C123.162 196.236 123.109 195.904 123.004 195.617C122.899 195.33 122.744 195.105 122.539 194.943C122.335 194.781 122.083 194.7 121.785 194.7C121.489 194.7 121.239 194.778 121.034 194.935C120.833 195.091 120.678 195.313 120.57 195.6C120.462 195.887 120.408 196.225 120.408 196.614ZM127.51 193.34L128.713 195.63L129.945 193.34H131.808L129.911 196.614L131.859 199.889H130.004L128.713 197.625L127.442 199.889H125.566L127.51 196.614L125.635 193.34H127.51Z" fill="#0B1530"/>
<mask id="path-34-inside-3_808_2449" fill="white">
<path d="M326.797 229.446L326.797 216.446L337.797 216.446L337.797 229.446L326.797 229.446Z"/>
</mask>
<path d="M326.797 216.446L326.797 214.446L324.797 214.446L324.797 216.446L326.797 216.446ZM337.797 216.446L339.797 216.446L339.797 214.446L337.797 214.446L337.797 216.446ZM328.797 229.446L328.797 216.446L324.797 216.446L324.797 229.446L328.797 229.446ZM326.797 218.446L337.797 218.446L337.797 214.446L326.797 214.446L326.797 218.446ZM335.797 216.446L335.797 229.446L339.797 229.446L339.797 216.446L335.797 216.446Z" fill="#33F7C3" mask="url(#path-34-inside-3_808_2449)"/>
<rect x="353.75" y="205.696" width="42.9061" height="20.7027" rx="3.75176" transform="rotate(-180 353.75 205.696)" fill="#33F7C3"/>
<rect x="353.75" y="205.696" width="42.9061" height="20.7027" rx="3.75176" transform="rotate(-180 353.75 205.696)" stroke="#33F7C3" stroke-width="1.5007"/>
<path d="M321.232 199.964C320.595 199.964 320.028 199.855 319.531 199.636C319.036 199.414 318.645 199.11 318.358 198.723C318.074 198.334 317.928 197.885 317.919 197.376H319.778C319.789 197.589 319.859 197.777 319.987 197.939C320.118 198.098 320.291 198.222 320.507 198.31C320.723 198.398 320.966 198.442 321.236 198.442C321.517 198.442 321.766 198.392 321.982 198.293C322.198 198.193 322.367 198.056 322.489 197.879C322.612 197.703 322.673 197.5 322.673 197.27C322.673 197.037 322.607 196.831 322.477 196.651C322.349 196.47 322.164 196.327 321.922 196.225C321.684 196.123 321.399 196.072 321.07 196.072H320.255V194.716H321.07C321.348 194.716 321.594 194.668 321.807 194.571C322.023 194.474 322.191 194.341 322.31 194.17C322.43 193.997 322.489 193.795 322.489 193.565C322.489 193.346 322.437 193.154 322.332 192.989C322.229 192.822 322.084 192.691 321.897 192.597C321.712 192.503 321.496 192.456 321.249 192.456C320.999 192.456 320.77 192.502 320.562 192.593C320.355 192.681 320.189 192.807 320.064 192.972C319.938 193.137 319.872 193.33 319.863 193.552H318.094C318.102 193.049 318.246 192.606 318.524 192.222C318.803 191.838 319.178 191.538 319.65 191.322C320.125 191.103 320.66 190.994 321.257 190.994C321.86 190.994 322.387 191.103 322.839 191.322C323.291 191.541 323.642 191.837 323.892 192.209C324.145 192.579 324.27 192.994 324.267 193.454C324.27 193.943 324.118 194.351 323.811 194.678C323.507 195.004 323.11 195.212 322.622 195.3V195.368C323.264 195.451 323.753 195.674 324.088 196.038C324.426 196.399 324.594 196.85 324.591 197.393C324.594 197.891 324.451 198.333 324.161 198.719C323.874 199.106 323.477 199.41 322.971 199.632C322.465 199.853 321.885 199.964 321.232 199.964ZM325.918 199.845V198.515L329.026 195.637C329.291 195.381 329.512 195.151 329.691 194.946C329.873 194.741 330.011 194.541 330.105 194.345C330.199 194.146 330.246 193.931 330.246 193.701C330.246 193.445 330.187 193.225 330.071 193.04C329.954 192.853 329.795 192.709 329.593 192.61C329.391 192.507 329.163 192.456 328.907 192.456C328.64 192.456 328.407 192.51 328.208 192.618C328.009 192.726 327.855 192.881 327.747 193.083C327.639 193.285 327.585 193.525 327.585 193.804H325.833C325.833 193.232 325.962 192.736 326.221 192.316C326.48 191.895 326.842 191.57 327.308 191.339C327.774 191.109 328.311 190.994 328.92 190.994C329.545 190.994 330.089 191.105 330.552 191.327C331.019 191.545 331.381 191.85 331.64 192.239C331.898 192.628 332.028 193.075 332.028 193.578C332.028 193.907 331.962 194.233 331.831 194.554C331.704 194.875 331.475 195.232 331.145 195.624C330.815 196.013 330.351 196.481 329.751 197.027L328.476 198.276V198.335H332.143V199.845H325.918ZM333.497 202.3V193.296H335.288V194.396H335.369C335.449 194.22 335.564 194.041 335.714 193.859C335.868 193.674 336.067 193.521 336.311 193.399C336.558 193.273 336.865 193.211 337.232 193.211C337.71 193.211 338.15 193.336 338.554 193.586C338.957 193.833 339.28 194.207 339.522 194.707C339.763 195.205 339.884 195.829 339.884 196.579C339.884 197.309 339.766 197.926 339.53 198.429C339.297 198.93 338.979 199.309 338.575 199.568C338.174 199.823 337.725 199.951 337.228 199.951C336.875 199.951 336.576 199.893 336.328 199.777C336.084 199.66 335.883 199.514 335.727 199.337C335.571 199.158 335.451 198.978 335.369 198.796H335.314V202.3H333.497ZM335.275 196.57C335.275 196.96 335.329 197.299 335.437 197.589C335.545 197.879 335.702 198.105 335.906 198.267C336.111 198.426 336.36 198.506 336.652 198.506C336.948 198.506 337.198 198.425 337.403 198.263C337.607 198.098 337.762 197.871 337.867 197.581C337.975 197.288 338.029 196.951 338.029 196.57C338.029 196.192 337.977 195.86 337.872 195.573C337.766 195.286 337.612 195.061 337.407 194.899C337.202 194.737 336.951 194.656 336.652 194.656C336.357 194.656 336.107 194.734 335.902 194.891C335.7 195.047 335.545 195.269 335.437 195.556C335.329 195.843 335.275 196.181 335.275 196.57ZM342.378 193.296L343.58 195.586L344.812 193.296H346.675L344.778 196.57L346.727 199.845H344.872L343.58 197.581L342.31 199.845H340.434L342.378 196.57L340.502 193.296H342.378Z" fill="#0B1530"/>
<rect x="543.453" y="348.746" width="54.9061" height="20.7027" rx="3.75176" transform="rotate(-180 543.453 348.746)" fill="#33F7C3"/>
<rect x="543.453" y="348.746" width="54.9061" height="20.7027" rx="3.75176" transform="rotate(-180 543.453 348.746)" stroke="#33F7C3" stroke-width="1.5007"/>
<path d="M499.506 334.163V342.895H497.66V335.915H497.609L495.61 337.169V335.532L497.771 334.163H499.506ZM504.809 343.014C504.172 343.014 503.605 342.904 503.108 342.686C502.613 342.464 502.222 342.16 501.935 341.773C501.651 341.384 501.505 340.935 501.496 340.426H503.355C503.366 340.639 503.436 340.827 503.564 340.989C503.695 341.148 503.868 341.272 504.084 341.36C504.3 341.448 504.543 341.492 504.813 341.492C505.095 341.492 505.343 341.442 505.559 341.343C505.775 341.243 505.944 341.105 506.067 340.929C506.189 340.753 506.25 340.55 506.25 340.319C506.25 340.086 506.185 339.88 506.054 339.701C505.926 339.519 505.741 339.377 505.5 339.275C505.261 339.173 504.977 339.121 504.647 339.121H503.833V337.766H504.647C504.925 337.766 505.171 337.717 505.384 337.621C505.6 337.524 505.768 337.391 505.888 337.22C506.007 337.047 506.067 336.845 506.067 336.615C506.067 336.396 506.014 336.204 505.909 336.039C505.807 335.871 505.662 335.741 505.474 335.647C505.289 335.553 505.073 335.506 504.826 335.506C504.576 335.506 504.347 335.552 504.14 335.643C503.932 335.731 503.766 335.857 503.641 336.022C503.516 336.187 503.449 336.38 503.44 336.602H501.671C501.68 336.099 501.823 335.655 502.102 335.272C502.38 334.888 502.755 334.588 503.227 334.372C503.702 334.153 504.238 334.044 504.835 334.044C505.437 334.044 505.964 334.153 506.416 334.372C506.868 334.591 507.219 334.887 507.469 335.259C507.722 335.628 507.847 336.043 507.844 336.504C507.847 336.993 507.695 337.4 507.388 337.727C507.084 338.054 506.688 338.262 506.199 338.35V338.418C506.841 338.5 507.33 338.724 507.665 339.087C508.004 339.448 508.171 339.9 508.168 340.443C508.171 340.94 508.028 341.382 507.738 341.769C507.451 342.156 507.054 342.46 506.548 342.681C506.042 342.903 505.463 343.014 504.809 343.014ZM513.294 334.163V342.895H511.448V335.915H511.397L509.397 337.169V335.532L511.559 334.163H513.294ZM515.369 342.895V341.564L518.477 338.687C518.742 338.431 518.963 338.201 519.142 337.996C519.324 337.791 519.462 337.591 519.556 337.395C519.65 337.196 519.697 336.981 519.697 336.751C519.697 336.495 519.638 336.275 519.522 336.09C519.405 335.903 519.246 335.759 519.044 335.66C518.842 335.557 518.614 335.506 518.358 335.506C518.091 335.506 517.858 335.56 517.659 335.668C517.46 335.776 517.306 335.931 517.198 336.133C517.09 336.335 517.036 336.575 517.036 336.853H515.284C515.284 336.282 515.413 335.786 515.672 335.365C515.931 334.945 516.293 334.619 516.759 334.389C517.225 334.159 517.762 334.044 518.371 334.044C518.996 334.044 519.54 334.155 520.004 334.376C520.47 334.595 520.832 334.899 521.091 335.289C521.349 335.678 521.479 336.124 521.479 336.627C521.479 336.957 521.413 337.283 521.283 337.604C521.155 337.925 520.926 338.282 520.596 338.674C520.266 339.063 519.802 339.531 519.202 340.076L517.927 341.326V341.385H521.594V342.895H515.369ZM522.948 345.35V336.346H524.739V337.446H524.82C524.9 337.27 525.015 337.091 525.165 336.909C525.319 336.724 525.518 336.571 525.762 336.448C526.01 336.323 526.317 336.261 526.683 336.261C527.161 336.261 527.601 336.386 528.005 336.636C528.408 336.883 528.731 337.257 528.973 337.757C529.214 338.255 529.335 338.878 529.335 339.629C529.335 340.359 529.217 340.976 528.981 341.479C528.748 341.979 528.43 342.359 528.026 342.617C527.625 342.873 527.176 343.001 526.679 343.001C526.326 343.001 526.027 342.943 525.779 342.826C525.535 342.71 525.335 342.563 525.178 342.387C525.022 342.208 524.903 342.028 524.82 341.846H524.765V345.35H522.948ZM524.726 339.62C524.726 340.01 524.78 340.349 524.888 340.639C524.996 340.929 525.153 341.155 525.357 341.317C525.562 341.476 525.811 341.556 526.103 341.556C526.399 341.556 526.649 341.475 526.854 341.313C527.058 341.148 527.213 340.921 527.318 340.631C527.426 340.338 527.48 340.001 527.48 339.62C527.48 339.242 527.428 338.91 527.323 338.623C527.218 338.336 527.063 338.111 526.858 337.949C526.653 337.787 526.402 337.706 526.103 337.706C525.808 337.706 525.558 337.784 525.353 337.941C525.151 338.097 524.996 338.319 524.888 338.606C524.78 338.893 524.726 339.231 524.726 339.62ZM531.829 336.346L533.031 338.635L534.263 336.346H536.127L534.229 339.62L536.178 342.895H534.323L533.031 340.631L531.761 342.895H529.885L531.829 339.62L529.953 336.346H531.829Z" fill="#0B1530"/>
<mask id="path-40-inside-4_808_2449" fill="white">
<path d="M878 304.293L878 317.293L154 317.293L154 304.293L878 304.293Z"/>
</mask>
<path d="M878 317.293L878 319.293L880 319.293L880 317.293L878 317.293ZM154 317.293L152 317.293L152 319.293L154 319.293L154 317.293ZM876 304.293L876 317.293L880 317.293L880 304.293L876 304.293ZM878 315.293L154 315.293L154 319.293L878 319.293L878 315.293ZM156 317.293L156 304.293L152 304.293L152 317.293L156 317.293Z" fill="#33F7C3" mask="url(#path-40-inside-4_808_2449)"/>
</svg>
