<svg width="416" height="189" viewBox="0 0 416 189" fill="none" xmlns="http://www.w3.org/2000/svg">
<rect y="0.798828" width="416" height="188" rx="24" fill="#F5F6F8"/>
<path d="M54.14 49.0788L53 48.1788C53.8667 46.8855 55.14 46.2388 56.82 46.2388C58.02 46.2388 58.96 46.5522 59.64 47.1788C60.3333 47.8055 60.68 48.6255 60.68 49.6388C60.68 50.2922 60.5067 50.8655 60.16 51.3588C59.8267 51.8388 59.3867 52.2055 58.84 52.4588C59.7067 52.6588 60.3667 53.0722 60.82 53.6988C61.2867 54.3255 61.52 55.0588 61.52 55.8988C61.52 57.2855 60.9667 58.3722 59.86 59.1588C59.0067 59.7455 57.9933 60.0388 56.82 60.0388C55.6067 60.0388 54.6 59.7322 53.8 59.1188C53 58.5055 52.4 57.7455 52 56.8388L53.44 56.1988C53.7067 56.9455 54.1467 57.5388 54.76 57.9788C55.3733 58.4188 56.08 58.6388 56.88 58.6388C57.6933 58.6388 58.3733 58.4522 58.92 58.0788C59.64 57.5722 60 56.8588 60 55.9388C60 54.1922 58.8133 53.3188 56.44 53.3188H55.24V51.9188H56.44C57.32 51.9188 57.9933 51.7055 58.46 51.2788C58.9267 50.8522 59.16 50.3122 59.16 49.6588C59.16 49.0855 58.98 48.6188 58.62 48.2588C58.22 47.8455 57.62 47.6388 56.82 47.6388C55.7 47.6388 54.8067 48.1188 54.14 49.0788ZM70.2434 52.6788V51.4988H71.6834V59.7988H70.2434V58.6388C69.5234 59.5722 68.5768 60.0388 67.4034 60.0388C66.2834 60.0388 65.3301 59.6522 64.5434 58.8788C63.7568 58.1055 63.3634 57.0255 63.3634 55.6388C63.3634 54.2788 63.7501 53.2188 64.5234 52.4588C65.3101 51.6855 66.2701 51.2988 67.4034 51.2988C68.6034 51.2988 69.5501 51.7588 70.2434 52.6788ZM67.5634 52.5788C66.8034 52.5788 66.1568 52.8522 65.6234 53.3988C65.1034 53.9322 64.8434 54.6788 64.8434 55.6388C64.8434 56.5588 65.0834 57.3122 65.5634 57.8988C66.0568 58.4722 66.7234 58.7588 67.5634 58.7588C68.4034 58.7588 69.0701 58.4588 69.5634 57.8588C70.0701 57.2588 70.3234 56.5255 70.3234 55.6588C70.3234 54.6722 70.0434 53.9122 69.4834 53.3788C68.9234 52.8455 68.2834 52.5788 67.5634 52.5788ZM74.4108 59.7988V51.4988H79.3308V52.8188H75.8508V59.7988H74.4108ZM87.3683 58.7988C86.5416 59.6255 85.4949 60.0388 84.2283 60.0388C82.9616 60.0388 81.9083 59.6255 81.0683 58.7988C80.2416 57.9722 79.8283 56.9322 79.8283 55.6788C79.8283 54.4122 80.2416 53.3655 81.0683 52.5388C81.9083 51.7122 82.9616 51.2988 84.2283 51.2988C85.4949 51.2988 86.5416 51.7122 87.3683 52.5388C88.2083 53.3655 88.6283 54.4122 88.6283 55.6788C88.6283 56.9322 88.2083 57.9722 87.3683 58.7988ZM86.2883 53.3988C85.7283 52.8522 85.0416 52.5788 84.2283 52.5788C83.4149 52.5788 82.7216 52.8588 82.1483 53.4188C81.5883 53.9655 81.3083 54.7188 81.3083 55.6788C81.3083 56.6388 81.5949 57.3922 82.1683 57.9388C82.7416 58.4855 83.4283 58.7588 84.2283 58.7588C85.0283 58.7588 85.7149 58.4855 86.2883 57.9388C86.8616 57.3922 87.1483 56.6388 87.1483 55.6788C87.1483 54.7055 86.8616 53.9455 86.2883 53.3988ZM97.1166 51.4988V59.7988H95.6766V52.8188H92.7166V56.5588C92.7166 57.6388 92.5032 58.4388 92.0766 58.9588C91.5966 59.5455 90.9299 59.8388 90.0766 59.8388C89.9699 59.8388 89.8232 59.8255 89.6366 59.7988V58.4788C89.7699 58.5055 89.8766 58.5188 89.9566 58.5188C90.4232 58.5188 90.7699 58.3388 90.9966 57.9788C91.1832 57.6855 91.2766 57.2122 91.2766 56.5588V51.4988H97.1166ZM106.86 58.7988C106.034 59.6255 104.987 60.0388 103.72 60.0388C102.454 60.0388 101.4 59.6255 100.56 58.7988C99.7338 57.9722 99.3205 56.9322 99.3205 55.6788C99.3205 54.4122 99.7338 53.3655 100.56 52.5388C101.4 51.7122 102.454 51.2988 103.72 51.2988C104.987 51.2988 106.034 51.7122 106.86 52.5388C107.7 53.3655 108.12 54.4122 108.12 55.6788C108.12 56.9322 107.7 57.9722 106.86 58.7988ZM105.78 53.3988C105.22 52.8522 104.534 52.5788 103.72 52.5788C102.907 52.5788 102.214 52.8588 101.64 53.4188C101.08 53.9655 100.8 54.7188 100.8 55.6788C100.8 56.6388 101.087 57.3922 101.66 57.9388C102.234 58.4855 102.92 58.7588 103.72 58.7588C104.52 58.7588 105.207 58.4855 105.78 57.9388C106.354 57.3922 106.64 56.6388 106.64 55.6788C106.64 54.7055 106.354 53.9455 105.78 53.3988ZM110.329 51.4988H113.469C114.229 51.4988 114.809 51.6588 115.209 51.9788C115.689 52.3655 115.929 52.8855 115.929 53.5388C115.929 54.2588 115.629 54.8122 115.029 55.1988C115.442 55.3055 115.789 55.4922 116.069 55.7588C116.509 56.1855 116.729 56.7188 116.729 57.3588C116.729 58.1588 116.442 58.7855 115.869 59.2388C115.375 59.6122 114.722 59.7988 113.909 59.7988H110.329V51.4988ZM111.769 54.8788H113.289C113.675 54.8788 113.982 54.7988 114.209 54.6388C114.475 54.4388 114.609 54.1522 114.609 53.7788C114.609 53.4455 114.475 53.1788 114.209 52.9788C114.009 52.8455 113.622 52.7788 113.049 52.7788H111.769V54.8788ZM111.769 58.5188H113.549C114.162 58.5188 114.595 58.4255 114.849 58.2388C115.169 57.9988 115.329 57.6922 115.329 57.3188C115.329 56.9188 115.189 56.6055 114.909 56.3788C114.655 56.1788 114.222 56.0788 113.609 56.0788H111.769V58.5188ZM125.943 58.7988C125.116 59.6255 124.069 60.0388 122.803 60.0388C121.536 60.0388 120.483 59.6255 119.643 58.7988C118.816 57.9722 118.403 56.9322 118.403 55.6788C118.403 54.4122 118.816 53.3655 119.643 52.5388C120.483 51.7122 121.536 51.2988 122.803 51.2988C124.069 51.2988 125.116 51.7122 125.943 52.5388C126.783 53.3655 127.203 54.4122 127.203 55.6788C127.203 56.9322 126.783 57.9722 125.943 58.7988ZM124.863 53.3988C124.303 52.8522 123.616 52.5788 122.803 52.5788C121.989 52.5788 121.296 52.8588 120.723 53.4188C120.163 53.9655 119.883 54.7188 119.883 55.6788C119.883 56.6388 120.169 57.3922 120.743 57.9388C121.316 58.4855 122.003 58.7588 122.803 58.7588C123.603 58.7588 124.289 58.4855 124.863 57.9388C125.436 57.3922 125.723 56.6388 125.723 55.6788C125.723 54.7055 125.436 53.9455 124.863 53.3988ZM129.411 51.4988H130.851V54.8988L134.211 51.4988H135.971L132.371 55.1988L136.411 59.7988H134.531L131.291 56.1588L130.851 56.5788V59.7988H129.411V51.4988ZM149.016 52.0988V53.8188C148.363 52.9922 147.496 52.5788 146.416 52.5788C145.603 52.5788 144.91 52.8588 144.336 53.4188C143.763 53.9655 143.476 54.7188 143.476 55.6788C143.476 56.6388 143.763 57.3922 144.336 57.9388C144.91 58.4855 145.596 58.7588 146.396 58.7588C147.463 58.7588 148.356 58.3255 149.076 57.4588V59.1788C148.29 59.7522 147.41 60.0388 146.436 60.0388C145.143 60.0388 144.076 59.6322 143.236 58.8188C142.41 57.9922 141.996 56.9522 141.996 55.6988C141.996 54.4322 142.416 53.3855 143.256 52.5588C144.096 51.7188 145.156 51.2988 146.436 51.2988C147.396 51.2988 148.256 51.5655 149.016 52.0988ZM151.286 51.4988H157.966V59.7988H156.526V52.8188H152.726V59.7988H151.286V51.4988ZM160.68 51.4988H162.12V56.9788L167.8 50.8588V59.7988H166.36V54.2588L160.68 60.3788V51.4988ZM177.024 52.0988V53.8188C176.371 52.9922 175.504 52.5788 174.424 52.5788C173.611 52.5788 172.917 52.8588 172.344 53.4188C171.771 53.9655 171.484 54.7188 171.484 55.6788C171.484 56.6388 171.771 57.3922 172.344 57.9388C172.917 58.4855 173.604 58.7588 174.404 58.7588C175.471 58.7588 176.364 58.3255 177.084 57.4588V59.1788C176.297 59.7522 175.417 60.0388 174.444 60.0388C173.151 60.0388 172.084 59.6322 171.244 58.8188C170.417 57.9922 170.004 56.9522 170.004 55.6988C170.004 54.4322 170.424 53.3855 171.264 52.5588C172.104 51.7188 173.164 51.2988 174.444 51.2988C175.404 51.2988 176.264 51.5655 177.024 52.0988ZM179.294 51.4988H180.734V54.8988L184.094 51.4988H185.854L182.254 55.1988L186.294 59.7988H184.414L181.174 56.1588L180.734 56.5788V59.7988H179.294V51.4988ZM194.091 52.6788V51.4988H195.531V59.7988H194.091V58.6388C193.371 59.5722 192.424 60.0388 191.251 60.0388C190.131 60.0388 189.178 59.6522 188.391 58.8788C187.604 58.1055 187.211 57.0255 187.211 55.6388C187.211 54.2788 187.598 53.2188 188.371 52.4588C189.158 51.6855 190.118 51.2988 191.251 51.2988C192.451 51.2988 193.398 51.7588 194.091 52.6788ZM191.411 52.5788C190.651 52.5788 190.004 52.8522 189.471 53.3988C188.951 53.9322 188.691 54.6788 188.691 55.6388C188.691 56.5588 188.931 57.3122 189.411 57.8988C189.904 58.4722 190.571 58.7588 191.411 58.7588C192.251 58.7588 192.918 58.4588 193.411 57.8588C193.918 57.2588 194.171 56.5255 194.171 55.6588C194.171 54.6722 193.891 53.9122 193.331 53.3788C192.771 52.8455 192.131 52.5788 191.411 52.5788ZM198.478 52.9988C198.278 52.7988 198.178 52.5655 198.178 52.2988C198.178 52.0322 198.278 51.7988 198.478 51.5988C198.678 51.3988 198.912 51.2988 199.178 51.2988C199.445 51.2988 199.678 51.3988 199.878 51.5988C200.078 51.7988 200.178 52.0322 200.178 52.2988C200.178 52.5655 200.078 52.7988 199.878 52.9988C199.678 53.1988 199.445 53.2988 199.178 53.2988C198.912 53.2988 198.678 53.1988 198.478 52.9988ZM198.478 59.7388C198.278 59.5388 198.178 59.3055 198.178 59.0388C198.178 58.7722 198.278 58.5388 198.478 58.3388C198.678 58.1388 198.912 58.0388 199.178 58.0388C199.445 58.0388 199.678 58.1388 199.878 58.3388C200.078 58.5388 200.178 58.7722 200.178 59.0388C200.178 59.3055 200.078 59.5388 199.878 59.7388C199.678 59.9388 199.445 60.0388 199.178 60.0388C198.912 60.0388 198.678 59.9388 198.478 59.7388Z" fill="#0B1530"/>
<path d="M52.4 100.179V98.8988H65.6V100.179H52.4Z" fill="#0B1530"/>
<path d="M78.36 103.799V95.4988H79.8V98.8988H83.72V95.4988H85.16V103.799H83.72V100.219H79.8V103.799H78.36ZM94.0317 101.019L95.2317 101.679C94.9517 102.212 94.6117 102.659 94.2117 103.019C93.4517 103.699 92.5317 104.039 91.4517 104.039C90.3317 104.039 89.3651 103.679 88.5517 102.959C87.7517 102.225 87.3517 101.139 87.3517 99.6988C87.3517 98.4322 87.7117 97.3855 88.4317 96.5588C89.1651 95.7188 90.1451 95.2988 91.3717 95.2988C92.7584 95.2988 93.8051 95.8055 94.5117 96.8188C95.0717 97.6188 95.3317 98.6588 95.2917 99.9388H88.8317C88.8451 100.779 89.1051 101.459 89.6117 101.979C90.1184 102.499 90.7384 102.759 91.4717 102.759C92.1251 102.759 92.6917 102.559 93.1717 102.159C93.5451 101.839 93.8317 101.459 94.0317 101.019ZM88.9317 98.7388H93.8117C93.6917 98.0855 93.4051 97.5655 92.9517 97.1788C92.5117 96.7788 91.9851 96.5788 91.3717 96.5788C90.7717 96.5788 90.2384 96.7855 89.7717 97.1988C89.3184 97.5988 89.0384 98.1122 88.9317 98.7388ZM96.5406 103.799L98.5406 94.8588L101.981 101.619L105.341 94.8588L107.341 103.799H105.861L104.761 98.6588L101.941 104.379L99.0806 98.6588L98.0206 103.799H96.5406ZM115.462 96.6788V95.4988H116.902V103.799H115.462V102.639C114.742 103.572 113.796 104.039 112.622 104.039C111.502 104.039 110.549 103.652 109.762 102.879C108.976 102.105 108.582 101.025 108.582 99.6388C108.582 98.2788 108.969 97.2188 109.742 96.4588C110.529 95.6855 111.489 95.2988 112.622 95.2988C113.822 95.2988 114.769 95.7588 115.462 96.6788ZM112.782 96.5788C112.022 96.5788 111.376 96.8522 110.842 97.3988C110.322 97.9322 110.062 98.6788 110.062 99.6388C110.062 100.559 110.302 101.312 110.782 101.899C111.276 102.472 111.942 102.759 112.782 102.759C113.622 102.759 114.289 102.459 114.782 101.859C115.289 101.259 115.542 100.525 115.542 99.6588C115.542 98.6722 115.262 97.9122 114.702 97.3788C114.142 96.8455 113.502 96.5788 112.782 96.5788ZM121.07 102.639V108.399H119.63V95.4988H121.07V96.6588C121.803 95.7522 122.75 95.2988 123.91 95.2988C125.15 95.2988 126.13 95.7388 126.85 96.6188C127.583 97.4855 127.95 98.5122 127.95 99.6988C127.95 100.899 127.59 101.925 126.87 102.779C126.15 103.619 125.183 104.039 123.97 104.039C122.756 104.039 121.79 103.572 121.07 102.639ZM123.77 102.759C124.583 102.759 125.236 102.465 125.73 101.879C126.223 101.279 126.47 100.552 126.47 99.6988C126.47 98.7388 126.196 97.9788 125.65 97.4188C125.103 96.8588 124.47 96.5788 123.75 96.5788C123.03 96.5788 122.39 96.8588 121.83 97.4188C121.27 97.9788 120.99 98.7322 120.99 99.6788C120.99 100.545 121.243 101.279 121.75 101.879C122.27 102.465 122.943 102.759 123.77 102.759ZM130.157 95.4988H131.597V98.8988L134.957 95.4988H136.717L133.117 99.1988L137.157 103.799H135.277L132.037 100.159L131.597 100.579V103.799H130.157V95.4988ZM138.594 95.4988H140.034V100.979L145.714 94.8588V103.799H144.274V98.2588L138.594 104.379V95.4988ZM149.878 102.639V108.399H148.438V95.4988H149.878V96.6588C150.611 95.7522 151.558 95.2988 152.718 95.2988C153.958 95.2988 154.938 95.7388 155.658 96.6188C156.391 97.4855 156.758 98.5122 156.758 99.6988C156.758 100.899 156.398 101.925 155.678 102.779C154.958 103.619 153.991 104.039 152.778 104.039C151.565 104.039 150.598 103.572 149.878 102.639ZM152.578 102.759C153.391 102.759 154.045 102.465 154.538 101.879C155.031 101.279 155.278 100.552 155.278 99.6988C155.278 98.7388 155.005 97.9788 154.458 97.4188C153.911 96.8588 153.278 96.5788 152.558 96.5788C151.838 96.5788 151.198 96.8588 150.638 97.4188C150.078 97.9788 149.798 98.7322 149.798 99.6788C149.798 100.545 150.051 101.279 150.558 101.879C151.078 102.465 151.751 102.759 152.578 102.759ZM165.985 102.799C165.159 103.625 164.112 104.039 162.845 104.039C161.579 104.039 160.525 103.625 159.685 102.799C158.859 101.972 158.445 100.932 158.445 99.6788C158.445 98.4122 158.859 97.3655 159.685 96.5388C160.525 95.7122 161.579 95.2988 162.845 95.2988C164.112 95.2988 165.159 95.7122 165.985 96.5388C166.825 97.3655 167.245 98.4122 167.245 99.6788C167.245 100.932 166.825 101.972 165.985 102.799ZM164.905 97.3988C164.345 96.8522 163.659 96.5788 162.845 96.5788C162.032 96.5788 161.339 96.8588 160.765 97.4188C160.205 97.9655 159.925 98.7188 159.925 99.6788C159.925 100.639 160.212 101.392 160.785 101.939C161.359 102.485 162.045 102.759 162.845 102.759C163.645 102.759 164.332 102.485 164.905 101.939C165.479 101.392 165.765 100.639 165.765 99.6788C165.765 98.7055 165.479 97.9455 164.905 97.3988ZM169.454 95.4988H172.594C173.354 95.4988 173.934 95.6588 174.334 95.9788C174.814 96.3655 175.054 96.8855 175.054 97.5388C175.054 98.2588 174.754 98.8122 174.154 99.1988C174.567 99.3055 174.914 99.4922 175.194 99.7588C175.634 100.185 175.854 100.719 175.854 101.359C175.854 102.159 175.567 102.785 174.994 103.239C174.5 103.612 173.847 103.799 173.034 103.799H169.454V95.4988ZM170.894 98.8788H172.414C172.8 98.8788 173.107 98.7988 173.334 98.6388C173.6 98.4388 173.734 98.1522 173.734 97.7788C173.734 97.4455 173.6 97.1788 173.334 96.9788C173.134 96.8455 172.747 96.7788 172.174 96.7788H170.894V98.8788ZM170.894 102.519H172.674C173.287 102.519 173.72 102.425 173.974 102.239C174.294 101.999 174.454 101.692 174.454 101.319C174.454 100.919 174.314 100.605 174.034 100.379C173.78 100.179 173.347 100.079 172.734 100.079H170.894V102.519ZM184.408 96.6788V95.4988H185.848V103.799H184.408V102.639C183.688 103.572 182.741 104.039 181.568 104.039C180.448 104.039 179.494 103.652 178.708 102.879C177.921 102.105 177.528 101.025 177.528 99.6388C177.528 98.2788 177.914 97.2188 178.688 96.4588C179.474 95.6855 180.434 95.2988 181.568 95.2988C182.768 95.2988 183.714 95.7588 184.408 96.6788ZM181.728 96.5788C180.968 96.5788 180.321 96.8522 179.788 97.3988C179.268 97.9322 179.008 98.6788 179.008 99.6388C179.008 100.559 179.248 101.312 179.728 101.899C180.221 102.472 180.888 102.759 181.728 102.759C182.568 102.759 183.234 102.459 183.728 101.859C184.234 101.259 184.488 100.525 184.488 99.6588C184.488 98.6722 184.208 97.9122 183.648 97.3788C183.088 96.8455 182.448 96.5788 181.728 96.5788ZM188.575 103.799V95.4988H190.015V98.8988H193.935V95.4988H195.375V103.799H193.935V100.219H190.015V103.799H188.575ZM198.087 103.799V95.4988H199.527V98.8988H203.447V95.4988H204.887V103.799H203.447V100.219H199.527V103.799H198.087ZM207.598 103.799V95.4988H209.038V98.6788H210.518C211.665 98.6788 212.505 98.9522 213.038 99.4988C213.465 99.9255 213.678 100.505 213.678 101.239C213.678 102.012 213.432 102.632 212.938 103.099C212.445 103.565 211.632 103.799 210.498 103.799H207.598ZM209.038 102.519H210.378C210.978 102.519 211.405 102.445 211.658 102.299C212.018 102.059 212.198 101.705 212.198 101.239C212.198 100.759 212.025 100.412 211.678 100.199C211.438 100.039 211.012 99.9588 210.398 99.9588H209.038V102.519ZM214.678 103.799V95.4988H216.118V103.799H214.678ZM218.829 95.4988H220.269V100.979L225.949 94.8588V103.799H224.509V98.2588L218.829 104.379V95.4988ZM219.549 91.9188L220.749 91.4588C220.989 92.2588 221.555 92.6588 222.449 92.6588C223.342 92.6588 223.909 92.2588 224.149 91.4588L225.349 91.9188C225.135 92.5188 224.769 92.9922 224.249 93.3388C223.742 93.6855 223.142 93.8588 222.449 93.8588C221.755 93.8588 221.149 93.6855 220.629 93.3388C220.122 92.9922 219.762 92.5188 219.549 91.9188ZM239.84 96.0988V97.8188C239.187 96.9922 238.32 96.5788 237.24 96.5788C236.427 96.5788 235.734 96.8588 235.16 97.4188C234.587 97.9655 234.3 98.7188 234.3 99.6788C234.3 100.639 234.587 101.392 235.16 101.939C235.734 102.485 236.42 102.759 237.22 102.759C238.287 102.759 239.18 102.325 239.9 101.459V103.179C239.114 103.752 238.234 104.039 237.26 104.039C235.967 104.039 234.9 103.632 234.06 102.819C233.234 101.992 232.82 100.952 232.82 99.6988C232.82 98.4322 233.24 97.3855 234.08 96.5588C234.92 95.7188 235.98 95.2988 237.26 95.2988C238.22 95.2988 239.08 95.5655 239.84 96.0988ZM242.11 95.4988H248.79V103.799H247.35V96.8188H243.55V103.799H242.11V95.4988ZM251.505 95.4988H252.945V100.979L258.625 94.8588V103.799H257.185V98.2588L251.505 104.379V95.4988ZM267.848 96.0988V97.8188C267.195 96.9922 266.328 96.5788 265.248 96.5788C264.435 96.5788 263.742 96.8588 263.168 97.4188C262.595 97.9655 262.308 98.7188 262.308 99.6788C262.308 100.639 262.595 101.392 263.168 101.939C263.742 102.485 264.428 102.759 265.228 102.759C266.295 102.759 267.188 102.325 267.908 101.459V103.179C267.122 103.752 266.242 104.039 265.268 104.039C263.975 104.039 262.908 103.632 262.068 102.819C261.242 101.992 260.828 100.952 260.828 99.6988C260.828 98.4322 261.248 97.3855 262.088 96.5588C262.928 95.7188 263.988 95.2988 265.268 95.2988C266.228 95.2988 267.088 95.5655 267.848 96.0988ZM276.923 102.799C276.096 103.625 275.05 104.039 273.783 104.039C272.516 104.039 271.463 103.625 270.623 102.799C269.796 101.972 269.383 100.932 269.383 99.6788C269.383 98.4122 269.796 97.3655 270.623 96.5388C271.463 95.7122 272.516 95.2988 273.783 95.2988C275.05 95.2988 276.096 95.7122 276.923 96.5388C277.763 97.3655 278.183 98.4122 278.183 99.6788C278.183 100.932 277.763 101.972 276.923 102.799ZM275.843 97.3988C275.283 96.8522 274.596 96.5788 273.783 96.5788C272.97 96.5788 272.276 96.8588 271.703 97.4188C271.143 97.9655 270.863 98.7188 270.863 99.6788C270.863 100.639 271.15 101.392 271.723 101.939C272.296 102.485 272.983 102.759 273.783 102.759C274.583 102.759 275.27 102.485 275.843 101.939C276.416 101.392 276.703 100.639 276.703 99.6788C276.703 98.7055 276.416 97.9455 275.843 97.3988ZM280.391 95.4988H281.831V98.8988L285.191 95.4988H286.951L283.351 99.1988L287.391 103.799H285.511L282.271 100.159L281.831 100.579V103.799H280.391V95.4988ZM289.329 96.9988C289.129 96.7988 289.029 96.5655 289.029 96.2988C289.029 96.0322 289.129 95.7988 289.329 95.5988C289.529 95.3988 289.762 95.2988 290.029 95.2988C290.295 95.2988 290.529 95.3988 290.729 95.5988C290.929 95.7988 291.029 96.0322 291.029 96.2988C291.029 96.5655 290.929 96.7988 290.729 96.9988C290.529 97.1988 290.295 97.2988 290.029 97.2988C289.762 97.2988 289.529 97.1988 289.329 96.9988ZM287.949 106.459L289.589 101.839L290.909 102.319L288.889 106.839L287.949 106.459Z" fill="#0B1530"/>
<path d="M52.4 140.179V138.899H65.6V140.179H52.4Z" fill="#0B1530"/>
<path d="M78.36 143.799V135.499H79.8V138.899H83.72V135.499H85.16V143.799H83.72V140.219H79.8V143.799H78.36ZM94.0317 141.019L95.2317 141.679C94.9517 142.212 94.6117 142.659 94.2117 143.019C93.4517 143.699 92.5317 144.039 91.4517 144.039C90.3317 144.039 89.3651 143.679 88.5517 142.959C87.7517 142.225 87.3517 141.139 87.3517 139.699C87.3517 138.432 87.7117 137.385 88.4317 136.559C89.1651 135.719 90.1451 135.299 91.3717 135.299C92.7584 135.299 93.8051 135.805 94.5117 136.819C95.0717 137.619 95.3317 138.659 95.2917 139.939H88.8317C88.8451 140.779 89.1051 141.459 89.6117 141.979C90.1184 142.499 90.7384 142.759 91.4717 142.759C92.1251 142.759 92.6917 142.559 93.1717 142.159C93.5451 141.839 93.8317 141.459 94.0317 141.019ZM88.9317 138.739H93.8117C93.6917 138.085 93.4051 137.565 92.9517 137.179C92.5117 136.779 91.9851 136.579 91.3717 136.579C90.7717 136.579 90.2384 136.785 89.7717 137.199C89.3184 137.599 89.0384 138.112 88.9317 138.739ZM96.5406 143.799L98.5406 134.859L101.981 141.619L105.341 134.859L107.341 143.799H105.861L104.761 138.659L101.941 144.379L99.0806 138.659L98.0206 143.799H96.5406ZM115.462 136.679V135.499H116.902V143.799H115.462V142.639C114.742 143.572 113.796 144.039 112.622 144.039C111.502 144.039 110.549 143.652 109.762 142.879C108.976 142.105 108.582 141.025 108.582 139.639C108.582 138.279 108.969 137.219 109.742 136.459C110.529 135.685 111.489 135.299 112.622 135.299C113.822 135.299 114.769 135.759 115.462 136.679ZM112.782 136.579C112.022 136.579 111.376 136.852 110.842 137.399C110.322 137.932 110.062 138.679 110.062 139.639C110.062 140.559 110.302 141.312 110.782 141.899C111.276 142.472 111.942 142.759 112.782 142.759C113.622 142.759 114.289 142.459 114.782 141.859C115.289 141.259 115.542 140.525 115.542 139.659C115.542 138.672 115.262 137.912 114.702 137.379C114.142 136.845 113.502 136.579 112.782 136.579ZM121.07 142.639V148.399H119.63V135.499H121.07V136.659C121.803 135.752 122.75 135.299 123.91 135.299C125.15 135.299 126.13 135.739 126.85 136.619C127.583 137.485 127.95 138.512 127.95 139.699C127.95 140.899 127.59 141.925 126.87 142.779C126.15 143.619 125.183 144.039 123.97 144.039C122.756 144.039 121.79 143.572 121.07 142.639ZM123.77 142.759C124.583 142.759 125.236 142.465 125.73 141.879C126.223 141.279 126.47 140.552 126.47 139.699C126.47 138.739 126.196 137.979 125.65 137.419C125.103 136.859 124.47 136.579 123.75 136.579C123.03 136.579 122.39 136.859 121.83 137.419C121.27 137.979 120.99 138.732 120.99 139.679C120.99 140.545 121.243 141.279 121.75 141.879C122.27 142.465 122.943 142.759 123.77 142.759ZM130.157 135.499H131.597V138.899L134.957 135.499H136.717L133.117 139.199L137.157 143.799H135.277L132.037 140.159L131.597 140.579V143.799H130.157V135.499ZM138.594 135.499H140.034V140.979L145.714 134.859V143.799H144.274V138.259L138.594 144.379V135.499ZM149.878 142.639V148.399H148.438V135.499H149.878V136.659C150.611 135.752 151.558 135.299 152.718 135.299C153.958 135.299 154.938 135.739 155.658 136.619C156.391 137.485 156.758 138.512 156.758 139.699C156.758 140.899 156.398 141.925 155.678 142.779C154.958 143.619 153.991 144.039 152.778 144.039C151.565 144.039 150.598 143.572 149.878 142.639ZM152.578 142.759C153.391 142.759 154.045 142.465 154.538 141.879C155.031 141.279 155.278 140.552 155.278 139.699C155.278 138.739 155.005 137.979 154.458 137.419C153.911 136.859 153.278 136.579 152.558 136.579C151.838 136.579 151.198 136.859 150.638 137.419C150.078 137.979 149.798 138.732 149.798 139.679C149.798 140.545 150.051 141.279 150.558 141.879C151.078 142.465 151.751 142.759 152.578 142.759ZM165.985 142.799C165.159 143.625 164.112 144.039 162.845 144.039C161.579 144.039 160.525 143.625 159.685 142.799C158.859 141.972 158.445 140.932 158.445 139.679C158.445 138.412 158.859 137.365 159.685 136.539C160.525 135.712 161.579 135.299 162.845 135.299C164.112 135.299 165.159 135.712 165.985 136.539C166.825 137.365 167.245 138.412 167.245 139.679C167.245 140.932 166.825 141.972 165.985 142.799ZM164.905 137.399C164.345 136.852 163.659 136.579 162.845 136.579C162.032 136.579 161.339 136.859 160.765 137.419C160.205 137.965 159.925 138.719 159.925 139.679C159.925 140.639 160.212 141.392 160.785 141.939C161.359 142.485 162.045 142.759 162.845 142.759C163.645 142.759 164.332 142.485 164.905 141.939C165.479 141.392 165.765 140.639 165.765 139.679C165.765 138.705 165.479 137.945 164.905 137.399ZM169.454 135.499H172.594C173.354 135.499 173.934 135.659 174.334 135.979C174.814 136.365 175.054 136.885 175.054 137.539C175.054 138.259 174.754 138.812 174.154 139.199C174.567 139.305 174.914 139.492 175.194 139.759C175.634 140.185 175.854 140.719 175.854 141.359C175.854 142.159 175.567 142.785 174.994 143.239C174.5 143.612 173.847 143.799 173.034 143.799H169.454V135.499ZM170.894 138.879H172.414C172.8 138.879 173.107 138.799 173.334 138.639C173.6 138.439 173.734 138.152 173.734 137.779C173.734 137.445 173.6 137.179 173.334 136.979C173.134 136.845 172.747 136.779 172.174 136.779H170.894V138.879ZM170.894 142.519H172.674C173.287 142.519 173.72 142.425 173.974 142.239C174.294 141.999 174.454 141.692 174.454 141.319C174.454 140.919 174.314 140.605 174.034 140.379C173.78 140.179 173.347 140.079 172.734 140.079H170.894V142.519ZM184.408 136.679V135.499H185.848V143.799H184.408V142.639C183.688 143.572 182.741 144.039 181.568 144.039C180.448 144.039 179.494 143.652 178.708 142.879C177.921 142.105 177.528 141.025 177.528 139.639C177.528 138.279 177.914 137.219 178.688 136.459C179.474 135.685 180.434 135.299 181.568 135.299C182.768 135.299 183.714 135.759 184.408 136.679ZM181.728 136.579C180.968 136.579 180.321 136.852 179.788 137.399C179.268 137.932 179.008 138.679 179.008 139.639C179.008 140.559 179.248 141.312 179.728 141.899C180.221 142.472 180.888 142.759 181.728 142.759C182.568 142.759 183.234 142.459 183.728 141.859C184.234 141.259 184.488 140.525 184.488 139.659C184.488 138.672 184.208 137.912 183.648 137.379C183.088 136.845 182.448 136.579 181.728 136.579ZM188.575 143.799V135.499H190.015V138.899H193.935V135.499H195.375V143.799H193.935V140.219H190.015V143.799H188.575ZM198.087 143.799V135.499H199.527V138.899H203.447V135.499H204.887V143.799H203.447V140.219H199.527V143.799H198.087ZM207.598 143.799V135.499H209.038V138.679H210.518C211.665 138.679 212.505 138.952 213.038 139.499C213.465 139.925 213.678 140.505 213.678 141.239C213.678 142.012 213.432 142.632 212.938 143.099C212.445 143.565 211.632 143.799 210.498 143.799H207.598ZM209.038 142.519H210.378C210.978 142.519 211.405 142.445 211.658 142.299C212.018 142.059 212.198 141.705 212.198 141.239C212.198 140.759 212.025 140.412 211.678 140.199C211.438 140.039 211.012 139.959 210.398 139.959H209.038V142.519ZM214.678 143.799V135.499H216.118V143.799H214.678ZM218.829 135.499H220.269V140.979L225.949 134.859V143.799H224.509V138.259L218.829 144.379V135.499ZM219.549 131.919L220.749 131.459C220.989 132.259 221.555 132.659 222.449 132.659C223.342 132.659 223.909 132.259 224.149 131.459L225.349 131.919C225.135 132.519 224.769 132.992 224.249 133.339C223.742 133.685 223.142 133.859 222.449 133.859C221.755 133.859 221.149 133.685 220.629 133.339C220.122 132.992 219.762 132.519 219.549 131.919ZM239.84 136.099V137.819C239.187 136.992 238.32 136.579 237.24 136.579C236.427 136.579 235.734 136.859 235.16 137.419C234.587 137.965 234.3 138.719 234.3 139.679C234.3 140.639 234.587 141.392 235.16 141.939C235.734 142.485 236.42 142.759 237.22 142.759C238.287 142.759 239.18 142.325 239.9 141.459V143.179C239.114 143.752 238.234 144.039 237.26 144.039C235.967 144.039 234.9 143.632 234.06 142.819C233.234 141.992 232.82 140.952 232.82 139.699C232.82 138.432 233.24 137.385 234.08 136.559C234.92 135.719 235.98 135.299 237.26 135.299C238.22 135.299 239.08 135.565 239.84 136.099ZM242.11 135.499H248.79V143.799H247.35V136.819H243.55V143.799H242.11V135.499ZM251.505 135.499H252.945V140.979L258.625 134.859V143.799H257.185V138.259L251.505 144.379V135.499ZM267.848 136.099V137.819C267.195 136.992 266.328 136.579 265.248 136.579C264.435 136.579 263.742 136.859 263.168 137.419C262.595 137.965 262.308 138.719 262.308 139.679C262.308 140.639 262.595 141.392 263.168 141.939C263.742 142.485 264.428 142.759 265.228 142.759C266.295 142.759 267.188 142.325 267.908 141.459V143.179C267.122 143.752 266.242 144.039 265.268 144.039C263.975 144.039 262.908 143.632 262.068 142.819C261.242 141.992 260.828 140.952 260.828 139.699C260.828 138.432 261.248 137.385 262.088 136.559C262.928 135.719 263.988 135.299 265.268 135.299C266.228 135.299 267.088 135.565 267.848 136.099ZM276.923 142.799C276.096 143.625 275.05 144.039 273.783 144.039C272.516 144.039 271.463 143.625 270.623 142.799C269.796 141.972 269.383 140.932 269.383 139.679C269.383 138.412 269.796 137.365 270.623 136.539C271.463 135.712 272.516 135.299 273.783 135.299C275.05 135.299 276.096 135.712 276.923 136.539C277.763 137.365 278.183 138.412 278.183 139.679C278.183 140.932 277.763 141.972 276.923 142.799ZM275.843 137.399C275.283 136.852 274.596 136.579 273.783 136.579C272.97 136.579 272.276 136.859 271.703 137.419C271.143 137.965 270.863 138.719 270.863 139.679C270.863 140.639 271.15 141.392 271.723 141.939C272.296 142.485 272.983 142.759 273.783 142.759C274.583 142.759 275.27 142.485 275.843 141.939C276.416 141.392 276.703 140.639 276.703 139.679C276.703 138.705 276.416 137.945 275.843 137.399ZM280.391 135.499H281.831V138.899L285.191 135.499H286.951L283.351 139.199L287.391 143.799H285.511L282.271 140.159L281.831 140.579V143.799H280.391V135.499ZM289.049 143.699C288.849 143.499 288.749 143.265 288.749 142.999C288.749 142.732 288.849 142.499 289.049 142.299C289.249 142.099 289.482 141.999 289.749 141.999C290.015 141.999 290.249 142.099 290.449 142.299C290.649 142.499 290.749 142.732 290.749 142.999C290.749 143.265 290.649 143.499 290.449 143.699C290.249 143.899 290.015 143.999 289.749 143.999C289.482 143.999 289.249 143.899 289.049 143.699Z" fill="#0B1530"/>
<mask id="path-7-inside-1_808_2866" fill="white">
<path d="M298 64.7988H310V84.7988H298V64.7988Z"/>
</mask>
<path d="M310 64.7988H312V62.7988H310V64.7988ZM310 84.7988V86.7988H312V84.7988H310ZM298 66.7988H310V62.7988H298V66.7988ZM308 64.7988V84.7988H312V64.7988H308ZM310 82.7988H298V86.7988H310V82.7988Z" fill="#33F7C3" mask="url(#path-7-inside-1_808_2866)"/>
<rect x="320.75" y="64.5492" width="43.9061" height="20.7027" rx="3.75176" fill="#33F7C3"/>
<rect x="320.75" y="64.5492" width="43.9061" height="20.7027" rx="3.75176" stroke="#33F7C3" stroke-width="1.5007"/>
<path d="M327.911 79.4004V78.0702L331.019 75.1925C331.284 74.9367 331.505 74.7064 331.684 74.5018C331.866 74.2971 332.004 74.0968 332.098 73.9007C332.192 73.7017 332.239 73.4871 332.239 73.2569C332.239 73.0011 332.18 72.7808 332.064 72.5961C331.947 72.4085 331.788 72.2649 331.586 72.1655C331.385 72.0631 331.156 72.012 330.9 72.012C330.633 72.012 330.4 72.066 330.201 72.174C330.002 72.282 329.848 72.4369 329.74 72.6387C329.632 72.8405 329.578 73.0807 329.578 73.3592H327.826C327.826 72.7879 327.955 72.2919 328.214 71.8713C328.473 71.4506 328.835 71.1252 329.301 70.895C329.767 70.6648 330.304 70.5497 330.913 70.5497C331.538 70.5497 332.082 70.6605 332.546 70.8822C333.012 71.101 333.374 71.4052 333.633 71.7946C333.891 72.1839 334.021 72.6302 334.021 73.1332C334.021 73.4629 333.955 73.7884 333.825 74.1096C333.697 74.4307 333.468 74.7874 333.138 75.1797C332.809 75.569 332.344 76.0366 331.744 76.5823L330.469 77.8315V77.8912H334.136V79.4004H327.911ZM338.897 79.5922C338.164 79.5894 337.533 79.4089 337.004 79.0508C336.478 78.6927 336.073 78.174 335.789 77.4947C335.508 76.8154 335.368 75.9982 335.371 75.0432C335.371 74.0911 335.512 73.2796 335.793 72.6089C336.077 71.9381 336.482 71.4279 337.008 71.0783C337.537 70.7259 338.166 70.5497 338.897 70.5497C339.627 70.5497 340.256 70.7259 340.781 71.0783C341.31 71.4307 341.716 71.9423 342.001 72.6131C342.285 73.281 342.426 74.0911 342.423 75.0432C342.423 76.0011 342.281 76.8196 341.996 77.4989C341.715 78.1782 341.311 78.6969 340.786 79.0551C340.26 79.4132 339.63 79.5922 338.897 79.5922ZM338.897 78.0617C339.397 78.0617 339.797 77.8102 340.095 77.3071C340.393 76.804 340.541 76.0494 340.538 75.0432C340.538 74.381 340.47 73.8296 340.334 73.3891C340.2 72.9485 340.01 72.6174 339.762 72.3957C339.518 72.174 339.229 72.0631 338.897 72.0631C338.4 72.0631 338.002 72.3118 337.703 72.8092C337.405 73.3066 337.254 74.0513 337.251 75.0432C337.251 75.714 337.318 76.2739 337.452 76.723C337.588 77.1692 337.78 77.5046 338.027 77.7292C338.274 77.9508 338.564 78.0617 338.897 78.0617ZM343.756 81.8561V72.8519H345.547V73.9518H345.628C345.707 73.7756 345.822 73.5965 345.973 73.4146C346.127 73.2299 346.326 73.0764 346.57 72.9542C346.817 72.8291 347.124 72.7666 347.491 72.7666C347.968 72.7666 348.409 72.8917 348.812 73.1418C349.216 73.3891 349.539 73.7628 349.78 74.263C350.022 74.7604 350.143 75.3843 350.143 76.1347C350.143 76.8651 350.025 77.4819 349.789 77.985C349.556 78.4852 349.237 78.8646 348.834 79.1233C348.433 79.3791 347.984 79.507 347.487 79.507C347.134 79.507 346.834 79.4487 346.587 79.3322C346.343 79.2156 346.142 79.0693 345.986 78.8931C345.83 78.714 345.71 78.5335 345.628 78.3516H345.572V81.8561H343.756ZM345.534 76.1261C345.534 76.5155 345.588 76.8552 345.696 77.1451C345.804 77.435 345.96 77.6609 346.165 77.8229C346.37 77.9821 346.618 78.0617 346.911 78.0617C347.207 78.0617 347.457 77.9807 347.661 77.8187C347.866 77.6538 348.021 77.4265 348.126 77.1365C348.234 76.8438 348.288 76.507 348.288 76.1261C348.288 75.7481 348.235 75.4156 348.13 75.1285C348.025 74.8414 347.87 74.6169 347.666 74.4549C347.461 74.2929 347.209 74.2119 346.911 74.2119C346.615 74.2119 346.365 74.29 346.161 74.4464C345.959 74.6027 345.804 74.8244 345.696 75.1114C345.588 75.3985 345.534 75.7367 345.534 76.1261ZM352.637 72.8519L353.839 75.1413L355.071 72.8519H356.934L355.037 76.1261L356.985 79.4004H355.131L353.839 77.1365L352.568 79.4004H350.693L352.637 76.1261L350.761 72.8519H352.637Z" fill="#0B1530"/>
</svg>
