<svg width="1032" height="414" viewBox="0 0 1032 414" fill="none" xmlns="http://www.w3.org/2000/svg">
<rect width="1032" height="413.22" rx="24" fill="#F5F6F8"/>
<path d="M43.892 57.324H58.004V72.248H60.244V80.2H55.876V76H44.508V80.2H40.14V72.248C40.9613 72.1173 41.6707 71.744 42.268 71.128C42.9213 70.456 43.3507 69.644 43.556 68.692C43.78 67.7213 43.892 66.4893 43.892 64.996V57.324ZM48.596 61.076V65.472C48.596 67.0213 48.4467 68.328 48.148 69.392C47.8307 70.512 47.2893 71.464 46.524 72.248H53.132V61.076H48.596ZM75.6206 70.092V70.568H66.2966C66.2966 71.4453 66.5579 72.1453 67.0806 72.668C67.4913 73.0787 68.1073 73.284 68.9286 73.284C69.4886 73.284 69.9739 73.172 70.3846 72.948C70.7393 72.7427 71.0006 72.4627 71.1686 72.108H75.4526C75.1726 73.116 74.6686 73.9747 73.9406 74.684C72.7459 75.8413 71.0473 76.42 68.8446 76.42C66.6606 76.42 64.9339 75.7853 63.6646 74.516C62.4326 73.284 61.8166 71.7067 61.8166 69.784C61.8166 67.768 62.4419 66.1533 63.6926 64.94C64.9433 63.7267 66.6513 63.12 68.8166 63.12C70.8139 63.12 72.4193 63.6893 73.6326 64.828C74.9579 66.0973 75.6206 67.852 75.6206 70.092ZM66.4366 67.992H71.5046C71.3739 67.4507 71.1313 67.0027 70.7766 66.648C70.3286 66.2 69.7126 65.976 68.9286 65.976C68.1633 65.976 67.5566 66.2 67.1086 66.648C66.7353 67.0587 66.5113 67.5067 66.4366 67.992ZM87.672 71.968V75.72C86.72 76.1867 85.684 76.42 84.564 76.42C82.5853 76.42 80.9426 75.7853 79.636 74.516C78.348 73.2653 77.704 71.7067 77.704 69.84C77.704 67.9173 78.376 66.3027 79.72 64.996C81.0453 63.7267 82.7253 63.092 84.76 63.092C85.768 63.092 86.7386 63.3253 87.672 63.792V67.544C86.9066 67.0027 86.132 66.732 85.348 66.732C84.4706 66.732 83.7426 67.0213 83.164 67.6C82.5853 68.1787 82.296 68.8973 82.296 69.756C82.296 70.5773 82.5573 71.2773 83.08 71.856C83.6773 72.4907 84.4426 72.808 85.376 72.808C86.2533 72.808 87.0186 72.528 87.672 71.968ZM90.2119 76V63.484H94.6919V68.608L98.4719 63.484H104.1L98.9199 69.364L104.576 76H98.7799L94.6919 70.456V76H90.2119ZM108.141 76V67.152H104.893V63.484H115.869V67.152H112.621V76H108.141ZM124.72 66.872C123.955 66.872 123.283 67.1427 122.704 67.684C122.126 68.2253 121.836 68.9067 121.836 69.728C121.836 70.4747 122.126 71.1373 122.704 71.716C123.264 72.276 123.936 72.556 124.72 72.556C125.486 72.556 126.148 72.276 126.708 71.716C127.287 71.1747 127.576 70.512 127.576 69.728C127.576 68.944 127.287 68.2627 126.708 67.684C126.13 67.1427 125.467 66.872 124.72 66.872ZM130.292 65.136C131.58 66.3867 132.224 67.9173 132.224 69.728C132.224 71.5387 131.58 73.0787 130.292 74.348C128.892 75.7293 127.026 76.42 124.692 76.42C122.378 76.42 120.52 75.7293 119.12 74.348C117.832 73.0787 117.188 71.5387 117.188 69.728C117.188 67.9173 117.832 66.3867 119.12 65.136C120.539 63.7547 122.396 63.064 124.692 63.064C126.97 63.064 128.836 63.7547 130.292 65.136ZM134.81 76V63.484H147.774V76H143.294V67.012H139.29V76H134.81ZM150.86 76V63.484H155.34V67.712H159.512V63.484H163.992V76H159.512V71.24H155.34V76H150.86ZM176.763 64.688V63.484H181.243V76H176.763V74.628C175.904 75.8227 174.607 76.42 172.871 76.42C171.116 76.42 169.614 75.7573 168.363 74.432C167.168 73.1627 166.571 71.632 166.571 69.84C166.571 67.7867 167.215 66.116 168.503 64.828C169.679 63.652 171.182 63.064 173.011 63.064C174.542 63.064 175.792 63.6053 176.763 64.688ZM174.019 66.872C173.272 66.872 172.619 67.1427 172.059 67.684C171.462 68.2627 171.163 68.944 171.163 69.728C171.163 70.5493 171.452 71.2307 172.031 71.772C172.628 72.332 173.3 72.612 174.047 72.612C174.812 72.612 175.484 72.3227 176.063 71.744C176.623 71.184 176.903 70.512 176.903 69.728C176.903 68.9253 176.614 68.244 176.035 67.684C175.456 67.1427 174.784 66.872 174.019 66.872ZM183.573 76L187.045 71.632C186.186 71.464 185.458 71.1 184.861 70.54C184.208 69.8867 183.881 68.9907 183.881 67.852C183.881 66.6013 184.254 65.584 185.001 64.8C185.822 63.9227 187.241 63.484 189.257 63.484H195.865V76H191.385V72.024H191.021L188.277 76H183.573ZM191.385 69.28V66.396H190.041C189.388 66.396 188.921 66.5267 188.641 66.788C188.38 67.0493 188.249 67.404 188.249 67.852C188.249 68.3187 188.389 68.6733 188.669 68.916C188.968 69.1587 189.406 69.28 189.985 69.28H191.385ZM205.493 63.484H213.165C214.658 63.484 215.722 63.7827 216.357 64.38C216.936 64.9213 217.225 65.6493 217.225 66.564C217.225 67.292 217.048 67.9173 216.693 68.44C216.394 68.8693 215.937 69.2147 215.321 69.476V69.532C216.049 69.6813 216.646 69.9707 217.113 70.4C217.71 70.9413 218.009 71.66 218.009 72.556C218.009 73.564 217.71 74.3667 217.113 74.964C216.422 75.6547 215.405 76 214.061 76H205.493V63.484ZM209.973 68.468H211.653C212.194 68.468 212.577 68.3747 212.801 68.188C213.025 67.9827 213.137 67.684 213.137 67.292C213.137 66.9373 213.034 66.676 212.829 66.508C212.605 66.3027 212.204 66.2 211.625 66.2H209.973V68.468ZM209.973 73.284H211.961C212.428 73.284 212.792 73.1627 213.053 72.92C213.296 72.6773 213.417 72.3787 213.417 72.024C213.417 71.632 213.305 71.324 213.081 71.1C212.876 70.8947 212.502 70.792 211.961 70.792H209.973V73.284ZM233.585 70.092V70.568H224.261C224.261 71.4453 224.523 72.1453 225.045 72.668C225.456 73.0787 226.072 73.284 226.893 73.284C227.453 73.284 227.939 73.172 228.349 72.948C228.704 72.7427 228.965 72.4627 229.133 72.108H233.417C233.137 73.116 232.633 73.9747 231.905 74.684C230.711 75.8413 229.012 76.42 226.809 76.42C224.625 76.42 222.899 75.7853 221.629 74.516C220.397 73.284 219.781 71.7067 219.781 69.784C219.781 67.768 220.407 66.1533 221.657 64.94C222.908 63.7267 224.616 63.12 226.781 63.12C228.779 63.12 230.384 63.6893 231.597 64.828C232.923 66.0973 233.585 67.852 233.585 70.092ZM224.401 67.992H229.469C229.339 67.4507 229.096 67.0027 228.741 66.648C228.293 66.2 227.677 65.976 226.893 65.976C226.128 65.976 225.521 66.2 225.073 66.648C224.7 67.0587 224.476 67.5067 224.401 67.992ZM240.653 74.796V82.412H236.173V63.484H240.653V64.856C241.605 63.6613 242.883 63.064 244.489 63.064C246.243 63.064 247.727 63.6707 248.941 64.884C250.21 66.1533 250.845 67.768 250.845 69.728C250.845 71.7253 250.173 73.3773 248.829 74.684C247.653 75.8413 246.225 76.42 244.545 76.42C242.995 76.42 241.698 75.8787 240.653 74.796ZM243.397 66.872C242.613 66.872 241.941 67.152 241.381 67.712C240.802 68.2907 240.513 68.9813 240.513 69.784C240.513 70.5307 240.802 71.1933 241.381 71.772C241.941 72.332 242.613 72.612 243.397 72.612C244.199 72.612 244.862 72.332 245.385 71.772C245.963 71.1933 246.253 70.5307 246.253 69.784C246.253 68.9813 245.963 68.2907 245.385 67.712C244.862 67.152 244.199 66.872 243.397 66.872ZM262.891 71.968V75.72C261.939 76.1867 260.903 76.42 259.783 76.42C257.804 76.42 256.161 75.7853 254.855 74.516C253.567 73.2653 252.923 71.7067 252.923 69.84C252.923 67.9173 253.595 66.3027 254.939 64.996C256.264 63.7267 257.944 63.092 259.979 63.092C260.987 63.092 261.957 63.3253 262.891 63.792V67.544C262.125 67.0027 261.351 66.732 260.567 66.732C259.689 66.732 258.961 67.0213 258.383 67.6C257.804 68.1787 257.515 68.8973 257.515 69.756C257.515 70.5773 257.776 71.2773 258.299 71.856C258.896 72.4907 259.661 72.808 260.595 72.808C261.472 72.808 262.237 72.528 262.891 71.968ZM265.431 63.484H269.911V69.924L274.867 63.484H278.759V76H274.279V69.392L269.379 76H265.431V63.484ZM281.081 76L284.553 71.632C283.694 71.464 282.966 71.1 282.369 70.54C281.716 69.8867 281.389 68.9907 281.389 67.852C281.389 66.6013 281.762 65.584 282.509 64.8C283.33 63.9227 284.749 63.484 286.765 63.484H293.373V76H288.893V72.024H288.529L285.785 76H281.081ZM288.893 69.28V66.396H287.549C286.896 66.396 286.429 66.5267 286.149 66.788C285.888 67.0493 285.757 67.404 285.757 67.852C285.757 68.3187 285.897 68.6733 286.177 68.916C286.476 69.1587 286.914 69.28 287.493 69.28H288.893ZM308.013 76V61.44H305.353V57.324H312.857V76H308.013ZM324.785 76H319.297L324.589 69.7C323.861 70.092 323.03 70.288 322.097 70.288C320.398 70.288 318.97 69.7187 317.813 68.58C316.562 67.348 315.937 65.8453 315.937 64.072C315.937 62.168 316.562 60.5627 317.813 59.256C319.344 57.688 321.388 56.904 323.945 56.904C326.465 56.904 328.462 57.6413 329.937 59.116C331.169 60.3853 331.785 61.9253 331.785 63.736C331.785 65.864 330.842 68.1507 328.957 70.596L324.785 76ZM324.001 60.74C323.161 60.74 322.442 61.0387 321.845 61.636C321.229 62.252 320.921 62.9613 320.921 63.764C320.921 64.548 321.22 65.22 321.817 65.78C322.414 66.34 323.142 66.62 324.001 66.62C324.822 66.62 325.522 66.3587 326.101 65.836C326.754 65.2573 327.081 64.548 327.081 63.708C327.081 62.924 326.782 62.2333 326.185 61.636C325.55 61.0387 324.822 60.74 324.001 60.74ZM347.958 71.884V76H332.978L337.71 71.044C339.409 69.2707 340.687 67.6933 341.546 66.312C342.218 65.2667 342.554 64.296 342.554 63.4C342.554 62.616 342.367 62.0187 341.994 61.608C341.658 61.2347 341.201 61.048 340.622 61.048C339.931 61.048 339.39 61.3 338.998 61.804C338.587 62.3267 338.363 63.092 338.326 64.1H333.314C333.333 62.0093 334.023 60.2827 335.386 58.92C336.73 57.576 338.494 56.904 340.678 56.904C342.899 56.904 344.654 57.548 345.942 58.836C347.155 60.0493 347.762 61.58 347.762 63.428C347.762 65.4067 346.838 67.2547 344.99 68.972L341.854 71.884H347.958ZM358.923 61.832C358.494 61.44 357.999 61.244 357.439 61.244C356.879 61.244 356.384 61.44 355.955 61.832C355.47 62.2427 355.078 62.9333 354.779 63.904C354.48 64.856 354.331 65.7893 354.331 66.704C354.331 67.544 354.471 68.4587 354.751 69.448C355.05 70.4187 355.451 71.128 355.955 71.576C356.384 71.968 356.879 72.164 357.439 72.164C357.999 72.164 358.494 71.968 358.923 71.576C359.408 71.1467 359.8 70.456 360.099 69.504C360.398 68.5333 360.547 67.6093 360.547 66.732C360.547 65.8547 360.388 64.9213 360.071 63.932C359.772 62.9427 359.39 62.2427 358.923 61.832ZM365.363 66.676C365.363 69.9427 364.439 72.4813 362.591 74.292C361.154 75.7107 359.436 76.42 357.439 76.42C355.442 76.42 353.724 75.7107 352.287 74.292C350.439 72.4813 349.515 69.9427 349.515 66.676C349.515 63.3907 350.439 60.8427 352.287 59.032C353.724 57.6133 355.442 56.904 357.439 56.904C359.436 56.904 361.154 57.6133 362.591 59.032C364.439 60.8427 365.363 63.3907 365.363 66.676Z" fill="#0B1530"/>
<path d="M42.78 105H41.26L43.48 90.92L48.6 102.18L53.82 90.9L55.9 105H54.38L53.12 95.72L48.58 105.56L44.1 95.72L42.78 105ZM65.6456 104C64.819 104.827 63.7723 105.24 62.5056 105.24C61.239 105.24 60.1856 104.827 59.3456 104C58.519 103.173 58.1056 102.133 58.1056 100.88C58.1056 99.6133 58.519 98.5667 59.3456 97.74C60.1856 96.9133 61.239 96.5 62.5056 96.5C63.7723 96.5 64.819 96.9133 65.6456 97.74C66.4856 98.5667 66.9056 99.6133 66.9056 100.88C66.9056 102.133 66.4856 103.173 65.6456 104ZM64.5656 98.6C64.0056 98.0533 63.319 97.78 62.5056 97.78C61.6923 97.78 60.999 98.06 60.4256 98.62C59.8656 99.1667 59.5856 99.92 59.5856 100.88C59.5856 101.84 59.8723 102.593 60.4456 103.14C61.019 103.687 61.7056 103.96 62.5056 103.96C63.3056 103.96 63.9923 103.687 64.5656 103.14C65.139 102.593 65.4256 101.84 65.4256 100.88C65.4256 99.9067 65.139 99.1467 64.5656 98.6ZM69.1139 105V96.7H70.5539V100.1H74.4739V96.7H75.9139V105H74.4739V101.42H70.5539V105H69.1139ZM78.6256 96.7H80.0656V102.18L85.7456 96.06V105H84.3056V99.46L78.6256 105.58V96.7ZM93.9094 98.02H91.3094V105H89.8694V98.02H87.2694V96.7H93.9094V98.02ZM102.247 104C101.421 104.827 100.374 105.24 99.1072 105.24C97.8405 105.24 96.7872 104.827 95.9472 104C95.1205 103.173 94.7072 102.133 94.7072 100.88C94.7072 99.6133 95.1205 98.5667 95.9472 97.74C96.7872 96.9133 97.8405 96.5 99.1072 96.5C100.374 96.5 101.421 96.9133 102.247 97.74C103.087 98.5667 103.507 99.6133 103.507 100.88C103.507 102.133 103.087 103.173 102.247 104ZM101.167 98.6C100.607 98.0533 99.9205 97.78 99.1072 97.78C98.2939 97.78 97.6005 98.06 97.0272 98.62C96.4672 99.1667 96.1872 99.92 96.1872 100.88C96.1872 101.84 96.4739 102.593 97.0472 103.14C97.6205 103.687 98.3072 103.96 99.1072 103.96C99.9072 103.96 100.594 103.687 101.167 103.14C101.741 102.593 102.027 101.84 102.027 100.88C102.027 99.9067 101.741 99.1467 101.167 98.6ZM107.155 103.84V109.6H105.715V96.7H107.155V97.86C107.889 96.9533 108.835 96.5 109.995 96.5C111.235 96.5 112.215 96.94 112.935 97.82C113.669 98.6867 114.035 99.7133 114.035 100.9C114.035 102.1 113.675 103.127 112.955 103.98C112.235 104.82 111.269 105.24 110.055 105.24C108.842 105.24 107.875 104.773 107.155 103.84ZM109.855 103.96C110.669 103.96 111.322 103.667 111.815 103.08C112.309 102.48 112.555 101.753 112.555 100.9C112.555 99.94 112.282 99.18 111.735 98.62C111.189 98.06 110.555 97.78 109.835 97.78C109.115 97.78 108.475 98.06 107.915 98.62C107.355 99.18 107.075 99.9333 107.075 100.88C107.075 101.747 107.329 102.48 107.835 103.08C108.355 103.667 109.029 103.96 109.855 103.96ZM116.243 105V96.7H117.683V99.88H119.163C120.309 99.88 121.149 100.153 121.683 100.7C122.109 101.127 122.323 101.707 122.323 102.44C122.323 103.213 122.076 103.833 121.583 104.3C121.089 104.767 120.276 105 119.143 105H116.243ZM117.683 103.72H119.023C119.623 103.72 120.049 103.647 120.303 103.5C120.663 103.26 120.843 102.907 120.843 102.44C120.843 101.96 120.669 101.613 120.323 101.4C120.083 101.24 119.656 101.16 119.043 101.16H117.683V103.72ZM123.323 105V96.7H124.763V105H123.323ZM126.593 107.66L128.233 103.04L129.553 103.52L127.533 108.04L126.593 107.66ZM137.63 105V96.7H139.07V100.1H142.99V96.7H144.43V105H142.99V101.42H139.07V105H137.63ZM154.161 104C153.335 104.827 152.288 105.24 151.021 105.24C149.755 105.24 148.701 104.827 147.861 104C147.035 103.173 146.621 102.133 146.621 100.88C146.621 99.6133 147.035 98.5667 147.861 97.74C148.701 96.9133 149.755 96.5 151.021 96.5C152.288 96.5 153.335 96.9133 154.161 97.74C155.001 98.5667 155.421 99.6133 155.421 100.88C155.421 102.133 155.001 103.173 154.161 104ZM153.081 98.6C152.521 98.0533 151.835 97.78 151.021 97.78C150.208 97.78 149.515 98.06 148.941 98.62C148.381 99.1667 148.101 99.92 148.101 100.88C148.101 101.84 148.388 102.593 148.961 103.14C149.535 103.687 150.221 103.96 151.021 103.96C151.821 103.96 152.508 103.687 153.081 103.14C153.655 102.593 153.941 101.84 153.941 100.88C153.941 99.9067 153.655 99.1467 153.081 98.6ZM157.61 109.6L160.25 104.22L156.43 96.7H158.07L161.01 102.64L163.71 96.7H165.31L159.21 109.6H157.61ZM172.698 98.02H170.098V105H168.658V98.02H166.058V96.7H172.698V98.02ZM180.612 91H182.212C182.065 91.4933 181.812 91.9133 181.452 92.26C181.105 92.5933 180.785 92.82 180.492 92.94C180.212 93.06 179.878 93.1667 179.492 93.26C179.425 93.2733 179.265 93.3133 179.012 93.38C178.758 93.4333 178.565 93.48 178.432 93.52C178.298 93.56 178.125 93.6133 177.912 93.68C177.698 93.7467 177.505 93.8267 177.332 93.92C177.158 94.0133 176.998 94.1133 176.852 94.22C176.345 94.6067 175.932 95.1467 175.612 95.84C175.305 96.52 175.138 97.2467 175.112 98.02H175.152C175.752 97.0067 176.758 96.5 178.172 96.5C179.412 96.5 180.438 96.92 181.252 97.76C182.078 98.6 182.492 99.64 182.492 100.88C182.492 102.133 182.072 103.173 181.232 104C180.392 104.827 179.298 105.24 177.952 105.24C176.792 105.24 175.838 104.893 175.092 104.2C174.158 103.347 173.692 101.92 173.692 99.92C173.692 96.44 174.478 94.16 176.052 93.08C176.172 93 176.298 92.9267 176.432 92.86C176.565 92.78 176.705 92.7133 176.852 92.66C177.012 92.5933 177.145 92.54 177.252 92.5C177.358 92.4467 177.505 92.4 177.692 92.36C177.892 92.3067 178.025 92.2733 178.092 92.26C178.172 92.2333 178.318 92.2 178.532 92.16C178.758 92.1067 178.898 92.0733 178.952 92.06C179.485 91.94 179.872 91.8 180.112 91.64C180.352 91.4667 180.518 91.2533 180.612 91ZM180.152 98.6C179.592 98.0533 178.905 97.78 178.092 97.78C177.278 97.78 176.585 98.06 176.012 98.62C175.452 99.1667 175.172 99.92 175.172 100.88C175.172 101.84 175.458 102.593 176.032 103.14C176.605 103.687 177.292 103.96 178.092 103.96C178.892 103.96 179.578 103.687 180.152 103.14C180.725 102.593 181.012 101.84 181.012 100.88C181.012 99.9067 180.725 99.1467 180.152 98.6ZM184.68 109.6L187.32 104.22L183.5 96.7H185.14L188.08 102.64L190.78 96.7H192.38L186.28 109.6H184.68ZM193.899 96.7H195.339V100.1L198.699 96.7H200.459L196.859 100.4L200.899 105H199.019L195.779 101.36L195.339 101.78V105H193.899V96.7ZM202.337 96.7H203.777V102.18L209.457 96.06V105H208.017V99.46L202.337 105.58V96.7ZM223.348 97.3V99.02C222.695 98.1933 221.828 97.78 220.748 97.78C219.935 97.78 219.242 98.06 218.668 98.62C218.095 99.1667 217.808 99.92 217.808 100.88C217.808 101.84 218.095 102.593 218.668 103.14C219.242 103.687 219.928 103.96 220.728 103.96C221.795 103.96 222.688 103.527 223.408 102.66V104.38C222.622 104.953 221.742 105.24 220.768 105.24C219.475 105.24 218.408 104.833 217.568 104.02C216.742 103.193 216.328 102.153 216.328 100.9C216.328 99.6333 216.748 98.5867 217.588 97.76C218.428 96.92 219.488 96.5 220.768 96.5C221.728 96.5 222.588 96.7667 223.348 97.3ZM236.686 91H238.286C238.139 91.4933 237.886 91.9133 237.526 92.26C237.179 92.5933 236.859 92.82 236.566 92.94C236.286 93.06 235.952 93.1667 235.566 93.26C235.499 93.2733 235.339 93.3133 235.086 93.38C234.832 93.4333 234.639 93.48 234.506 93.52C234.372 93.56 234.199 93.6133 233.986 93.68C233.772 93.7467 233.579 93.8267 233.406 93.92C233.232 94.0133 233.072 94.1133 232.926 94.22C232.419 94.6067 232.006 95.1467 231.686 95.84C231.379 96.52 231.212 97.2467 231.186 98.02H231.226C231.826 97.0067 232.832 96.5 234.246 96.5C235.486 96.5 236.512 96.92 237.326 97.76C238.152 98.6 238.566 99.64 238.566 100.88C238.566 102.133 238.146 103.173 237.306 104C236.466 104.827 235.372 105.24 234.026 105.24C232.866 105.24 231.912 104.893 231.166 104.2C230.232 103.347 229.766 101.92 229.766 99.92C229.766 96.44 230.552 94.16 232.126 93.08C232.246 93 232.372 92.9267 232.506 92.86C232.639 92.78 232.779 92.7133 232.926 92.66C233.086 92.5933 233.219 92.54 233.326 92.5C233.432 92.4467 233.579 92.4 233.766 92.36C233.966 92.3067 234.099 92.2733 234.166 92.26C234.246 92.2333 234.392 92.2 234.606 92.16C234.832 92.1067 234.972 92.0733 235.026 92.06C235.559 91.94 235.946 91.8 236.186 91.64C236.426 91.4667 236.592 91.2533 236.686 91ZM236.226 98.6C235.666 98.0533 234.979 97.78 234.166 97.78C233.352 97.78 232.659 98.06 232.086 98.62C231.526 99.1667 231.246 99.92 231.246 100.88C231.246 101.84 231.532 102.593 232.106 103.14C232.679 103.687 233.366 103.96 234.166 103.96C234.966 103.96 235.652 103.687 236.226 103.14C236.799 102.593 237.086 101.84 237.086 100.88C237.086 99.9067 236.799 99.1467 236.226 98.6ZM247.794 104C246.967 104.827 245.921 105.24 244.654 105.24C243.387 105.24 242.334 104.827 241.494 104C240.667 103.173 240.254 102.133 240.254 100.88C240.254 99.6133 240.667 98.5667 241.494 97.74C242.334 96.9133 243.387 96.5 244.654 96.5C245.921 96.5 246.967 96.9133 247.794 97.74C248.634 98.5667 249.054 99.6133 249.054 100.88C249.054 102.133 248.634 103.173 247.794 104ZM246.714 98.6C246.154 98.0533 245.467 97.78 244.654 97.78C243.841 97.78 243.147 98.06 242.574 98.62C242.014 99.1667 241.734 99.92 241.734 100.88C241.734 101.84 242.021 102.593 242.594 103.14C243.167 103.687 243.854 103.96 244.654 103.96C245.454 103.96 246.141 103.687 246.714 103.14C247.287 102.593 247.574 101.84 247.574 100.88C247.574 99.9067 247.287 99.1467 246.714 98.6ZM257.542 96.7V105H256.102V98.02H253.142V101.76C253.142 102.84 252.929 103.64 252.502 104.16C252.022 104.747 251.356 105.04 250.502 105.04C250.396 105.04 250.249 105.027 250.062 105V103.68C250.196 103.707 250.302 103.72 250.382 103.72C250.849 103.72 251.196 103.54 251.422 103.18C251.609 102.887 251.702 102.413 251.702 101.76V96.7H257.542ZM260.266 105V96.7H261.706V99.88H263.186C264.333 99.88 265.173 100.153 265.706 100.7C266.133 101.127 266.346 101.707 266.346 102.44C266.346 103.213 266.1 103.833 265.606 104.3C265.113 104.767 264.3 105 263.166 105H260.266ZM261.706 103.72H263.046C263.646 103.72 264.073 103.647 264.326 103.5C264.686 103.26 264.866 102.907 264.866 102.44C264.866 101.96 264.693 101.613 264.346 101.4C264.106 101.24 263.68 101.16 263.066 101.16H261.706V103.72ZM268.274 105V96.7H269.714V103.68H272.914V96.7H274.354V103.68H277.554V96.7H278.994V105H268.274ZM281.712 96.7H283.152V102.18L288.832 96.06V105H287.392V99.46L281.712 105.58V96.7ZM290.595 105L292.595 96.06L296.035 102.82L299.395 96.06L301.395 105H299.915L298.815 99.86L295.995 105.58L293.135 99.86L292.075 105H290.595ZM307.305 98.32V96.92C307.998 96.64 308.752 96.5 309.565 96.5C310.965 96.5 312.065 96.9067 312.865 97.72C313.678 98.5333 314.085 99.5933 314.085 100.9C314.085 102.167 313.672 103.207 312.845 104.02C312.032 104.833 310.972 105.24 309.665 105.24C308.838 105.24 308.052 105.087 307.305 104.78V103.38C308.038 103.767 308.818 103.96 309.645 103.96C310.418 103.96 311.085 103.727 311.645 103.26C312.205 102.78 312.525 102.16 312.605 101.4H308.225V100.12H312.605C312.445 99.3867 312.092 98.8133 311.545 98.4C310.998 97.9867 310.358 97.78 309.625 97.78C308.852 97.78 308.078 97.96 307.305 98.32ZM316.282 96.7H317.722V100.1L321.082 96.7H322.842L319.242 100.4L323.282 105H321.402L318.162 101.36L317.722 101.78V105H316.282V96.7ZM326.159 103.84V109.6H324.719V96.7H326.159V97.86C326.893 96.9533 327.839 96.5 328.999 96.5C330.239 96.5 331.219 96.94 331.939 97.82C332.673 98.6867 333.039 99.7133 333.039 100.9C333.039 102.1 332.679 103.127 331.959 103.98C331.239 104.82 330.273 105.24 329.059 105.24C327.846 105.24 326.879 104.773 326.159 103.84ZM328.859 103.96C329.673 103.96 330.326 103.667 330.819 103.08C331.313 102.48 331.559 101.753 331.559 100.9C331.559 99.94 331.286 99.18 330.739 98.62C330.193 98.06 329.559 97.78 328.839 97.78C328.119 97.78 327.479 98.06 326.919 98.62C326.359 99.18 326.079 99.9333 326.079 100.88C326.079 101.747 326.333 102.48 326.839 103.08C327.359 103.667 328.033 103.96 328.859 103.96ZM341.607 97.88V96.7H343.047V105H341.607V103.84C340.887 104.773 339.94 105.24 338.767 105.24C337.647 105.24 336.693 104.853 335.907 104.08C335.12 103.307 334.727 102.227 334.727 100.84C334.727 99.48 335.113 98.42 335.887 97.66C336.673 96.8867 337.633 96.5 338.767 96.5C339.967 96.5 340.913 96.96 341.607 97.88ZM338.927 97.78C338.167 97.78 337.52 98.0533 336.987 98.6C336.467 99.1333 336.207 99.88 336.207 100.84C336.207 101.76 336.447 102.513 336.927 103.1C337.42 103.673 338.087 103.96 338.927 103.96C339.767 103.96 340.433 103.66 340.927 103.06C341.433 102.46 341.687 101.727 341.687 100.86C341.687 99.8733 341.407 99.1133 340.847 98.58C340.287 98.0467 339.647 97.78 338.927 97.78ZM345.774 105V96.7H347.214V100.1H351.134V96.7H352.574V105H351.134V101.42H347.214V105H345.774ZM362.306 104C361.479 104.827 360.432 105.24 359.166 105.24C357.899 105.24 356.846 104.827 356.006 104C355.179 103.173 354.766 102.133 354.766 100.88C354.766 99.6133 355.179 98.5667 356.006 97.74C356.846 96.9133 357.899 96.5 359.166 96.5C360.432 96.5 361.479 96.9133 362.306 97.74C363.146 98.5667 363.566 99.6133 363.566 100.88C363.566 102.133 363.146 103.173 362.306 104ZM361.226 98.6C360.666 98.0533 359.979 97.78 359.166 97.78C358.352 97.78 357.659 98.06 357.086 98.62C356.526 99.1667 356.246 99.92 356.246 100.88C356.246 101.84 356.532 102.593 357.106 103.14C357.679 103.687 358.366 103.96 359.166 103.96C359.966 103.96 360.652 103.687 361.226 103.14C361.799 102.593 362.086 101.84 362.086 100.88C362.086 99.9067 361.799 99.1467 361.226 98.6ZM364.814 105L366.814 96.06L370.254 102.82L373.614 96.06L375.614 105H374.134L373.034 99.86L370.214 105.58L367.354 99.86L366.294 105H364.814Z" fill="#0B1530"/>
<path d="M41.72 127.66H44.14C45.66 127.66 46.78 127.973 47.5 128.6C48.3133 129.293 48.72 130.247 48.72 131.46C48.72 132.5 48.3667 133.387 47.66 134.12C46.9667 134.84 45.9133 135.2 44.5 135.2H43.2V141H41.72V127.66ZM43.2 129.06V133.8H44.42C45.3 133.8 45.9867 133.587 46.48 133.16C46.9867 132.733 47.24 132.14 47.24 131.38C47.24 129.833 46.26 129.06 44.3 129.06H43.2ZM56.4505 133.88V132.7H57.8905V141H56.4505V139.84C55.7305 140.773 54.7838 141.24 53.6105 141.24C52.4905 141.24 51.5371 140.853 50.7505 140.08C49.9638 139.307 49.5705 138.227 49.5705 136.84C49.5705 135.48 49.9571 134.42 50.7305 133.66C51.5171 132.887 52.4771 132.5 53.6105 132.5C54.8105 132.5 55.7571 132.96 56.4505 133.88ZM53.7705 133.78C53.0105 133.78 52.3638 134.053 51.8305 134.6C51.3105 135.133 51.0505 135.88 51.0505 136.84C51.0505 137.76 51.2905 138.513 51.7705 139.1C52.2638 139.673 52.9305 139.96 53.7705 139.96C54.6105 139.96 55.2771 139.66 55.7705 139.06C56.2771 138.46 56.5305 137.727 56.5305 136.86C56.5305 135.873 56.2505 135.113 55.6905 134.58C55.1305 134.047 54.4905 133.78 53.7705 133.78ZM61.6978 134.82L60.6978 134C61.0178 133.533 61.3711 133.187 61.7578 132.96C62.2778 132.653 62.8845 132.5 63.5778 132.5C64.4178 132.5 65.0711 132.693 65.5378 133.08C66.0178 133.493 66.2578 134.02 66.2578 134.66C66.2578 135.433 65.9445 136.013 65.3178 136.4C65.7178 136.493 66.0378 136.673 66.2778 136.94C66.6645 137.353 66.8578 137.86 66.8578 138.46C66.8578 139.353 66.4978 140.067 65.7778 140.6C65.1911 141.027 64.4045 141.24 63.4178 141.24C62.5378 141.24 61.7978 141.007 61.1978 140.54C60.7445 140.207 60.3778 139.733 60.0978 139.12L61.3378 138.6C61.4845 138.973 61.7311 139.287 62.0778 139.54C62.4511 139.82 62.9045 139.96 63.4378 139.96C64.0645 139.96 64.5311 139.853 64.8378 139.64C65.2245 139.387 65.4178 139 65.4178 138.48C65.4178 138.053 65.2511 137.733 64.9178 137.52C64.6378 137.333 64.1845 137.24 63.5578 137.24H62.7178V135.92H63.4178C63.9245 135.92 64.2845 135.847 64.4978 135.7C64.7911 135.513 64.9378 135.26 64.9378 134.94C64.9378 134.567 64.8178 134.28 64.5778 134.08C64.3511 133.88 63.9978 133.78 63.5178 133.78C63.1045 133.78 62.7245 133.887 62.3778 134.1C62.0845 134.287 61.8578 134.527 61.6978 134.82ZM70.4953 139.84V145.6H69.0553V132.7H70.4953V133.86C71.2286 132.953 72.1753 132.5 73.3353 132.5C74.5753 132.5 75.5553 132.94 76.2753 133.82C77.0086 134.687 77.3753 135.713 77.3753 136.9C77.3753 138.1 77.0153 139.127 76.2953 139.98C75.5753 140.82 74.6086 141.24 73.3953 141.24C72.182 141.24 71.2153 140.773 70.4953 139.84ZM73.1953 139.96C74.0086 139.96 74.662 139.667 75.1553 139.08C75.6486 138.48 75.8953 137.753 75.8953 136.9C75.8953 135.94 75.622 135.18 75.0753 134.62C74.5286 134.06 73.8953 133.78 73.1753 133.78C72.4553 133.78 71.8153 134.06 71.2553 134.62C70.6953 135.18 70.4153 135.933 70.4153 136.88C70.4153 137.747 70.6686 138.48 71.1753 139.08C71.6953 139.667 72.3686 139.96 73.1953 139.96ZM85.7427 138.22L86.9427 138.88C86.6627 139.413 86.3227 139.86 85.9227 140.22C85.1627 140.9 84.2427 141.24 83.1627 141.24C82.0427 141.24 81.076 140.88 80.2627 140.16C79.4627 139.427 79.0627 138.34 79.0627 136.9C79.0627 135.633 79.4227 134.587 80.1427 133.76C80.876 132.92 81.856 132.5 83.0827 132.5C84.4693 132.5 85.516 133.007 86.2227 134.02C86.7827 134.82 87.0427 135.86 87.0027 137.14H80.5427C80.556 137.98 80.816 138.66 81.3227 139.18C81.8293 139.7 82.4493 139.96 83.1827 139.96C83.836 139.96 84.4027 139.76 84.8827 139.36C85.256 139.04 85.5427 138.66 85.7427 138.22ZM80.6427 135.94H85.5227C85.4027 135.287 85.116 134.767 84.6627 134.38C84.2227 133.98 83.696 133.78 83.0827 133.78C82.4827 133.78 81.9493 133.987 81.4827 134.4C81.0293 134.8 80.7493 135.313 80.6427 135.94ZM89.2116 141V132.7H90.6516V139.68H93.8516V132.7H95.2916V139.68H98.4916V132.7H99.9316V141H89.2116ZM108.809 138.22L110.009 138.88C109.729 139.413 109.389 139.86 108.989 140.22C108.229 140.9 107.309 141.24 106.229 141.24C105.109 141.24 104.142 140.88 103.329 140.16C102.529 139.427 102.129 138.34 102.129 136.9C102.129 135.633 102.489 134.587 103.209 133.76C103.942 132.92 104.922 132.5 106.149 132.5C107.536 132.5 108.582 133.007 109.289 134.02C109.849 134.82 110.109 135.86 110.069 137.14H103.609C103.622 137.98 103.882 138.66 104.389 139.18C104.896 139.7 105.516 139.96 106.249 139.96C106.902 139.96 107.469 139.76 107.949 139.36C108.322 139.04 108.609 138.66 108.809 138.22ZM103.709 135.94H108.589C108.469 135.287 108.182 134.767 107.729 134.38C107.289 133.98 106.762 133.78 106.149 133.78C105.549 133.78 105.016 133.987 104.549 134.4C104.096 134.8 103.816 135.313 103.709 135.94ZM112.278 141V132.7H113.718V136.1H117.638V132.7H119.078V141H117.638V137.42H113.718V141H112.278ZM121.79 132.7H123.23V138.18L128.91 132.06V141H127.47V135.46L121.79 141.58V132.7ZM137.793 138.22L138.993 138.88C138.713 139.413 138.373 139.86 137.973 140.22C137.213 140.9 136.293 141.24 135.213 141.24C134.093 141.24 133.127 140.88 132.313 140.16C131.513 139.427 131.113 138.34 131.113 136.9C131.113 135.633 131.473 134.587 132.193 133.76C132.927 132.92 133.907 132.5 135.133 132.5C136.52 132.5 137.567 133.007 138.273 134.02C138.833 134.82 139.093 135.86 139.053 137.14H132.593C132.607 137.98 132.867 138.66 133.373 139.18C133.88 139.7 134.5 139.96 135.233 139.96C135.887 139.96 136.453 139.76 136.933 139.36C137.307 139.04 137.593 138.66 137.793 138.22ZM132.693 135.94H137.573C137.453 135.287 137.167 134.767 136.713 134.38C136.273 133.98 135.747 133.78 135.133 133.78C134.533 133.78 134 133.987 133.533 134.4C133.08 134.8 132.8 135.313 132.693 135.94ZM145.41 134.32V132.92C146.104 132.64 146.857 132.5 147.67 132.5C149.07 132.5 150.17 132.907 150.97 133.72C151.784 134.533 152.19 135.593 152.19 136.9C152.19 138.167 151.777 139.207 150.95 140.02C150.137 140.833 149.077 141.24 147.77 141.24C146.944 141.24 146.157 141.087 145.41 140.78V139.38C146.144 139.767 146.924 139.96 147.75 139.96C148.524 139.96 149.19 139.727 149.75 139.26C150.31 138.78 150.63 138.16 150.71 137.4H146.33V136.12H150.71C150.55 135.387 150.197 134.813 149.65 134.4C149.104 133.987 148.464 133.78 147.73 133.78C146.957 133.78 146.184 133.96 145.41 134.32ZM154.387 132.7H155.827V136.1L159.187 132.7H160.947L157.347 136.4L161.387 141H159.507L156.267 137.36L155.827 137.78V141H154.387V132.7ZM164.265 139.84V145.6H162.825V132.7H164.265V133.86C164.998 132.953 165.945 132.5 167.105 132.5C168.345 132.5 169.325 132.94 170.045 133.82C170.778 134.687 171.145 135.713 171.145 136.9C171.145 138.1 170.785 139.127 170.065 139.98C169.345 140.82 168.378 141.24 167.165 141.24C165.952 141.24 164.985 140.773 164.265 139.84ZM166.965 139.96C167.778 139.96 168.432 139.667 168.925 139.08C169.418 138.48 169.665 137.753 169.665 136.9C169.665 135.94 169.392 135.18 168.845 134.62C168.298 134.06 167.665 133.78 166.945 133.78C166.225 133.78 165.585 134.06 165.025 134.62C164.465 135.18 164.185 135.933 164.185 136.88C164.185 137.747 164.438 138.48 164.945 139.08C165.465 139.667 166.138 139.96 166.965 139.96ZM179.712 133.88V132.7H181.152V141H179.712V139.84C178.992 140.773 178.046 141.24 176.872 141.24C175.752 141.24 174.799 140.853 174.012 140.08C173.226 139.307 172.832 138.227 172.832 136.84C172.832 135.48 173.219 134.42 173.992 133.66C174.779 132.887 175.739 132.5 176.872 132.5C178.072 132.5 179.019 132.96 179.712 133.88ZM177.032 133.78C176.272 133.78 175.626 134.053 175.092 134.6C174.572 135.133 174.312 135.88 174.312 136.84C174.312 137.76 174.552 138.513 175.032 139.1C175.526 139.673 176.192 139.96 177.032 139.96C177.872 139.96 178.539 139.66 179.032 139.06C179.539 138.46 179.792 137.727 179.792 136.86C179.792 135.873 179.512 135.113 178.952 134.58C178.392 134.047 177.752 133.78 177.032 133.78ZM183.88 141V132.7H185.32V136.1H189.24V132.7H190.68V141H189.24V137.42H185.32V141H183.88ZM199.751 133.88V132.7H201.191V141H199.751V139.84C199.031 140.773 198.085 141.24 196.911 141.24C195.791 141.24 194.838 140.853 194.051 140.08C193.265 139.307 192.871 138.227 192.871 136.84C192.871 135.48 193.258 134.42 194.031 133.66C194.818 132.887 195.778 132.5 196.911 132.5C198.111 132.5 199.058 132.96 199.751 133.88ZM197.071 133.78C196.311 133.78 195.665 134.053 195.131 134.6C194.611 135.133 194.351 135.88 194.351 136.84C194.351 137.76 194.591 138.513 195.071 139.1C195.565 139.673 196.231 139.96 197.071 139.96C197.911 139.96 198.578 139.66 199.071 139.06C199.578 138.46 199.831 137.727 199.831 136.86C199.831 135.873 199.551 135.113 198.991 134.58C198.431 134.047 197.791 133.78 197.071 133.78ZM210.567 126.2L211.827 126.78C211.387 127.94 211.047 129.093 210.807 130.24C210.473 131.853 210.307 133.533 210.307 135.28C210.307 137.013 210.467 138.64 210.787 140.16C211.027 141.333 211.373 142.553 211.827 143.82L210.567 144.4C209.953 142.787 209.513 141.28 209.247 139.88C208.967 138.4 208.827 136.853 208.827 135.24C208.827 133.4 209.013 131.667 209.387 130.04C209.68 128.787 210.073 127.507 210.567 126.2ZM215.905 139.84V145.6H214.465V132.7H215.905V133.86C216.639 132.953 217.585 132.5 218.745 132.5C219.985 132.5 220.965 132.94 221.685 133.82C222.419 134.687 222.785 135.713 222.785 136.9C222.785 138.1 222.425 139.127 221.705 139.98C220.985 140.82 220.019 141.24 218.805 141.24C217.592 141.24 216.625 140.773 215.905 139.84ZM218.605 139.96C219.419 139.96 220.072 139.667 220.565 139.08C221.059 138.48 221.305 137.753 221.305 136.9C221.305 135.94 221.032 135.18 220.485 134.62C219.939 134.06 219.305 133.78 218.585 133.78C217.865 133.78 217.225 134.06 216.665 134.62C216.105 135.18 215.825 135.933 215.825 136.88C215.825 137.747 216.079 138.48 216.585 139.08C217.105 139.667 217.779 139.96 218.605 139.96ZM223.793 141L227.333 136.56L224.313 132.7H226.073L228.213 135.52L230.393 132.7H232.153L229.113 136.58L232.553 141H230.793L228.173 137.62L225.553 141H223.793ZM233.995 126.78L235.255 126.2C235.748 127.507 236.142 128.787 236.435 130.04C236.808 131.667 236.995 133.4 236.995 135.24C236.995 136.853 236.855 138.4 236.575 139.88C236.308 141.28 235.868 142.787 235.255 144.4L233.995 143.82C234.448 142.553 234.795 141.333 235.035 140.16C235.355 138.64 235.515 137.013 235.515 135.28C235.515 133.533 235.348 131.853 235.015 130.24C234.775 129.093 234.435 127.94 233.995 126.78Z" fill="#0B1530"/>
<path d="M44.68 167V156.6H42.78V153.66H48.14V167H44.68ZM56.66 167H52.74L56.52 162.5C56 162.78 55.4067 162.92 54.74 162.92C53.5267 162.92 52.5067 162.513 51.68 161.7C50.7867 160.82 50.34 159.747 50.34 158.48C50.34 157.12 50.7867 155.973 51.68 155.04C52.7733 153.92 54.2333 153.36 56.06 153.36C57.86 153.36 59.2867 153.887 60.34 154.94C61.22 155.847 61.66 156.947 61.66 158.24C61.66 159.76 60.9867 161.393 59.64 163.14L56.66 167ZM56.1 156.1C55.5 156.1 54.9867 156.313 54.56 156.74C54.12 157.18 53.9 157.687 53.9 158.26C53.9 158.82 54.1133 159.3 54.54 159.7C54.9667 160.1 55.4867 160.3 56.1 160.3C56.6867 160.3 57.1867 160.113 57.6 159.74C58.0667 159.327 58.3 158.82 58.3 158.22C58.3 157.66 58.0867 157.167 57.66 156.74C57.2067 156.313 56.6867 156.1 56.1 156.1ZM73.2122 164.06V167H62.5122L65.8922 163.46C67.1055 162.193 68.0189 161.067 68.6322 160.08C69.1122 159.333 69.3522 158.64 69.3522 158C69.3522 157.44 69.2189 157.013 68.9522 156.72C68.7122 156.453 68.3855 156.32 67.9722 156.32C67.4789 156.32 67.0922 156.5 66.8122 156.86C66.5189 157.233 66.3589 157.78 66.3322 158.5H62.7522C62.7655 157.007 63.2589 155.773 64.2322 154.8C65.1922 153.84 66.4522 153.36 68.0122 153.36C69.5989 153.36 70.8522 153.82 71.7722 154.74C72.6389 155.607 73.0722 156.7 73.0722 158.02C73.0722 159.433 72.4122 160.753 71.0922 161.98L68.8522 164.06H73.2122ZM81.0444 156.88C80.7377 156.6 80.3844 156.46 79.9844 156.46C79.5844 156.46 79.231 156.6 78.9244 156.88C78.5777 157.173 78.2977 157.667 78.0844 158.36C77.871 159.04 77.7644 159.707 77.7644 160.36C77.7644 160.96 77.8644 161.613 78.0644 162.32C78.2777 163.013 78.5644 163.52 78.9244 163.84C79.231 164.12 79.5844 164.26 79.9844 164.26C80.3844 164.26 80.7377 164.12 81.0444 163.84C81.391 163.533 81.671 163.04 81.8844 162.36C82.0977 161.667 82.2044 161.007 82.2044 160.38C82.2044 159.753 82.091 159.087 81.8644 158.38C81.651 157.673 81.3777 157.173 81.0444 156.88ZM85.6444 160.34C85.6444 162.673 84.9844 164.487 83.6644 165.78C82.6377 166.793 81.411 167.3 79.9844 167.3C78.5577 167.3 77.331 166.793 76.3044 165.78C74.9844 164.487 74.3244 162.673 74.3244 160.34C74.3244 157.993 74.9844 156.173 76.3044 154.88C77.331 153.867 78.5577 153.36 79.9844 153.36C81.411 153.36 82.6377 153.867 83.6644 154.88C84.9844 156.173 85.6444 157.993 85.6444 160.34Z" fill="#0B1530"/>
<path d="M272.72 141V127.66H274.2V139.6H279.48V127.66H280.96V139.6H286.24V127.66H287.72V141H272.72ZM290.798 132.7H292.238V138.18L297.918 132.06V141H296.478V135.46L290.798 141.58V132.7ZM302.081 139.84V145.6H300.641V132.7H302.081V133.86C302.815 132.953 303.761 132.5 304.921 132.5C306.161 132.5 307.141 132.94 307.861 133.82C308.595 134.687 308.961 135.713 308.961 136.9C308.961 138.1 308.601 139.127 307.881 139.98C307.161 140.82 306.195 141.24 304.981 141.24C303.768 141.24 302.801 140.773 302.081 139.84ZM304.781 139.96C305.595 139.96 306.248 139.667 306.741 139.08C307.235 138.48 307.481 137.753 307.481 136.9C307.481 135.94 307.208 135.18 306.661 134.62C306.115 134.06 305.481 133.78 304.761 133.78C304.041 133.78 303.401 134.06 302.841 134.62C302.281 135.18 302.001 135.933 302.001 136.88C302.001 137.747 302.255 138.48 302.761 139.08C303.281 139.667 303.955 139.96 304.781 139.96ZM311.169 132.7H312.609V138.18L318.289 132.06V141H316.849V135.46L311.169 141.58V132.7ZM321.012 141V132.7H322.452V136.1H326.372V132.7H327.812V141H326.372V137.42H322.452V141H321.012ZM336.884 133.88V132.7H338.324V141H336.884V139.84C336.164 140.773 335.217 141.24 334.044 141.24C332.924 141.24 331.971 140.853 331.184 140.08C330.397 139.307 330.004 138.227 330.004 136.84C330.004 135.48 330.391 134.42 331.164 133.66C331.951 132.887 332.911 132.5 334.044 132.5C335.244 132.5 336.191 132.96 336.884 133.88ZM334.204 133.78C333.444 133.78 332.797 134.053 332.264 134.6C331.744 135.133 331.484 135.88 331.484 136.84C331.484 137.76 331.724 138.513 332.204 139.1C332.697 139.673 333.364 139.96 334.204 139.96C335.044 139.96 335.711 139.66 336.204 139.06C336.711 138.46 336.964 137.727 336.964 136.86C336.964 135.873 336.684 135.113 336.124 134.58C335.564 134.047 334.924 133.78 334.204 133.78ZM345.719 132.7H347.159V136.1L350.519 132.7H352.279L348.679 136.4L352.719 141H350.839L347.599 137.36L347.159 137.78V141H345.719V132.7ZM360.786 140C359.96 140.827 358.913 141.24 357.646 141.24C356.38 141.24 355.326 140.827 354.486 140C353.66 139.173 353.246 138.133 353.246 136.88C353.246 135.613 353.66 134.567 354.486 133.74C355.326 132.913 356.38 132.5 357.646 132.5C358.913 132.5 359.96 132.913 360.786 133.74C361.626 134.567 362.046 135.613 362.046 136.88C362.046 138.133 361.626 139.173 360.786 140ZM359.706 134.6C359.146 134.053 358.46 133.78 357.646 133.78C356.833 133.78 356.14 134.06 355.566 134.62C355.006 135.167 354.726 135.92 354.726 136.88C354.726 137.84 355.013 138.593 355.586 139.14C356.16 139.687 356.846 139.96 357.646 139.96C358.446 139.96 359.133 139.687 359.706 139.14C360.28 138.593 360.566 137.84 360.566 136.88C360.566 135.907 360.28 135.147 359.706 134.6ZM370.535 132.7V141H369.095V134.02H366.135V137.76C366.135 138.84 365.921 139.64 365.495 140.16C365.015 140.747 364.348 141.04 363.495 141.04C363.388 141.04 363.241 141.027 363.055 141V139.68C363.188 139.707 363.295 139.72 363.375 139.72C363.841 139.72 364.188 139.54 364.415 139.18C364.601 138.887 364.695 138.413 364.695 137.76V132.7H370.535ZM380.278 140C379.452 140.827 378.405 141.24 377.138 141.24C375.872 141.24 374.818 140.827 373.978 140C373.152 139.173 372.738 138.133 372.738 136.88C372.738 135.613 373.152 134.567 373.978 133.74C374.818 132.913 375.872 132.5 377.138 132.5C378.405 132.5 379.452 132.913 380.278 133.74C381.118 134.567 381.538 135.613 381.538 136.88C381.538 138.133 381.118 139.173 380.278 140ZM379.198 134.6C378.638 134.053 377.952 133.78 377.138 133.78C376.325 133.78 375.632 134.06 375.058 134.62C374.498 135.167 374.218 135.92 374.218 136.88C374.218 137.84 374.505 138.593 375.078 139.14C375.652 139.687 376.338 139.96 377.138 139.96C377.938 139.96 378.625 139.687 379.198 139.14C379.772 138.593 380.058 137.84 380.058 136.88C380.058 135.907 379.772 135.147 379.198 134.6ZM383.747 141V132.7H385.187V136.1H389.107V132.7H390.547V141H389.107V137.42H385.187V141H383.747ZM393.258 132.7H394.698V136.1L398.058 132.7H399.818L396.218 136.4L400.258 141H398.378L395.138 137.36L394.698 137.78V141H393.258V132.7ZM401.696 132.7H403.136V138.18L408.816 132.06V141H407.376V135.46L401.696 141.58V132.7ZM418.188 126.2L419.448 126.78C419.008 127.94 418.668 129.093 418.428 130.24C418.094 131.853 417.928 133.533 417.928 135.28C417.928 137.013 418.088 138.64 418.408 140.16C418.648 141.333 418.994 142.553 419.448 143.82L418.188 144.4C417.574 142.787 417.134 141.28 416.868 139.88C416.588 138.4 416.448 136.853 416.448 135.24C416.448 133.4 416.634 131.667 417.008 130.04C417.301 128.787 417.694 127.507 418.188 126.2ZM423.527 139.84V145.6H422.087V132.7H423.527V133.86C424.26 132.953 425.207 132.5 426.367 132.5C427.607 132.5 428.587 132.94 429.307 133.82C430.04 134.687 430.407 135.713 430.407 136.9C430.407 138.1 430.047 139.127 429.327 139.98C428.607 140.82 427.64 141.24 426.427 141.24C425.213 141.24 424.247 140.773 423.527 139.84ZM426.227 139.96C427.04 139.96 427.693 139.667 428.187 139.08C428.68 138.48 428.927 137.753 428.927 136.9C428.927 135.94 428.653 135.18 428.107 134.62C427.56 134.06 426.927 133.78 426.207 133.78C425.487 133.78 424.847 134.06 424.287 134.62C423.727 135.18 423.447 135.933 423.447 136.88C423.447 137.747 423.7 138.48 424.207 139.08C424.727 139.667 425.4 139.96 426.227 139.96ZM431.414 141L434.954 136.56L431.934 132.7H433.694L435.834 135.52L438.014 132.7H439.774L436.734 136.58L440.174 141H438.414L435.794 137.62L433.174 141H431.414ZM441.616 126.78L442.876 126.2C443.369 127.507 443.763 128.787 444.056 130.04C444.429 131.667 444.616 133.4 444.616 135.24C444.616 136.853 444.476 138.4 444.196 139.88C443.929 141.28 443.489 142.787 442.876 144.4L441.616 143.82C442.069 142.553 442.416 141.333 442.656 140.16C442.976 138.64 443.136 137.013 443.136 135.28C443.136 133.533 442.969 131.853 442.636 130.24C442.396 129.093 442.056 127.94 441.616 126.78Z" fill="#0B1530"/>
<path d="M277.66 167H273.74L277.52 162.5C277 162.78 276.407 162.92 275.74 162.92C274.527 162.92 273.507 162.513 272.68 161.7C271.787 160.82 271.34 159.747 271.34 158.48C271.34 157.12 271.787 155.973 272.68 155.04C273.773 153.92 275.233 153.36 277.06 153.36C278.86 153.36 280.287 153.887 281.34 154.94C282.22 155.847 282.66 156.947 282.66 158.24C282.66 159.76 281.987 161.393 280.64 163.14L277.66 167ZM277.1 156.1C276.5 156.1 275.987 156.313 275.56 156.74C275.12 157.18 274.9 157.687 274.9 158.26C274.9 158.82 275.113 159.3 275.54 159.7C275.967 160.1 276.487 160.3 277.1 160.3C277.687 160.3 278.187 160.113 278.6 159.74C279.067 159.327 279.3 158.82 279.3 158.22C279.3 157.66 279.087 157.167 278.66 156.74C278.207 156.313 277.687 156.1 277.1 156.1ZM288.332 153.66H292.272L288.472 158.2C289.099 157.92 289.719 157.78 290.332 157.78C291.492 157.78 292.499 158.207 293.352 159.06C294.192 159.9 294.612 160.96 294.612 162.24C294.612 163.64 294.152 164.8 293.232 165.72C292.179 166.773 290.759 167.3 288.972 167.3C287.106 167.3 285.646 166.76 284.592 165.68C283.779 164.84 283.372 163.8 283.372 162.56C283.372 160.987 284.032 159.327 285.352 157.58L288.332 153.66ZM287.332 163.88C287.772 164.333 288.299 164.56 288.912 164.56C289.526 164.56 290.039 164.353 290.452 163.94C290.866 163.527 291.072 163.02 291.072 162.42C291.072 161.887 290.866 161.42 290.452 161.02C290.026 160.607 289.512 160.4 288.912 160.4C288.339 160.4 287.839 160.593 287.412 160.98C286.972 161.38 286.752 161.84 286.752 162.36C286.752 162.96 286.946 163.467 287.332 163.88Z" fill="#0B1530"/>
<path d="M481.78 141H480.26L482.48 126.92L487.6 138.18L492.82 126.9L494.9 141H493.38L492.12 131.72L487.58 141.56L483.1 131.72L481.78 141ZM503.786 138.22L504.986 138.88C504.706 139.413 504.366 139.86 503.966 140.22C503.206 140.9 502.286 141.24 501.206 141.24C500.086 141.24 499.119 140.88 498.306 140.16C497.506 139.427 497.106 138.34 497.106 136.9C497.106 135.633 497.466 134.587 498.186 133.76C498.919 132.92 499.899 132.5 501.126 132.5C502.512 132.5 503.559 133.007 504.266 134.02C504.826 134.82 505.086 135.86 505.046 137.14H498.586C498.599 137.98 498.859 138.66 499.366 139.18C499.872 139.7 500.492 139.96 501.226 139.96C501.879 139.96 502.446 139.76 502.926 139.36C503.299 139.04 503.586 138.66 503.786 138.22ZM498.686 135.94H503.566C503.446 135.287 503.159 134.767 502.706 134.38C502.266 133.98 501.739 133.78 501.126 133.78C500.526 133.78 499.992 133.987 499.526 134.4C499.072 134.8 498.792 135.313 498.686 135.94ZM510.939 132.7H512.379V136.1L515.499 132.7H517.179L513.579 136.54L517.539 141H515.739L512.659 137.5L512.379 137.78V141H510.939V137.78L510.659 137.5L507.579 141H505.779L509.739 136.54L506.139 132.7H507.819L510.939 136.1V132.7ZM525.278 133.3V135.02C524.625 134.193 523.758 133.78 522.678 133.78C521.865 133.78 521.171 134.06 520.598 134.62C520.025 135.167 519.738 135.92 519.738 136.88C519.738 137.84 520.025 138.593 520.598 139.14C521.171 139.687 521.858 139.96 522.658 139.96C523.725 139.96 524.618 139.527 525.338 138.66V140.38C524.551 140.953 523.671 141.24 522.698 141.24C521.405 141.24 520.338 140.833 519.498 140.02C518.671 139.193 518.258 138.153 518.258 136.9C518.258 135.633 518.678 134.587 519.518 133.76C520.358 132.92 521.418 132.5 522.698 132.5C523.658 132.5 524.518 132.767 525.278 133.3ZM532.988 134.02H530.388V141H528.948V134.02H526.348V132.7H532.988V134.02ZM535.941 139.84V145.6H534.501V132.7H535.941V133.86C536.674 132.953 537.621 132.5 538.781 132.5C540.021 132.5 541.001 132.94 541.721 133.82C542.454 134.687 542.821 135.713 542.821 136.9C542.821 138.1 542.461 139.127 541.741 139.98C541.021 140.82 540.054 141.24 538.841 141.24C537.627 141.24 536.661 140.773 535.941 139.84ZM538.641 139.96C539.454 139.96 540.107 139.667 540.601 139.08C541.094 138.48 541.341 137.753 541.341 136.9C541.341 135.94 541.067 135.18 540.521 134.62C539.974 134.06 539.341 133.78 538.621 133.78C537.901 133.78 537.261 134.06 536.701 134.62C536.141 135.18 535.861 135.933 535.861 136.88C535.861 137.747 536.114 138.48 536.621 139.08C537.141 139.667 537.814 139.96 538.641 139.96ZM552.048 140C551.221 140.827 550.175 141.24 548.908 141.24C547.641 141.24 546.588 140.827 545.748 140C544.921 139.173 544.508 138.133 544.508 136.88C544.508 135.613 544.921 134.567 545.748 133.74C546.588 132.913 547.641 132.5 548.908 132.5C550.175 132.5 551.221 132.913 552.048 133.74C552.888 134.567 553.308 135.613 553.308 136.88C553.308 138.133 552.888 139.173 552.048 140ZM550.968 134.6C550.408 134.053 549.721 133.78 548.908 133.78C548.095 133.78 547.401 134.06 546.828 134.62C546.268 135.167 545.988 135.92 545.988 136.88C545.988 137.84 546.275 138.593 546.848 139.14C547.421 139.687 548.108 139.96 548.908 139.96C549.708 139.96 550.395 139.687 550.968 139.14C551.541 138.593 551.828 137.84 551.828 136.88C551.828 135.907 551.541 135.147 550.968 134.6ZM559.956 141V137.74C559.17 137.86 558.516 137.92 557.996 137.92C557.09 137.92 556.416 137.72 555.976 137.32C555.51 136.907 555.276 136.227 555.276 135.28V132.7H556.716V135.08C556.716 135.533 556.776 135.86 556.896 136.06C557.083 136.42 557.503 136.6 558.156 136.6C558.743 136.6 559.343 136.54 559.956 136.42V132.7H561.396V141H559.956ZM564.11 141V132.7H565.55V136.1H569.47V132.7H570.91V141H569.47V137.42H565.55V141H564.11ZM573.622 141V132.7H575.062V135.88H576.542C577.688 135.88 578.528 136.153 579.062 136.7C579.488 137.127 579.702 137.707 579.702 138.44C579.702 139.213 579.455 139.833 578.962 140.3C578.468 140.767 577.655 141 576.522 141H573.622ZM575.062 139.72H576.402C577.002 139.72 577.428 139.647 577.682 139.5C578.042 139.26 578.222 138.907 578.222 138.44C578.222 137.96 578.048 137.613 577.702 137.4C577.462 137.24 577.035 137.16 576.422 137.16H575.062V139.72ZM580.702 141V132.7H582.142V141H580.702ZM584.852 132.7H586.292V138.18L591.972 132.06V141H590.532V135.46L584.852 141.58V132.7ZM585.572 129.12L586.772 128.66C587.012 129.46 587.579 129.86 588.472 129.86C589.366 129.86 589.932 129.46 590.172 128.66L591.372 129.12C591.159 129.72 590.792 130.193 590.272 130.54C589.766 130.887 589.166 131.06 588.472 131.06C587.779 131.06 587.172 130.887 586.652 130.54C586.146 130.193 585.786 129.72 585.572 129.12ZM599.364 132.7H600.804V138.18L606.484 132.06V141H605.044V135.46L599.364 141.58V132.7ZM609.208 141V132.7H610.648V136.1H614.568V132.7H616.008V141H614.568V137.42H610.648V141H609.208ZM624.159 134.02H621.559V141H620.119V134.02H617.519V132.7H624.159V134.02ZM631.637 138.22L632.837 138.88C632.557 139.413 632.217 139.86 631.817 140.22C631.057 140.9 630.137 141.24 629.057 141.24C627.937 141.24 626.971 140.88 626.157 140.16C625.357 139.427 624.957 138.34 624.957 136.9C624.957 135.633 625.317 134.587 626.037 133.76C626.771 132.92 627.751 132.5 628.977 132.5C630.364 132.5 631.411 133.007 632.117 134.02C632.677 134.82 632.937 135.86 632.897 137.14H626.437C626.451 137.98 626.711 138.66 627.217 139.18C627.724 139.7 628.344 139.96 629.077 139.96C629.731 139.96 630.297 139.76 630.777 139.36C631.151 139.04 631.437 138.66 631.637 138.22ZM626.537 135.94H631.417C631.297 135.287 631.011 134.767 630.557 134.38C630.117 133.98 629.591 133.78 628.977 133.78C628.377 133.78 627.844 133.987 627.377 134.4C626.924 134.8 626.644 135.313 626.537 135.94ZM636.546 139.84V145.6H635.106V132.7H636.546V133.86C637.279 132.953 638.226 132.5 639.386 132.5C640.626 132.5 641.606 132.94 642.326 133.82C643.059 134.687 643.426 135.713 643.426 136.9C643.426 138.1 643.066 139.127 642.346 139.98C641.626 140.82 640.659 141.24 639.446 141.24C638.233 141.24 637.266 140.773 636.546 139.84ZM639.246 139.96C640.059 139.96 640.713 139.667 641.206 139.08C641.699 138.48 641.946 137.753 641.946 136.9C641.946 135.94 641.673 135.18 641.126 134.62C640.579 134.06 639.946 133.78 639.226 133.78C638.506 133.78 637.866 134.06 637.306 134.62C636.746 135.18 636.466 135.933 636.466 136.88C636.466 137.747 636.719 138.48 637.226 139.08C637.746 139.667 638.419 139.96 639.246 139.96ZM645.633 132.7H648.773C649.533 132.7 650.113 132.86 650.513 133.18C650.993 133.567 651.233 134.087 651.233 134.74C651.233 135.46 650.933 136.013 650.333 136.4C650.747 136.507 651.093 136.693 651.373 136.96C651.813 137.387 652.033 137.92 652.033 138.56C652.033 139.36 651.747 139.987 651.173 140.44C650.68 140.813 650.027 141 649.213 141H645.633V132.7ZM647.073 136.08H648.593C648.98 136.08 649.287 136 649.513 135.84C649.78 135.64 649.913 135.353 649.913 134.98C649.913 134.647 649.78 134.38 649.513 134.18C649.313 134.047 648.927 133.98 648.353 133.98H647.073V136.08ZM647.073 139.72H648.853C649.467 139.72 649.9 139.627 650.153 139.44C650.473 139.2 650.633 138.893 650.633 138.52C650.633 138.12 650.493 137.807 650.213 137.58C649.96 137.38 649.527 137.28 648.913 137.28H647.073V139.72ZM660.587 133.88V132.7H662.027V141H660.587V139.84C659.867 140.773 658.921 141.24 657.747 141.24C656.627 141.24 655.674 140.853 654.887 140.08C654.101 139.307 653.707 138.227 653.707 136.84C653.707 135.48 654.094 134.42 654.867 133.66C655.654 132.887 656.614 132.5 657.747 132.5C658.947 132.5 659.894 132.96 660.587 133.88ZM657.907 133.78C657.147 133.78 656.501 134.053 655.967 134.6C655.447 135.133 655.187 135.88 655.187 136.84C655.187 137.76 655.427 138.513 655.907 139.1C656.401 139.673 657.067 139.96 657.907 139.96C658.747 139.96 659.414 139.66 659.907 139.06C660.414 138.46 660.667 137.727 660.667 136.86C660.667 135.873 660.387 135.113 659.827 134.58C659.267 134.047 658.627 133.78 657.907 133.78ZM671.035 132.7V141H669.595V134.02H666.635V137.76C666.635 138.84 666.421 139.64 665.995 140.16C665.515 140.747 664.848 141.04 663.995 141.04C663.888 141.04 663.741 141.027 663.555 141V139.68C663.688 139.707 663.795 139.72 663.875 139.72C664.341 139.72 664.688 139.54 664.915 139.18C665.101 138.887 665.195 138.413 665.195 137.76V132.7H671.035ZM680.406 126.2L681.666 126.78C681.226 127.94 680.886 129.093 680.646 130.24C680.313 131.853 680.146 133.533 680.146 135.28C680.146 137.013 680.306 138.64 680.626 140.16C680.866 141.333 681.213 142.553 681.666 143.82L680.406 144.4C679.793 142.787 679.353 141.28 679.086 139.88C678.806 138.4 678.666 136.853 678.666 135.24C678.666 133.4 678.853 131.667 679.226 130.04C679.52 128.787 679.913 127.507 680.406 126.2ZM685.745 139.84V145.6H684.305V132.7H685.745V133.86C686.479 132.953 687.425 132.5 688.585 132.5C689.825 132.5 690.805 132.94 691.525 133.82C692.259 134.687 692.625 135.713 692.625 136.9C692.625 138.1 692.265 139.127 691.545 139.98C690.825 140.82 689.859 141.24 688.645 141.24C687.432 141.24 686.465 140.773 685.745 139.84ZM688.445 139.96C689.259 139.96 689.912 139.667 690.405 139.08C690.899 138.48 691.145 137.753 691.145 136.9C691.145 135.94 690.872 135.18 690.325 134.62C689.779 134.06 689.145 133.78 688.425 133.78C687.705 133.78 687.065 134.06 686.505 134.62C685.945 135.18 685.665 135.933 685.665 136.88C685.665 137.747 685.919 138.48 686.425 139.08C686.945 139.667 687.619 139.96 688.445 139.96ZM693.633 141L697.173 136.56L694.153 132.7H695.913L698.053 135.52L700.233 132.7H701.993L698.953 136.58L702.393 141H700.633L698.013 137.62L695.393 141H693.633ZM703.835 126.78L705.095 126.2C705.588 127.507 705.981 128.787 706.275 130.04C706.648 131.667 706.835 133.4 706.835 135.24C706.835 136.853 706.695 138.4 706.415 139.88C706.148 141.28 705.708 142.787 705.095 144.4L703.835 143.82C704.288 142.553 704.635 141.333 704.875 140.16C705.195 138.64 705.355 137.013 705.355 135.28C705.355 133.533 705.188 131.853 704.855 130.24C704.615 129.093 704.275 127.94 703.835 126.78Z" fill="#0B1530"/>
<path d="M479.56 162.44H483.1C483.127 163 483.307 163.447 483.64 163.78C483.96 164.127 484.413 164.3 485 164.3C485.547 164.3 486 164.107 486.36 163.72C486.627 163.413 486.76 163.047 486.76 162.62C486.76 162.127 486.587 161.733 486.24 161.44C485.933 161.187 485.507 161.06 484.96 161.06C484.733 161.06 484.54 161.087 484.38 161.14V158.8C484.967 158.88 485.44 158.767 485.8 158.46C486.093 158.207 486.24 157.893 486.24 157.52C486.24 157.12 486.12 156.8 485.88 156.56C485.64 156.32 485.313 156.2 484.9 156.2C484.487 156.2 484.167 156.313 483.94 156.54C483.633 156.82 483.48 157.213 483.48 157.72H480.26C480.327 156.48 480.76 155.46 481.56 154.66C482.387 153.793 483.56 153.36 485.08 153.36C486.493 153.36 487.6 153.753 488.4 154.54C489.12 155.26 489.48 156.12 489.48 157.12C489.48 157.733 489.347 158.28 489.08 158.76C488.827 159.227 488.487 159.567 488.06 159.78C488.713 160.02 489.24 160.427 489.64 161C490.013 161.547 490.2 162.2 490.2 162.96C490.2 164.12 489.807 165.093 489.02 165.88C488.073 166.827 486.747 167.3 485.04 167.3C483.48 167.3 482.207 166.84 481.22 165.92C480.247 165.027 479.693 163.867 479.56 162.44ZM502.212 164.06V167H491.512L494.892 163.46C496.106 162.193 497.019 161.067 497.632 160.08C498.112 159.333 498.352 158.64 498.352 158C498.352 157.44 498.219 157.013 497.952 156.72C497.712 156.453 497.386 156.32 496.972 156.32C496.479 156.32 496.092 156.5 495.812 156.86C495.519 157.233 495.359 157.78 495.332 158.5H491.752C491.766 157.007 492.259 155.773 493.232 154.8C494.192 153.84 495.452 153.36 497.012 153.36C498.599 153.36 499.852 153.82 500.772 154.74C501.639 155.607 502.072 156.7 502.072 158.02C502.072 159.433 501.412 160.753 500.092 161.98L497.852 164.06H502.212Z" fill="#0B1530"/>
<path d="M742.72 127.66H745.12C746.453 127.66 747.473 127.94 748.18 128.5C748.98 129.113 749.38 130.033 749.38 131.26C749.38 132.407 748.94 133.28 748.06 133.88C748.913 134.093 749.547 134.527 749.96 135.18C750.387 135.82 750.6 136.507 750.6 137.24C750.6 137.84 750.467 138.393 750.2 138.9C749.947 139.407 749.627 139.813 749.24 140.12C748.493 140.707 747.427 141 746.04 141H742.72V127.66ZM744.2 129.06V133.52H745.32C745.52 133.52 745.713 133.513 745.9 133.5C746.087 133.473 746.307 133.42 746.56 133.34C746.827 133.247 747.053 133.127 747.24 132.98C747.44 132.833 747.607 132.613 747.74 132.32C747.873 132.027 747.94 131.687 747.94 131.3C747.94 130.887 747.86 130.533 747.7 130.24C747.54 129.933 747.36 129.707 747.16 129.56C746.96 129.413 746.72 129.3 746.44 129.22C746.16 129.14 745.947 129.093 745.8 129.08C745.653 129.067 745.507 129.06 745.36 129.06H744.2ZM744.2 134.84V139.6H745.9C746.98 139.6 747.76 139.413 748.24 139.04C748.827 138.613 749.12 138 749.12 137.2C749.12 136.307 748.74 135.653 747.98 135.24C747.5 134.973 746.747 134.84 745.72 134.84H744.2ZM752.965 141V132.7H754.405V136.1H758.325V132.7H759.765V141H758.325V137.42H754.405V141H752.965ZM768.637 138.22L769.837 138.88C769.557 139.413 769.217 139.86 768.817 140.22C768.057 140.9 767.137 141.24 766.057 141.24C764.937 141.24 763.971 140.88 763.157 140.16C762.357 139.427 761.957 138.34 761.957 136.9C761.957 135.633 762.317 134.587 763.037 133.76C763.771 132.92 764.751 132.5 765.977 132.5C767.364 132.5 768.411 133.007 769.117 134.02C769.677 134.82 769.937 135.86 769.897 137.14H763.437C763.451 137.98 763.711 138.66 764.217 139.18C764.724 139.7 765.344 139.96 766.077 139.96C766.731 139.96 767.297 139.76 767.777 139.36C768.151 139.04 768.437 138.66 768.637 138.22ZM763.537 135.94H768.417C768.297 135.287 768.011 134.767 767.557 134.38C767.117 133.98 766.591 133.78 765.977 133.78C765.377 133.78 764.844 133.987 764.377 134.4C763.924 134.8 763.644 135.313 763.537 135.94ZM772.106 141V132.7H773.546V139.68H776.746V132.7H778.186V139.68H781.386V132.7H782.826V141H772.106ZM785.544 141V132.7H786.984V136.1H790.904V132.7H792.344V141H790.904V137.42H786.984V141H785.544ZM795.055 132.7H796.495V138.18L802.175 132.06V141H800.735V135.46L795.055 141.58V132.7ZM811.059 138.22L812.259 138.88C811.979 139.413 811.639 139.86 811.239 140.22C810.479 140.9 809.559 141.24 808.479 141.24C807.359 141.24 806.392 140.88 805.579 140.16C804.779 139.427 804.379 138.34 804.379 136.9C804.379 135.633 804.739 134.587 805.459 133.76C806.192 132.92 807.172 132.5 808.399 132.5C809.786 132.5 810.832 133.007 811.539 134.02C812.099 134.82 812.359 135.86 812.319 137.14H805.859C805.872 137.98 806.132 138.66 806.639 139.18C807.146 139.7 807.766 139.96 808.499 139.96C809.152 139.96 809.719 139.76 810.199 139.36C810.572 139.04 810.859 138.66 811.059 138.22ZM805.959 135.94H810.839C810.719 135.287 810.432 134.767 809.979 134.38C809.539 133.98 809.012 133.78 808.399 133.78C807.799 133.78 807.266 133.987 806.799 134.4C806.346 134.8 806.066 135.313 805.959 135.94ZM826.216 140C825.389 140.827 824.343 141.24 823.076 141.24C821.809 141.24 820.756 140.827 819.916 140C819.089 139.173 818.676 138.133 818.676 136.88C818.676 135.613 819.089 134.567 819.916 133.74C820.756 132.913 821.809 132.5 823.076 132.5C824.343 132.5 825.389 132.913 826.216 133.74C827.056 134.567 827.476 135.613 827.476 136.88C827.476 138.133 827.056 139.173 826.216 140ZM825.136 134.6C824.576 134.053 823.889 133.78 823.076 133.78C822.263 133.78 821.569 134.06 820.996 134.62C820.436 135.167 820.156 135.92 820.156 136.88C820.156 137.84 820.443 138.593 821.016 139.14C821.589 139.687 822.276 139.96 823.076 139.96C823.876 139.96 824.563 139.687 825.136 139.14C825.709 138.593 825.996 137.84 825.996 136.88C825.996 135.907 825.709 135.147 825.136 134.6ZM834.929 134.02H832.329V141H830.889V134.02H828.289V132.7H834.929V134.02ZM842.747 133.3V135.02C842.093 134.193 841.227 133.78 840.147 133.78C839.333 133.78 838.64 134.06 838.067 134.62C837.493 135.167 837.207 135.92 837.207 136.88C837.207 137.84 837.493 138.593 838.067 139.14C838.64 139.687 839.327 139.96 840.127 139.96C841.193 139.96 842.087 139.527 842.807 138.66V140.38C842.02 140.953 841.14 141.24 840.167 141.24C838.873 141.24 837.807 140.833 836.967 140.02C836.14 139.193 835.727 138.153 835.727 136.9C835.727 135.633 836.147 134.587 836.987 133.76C837.827 132.92 838.887 132.5 840.167 132.5C841.127 132.5 841.987 132.767 842.747 133.3ZM850.456 134.02H847.856V141H846.416V134.02H843.816V132.7H850.456V134.02ZM852.34 145.6L854.98 140.22L851.16 132.7H852.8L855.74 138.64L858.44 132.7H860.04L853.94 145.6H852.34ZM861.559 132.7H868.239V141H866.799V134.02H862.999V141H861.559V132.7ZM870.954 141V132.7H872.394V135.88H873.874C875.02 135.88 875.86 136.153 876.394 136.7C876.82 137.127 877.034 137.707 877.034 138.44C877.034 139.213 876.787 139.833 876.294 140.3C875.8 140.767 874.987 141 873.854 141H870.954ZM872.394 139.72H873.734C874.334 139.72 874.76 139.647 875.014 139.5C875.374 139.26 875.554 138.907 875.554 138.44C875.554 137.96 875.38 137.613 875.034 137.4C874.794 137.24 874.367 137.16 873.754 137.16H872.394V139.72ZM878.034 141V132.7H879.474V141H878.034ZM888.832 126.2L890.092 126.78C889.652 127.94 889.312 129.093 889.072 130.24C888.739 131.853 888.572 133.533 888.572 135.28C888.572 137.013 888.732 138.64 889.052 140.16C889.292 141.333 889.639 142.553 890.092 143.82L888.832 144.4C888.219 142.787 887.779 141.28 887.512 139.88C887.232 138.4 887.092 136.853 887.092 135.24C887.092 133.4 887.279 131.667 887.652 130.04C887.946 128.787 888.339 127.507 888.832 126.2ZM894.171 139.84V145.6H892.731V132.7H894.171V133.86C894.904 132.953 895.851 132.5 897.011 132.5C898.251 132.5 899.231 132.94 899.951 133.82C900.684 134.687 901.051 135.713 901.051 136.9C901.051 138.1 900.691 139.127 899.971 139.98C899.251 140.82 898.284 141.24 897.071 141.24C895.858 141.24 894.891 140.773 894.171 139.84ZM896.871 139.96C897.684 139.96 898.338 139.667 898.831 139.08C899.324 138.48 899.571 137.753 899.571 136.9C899.571 135.94 899.298 135.18 898.751 134.62C898.204 134.06 897.571 133.78 896.851 133.78C896.131 133.78 895.491 134.06 894.931 134.62C894.371 135.18 894.091 135.933 894.091 136.88C894.091 137.747 894.344 138.48 894.851 139.08C895.371 139.667 896.044 139.96 896.871 139.96ZM902.058 141L905.598 136.56L902.578 132.7H904.338L906.478 135.52L908.658 132.7H910.418L907.378 136.58L910.818 141H909.058L906.438 137.62L903.818 141H902.058ZM912.26 126.78L913.52 126.2C914.014 127.507 914.407 128.787 914.7 130.04C915.074 131.667 915.26 133.4 915.26 135.24C915.26 136.853 915.12 138.4 914.84 139.88C914.574 141.28 914.134 142.787 913.52 144.4L912.26 143.82C912.714 142.553 913.06 141.333 913.3 140.16C913.62 138.64 913.78 137.013 913.78 135.28C913.78 133.533 913.614 131.853 913.28 130.24C913.04 129.093 912.7 127.94 912.26 126.78Z" fill="#0B1530"/>
<path d="M752.22 164.06V167H741.52L744.9 163.46C746.113 162.193 747.027 161.067 747.64 160.08C748.12 159.333 748.36 158.64 748.36 158C748.36 157.44 748.227 157.013 747.96 156.72C747.72 156.453 747.393 156.32 746.98 156.32C746.487 156.32 746.1 156.5 745.82 156.86C745.527 157.233 745.367 157.78 745.34 158.5H741.76C741.773 157.007 742.267 155.773 743.24 154.8C744.2 153.84 745.46 153.36 747.02 153.36C748.607 153.36 749.86 153.82 750.78 154.74C751.647 155.607 752.08 156.7 752.08 158.02C752.08 159.433 751.42 160.753 750.1 161.98L747.86 164.06H752.22ZM760.052 156.88C759.746 156.6 759.392 156.46 758.992 156.46C758.592 156.46 758.239 156.6 757.932 156.88C757.586 157.173 757.306 157.667 757.092 158.36C756.879 159.04 756.772 159.707 756.772 160.36C756.772 160.96 756.872 161.613 757.072 162.32C757.286 163.013 757.572 163.52 757.932 163.84C758.239 164.12 758.592 164.26 758.992 164.26C759.392 164.26 759.746 164.12 760.052 163.84C760.399 163.533 760.679 163.04 760.892 162.36C761.106 161.667 761.212 161.007 761.212 160.38C761.212 159.753 761.099 159.087 760.872 158.38C760.659 157.673 760.386 157.173 760.052 156.88ZM764.652 160.34C764.652 162.673 763.992 164.487 762.672 165.78C761.646 166.793 760.419 167.3 758.992 167.3C757.566 167.3 756.339 166.793 755.312 165.78C753.992 164.487 753.332 162.673 753.332 160.34C753.332 157.993 753.992 156.173 755.312 154.88C756.339 153.867 757.566 153.36 758.992 153.36C760.419 153.36 761.646 153.867 762.672 154.88C763.992 156.173 764.652 157.993 764.652 160.34ZM773.344 159.98C774.011 160.18 774.584 160.52 775.064 161C775.744 161.667 776.084 162.453 776.084 163.36C776.084 164.32 775.724 165.16 775.004 165.88C774.058 166.827 772.711 167.3 770.964 167.3C769.244 167.3 767.918 166.833 766.984 165.9C766.251 165.167 765.884 164.32 765.884 163.36C765.884 162.933 765.978 162.5 766.164 162.06C766.351 161.607 766.584 161.24 766.864 160.96C767.304 160.52 767.864 160.193 768.544 159.98C768.064 159.793 767.664 159.54 767.344 159.22C766.744 158.62 766.444 157.913 766.444 157.1C766.444 156.113 766.811 155.273 767.544 154.58C768.424 153.767 769.611 153.36 771.104 153.36C772.571 153.36 773.718 153.787 774.544 154.64C775.198 155.293 775.524 156.107 775.524 157.08C775.524 157.92 775.251 158.613 774.704 159.16C774.344 159.52 773.891 159.793 773.344 159.98ZM771.024 155.68C770.571 155.68 770.204 155.833 769.924 156.14C769.658 156.433 769.524 156.773 769.524 157.16C769.524 157.493 769.664 157.813 769.944 158.12C770.224 158.413 770.578 158.56 771.004 158.56C771.391 158.56 771.718 158.427 771.984 158.16C772.291 157.853 772.444 157.513 772.444 157.14C772.444 156.713 772.291 156.36 771.984 156.08C771.691 155.813 771.371 155.68 771.024 155.68ZM770.984 161.38C770.571 161.38 770.198 161.533 769.864 161.84C769.544 162.16 769.384 162.527 769.384 162.94C769.384 163.38 769.538 163.753 769.844 164.06C770.164 164.38 770.544 164.54 770.984 164.54C771.424 164.54 771.798 164.387 772.104 164.08C772.424 163.76 772.584 163.38 772.584 162.94C772.584 162.5 772.424 162.133 772.104 161.84C771.784 161.533 771.411 161.38 770.984 161.38Z" fill="#0B1530"/>
<rect x="40" y="230.012" width="84" height="73" fill="#9FE4CB"/>
<rect x="124" y="230.012" width="56.16" height="73" fill="#FDB5B5"/>
<rect x="190.16" y="230.012" width="56.16" height="73" fill="#FDB5B5"/>
<rect x="256.32" y="230.012" width="56.16" height="73" fill="#FDB5B5"/>
<rect x="322.48" y="230.012" width="56.16" height="73" fill="#FDB5B5"/>
<rect x="388.64" y="230.012" width="56.16" height="73" fill="#FDB5B5"/>
<rect x="454.8" y="230.012" width="56.16" height="73" fill="#FDB5B5"/>
<rect x="520.96" y="230.012" width="56.16" height="73" fill="#FDB5B5"/>
<rect x="587.12" y="230.012" width="56.16" height="73" fill="#FDB5B5"/>
<rect x="653.28" y="230.012" width="56.16" height="73" fill="#FDB5B5"/>
<rect x="719.44" y="230.012" width="56.16" height="73" fill="#FDB5B5"/>
<rect x="785.6" y="230.012" width="56.16" height="73" fill="#FDB5B5"/>
<rect x="851.76" y="230.012" width="56.16" height="73" fill="#FDB5B5"/>
<rect x="907.92" y="230.012" width="84" height="73" fill="#9FE4CB"/>
<mask id="path-26-inside-1_803_2292" fill="white">
<path d="M190.2 229.203L190.2 216.203L246.2 216.203L246.2 229.203L190.2 229.203Z"/>
</mask>
<path d="M190.2 216.203L190.2 214.203L188.2 214.203L188.2 216.203L190.2 216.203ZM246.2 216.203L248.2 216.203L248.2 214.203L246.2 214.203L246.2 216.203ZM192.2 229.203L192.2 216.203L188.2 216.203L188.2 229.203L192.2 229.203ZM190.2 218.203L246.2 218.203L246.2 214.203L190.2 214.203L190.2 218.203ZM244.2 216.203L244.2 229.203L248.2 229.203L248.2 216.203L244.2 216.203Z" fill="#33F7C3" mask="url(#path-26-inside-1_803_2292)"/>
<rect x="240.153" y="205.453" width="43.9061" height="20.7027" rx="3.75176" transform="rotate(-180 240.153 205.453)" fill="#33F7C3"/>
<rect x="240.153" y="205.453" width="43.9061" height="20.7027" rx="3.75176" transform="rotate(-180 240.153 205.453)" stroke="#33F7C3" stroke-width="1.5007"/>
<path d="M206.567 190.751C207.016 190.751 207.448 190.826 207.863 190.977C208.281 191.127 208.653 191.368 208.98 191.697C209.31 192.027 209.57 192.465 209.76 193.01C209.954 193.553 210.052 194.22 210.054 195.01C210.054 195.752 209.971 196.414 209.803 196.997C209.638 197.576 209.401 198.07 209.091 198.476C208.781 198.882 208.407 199.192 207.97 199.405C207.532 199.616 207.043 199.721 206.503 199.721C205.92 199.721 205.406 199.609 204.96 199.384C204.514 199.157 204.154 198.848 203.881 198.459C203.611 198.067 203.448 197.626 203.391 197.137H205.211C205.282 197.456 205.432 197.703 205.659 197.879C205.886 198.053 206.168 198.139 206.503 198.139C207.072 198.139 207.504 197.892 207.799 197.397C208.095 196.9 208.244 196.219 208.247 195.355H208.187C208.056 195.611 207.88 195.831 207.658 196.016C207.437 196.198 207.182 196.339 206.895 196.438C206.611 196.538 206.308 196.587 205.987 196.587C205.473 196.587 205.014 196.467 204.61 196.225C204.207 195.983 203.888 195.651 203.655 195.227C203.422 194.804 203.306 194.321 203.306 193.778C203.303 193.192 203.438 192.671 203.711 192.213C203.983 191.756 204.364 191.397 204.853 191.139C205.345 190.877 205.916 190.748 206.567 190.751ZM206.58 192.2C206.293 192.2 206.037 192.269 205.812 192.405C205.591 192.541 205.415 192.725 205.284 192.955C205.156 193.185 205.093 193.442 205.096 193.727C205.096 194.014 205.159 194.272 205.284 194.503C205.412 194.73 205.585 194.912 205.804 195.048C206.026 195.182 206.279 195.249 206.563 195.249C206.776 195.249 206.974 195.209 207.155 195.129C207.337 195.05 207.495 194.94 207.629 194.801C207.765 194.659 207.872 194.495 207.948 194.311C208.025 194.126 208.064 193.93 208.064 193.722C208.061 193.447 207.995 193.194 207.867 192.964C207.739 192.733 207.563 192.549 207.339 192.409C207.114 192.27 206.861 192.2 206.58 192.2ZM214.685 199.721C214.235 199.718 213.802 199.643 213.384 199.495C212.969 199.347 212.597 199.107 212.267 198.774C211.937 198.442 211.676 198.001 211.483 197.453C211.292 196.904 211.197 196.231 211.197 195.432C211.2 194.699 211.284 194.044 211.449 193.467C211.616 192.887 211.855 192.395 212.165 191.991C212.478 191.588 212.851 191.281 213.286 191.071C213.721 190.857 214.208 190.751 214.748 190.751C215.331 190.751 215.846 190.865 216.292 191.092C216.738 191.316 217.096 191.622 217.366 192.009C217.639 192.395 217.804 192.829 217.861 193.309H216.04C215.969 193.005 215.82 192.766 215.593 192.593C215.365 192.419 215.084 192.333 214.748 192.333C214.18 192.333 213.748 192.58 213.452 193.074C213.16 193.569 213.01 194.241 213.005 195.091H213.064C213.195 194.832 213.371 194.612 213.593 194.43C213.818 194.245 214.072 194.105 214.356 194.008C214.643 193.909 214.946 193.859 215.264 193.859C215.782 193.859 216.242 193.981 216.646 194.225C217.049 194.467 217.368 194.8 217.601 195.223C217.834 195.647 217.95 196.131 217.95 196.677C217.95 197.268 217.812 197.794 217.537 198.254C217.264 198.715 216.882 199.076 216.39 199.337C215.901 199.596 215.333 199.724 214.685 199.721ZM214.676 198.271C214.96 198.271 215.215 198.203 215.439 198.067C215.664 197.93 215.84 197.746 215.968 197.513C216.096 197.279 216.16 197.018 216.16 196.728C216.16 196.438 216.096 196.178 215.968 195.948C215.843 195.718 215.669 195.534 215.448 195.398C215.226 195.261 214.973 195.193 214.689 195.193C214.476 195.193 214.278 195.233 214.096 195.313C213.917 195.392 213.759 195.503 213.623 195.645C213.489 195.787 213.384 195.952 213.307 196.14C213.231 196.324 213.192 196.522 213.192 196.732C213.192 197.014 213.256 197.271 213.384 197.504C213.515 197.737 213.691 197.923 213.913 198.062C214.137 198.202 214.392 198.271 214.676 198.271ZM219.276 202.057V193.053H221.067V194.153H221.148C221.227 193.977 221.342 193.798 221.493 193.616C221.647 193.431 221.846 193.278 222.09 193.155C222.337 193.03 222.644 192.968 223.011 192.968C223.488 192.968 223.929 193.093 224.332 193.343C224.736 193.59 225.059 193.964 225.3 194.464C225.542 194.962 225.663 195.585 225.663 196.336C225.663 197.066 225.545 197.683 225.309 198.186C225.076 198.686 224.757 199.066 224.354 199.324C223.953 199.58 223.504 199.708 223.007 199.708C222.654 199.708 222.354 199.65 222.107 199.533C221.863 199.417 221.662 199.27 221.506 199.094C221.35 198.915 221.23 198.735 221.148 198.553H221.092V202.057H219.276ZM221.054 196.327C221.054 196.717 221.108 197.056 221.216 197.346C221.324 197.636 221.48 197.862 221.685 198.024C221.89 198.183 222.138 198.263 222.431 198.263C222.727 198.263 222.977 198.182 223.181 198.02C223.386 197.855 223.541 197.628 223.646 197.338C223.754 197.045 223.808 196.708 223.808 196.327C223.808 195.949 223.756 195.617 223.65 195.33C223.545 195.043 223.39 194.818 223.186 194.656C222.981 194.494 222.729 194.413 222.431 194.413C222.135 194.413 221.885 194.491 221.681 194.648C221.479 194.804 221.324 195.026 221.216 195.313C221.108 195.6 221.054 195.938 221.054 196.327ZM228.157 193.053L229.359 195.342L230.591 193.053H232.454L230.557 196.327L232.505 199.602H230.651L229.359 197.338L228.089 199.602H226.213L228.157 196.327L226.281 193.053H228.157Z" fill="#0B1530"/>
<mask id="path-30-inside-2_803_2292" fill="white">
<path d="M40 229.211L40 216.211L124 216.211L124 229.211L40 229.211Z"/>
</mask>
<path d="M40 216.211L40 214.211L38 214.211L38 216.211L40 216.211ZM124 216.211L126 216.211L126 214.211L124 214.211L124 216.211ZM42 229.211L42 216.211L38 216.211L38 229.211L42 229.211ZM40 218.211L124 218.211L124 214.211L40 214.211L40 218.211ZM122 216.211L122 229.211L126 229.211L126 216.211L122 216.211Z" fill="#33F7C3" mask="url(#path-30-inside-2_803_2292)"/>
<rect x="107.953" y="205.461" width="51.9061" height="20.7027" rx="3.75176" transform="rotate(-180 107.953 205.461)" fill="#33F7C3"/>
<rect x="107.953" y="205.461" width="51.9061" height="20.7027" rx="3.75176" transform="rotate(-180 107.953 205.461)" stroke="#33F7C3" stroke-width="1.5007"/>
<path d="M63.2077 199.609V198.279L66.3157 195.401C66.58 195.146 66.8017 194.915 66.9808 194.711C67.1627 194.506 67.3005 194.306 67.3943 194.11C67.4881 193.911 67.535 193.696 67.535 193.466C67.535 193.21 67.4768 192.99 67.3602 192.805C67.2437 192.617 67.0845 192.474 66.8827 192.374C66.6809 192.272 66.4521 192.221 66.1963 192.221C65.9292 192.221 65.6961 192.275 65.4971 192.383C65.2982 192.491 65.1447 192.646 65.0367 192.848C64.9287 193.049 64.8747 193.29 64.8747 193.568H63.1225C63.1225 192.997 63.2518 192.501 63.5104 192.08C63.7691 191.66 64.1314 191.334 64.5976 191.104C65.0637 190.874 65.6009 190.759 66.2091 190.759C66.8344 190.759 67.3787 190.869 67.842 191.091C68.3081 191.31 68.6705 191.614 68.9291 192.004C69.1878 192.393 69.3171 192.839 69.3171 193.342C69.3171 193.672 69.2517 193.997 69.121 194.319C68.9931 194.64 68.7643 194.996 68.4346 195.389C68.1049 195.778 67.6402 196.246 67.0405 196.791L65.7657 198.04V198.1H69.4322V199.609H63.2077ZM74.1933 199.801C73.46 199.798 72.8291 199.618 72.3004 199.26C71.7746 198.902 71.3696 198.383 71.0853 197.704C70.804 197.024 70.6647 196.207 70.6675 195.252C70.6675 194.3 70.8082 193.489 71.0896 192.818C71.3738 192.147 71.7789 191.637 72.3047 191.287C72.8333 190.935 73.4629 190.759 74.1933 190.759C74.9238 190.759 75.5519 190.935 76.0777 191.287C76.6064 191.64 77.0128 192.151 77.2971 192.822C77.5813 193.49 77.722 194.3 77.7191 195.252C77.7191 196.21 77.577 197.029 77.2928 197.708C77.0114 198.387 76.6078 198.906 76.082 199.264C75.5562 199.622 74.9266 199.801 74.1933 199.801ZM74.1933 198.271C74.6936 198.271 75.0929 198.019 75.3913 197.516C75.6898 197.013 75.8376 196.258 75.8347 195.252C75.8347 194.59 75.7665 194.039 75.6301 193.598C75.4965 193.157 75.3061 192.826 75.0588 192.605C74.8144 192.383 74.5259 192.272 74.1933 192.272C73.6959 192.272 73.298 192.521 72.9996 193.018C72.7012 193.516 72.5505 194.26 72.5477 195.252C72.5477 195.923 72.6145 196.483 72.7481 196.932C72.8845 197.378 73.0763 197.714 73.3236 197.938C73.5709 198.16 73.8608 198.271 74.1933 198.271ZM82.2927 199.729C81.6361 199.729 81.052 199.622 80.5404 199.409C80.0317 199.193 79.6323 198.899 79.3424 198.526C79.0525 198.154 78.9075 197.732 78.9075 197.26C78.9075 196.896 78.99 196.562 79.1548 196.258C79.3225 195.951 79.5499 195.697 79.837 195.495C80.124 195.291 80.4452 195.16 80.8005 195.103V195.043C80.3344 194.95 79.9563 194.724 79.6664 194.365C79.3765 194.004 79.2316 193.585 79.2316 193.108C79.2316 192.656 79.3637 192.254 79.6281 191.901C79.8924 191.546 80.2548 191.267 80.7152 191.066C81.1785 190.861 81.7043 190.759 82.2927 190.759C82.881 190.759 83.4054 190.861 83.8658 191.066C84.3291 191.27 84.6929 191.55 84.9573 191.905C85.2216 192.258 85.3552 192.659 85.358 193.108C85.3552 193.588 85.2074 194.007 84.9146 194.365C84.6219 194.724 84.2467 194.95 83.7891 195.043V195.103C84.1387 195.16 84.4556 195.291 84.7398 195.495C85.0269 195.697 85.2543 195.951 85.422 196.258C85.5925 196.562 85.6792 196.896 85.682 197.26C85.6792 197.732 85.5328 198.154 85.2429 198.526C84.953 198.899 84.5522 199.193 84.0406 199.409C83.5319 199.622 82.9492 199.729 82.2927 199.729ZM82.2927 198.373C82.5854 198.373 82.8412 198.32 83.0601 198.215C83.2789 198.107 83.4494 197.959 83.5717 197.772C83.6967 197.581 83.7593 197.363 83.7593 197.115C83.7593 196.862 83.6953 196.639 83.5674 196.446C83.4395 196.25 83.2661 196.096 83.0473 195.986C82.8284 195.872 82.5769 195.815 82.2927 195.815C82.0113 195.815 81.7597 195.872 81.538 195.986C81.3163 196.096 81.1415 196.25 81.0136 196.446C80.8886 196.639 80.8261 196.862 80.8261 197.115C80.8261 197.363 80.8872 197.581 81.0094 197.772C81.1316 197.959 81.3036 198.107 81.5253 198.215C81.7469 198.32 82.0027 198.373 82.2927 198.373ZM82.2927 194.472C82.5371 194.472 82.7545 194.422 82.945 194.323C83.1354 194.223 83.2846 194.085 83.3926 193.909C83.5006 193.733 83.5546 193.53 83.5546 193.3C83.5546 193.072 83.5006 192.873 83.3926 192.703C83.2846 192.529 83.1368 192.394 82.9492 192.298C82.7616 192.198 82.5428 192.148 82.2927 192.148C82.0454 192.148 81.8265 192.198 81.6361 192.298C81.4457 192.394 81.2965 192.529 81.1884 192.703C81.0833 192.873 81.0307 193.072 81.0307 193.3C81.0307 193.53 81.0847 193.733 81.1927 193.909C81.3007 194.085 81.4499 194.223 81.6404 194.323C81.8308 194.422 82.0482 194.472 82.2927 194.472ZM86.9898 202.065V193.061H88.7804V194.161H88.8614C88.941 193.985 89.0561 193.806 89.2068 193.624C89.3602 193.439 89.5592 193.285 89.8036 193.163C90.0509 193.038 90.3579 192.976 90.7245 192.976C91.202 192.976 91.6426 193.101 92.0462 193.351C92.4498 193.598 92.7724 193.972 93.0139 194.472C93.2555 194.969 93.3763 195.593 93.3763 196.344C93.3763 197.074 93.2584 197.691 93.0225 198.194C92.7894 198.694 92.4711 199.074 92.0675 199.332C91.6667 199.588 91.2177 199.716 90.7203 199.716C90.3678 199.716 90.068 199.658 89.8207 199.541C89.5763 199.425 89.3759 199.278 89.2196 199.102C89.0632 198.923 88.9439 198.742 88.8614 198.561H88.806V202.065H86.9898ZM88.7676 196.335C88.7676 196.725 88.8216 197.064 88.9296 197.354C89.0377 197.644 89.194 197.87 89.3986 198.032C89.6033 198.191 89.852 198.271 90.1447 198.271C90.4403 198.271 90.6904 198.19 90.8951 198.028C91.0997 197.863 91.2546 197.635 91.3598 197.346C91.4678 197.053 91.5218 196.716 91.5218 196.335C91.5218 195.957 91.4692 195.625 91.364 195.337C91.2589 195.05 91.104 194.826 90.8993 194.664C90.6947 194.502 90.4431 194.421 90.1447 194.421C89.8491 194.421 89.599 194.499 89.3944 194.655C89.1926 194.812 89.0377 195.033 88.9296 195.32C88.8216 195.607 88.7676 195.946 88.7676 196.335ZM95.8704 193.061L97.0727 195.35L98.3048 193.061H100.168L98.2707 196.335L100.219 199.609H98.3645L97.0727 197.346L95.8022 199.609H93.9263L95.8704 196.335L93.9945 193.061H95.8704Z" fill="#0B1530"/>
<mask id="path-34-inside-3_803_2292" fill="white">
<path d="M312.397 229.224L312.397 216.224L322.397 216.224L322.397 229.224L312.397 229.224Z"/>
</mask>
<path d="M312.397 216.224L312.397 214.224L310.397 214.224L310.397 216.224L312.397 216.224ZM322.397 216.224L324.397 216.224L324.397 214.224L322.397 214.224L322.397 216.224ZM314.397 229.224L314.397 216.224L310.397 216.224L310.397 229.224L314.397 229.224ZM312.397 218.224L322.397 218.224L322.397 214.224L312.397 214.224L312.397 218.224ZM320.397 216.224L320.397 229.224L324.397 229.224L324.397 216.224L320.397 216.224Z" fill="#33F7C3" mask="url(#path-34-inside-3_803_2292)"/>
<rect x="338.85" y="205.473" width="42.9061" height="20.7027" rx="3.75176" transform="rotate(-180 338.85 205.473)" fill="#33F7C3"/>
<rect x="338.85" y="205.473" width="42.9061" height="20.7027" rx="3.75176" transform="rotate(-180 338.85 205.473)" stroke="#33F7C3" stroke-width="1.5007"/>
<path d="M306.332 199.741C305.695 199.741 305.128 199.632 304.631 199.413C304.136 199.191 303.745 198.887 303.458 198.501C303.174 198.111 303.028 197.662 303.019 197.154H304.878C304.889 197.367 304.959 197.554 305.087 197.716C305.218 197.876 305.391 197.999 305.607 198.087C305.823 198.175 306.066 198.219 306.336 198.219C306.617 198.219 306.866 198.17 307.082 198.07C307.298 197.971 307.467 197.833 307.59 197.657C307.712 197.48 307.773 197.277 307.773 197.047C307.773 196.814 307.707 196.608 307.577 196.429C307.449 196.247 307.264 196.105 307.022 196.002C306.784 195.9 306.5 195.849 306.17 195.849H305.356V194.493H306.17C306.448 194.493 306.694 194.445 306.907 194.348C307.123 194.252 307.291 194.118 307.41 193.948C307.53 193.774 307.59 193.572 307.59 193.342C307.59 193.123 307.537 192.931 307.432 192.767C307.329 192.599 307.184 192.468 306.997 192.374C306.812 192.281 306.596 192.234 306.349 192.234C306.099 192.234 305.87 192.279 305.662 192.37C305.455 192.458 305.289 192.585 305.164 192.75C305.039 192.914 304.972 193.108 304.963 193.329H303.194C303.203 192.826 303.346 192.383 303.625 191.999C303.903 191.615 304.278 191.316 304.75 191.1C305.225 190.881 305.761 190.771 306.357 190.771C306.96 190.771 307.487 190.881 307.939 191.1C308.391 191.318 308.742 191.614 308.992 191.986C309.245 192.356 309.37 192.771 309.367 193.231C309.37 193.72 309.218 194.128 308.911 194.455C308.607 194.782 308.211 194.989 307.722 195.077V195.146C308.364 195.228 308.853 195.451 309.188 195.815C309.526 196.176 309.694 196.628 309.691 197.171C309.694 197.668 309.551 198.11 309.261 198.497C308.974 198.883 308.577 199.187 308.071 199.409C307.565 199.631 306.986 199.741 306.332 199.741ZM311.018 199.622V198.292L314.126 195.414C314.391 195.158 314.612 194.928 314.791 194.723C314.973 194.519 315.111 194.318 315.205 194.122C315.299 193.923 315.346 193.709 315.346 193.479C315.346 193.223 315.287 193.002 315.171 192.818C315.054 192.63 314.895 192.487 314.693 192.387C314.492 192.285 314.263 192.234 314.007 192.234C313.74 192.234 313.507 192.288 313.308 192.396C313.109 192.504 312.955 192.659 312.847 192.86C312.739 193.062 312.685 193.302 312.685 193.581H310.933C310.933 193.01 311.062 192.514 311.321 192.093C311.58 191.672 311.942 191.347 312.408 191.117C312.874 190.886 313.411 190.771 314.02 190.771C314.645 190.771 315.189 190.882 315.653 191.104C316.119 191.323 316.481 191.627 316.74 192.016C316.998 192.406 317.128 192.852 317.128 193.355C317.128 193.685 317.062 194.01 316.932 194.331C316.804 194.652 316.575 195.009 316.245 195.401C315.915 195.791 315.451 196.258 314.851 196.804L313.576 198.053V198.113H317.243V199.622H311.018ZM318.598 202.078V193.074H320.388V194.173H320.469C320.549 193.997 320.664 193.818 320.814 193.636C320.968 193.452 321.167 193.298 321.411 193.176C321.659 193.051 321.966 192.988 322.332 192.988C322.81 192.988 323.25 193.113 323.654 193.363C324.057 193.611 324.38 193.984 324.622 194.485C324.863 194.982 324.984 195.606 324.984 196.356C324.984 197.087 324.866 197.704 324.63 198.207C324.397 198.707 324.079 199.086 323.675 199.345C323.274 199.601 322.825 199.729 322.328 199.729C321.976 199.729 321.676 199.67 321.428 199.554C321.184 199.437 320.984 199.291 320.827 199.115C320.671 198.936 320.552 198.755 320.469 198.573H320.414V202.078H318.598ZM320.375 196.348C320.375 196.737 320.429 197.077 320.537 197.367C320.645 197.657 320.802 197.883 321.006 198.045C321.211 198.204 321.46 198.283 321.752 198.283C322.048 198.283 322.298 198.202 322.503 198.04C322.707 197.876 322.862 197.648 322.967 197.358C323.075 197.065 323.129 196.729 323.129 196.348C323.129 195.97 323.077 195.637 322.972 195.35C322.867 195.063 322.712 194.839 322.507 194.677C322.302 194.515 322.051 194.434 321.752 194.434C321.457 194.434 321.207 194.512 321.002 194.668C320.8 194.824 320.645 195.046 320.537 195.333C320.429 195.62 320.375 195.958 320.375 196.348ZM327.478 193.074L328.68 195.363L329.912 193.074H331.776L329.878 196.348L331.827 199.622H329.972L328.68 197.358L327.41 199.622H325.534L327.478 196.348L325.602 193.074H327.478Z" fill="#0B1530"/>
<rect x="544.953" y="348.464" width="57.9061" height="20.7027" rx="3.75176" transform="rotate(-180 544.953 348.464)" fill="#33F7C3"/>
<rect x="544.953" y="348.464" width="57.9061" height="20.7027" rx="3.75176" transform="rotate(-180 544.953 348.464)" stroke="#33F7C3" stroke-width="1.5007"/>
<path d="M498.006 333.882V342.613H496.16V335.634H496.109L494.11 336.888V335.25L496.271 333.882H498.006ZM503.271 342.733C502.668 342.733 502.131 342.622 501.659 342.4C501.19 342.178 500.818 341.873 500.542 341.483C500.266 341.094 500.123 340.648 500.111 340.145H501.902C501.922 340.483 502.064 340.757 502.328 340.968C502.593 341.178 502.907 341.283 503.271 341.283C503.56 341.283 503.816 341.219 504.038 341.091C504.263 340.961 504.437 340.78 504.562 340.55C504.69 340.317 504.754 340.05 504.754 339.748C504.754 339.441 504.689 339.171 504.558 338.938C504.43 338.705 504.253 338.523 504.025 338.393C503.798 338.262 503.538 338.195 503.245 338.192C502.989 338.192 502.74 338.245 502.499 338.35C502.26 338.455 502.074 338.599 501.94 338.781L500.299 338.486L500.713 333.882H506.05V335.391H502.235L502.009 337.578H502.06C502.213 337.362 502.445 337.183 502.755 337.041C503.064 336.899 503.411 336.828 503.795 336.828C504.321 336.828 504.79 336.952 505.202 337.199C505.614 337.446 505.939 337.786 506.178 338.218C506.417 338.647 506.535 339.141 506.532 339.701C506.535 340.29 506.398 340.813 506.123 341.27C505.85 341.725 505.468 342.083 504.976 342.345C504.487 342.603 503.919 342.733 503.271 342.733ZM511.243 342.805C510.51 342.802 509.879 342.622 509.35 342.264C508.824 341.906 508.419 341.387 508.135 340.708C507.854 340.028 507.714 339.211 507.717 338.256C507.717 337.304 507.858 336.493 508.139 335.822C508.424 335.151 508.829 334.641 509.354 334.291C509.883 333.939 510.513 333.763 511.243 333.763C511.974 333.763 512.602 333.939 513.127 334.291C513.656 334.644 514.063 335.155 514.347 335.826C514.631 336.494 514.772 337.304 514.769 338.256C514.769 339.214 514.627 340.033 514.343 340.712C514.061 341.391 513.658 341.91 513.132 342.268C512.606 342.626 511.976 342.805 511.243 342.805ZM511.243 341.275C511.743 341.275 512.143 341.023 512.441 340.52C512.739 340.017 512.887 339.262 512.884 338.256C512.884 337.594 512.816 337.042 512.68 336.602C512.546 336.161 512.356 335.83 512.109 335.609C511.864 335.387 511.576 335.276 511.243 335.276C510.746 335.276 510.348 335.525 510.049 336.022C509.751 336.52 509.6 337.264 509.597 338.256C509.597 338.927 509.664 339.487 509.798 339.936C509.934 340.382 510.126 340.718 510.373 340.942C510.621 341.164 510.911 341.275 511.243 341.275ZM515.953 341.078V339.625L519.598 333.882H520.852V335.894H520.11L517.812 339.531V339.599H522.992V341.078H515.953ZM520.144 342.613V340.635L520.178 339.991V333.882H521.909V342.613H520.144ZM524.239 345.069V336.065H526.029V337.165H526.11C526.19 336.988 526.305 336.809 526.456 336.628C526.609 336.443 526.808 336.289 527.053 336.167C527.3 336.042 527.607 335.979 527.974 335.979C528.451 335.979 528.892 336.105 529.295 336.355C529.699 336.602 530.021 336.976 530.263 337.476C530.505 337.973 530.625 338.597 530.625 339.348C530.625 340.078 530.507 340.695 530.271 341.198C530.038 341.698 529.72 342.078 529.317 342.336C528.916 342.592 528.467 342.72 527.969 342.72C527.617 342.72 527.317 342.662 527.07 342.545C526.825 342.429 526.625 342.282 526.469 342.106C526.312 341.927 526.193 341.746 526.11 341.564H526.055V345.069H524.239ZM526.017 339.339C526.017 339.728 526.071 340.068 526.179 340.358C526.287 340.648 526.443 340.874 526.648 341.036C526.852 341.195 527.101 341.275 527.394 341.275C527.689 341.275 527.939 341.194 528.144 341.032C528.349 340.867 528.504 340.639 528.609 340.349C528.717 340.057 528.771 339.72 528.771 339.339C528.771 338.961 528.718 338.628 528.613 338.341C528.508 338.054 528.353 337.83 528.148 337.668C527.944 337.506 527.692 337.425 527.394 337.425C527.098 337.425 526.848 337.503 526.643 337.659C526.442 337.816 526.287 338.037 526.179 338.324C526.071 338.611 526.017 338.95 526.017 339.339ZM533.119 336.065L534.322 338.354L535.554 336.065H537.417L535.52 339.339L537.468 342.613H535.613L534.322 340.349L533.051 342.613H531.175L533.119 339.339L531.244 336.065H533.119Z" fill="#0B1530"/>
<mask id="path-40-inside-4_803_2292" fill="white">
<path d="M908 304.012L908 317.012L124 317.012L124 304.012L908 304.012Z"/>
</mask>
<path d="M908 317.012L908 319.012L910 319.012L910 317.012L908 317.012ZM124 317.012L122 317.012L122 319.012L124 319.012L124 317.012ZM906 304.012L906 317.012L910 317.012L910 304.012L906 304.012ZM908 315.012L124 315.012L124 319.012L908 319.012L908 315.012ZM126 317.012L126 304.012L122 304.012L122 317.012L126 317.012Z" fill="#33F7C3" mask="url(#path-40-inside-4_803_2292)"/>
</svg>
