<svg width="768" height="416" viewBox="0 0 768 416" fill="none" xmlns="http://www.w3.org/2000/svg">
<path d="M0 24C0 10.7452 10.7452 0 24 0H744C757.255 0 768 10.7452 768 24V392C768 405.255 757.255 416 744 416H24C10.7452 416 0 405.255 0 392V24Z" fill="#F5F6F8"/>
<rect x="117.75" y="41.7504" width="42.9061" height="20.7027" rx="3.75176" fill="#33F7C3"/>
<rect x="117.75" y="41.7504" width="42.9061" height="20.7027" rx="3.75176" stroke="#33F7C3" stroke-width="1.5007"/>
<path d="M128.139 56.7209C127.502 56.7209 126.935 56.6115 126.438 56.3927C125.943 56.171 125.552 55.8668 125.265 55.4803C124.981 55.0909 124.835 54.6418 124.826 54.1331H126.685C126.696 54.3462 126.766 54.5338 126.894 54.6958C127.025 54.855 127.198 54.9786 127.414 55.0668C127.63 55.1549 127.873 55.1989 128.143 55.1989C128.424 55.1989 128.673 55.1492 128.889 55.0497C129.105 54.9502 129.274 54.8124 129.396 54.6362C129.519 54.4599 129.58 54.2567 129.58 54.0265C129.58 53.7934 129.514 53.5874 129.384 53.4083C129.256 53.2264 129.071 53.0843 128.829 52.982C128.591 52.8796 128.306 52.8285 127.977 52.8285H127.162V51.4727H127.977C128.255 51.4727 128.501 51.4244 128.714 51.3278C128.93 51.2311 129.098 51.0976 129.217 50.927C129.337 50.7537 129.396 50.5519 129.396 50.3216C129.396 50.1028 129.344 49.9109 129.239 49.7461C129.136 49.5784 128.991 49.4476 128.804 49.3538C128.619 49.2601 128.403 49.2132 128.156 49.2132C127.906 49.2132 127.677 49.2586 127.469 49.3496C127.262 49.4377 127.096 49.5642 126.971 49.729C126.845 49.8939 126.779 50.0871 126.77 50.3088H125.001C125.009 49.8058 125.153 49.3624 125.431 48.9787C125.71 48.595 126.085 48.2951 126.557 48.0791C127.032 47.8602 127.567 47.7508 128.164 47.7508C128.767 47.7508 129.294 47.8602 129.746 48.0791C130.198 48.298 130.549 48.5935 130.799 48.9659C131.052 49.3354 131.177 49.7503 131.174 50.2108C131.177 50.6996 131.025 51.1075 130.718 51.4344C130.414 51.7612 130.017 51.9687 129.529 52.0568V52.125C130.171 52.2075 130.66 52.4306 130.995 52.7944C131.333 53.1553 131.501 53.6073 131.498 54.1501C131.501 54.6475 131.358 55.0895 131.068 55.476C130.781 55.8626 130.384 56.1667 129.878 56.3884C129.372 56.6101 128.792 56.7209 128.139 56.7209ZM132.825 56.6016V55.2714L135.933 52.3936C136.198 52.1378 136.419 51.9076 136.598 51.703C136.78 51.4983 136.918 51.2979 137.012 51.1018C137.106 50.9029 137.153 50.6883 137.153 50.4581C137.153 50.2023 137.094 49.982 136.978 49.7972C136.861 49.6096 136.702 49.4661 136.5 49.3666C136.298 49.2643 136.07 49.2132 135.814 49.2132C135.547 49.2132 135.314 49.2672 135.115 49.3752C134.916 49.4832 134.762 49.6381 134.654 49.8399C134.546 50.0417 134.492 50.2818 134.492 50.5604H132.74C132.74 49.9891 132.869 49.4931 133.128 49.0725C133.387 48.6518 133.749 48.3264 134.215 48.0962C134.681 47.8659 135.218 47.7508 135.827 47.7508C136.452 47.7508 136.996 47.8617 137.459 48.0834C137.926 48.3022 138.288 48.6063 138.547 48.9957C138.805 49.3851 138.935 49.8313 138.935 50.3344C138.935 50.6641 138.869 50.9896 138.738 51.3107C138.611 51.6319 138.382 51.9886 138.052 52.3808C137.722 52.7702 137.258 53.2378 136.658 53.7835L135.383 55.0326V55.0923H139.05V56.6016H132.825ZM140.404 59.0573V50.053H142.195V51.153H142.276C142.356 50.9768 142.471 50.7977 142.621 50.6158C142.775 50.4311 142.974 50.2776 143.218 50.1554C143.465 50.0303 143.772 49.9678 144.139 49.9678C144.617 49.9678 145.057 50.0928 145.461 50.3429C145.864 50.5902 146.187 50.964 146.429 51.4642C146.67 51.9616 146.791 52.5855 146.791 53.3358C146.791 54.0663 146.673 54.683 146.437 55.1861C146.204 55.6864 145.886 56.0658 145.482 56.3244C145.081 56.5802 144.632 56.7081 144.135 56.7081C143.782 56.7081 143.483 56.6499 143.235 56.5333C142.991 56.4168 142.79 56.2704 142.634 56.0942C142.478 55.9152 142.358 55.7347 142.276 55.5528H142.221V59.0573H140.404ZM142.182 53.3273C142.182 53.7167 142.236 54.0563 142.344 54.3462C142.452 54.6362 142.609 54.8621 142.813 55.0241C143.018 55.1833 143.267 55.2629 143.559 55.2629C143.855 55.2629 144.105 55.1819 144.31 55.0199C144.514 54.855 144.669 54.6276 144.774 54.3377C144.882 54.045 144.936 53.7082 144.936 53.3273C144.936 52.9493 144.884 52.6167 144.779 52.3297C144.673 52.0426 144.519 51.8181 144.314 51.6561C144.109 51.4941 143.858 51.4131 143.559 51.4131C143.264 51.4131 143.014 51.4912 142.809 51.6475C142.607 51.8039 142.452 52.0256 142.344 52.3126C142.236 52.5997 142.182 52.9379 142.182 53.3273ZM149.285 50.053L150.487 52.3425L151.719 50.053H153.582L151.685 53.3273L153.634 56.6016H151.779L150.487 54.3377L149.217 56.6016H147.341L149.285 53.3273L147.409 50.053H149.285Z" fill="#0B1530"/>
<rect x="668.75" y="42.7504" width="42.9061" height="20.7027" rx="3.75176" fill="#33F7C3"/>
<rect x="668.75" y="42.7504" width="42.9061" height="20.7027" rx="3.75176" stroke="#33F7C3" stroke-width="1.5007"/>
<path d="M679.139 57.7209C678.502 57.7209 677.935 57.6115 677.438 57.3927C676.943 57.171 676.552 56.8668 676.265 56.4803C675.981 56.0909 675.835 55.6418 675.826 55.1331H677.685C677.696 55.3462 677.766 55.5338 677.894 55.6958C678.025 55.855 678.198 55.9786 678.414 56.0668C678.63 56.1549 678.873 56.1989 679.143 56.1989C679.424 56.1989 679.673 56.1492 679.889 56.0497C680.105 55.9502 680.274 55.8124 680.396 55.6362C680.519 55.4599 680.58 55.2567 680.58 55.0265C680.58 54.7934 680.514 54.5874 680.384 54.4083C680.256 54.2264 680.071 54.0843 679.829 53.982C679.591 53.8796 679.306 53.8285 678.977 53.8285H678.162V52.4727H678.977C679.255 52.4727 679.501 52.4244 679.714 52.3278C679.93 52.2311 680.098 52.0976 680.217 51.927C680.337 51.7537 680.396 51.5519 680.396 51.3216C680.396 51.1028 680.344 50.9109 680.239 50.7461C680.136 50.5784 679.991 50.4476 679.804 50.3538C679.619 50.2601 679.403 50.2132 679.156 50.2132C678.906 50.2132 678.677 50.2586 678.469 50.3496C678.262 50.4377 678.096 50.5642 677.971 50.729C677.845 50.8939 677.779 51.0871 677.77 51.3088H676.001C676.009 50.8058 676.153 50.3624 676.431 49.9787C676.71 49.595 677.085 49.2951 677.557 49.0791C678.032 48.8602 678.567 48.7508 679.164 48.7508C679.767 48.7508 680.294 48.8602 680.746 49.0791C681.198 49.298 681.549 49.5935 681.799 49.9659C682.052 50.3354 682.177 50.7503 682.174 51.2108C682.177 51.6996 682.025 52.1075 681.718 52.4344C681.414 52.7612 681.017 52.9687 680.529 53.0568V53.125C681.171 53.2075 681.66 53.4306 681.995 53.7944C682.333 54.1553 682.501 54.6073 682.498 55.1501C682.501 55.6475 682.358 56.0895 682.068 56.476C681.781 56.8626 681.384 57.1667 680.878 57.3884C680.372 57.6101 679.792 57.7209 679.139 57.7209ZM683.825 57.6016V56.2714L686.933 53.3936C687.198 53.1378 687.419 52.9076 687.598 52.703C687.78 52.4983 687.918 52.2979 688.012 52.1018C688.106 51.9029 688.153 51.6883 688.153 51.4581C688.153 51.2023 688.094 50.982 687.978 50.7972C687.861 50.6096 687.702 50.4661 687.5 50.3666C687.298 50.2643 687.07 50.2132 686.814 50.2132C686.547 50.2132 686.314 50.2672 686.115 50.3752C685.916 50.4832 685.762 50.6381 685.654 50.8399C685.546 51.0417 685.492 51.2818 685.492 51.5604H683.74C683.74 50.9891 683.869 50.4931 684.128 50.0725C684.387 49.6518 684.749 49.3264 685.215 49.0962C685.681 48.8659 686.218 48.7508 686.827 48.7508C687.452 48.7508 687.996 48.8617 688.459 49.0834C688.926 49.3022 689.288 49.6063 689.547 49.9957C689.805 50.3851 689.935 50.8313 689.935 51.3344C689.935 51.6641 689.869 51.9896 689.738 52.3107C689.611 52.6319 689.382 52.9886 689.052 53.3808C688.722 53.7702 688.258 54.2378 687.658 54.7835L686.383 56.0326V56.0923H690.05V57.6016H683.825ZM691.404 60.0573V51.053H693.195V52.153H693.276C693.356 51.9768 693.471 51.7977 693.621 51.6158C693.775 51.4311 693.974 51.2776 694.218 51.1554C694.465 51.0303 694.772 50.9678 695.139 50.9678C695.617 50.9678 696.057 51.0928 696.461 51.3429C696.864 51.5902 697.187 51.964 697.429 52.4642C697.67 52.9616 697.791 53.5855 697.791 54.3358C697.791 55.0663 697.673 55.683 697.437 56.1861C697.204 56.6864 696.886 57.0658 696.482 57.3244C696.081 57.5802 695.632 57.7081 695.135 57.7081C694.782 57.7081 694.483 57.6499 694.235 57.5333C693.991 57.4168 693.79 57.2704 693.634 57.0942C693.478 56.9152 693.358 56.7347 693.276 56.5528H693.221V60.0573H691.404ZM693.182 54.3273C693.182 54.7167 693.236 55.0563 693.344 55.3462C693.452 55.6362 693.609 55.8621 693.813 56.0241C694.018 56.1833 694.267 56.2629 694.559 56.2629C694.855 56.2629 695.105 56.1819 695.31 56.0199C695.514 55.855 695.669 55.6276 695.774 55.3377C695.882 55.045 695.936 54.7082 695.936 54.3273C695.936 53.9493 695.884 53.6167 695.779 53.3297C695.673 53.0426 695.519 52.8181 695.314 52.6561C695.109 52.4941 694.858 52.4131 694.559 52.4131C694.264 52.4131 694.014 52.4912 693.809 52.6475C693.607 52.8039 693.452 53.0256 693.344 53.3126C693.236 53.5997 693.182 53.9379 693.182 54.3273ZM700.285 51.053L701.487 53.3425L702.719 51.053H704.582L702.685 54.3273L704.634 57.6016H702.779L701.487 55.3377L700.217 57.6016H698.341L700.285 54.3273L698.409 51.053H700.285Z" fill="#0B1530"/>
<rect x="595.839" y="42.7504" width="43.9061" height="20.7027" rx="3.75176" fill="#33F7C3"/>
<rect x="595.839" y="42.7504" width="43.9061" height="20.7027" rx="3.75176" stroke="#33F7C3" stroke-width="1.5007"/>
<path d="M606.351 57.7209C605.902 57.7181 605.469 57.6428 605.051 57.495C604.636 57.3472 604.264 57.107 603.934 56.7745C603.604 56.4419 603.343 56.0014 603.149 55.4528C602.959 54.9043 602.864 54.2307 602.864 53.432C602.867 52.6987 602.95 52.0436 603.115 51.4666C603.283 50.8868 603.522 50.3951 603.832 49.9915C604.144 49.5879 604.518 49.2809 604.953 49.0706C605.388 48.8574 605.875 48.7508 606.415 48.7508C606.998 48.7508 607.512 48.8645 607.958 49.0919C608.405 49.3164 608.763 49.622 609.033 50.0085C609.306 50.3951 609.471 50.8285 609.527 51.3088H607.707C607.636 51.0047 607.487 50.766 607.259 50.5926C607.032 50.4192 606.751 50.3325 606.415 50.3325C605.847 50.3325 605.415 50.5798 605.119 51.0744C604.826 51.5689 604.677 52.2411 604.671 53.0909H604.731C604.862 52.8323 605.038 52.612 605.26 52.4301C605.484 52.2454 605.739 52.1047 606.023 52.008C606.31 51.9086 606.613 51.8588 606.931 51.8588C607.448 51.8588 607.909 51.981 608.312 52.2255C608.716 52.4671 609.034 52.7996 609.267 53.2231C609.5 53.6466 609.617 54.1312 609.617 54.6769C609.617 55.2681 609.479 55.7939 609.203 56.2543C608.931 56.7148 608.548 57.0757 608.057 57.3372C607.568 57.5959 606.999 57.7238 606.351 57.7209ZM606.343 56.2714C606.627 56.2714 606.881 56.2032 607.106 56.0668C607.33 55.9303 607.507 55.7456 607.634 55.5125C607.762 55.2795 607.826 55.018 607.826 54.7281C607.826 54.4381 607.762 54.1781 607.634 53.9479C607.509 53.7176 607.336 53.5343 607.114 53.3979C606.893 53.2615 606.64 53.1932 606.355 53.1932C606.142 53.1932 605.945 53.233 605.763 53.3126C605.584 53.3922 605.426 53.5031 605.29 53.6452C605.156 53.7873 605.051 53.9521 604.974 54.1397C604.897 54.3245 604.859 54.522 604.859 54.7323C604.859 55.0137 604.923 55.2709 605.051 55.504C605.182 55.7371 605.358 55.9232 605.58 56.0625C605.804 56.2018 606.058 56.2714 606.343 56.2714ZM610.794 56.0668V54.6129L614.439 48.8702H615.692V50.8825H614.95L612.652 54.5192V54.5874H617.832V56.0668H610.794ZM614.985 57.6016V55.6234L615.019 54.9796V48.8702H616.75V57.6016H614.985ZM619.079 60.0573V51.053H620.87V52.153H620.951C621.031 51.9768 621.146 51.7977 621.296 51.6158C621.45 51.4311 621.649 51.2776 621.893 51.1554C622.141 51.0303 622.448 50.9678 622.814 50.9678C623.292 50.9678 623.732 51.0928 624.136 51.3429C624.539 51.5902 624.862 51.964 625.104 52.4642C625.345 52.9616 625.466 53.5855 625.466 54.3358C625.466 55.0663 625.348 55.683 625.112 56.1861C624.879 56.6864 624.561 57.0658 624.157 57.3244C623.756 57.5802 623.307 57.7081 622.81 57.7081C622.457 57.7081 622.158 57.6499 621.91 57.5333C621.666 57.4168 621.466 57.2704 621.309 57.0942C621.153 56.9152 621.034 56.7347 620.951 56.5528H620.896V60.0573H619.079ZM620.857 54.3273C620.857 54.7167 620.911 55.0563 621.019 55.3462C621.127 55.6362 621.284 55.8621 621.488 56.0241C621.693 56.1833 621.942 56.2629 622.234 56.2629C622.53 56.2629 622.78 56.1819 622.985 56.0199C623.189 55.855 623.344 55.6276 623.449 55.3377C623.557 55.045 623.611 54.7082 623.611 54.3273C623.611 53.9493 623.559 53.6167 623.454 53.3297C623.349 53.0426 623.194 52.8181 622.989 52.6561C622.784 52.4941 622.533 52.4131 622.234 52.4131C621.939 52.4131 621.689 52.4912 621.484 52.6475C621.282 52.8039 621.127 53.0256 621.019 53.3126C620.911 53.5997 620.857 53.9379 620.857 54.3273ZM627.96 51.053L629.162 53.3425L630.394 51.053H632.258L630.36 54.3273L632.309 57.6016H630.454L629.162 55.3377L627.892 57.6016H626.016L627.96 54.3273L626.084 51.053H627.96Z" fill="#0B1530"/>
<path d="M105 123.973L105 93" stroke="#33F7C3" stroke-width="2"/>
<path d="M105 264L105 211" stroke="#33F7C3" stroke-width="2"/>
<path d="M105 352L105 320" stroke="#33F7C3" stroke-width="2"/>
<path d="M123.054 115.602L123.054 69.6289" stroke="#33F7C3" stroke-width="2"/>
<path d="M674.054 92L674.054 70.6289" stroke="#33F7C3" stroke-width="2"/>
<path d="M586 92L586 70.6289" stroke="#33F7C3" stroke-width="2"/>
<path d="M154 100.602L154 69.6289" stroke="#33F7C3" stroke-width="2"/>
<path d="M705 115.332L705 70.6289" stroke="#33F7C3" stroke-width="2"/>
<path d="M649.593 115.332L649.593 70.6289" stroke="#33F7C3" stroke-width="2"/>
<path d="M103.945 93.0117H147.537" stroke="#33F7C3" stroke-width="2"/>
<path d="M103.945 211.012H147.537" stroke="#33F7C3" stroke-width="2"/>
<path d="M103.945 320.012H147.538" stroke="#33F7C3" stroke-width="2"/>
<path d="M103.945 351H147.538" stroke="#33F7C3" stroke-width="2"/>
<path d="M122 69.6406H154.991" stroke="#33F7C3" stroke-width="2"/>
<path d="M673 70.6406H705.991" stroke="#33F7C3" stroke-width="2"/>
<path d="M585 70.6406L650.584 70.6406" stroke="#33F7C3" stroke-width="2"/>
<path d="M103.998 124.254H122.053" stroke="#33F7C3" stroke-width="2"/>
<path d="M103.998 264H122.053" stroke="#33F7C3" stroke-width="2"/>
<rect x="53.7504" y="97.7504" width="42.9061" height="20.7027" rx="3.75176" fill="#33F7C3"/>
<rect x="53.7504" y="97.7504" width="42.9061" height="20.7027" rx="3.75176" stroke="#33F7C3" stroke-width="1.5007"/>
<path d="M60.9113 112.602V111.271L64.0193 108.394C64.2837 108.138 64.5053 107.908 64.6844 107.703C64.8663 107.498 65.0042 107.298 65.098 107.102C65.1917 106.903 65.2386 106.688 65.2386 106.458C65.2386 106.202 65.1804 105.982 65.0638 105.797C64.9473 105.61 64.7881 105.466 64.5863 105.367C64.3846 105.264 64.1557 105.213 63.8999 105.213C63.6328 105.213 63.3997 105.267 63.2008 105.375C63.0018 105.483 62.8483 105.638 62.7403 105.84C62.6323 106.042 62.5783 106.282 62.5783 106.56H60.8261C60.8261 105.989 60.9554 105.493 61.214 105.072C61.4727 104.652 61.8351 104.326 62.3012 104.096C62.7673 103.866 63.3045 103.751 63.9127 103.751C64.538 103.751 65.0823 103.862 65.5456 104.083C66.0117 104.302 66.3741 104.606 66.6328 104.996C66.8914 105.385 67.0207 105.831 67.0207 106.334C67.0207 106.664 66.9554 106.99 66.8246 107.311C66.6967 107.632 66.4679 107.989 66.1382 108.381C65.8085 108.77 65.3438 109.238 64.7441 109.783L63.4693 111.033V111.092H67.1358V112.602H60.9113ZM68.1537 111.067V109.613L71.7989 103.87H73.0523V105.883H72.3105L70.0125 109.519V109.587H75.1925V111.067H68.1537ZM72.3446 112.602V110.623L72.3787 109.98V103.87H74.1096V112.602H72.3446ZM76.4396 115.057V106.053H78.2302V107.153H78.3112C78.3908 106.977 78.5059 106.798 78.6565 106.616C78.81 106.431 79.0089 106.278 79.2534 106.155C79.5007 106.03 79.8076 105.968 80.1743 105.968C80.6518 105.968 81.0923 106.093 81.4959 106.343C81.8995 106.59 82.2221 106.964 82.4637 107.464C82.7053 107.962 82.8261 108.585 82.8261 109.336C82.8261 110.066 82.7081 110.683 82.4722 111.186C82.2392 111.686 81.9208 112.066 81.5172 112.324C81.1165 112.58 80.6674 112.708 80.17 112.708C79.8176 112.708 79.5177 112.65 79.2704 112.533C79.026 112.417 78.8256 112.27 78.6693 112.094C78.513 111.915 78.3936 111.735 78.3112 111.553H78.2558V115.057H76.4396ZM78.2174 109.327C78.2174 109.717 78.2714 110.056 78.3794 110.346C78.4874 110.636 78.6437 110.862 78.8484 111.024C79.053 111.183 79.3017 111.263 79.5944 111.263C79.89 111.263 80.1402 111.182 80.3448 111.02C80.5494 110.855 80.7043 110.628 80.8095 110.338C80.9175 110.045 80.9715 109.708 80.9715 109.327C80.9715 108.949 80.9189 108.617 80.8138 108.33C80.7086 108.043 80.5537 107.818 80.3491 107.656C80.1444 107.494 79.8929 107.413 79.5944 107.413C79.2989 107.413 79.0487 107.491 78.8441 107.648C78.6423 107.804 78.4874 108.026 78.3794 108.313C78.2714 108.6 78.2174 108.938 78.2174 109.327ZM85.3201 106.053L86.5224 108.342L87.7545 106.053H89.6176L87.7204 109.327L89.6688 112.602H87.8142L86.5224 110.338L85.2519 112.602H83.3761L85.3201 109.327L83.4443 106.053H85.3201Z" fill="#0B1530"/>
<rect x="53.7504" y="227.149" width="42.9061" height="20.7027" rx="3.75176" fill="#33F7C3"/>
<rect x="53.7504" y="227.149" width="42.9061" height="20.7027" rx="3.75176" stroke="#33F7C3" stroke-width="1.5007"/>
<path d="M60.9113 242V240.67L64.0193 237.792C64.2837 237.536 64.5053 237.306 64.6844 237.101C64.8663 236.897 65.0042 236.696 65.098 236.5C65.1917 236.301 65.2386 236.087 65.2386 235.856C65.2386 235.601 65.1804 235.38 65.0638 235.196C64.9473 235.008 64.7881 234.865 64.5863 234.765C64.3846 234.663 64.1557 234.612 63.8999 234.612C63.6328 234.612 63.3997 234.666 63.2008 234.774C63.0018 234.882 62.8483 235.037 62.7403 235.238C62.6323 235.44 62.5783 235.68 62.5783 235.959H60.8261C60.8261 235.388 60.9554 234.892 61.214 234.471C61.4727 234.05 61.8351 233.725 62.3012 233.495C62.7673 233.264 63.3045 233.149 63.9127 233.149C64.538 233.149 65.0823 233.26 65.5456 233.482C66.0117 233.701 66.3741 234.005 66.6328 234.394C66.8914 234.784 67.0207 235.23 67.0207 235.733C67.0207 236.063 66.9554 236.388 66.8246 236.709C66.6967 237.03 66.4679 237.387 66.1382 237.779C65.8085 238.169 65.3438 238.636 64.7441 239.182L63.4693 240.431V240.491H67.1358V242H60.9113ZM68.1537 240.465V239.011L71.7989 233.269H73.0523V235.281H72.3105L70.0125 238.918V238.986H75.1925V240.465H68.1537ZM72.3446 242V240.022L72.3787 239.378V233.269H74.1096V242H72.3446ZM76.4396 244.456V235.451H78.2302V236.551H78.3112C78.3908 236.375 78.5059 236.196 78.6565 236.014C78.81 235.829 79.0089 235.676 79.2534 235.554C79.5007 235.429 79.8076 235.366 80.1743 235.366C80.6518 235.366 81.0923 235.491 81.4959 235.741C81.8995 235.989 82.2221 236.362 82.4637 236.863C82.7053 237.36 82.8261 237.984 82.8261 238.734C82.8261 239.465 82.7081 240.081 82.4722 240.585C82.2392 241.085 81.9208 241.464 81.5172 241.723C81.1165 241.979 80.6674 242.107 80.17 242.107C79.8176 242.107 79.5177 242.048 79.2704 241.932C79.026 241.815 78.8256 241.669 78.6693 241.493C78.513 241.314 78.3936 241.133 78.3112 240.951H78.2558V244.456H76.4396ZM78.2174 238.726C78.2174 239.115 78.2714 239.455 78.3794 239.745C78.4874 240.035 78.6437 240.261 78.8484 240.423C79.053 240.582 79.3017 240.661 79.5944 240.661C79.89 240.661 80.1402 240.58 80.3448 240.418C80.5494 240.253 80.7043 240.026 80.8095 239.736C80.9175 239.443 80.9715 239.107 80.9715 238.726C80.9715 238.348 80.9189 238.015 80.8138 237.728C80.7086 237.441 80.5537 237.217 80.3491 237.055C80.1444 236.892 79.8929 236.811 79.5944 236.811C79.2989 236.811 79.0487 236.89 78.8441 237.046C78.6423 237.202 78.4874 237.424 78.3794 237.711C78.2714 237.998 78.2174 238.336 78.2174 238.726ZM85.3201 235.451L86.5224 237.741L87.7545 235.451H89.6176L87.7204 238.726L89.6688 242H87.8142L86.5224 239.736L85.2519 242H83.3761L85.3201 238.726L83.4443 235.451H85.3201Z" fill="#0B1530"/>
<rect x="53.7504" y="325.649" width="42.9061" height="20.7027" rx="3.75176" fill="#33F7C3"/>
<rect x="53.7504" y="325.649" width="42.9061" height="20.7027" rx="3.75176" stroke="#33F7C3" stroke-width="1.5007"/>
<path d="M60.9113 340.5V339.17L64.0193 336.292C64.2837 336.036 64.5053 335.806 64.6844 335.601C64.8663 335.397 65.0042 335.196 65.098 335C65.1917 334.801 65.2386 334.587 65.2386 334.356C65.2386 334.101 65.1804 333.88 65.0638 333.696C64.9473 333.508 64.7881 333.365 64.5863 333.265C64.3846 333.163 64.1557 333.112 63.8999 333.112C63.6328 333.112 63.3997 333.166 63.2008 333.274C63.0018 333.382 62.8483 333.537 62.7403 333.738C62.6323 333.94 62.5783 334.18 62.5783 334.459H60.8261C60.8261 333.888 60.9554 333.392 61.214 332.971C61.4727 332.55 61.8351 332.225 62.3012 331.995C62.7673 331.764 63.3045 331.649 63.9127 331.649C64.538 331.649 65.0823 331.76 65.5456 331.982C66.0117 332.201 66.3741 332.505 66.6328 332.894C66.8914 333.284 67.0207 333.73 67.0207 334.233C67.0207 334.563 66.9554 334.888 66.8246 335.209C66.6967 335.53 66.4679 335.887 66.1382 336.279C65.8085 336.669 65.3438 337.136 64.7441 337.682L63.4693 338.931V338.991H67.1358V340.5H60.9113ZM68.1537 338.965V337.511L71.7989 331.769H73.0523V333.781H72.3105L70.0125 337.418V337.486H75.1925V338.965H68.1537ZM72.3446 340.5V338.522L72.3787 337.878V331.769H74.1096V340.5H72.3446ZM76.4396 342.956V333.951H78.2302V335.051H78.3112C78.3908 334.875 78.5059 334.696 78.6565 334.514C78.81 334.329 79.0089 334.176 79.2534 334.054C79.5007 333.929 79.8076 333.866 80.1743 333.866C80.6518 333.866 81.0923 333.991 81.4959 334.241C81.8995 334.489 82.2221 334.862 82.4637 335.363C82.7053 335.86 82.8261 336.484 82.8261 337.234C82.8261 337.965 82.7081 338.581 82.4722 339.085C82.2392 339.585 81.9208 339.964 81.5172 340.223C81.1165 340.479 80.6674 340.607 80.17 340.607C79.8176 340.607 79.5177 340.548 79.2704 340.432C79.026 340.315 78.8256 340.169 78.6693 339.993C78.513 339.814 78.3936 339.633 78.3112 339.451H78.2558V342.956H76.4396ZM78.2174 337.226C78.2174 337.615 78.2714 337.955 78.3794 338.245C78.4874 338.535 78.6437 338.761 78.8484 338.923C79.053 339.082 79.3017 339.161 79.5944 339.161C79.89 339.161 80.1402 339.08 80.3448 338.918C80.5494 338.753 80.7043 338.526 80.8095 338.236C80.9175 337.943 80.9715 337.607 80.9715 337.226C80.9715 336.848 80.9189 336.515 80.8138 336.228C80.7086 335.941 80.5537 335.717 80.3491 335.555C80.1444 335.392 79.8929 335.311 79.5944 335.311C79.2989 335.311 79.0487 335.39 78.8441 335.546C78.6423 335.702 78.4874 335.924 78.3794 336.211C78.2714 336.498 78.2174 336.836 78.2174 337.226ZM85.3201 333.951L86.5224 336.241L87.7545 333.951H89.6176L87.7204 337.226L89.6688 340.5H87.8142L86.5224 338.236L85.2519 340.5H83.3761L85.3201 337.226L83.4443 333.951H85.3201Z" fill="#0B1530"/>
<g filter="url(#filter0_d_711_2216)">
<rect x="122" y="92" width="584" height="260" rx="24" fill="white"/>
<path d="M157.668 130.476L155.792 126.92C156.52 126.416 157.379 125.977 158.368 125.604C159.637 125.137 160.953 124.904 162.316 124.904C164.5 124.904 166.171 125.464 167.328 126.584C168.261 127.461 168.728 128.637 168.728 130.112C168.728 131.139 168.457 132.035 167.916 132.8C167.468 133.453 166.889 133.948 166.18 134.284V134.368C167.001 134.629 167.692 135.021 168.252 135.544C169.148 136.403 169.596 137.448 169.596 138.68C169.596 140.584 168.821 142.068 167.272 143.132C166.04 143.991 164.285 144.42 162.008 144.42C160.309 144.42 158.807 144.149 157.5 143.608C156.38 143.141 155.353 142.488 154.42 141.648L156.884 138.12C157.444 138.755 158.097 139.277 158.844 139.688C159.647 140.099 160.487 140.304 161.364 140.304C162.223 140.304 162.904 140.145 163.408 139.828C163.987 139.473 164.276 138.96 164.276 138.288C164.276 137.709 163.996 137.243 163.436 136.888C162.988 136.589 162.223 136.44 161.14 136.44H159.32V132.688H160.524C161.943 132.688 162.913 132.427 163.436 131.904C163.753 131.587 163.912 131.195 163.912 130.728C163.912 130.205 163.669 129.767 163.184 129.412C162.736 129.095 162.139 128.936 161.392 128.936C160.608 128.936 159.88 129.104 159.208 129.44C158.723 129.683 158.209 130.028 157.668 130.476ZM181.935 132.688V131.484H186.415V144H181.935V142.628C181.076 143.823 179.779 144.42 178.043 144.42C176.288 144.42 174.786 143.757 173.535 142.432C172.34 141.163 171.743 139.632 171.743 137.84C171.743 135.787 172.387 134.116 173.675 132.828C174.851 131.652 176.354 131.064 178.183 131.064C179.714 131.064 180.964 131.605 181.935 132.688ZM179.191 134.872C178.444 134.872 177.791 135.143 177.231 135.684C176.634 136.263 176.335 136.944 176.335 137.728C176.335 138.549 176.624 139.231 177.203 139.772C177.8 140.332 178.472 140.612 179.219 140.612C179.984 140.612 180.656 140.323 181.235 139.744C181.795 139.184 182.075 138.512 182.075 137.728C182.075 136.925 181.786 136.244 181.207 135.684C180.628 135.143 179.956 134.872 179.191 134.872ZM189.501 144V131.484H198.293V135.152H193.981V144H189.501ZM206.838 134.872C206.072 134.872 205.4 135.143 204.822 135.684C204.243 136.225 203.954 136.907 203.954 137.728C203.954 138.475 204.243 139.137 204.822 139.716C205.382 140.276 206.054 140.556 206.838 140.556C207.603 140.556 208.266 140.276 208.826 139.716C209.404 139.175 209.694 138.512 209.694 137.728C209.694 136.944 209.404 136.263 208.826 135.684C208.247 135.143 207.584 134.872 206.838 134.872ZM212.41 133.136C213.698 134.387 214.342 135.917 214.342 137.728C214.342 139.539 213.698 141.079 212.41 142.348C211.01 143.729 209.143 144.42 206.81 144.42C204.495 144.42 202.638 143.729 201.238 142.348C199.95 141.079 199.306 139.539 199.306 137.728C199.306 135.917 199.95 134.387 201.238 133.136C202.656 131.755 204.514 131.064 206.81 131.064C209.087 131.064 210.954 131.755 212.41 133.136ZM229.975 131.484V144H225.495V135.152H222.303V138.736C222.303 140.64 221.864 142.049 220.987 142.964C220.203 143.767 219.027 144.168 217.459 144.168C216.88 144.168 216.283 144.112 215.667 144V140.752C216.451 140.845 217.039 140.687 217.431 140.276C217.804 139.884 217.991 139.212 217.991 138.26V131.484H229.975ZM240.088 134.872C239.322 134.872 238.65 135.143 238.072 135.684C237.493 136.225 237.204 136.907 237.204 137.728C237.204 138.475 237.493 139.137 238.072 139.716C238.632 140.276 239.304 140.556 240.088 140.556C240.853 140.556 241.516 140.276 242.076 139.716C242.654 139.175 242.944 138.512 242.944 137.728C242.944 136.944 242.654 136.263 242.076 135.684C241.497 135.143 240.834 134.872 240.088 134.872ZM245.66 133.136C246.948 134.387 247.592 135.917 247.592 137.728C247.592 139.539 246.948 141.079 245.66 142.348C244.26 143.729 242.393 144.42 240.06 144.42C237.745 144.42 235.888 143.729 234.488 142.348C233.2 141.079 232.556 139.539 232.556 137.728C232.556 135.917 233.2 134.387 234.488 133.136C235.906 131.755 237.764 131.064 240.06 131.064C242.337 131.064 244.204 131.755 245.66 133.136ZM250.177 131.484H257.849C259.342 131.484 260.406 131.783 261.041 132.38C261.619 132.921 261.909 133.649 261.909 134.564C261.909 135.292 261.731 135.917 261.377 136.44C261.078 136.869 260.621 137.215 260.005 137.476V137.532C260.733 137.681 261.33 137.971 261.797 138.4C262.394 138.941 262.693 139.66 262.693 140.556C262.693 141.564 262.394 142.367 261.797 142.964C261.106 143.655 260.089 144 258.745 144H250.177V131.484ZM254.657 136.468H256.337C256.878 136.468 257.261 136.375 257.485 136.188C257.709 135.983 257.821 135.684 257.821 135.292C257.821 134.937 257.718 134.676 257.513 134.508C257.289 134.303 256.887 134.2 256.309 134.2H254.657V136.468ZM254.657 141.284H256.645C257.111 141.284 257.475 141.163 257.737 140.92C257.979 140.677 258.101 140.379 258.101 140.024C258.101 139.632 257.989 139.324 257.765 139.1C257.559 138.895 257.186 138.792 256.645 138.792H254.657V141.284ZM272.025 134.872C271.26 134.872 270.588 135.143 270.009 135.684C269.43 136.225 269.141 136.907 269.141 137.728C269.141 138.475 269.43 139.137 270.009 139.716C270.569 140.276 271.241 140.556 272.025 140.556C272.79 140.556 273.453 140.276 274.013 139.716C274.592 139.175 274.881 138.512 274.881 137.728C274.881 136.944 274.592 136.263 274.013 135.684C273.434 135.143 272.772 134.872 272.025 134.872ZM277.597 133.136C278.885 134.387 279.529 135.917 279.529 137.728C279.529 139.539 278.885 141.079 277.597 142.348C276.197 143.729 274.33 144.42 271.997 144.42C269.682 144.42 267.825 143.729 266.425 142.348C265.137 141.079 264.493 139.539 264.493 137.728C264.493 135.917 265.137 134.387 266.425 133.136C267.844 131.755 269.701 131.064 271.997 131.064C274.274 131.064 276.141 131.755 277.597 133.136ZM282.114 144V131.484H286.594V136.608L290.374 131.484H296.002L290.822 137.364L296.478 144H290.682L286.594 138.456V144H282.114ZM304.591 144V131.484H309.071V136.608L312.851 131.484H318.479L313.299 137.364L318.955 144H313.159L309.071 138.456V144H304.591ZM326.685 134.872C325.92 134.872 325.248 135.143 324.669 135.684C324.091 136.225 323.801 136.907 323.801 137.728C323.801 138.475 324.091 139.137 324.669 139.716C325.229 140.276 325.901 140.556 326.685 140.556C327.451 140.556 328.113 140.276 328.673 139.716C329.252 139.175 329.541 138.512 329.541 137.728C329.541 136.944 329.252 136.263 328.673 135.684C328.095 135.143 327.432 134.872 326.685 134.872ZM332.257 133.136C333.545 134.387 334.189 135.917 334.189 137.728C334.189 139.539 333.545 141.079 332.257 142.348C330.857 143.729 328.991 144.42 326.657 144.42C324.343 144.42 322.485 143.729 321.085 142.348C319.797 141.079 319.153 139.539 319.153 137.728C319.153 135.917 319.797 134.387 321.085 133.136C322.504 131.755 324.361 131.064 326.657 131.064C328.935 131.064 330.801 131.755 332.257 133.136ZM341.254 142.796V150.412H336.774V131.484H341.254V132.856C342.206 131.661 343.485 131.064 345.09 131.064C346.845 131.064 348.329 131.671 349.542 132.884C350.812 134.153 351.446 135.768 351.446 137.728C351.446 139.725 350.774 141.377 349.43 142.684C348.254 143.841 346.826 144.42 345.146 144.42C343.597 144.42 342.3 143.879 341.254 142.796ZM343.998 134.872C343.214 134.872 342.542 135.152 341.982 135.712C341.404 136.291 341.114 136.981 341.114 137.784C341.114 138.531 341.404 139.193 341.982 139.772C342.542 140.332 343.214 140.612 343.998 140.612C344.801 140.612 345.464 140.332 345.986 139.772C346.565 139.193 346.854 138.531 346.854 137.784C346.854 136.981 346.565 136.291 345.986 135.712C345.464 135.152 344.801 134.872 343.998 134.872ZM361.056 134.872C360.291 134.872 359.619 135.143 359.04 135.684C358.462 136.225 358.172 136.907 358.172 137.728C358.172 138.475 358.462 139.137 359.04 139.716C359.6 140.276 360.272 140.556 361.056 140.556C361.822 140.556 362.484 140.276 363.044 139.716C363.623 139.175 363.912 138.512 363.912 137.728C363.912 136.944 363.623 136.263 363.044 135.684C362.466 135.143 361.803 134.872 361.056 134.872ZM366.628 133.136C367.916 134.387 368.56 135.917 368.56 137.728C368.56 139.539 367.916 141.079 366.628 142.348C365.228 143.729 363.362 144.42 361.028 144.42C358.714 144.42 356.856 143.729 355.456 142.348C354.168 141.079 353.524 139.539 353.524 137.728C353.524 135.917 354.168 134.387 355.456 133.136C356.875 131.755 358.732 131.064 361.028 131.064C363.306 131.064 365.172 131.755 366.628 133.136ZM373.133 144V135.152H369.885V131.484H380.861V135.152H377.613V144H373.133ZM382.685 144V131.484H387.165V136.608L390.945 131.484H396.573L391.393 137.364L397.049 144H391.253L387.165 138.456V144H382.685ZM398.626 131.484H403.106V137.924L408.062 131.484H411.954V144H407.474V137.392L402.574 144H398.626V131.484ZM415.032 131.484H419.512V137.924L424.468 131.484H428.36V144H423.88V137.392L418.98 144H415.032V131.484ZM423.852 125.072L426.848 126.136C426.55 127.256 425.915 128.115 424.944 128.712C424.123 129.235 423.04 129.496 421.696 129.496C420.352 129.496 419.27 129.235 418.448 128.712C417.478 128.115 416.843 127.256 416.544 126.136L419.54 125.072C419.69 125.576 419.904 125.968 420.184 126.248C420.539 126.621 421.043 126.808 421.696 126.808C422.35 126.808 422.854 126.621 423.208 126.248C423.488 125.968 423.703 125.576 423.852 125.072ZM437.974 131.484H442.454V137.924L447.41 131.484H451.302V144H446.822V137.392L441.922 144H437.974V131.484ZM467.428 131.484V144H462.948V135.152H459.756V138.736C459.756 140.64 459.317 142.049 458.44 142.964C457.656 143.767 456.48 144.168 454.912 144.168C454.333 144.168 453.736 144.112 453.12 144V140.752C453.904 140.845 454.492 140.687 454.884 140.276C455.257 139.884 455.444 139.212 455.444 138.26V131.484H467.428ZM470.513 131.484H474.993V137.924L479.949 131.484H483.841V144H479.361V137.392L474.461 144H470.513V131.484ZM506.502 131.484V144H502.022V135.152H498.83V138.736C498.83 140.64 498.391 142.049 497.514 142.964C496.73 143.767 495.554 144.168 493.986 144.168C493.407 144.168 492.81 144.112 492.194 144V140.752C492.978 140.845 493.566 140.687 493.958 140.276C494.331 139.884 494.518 139.212 494.518 138.26V131.484H506.502ZM522.299 134.872C521.496 134.872 520.824 135.143 520.283 135.684C519.704 136.263 519.415 136.944 519.415 137.728C519.415 138.493 519.704 139.165 520.283 139.744C520.806 140.285 521.478 140.556 522.299 140.556C523.083 140.556 523.746 140.285 524.287 139.744C524.847 139.184 525.127 138.493 525.127 137.672C525.127 136.925 524.866 136.263 524.343 135.684C523.839 135.143 523.158 134.872 522.299 134.872ZM514.067 135.712H515.383C515.812 134.387 516.606 133.295 517.763 132.436C519.014 131.521 520.516 131.064 522.271 131.064C524.567 131.064 526.434 131.755 527.871 133.136C529.159 134.424 529.803 135.936 529.803 137.672C529.803 139.539 529.159 141.097 527.871 142.348C526.49 143.729 524.576 144.42 522.131 144.42C519.835 144.42 518.071 143.785 516.839 142.516C516.018 141.657 515.495 140.565 515.271 139.24H514.067V144H509.587V131.484H514.067V135.712ZM535.808 132.828H536.004C536.974 131.689 538.384 131.12 540.232 131.12C542.266 131.12 543.918 131.708 545.188 132.884C546.364 133.985 546.952 135.497 546.952 137.42C546.952 139.436 546.308 141.088 545.02 142.376C543.657 143.739 541.79 144.42 539.42 144.42C537.105 144.42 535.304 143.757 534.016 142.432C532.597 140.976 531.888 138.783 531.888 135.852C531.888 132.1 532.784 129.291 534.576 127.424C535.192 126.808 535.882 126.323 536.648 125.968C537.432 125.613 538.44 125.315 539.672 125.072L540.484 124.904C541.473 124.717 542.108 124.484 542.388 124.204C542.63 123.924 542.752 123.616 542.752 123.28H546.644C546.513 124.251 546.13 125.156 545.496 125.996C544.898 126.78 544.04 127.377 542.92 127.788C542.509 127.937 541.426 128.255 539.672 128.74C538.384 129.095 537.469 129.552 536.928 130.112C536.274 130.821 535.901 131.727 535.808 132.828ZM539.42 134.816C538.673 134.816 538.029 135.059 537.488 135.544C536.853 136.104 536.536 136.813 536.536 137.672C536.536 138.531 536.853 139.249 537.488 139.828C538.029 140.313 538.673 140.556 539.42 140.556C540.185 140.556 540.829 140.313 541.352 139.828C541.986 139.231 542.304 138.475 542.304 137.56C542.304 136.776 541.986 136.104 541.352 135.544C540.792 135.059 540.148 134.816 539.42 134.816ZM556.564 134.872C555.799 134.872 555.127 135.143 554.548 135.684C553.969 136.225 553.68 136.907 553.68 137.728C553.68 138.475 553.969 139.137 554.548 139.716C555.108 140.276 555.78 140.556 556.564 140.556C557.329 140.556 557.992 140.276 558.552 139.716C559.131 139.175 559.42 138.512 559.42 137.728C559.42 136.944 559.131 136.263 558.552 135.684C557.973 135.143 557.311 134.872 556.564 134.872ZM562.136 133.136C563.424 134.387 564.068 135.917 564.068 137.728C564.068 139.539 563.424 141.079 562.136 142.348C560.736 143.729 558.869 144.42 556.536 144.42C554.221 144.42 552.364 143.729 550.964 142.348C549.676 141.079 549.032 139.539 549.032 137.728C549.032 135.917 549.676 134.387 550.964 133.136C552.383 131.755 554.24 131.064 556.536 131.064C558.813 131.064 560.68 131.755 562.136 133.136ZM566.653 131.484H571.133V137.924L576.089 131.484H579.981V144H575.501V137.392L570.601 144H566.653V131.484ZM575.473 125.072L578.469 126.136C578.171 127.256 577.536 128.115 576.565 128.712C575.744 129.235 574.661 129.496 573.317 129.496C571.973 129.496 570.891 129.235 570.069 128.712C569.099 128.115 568.464 127.256 568.165 126.136L571.161 125.072C571.311 125.576 571.525 125.968 571.805 126.248C572.16 126.621 572.664 126.808 573.317 126.808C573.971 126.808 574.475 126.621 574.829 126.248C575.109 125.968 575.324 125.576 575.473 125.072Z" fill="#0B1530"/>
<path d="M162.24 175.06H159V187H157.52V175.06H154.28V173.66H162.24V175.06ZM168.805 184.22L170.005 184.88C169.725 185.413 169.385 185.86 168.985 186.22C168.225 186.9 167.305 187.24 166.225 187.24C165.105 187.24 164.138 186.88 163.325 186.16C162.525 185.427 162.125 184.34 162.125 182.9C162.125 181.633 162.485 180.587 163.205 179.76C163.938 178.92 164.918 178.5 166.145 178.5C167.532 178.5 168.578 179.007 169.285 180.02C169.845 180.82 170.105 181.86 170.065 183.14H163.605C163.618 183.98 163.878 184.66 164.385 185.18C164.892 185.7 165.512 185.96 166.245 185.96C166.898 185.96 167.465 185.76 167.945 185.36C168.318 185.04 168.605 184.66 168.805 184.22ZM163.705 181.94H168.585C168.465 181.287 168.178 180.767 167.725 180.38C167.285 179.98 166.758 179.78 166.145 179.78C165.545 179.78 165.012 179.987 164.545 180.4C164.092 180.8 163.812 181.313 163.705 181.94ZM172.274 178.7H173.714V182.1L177.074 178.7H178.834L175.234 182.4L179.274 187H177.394L174.154 183.36L173.714 183.78V187H172.274V178.7ZM186.782 179.3V181.02C186.129 180.193 185.262 179.78 184.182 179.78C183.369 179.78 182.675 180.06 182.102 180.62C181.529 181.167 181.242 181.92 181.242 182.88C181.242 183.84 181.529 184.593 182.102 185.14C182.675 185.687 183.362 185.96 184.162 185.96C185.229 185.96 186.122 185.527 186.842 184.66V186.38C186.055 186.953 185.175 187.24 184.202 187.24C182.909 187.24 181.842 186.833 181.002 186.02C180.175 185.193 179.762 184.153 179.762 182.9C179.762 181.633 180.182 180.587 181.022 179.76C181.862 178.92 182.922 178.5 184.202 178.5C185.162 178.5 186.022 178.767 186.782 179.3ZM194.491 180.02H191.891V187H190.451V180.02H187.851V178.7H194.491V180.02ZM207.173 179.3V181.02C206.519 180.193 205.653 179.78 204.573 179.78C203.759 179.78 203.066 180.06 202.493 180.62C201.919 181.167 201.633 181.92 201.633 182.88C201.633 183.84 201.919 184.593 202.493 185.14C203.066 185.687 203.753 185.96 204.553 185.96C205.619 185.96 206.513 185.527 207.233 184.66V186.38C206.446 186.953 205.566 187.24 204.592 187.24C203.299 187.24 202.233 186.833 201.393 186.02C200.566 185.193 200.153 184.153 200.153 182.9C200.153 181.633 200.573 180.587 201.413 179.76C202.253 178.92 203.313 178.5 204.592 178.5C205.553 178.5 206.413 178.767 207.173 179.3ZM216.247 186C215.421 186.827 214.374 187.24 213.107 187.24C211.841 187.24 210.787 186.827 209.947 186C209.121 185.173 208.707 184.133 208.707 182.88C208.707 181.613 209.121 180.567 209.947 179.74C210.787 178.913 211.841 178.5 213.107 178.5C214.374 178.5 215.421 178.913 216.247 179.74C217.087 180.567 217.507 181.613 217.507 182.88C217.507 184.133 217.087 185.173 216.247 186ZM215.167 180.6C214.607 180.053 213.921 179.78 213.107 179.78C212.294 179.78 211.601 180.06 211.027 180.62C210.467 181.167 210.187 181.92 210.187 182.88C210.187 183.84 210.474 184.593 211.047 185.14C211.621 185.687 212.307 185.96 213.107 185.96C213.907 185.96 214.594 185.687 215.167 185.14C215.741 184.593 216.027 183.84 216.027 182.88C216.027 181.907 215.741 181.147 215.167 180.6ZM226.735 186C225.909 186.827 224.862 187.24 223.595 187.24C222.329 187.24 221.275 186.827 220.435 186C219.609 185.173 219.195 184.133 219.195 182.88C219.195 181.613 219.609 180.567 220.435 179.74C221.275 178.913 222.329 178.5 223.595 178.5C224.862 178.5 225.909 178.913 226.735 179.74C227.575 180.567 227.995 181.613 227.995 182.88C227.995 184.133 227.575 185.173 226.735 186ZM225.655 180.6C225.095 180.053 224.409 179.78 223.595 179.78C222.782 179.78 222.089 180.06 221.515 180.62C220.955 181.167 220.675 181.92 220.675 182.88C220.675 183.84 220.962 184.593 221.535 185.14C222.109 185.687 222.795 185.96 223.595 185.96C224.395 185.96 225.082 185.687 225.655 185.14C226.229 184.593 226.515 183.84 226.515 182.88C226.515 181.907 226.229 181.147 225.655 180.6ZM236.604 173H238.204C238.057 173.493 237.804 173.913 237.444 174.26C237.097 174.593 236.777 174.82 236.484 174.94C236.204 175.06 235.87 175.167 235.484 175.26C235.417 175.273 235.257 175.313 235.004 175.38C234.75 175.433 234.557 175.48 234.424 175.52C234.29 175.56 234.117 175.613 233.904 175.68C233.69 175.747 233.497 175.827 233.324 175.92C233.15 176.013 232.99 176.113 232.844 176.22C232.337 176.607 231.924 177.147 231.604 177.84C231.297 178.52 231.13 179.247 231.104 180.02H231.144C231.744 179.007 232.75 178.5 234.164 178.5C235.404 178.5 236.43 178.92 237.244 179.76C238.07 180.6 238.484 181.64 238.484 182.88C238.484 184.133 238.064 185.173 237.224 186C236.384 186.827 235.29 187.24 233.944 187.24C232.784 187.24 231.83 186.893 231.084 186.2C230.15 185.347 229.684 183.92 229.684 181.92C229.684 178.44 230.47 176.16 232.044 175.08C232.164 175 232.29 174.927 232.424 174.86C232.557 174.78 232.697 174.713 232.844 174.66C233.004 174.593 233.137 174.54 233.244 174.5C233.35 174.447 233.497 174.4 233.684 174.36C233.884 174.307 234.017 174.273 234.084 174.26C234.164 174.233 234.31 174.2 234.524 174.16C234.75 174.107 234.89 174.073 234.944 174.06C235.477 173.94 235.864 173.8 236.104 173.64C236.344 173.467 236.51 173.253 236.604 173ZM236.144 180.6C235.584 180.053 234.897 179.78 234.084 179.78C233.27 179.78 232.577 180.06 232.004 180.62C231.444 181.167 231.164 181.92 231.164 182.88C231.164 183.84 231.45 184.593 232.024 185.14C232.597 185.687 233.284 185.96 234.084 185.96C234.884 185.96 235.57 185.687 236.144 185.14C236.717 184.593 237.004 183.84 237.004 182.88C237.004 181.907 236.717 181.147 236.144 180.6ZM240.692 187V178.7H242.132V185.68H245.332V178.7H246.772V185.68H249.972V178.7H251.412V185.68H252.772V189.2H251.452V187H240.692ZM260.446 184.22L261.646 184.88C261.366 185.413 261.026 185.86 260.626 186.22C259.866 186.9 258.946 187.24 257.866 187.24C256.746 187.24 255.779 186.88 254.966 186.16C254.166 185.427 253.766 184.34 253.766 182.9C253.766 181.633 254.126 180.587 254.846 179.76C255.579 178.92 256.559 178.5 257.786 178.5C259.172 178.5 260.219 179.007 260.926 180.02C261.486 180.82 261.746 181.86 261.706 183.14H255.246C255.259 183.98 255.519 184.66 256.026 185.18C256.532 185.7 257.152 185.96 257.886 185.96C258.539 185.96 259.106 185.76 259.586 185.36C259.959 185.04 260.246 184.66 260.446 184.22ZM255.346 181.94H260.226C260.106 181.287 259.819 180.767 259.366 180.38C258.926 179.98 258.399 179.78 257.786 179.78C257.186 179.78 256.652 179.987 256.186 180.4C255.732 180.8 255.452 181.313 255.346 181.94ZM263.915 187V178.7H265.355V182.1H269.275V178.7H270.715V187H269.275V183.42H265.355V187H263.915ZM273.426 178.7H274.866V184.18L280.546 178.06V187H279.106V181.46L273.426 187.58V178.7ZM282.31 187L284.89 183.58C284.81 183.58 284.697 183.567 284.55 183.54C284.417 183.513 284.217 183.447 283.95 183.34C283.683 183.233 283.463 183.093 283.29 182.92C282.85 182.507 282.63 181.953 282.63 181.26C282.63 180.473 282.877 179.853 283.37 179.4C283.863 178.933 284.677 178.7 285.81 178.7H288.71V187H287.27V183.66H286.39L284.03 187H282.31ZM287.27 182.46V179.98H285.93C285.303 179.98 284.87 180.053 284.63 180.2C284.283 180.427 284.11 180.767 284.11 181.22C284.11 181.673 284.283 182.007 284.63 182.22C284.883 182.38 285.31 182.46 285.91 182.46H287.27ZM296.702 178.7H302.542V185.68H303.782V189.2H302.462V187H296.142V189.2H294.822V185.68C295.516 185.667 296.029 185.307 296.362 184.6C296.589 184.133 296.702 183.4 296.702 182.4V178.7ZM301.102 185.68V180.02H298.142V183.14C298.142 184.247 297.809 185.093 297.142 185.68H301.102ZM312.187 178.7V187H310.747V180.02H307.787V183.76C307.787 184.84 307.574 185.64 307.147 186.16C306.667 186.747 306 187.04 305.147 187.04C305.04 187.04 304.894 187.027 304.707 187V185.68C304.84 185.707 304.947 185.72 305.027 185.72C305.494 185.72 305.84 185.54 306.067 185.18C306.254 184.887 306.347 184.413 306.347 183.76V178.7H312.187ZM313.951 187L316.531 183.58C316.451 183.58 316.337 183.567 316.191 183.54C316.057 183.513 315.857 183.447 315.591 183.34C315.324 183.233 315.104 183.093 314.931 182.92C314.491 182.507 314.271 181.953 314.271 181.26C314.271 180.473 314.517 179.853 315.011 179.4C315.504 178.933 316.317 178.7 317.451 178.7H320.351V187H318.911V183.66H318.031L315.671 187H313.951ZM318.911 182.46V179.98H317.571C316.944 179.98 316.511 180.053 316.271 180.2C315.924 180.427 315.751 180.767 315.751 181.22C315.751 181.673 315.924 182.007 316.271 182.22C316.524 182.38 316.951 182.46 317.551 182.46H318.911ZM327.743 178.7H334.423V187H332.983V180.02H329.183V187H327.743V178.7ZM344.157 186C343.331 186.827 342.284 187.24 341.017 187.24C339.751 187.24 338.697 186.827 337.857 186C337.031 185.173 336.617 184.133 336.617 182.88C336.617 181.613 337.031 180.567 337.857 179.74C338.697 178.913 339.751 178.5 341.017 178.5C342.284 178.5 343.331 178.913 344.157 179.74C344.997 180.567 345.417 181.613 345.417 182.88C345.417 184.133 344.997 185.173 344.157 186ZM343.077 180.6C342.517 180.053 341.831 179.78 341.017 179.78C340.204 179.78 339.511 180.06 338.937 180.62C338.377 181.167 338.097 181.92 338.097 182.88C338.097 183.84 338.384 184.593 338.957 185.14C339.531 185.687 340.217 185.96 341.017 185.96C341.817 185.96 342.504 185.687 343.077 185.14C343.651 184.593 343.937 183.84 343.937 182.88C343.937 181.907 343.651 181.147 343.077 180.6ZM353.906 178.7V187H352.466V180.02H349.506V183.76C349.506 184.84 349.292 185.64 348.866 186.16C348.386 186.747 347.719 187.04 346.866 187.04C346.759 187.04 346.612 187.027 346.426 187V185.68C346.559 185.707 346.666 185.72 346.746 185.72C347.212 185.72 347.559 185.54 347.786 185.18C347.972 184.887 348.066 184.413 348.066 183.76V178.7H353.906ZM356.63 187V178.7H358.07V181.88H359.55C360.696 181.88 361.536 182.153 362.07 182.7C362.496 183.127 362.71 183.707 362.71 184.44C362.71 185.213 362.463 185.833 361.97 186.3C361.476 186.767 360.663 187 359.53 187H356.63ZM358.07 185.72H359.41C360.01 185.72 360.436 185.647 360.69 185.5C361.05 185.26 361.23 184.907 361.23 184.44C361.23 183.96 361.056 183.613 360.71 183.4C360.47 183.24 360.043 183.16 359.43 183.16H358.07V185.72ZM365.717 180.82L364.717 180C365.037 179.533 365.391 179.187 365.777 178.96C366.297 178.653 366.904 178.5 367.597 178.5C368.437 178.5 369.091 178.693 369.557 179.08C370.037 179.493 370.277 180.02 370.277 180.66C370.277 181.433 369.964 182.013 369.337 182.4C369.737 182.493 370.057 182.673 370.297 182.94C370.684 183.353 370.877 183.86 370.877 184.46C370.877 185.353 370.517 186.067 369.797 186.6C369.211 187.027 368.424 187.24 367.437 187.24C366.557 187.24 365.817 187.007 365.217 186.54C364.764 186.207 364.397 185.733 364.117 185.12L365.357 184.6C365.504 184.973 365.751 185.287 366.097 185.54C366.471 185.82 366.924 185.96 367.457 185.96C368.084 185.96 368.551 185.853 368.857 185.64C369.244 185.387 369.437 185 369.437 184.48C369.437 184.053 369.271 183.733 368.937 183.52C368.657 183.333 368.204 183.24 367.577 183.24H366.737V181.92H367.437C367.944 181.92 368.304 181.847 368.517 181.7C368.811 181.513 368.957 181.26 368.957 180.94C368.957 180.567 368.837 180.28 368.597 180.08C368.371 179.88 368.017 179.78 367.537 179.78C367.124 179.78 366.744 179.887 366.397 180.1C366.104 180.287 365.877 180.527 365.717 180.82ZM380.095 186C379.268 186.827 378.222 187.24 376.955 187.24C375.688 187.24 374.635 186.827 373.795 186C372.968 185.173 372.555 184.133 372.555 182.88C372.555 181.613 372.968 180.567 373.795 179.74C374.635 178.913 375.688 178.5 376.955 178.5C378.222 178.5 379.268 178.913 380.095 179.74C380.935 180.567 381.355 181.613 381.355 182.88C381.355 184.133 380.935 185.173 380.095 186ZM379.015 180.6C378.455 180.053 377.768 179.78 376.955 179.78C376.142 179.78 375.448 180.06 374.875 180.62C374.315 181.167 374.035 181.92 374.035 182.88C374.035 183.84 374.322 184.593 374.895 185.14C375.468 185.687 376.155 185.96 376.955 185.96C377.755 185.96 378.442 185.687 379.015 185.14C379.588 184.593 379.875 183.84 379.875 182.88C379.875 181.907 379.588 181.147 379.015 180.6ZM383.563 178.7H386.703C387.463 178.7 388.043 178.86 388.443 179.18C388.923 179.567 389.163 180.087 389.163 180.74C389.163 181.46 388.863 182.013 388.263 182.4C388.676 182.507 389.023 182.693 389.303 182.96C389.743 183.387 389.963 183.92 389.963 184.56C389.963 185.36 389.676 185.987 389.103 186.44C388.61 186.813 387.956 187 387.143 187H383.563V178.7ZM385.003 182.08H386.523C386.91 182.08 387.216 182 387.443 181.84C387.71 181.64 387.843 181.353 387.843 180.98C387.843 180.647 387.71 180.38 387.443 180.18C387.243 180.047 386.856 179.98 386.283 179.98H385.003V182.08ZM385.003 185.72H386.783C387.396 185.72 387.83 185.627 388.083 185.44C388.403 185.2 388.563 184.893 388.563 184.52C388.563 184.12 388.423 183.807 388.143 183.58C387.89 183.38 387.456 183.28 386.843 183.28H385.003V185.72ZM398.517 179.88V178.7H399.957V187H398.517V185.84C397.797 186.773 396.85 187.24 395.677 187.24C394.557 187.24 393.604 186.853 392.817 186.08C392.03 185.307 391.637 184.227 391.637 182.84C391.637 181.48 392.024 180.42 392.797 179.66C393.584 178.887 394.544 178.5 395.677 178.5C396.877 178.5 397.824 178.96 398.517 179.88ZM395.837 179.78C395.077 179.78 394.43 180.053 393.897 180.6C393.377 181.133 393.117 181.88 393.117 182.84C393.117 183.76 393.357 184.513 393.837 185.1C394.33 185.673 394.997 185.96 395.837 185.96C396.677 185.96 397.344 185.66 397.837 185.06C398.344 184.46 398.597 183.727 398.597 182.86C398.597 181.873 398.317 181.113 397.757 180.58C397.197 180.047 396.557 179.78 395.837 179.78ZM408.124 180.02H405.524V187H404.084V180.02H401.484V178.7H408.124V180.02ZM415.602 184.22L416.802 184.88C416.522 185.413 416.182 185.86 415.782 186.22C415.022 186.9 414.102 187.24 413.022 187.24C411.902 187.24 410.935 186.88 410.122 186.16C409.322 185.427 408.922 184.34 408.922 182.9C408.922 181.633 409.282 180.587 410.002 179.76C410.735 178.92 411.715 178.5 412.942 178.5C414.329 178.5 415.375 179.007 416.082 180.02C416.642 180.82 416.902 181.86 416.862 183.14H410.402C410.415 183.98 410.675 184.66 411.182 185.18C411.689 185.7 412.309 185.96 413.042 185.96C413.695 185.96 414.262 185.76 414.742 185.36C415.115 185.04 415.402 184.66 415.602 184.22ZM410.502 181.94H415.382C415.262 181.287 414.975 180.767 414.522 180.38C414.082 179.98 413.555 179.78 412.942 179.78C412.342 179.78 411.809 179.987 411.342 180.4C410.889 180.8 410.609 181.313 410.502 181.94ZM425.351 178.7V187H423.911V180.02H420.951V183.76C420.951 184.84 420.738 185.64 420.311 186.16C419.831 186.747 419.164 187.04 418.311 187.04C418.204 187.04 418.058 187.027 417.871 187V185.68C418.004 185.707 418.111 185.72 418.191 185.72C418.658 185.72 419.004 185.54 419.231 185.18C419.418 184.887 419.511 184.413 419.511 183.76V178.7H425.351ZM427.115 187L429.695 183.58C429.615 183.58 429.502 183.567 429.355 183.54C429.222 183.513 429.022 183.447 428.755 183.34C428.488 183.233 428.268 183.093 428.095 182.92C427.655 182.507 427.435 181.953 427.435 181.26C427.435 180.473 427.682 179.853 428.175 179.4C428.668 178.933 429.482 178.7 430.615 178.7H433.515V187H432.075V183.66H431.195L428.835 187H427.115ZM432.075 182.46V179.98H430.735C430.108 179.98 429.675 180.053 429.435 180.2C429.088 180.427 428.915 180.767 428.915 181.22C428.915 181.673 429.088 182.007 429.435 182.22C429.688 182.38 430.115 182.46 430.715 182.46H432.075ZM435.359 189.66L436.999 185.04L438.319 185.52L436.299 190.04L435.359 189.66ZM452.555 184.22L453.755 184.88C453.475 185.413 453.135 185.86 452.735 186.22C451.975 186.9 451.055 187.24 449.975 187.24C448.855 187.24 447.888 186.88 447.075 186.16C446.275 185.427 445.875 184.34 445.875 182.9C445.875 181.633 446.235 180.587 446.955 179.76C447.688 178.92 448.668 178.5 449.895 178.5C451.282 178.5 452.328 179.007 453.035 180.02C453.595 180.82 453.855 181.86 453.815 183.14H447.355C447.368 183.98 447.628 184.66 448.135 185.18C448.642 185.7 449.262 185.96 449.995 185.96C450.648 185.96 451.215 185.76 451.695 185.36C452.068 185.04 452.355 184.66 452.555 184.22ZM447.455 181.94H452.335C452.215 181.287 451.928 180.767 451.475 180.38C451.035 179.98 450.508 179.78 449.895 179.78C449.295 179.78 448.762 179.987 448.295 180.4C447.842 180.8 447.562 181.313 447.455 181.94ZM462.524 179.3V181.02C461.871 180.193 461.004 179.78 459.924 179.78C459.111 179.78 458.417 180.06 457.844 180.62C457.271 181.167 456.984 181.92 456.984 182.88C456.984 183.84 457.271 184.593 457.844 185.14C458.417 185.687 459.104 185.96 459.904 185.96C460.971 185.96 461.864 185.527 462.584 184.66V186.38C461.797 186.953 460.917 187.24 459.944 187.24C458.651 187.24 457.584 186.833 456.744 186.02C455.917 185.193 455.504 184.153 455.504 182.9C455.504 181.633 455.924 180.587 456.764 179.76C457.604 178.92 458.664 178.5 459.944 178.5C460.904 178.5 461.764 178.767 462.524 179.3ZM471.074 178.7V187H469.634V180.02H466.674V183.76C466.674 184.84 466.46 185.64 466.034 186.16C465.554 186.747 464.887 187.04 464.034 187.04C463.927 187.04 463.78 187.027 463.594 187V185.68C463.727 185.707 463.834 185.72 463.914 185.72C464.38 185.72 464.727 185.54 464.954 185.18C465.14 184.887 465.234 184.413 465.234 183.76V178.7H471.074ZM473.798 178.7H475.238V184.18L480.918 178.06V187H479.478V181.46L473.798 187.58V178.7ZM495.329 186C494.503 186.827 493.456 187.24 492.189 187.24C490.923 187.24 489.869 186.827 489.029 186C488.203 185.173 487.789 184.133 487.789 182.88C487.789 181.613 488.203 180.567 489.029 179.74C489.869 178.913 490.923 178.5 492.189 178.5C493.456 178.5 494.503 178.913 495.329 179.74C496.169 180.567 496.589 181.613 496.589 182.88C496.589 184.133 496.169 185.173 495.329 186ZM494.249 180.6C493.689 180.053 493.003 179.78 492.189 179.78C491.376 179.78 490.683 180.06 490.109 180.62C489.549 181.167 489.269 181.92 489.269 182.88C489.269 183.84 489.556 184.593 490.129 185.14C490.703 185.687 491.389 185.96 492.189 185.96C492.989 185.96 493.676 185.687 494.249 185.14C494.823 184.593 495.109 183.84 495.109 182.88C495.109 181.907 494.823 181.147 494.249 180.6ZM498.798 187V178.7H500.238V182.1H504.158V178.7H505.598V187H504.158V183.42H500.238V187H498.798ZM513.577 178.7H519.417V185.68H520.657V189.2H519.337V187H513.017V189.2H511.697V185.68C512.391 185.667 512.904 185.307 513.237 184.6C513.464 184.133 513.577 183.4 513.577 182.4V178.7ZM517.977 185.68V180.02H515.017V183.14C515.017 184.247 514.684 185.093 514.017 185.68H517.977ZM529.062 178.7V187H527.622V180.02H524.662V183.76C524.662 184.84 524.449 185.64 524.022 186.16C523.542 186.747 522.875 187.04 522.022 187.04C521.915 187.04 521.769 187.027 521.582 187V185.68C521.715 185.707 521.822 185.72 521.902 185.72C522.369 185.72 522.715 185.54 522.942 185.18C523.129 184.887 523.222 184.413 523.222 183.76V178.7H529.062ZM531.786 178.7H533.226V184.18L538.906 178.06V187H537.466V181.46L531.786 187.58V178.7ZM541.63 187V178.7H543.07V182.1H546.99V178.7H548.43V187H546.99V183.42H543.07V187H541.63ZM551.141 187V178.7H552.581V182.1H556.501V178.7H557.941V187H556.501V183.42H552.581V187H551.141ZM560.653 187V178.7H562.093V181.88H563.573C564.72 181.88 565.56 182.153 566.093 182.7C566.52 183.127 566.733 183.707 566.733 184.44C566.733 185.213 566.486 185.833 565.993 186.3C565.5 186.767 564.686 187 563.553 187H560.653ZM562.093 185.72H563.433C564.033 185.72 564.46 185.647 564.713 185.5C565.073 185.26 565.253 184.907 565.253 184.44C565.253 183.96 565.08 183.613 564.733 183.4C564.493 183.24 564.066 183.16 563.453 183.16H562.093V185.72ZM567.733 187V178.7H569.173V187H567.733ZM571.883 178.7H573.323V184.18L579.003 178.06V187H577.563V181.46L571.883 187.58V178.7ZM572.603 175.12L573.803 174.66C574.043 175.46 574.61 175.86 575.503 175.86C576.397 175.86 576.963 175.46 577.203 174.66L578.403 175.12C578.19 175.72 577.823 176.193 577.303 176.54C576.797 176.887 576.197 177.06 575.503 177.06C574.81 177.06 574.203 176.887 573.683 176.54C573.177 176.193 572.817 175.72 572.603 175.12ZM580.847 189.66L582.487 185.04L583.807 185.52L581.787 190.04L580.847 189.66ZM160.8 204.02H158.2V211H156.76V204.02H154.16V202.7H160.8V204.02ZM169.138 210C168.311 210.827 167.264 211.24 165.998 211.24C164.731 211.24 163.678 210.827 162.838 210C162.011 209.173 161.598 208.133 161.598 206.88C161.598 205.613 162.011 204.567 162.838 203.74C163.678 202.913 164.731 202.5 165.998 202.5C167.264 202.5 168.311 202.913 169.138 203.74C169.978 204.567 170.398 205.613 170.398 206.88C170.398 208.133 169.978 209.173 169.138 210ZM168.058 204.6C167.498 204.053 166.811 203.78 165.998 203.78C165.184 203.78 164.491 204.06 163.918 204.62C163.358 205.167 163.078 205.92 163.078 206.88C163.078 207.84 163.364 208.593 163.938 209.14C164.511 209.687 165.198 209.96 165.998 209.96C166.798 209.96 167.484 209.687 168.058 209.14C168.631 208.593 168.918 207.84 168.918 206.88C168.918 205.907 168.631 205.147 168.058 204.6ZM177.274 202.7H183.954V211H182.514V204.02H178.714V211H177.274V202.7ZM192.829 208.22L194.029 208.88C193.749 209.413 193.409 209.86 193.009 210.22C192.249 210.9 191.329 211.24 190.249 211.24C189.129 211.24 188.162 210.88 187.349 210.16C186.549 209.427 186.149 208.34 186.149 206.9C186.149 205.633 186.509 204.587 187.229 203.76C187.962 202.92 188.942 202.5 190.169 202.5C191.555 202.5 192.602 203.007 193.309 204.02C193.869 204.82 194.129 205.86 194.089 207.14H187.629C187.642 207.98 187.902 208.66 188.409 209.18C188.915 209.7 189.535 209.96 190.269 209.96C190.922 209.96 191.489 209.76 191.969 209.36C192.342 209.04 192.629 208.66 192.829 208.22ZM187.729 205.94H192.609C192.489 205.287 192.202 204.767 191.749 204.38C191.309 203.98 190.782 203.78 190.169 203.78C189.569 203.78 189.035 203.987 188.569 204.4C188.115 204.8 187.835 205.313 187.729 205.94ZM197.738 209.84V215.6H196.298V202.7H197.738V203.86C198.471 202.953 199.418 202.5 200.578 202.5C201.818 202.5 202.798 202.94 203.518 203.82C204.251 204.687 204.618 205.713 204.618 206.9C204.618 208.1 204.258 209.127 203.538 209.98C202.818 210.82 201.851 211.24 200.638 211.24C199.424 211.24 198.458 210.773 197.738 209.84ZM200.438 209.96C201.251 209.96 201.904 209.667 202.398 209.08C202.891 208.48 203.138 207.753 203.138 206.9C203.138 205.94 202.864 205.18 202.318 204.62C201.771 204.06 201.138 203.78 200.418 203.78C199.698 203.78 199.058 204.06 198.498 204.62C197.938 205.18 197.658 205.933 197.658 206.88C197.658 207.747 197.911 208.48 198.418 209.08C198.938 209.667 199.611 209.96 200.438 209.96ZM212.985 208.22L214.185 208.88C213.905 209.413 213.565 209.86 213.165 210.22C212.405 210.9 211.485 211.24 210.405 211.24C209.285 211.24 208.318 210.88 207.505 210.16C206.705 209.427 206.305 208.34 206.305 206.9C206.305 205.633 206.665 204.587 207.385 203.76C208.118 202.92 209.098 202.5 210.325 202.5C211.712 202.5 212.758 203.007 213.465 204.02C214.025 204.82 214.285 205.86 214.245 207.14H207.785C207.798 207.98 208.058 208.66 208.565 209.18C209.072 209.7 209.692 209.96 210.425 209.96C211.078 209.96 211.645 209.76 212.125 209.36C212.498 209.04 212.785 208.66 212.985 208.22ZM207.885 205.94H212.765C212.645 205.287 212.358 204.767 211.905 204.38C211.465 203.98 210.938 203.78 210.325 203.78C209.725 203.78 209.192 203.987 208.725 204.4C208.272 204.8 207.992 205.313 207.885 205.94ZM216.454 211V202.7H217.894V206.1H221.814V202.7H223.254V211H221.814V207.42H217.894V211H216.454ZM232.985 210C232.159 210.827 231.112 211.24 229.845 211.24C228.579 211.24 227.525 210.827 226.685 210C225.859 209.173 225.445 208.133 225.445 206.88C225.445 205.613 225.859 204.567 226.685 203.74C227.525 202.913 228.579 202.5 229.845 202.5C231.112 202.5 232.159 202.913 232.985 203.74C233.825 204.567 234.245 205.613 234.245 206.88C234.245 208.133 233.825 209.173 232.985 210ZM231.905 204.6C231.345 204.053 230.659 203.78 229.845 203.78C229.032 203.78 228.339 204.06 227.765 204.62C227.205 205.167 226.925 205.92 226.925 206.88C226.925 207.84 227.212 208.593 227.785 209.14C228.359 209.687 229.045 209.96 229.845 209.96C230.645 209.96 231.332 209.687 231.905 209.14C232.479 208.593 232.765 207.84 232.765 206.88C232.765 205.907 232.479 205.147 231.905 204.6ZM242.954 203.3V205.02C242.3 204.193 241.434 203.78 240.354 203.78C239.54 203.78 238.847 204.06 238.274 204.62C237.7 205.167 237.414 205.92 237.414 206.88C237.414 207.84 237.7 208.593 238.274 209.14C238.847 209.687 239.534 209.96 240.334 209.96C241.4 209.96 242.294 209.527 243.014 208.66V210.38C242.227 210.953 241.347 211.24 240.374 211.24C239.08 211.24 238.014 210.833 237.174 210.02C236.347 209.193 235.934 208.153 235.934 206.9C235.934 205.633 236.354 204.587 237.194 203.76C238.034 202.92 239.094 202.5 240.374 202.5C241.334 202.5 242.194 202.767 242.954 203.3ZM245.223 202.7H246.663V208.18L252.343 202.06V211H250.903V205.46L245.223 211.58V202.7ZM260.507 204.02H257.907V211H256.467V204.02H253.867V202.7H260.507V204.02ZM268.325 203.3V205.02C267.672 204.193 266.805 203.78 265.725 203.78C264.912 203.78 264.218 204.06 263.645 204.62C263.072 205.167 262.785 205.92 262.785 206.88C262.785 207.84 263.072 208.593 263.645 209.14C264.218 209.687 264.905 209.96 265.705 209.96C266.772 209.96 267.665 209.527 268.385 208.66V210.38C267.598 210.953 266.718 211.24 265.745 211.24C264.452 211.24 263.385 210.833 262.545 210.02C261.718 209.193 261.305 208.153 261.305 206.9C261.305 205.633 261.725 204.587 262.565 203.76C263.405 202.92 264.465 202.5 265.745 202.5C266.705 202.5 267.565 202.767 268.325 203.3ZM269.634 211L272.214 207.58C272.134 207.58 272.021 207.567 271.874 207.54C271.741 207.513 271.541 207.447 271.274 207.34C271.008 207.233 270.788 207.093 270.614 206.92C270.174 206.507 269.954 205.953 269.954 205.26C269.954 204.473 270.201 203.853 270.694 203.4C271.188 202.933 272.001 202.7 273.134 202.7H276.034V211H274.594V207.66H273.714L271.354 211H269.634ZM274.594 206.46V203.98H273.254C272.628 203.98 272.194 204.053 271.954 204.2C271.608 204.427 271.434 204.767 271.434 205.22C271.434 205.673 271.608 206.007 271.954 206.22C272.208 206.38 272.634 206.46 273.234 206.46H274.594ZM283.426 211V202.7H284.866V206.1H288.786V202.7H290.226V211H288.786V207.42H284.866V211H283.426ZM299.298 203.88V202.7H300.738V211H299.298V209.84C298.578 210.773 297.631 211.24 296.458 211.24C295.338 211.24 294.385 210.853 293.598 210.08C292.811 209.307 292.418 208.227 292.418 206.84C292.418 205.48 292.805 204.42 293.578 203.66C294.365 202.887 295.325 202.5 296.458 202.5C297.658 202.5 298.605 202.96 299.298 203.88ZM296.618 203.78C295.858 203.78 295.211 204.053 294.678 204.6C294.158 205.133 293.898 205.88 293.898 206.84C293.898 207.76 294.138 208.513 294.618 209.1C295.111 209.673 295.778 209.96 296.618 209.96C297.458 209.96 298.125 209.66 298.618 209.06C299.125 208.46 299.378 207.727 299.378 206.86C299.378 205.873 299.098 205.113 298.538 204.58C297.978 204.047 297.338 203.78 296.618 203.78ZM308.133 211V202.7H309.573V206.1H313.493V202.7H314.933V211H313.493V207.42H309.573V211H308.133ZM323.805 208.22L325.005 208.88C324.725 209.413 324.385 209.86 323.985 210.22C323.225 210.9 322.305 211.24 321.225 211.24C320.105 211.24 319.138 210.88 318.325 210.16C317.525 209.427 317.125 208.34 317.125 206.9C317.125 205.633 317.485 204.587 318.205 203.76C318.938 202.92 319.918 202.5 321.145 202.5C322.532 202.5 323.578 203.007 324.285 204.02C324.845 204.82 325.105 205.86 325.065 207.14H318.605C318.618 207.98 318.878 208.66 319.385 209.18C319.892 209.7 320.512 209.96 321.245 209.96C321.898 209.96 322.465 209.76 322.945 209.36C323.318 209.04 323.605 208.66 323.805 208.22ZM318.705 205.94H323.585C323.465 205.287 323.178 204.767 322.725 204.38C322.285 203.98 321.758 203.78 321.145 203.78C320.545 203.78 320.012 203.987 319.545 204.4C319.092 204.8 318.812 205.313 318.705 205.94ZM333.774 203.3V205.02C333.121 204.193 332.254 203.78 331.174 203.78C330.361 203.78 329.667 204.06 329.094 204.62C328.521 205.167 328.234 205.92 328.234 206.88C328.234 207.84 328.521 208.593 329.094 209.14C329.667 209.687 330.354 209.96 331.154 209.96C332.221 209.96 333.114 209.527 333.834 208.66V210.38C333.047 210.953 332.167 211.24 331.194 211.24C329.901 211.24 328.834 210.833 327.994 210.02C327.167 209.193 326.754 208.153 326.754 206.9C326.754 205.633 327.174 204.587 328.014 203.76C328.854 202.92 329.914 202.5 331.194 202.5C332.154 202.5 333.014 202.767 333.774 203.3ZM336.044 202.7H337.484V206.1L340.844 202.7H342.604L339.004 206.4L343.044 211H341.164L337.924 207.36L337.484 207.78V211H336.044V202.7ZM351.11 210C350.284 210.827 349.237 211.24 347.97 211.24C346.704 211.24 345.65 210.827 344.81 210C343.984 209.173 343.57 208.133 343.57 206.88C343.57 205.613 343.984 204.567 344.81 203.74C345.65 202.913 346.704 202.5 347.97 202.5C349.237 202.5 350.284 202.913 351.11 203.74C351.95 204.567 352.37 205.613 352.37 206.88C352.37 208.133 351.95 209.173 351.11 210ZM350.03 204.6C349.47 204.053 348.784 203.78 347.97 203.78C347.157 203.78 346.464 204.06 345.89 204.62C345.33 205.167 345.05 205.92 345.05 206.88C345.05 207.84 345.337 208.593 345.91 209.14C346.484 209.687 347.17 209.96 347.97 209.96C348.77 209.96 349.457 209.687 350.03 209.14C350.604 208.593 350.89 207.84 350.89 206.88C350.89 205.907 350.604 205.147 350.03 204.6ZM360.859 202.7V211H359.419V204.02H356.459V207.76C356.459 208.84 356.245 209.64 355.819 210.16C355.339 210.747 354.672 211.04 353.819 211.04C353.712 211.04 353.565 211.027 353.379 211V209.68C353.512 209.707 353.619 209.72 353.699 209.72C354.165 209.72 354.512 209.54 354.739 209.18C354.925 208.887 355.019 208.413 355.019 207.76V202.7H360.859ZM363.583 211V202.7H365.023V205.88H366.503C367.649 205.88 368.489 206.153 369.023 206.7C369.449 207.127 369.663 207.707 369.663 208.44C369.663 209.213 369.416 209.833 368.923 210.3C368.429 210.767 367.616 211 366.483 211H363.583ZM365.023 209.72H366.363C366.963 209.72 367.389 209.647 367.643 209.5C368.003 209.26 368.183 208.907 368.183 208.44C368.183 207.96 368.009 207.613 367.663 207.4C367.423 207.24 366.996 207.16 366.383 207.16H365.023V209.72ZM371.59 202.7H373.03V206.1L376.39 202.7H378.15L374.55 206.4L378.59 211H376.71L373.47 207.36L373.03 207.78V211H371.59V202.7ZM386.657 210C385.831 210.827 384.784 211.24 383.517 211.24C382.251 211.24 381.197 210.827 380.357 210C379.531 209.173 379.117 208.133 379.117 206.88C379.117 205.613 379.531 204.567 380.357 203.74C381.197 202.913 382.251 202.5 383.517 202.5C384.784 202.5 385.831 202.913 386.657 203.74C387.497 204.567 387.917 205.613 387.917 206.88C387.917 208.133 387.497 209.173 386.657 210ZM385.577 204.6C385.017 204.053 384.331 203.78 383.517 203.78C382.704 203.78 382.011 204.06 381.437 204.62C380.877 205.167 380.597 205.92 380.597 206.88C380.597 207.84 380.884 208.593 381.457 209.14C382.031 209.687 382.717 209.96 383.517 209.96C384.317 209.96 385.004 209.687 385.577 209.14C386.151 208.593 386.437 207.84 386.437 206.88C386.437 205.907 386.151 205.147 385.577 204.6ZM401.294 203.3V205.02C400.64 204.193 399.774 203.78 398.694 203.78C397.88 203.78 397.187 204.06 396.614 204.62C396.04 205.167 395.754 205.92 395.754 206.88C395.754 207.84 396.04 208.593 396.614 209.14C397.187 209.687 397.874 209.96 398.674 209.96C399.74 209.96 400.634 209.527 401.354 208.66V210.38C400.567 210.953 399.687 211.24 398.714 211.24C397.42 211.24 396.354 210.833 395.514 210.02C394.687 209.193 394.274 208.153 394.274 206.9C394.274 205.633 394.694 204.587 395.534 203.76C396.374 202.92 397.434 202.5 398.714 202.5C399.674 202.5 400.534 202.767 401.294 203.3ZM409.003 204.02H406.403V211H404.963V204.02H402.363V202.7H409.003V204.02ZM411.956 209.84V215.6H410.516V202.7H411.956V203.86C412.69 202.953 413.636 202.5 414.796 202.5C416.036 202.5 417.016 202.94 417.736 203.82C418.47 204.687 418.836 205.713 418.836 206.9C418.836 208.1 418.476 209.127 417.756 209.98C417.036 210.82 416.07 211.24 414.856 211.24C413.643 211.24 412.676 210.773 411.956 209.84ZM414.656 209.96C415.47 209.96 416.123 209.667 416.616 209.08C417.11 208.48 417.356 207.753 417.356 206.9C417.356 205.94 417.083 205.18 416.536 204.62C415.99 204.06 415.356 203.78 414.636 203.78C413.916 203.78 413.276 204.06 412.716 204.62C412.156 205.18 411.876 205.933 411.876 206.88C411.876 207.747 412.13 208.48 412.636 209.08C413.156 209.667 413.83 209.96 414.656 209.96ZM428.064 210C427.237 210.827 426.19 211.24 424.924 211.24C423.657 211.24 422.604 210.827 421.764 210C420.937 209.173 420.524 208.133 420.524 206.88C420.524 205.613 420.937 204.567 421.764 203.74C422.604 202.913 423.657 202.5 424.924 202.5C426.19 202.5 427.237 202.913 428.064 203.74C428.904 204.567 429.324 205.613 429.324 206.88C429.324 208.133 428.904 209.173 428.064 210ZM426.984 204.6C426.424 204.053 425.737 203.78 424.924 203.78C424.11 203.78 423.417 204.06 422.844 204.62C422.284 205.167 422.004 205.92 422.004 206.88C422.004 207.84 422.29 208.593 422.864 209.14C423.437 209.687 424.124 209.96 424.924 209.96C425.724 209.96 426.41 209.687 426.984 209.14C427.557 208.593 427.844 207.84 427.844 206.88C427.844 205.907 427.557 205.147 426.984 204.6ZM431.532 202.7H432.972V206.1L436.332 202.7H438.092L434.492 206.4L438.532 211H436.652L433.412 207.36L432.972 207.78V211H431.532V202.7ZM440.189 210.9C439.989 210.7 439.889 210.467 439.889 210.2C439.889 209.933 439.989 209.7 440.189 209.5C440.389 209.3 440.623 209.2 440.889 209.2C441.156 209.2 441.389 209.3 441.589 209.5C441.789 209.7 441.889 209.933 441.889 210.2C441.889 210.467 441.789 210.7 441.589 210.9C441.389 211.1 441.156 211.2 440.889 211.2C440.623 211.2 440.389 211.1 440.189 210.9Z" fill="#0B1530"/>
<path d="M655 127L669 141" stroke="#B6B9C1" stroke-width="2" stroke-linecap="round"/>
<path d="M669 127L655 141" stroke="#B6B9C1" stroke-width="2" stroke-linecap="round"/>
<rect x="154" y="264" width="160" height="56" rx="16" fill="#457BF8"/>
<path d="M201.92 286.76V288.6C201.387 288.067 200.807 287.653 200.18 287.36C199.42 287.013 198.653 286.84 197.88 286.84C196.347 286.84 195.067 287.38 194.04 288.46C193.027 289.527 192.52 290.84 192.52 292.4C192.52 294.08 193.073 295.407 194.18 296.38C195.3 297.353 196.54 297.84 197.9 297.84C198.753 297.84 199.58 297.633 200.38 297.22C200.94 296.94 201.453 296.567 201.92 296.1V297.94C200.707 298.807 199.367 299.24 197.9 299.24C195.927 299.24 194.28 298.58 192.96 297.26C191.653 295.94 191 294.313 191 292.38C191 290.393 191.66 288.74 192.98 287.42C194.313 286.1 195.98 285.44 197.98 285.44C199.447 285.44 200.76 285.88 201.92 286.76ZM211.31 298C210.483 298.827 209.436 299.24 208.17 299.24C206.903 299.24 205.85 298.827 205.01 298C204.183 297.173 203.77 296.133 203.77 294.88C203.77 293.613 204.183 292.567 205.01 291.74C205.85 290.913 206.903 290.5 208.17 290.5C209.436 290.5 210.483 290.913 211.31 291.74C212.15 292.567 212.57 293.613 212.57 294.88C212.57 296.133 212.15 297.173 211.31 298ZM210.23 292.6C209.67 292.053 208.983 291.78 208.17 291.78C207.356 291.78 206.663 292.06 206.09 292.62C205.53 293.167 205.25 293.92 205.25 294.88C205.25 295.84 205.536 296.593 206.11 297.14C206.683 297.687 207.37 297.96 208.17 297.96C208.97 297.96 209.656 297.687 210.23 297.14C210.803 296.593 211.09 295.84 211.09 294.88C211.09 293.907 210.803 293.147 210.23 292.6ZM213.383 299L216.923 294.56L213.903 290.7H215.663L217.803 293.52L219.983 290.7H221.743L218.703 294.58L222.143 299H220.383L217.763 295.62L215.143 299H213.383ZM225.105 297.84V303.6H223.665V290.7H225.105V291.86C225.838 290.953 226.785 290.5 227.945 290.5C229.185 290.5 230.165 290.94 230.885 291.82C231.618 292.687 231.985 293.713 231.985 294.9C231.985 296.1 231.625 297.127 230.905 297.98C230.185 298.82 229.218 299.24 228.005 299.24C226.791 299.24 225.825 298.773 225.105 297.84ZM227.805 297.96C228.618 297.96 229.271 297.667 229.765 297.08C230.258 296.48 230.505 295.753 230.505 294.9C230.505 293.94 230.231 293.18 229.685 292.62C229.138 292.06 228.505 291.78 227.785 291.78C227.065 291.78 226.425 292.06 225.865 292.62C225.305 293.18 225.025 293.933 225.025 294.88C225.025 295.747 225.278 296.48 225.785 297.08C226.305 297.667 226.978 297.96 227.805 297.96ZM240.552 291.88V290.7H241.992V299H240.552V297.84C239.832 298.773 238.885 299.24 237.712 299.24C236.592 299.24 235.639 298.853 234.852 298.08C234.065 297.307 233.672 296.227 233.672 294.84C233.672 293.48 234.059 292.42 234.832 291.66C235.619 290.887 236.579 290.5 237.712 290.5C238.912 290.5 239.859 290.96 240.552 291.88ZM237.872 291.78C237.112 291.78 236.465 292.053 235.932 292.6C235.412 293.133 235.152 293.88 235.152 294.84C235.152 295.76 235.392 296.513 235.872 297.1C236.365 297.673 237.032 297.96 237.872 297.96C238.712 297.96 239.379 297.66 239.872 297.06C240.379 296.46 240.632 295.727 240.632 294.86C240.632 293.873 240.352 293.113 239.792 292.58C239.232 292.047 238.592 291.78 237.872 291.78ZM244.719 299V290.7H246.159V294.1H250.079V290.7H251.519V299H250.079V295.42H246.159V299H244.719ZM254.231 290.7H255.671V296.18L261.351 290.06V299H259.911V293.46L254.231 299.58V290.7ZM269.515 292.02H266.915V299H265.475V292.02H262.875V290.7H269.515V292.02ZM271.028 299V290.7H272.468V293.88H273.948C275.095 293.88 275.935 294.153 276.468 294.7C276.895 295.127 277.108 295.707 277.108 296.44C277.108 297.213 276.861 297.833 276.368 298.3C275.875 298.767 275.061 299 273.928 299H271.028ZM272.468 297.72H273.808C274.408 297.72 274.835 297.647 275.088 297.5C275.448 297.26 275.628 296.907 275.628 296.44C275.628 295.96 275.455 295.613 275.108 295.4C274.868 295.24 274.441 295.16 273.828 295.16H272.468V297.72Z" fill="white"/>
<rect x="330" y="264" width="151" height="56" rx="16" fill="#EFF0F3"/>
<path d="M378.86 297.26C377.527 298.58 375.887 299.24 373.94 299.24C371.993 299.24 370.347 298.58 369 297.26C367.667 295.94 367 294.3 367 292.34C367 290.367 367.673 288.727 369.02 287.42C370.367 286.1 372.007 285.44 373.94 285.44C375.873 285.44 377.513 286.1 378.86 287.42C380.207 288.727 380.88 290.367 380.88 292.34C380.88 294.3 380.207 295.94 378.86 297.26ZM377.78 288.44C376.727 287.373 375.447 286.84 373.94 286.84C372.433 286.84 371.153 287.373 370.1 288.44C369.047 289.507 368.52 290.807 368.52 292.34C368.52 293.873 369.047 295.173 370.1 296.24C371.153 297.307 372.433 297.84 373.94 297.84C375.447 297.84 376.727 297.307 377.78 296.24C378.833 295.173 379.36 293.873 379.36 292.34C379.36 290.807 378.833 289.507 377.78 288.44ZM388.679 292.02H386.079V299H384.639V292.02H382.039V290.7H388.679V292.02ZM389.232 299L391.232 290.06L394.672 296.82L398.032 290.06L400.032 299H398.552L397.452 293.86L394.632 299.58L391.772 293.86L390.712 299H389.232ZM407.954 296.22L409.154 296.88C408.874 297.413 408.534 297.86 408.134 298.22C407.374 298.9 406.454 299.24 405.374 299.24C404.254 299.24 403.287 298.88 402.474 298.16C401.674 297.427 401.274 296.34 401.274 294.9C401.274 293.633 401.634 292.587 402.354 291.76C403.087 290.92 404.067 290.5 405.294 290.5C406.68 290.5 407.727 291.007 408.434 292.02C408.994 292.82 409.254 293.86 409.214 295.14H402.754C402.767 295.98 403.027 296.66 403.534 297.18C404.04 297.7 404.66 297.96 405.394 297.96C406.047 297.96 406.614 297.76 407.094 297.36C407.467 297.04 407.754 296.66 407.954 296.22ZM402.854 293.94H407.734C407.614 293.287 407.327 292.767 406.874 292.38C406.434 291.98 405.907 291.78 405.294 291.78C404.694 291.78 404.16 291.987 403.694 292.4C403.24 292.8 402.96 293.313 402.854 293.94ZM411.423 299V290.7H412.863V294.1H416.783V290.7H418.223V299H416.783V295.42H412.863V299H411.423ZM420.934 290.7H422.374V296.18L428.054 290.06V299H426.614V293.46L420.934 299.58V290.7ZM436.218 292.02H433.618V299H432.178V292.02H429.578V290.7H436.218V292.02ZM437.731 299V290.7H439.171V293.88H440.651C441.798 293.88 442.638 294.153 443.171 294.7C443.598 295.127 443.811 295.707 443.811 296.44C443.811 297.213 443.564 297.833 443.071 298.3C442.578 298.767 441.764 299 440.631 299H437.731ZM439.171 297.72H440.511C441.111 297.72 441.538 297.647 441.791 297.5C442.151 297.26 442.331 296.907 442.331 296.44C442.331 295.96 442.158 295.613 441.811 295.4C441.571 295.24 441.144 295.16 440.531 295.16H439.171V297.72Z" fill="#457BF8"/>
</g>
<defs>
<filter id="filter0_d_711_2216" x="97" y="67" width="634" height="310" filterUnits="userSpaceOnUse" color-interpolation-filters="sRGB">
<feFlood flood-opacity="0" result="BackgroundImageFix"/>
<feColorMatrix in="SourceAlpha" type="matrix" values="0 0 0 0 0 0 0 0 0 0 0 0 0 0 0 0 0 0 127 0" result="hardAlpha"/>
<feOffset/>
<feGaussianBlur stdDeviation="12.5"/>
<feComposite in2="hardAlpha" operator="out"/>
<feColorMatrix type="matrix" values="0 0 0 0 0 0 0 0 0 0 0 0 0 0 0 0 0 0 0.07 0"/>
<feBlend mode="normal" in2="BackgroundImageFix" result="effect1_dropShadow_711_2216"/>
<feBlend mode="normal" in="SourceGraphic" in2="effect1_dropShadow_711_2216" result="shape"/>
</filter>
</defs>
</svg>
