<svg width="768" height="494" viewBox="0 0 768 494" fill="none" xmlns="http://www.w3.org/2000/svg">
<rect width="768" height="494" rx="24" fill="#F5F6F8"/>
<g filter="url(#filter0_d_704_2173)">
<rect x="92" y="114" width="584" height="260" rx="24" fill="white"/>
<path d="M625 149L639 163" stroke="#B6B9C1" stroke-width="2" stroke-linecap="round"/>
<path d="M639 149L625 163" stroke="#B6B9C1" stroke-width="2" stroke-linecap="round"/>
<rect x="124" y="286" width="126" height="56" rx="16" fill="#457BF8"/>
<rect x="266" y="286" width="126" height="56" rx="16" fill="#EFF0F3"/>
<rect x="123" y="189" width="433" height="10" rx="5" fill="#E7E8EA"/>
<rect x="123" y="146" width="433" height="20" rx="10" fill="#CED0D6"/>
<rect x="123" y="209" width="433" height="10" rx="5" fill="#E7E8EA"/>
<rect x="123" y="229" width="433" height="10" rx="5" fill="#E7E8EA"/>
<rect x="320.75" y="125.75" width="39.9061" height="20.7027" rx="3.75176" fill="#33F7C3"/>
<rect x="320.75" y="125.75" width="39.9061" height="20.7027" rx="3.75176" stroke="#33F7C3" stroke-width="1.5007"/>
<path d="M327.779 139.067V137.613L331.424 131.87H332.678V133.883H331.936L329.638 137.519V137.587H334.818V139.067H327.779ZM331.97 140.602V138.623L332.004 137.98V131.87H333.735V140.602H331.97ZM339.471 140.793C338.738 140.791 338.107 140.61 337.579 140.252C337.053 139.894 336.648 139.375 336.363 138.696C336.082 138.017 335.943 137.199 335.946 136.244C335.946 135.292 336.086 134.481 336.368 133.81C336.652 133.139 337.057 132.629 337.583 132.279C338.111 131.927 338.741 131.751 339.471 131.751C340.202 131.751 340.83 131.927 341.356 132.279C341.885 132.632 342.291 133.144 342.575 133.814C342.859 134.482 343 135.292 342.997 136.244C342.997 137.202 342.855 138.021 342.571 138.7C342.29 139.379 341.886 139.898 341.36 140.256C340.834 140.614 340.205 140.793 339.471 140.793ZM339.471 139.263C339.972 139.263 340.371 139.011 340.669 138.508C340.968 138.005 341.116 137.251 341.113 136.244C341.113 135.582 341.045 135.031 340.908 134.59C340.775 134.15 340.584 133.819 340.337 133.597C340.092 133.375 339.804 133.264 339.471 133.264C338.974 133.264 338.576 133.513 338.278 134.01C337.979 134.508 337.829 135.252 337.826 136.244C337.826 136.915 337.893 137.475 338.026 137.924C338.163 138.37 338.354 138.706 338.602 138.93C338.849 139.152 339.139 139.263 339.471 139.263ZM349.093 138.964V138.504C349.093 138.154 349.167 137.833 349.314 137.54C349.465 137.245 349.683 137.009 349.967 136.833C350.254 136.654 350.603 136.564 351.016 136.564C351.433 136.564 351.784 136.652 352.069 136.828C352.356 137.005 352.572 137.241 352.717 137.536C352.864 137.829 352.938 138.152 352.938 138.504V138.964C352.938 139.314 352.864 139.637 352.717 139.932C352.569 140.225 352.351 140.459 352.064 140.636C351.777 140.815 351.428 140.904 351.016 140.904C350.598 140.904 350.247 140.815 349.963 140.636C349.678 140.459 349.462 140.225 349.314 139.932C349.167 139.637 349.093 139.314 349.093 138.964ZM350.333 138.504V138.964C350.333 139.166 350.382 139.357 350.478 139.536C350.578 139.715 350.757 139.804 351.016 139.804C351.274 139.804 351.45 139.716 351.544 139.54C351.641 139.364 351.689 139.172 351.689 138.964V138.504C351.689 138.297 351.644 138.103 351.553 137.924C351.462 137.745 351.283 137.656 351.016 137.656C350.76 137.656 350.582 137.745 350.483 137.924C350.383 138.103 350.333 138.297 350.333 138.504ZM344.612 133.968V133.507C344.612 133.155 344.687 132.832 344.838 132.54C344.989 132.244 345.206 132.008 345.49 131.832C345.777 131.656 346.124 131.567 346.53 131.567C346.951 131.567 347.304 131.656 347.588 131.832C347.872 132.008 348.088 132.244 348.236 132.54C348.384 132.832 348.458 133.155 348.458 133.507V133.968C348.458 134.32 348.382 134.643 348.232 134.936C348.084 135.228 347.866 135.463 347.579 135.639C347.295 135.812 346.945 135.899 346.53 135.899C346.116 135.899 345.765 135.811 345.477 135.635C345.193 135.456 344.977 135.221 344.829 134.931C344.684 134.639 344.612 134.317 344.612 133.968ZM345.861 133.507V133.968C345.861 134.175 345.909 134.367 346.006 134.543C346.106 134.72 346.28 134.808 346.53 134.808C346.792 134.808 346.97 134.72 347.063 134.543C347.16 134.367 347.208 134.175 347.208 133.968V133.507C347.208 133.3 347.163 133.107 347.072 132.928C346.981 132.748 346.801 132.659 346.53 132.659C346.278 132.659 346.103 132.75 346.006 132.932C345.909 133.114 345.861 133.306 345.861 133.507ZM345.175 140.602L351.178 131.87H352.295L346.292 140.602H345.175Z" fill="#0B1530"/>
</g>
<path d="M2 24C2 11.8497 11.8497 2 24 2H744C756.15 2 766 11.8497 766 24V34H2V24Z" fill="white"/>
<circle cx="23" cy="18" r="5" fill="#FF6159"/>
<circle cx="41" cy="18" r="5" fill="#FEBC2E"/>
<circle cx="59" cy="18" r="5" fill="#26C940"/>
<path d="M372 238L372 34" stroke="#33F7C3" stroke-width="2"/>
<path d="M372 238L376 234" stroke="#33F7C3" stroke-width="2" stroke-linecap="round"/>
<path d="M372 238L368 234" stroke="#33F7C3" stroke-width="2" stroke-linecap="round"/>
<path d="M372 34L368 38" stroke="#33F7C3" stroke-width="2" stroke-linecap="round"/>
<path d="M372 34L376 38" stroke="#33F7C3" stroke-width="2" stroke-linecap="round"/>
<rect x="320.75" y="355.75" width="39.9061" height="20.7027" rx="3.75176" fill="#33F7C3"/>
<rect x="320.75" y="355.75" width="39.9061" height="20.7027" rx="3.75176" stroke="#33F7C3" stroke-width="1.5007"/>
<path d="M331.262 370.721C330.813 370.718 330.38 370.643 329.962 370.495C329.547 370.347 329.175 370.107 328.845 369.774C328.515 369.442 328.254 369.001 328.061 368.453C327.87 367.904 327.775 367.231 327.775 366.432C327.778 365.699 327.862 365.044 328.026 364.467C328.194 363.887 328.433 363.395 328.743 362.991C329.055 362.588 329.429 362.281 329.864 362.071C330.299 361.857 330.786 361.751 331.326 361.751C331.909 361.751 332.423 361.865 332.87 362.092C333.316 362.316 333.674 362.622 333.944 363.009C334.217 363.395 334.382 363.829 334.439 364.309H332.618C332.547 364.005 332.398 363.766 332.17 363.593C331.943 363.419 331.662 363.333 331.326 363.333C330.758 363.333 330.326 363.58 330.03 364.074C329.737 364.569 329.588 365.241 329.583 366.091H329.642C329.773 365.832 329.949 365.612 330.171 365.43C330.395 365.245 330.65 365.105 330.934 365.008C331.221 364.909 331.524 364.859 331.842 364.859C332.359 364.859 332.82 364.981 333.223 365.225C333.627 365.467 333.945 365.8 334.178 366.223C334.412 366.647 334.528 367.131 334.528 367.677C334.528 368.268 334.39 368.794 334.115 369.254C333.842 369.715 333.459 370.076 332.968 370.337C332.479 370.596 331.91 370.724 331.262 370.721ZM331.254 369.271C331.538 369.271 331.792 369.203 332.017 369.067C332.241 368.93 332.418 368.746 332.546 368.513C332.674 368.279 332.737 368.018 332.737 367.728C332.737 367.438 332.674 367.178 332.546 366.948C332.421 366.718 332.247 366.534 332.025 366.398C331.804 366.261 331.551 366.193 331.267 366.193C331.053 366.193 330.856 366.233 330.674 366.313C330.495 366.392 330.337 366.503 330.201 366.645C330.067 366.787 329.962 366.952 329.885 367.14C329.809 367.324 329.77 367.522 329.77 367.732C329.77 368.014 329.834 368.271 329.962 368.504C330.093 368.737 330.269 368.923 330.491 369.062C330.715 369.202 330.97 369.271 331.254 369.271ZM339.26 370.793C338.527 370.791 337.896 370.61 337.367 370.252C336.842 369.894 336.437 369.375 336.152 368.696C335.871 368.017 335.732 367.199 335.735 366.244C335.735 365.292 335.875 364.481 336.157 363.81C336.441 363.139 336.846 362.629 337.372 362.279C337.9 361.927 338.53 361.751 339.26 361.751C339.991 361.751 340.619 361.927 341.145 362.279C341.673 362.632 342.08 363.144 342.364 363.814C342.648 364.482 342.789 365.292 342.786 366.244C342.786 367.202 342.644 368.021 342.36 368.7C342.078 369.379 341.675 369.898 341.149 370.256C340.623 370.614 339.994 370.793 339.26 370.793ZM339.26 369.263C339.761 369.263 340.16 369.011 340.458 368.508C340.757 368.005 340.905 367.251 340.902 366.244C340.902 365.582 340.834 365.031 340.697 364.59C340.564 364.15 340.373 363.819 340.126 363.597C339.881 363.375 339.593 363.264 339.26 363.264C338.763 363.264 338.365 363.513 338.067 364.01C337.768 364.508 337.618 365.252 337.615 366.244C337.615 366.915 337.682 367.475 337.815 367.924C337.952 368.37 338.143 368.706 338.391 368.93C338.638 369.152 338.928 369.263 339.26 369.263ZM348.882 368.964V368.504C348.882 368.154 348.956 367.833 349.103 367.54C349.254 367.245 349.472 367.009 349.756 366.833C350.043 366.654 350.392 366.564 350.805 366.564C351.222 366.564 351.573 366.652 351.858 366.828C352.145 367.005 352.361 367.241 352.506 367.536C352.653 367.829 352.727 368.152 352.727 368.504V368.964C352.727 369.314 352.653 369.637 352.506 369.932C352.358 370.225 352.14 370.459 351.853 370.636C351.566 370.815 351.217 370.904 350.805 370.904C350.387 370.904 350.036 370.815 349.751 370.636C349.467 370.459 349.251 370.225 349.103 369.932C348.956 369.637 348.882 369.314 348.882 368.964ZM350.122 368.504V368.964C350.122 369.166 350.171 369.357 350.267 369.536C350.367 369.715 350.546 369.804 350.805 369.804C351.063 369.804 351.239 369.716 351.333 369.54C351.43 369.364 351.478 369.172 351.478 368.964V368.504C351.478 368.297 351.433 368.103 351.342 367.924C351.251 367.745 351.072 367.656 350.805 367.656C350.549 367.656 350.371 367.745 350.272 367.924C350.172 368.103 350.122 368.297 350.122 368.504ZM344.401 363.968V363.507C344.401 363.155 344.476 362.832 344.627 362.54C344.778 362.244 344.995 362.008 345.279 361.832C345.566 361.656 345.913 361.567 346.319 361.567C346.74 361.567 347.093 361.656 347.377 361.832C347.661 362.008 347.877 362.244 348.025 362.54C348.173 362.832 348.247 363.155 348.247 363.507V363.968C348.247 364.32 348.171 364.643 348.021 364.936C347.873 365.228 347.655 365.463 347.368 365.639C347.084 365.812 346.734 365.899 346.319 365.899C345.904 365.899 345.553 365.811 345.266 365.635C344.982 365.456 344.766 365.221 344.618 364.931C344.473 364.639 344.401 364.317 344.401 363.968ZM345.65 363.507V363.968C345.65 364.175 345.698 364.367 345.795 364.543C345.895 364.72 346.069 364.808 346.319 364.808C346.581 364.808 346.759 364.72 346.852 364.543C346.949 364.367 346.997 364.175 346.997 363.968V363.507C346.997 363.3 346.952 363.107 346.861 362.928C346.77 362.748 346.589 362.659 346.319 362.659C346.067 362.659 345.892 362.75 345.795 362.932C345.698 363.114 345.65 363.306 345.65 363.507ZM344.964 370.602L350.967 361.87H352.084L346.081 370.602H344.964Z" fill="#0B1530"/>
<path d="M372 492L372 240" stroke="#33F7C3" stroke-width="2"/>
<path d="M372 493L376 489" stroke="#33F7C3" stroke-width="2" stroke-linecap="round"/>
<path d="M372 493L368 489" stroke="#33F7C3" stroke-width="2" stroke-linecap="round"/>
<path d="M372 240L368 244" stroke="#33F7C3" stroke-width="2" stroke-linecap="round"/>
<path d="M372 240L376 244" stroke="#33F7C3" stroke-width="2" stroke-linecap="round"/>
<path d="M74 239L694 239" stroke="#33F7C3" stroke-width="2"/>
<defs>
<filter id="filter0_d_704_2173" x="67" y="89" width="634" height="310" filterUnits="userSpaceOnUse" color-interpolation-filters="sRGB">
<feFlood flood-opacity="0" result="BackgroundImageFix"/>
<feColorMatrix in="SourceAlpha" type="matrix" values="0 0 0 0 0 0 0 0 0 0 0 0 0 0 0 0 0 0 127 0" result="hardAlpha"/>
<feOffset/>
<feGaussianBlur stdDeviation="12.5"/>
<feComposite in2="hardAlpha" operator="out"/>
<feColorMatrix type="matrix" values="0 0 0 0 0 0 0 0 0 0 0 0 0 0 0 0 0 0 0.07 0"/>
<feBlend mode="normal" in2="BackgroundImageFix" result="effect1_dropShadow_704_2173"/>
<feBlend mode="normal" in="SourceGraphic" in2="effect1_dropShadow_704_2173" result="shape"/>
</filter>
</defs>
</svg>
