<svg width="768" height="364" viewBox="0 0 768 364" fill="none" xmlns="http://www.w3.org/2000/svg">
<path d="M0 0H744C757.255 0 768 10.7452 768 24V340C768 353.255 757.255 364 744 364H24C10.7452 364 0 353.255 0 340V0Z" fill="#F5F6F8"/>
<g filter="url(#filter0_d_711_2216)">
<rect x="92" y="52" width="584" height="260" rx="24" fill="white"/>
<path d="M127.668 90.476L125.792 86.92C126.52 86.416 127.379 85.9773 128.368 85.604C129.637 85.1373 130.953 84.904 132.316 84.904C134.5 84.904 136.171 85.464 137.328 86.584C138.261 87.4613 138.728 88.6373 138.728 90.112C138.728 91.1387 138.457 92.0347 137.916 92.8C137.468 93.4533 136.889 93.948 136.18 94.284V94.368C137.001 94.6293 137.692 95.0213 138.252 95.544C139.148 96.4027 139.596 97.448 139.596 98.68C139.596 100.584 138.821 102.068 137.272 103.132C136.04 103.991 134.285 104.42 132.008 104.42C130.309 104.42 128.807 104.149 127.5 103.608C126.38 103.141 125.353 102.488 124.42 101.648L126.884 98.12C127.444 98.7547 128.097 99.2773 128.844 99.688C129.647 100.099 130.487 100.304 131.364 100.304C132.223 100.304 132.904 100.145 133.408 99.828C133.987 99.4733 134.276 98.96 134.276 98.288C134.276 97.7093 133.996 97.2427 133.436 96.888C132.988 96.5893 132.223 96.44 131.14 96.44H129.32V92.688H130.524C131.943 92.688 132.913 92.4267 133.436 91.904C133.753 91.5867 133.912 91.1947 133.912 90.728C133.912 90.2053 133.669 89.7667 133.184 89.412C132.736 89.0947 132.139 88.936 131.392 88.936C130.608 88.936 129.88 89.104 129.208 89.44C128.723 89.6827 128.209 90.028 127.668 90.476ZM151.935 92.688V91.484H156.415V104H151.935V102.628C151.076 103.823 149.779 104.42 148.043 104.42C146.288 104.42 144.786 103.757 143.535 102.432C142.34 101.163 141.743 99.632 141.743 97.84C141.743 95.7867 142.387 94.116 143.675 92.828C144.851 91.652 146.354 91.064 148.183 91.064C149.714 91.064 150.964 91.6053 151.935 92.688ZM149.191 94.872C148.444 94.872 147.791 95.1427 147.231 95.684C146.634 96.2627 146.335 96.944 146.335 97.728C146.335 98.5493 146.624 99.2307 147.203 99.772C147.8 100.332 148.472 100.612 149.219 100.612C149.984 100.612 150.656 100.323 151.235 99.744C151.795 99.184 152.075 98.512 152.075 97.728C152.075 96.9253 151.786 96.244 151.207 95.684C150.628 95.1427 149.956 94.872 149.191 94.872ZM159.501 104V91.484H168.293V95.152H163.981V104H159.501ZM176.838 94.872C176.072 94.872 175.4 95.1427 174.822 95.684C174.243 96.2253 173.954 96.9067 173.954 97.728C173.954 98.4747 174.243 99.1373 174.822 99.716C175.382 100.276 176.054 100.556 176.838 100.556C177.603 100.556 178.266 100.276 178.826 99.716C179.404 99.1747 179.694 98.512 179.694 97.728C179.694 96.944 179.404 96.2627 178.826 95.684C178.247 95.1427 177.584 94.872 176.838 94.872ZM182.41 93.136C183.698 94.3867 184.342 95.9173 184.342 97.728C184.342 99.5387 183.698 101.079 182.41 102.348C181.01 103.729 179.143 104.42 176.81 104.42C174.495 104.42 172.638 103.729 171.238 102.348C169.95 101.079 169.306 99.5387 169.306 97.728C169.306 95.9173 169.95 94.3867 171.238 93.136C172.656 91.7547 174.514 91.064 176.81 91.064C179.087 91.064 180.954 91.7547 182.41 93.136ZM199.975 91.484V104H195.495V95.152H192.303V98.736C192.303 100.64 191.864 102.049 190.987 102.964C190.203 103.767 189.027 104.168 187.459 104.168C186.88 104.168 186.283 104.112 185.667 104V100.752C186.451 100.845 187.039 100.687 187.431 100.276C187.804 99.884 187.991 99.212 187.991 98.26V91.484H199.975ZM210.088 94.872C209.322 94.872 208.65 95.1427 208.072 95.684C207.493 96.2253 207.204 96.9067 207.204 97.728C207.204 98.4747 207.493 99.1373 208.072 99.716C208.632 100.276 209.304 100.556 210.088 100.556C210.853 100.556 211.516 100.276 212.076 99.716C212.654 99.1747 212.944 98.512 212.944 97.728C212.944 96.944 212.654 96.2627 212.076 95.684C211.497 95.1427 210.834 94.872 210.088 94.872ZM215.66 93.136C216.948 94.3867 217.592 95.9173 217.592 97.728C217.592 99.5387 216.948 101.079 215.66 102.348C214.26 103.729 212.393 104.42 210.06 104.42C207.745 104.42 205.888 103.729 204.488 102.348C203.2 101.079 202.556 99.5387 202.556 97.728C202.556 95.9173 203.2 94.3867 204.488 93.136C205.906 91.7547 207.764 91.064 210.06 91.064C212.337 91.064 214.204 91.7547 215.66 93.136ZM220.177 91.484H227.849C229.342 91.484 230.406 91.7827 231.041 92.38C231.619 92.9213 231.909 93.6493 231.909 94.564C231.909 95.292 231.731 95.9173 231.377 96.44C231.078 96.8693 230.621 97.2147 230.005 97.476V97.532C230.733 97.6813 231.33 97.9707 231.797 98.4C232.394 98.9413 232.693 99.66 232.693 100.556C232.693 101.564 232.394 102.367 231.797 102.964C231.106 103.655 230.089 104 228.745 104H220.177V91.484ZM224.657 96.468H226.337C226.878 96.468 227.261 96.3747 227.485 96.188C227.709 95.9827 227.821 95.684 227.821 95.292C227.821 94.9373 227.718 94.676 227.513 94.508C227.289 94.3027 226.887 94.2 226.309 94.2H224.657V96.468ZM224.657 101.284H226.645C227.111 101.284 227.475 101.163 227.737 100.92C227.979 100.677 228.101 100.379 228.101 100.024C228.101 99.632 227.989 99.324 227.765 99.1C227.559 98.8947 227.186 98.792 226.645 98.792H224.657V101.284ZM242.025 94.872C241.26 94.872 240.588 95.1427 240.009 95.684C239.43 96.2253 239.141 96.9067 239.141 97.728C239.141 98.4747 239.43 99.1373 240.009 99.716C240.569 100.276 241.241 100.556 242.025 100.556C242.79 100.556 243.453 100.276 244.013 99.716C244.592 99.1747 244.881 98.512 244.881 97.728C244.881 96.944 244.592 96.2627 244.013 95.684C243.434 95.1427 242.772 94.872 242.025 94.872ZM247.597 93.136C248.885 94.3867 249.529 95.9173 249.529 97.728C249.529 99.5387 248.885 101.079 247.597 102.348C246.197 103.729 244.33 104.42 241.997 104.42C239.682 104.42 237.825 103.729 236.425 102.348C235.137 101.079 234.493 99.5387 234.493 97.728C234.493 95.9173 235.137 94.3867 236.425 93.136C237.844 91.7547 239.701 91.064 241.997 91.064C244.274 91.064 246.141 91.7547 247.597 93.136ZM252.114 104V91.484H256.594V96.608L260.374 91.484H266.002L260.822 97.364L266.478 104H260.682L256.594 98.456V104H252.114ZM274.591 104V91.484H279.071V96.608L282.851 91.484H288.479L283.299 97.364L288.955 104H283.159L279.071 98.456V104H274.591ZM296.685 94.872C295.92 94.872 295.248 95.1427 294.669 95.684C294.091 96.2253 293.801 96.9067 293.801 97.728C293.801 98.4747 294.091 99.1373 294.669 99.716C295.229 100.276 295.901 100.556 296.685 100.556C297.451 100.556 298.113 100.276 298.673 99.716C299.252 99.1747 299.541 98.512 299.541 97.728C299.541 96.944 299.252 96.2627 298.673 95.684C298.095 95.1427 297.432 94.872 296.685 94.872ZM302.257 93.136C303.545 94.3867 304.189 95.9173 304.189 97.728C304.189 99.5387 303.545 101.079 302.257 102.348C300.857 103.729 298.991 104.42 296.657 104.42C294.343 104.42 292.485 103.729 291.085 102.348C289.797 101.079 289.153 99.5387 289.153 97.728C289.153 95.9173 289.797 94.3867 291.085 93.136C292.504 91.7547 294.361 91.064 296.657 91.064C298.935 91.064 300.801 91.7547 302.257 93.136ZM311.254 102.796V110.412H306.774V91.484H311.254V92.856C312.206 91.6613 313.485 91.064 315.09 91.064C316.845 91.064 318.329 91.6707 319.542 92.884C320.812 94.1533 321.446 95.768 321.446 97.728C321.446 99.7253 320.774 101.377 319.43 102.684C318.254 103.841 316.826 104.42 315.146 104.42C313.597 104.42 312.3 103.879 311.254 102.796ZM313.998 94.872C313.214 94.872 312.542 95.152 311.982 95.712C311.404 96.2907 311.114 96.9813 311.114 97.784C311.114 98.5307 311.404 99.1933 311.982 99.772C312.542 100.332 313.214 100.612 313.998 100.612C314.801 100.612 315.464 100.332 315.986 99.772C316.565 99.1933 316.854 98.5307 316.854 97.784C316.854 96.9813 316.565 96.2907 315.986 95.712C315.464 95.152 314.801 94.872 313.998 94.872ZM331.056 94.872C330.291 94.872 329.619 95.1427 329.04 95.684C328.462 96.2253 328.172 96.9067 328.172 97.728C328.172 98.4747 328.462 99.1373 329.04 99.716C329.6 100.276 330.272 100.556 331.056 100.556C331.822 100.556 332.484 100.276 333.044 99.716C333.623 99.1747 333.912 98.512 333.912 97.728C333.912 96.944 333.623 96.2627 333.044 95.684C332.466 95.1427 331.803 94.872 331.056 94.872ZM336.628 93.136C337.916 94.3867 338.56 95.9173 338.56 97.728C338.56 99.5387 337.916 101.079 336.628 102.348C335.228 103.729 333.362 104.42 331.028 104.42C328.714 104.42 326.856 103.729 325.456 102.348C324.168 101.079 323.524 99.5387 323.524 97.728C323.524 95.9173 324.168 94.3867 325.456 93.136C326.875 91.7547 328.732 91.064 331.028 91.064C333.306 91.064 335.172 91.7547 336.628 93.136ZM343.133 104V95.152H339.885V91.484H350.861V95.152H347.613V104H343.133ZM352.685 104V91.484H357.165V96.608L360.945 91.484H366.573L361.393 97.364L367.049 104H361.253L357.165 98.456V104H352.685ZM368.626 91.484H373.106V97.924L378.062 91.484H381.954V104H377.474V97.392L372.574 104H368.626V91.484ZM385.032 91.484H389.512V97.924L394.468 91.484H398.36V104H393.88V97.392L388.98 104H385.032V91.484ZM393.852 85.072L396.848 86.136C396.55 87.256 395.915 88.1147 394.944 88.712C394.123 89.2347 393.04 89.496 391.696 89.496C390.352 89.496 389.27 89.2347 388.448 88.712C387.478 88.1147 386.843 87.256 386.544 86.136L389.54 85.072C389.69 85.576 389.904 85.968 390.184 86.248C390.539 86.6213 391.043 86.808 391.696 86.808C392.35 86.808 392.854 86.6213 393.208 86.248C393.488 85.968 393.703 85.576 393.852 85.072ZM407.974 91.484H412.454V97.924L417.41 91.484H421.302V104H416.822V97.392L411.922 104H407.974V91.484ZM437.428 91.484V104H432.948V95.152H429.756V98.736C429.756 100.64 429.317 102.049 428.44 102.964C427.656 103.767 426.48 104.168 424.912 104.168C424.333 104.168 423.736 104.112 423.12 104V100.752C423.904 100.845 424.492 100.687 424.884 100.276C425.257 99.884 425.444 99.212 425.444 98.26V91.484H437.428ZM440.513 91.484H444.993V97.924L449.949 91.484H453.841V104H449.361V97.392L444.461 104H440.513V91.484ZM476.502 91.484V104H472.022V95.152H468.83V98.736C468.83 100.64 468.391 102.049 467.514 102.964C466.73 103.767 465.554 104.168 463.986 104.168C463.407 104.168 462.81 104.112 462.194 104V100.752C462.978 100.845 463.566 100.687 463.958 100.276C464.331 99.884 464.518 99.212 464.518 98.26V91.484H476.502ZM492.299 94.872C491.496 94.872 490.824 95.1427 490.283 95.684C489.704 96.2627 489.415 96.944 489.415 97.728C489.415 98.4933 489.704 99.1653 490.283 99.744C490.806 100.285 491.478 100.556 492.299 100.556C493.083 100.556 493.746 100.285 494.287 99.744C494.847 99.184 495.127 98.4933 495.127 97.672C495.127 96.9253 494.866 96.2627 494.343 95.684C493.839 95.1427 493.158 94.872 492.299 94.872ZM484.067 95.712H485.383C485.812 94.3867 486.606 93.2947 487.763 92.436C489.014 91.5213 490.516 91.064 492.271 91.064C494.567 91.064 496.434 91.7547 497.871 93.136C499.159 94.424 499.803 95.936 499.803 97.672C499.803 99.5387 499.159 101.097 497.871 102.348C496.49 103.729 494.576 104.42 492.131 104.42C489.835 104.42 488.071 103.785 486.839 102.516C486.018 101.657 485.495 100.565 485.271 99.24H484.067V104H479.587V91.484H484.067V95.712ZM505.808 92.828H506.004C506.974 91.6893 508.384 91.12 510.232 91.12C512.266 91.12 513.918 91.708 515.188 92.884C516.364 93.9853 516.952 95.4973 516.952 97.42C516.952 99.436 516.308 101.088 515.02 102.376C513.657 103.739 511.79 104.42 509.42 104.42C507.105 104.42 505.304 103.757 504.016 102.432C502.597 100.976 501.888 98.7827 501.888 95.852C501.888 92.1 502.784 89.2907 504.576 87.424C505.192 86.808 505.882 86.3227 506.648 85.968C507.432 85.6133 508.44 85.3147 509.672 85.072L510.484 84.904C511.473 84.7173 512.108 84.484 512.388 84.204C512.63 83.924 512.752 83.616 512.752 83.28H516.644C516.513 84.2507 516.13 85.156 515.496 85.996C514.898 86.78 514.04 87.3773 512.92 87.788C512.509 87.9373 511.426 88.2547 509.672 88.74C508.384 89.0947 507.469 89.552 506.928 90.112C506.274 90.8213 505.901 91.7267 505.808 92.828ZM509.42 94.816C508.673 94.816 508.029 95.0587 507.488 95.544C506.853 96.104 506.536 96.8133 506.536 97.672C506.536 98.5307 506.853 99.2493 507.488 99.828C508.029 100.313 508.673 100.556 509.42 100.556C510.185 100.556 510.829 100.313 511.352 99.828C511.986 99.2307 512.304 98.4747 512.304 97.56C512.304 96.776 511.986 96.104 511.352 95.544C510.792 95.0587 510.148 94.816 509.42 94.816ZM526.564 94.872C525.799 94.872 525.127 95.1427 524.548 95.684C523.969 96.2253 523.68 96.9067 523.68 97.728C523.68 98.4747 523.969 99.1373 524.548 99.716C525.108 100.276 525.78 100.556 526.564 100.556C527.329 100.556 527.992 100.276 528.552 99.716C529.131 99.1747 529.42 98.512 529.42 97.728C529.42 96.944 529.131 96.2627 528.552 95.684C527.973 95.1427 527.311 94.872 526.564 94.872ZM532.136 93.136C533.424 94.3867 534.068 95.9173 534.068 97.728C534.068 99.5387 533.424 101.079 532.136 102.348C530.736 103.729 528.869 104.42 526.536 104.42C524.221 104.42 522.364 103.729 520.964 102.348C519.676 101.079 519.032 99.5387 519.032 97.728C519.032 95.9173 519.676 94.3867 520.964 93.136C522.383 91.7547 524.24 91.064 526.536 91.064C528.813 91.064 530.68 91.7547 532.136 93.136ZM536.653 91.484H541.133V97.924L546.089 91.484H549.981V104H545.501V97.392L540.601 104H536.653V91.484ZM545.473 85.072L548.469 86.136C548.171 87.256 547.536 88.1147 546.565 88.712C545.744 89.2347 544.661 89.496 543.317 89.496C541.973 89.496 540.891 89.2347 540.069 88.712C539.099 88.1147 538.464 87.256 538.165 86.136L541.161 85.072C541.311 85.576 541.525 85.968 541.805 86.248C542.16 86.6213 542.664 86.808 543.317 86.808C543.971 86.808 544.475 86.6213 544.829 86.248C545.109 85.968 545.324 85.576 545.473 85.072Z" fill="#0B1530"/>
<path d="M132.24 135.06H129V147H127.52V135.06H124.28V133.66H132.24V135.06ZM138.805 144.22L140.005 144.88C139.725 145.413 139.385 145.86 138.985 146.22C138.225 146.9 137.305 147.24 136.225 147.24C135.105 147.24 134.138 146.88 133.325 146.16C132.525 145.427 132.125 144.34 132.125 142.9C132.125 141.633 132.485 140.587 133.205 139.76C133.938 138.92 134.918 138.5 136.145 138.5C137.532 138.5 138.578 139.007 139.285 140.02C139.845 140.82 140.105 141.86 140.065 143.14H133.605C133.618 143.98 133.878 144.66 134.385 145.18C134.892 145.7 135.512 145.96 136.245 145.96C136.898 145.96 137.465 145.76 137.945 145.36C138.318 145.04 138.605 144.66 138.805 144.22ZM133.705 141.94H138.585C138.465 141.287 138.178 140.767 137.725 140.38C137.285 139.98 136.758 139.78 136.145 139.78C135.545 139.78 135.012 139.987 134.545 140.4C134.092 140.8 133.812 141.313 133.705 141.94ZM142.274 138.7H143.714V142.1L147.074 138.7H148.834L145.234 142.4L149.274 147H147.394L144.154 143.36L143.714 143.78V147H142.274V138.7ZM156.782 139.3V141.02C156.129 140.193 155.262 139.78 154.182 139.78C153.369 139.78 152.675 140.06 152.102 140.62C151.529 141.167 151.242 141.92 151.242 142.88C151.242 143.84 151.529 144.593 152.102 145.14C152.675 145.687 153.362 145.96 154.162 145.96C155.229 145.96 156.122 145.527 156.842 144.66V146.38C156.055 146.953 155.175 147.24 154.202 147.24C152.909 147.24 151.842 146.833 151.002 146.02C150.175 145.193 149.762 144.153 149.762 142.9C149.762 141.633 150.182 140.587 151.022 139.76C151.862 138.92 152.922 138.5 154.202 138.5C155.162 138.5 156.022 138.767 156.782 139.3ZM164.491 140.02H161.891V147H160.451V140.02H157.851V138.7H164.491V140.02ZM177.173 139.3V141.02C176.519 140.193 175.653 139.78 174.573 139.78C173.759 139.78 173.066 140.06 172.493 140.62C171.919 141.167 171.633 141.92 171.633 142.88C171.633 143.84 171.919 144.593 172.493 145.14C173.066 145.687 173.753 145.96 174.553 145.96C175.619 145.96 176.513 145.527 177.233 144.66V146.38C176.446 146.953 175.566 147.24 174.592 147.24C173.299 147.24 172.233 146.833 171.393 146.02C170.566 145.193 170.153 144.153 170.153 142.9C170.153 141.633 170.573 140.587 171.413 139.76C172.253 138.92 173.313 138.5 174.592 138.5C175.553 138.5 176.413 138.767 177.173 139.3ZM186.247 146C185.421 146.827 184.374 147.24 183.107 147.24C181.841 147.24 180.787 146.827 179.947 146C179.121 145.173 178.707 144.133 178.707 142.88C178.707 141.613 179.121 140.567 179.947 139.74C180.787 138.913 181.841 138.5 183.107 138.5C184.374 138.5 185.421 138.913 186.247 139.74C187.087 140.567 187.507 141.613 187.507 142.88C187.507 144.133 187.087 145.173 186.247 146ZM185.167 140.6C184.607 140.053 183.921 139.78 183.107 139.78C182.294 139.78 181.601 140.06 181.027 140.62C180.467 141.167 180.187 141.92 180.187 142.88C180.187 143.84 180.474 144.593 181.047 145.14C181.621 145.687 182.307 145.96 183.107 145.96C183.907 145.96 184.594 145.687 185.167 145.14C185.741 144.593 186.027 143.84 186.027 142.88C186.027 141.907 185.741 141.147 185.167 140.6ZM196.735 146C195.909 146.827 194.862 147.24 193.595 147.24C192.329 147.24 191.275 146.827 190.435 146C189.609 145.173 189.195 144.133 189.195 142.88C189.195 141.613 189.609 140.567 190.435 139.74C191.275 138.913 192.329 138.5 193.595 138.5C194.862 138.5 195.909 138.913 196.735 139.74C197.575 140.567 197.995 141.613 197.995 142.88C197.995 144.133 197.575 145.173 196.735 146ZM195.655 140.6C195.095 140.053 194.409 139.78 193.595 139.78C192.782 139.78 192.089 140.06 191.515 140.62C190.955 141.167 190.675 141.92 190.675 142.88C190.675 143.84 190.962 144.593 191.535 145.14C192.109 145.687 192.795 145.96 193.595 145.96C194.395 145.96 195.082 145.687 195.655 145.14C196.229 144.593 196.515 143.84 196.515 142.88C196.515 141.907 196.229 141.147 195.655 140.6ZM206.604 133H208.204C208.057 133.493 207.804 133.913 207.444 134.26C207.097 134.593 206.777 134.82 206.484 134.94C206.204 135.06 205.87 135.167 205.484 135.26C205.417 135.273 205.257 135.313 205.004 135.38C204.75 135.433 204.557 135.48 204.424 135.52C204.29 135.56 204.117 135.613 203.904 135.68C203.69 135.747 203.497 135.827 203.324 135.92C203.15 136.013 202.99 136.113 202.844 136.22C202.337 136.607 201.924 137.147 201.604 137.84C201.297 138.52 201.13 139.247 201.104 140.02H201.144C201.744 139.007 202.75 138.5 204.164 138.5C205.404 138.5 206.43 138.92 207.244 139.76C208.07 140.6 208.484 141.64 208.484 142.88C208.484 144.133 208.064 145.173 207.224 146C206.384 146.827 205.29 147.24 203.944 147.24C202.784 147.24 201.83 146.893 201.084 146.2C200.15 145.347 199.684 143.92 199.684 141.92C199.684 138.44 200.47 136.16 202.044 135.08C202.164 135 202.29 134.927 202.424 134.86C202.557 134.78 202.697 134.713 202.844 134.66C203.004 134.593 203.137 134.54 203.244 134.5C203.35 134.447 203.497 134.4 203.684 134.36C203.884 134.307 204.017 134.273 204.084 134.26C204.164 134.233 204.31 134.2 204.524 134.16C204.75 134.107 204.89 134.073 204.944 134.06C205.477 133.94 205.864 133.8 206.104 133.64C206.344 133.467 206.51 133.253 206.604 133ZM206.144 140.6C205.584 140.053 204.897 139.78 204.084 139.78C203.27 139.78 202.577 140.06 202.004 140.62C201.444 141.167 201.164 141.92 201.164 142.88C201.164 143.84 201.45 144.593 202.024 145.14C202.597 145.687 203.284 145.96 204.084 145.96C204.884 145.96 205.57 145.687 206.144 145.14C206.717 144.593 207.004 143.84 207.004 142.88C207.004 141.907 206.717 141.147 206.144 140.6ZM210.692 147V138.7H212.132V145.68H215.332V138.7H216.772V145.68H219.972V138.7H221.412V145.68H222.772V149.2H221.452V147H210.692ZM230.446 144.22L231.646 144.88C231.366 145.413 231.026 145.86 230.626 146.22C229.866 146.9 228.946 147.24 227.866 147.24C226.746 147.24 225.779 146.88 224.966 146.16C224.166 145.427 223.766 144.34 223.766 142.9C223.766 141.633 224.126 140.587 224.846 139.76C225.579 138.92 226.559 138.5 227.786 138.5C229.172 138.5 230.219 139.007 230.926 140.02C231.486 140.82 231.746 141.86 231.706 143.14H225.246C225.259 143.98 225.519 144.66 226.026 145.18C226.532 145.7 227.152 145.96 227.886 145.96C228.539 145.96 229.106 145.76 229.586 145.36C229.959 145.04 230.246 144.66 230.446 144.22ZM225.346 141.94H230.226C230.106 141.287 229.819 140.767 229.366 140.38C228.926 139.98 228.399 139.78 227.786 139.78C227.186 139.78 226.652 139.987 226.186 140.4C225.732 140.8 225.452 141.313 225.346 141.94ZM233.915 147V138.7H235.355V142.1H239.275V138.7H240.715V147H239.275V143.42H235.355V147H233.915ZM243.426 138.7H244.866V144.18L250.546 138.06V147H249.106V141.46L243.426 147.58V138.7ZM252.31 147L254.89 143.58C254.81 143.58 254.697 143.567 254.55 143.54C254.417 143.513 254.217 143.447 253.95 143.34C253.683 143.233 253.463 143.093 253.29 142.92C252.85 142.507 252.63 141.953 252.63 141.26C252.63 140.473 252.877 139.853 253.37 139.4C253.863 138.933 254.677 138.7 255.81 138.7H258.71V147H257.27V143.66H256.39L254.03 147H252.31ZM257.27 142.46V139.98H255.93C255.303 139.98 254.87 140.053 254.63 140.2C254.283 140.427 254.11 140.767 254.11 141.22C254.11 141.673 254.283 142.007 254.63 142.22C254.883 142.38 255.31 142.46 255.91 142.46H257.27ZM266.702 138.7H272.542V145.68H273.782V149.2H272.462V147H266.142V149.2H264.822V145.68C265.516 145.667 266.029 145.307 266.362 144.6C266.589 144.133 266.702 143.4 266.702 142.4V138.7ZM271.102 145.68V140.02H268.142V143.14C268.142 144.247 267.809 145.093 267.142 145.68H271.102ZM282.187 138.7V147H280.747V140.02H277.787V143.76C277.787 144.84 277.574 145.64 277.147 146.16C276.667 146.747 276 147.04 275.147 147.04C275.04 147.04 274.894 147.027 274.707 147V145.68C274.84 145.707 274.947 145.72 275.027 145.72C275.494 145.72 275.84 145.54 276.067 145.18C276.254 144.887 276.347 144.413 276.347 143.76V138.7H282.187ZM283.951 147L286.531 143.58C286.451 143.58 286.337 143.567 286.191 143.54C286.057 143.513 285.857 143.447 285.591 143.34C285.324 143.233 285.104 143.093 284.931 142.92C284.491 142.507 284.271 141.953 284.271 141.26C284.271 140.473 284.517 139.853 285.011 139.4C285.504 138.933 286.317 138.7 287.451 138.7H290.351V147H288.911V143.66H288.031L285.671 147H283.951ZM288.911 142.46V139.98H287.571C286.944 139.98 286.511 140.053 286.271 140.2C285.924 140.427 285.751 140.767 285.751 141.22C285.751 141.673 285.924 142.007 286.271 142.22C286.524 142.38 286.951 142.46 287.551 142.46H288.911ZM297.743 138.7H304.423V147H302.983V140.02H299.183V147H297.743V138.7ZM314.157 146C313.331 146.827 312.284 147.24 311.017 147.24C309.751 147.24 308.697 146.827 307.857 146C307.031 145.173 306.617 144.133 306.617 142.88C306.617 141.613 307.031 140.567 307.857 139.74C308.697 138.913 309.751 138.5 311.017 138.5C312.284 138.5 313.331 138.913 314.157 139.74C314.997 140.567 315.417 141.613 315.417 142.88C315.417 144.133 314.997 145.173 314.157 146ZM313.077 140.6C312.517 140.053 311.831 139.78 311.017 139.78C310.204 139.78 309.511 140.06 308.937 140.62C308.377 141.167 308.097 141.92 308.097 142.88C308.097 143.84 308.384 144.593 308.957 145.14C309.531 145.687 310.217 145.96 311.017 145.96C311.817 145.96 312.504 145.687 313.077 145.14C313.651 144.593 313.937 143.84 313.937 142.88C313.937 141.907 313.651 141.147 313.077 140.6ZM323.906 138.7V147H322.466V140.02H319.506V143.76C319.506 144.84 319.292 145.64 318.866 146.16C318.386 146.747 317.719 147.04 316.866 147.04C316.759 147.04 316.612 147.027 316.426 147V145.68C316.559 145.707 316.666 145.72 316.746 145.72C317.212 145.72 317.559 145.54 317.786 145.18C317.972 144.887 318.066 144.413 318.066 143.76V138.7H323.906ZM326.63 147V138.7H328.07V141.88H329.55C330.696 141.88 331.536 142.153 332.07 142.7C332.496 143.127 332.71 143.707 332.71 144.44C332.71 145.213 332.463 145.833 331.97 146.3C331.476 146.767 330.663 147 329.53 147H326.63ZM328.07 145.72H329.41C330.01 145.72 330.436 145.647 330.69 145.5C331.05 145.26 331.23 144.907 331.23 144.44C331.23 143.96 331.056 143.613 330.71 143.4C330.47 143.24 330.043 143.16 329.43 143.16H328.07V145.72ZM335.717 140.82L334.717 140C335.037 139.533 335.391 139.187 335.777 138.96C336.297 138.653 336.904 138.5 337.597 138.5C338.437 138.5 339.091 138.693 339.557 139.08C340.037 139.493 340.277 140.02 340.277 140.66C340.277 141.433 339.964 142.013 339.337 142.4C339.737 142.493 340.057 142.673 340.297 142.94C340.684 143.353 340.877 143.86 340.877 144.46C340.877 145.353 340.517 146.067 339.797 146.6C339.211 147.027 338.424 147.24 337.437 147.24C336.557 147.24 335.817 147.007 335.217 146.54C334.764 146.207 334.397 145.733 334.117 145.12L335.357 144.6C335.504 144.973 335.751 145.287 336.097 145.54C336.471 145.82 336.924 145.96 337.457 145.96C338.084 145.96 338.551 145.853 338.857 145.64C339.244 145.387 339.437 145 339.437 144.48C339.437 144.053 339.271 143.733 338.937 143.52C338.657 143.333 338.204 143.24 337.577 143.24H336.737V141.92H337.437C337.944 141.92 338.304 141.847 338.517 141.7C338.811 141.513 338.957 141.26 338.957 140.94C338.957 140.567 338.837 140.28 338.597 140.08C338.371 139.88 338.017 139.78 337.537 139.78C337.124 139.78 336.744 139.887 336.397 140.1C336.104 140.287 335.877 140.527 335.717 140.82ZM350.095 146C349.268 146.827 348.222 147.24 346.955 147.24C345.688 147.24 344.635 146.827 343.795 146C342.968 145.173 342.555 144.133 342.555 142.88C342.555 141.613 342.968 140.567 343.795 139.74C344.635 138.913 345.688 138.5 346.955 138.5C348.222 138.5 349.268 138.913 350.095 139.74C350.935 140.567 351.355 141.613 351.355 142.88C351.355 144.133 350.935 145.173 350.095 146ZM349.015 140.6C348.455 140.053 347.768 139.78 346.955 139.78C346.142 139.78 345.448 140.06 344.875 140.62C344.315 141.167 344.035 141.92 344.035 142.88C344.035 143.84 344.322 144.593 344.895 145.14C345.468 145.687 346.155 145.96 346.955 145.96C347.755 145.96 348.442 145.687 349.015 145.14C349.588 144.593 349.875 143.84 349.875 142.88C349.875 141.907 349.588 141.147 349.015 140.6ZM353.563 138.7H356.703C357.463 138.7 358.043 138.86 358.443 139.18C358.923 139.567 359.163 140.087 359.163 140.74C359.163 141.46 358.863 142.013 358.263 142.4C358.676 142.507 359.023 142.693 359.303 142.96C359.743 143.387 359.963 143.92 359.963 144.56C359.963 145.36 359.676 145.987 359.103 146.44C358.61 146.813 357.956 147 357.143 147H353.563V138.7ZM355.003 142.08H356.523C356.91 142.08 357.216 142 357.443 141.84C357.71 141.64 357.843 141.353 357.843 140.98C357.843 140.647 357.71 140.38 357.443 140.18C357.243 140.047 356.856 139.98 356.283 139.98H355.003V142.08ZM355.003 145.72H356.783C357.396 145.72 357.83 145.627 358.083 145.44C358.403 145.2 358.563 144.893 358.563 144.52C358.563 144.12 358.423 143.807 358.143 143.58C357.89 143.38 357.456 143.28 356.843 143.28H355.003V145.72ZM368.517 139.88V138.7H369.957V147H368.517V145.84C367.797 146.773 366.85 147.24 365.677 147.24C364.557 147.24 363.604 146.853 362.817 146.08C362.03 145.307 361.637 144.227 361.637 142.84C361.637 141.48 362.024 140.42 362.797 139.66C363.584 138.887 364.544 138.5 365.677 138.5C366.877 138.5 367.824 138.96 368.517 139.88ZM365.837 139.78C365.077 139.78 364.43 140.053 363.897 140.6C363.377 141.133 363.117 141.88 363.117 142.84C363.117 143.76 363.357 144.513 363.837 145.1C364.33 145.673 364.997 145.96 365.837 145.96C366.677 145.96 367.344 145.66 367.837 145.06C368.344 144.46 368.597 143.727 368.597 142.86C368.597 141.873 368.317 141.113 367.757 140.58C367.197 140.047 366.557 139.78 365.837 139.78ZM378.124 140.02H375.524V147H374.084V140.02H371.484V138.7H378.124V140.02ZM385.602 144.22L386.802 144.88C386.522 145.413 386.182 145.86 385.782 146.22C385.022 146.9 384.102 147.24 383.022 147.24C381.902 147.24 380.935 146.88 380.122 146.16C379.322 145.427 378.922 144.34 378.922 142.9C378.922 141.633 379.282 140.587 380.002 139.76C380.735 138.92 381.715 138.5 382.942 138.5C384.329 138.5 385.375 139.007 386.082 140.02C386.642 140.82 386.902 141.86 386.862 143.14H380.402C380.415 143.98 380.675 144.66 381.182 145.18C381.689 145.7 382.309 145.96 383.042 145.96C383.695 145.96 384.262 145.76 384.742 145.36C385.115 145.04 385.402 144.66 385.602 144.22ZM380.502 141.94H385.382C385.262 141.287 384.975 140.767 384.522 140.38C384.082 139.98 383.555 139.78 382.942 139.78C382.342 139.78 381.809 139.987 381.342 140.4C380.889 140.8 380.609 141.313 380.502 141.94ZM395.351 138.7V147H393.911V140.02H390.951V143.76C390.951 144.84 390.738 145.64 390.311 146.16C389.831 146.747 389.164 147.04 388.311 147.04C388.204 147.04 388.058 147.027 387.871 147V145.68C388.004 145.707 388.111 145.72 388.191 145.72C388.658 145.72 389.004 145.54 389.231 145.18C389.418 144.887 389.511 144.413 389.511 143.76V138.7H395.351ZM397.115 147L399.695 143.58C399.615 143.58 399.502 143.567 399.355 143.54C399.222 143.513 399.022 143.447 398.755 143.34C398.488 143.233 398.268 143.093 398.095 142.92C397.655 142.507 397.435 141.953 397.435 141.26C397.435 140.473 397.682 139.853 398.175 139.4C398.668 138.933 399.482 138.7 400.615 138.7H403.515V147H402.075V143.66H401.195L398.835 147H397.115ZM402.075 142.46V139.98H400.735C400.108 139.98 399.675 140.053 399.435 140.2C399.088 140.427 398.915 140.767 398.915 141.22C398.915 141.673 399.088 142.007 399.435 142.22C399.688 142.38 400.115 142.46 400.715 142.46H402.075ZM405.359 149.66L406.999 145.04L408.319 145.52L406.299 150.04L405.359 149.66ZM422.555 144.22L423.755 144.88C423.475 145.413 423.135 145.86 422.735 146.22C421.975 146.9 421.055 147.24 419.975 147.24C418.855 147.24 417.888 146.88 417.075 146.16C416.275 145.427 415.875 144.34 415.875 142.9C415.875 141.633 416.235 140.587 416.955 139.76C417.688 138.92 418.668 138.5 419.895 138.5C421.282 138.5 422.328 139.007 423.035 140.02C423.595 140.82 423.855 141.86 423.815 143.14H417.355C417.368 143.98 417.628 144.66 418.135 145.18C418.642 145.7 419.262 145.96 419.995 145.96C420.648 145.96 421.215 145.76 421.695 145.36C422.068 145.04 422.355 144.66 422.555 144.22ZM417.455 141.94H422.335C422.215 141.287 421.928 140.767 421.475 140.38C421.035 139.98 420.508 139.78 419.895 139.78C419.295 139.78 418.762 139.987 418.295 140.4C417.842 140.8 417.562 141.313 417.455 141.94ZM432.524 139.3V141.02C431.871 140.193 431.004 139.78 429.924 139.78C429.111 139.78 428.417 140.06 427.844 140.62C427.271 141.167 426.984 141.92 426.984 142.88C426.984 143.84 427.271 144.593 427.844 145.14C428.417 145.687 429.104 145.96 429.904 145.96C430.971 145.96 431.864 145.527 432.584 144.66V146.38C431.797 146.953 430.917 147.24 429.944 147.24C428.651 147.24 427.584 146.833 426.744 146.02C425.917 145.193 425.504 144.153 425.504 142.9C425.504 141.633 425.924 140.587 426.764 139.76C427.604 138.92 428.664 138.5 429.944 138.5C430.904 138.5 431.764 138.767 432.524 139.3ZM441.074 138.7V147H439.634V140.02H436.674V143.76C436.674 144.84 436.46 145.64 436.034 146.16C435.554 146.747 434.887 147.04 434.034 147.04C433.927 147.04 433.78 147.027 433.594 147V145.68C433.727 145.707 433.834 145.72 433.914 145.72C434.38 145.72 434.727 145.54 434.954 145.18C435.14 144.887 435.234 144.413 435.234 143.76V138.7H441.074ZM443.798 138.7H445.238V144.18L450.918 138.06V147H449.478V141.46L443.798 147.58V138.7ZM465.329 146C464.503 146.827 463.456 147.24 462.189 147.24C460.923 147.24 459.869 146.827 459.029 146C458.203 145.173 457.789 144.133 457.789 142.88C457.789 141.613 458.203 140.567 459.029 139.74C459.869 138.913 460.923 138.5 462.189 138.5C463.456 138.5 464.503 138.913 465.329 139.74C466.169 140.567 466.589 141.613 466.589 142.88C466.589 144.133 466.169 145.173 465.329 146ZM464.249 140.6C463.689 140.053 463.003 139.78 462.189 139.78C461.376 139.78 460.683 140.06 460.109 140.62C459.549 141.167 459.269 141.92 459.269 142.88C459.269 143.84 459.556 144.593 460.129 145.14C460.703 145.687 461.389 145.96 462.189 145.96C462.989 145.96 463.676 145.687 464.249 145.14C464.823 144.593 465.109 143.84 465.109 142.88C465.109 141.907 464.823 141.147 464.249 140.6ZM468.798 147V138.7H470.238V142.1H474.158V138.7H475.598V147H474.158V143.42H470.238V147H468.798ZM483.577 138.7H489.417V145.68H490.657V149.2H489.337V147H483.017V149.2H481.697V145.68C482.391 145.667 482.904 145.307 483.237 144.6C483.464 144.133 483.577 143.4 483.577 142.4V138.7ZM487.977 145.68V140.02H485.017V143.14C485.017 144.247 484.684 145.093 484.017 145.68H487.977ZM499.062 138.7V147H497.622V140.02H494.662V143.76C494.662 144.84 494.449 145.64 494.022 146.16C493.542 146.747 492.875 147.04 492.022 147.04C491.915 147.04 491.769 147.027 491.582 147V145.68C491.715 145.707 491.822 145.72 491.902 145.72C492.369 145.72 492.715 145.54 492.942 145.18C493.129 144.887 493.222 144.413 493.222 143.76V138.7H499.062ZM501.786 138.7H503.226V144.18L508.906 138.06V147H507.466V141.46L501.786 147.58V138.7ZM511.63 147V138.7H513.07V142.1H516.99V138.7H518.43V147H516.99V143.42H513.07V147H511.63ZM521.141 147V138.7H522.581V142.1H526.501V138.7H527.941V147H526.501V143.42H522.581V147H521.141ZM530.653 147V138.7H532.093V141.88H533.573C534.72 141.88 535.56 142.153 536.093 142.7C536.52 143.127 536.733 143.707 536.733 144.44C536.733 145.213 536.486 145.833 535.993 146.3C535.5 146.767 534.686 147 533.553 147H530.653ZM532.093 145.72H533.433C534.033 145.72 534.46 145.647 534.713 145.5C535.073 145.26 535.253 144.907 535.253 144.44C535.253 143.96 535.08 143.613 534.733 143.4C534.493 143.24 534.066 143.16 533.453 143.16H532.093V145.72ZM537.733 147V138.7H539.173V147H537.733ZM541.883 138.7H543.323V144.18L549.003 138.06V147H547.563V141.46L541.883 147.58V138.7ZM542.603 135.12L543.803 134.66C544.043 135.46 544.61 135.86 545.503 135.86C546.397 135.86 546.963 135.46 547.203 134.66L548.403 135.12C548.19 135.72 547.823 136.193 547.303 136.54C546.797 136.887 546.197 137.06 545.503 137.06C544.81 137.06 544.203 136.887 543.683 136.54C543.177 136.193 542.817 135.72 542.603 135.12ZM550.847 149.66L552.487 145.04L553.807 145.52L551.787 150.04L550.847 149.66ZM130.8 164.02H128.2V171H126.76V164.02H124.16V162.7H130.8V164.02ZM139.138 170C138.311 170.827 137.264 171.24 135.998 171.24C134.731 171.24 133.678 170.827 132.838 170C132.011 169.173 131.598 168.133 131.598 166.88C131.598 165.613 132.011 164.567 132.838 163.74C133.678 162.913 134.731 162.5 135.998 162.5C137.264 162.5 138.311 162.913 139.138 163.74C139.978 164.567 140.398 165.613 140.398 166.88C140.398 168.133 139.978 169.173 139.138 170ZM138.058 164.6C137.498 164.053 136.811 163.78 135.998 163.78C135.184 163.78 134.491 164.06 133.918 164.62C133.358 165.167 133.078 165.92 133.078 166.88C133.078 167.84 133.364 168.593 133.938 169.14C134.511 169.687 135.198 169.96 135.998 169.96C136.798 169.96 137.484 169.687 138.058 169.14C138.631 168.593 138.918 167.84 138.918 166.88C138.918 165.907 138.631 165.147 138.058 164.6ZM147.274 162.7H153.954V171H152.514V164.02H148.714V171H147.274V162.7ZM162.829 168.22L164.029 168.88C163.749 169.413 163.409 169.86 163.009 170.22C162.249 170.9 161.329 171.24 160.249 171.24C159.129 171.24 158.162 170.88 157.349 170.16C156.549 169.427 156.149 168.34 156.149 166.9C156.149 165.633 156.509 164.587 157.229 163.76C157.962 162.92 158.942 162.5 160.169 162.5C161.555 162.5 162.602 163.007 163.309 164.02C163.869 164.82 164.129 165.86 164.089 167.14H157.629C157.642 167.98 157.902 168.66 158.409 169.18C158.915 169.7 159.535 169.96 160.269 169.96C160.922 169.96 161.489 169.76 161.969 169.36C162.342 169.04 162.629 168.66 162.829 168.22ZM157.729 165.94H162.609C162.489 165.287 162.202 164.767 161.749 164.38C161.309 163.98 160.782 163.78 160.169 163.78C159.569 163.78 159.035 163.987 158.569 164.4C158.115 164.8 157.835 165.313 157.729 165.94ZM167.738 169.84V175.6H166.298V162.7H167.738V163.86C168.471 162.953 169.418 162.5 170.578 162.5C171.818 162.5 172.798 162.94 173.518 163.82C174.251 164.687 174.618 165.713 174.618 166.9C174.618 168.1 174.258 169.127 173.538 169.98C172.818 170.82 171.851 171.24 170.638 171.24C169.424 171.24 168.458 170.773 167.738 169.84ZM170.438 169.96C171.251 169.96 171.904 169.667 172.398 169.08C172.891 168.48 173.138 167.753 173.138 166.9C173.138 165.94 172.864 165.18 172.318 164.62C171.771 164.06 171.138 163.78 170.418 163.78C169.698 163.78 169.058 164.06 168.498 164.62C167.938 165.18 167.658 165.933 167.658 166.88C167.658 167.747 167.911 168.48 168.418 169.08C168.938 169.667 169.611 169.96 170.438 169.96ZM182.985 168.22L184.185 168.88C183.905 169.413 183.565 169.86 183.165 170.22C182.405 170.9 181.485 171.24 180.405 171.24C179.285 171.24 178.318 170.88 177.505 170.16C176.705 169.427 176.305 168.34 176.305 166.9C176.305 165.633 176.665 164.587 177.385 163.76C178.118 162.92 179.098 162.5 180.325 162.5C181.712 162.5 182.758 163.007 183.465 164.02C184.025 164.82 184.285 165.86 184.245 167.14H177.785C177.798 167.98 178.058 168.66 178.565 169.18C179.072 169.7 179.692 169.96 180.425 169.96C181.078 169.96 181.645 169.76 182.125 169.36C182.498 169.04 182.785 168.66 182.985 168.22ZM177.885 165.94H182.765C182.645 165.287 182.358 164.767 181.905 164.38C181.465 163.98 180.938 163.78 180.325 163.78C179.725 163.78 179.192 163.987 178.725 164.4C178.272 164.8 177.992 165.313 177.885 165.94ZM186.454 171V162.7H187.894V166.1H191.814V162.7H193.254V171H191.814V167.42H187.894V171H186.454ZM202.985 170C202.159 170.827 201.112 171.24 199.845 171.24C198.579 171.24 197.525 170.827 196.685 170C195.859 169.173 195.445 168.133 195.445 166.88C195.445 165.613 195.859 164.567 196.685 163.74C197.525 162.913 198.579 162.5 199.845 162.5C201.112 162.5 202.159 162.913 202.985 163.74C203.825 164.567 204.245 165.613 204.245 166.88C204.245 168.133 203.825 169.173 202.985 170ZM201.905 164.6C201.345 164.053 200.659 163.78 199.845 163.78C199.032 163.78 198.339 164.06 197.765 164.62C197.205 165.167 196.925 165.92 196.925 166.88C196.925 167.84 197.212 168.593 197.785 169.14C198.359 169.687 199.045 169.96 199.845 169.96C200.645 169.96 201.332 169.687 201.905 169.14C202.479 168.593 202.765 167.84 202.765 166.88C202.765 165.907 202.479 165.147 201.905 164.6ZM212.954 163.3V165.02C212.3 164.193 211.434 163.78 210.354 163.78C209.54 163.78 208.847 164.06 208.274 164.62C207.7 165.167 207.414 165.92 207.414 166.88C207.414 167.84 207.7 168.593 208.274 169.14C208.847 169.687 209.534 169.96 210.334 169.96C211.4 169.96 212.294 169.527 213.014 168.66V170.38C212.227 170.953 211.347 171.24 210.374 171.24C209.08 171.24 208.014 170.833 207.174 170.02C206.347 169.193 205.934 168.153 205.934 166.9C205.934 165.633 206.354 164.587 207.194 163.76C208.034 162.92 209.094 162.5 210.374 162.5C211.334 162.5 212.194 162.767 212.954 163.3ZM215.223 162.7H216.663V168.18L222.343 162.06V171H220.903V165.46L215.223 171.58V162.7ZM230.507 164.02H227.907V171H226.467V164.02H223.867V162.7H230.507V164.02ZM238.325 163.3V165.02C237.672 164.193 236.805 163.78 235.725 163.78C234.912 163.78 234.218 164.06 233.645 164.62C233.072 165.167 232.785 165.92 232.785 166.88C232.785 167.84 233.072 168.593 233.645 169.14C234.218 169.687 234.905 169.96 235.705 169.96C236.772 169.96 237.665 169.527 238.385 168.66V170.38C237.598 170.953 236.718 171.24 235.745 171.24C234.452 171.24 233.385 170.833 232.545 170.02C231.718 169.193 231.305 168.153 231.305 166.9C231.305 165.633 231.725 164.587 232.565 163.76C233.405 162.92 234.465 162.5 235.745 162.5C236.705 162.5 237.565 162.767 238.325 163.3ZM239.634 171L242.214 167.58C242.134 167.58 242.021 167.567 241.874 167.54C241.741 167.513 241.541 167.447 241.274 167.34C241.008 167.233 240.788 167.093 240.614 166.92C240.174 166.507 239.954 165.953 239.954 165.26C239.954 164.473 240.201 163.853 240.694 163.4C241.188 162.933 242.001 162.7 243.134 162.7H246.034V171H244.594V167.66H243.714L241.354 171H239.634ZM244.594 166.46V163.98H243.254C242.628 163.98 242.194 164.053 241.954 164.2C241.608 164.427 241.434 164.767 241.434 165.22C241.434 165.673 241.608 166.007 241.954 166.22C242.208 166.38 242.634 166.46 243.234 166.46H244.594ZM253.426 171V162.7H254.866V166.1H258.786V162.7H260.226V171H258.786V167.42H254.866V171H253.426ZM269.298 163.88V162.7H270.738V171H269.298V169.84C268.578 170.773 267.631 171.24 266.458 171.24C265.338 171.24 264.385 170.853 263.598 170.08C262.811 169.307 262.418 168.227 262.418 166.84C262.418 165.48 262.805 164.42 263.578 163.66C264.365 162.887 265.325 162.5 266.458 162.5C267.658 162.5 268.605 162.96 269.298 163.88ZM266.618 163.78C265.858 163.78 265.211 164.053 264.678 164.6C264.158 165.133 263.898 165.88 263.898 166.84C263.898 167.76 264.138 168.513 264.618 169.1C265.111 169.673 265.778 169.96 266.618 169.96C267.458 169.96 268.125 169.66 268.618 169.06C269.125 168.46 269.378 167.727 269.378 166.86C269.378 165.873 269.098 165.113 268.538 164.58C267.978 164.047 267.338 163.78 266.618 163.78ZM278.133 171V162.7H279.573V166.1H283.493V162.7H284.933V171H283.493V167.42H279.573V171H278.133ZM293.805 168.22L295.005 168.88C294.725 169.413 294.385 169.86 293.985 170.22C293.225 170.9 292.305 171.24 291.225 171.24C290.105 171.24 289.138 170.88 288.325 170.16C287.525 169.427 287.125 168.34 287.125 166.9C287.125 165.633 287.485 164.587 288.205 163.76C288.938 162.92 289.918 162.5 291.145 162.5C292.532 162.5 293.578 163.007 294.285 164.02C294.845 164.82 295.105 165.86 295.065 167.14H288.605C288.618 167.98 288.878 168.66 289.385 169.18C289.892 169.7 290.512 169.96 291.245 169.96C291.898 169.96 292.465 169.76 292.945 169.36C293.318 169.04 293.605 168.66 293.805 168.22ZM288.705 165.94H293.585C293.465 165.287 293.178 164.767 292.725 164.38C292.285 163.98 291.758 163.78 291.145 163.78C290.545 163.78 290.012 163.987 289.545 164.4C289.092 164.8 288.812 165.313 288.705 165.94ZM303.774 163.3V165.02C303.121 164.193 302.254 163.78 301.174 163.78C300.361 163.78 299.667 164.06 299.094 164.62C298.521 165.167 298.234 165.92 298.234 166.88C298.234 167.84 298.521 168.593 299.094 169.14C299.667 169.687 300.354 169.96 301.154 169.96C302.221 169.96 303.114 169.527 303.834 168.66V170.38C303.047 170.953 302.167 171.24 301.194 171.24C299.901 171.24 298.834 170.833 297.994 170.02C297.167 169.193 296.754 168.153 296.754 166.9C296.754 165.633 297.174 164.587 298.014 163.76C298.854 162.92 299.914 162.5 301.194 162.5C302.154 162.5 303.014 162.767 303.774 163.3ZM306.044 162.7H307.484V166.1L310.844 162.7H312.604L309.004 166.4L313.044 171H311.164L307.924 167.36L307.484 167.78V171H306.044V162.7ZM321.11 170C320.284 170.827 319.237 171.24 317.97 171.24C316.704 171.24 315.65 170.827 314.81 170C313.984 169.173 313.57 168.133 313.57 166.88C313.57 165.613 313.984 164.567 314.81 163.74C315.65 162.913 316.704 162.5 317.97 162.5C319.237 162.5 320.284 162.913 321.11 163.74C321.95 164.567 322.37 165.613 322.37 166.88C322.37 168.133 321.95 169.173 321.11 170ZM320.03 164.6C319.47 164.053 318.784 163.78 317.97 163.78C317.157 163.78 316.464 164.06 315.89 164.62C315.33 165.167 315.05 165.92 315.05 166.88C315.05 167.84 315.337 168.593 315.91 169.14C316.484 169.687 317.17 169.96 317.97 169.96C318.77 169.96 319.457 169.687 320.03 169.14C320.604 168.593 320.89 167.84 320.89 166.88C320.89 165.907 320.604 165.147 320.03 164.6ZM330.859 162.7V171H329.419V164.02H326.459V167.76C326.459 168.84 326.245 169.64 325.819 170.16C325.339 170.747 324.672 171.04 323.819 171.04C323.712 171.04 323.565 171.027 323.379 171V169.68C323.512 169.707 323.619 169.72 323.699 169.72C324.165 169.72 324.512 169.54 324.739 169.18C324.925 168.887 325.019 168.413 325.019 167.76V162.7H330.859ZM333.583 171V162.7H335.023V165.88H336.503C337.649 165.88 338.489 166.153 339.023 166.7C339.449 167.127 339.663 167.707 339.663 168.44C339.663 169.213 339.416 169.833 338.923 170.3C338.429 170.767 337.616 171 336.483 171H333.583ZM335.023 169.72H336.363C336.963 169.72 337.389 169.647 337.643 169.5C338.003 169.26 338.183 168.907 338.183 168.44C338.183 167.96 338.009 167.613 337.663 167.4C337.423 167.24 336.996 167.16 336.383 167.16H335.023V169.72ZM341.59 162.7H343.03V166.1L346.39 162.7H348.15L344.55 166.4L348.59 171H346.71L343.47 167.36L343.03 167.78V171H341.59V162.7ZM356.657 170C355.831 170.827 354.784 171.24 353.517 171.24C352.251 171.24 351.197 170.827 350.357 170C349.531 169.173 349.117 168.133 349.117 166.88C349.117 165.613 349.531 164.567 350.357 163.74C351.197 162.913 352.251 162.5 353.517 162.5C354.784 162.5 355.831 162.913 356.657 163.74C357.497 164.567 357.917 165.613 357.917 166.88C357.917 168.133 357.497 169.173 356.657 170ZM355.577 164.6C355.017 164.053 354.331 163.78 353.517 163.78C352.704 163.78 352.011 164.06 351.437 164.62C350.877 165.167 350.597 165.92 350.597 166.88C350.597 167.84 350.884 168.593 351.457 169.14C352.031 169.687 352.717 169.96 353.517 169.96C354.317 169.96 355.004 169.687 355.577 169.14C356.151 168.593 356.437 167.84 356.437 166.88C356.437 165.907 356.151 165.147 355.577 164.6ZM371.294 163.3V165.02C370.64 164.193 369.774 163.78 368.694 163.78C367.88 163.78 367.187 164.06 366.614 164.62C366.04 165.167 365.754 165.92 365.754 166.88C365.754 167.84 366.04 168.593 366.614 169.14C367.187 169.687 367.874 169.96 368.674 169.96C369.74 169.96 370.634 169.527 371.354 168.66V170.38C370.567 170.953 369.687 171.24 368.714 171.24C367.42 171.24 366.354 170.833 365.514 170.02C364.687 169.193 364.274 168.153 364.274 166.9C364.274 165.633 364.694 164.587 365.534 163.76C366.374 162.92 367.434 162.5 368.714 162.5C369.674 162.5 370.534 162.767 371.294 163.3ZM379.003 164.02H376.403V171H374.963V164.02H372.363V162.7H379.003V164.02ZM381.956 169.84V175.6H380.516V162.7H381.956V163.86C382.69 162.953 383.636 162.5 384.796 162.5C386.036 162.5 387.016 162.94 387.736 163.82C388.47 164.687 388.836 165.713 388.836 166.9C388.836 168.1 388.476 169.127 387.756 169.98C387.036 170.82 386.07 171.24 384.856 171.24C383.643 171.24 382.676 170.773 381.956 169.84ZM384.656 169.96C385.47 169.96 386.123 169.667 386.616 169.08C387.11 168.48 387.356 167.753 387.356 166.9C387.356 165.94 387.083 165.18 386.536 164.62C385.99 164.06 385.356 163.78 384.636 163.78C383.916 163.78 383.276 164.06 382.716 164.62C382.156 165.18 381.876 165.933 381.876 166.88C381.876 167.747 382.13 168.48 382.636 169.08C383.156 169.667 383.83 169.96 384.656 169.96ZM398.064 170C397.237 170.827 396.19 171.24 394.924 171.24C393.657 171.24 392.604 170.827 391.764 170C390.937 169.173 390.524 168.133 390.524 166.88C390.524 165.613 390.937 164.567 391.764 163.74C392.604 162.913 393.657 162.5 394.924 162.5C396.19 162.5 397.237 162.913 398.064 163.74C398.904 164.567 399.324 165.613 399.324 166.88C399.324 168.133 398.904 169.173 398.064 170ZM396.984 164.6C396.424 164.053 395.737 163.78 394.924 163.78C394.11 163.78 393.417 164.06 392.844 164.62C392.284 165.167 392.004 165.92 392.004 166.88C392.004 167.84 392.29 168.593 392.864 169.14C393.437 169.687 394.124 169.96 394.924 169.96C395.724 169.96 396.41 169.687 396.984 169.14C397.557 168.593 397.844 167.84 397.844 166.88C397.844 165.907 397.557 165.147 396.984 164.6ZM401.532 162.7H402.972V166.1L406.332 162.7H408.092L404.492 166.4L408.532 171H406.652L403.412 167.36L402.972 167.78V171H401.532V162.7ZM410.189 170.9C409.989 170.7 409.889 170.467 409.889 170.2C409.889 169.933 409.989 169.7 410.189 169.5C410.389 169.3 410.623 169.2 410.889 169.2C411.156 169.2 411.389 169.3 411.589 169.5C411.789 169.7 411.889 169.933 411.889 170.2C411.889 170.467 411.789 170.7 411.589 170.9C411.389 171.1 411.156 171.2 410.889 171.2C410.623 171.2 410.389 171.1 410.189 170.9Z" fill="#0B1530"/>
<path d="M625 87L639 101" stroke="#B6B9C1" stroke-width="2" stroke-linecap="round"/>
<path d="M639 87L625 101" stroke="#B6B9C1" stroke-width="2" stroke-linecap="round"/>
<rect x="124" y="224" width="160" height="56" rx="16" fill="#457BF8"/>
<path d="M171.92 246.76V248.6C171.387 248.067 170.807 247.653 170.18 247.36C169.42 247.013 168.653 246.84 167.88 246.84C166.347 246.84 165.067 247.38 164.04 248.46C163.027 249.527 162.52 250.84 162.52 252.4C162.52 254.08 163.073 255.407 164.18 256.38C165.3 257.353 166.54 257.84 167.9 257.84C168.753 257.84 169.58 257.633 170.38 257.22C170.94 256.94 171.453 256.567 171.92 256.1V257.94C170.707 258.807 169.367 259.24 167.9 259.24C165.927 259.24 164.28 258.58 162.96 257.26C161.653 255.94 161 254.313 161 252.38C161 250.393 161.66 248.74 162.98 247.42C164.313 246.1 165.98 245.44 167.98 245.44C169.447 245.44 170.76 245.88 171.92 246.76ZM181.31 258C180.483 258.827 179.436 259.24 178.17 259.24C176.903 259.24 175.85 258.827 175.01 258C174.183 257.173 173.77 256.133 173.77 254.88C173.77 253.613 174.183 252.567 175.01 251.74C175.85 250.913 176.903 250.5 178.17 250.5C179.436 250.5 180.483 250.913 181.31 251.74C182.15 252.567 182.57 253.613 182.57 254.88C182.57 256.133 182.15 257.173 181.31 258ZM180.23 252.6C179.67 252.053 178.983 251.78 178.17 251.78C177.356 251.78 176.663 252.06 176.09 252.62C175.53 253.167 175.25 253.92 175.25 254.88C175.25 255.84 175.536 256.593 176.11 257.14C176.683 257.687 177.37 257.96 178.17 257.96C178.97 257.96 179.656 257.687 180.23 257.14C180.803 256.593 181.09 255.84 181.09 254.88C181.09 253.907 180.803 253.147 180.23 252.6ZM183.383 259L186.923 254.56L183.903 250.7H185.663L187.803 253.52L189.983 250.7H191.743L188.703 254.58L192.143 259H190.383L187.763 255.62L185.143 259H183.383ZM195.105 257.84V263.6H193.665V250.7H195.105V251.86C195.838 250.953 196.785 250.5 197.945 250.5C199.185 250.5 200.165 250.94 200.885 251.82C201.618 252.687 201.985 253.713 201.985 254.9C201.985 256.1 201.625 257.127 200.905 257.98C200.185 258.82 199.218 259.24 198.005 259.24C196.791 259.24 195.825 258.773 195.105 257.84ZM197.805 257.96C198.618 257.96 199.271 257.667 199.765 257.08C200.258 256.48 200.505 255.753 200.505 254.9C200.505 253.94 200.231 253.18 199.685 252.62C199.138 252.06 198.505 251.78 197.785 251.78C197.065 251.78 196.425 252.06 195.865 252.62C195.305 253.18 195.025 253.933 195.025 254.88C195.025 255.747 195.278 256.48 195.785 257.08C196.305 257.667 196.978 257.96 197.805 257.96ZM210.552 251.88V250.7H211.992V259H210.552V257.84C209.832 258.773 208.885 259.24 207.712 259.24C206.592 259.24 205.639 258.853 204.852 258.08C204.065 257.307 203.672 256.227 203.672 254.84C203.672 253.48 204.059 252.42 204.832 251.66C205.619 250.887 206.579 250.5 207.712 250.5C208.912 250.5 209.859 250.96 210.552 251.88ZM207.872 251.78C207.112 251.78 206.465 252.053 205.932 252.6C205.412 253.133 205.152 253.88 205.152 254.84C205.152 255.76 205.392 256.513 205.872 257.1C206.365 257.673 207.032 257.96 207.872 257.96C208.712 257.96 209.379 257.66 209.872 257.06C210.379 256.46 210.632 255.727 210.632 254.86C210.632 253.873 210.352 253.113 209.792 252.58C209.232 252.047 208.592 251.78 207.872 251.78ZM214.719 259V250.7H216.159V254.1H220.079V250.7H221.519V259H220.079V255.42H216.159V259H214.719ZM224.231 250.7H225.671V256.18L231.351 250.06V259H229.911V253.46L224.231 259.58V250.7ZM239.515 252.02H236.915V259H235.475V252.02H232.875V250.7H239.515V252.02ZM241.028 259V250.7H242.468V253.88H243.948C245.095 253.88 245.935 254.153 246.468 254.7C246.895 255.127 247.108 255.707 247.108 256.44C247.108 257.213 246.861 257.833 246.368 258.3C245.875 258.767 245.061 259 243.928 259H241.028ZM242.468 257.72H243.808C244.408 257.72 244.835 257.647 245.088 257.5C245.448 257.26 245.628 256.907 245.628 256.44C245.628 255.96 245.455 255.613 245.108 255.4C244.868 255.24 244.441 255.16 243.828 255.16H242.468V257.72Z" fill="white"/>
<rect x="300" y="224" width="151" height="56" rx="16" fill="#EFF0F3"/>
<path d="M348.86 257.26C347.527 258.58 345.887 259.24 343.94 259.24C341.993 259.24 340.347 258.58 339 257.26C337.667 255.94 337 254.3 337 252.34C337 250.367 337.673 248.727 339.02 247.42C340.367 246.1 342.007 245.44 343.94 245.44C345.873 245.44 347.513 246.1 348.86 247.42C350.207 248.727 350.88 250.367 350.88 252.34C350.88 254.3 350.207 255.94 348.86 257.26ZM347.78 248.44C346.727 247.373 345.447 246.84 343.94 246.84C342.433 246.84 341.153 247.373 340.1 248.44C339.047 249.507 338.52 250.807 338.52 252.34C338.52 253.873 339.047 255.173 340.1 256.24C341.153 257.307 342.433 257.84 343.94 257.84C345.447 257.84 346.727 257.307 347.78 256.24C348.833 255.173 349.36 253.873 349.36 252.34C349.36 250.807 348.833 249.507 347.78 248.44ZM358.679 252.02H356.079V259H354.639V252.02H352.039V250.7H358.679V252.02ZM359.232 259L361.232 250.06L364.672 256.82L368.032 250.06L370.032 259H368.552L367.452 253.86L364.632 259.58L361.772 253.86L360.712 259H359.232ZM377.954 256.22L379.154 256.88C378.874 257.413 378.534 257.86 378.134 258.22C377.374 258.9 376.454 259.24 375.374 259.24C374.254 259.24 373.287 258.88 372.474 258.16C371.674 257.427 371.274 256.34 371.274 254.9C371.274 253.633 371.634 252.587 372.354 251.76C373.087 250.92 374.067 250.5 375.294 250.5C376.68 250.5 377.727 251.007 378.434 252.02C378.994 252.82 379.254 253.86 379.214 255.14H372.754C372.767 255.98 373.027 256.66 373.534 257.18C374.04 257.7 374.66 257.96 375.394 257.96C376.047 257.96 376.614 257.76 377.094 257.36C377.467 257.04 377.754 256.66 377.954 256.22ZM372.854 253.94H377.734C377.614 253.287 377.327 252.767 376.874 252.38C376.434 251.98 375.907 251.78 375.294 251.78C374.694 251.78 374.16 251.987 373.694 252.4C373.24 252.8 372.96 253.313 372.854 253.94ZM381.423 259V250.7H382.863V254.1H386.783V250.7H388.223V259H386.783V255.42H382.863V259H381.423ZM390.934 250.7H392.374V256.18L398.054 250.06V259H396.614V253.46L390.934 259.58V250.7ZM406.218 252.02H403.618V259H402.178V252.02H399.578V250.7H406.218V252.02ZM407.731 259V250.7H409.171V253.88H410.651C411.798 253.88 412.638 254.153 413.171 254.7C413.598 255.127 413.811 255.707 413.811 256.44C413.811 257.213 413.564 257.833 413.071 258.3C412.578 258.767 411.764 259 410.631 259H407.731ZM409.171 257.72H410.511C411.111 257.72 411.538 257.647 411.791 257.5C412.151 257.26 412.331 256.907 412.331 256.44C412.331 255.96 412.158 255.613 411.811 255.4C411.571 255.24 411.144 255.16 410.531 255.16H409.171V257.72Z" fill="#457BF8"/>
</g>
<path d="M124 108H93" stroke="#33F7C3" stroke-width="2"/>
<path d="M125 108L121 104" stroke="#33F7C3" stroke-width="2" stroke-linecap="round"/>
<path d="M125 108L121 112" stroke="#33F7C3" stroke-width="2" stroke-linecap="round"/>
<path d="M93 108L97 112" stroke="#33F7C3" stroke-width="2" stroke-linecap="round"/>
<path d="M93 108L97 104" stroke="#33F7C3" stroke-width="2" stroke-linecap="round"/>
<rect x="74.7504" y="117.75" width="42.9061" height="20.7027" rx="3.75176" fill="#33F7C3"/>
<rect x="74.7504" y="117.75" width="42.9061" height="20.7027" rx="3.75176" stroke="#33F7C3" stroke-width="1.5007"/>
<path d="M85.1387 132.721C84.502 132.721 83.935 132.612 83.4376 132.393C82.9431 132.171 82.5523 131.867 82.2652 131.48C81.981 131.091 81.8346 130.642 81.8261 130.133H83.6849C83.6963 130.346 83.7659 130.534 83.8938 130.696C84.0245 130.855 84.1979 130.979 84.4139 131.067C84.6299 131.155 84.8729 131.199 85.143 131.199C85.4243 131.199 85.673 131.149 85.889 131.05C86.1051 130.95 86.2742 130.812 86.3964 130.636C86.5186 130.46 86.5797 130.257 86.5797 130.026C86.5797 129.793 86.5143 129.587 86.3836 129.408C86.2557 129.226 86.071 129.084 85.8294 128.982C85.5906 128.88 85.3064 128.828 84.9767 128.828H84.1624V127.473H84.9767C85.2552 127.473 85.5011 127.424 85.7143 127.328C85.9303 127.231 86.098 127.098 86.2173 126.927C86.3367 126.754 86.3964 126.552 86.3964 126.322C86.3964 126.103 86.3438 125.911 86.2386 125.746C86.1363 125.578 85.9914 125.448 85.8038 125.354C85.619 125.26 85.403 125.213 85.1557 125.213C84.9056 125.213 84.6768 125.259 84.4693 125.35C84.2619 125.438 84.0956 125.564 83.9705 125.729C83.8455 125.894 83.7787 126.087 83.7702 126.309H82.0009C82.0094 125.806 82.1529 125.362 82.4315 124.979C82.71 124.595 83.0852 124.295 83.557 124.079C84.0316 123.86 84.5674 123.751 85.1643 123.751C85.7668 123.751 86.2941 123.86 86.746 124.079C87.1979 124.298 87.5489 124.594 87.799 124.966C88.052 125.335 88.1771 125.75 88.1742 126.211C88.1771 126.7 88.025 127.108 87.718 127.434C87.4139 127.761 87.0174 127.969 86.5286 128.057V128.125C87.1709 128.207 87.6598 128.431 87.9951 128.794C88.3334 129.155 88.5011 129.607 88.4982 130.15C88.5011 130.648 88.3575 131.089 88.0676 131.476C87.7806 131.863 87.3841 132.167 86.8781 132.388C86.3722 132.61 85.7924 132.721 85.1387 132.721ZM89.8252 132.602V131.271L92.9332 128.394C93.1975 128.138 93.4192 127.908 93.5983 127.703C93.7802 127.498 93.918 127.298 94.0118 127.102C94.1056 126.903 94.1525 126.688 94.1525 126.458C94.1525 126.202 94.0942 125.982 93.9777 125.797C93.8612 125.61 93.702 125.466 93.5002 125.367C93.2984 125.264 93.0696 125.213 92.8138 125.213C92.5466 125.213 92.3136 125.267 92.1146 125.375C91.9157 125.483 91.7622 125.638 91.6542 125.84C91.5462 126.042 91.4922 126.282 91.4922 126.56H89.7399C89.7399 125.989 89.8693 125.493 90.1279 125.072C90.3865 124.652 90.7489 124.326 91.2151 124.096C91.6812 123.866 92.2184 123.751 92.8266 123.751C93.4519 123.751 93.9962 123.862 94.4595 124.083C94.9256 124.302 95.288 124.606 95.5466 124.996C95.8053 125.385 95.9346 125.831 95.9346 126.334C95.9346 126.664 95.8692 126.99 95.7385 127.311C95.6106 127.632 95.3818 127.989 95.0521 128.381C94.7224 128.77 94.2577 129.238 93.658 129.783L92.3832 131.033V131.092H96.0497V132.602H89.8252ZM97.4044 135.057V126.053H99.195V127.153H99.276C99.3556 126.977 99.4707 126.798 99.6213 126.616C99.7748 126.431 99.9738 126.278 100.218 126.155C100.465 126.03 100.772 125.968 101.139 125.968C101.617 125.968 102.057 126.093 102.461 126.343C102.864 126.59 103.187 126.964 103.429 127.464C103.67 127.962 103.791 128.585 103.791 129.336C103.791 130.066 103.673 130.683 103.437 131.186C103.204 131.686 102.886 132.066 102.482 132.324C102.081 132.58 101.632 132.708 101.135 132.708C100.782 132.708 100.483 132.65 100.235 132.533C99.9908 132.417 99.7904 132.27 99.6341 132.094C99.4778 131.915 99.3584 131.735 99.276 131.553H99.2206V135.057H97.4044ZM99.1822 129.327C99.1822 129.717 99.2362 130.056 99.3442 130.346C99.4522 130.636 99.6085 130.862 99.8132 131.024C100.018 131.183 100.267 131.263 100.559 131.263C100.855 131.263 101.105 131.182 101.31 131.02C101.514 130.855 101.669 130.628 101.774 130.338C101.882 130.045 101.936 129.708 101.936 129.327C101.936 128.949 101.884 128.617 101.779 128.33C101.673 128.043 101.519 127.818 101.314 127.656C101.109 127.494 100.858 127.413 100.559 127.413C100.264 127.413 100.014 127.491 99.8089 127.648C99.6071 127.804 99.4522 128.026 99.3442 128.313C99.2362 128.6 99.1822 128.938 99.1822 129.327ZM106.285 126.053L107.487 128.342L108.719 126.053H110.582L108.685 129.327L110.634 132.602H108.779L107.487 130.338L106.217 132.602H104.341L106.285 129.327L104.409 126.053H106.285Z" fill="#0B1530"/>
<path d="M674 105H643" stroke="#33F7C3" stroke-width="2"/>
<path d="M675 105L671 101" stroke="#33F7C3" stroke-width="2" stroke-linecap="round"/>
<path d="M675 105L671 109" stroke="#33F7C3" stroke-width="2" stroke-linecap="round"/>
<path d="M643 105L647 109" stroke="#33F7C3" stroke-width="2" stroke-linecap="round"/>
<path d="M643 105L647 101" stroke="#33F7C3" stroke-width="2" stroke-linecap="round"/>
<rect x="637.75" y="114.75" width="42.9061" height="20.7027" rx="3.75176" fill="#33F7C3"/>
<rect x="637.75" y="114.75" width="42.9061" height="20.7027" rx="3.75176" stroke="#33F7C3" stroke-width="1.5007"/>
<path d="M648.139 129.721C647.502 129.721 646.935 129.612 646.438 129.393C645.943 129.171 645.552 128.867 645.265 128.48C644.981 128.091 644.835 127.642 644.826 127.133H646.685C646.696 127.346 646.766 127.534 646.894 127.696C647.025 127.855 647.198 127.979 647.414 128.067C647.63 128.155 647.873 128.199 648.143 128.199C648.424 128.199 648.673 128.149 648.889 128.05C649.105 127.95 649.274 127.812 649.396 127.636C649.519 127.46 649.58 127.257 649.58 127.026C649.58 126.793 649.514 126.587 649.384 126.408C649.256 126.226 649.071 126.084 648.829 125.982C648.591 125.88 648.306 125.828 647.977 125.828H647.162V124.473H647.977C648.255 124.473 648.501 124.424 648.714 124.328C648.93 124.231 649.098 124.098 649.217 123.927C649.337 123.754 649.396 123.552 649.396 123.322C649.396 123.103 649.344 122.911 649.239 122.746C649.136 122.578 648.991 122.448 648.804 122.354C648.619 122.26 648.403 122.213 648.156 122.213C647.906 122.213 647.677 122.259 647.469 122.35C647.262 122.438 647.096 122.564 646.971 122.729C646.845 122.894 646.779 123.087 646.77 123.309H645.001C645.009 122.806 645.153 122.362 645.431 121.979C645.71 121.595 646.085 121.295 646.557 121.079C647.032 120.86 647.567 120.751 648.164 120.751C648.767 120.751 649.294 120.86 649.746 121.079C650.198 121.298 650.549 121.594 650.799 121.966C651.052 122.335 651.177 122.75 651.174 123.211C651.177 123.7 651.025 124.108 650.718 124.434C650.414 124.761 650.017 124.969 649.529 125.057V125.125C650.171 125.207 650.66 125.431 650.995 125.794C651.333 126.155 651.501 126.607 651.498 127.15C651.501 127.648 651.358 128.089 651.068 128.476C650.781 128.863 650.384 129.167 649.878 129.388C649.372 129.61 648.792 129.721 648.139 129.721ZM652.825 129.602V128.271L655.933 125.394C656.198 125.138 656.419 124.908 656.598 124.703C656.78 124.498 656.918 124.298 657.012 124.102C657.106 123.903 657.153 123.688 657.153 123.458C657.153 123.202 657.094 122.982 656.978 122.797C656.861 122.61 656.702 122.466 656.5 122.367C656.298 122.264 656.07 122.213 655.814 122.213C655.547 122.213 655.314 122.267 655.115 122.375C654.916 122.483 654.762 122.638 654.654 122.84C654.546 123.042 654.492 123.282 654.492 123.56H652.74C652.74 122.989 652.869 122.493 653.128 122.072C653.387 121.652 653.749 121.326 654.215 121.096C654.681 120.866 655.218 120.751 655.827 120.751C656.452 120.751 656.996 120.862 657.459 121.083C657.926 121.302 658.288 121.606 658.547 121.996C658.805 122.385 658.935 122.831 658.935 123.334C658.935 123.664 658.869 123.99 658.738 124.311C658.611 124.632 658.382 124.989 658.052 125.381C657.722 125.77 657.258 126.238 656.658 126.783L655.383 128.033V128.092H659.05V129.602H652.825ZM660.404 132.057V123.053H662.195V124.153H662.276C662.356 123.977 662.471 123.798 662.621 123.616C662.775 123.431 662.974 123.278 663.218 123.155C663.465 123.03 663.772 122.968 664.139 122.968C664.617 122.968 665.057 123.093 665.461 123.343C665.864 123.59 666.187 123.964 666.429 124.464C666.67 124.962 666.791 125.585 666.791 126.336C666.791 127.066 666.673 127.683 666.437 128.186C666.204 128.686 665.886 129.066 665.482 129.324C665.081 129.58 664.632 129.708 664.135 129.708C663.782 129.708 663.483 129.65 663.235 129.533C662.991 129.417 662.79 129.27 662.634 129.094C662.478 128.915 662.358 128.735 662.276 128.553H662.221V132.057H660.404ZM662.182 126.327C662.182 126.717 662.236 127.056 662.344 127.346C662.452 127.636 662.609 127.862 662.813 128.024C663.018 128.183 663.267 128.263 663.559 128.263C663.855 128.263 664.105 128.182 664.31 128.02C664.514 127.855 664.669 127.628 664.774 127.338C664.882 127.045 664.936 126.708 664.936 126.327C664.936 125.949 664.884 125.617 664.779 125.33C664.673 125.043 664.519 124.818 664.314 124.656C664.109 124.494 663.858 124.413 663.559 124.413C663.264 124.413 663.014 124.491 662.809 124.648C662.607 124.804 662.452 125.026 662.344 125.313C662.236 125.6 662.182 125.938 662.182 126.327ZM669.285 123.053L670.487 125.342L671.719 123.053H673.582L671.685 126.327L673.634 129.602H671.779L670.487 127.338L669.217 129.602H667.341L669.285 126.327L667.409 123.053H669.285Z" fill="#0B1530"/>
<path d="M620 105H562" stroke="#33F7C3" stroke-width="2"/>
<path d="M620 105L616 101" stroke="#33F7C3" stroke-width="2" stroke-linecap="round"/>
<path d="M620 105L616 109" stroke="#33F7C3" stroke-width="2" stroke-linecap="round"/>
<path d="M562 105L566 109" stroke="#33F7C3" stroke-width="2" stroke-linecap="round"/>
<path d="M562 105L566 101" stroke="#33F7C3" stroke-width="2" stroke-linecap="round"/>
<rect x="568.75" y="114.75" width="43.9061" height="20.7027" rx="3.75176" fill="#33F7C3"/>
<rect x="568.75" y="114.75" width="43.9061" height="20.7027" rx="3.75176" stroke="#33F7C3" stroke-width="1.5007"/>
<path d="M579.262 129.721C578.813 129.718 578.38 129.643 577.962 129.495C577.547 129.347 577.175 129.107 576.845 128.774C576.515 128.442 576.254 128.001 576.061 127.453C575.87 126.904 575.775 126.231 575.775 125.432C575.778 124.699 575.862 124.044 576.026 123.467C576.194 122.887 576.433 122.395 576.743 121.991C577.055 121.588 577.429 121.281 577.864 121.071C578.299 120.857 578.786 120.751 579.326 120.751C579.909 120.751 580.423 120.865 580.87 121.092C581.316 121.316 581.674 121.622 581.944 122.009C582.217 122.395 582.382 122.829 582.439 123.309H580.618C580.547 123.005 580.398 122.766 580.17 122.593C579.943 122.419 579.662 122.333 579.326 122.333C578.758 122.333 578.326 122.58 578.03 123.074C577.737 123.569 577.588 124.241 577.583 125.091H577.642C577.773 124.832 577.949 124.612 578.171 124.43C578.395 124.245 578.65 124.105 578.934 124.008C579.221 123.909 579.524 123.859 579.842 123.859C580.359 123.859 580.82 123.981 581.223 124.225C581.627 124.467 581.945 124.8 582.178 125.223C582.412 125.647 582.528 126.131 582.528 126.677C582.528 127.268 582.39 127.794 582.115 128.254C581.842 128.715 581.459 129.076 580.968 129.337C580.479 129.596 579.91 129.724 579.262 129.721ZM579.254 128.271C579.538 128.271 579.792 128.203 580.017 128.067C580.241 127.93 580.418 127.746 580.546 127.513C580.674 127.279 580.737 127.018 580.737 126.728C580.737 126.438 580.674 126.178 580.546 125.948C580.421 125.718 580.247 125.534 580.025 125.398C579.804 125.261 579.551 125.193 579.267 125.193C579.053 125.193 578.856 125.233 578.674 125.313C578.495 125.392 578.337 125.503 578.201 125.645C578.067 125.787 577.962 125.952 577.885 126.14C577.809 126.324 577.77 126.522 577.77 126.732C577.77 127.014 577.834 127.271 577.962 127.504C578.093 127.737 578.269 127.923 578.491 128.062C578.715 128.202 578.97 128.271 579.254 128.271ZM583.705 128.067V126.613L587.35 120.87H588.603V122.883H587.862L585.564 126.519V126.587H590.744V128.067H583.705ZM587.896 129.602V127.623L587.93 126.98V120.87H589.661V129.602H587.896ZM591.991 132.057V123.053H593.781V124.153H593.862C593.942 123.977 594.057 123.798 594.208 123.616C594.361 123.431 594.56 123.278 594.804 123.155C595.052 123.03 595.359 122.968 595.725 122.968C596.203 122.968 596.643 123.093 597.047 123.343C597.451 123.59 597.773 123.964 598.015 124.464C598.256 124.962 598.377 125.585 598.377 126.336C598.377 127.066 598.259 127.683 598.023 128.186C597.79 128.686 597.472 129.066 597.068 129.324C596.668 129.58 596.218 129.708 595.721 129.708C595.369 129.708 595.069 129.65 594.821 129.533C594.577 129.417 594.377 129.27 594.22 129.094C594.064 128.915 593.945 128.735 593.862 128.553H593.807V132.057H591.991ZM593.768 126.327C593.768 126.717 593.822 127.056 593.93 127.346C594.038 127.636 594.195 127.862 594.399 128.024C594.604 128.183 594.853 128.263 595.145 128.263C595.441 128.263 595.691 128.182 595.896 128.02C596.1 127.855 596.255 127.628 596.361 127.338C596.469 127.045 596.523 126.708 596.523 126.327C596.523 125.949 596.47 125.617 596.365 125.33C596.26 125.043 596.105 124.818 595.9 124.656C595.695 124.494 595.444 124.413 595.145 124.413C594.85 124.413 594.6 124.491 594.395 124.648C594.193 124.804 594.038 125.026 593.93 125.313C593.822 125.6 593.768 125.938 593.768 126.327ZM600.871 123.053L602.073 125.342L603.306 123.053H605.169L603.271 126.327L605.22 129.602H603.365L602.073 127.338L600.803 129.602H598.927L600.871 126.327L598.995 123.053H600.871Z" fill="#0B1530"/>
<path d="M125 83L125 53" stroke="#33F7C3" stroke-width="2"/>
<path d="M125.407 84L129.407 80" stroke="#33F7C3" stroke-width="2" stroke-linecap="round"/>
<path d="M125.407 84L121.407 80" stroke="#33F7C3" stroke-width="2" stroke-linecap="round"/>
<path d="M125 53L121 57" stroke="#33F7C3" stroke-width="2" stroke-linecap="round"/>
<path d="M125 53L129 57" stroke="#33F7C3" stroke-width="2" stroke-linecap="round"/>
<rect x="73.7504" y="57.7504" width="42.9061" height="20.7027" rx="3.75176" fill="#33F7C3"/>
<rect x="73.7504" y="57.7504" width="42.9061" height="20.7027" rx="3.75176" stroke="#33F7C3" stroke-width="1.5007"/>
<path d="M80.9113 72.6016V71.2714L84.0193 68.3936C84.2837 68.1378 84.5053 67.9076 84.6844 67.703C84.8663 67.4983 85.0042 67.2979 85.098 67.1018C85.1917 66.9029 85.2386 66.6883 85.2386 66.4581C85.2386 66.2023 85.1804 65.982 85.0638 65.7972C84.9473 65.6096 84.7881 65.4661 84.5863 65.3666C84.3846 65.2643 84.1557 65.2132 83.8999 65.2132C83.6328 65.2132 83.3997 65.2672 83.2008 65.3752C83.0018 65.4832 82.8483 65.6381 82.7403 65.8399C82.6323 66.0417 82.5783 66.2818 82.5783 66.5604H80.8261C80.8261 65.9891 80.9554 65.4931 81.214 65.0725C81.4727 64.6518 81.8351 64.3264 82.3012 64.0962C82.7673 63.8659 83.3045 63.7508 83.9127 63.7508C84.538 63.7508 85.0823 63.8617 85.5456 64.0834C86.0117 64.3022 86.3741 64.6063 86.6328 64.9957C86.8914 65.3851 87.0207 65.8313 87.0207 66.3344C87.0207 66.6641 86.9554 66.9896 86.8246 67.3107C86.6967 67.6319 86.4679 67.9886 86.1382 68.3808C85.8085 68.7702 85.3438 69.2378 84.7441 69.7835L83.4693 71.0326V71.0923H87.1358V72.6016H80.9113ZM88.1537 71.0668V69.6129L91.7989 63.8702H93.0523V65.8825H92.3105L90.0125 69.5192V69.5874H95.1925V71.0668H88.1537ZM92.3446 72.6016V70.6234L92.3787 69.9796V63.8702H94.1096V72.6016H92.3446ZM96.4396 75.0573V66.053H98.2302V67.153H98.3112C98.3908 66.9768 98.5059 66.7977 98.6565 66.6158C98.81 66.4311 99.0089 66.2776 99.2534 66.1554C99.5007 66.0303 99.8076 65.9678 100.174 65.9678C100.652 65.9678 101.092 66.0928 101.496 66.3429C101.9 66.5902 102.222 66.964 102.464 67.4642C102.705 67.9616 102.826 68.5855 102.826 69.3358C102.826 70.0663 102.708 70.683 102.472 71.1861C102.239 71.6864 101.921 72.0658 101.517 72.3244C101.116 72.5802 100.667 72.7081 100.17 72.7081C99.8176 72.7081 99.5177 72.6499 99.2704 72.5333C99.026 72.4168 98.8256 72.2704 98.6693 72.0942C98.513 71.9152 98.3936 71.7347 98.3112 71.5528H98.2558V75.0573H96.4396ZM98.2174 69.3273C98.2174 69.7167 98.2714 70.0563 98.3794 70.3462C98.4874 70.6362 98.6437 70.8621 98.8484 71.0241C99.053 71.1833 99.3017 71.2629 99.5944 71.2629C99.89 71.2629 100.14 71.1819 100.345 71.0199C100.549 70.855 100.704 70.6276 100.81 70.3377C100.918 70.045 100.972 69.7082 100.972 69.3273C100.972 68.9493 100.919 68.6167 100.814 68.3297C100.709 68.0426 100.554 67.8181 100.349 67.6561C100.144 67.4941 99.8929 67.4131 99.5944 67.4131C99.2989 67.4131 99.0487 67.4912 98.8441 67.6475C98.6423 67.8039 98.4874 68.0256 98.3794 68.3126C98.2714 68.5997 98.2174 68.9379 98.2174 69.3273ZM105.32 66.053L106.522 68.3425L107.755 66.053H109.618L107.72 69.3273L109.669 72.6016H107.814L106.522 70.3377L105.252 72.6016H103.376L105.32 69.3273L103.444 66.053H105.32Z" fill="#0B1530"/>
<path d="M125 310L125 280" stroke="#33F7C3" stroke-width="2"/>
<path d="M125 311L129 307" stroke="#33F7C3" stroke-width="2" stroke-linecap="round"/>
<path d="M125 311L121 307" stroke="#33F7C3" stroke-width="2" stroke-linecap="round"/>
<path d="M125 280L121 284" stroke="#33F7C3" stroke-width="2" stroke-linecap="round"/>
<path d="M125 280L129 284" stroke="#33F7C3" stroke-width="2" stroke-linecap="round"/>
<rect x="73.7504" y="284.75" width="42.9061" height="20.7027" rx="3.75176" fill="#33F7C3"/>
<rect x="73.7504" y="284.75" width="42.9061" height="20.7027" rx="3.75176" stroke="#33F7C3" stroke-width="1.5007"/>
<path d="M84.1387 299.721C83.502 299.721 82.935 299.612 82.4376 299.393C81.9431 299.171 81.5523 298.867 81.2652 298.48C80.981 298.091 80.8346 297.642 80.8261 297.133H82.6849C82.6963 297.346 82.7659 297.534 82.8938 297.696C83.0245 297.855 83.1979 297.979 83.4139 298.067C83.6299 298.155 83.8729 298.199 84.143 298.199C84.4243 298.199 84.673 298.149 84.889 298.05C85.1051 297.95 85.2742 297.812 85.3964 297.636C85.5186 297.46 85.5797 297.257 85.5797 297.026C85.5797 296.793 85.5143 296.587 85.3836 296.408C85.2557 296.226 85.071 296.084 84.8294 295.982C84.5906 295.88 84.3064 295.828 83.9767 295.828H83.1624V294.473H83.9767C84.2552 294.473 84.5011 294.424 84.7143 294.328C84.9303 294.231 85.098 294.098 85.2173 293.927C85.3367 293.754 85.3964 293.552 85.3964 293.322C85.3964 293.103 85.3438 292.911 85.2386 292.746C85.1363 292.578 84.9914 292.448 84.8038 292.354C84.619 292.26 84.403 292.213 84.1557 292.213C83.9056 292.213 83.6768 292.259 83.4693 292.35C83.2619 292.438 83.0956 292.564 82.9705 292.729C82.8455 292.894 82.7787 293.087 82.7702 293.309H81.0009C81.0094 292.806 81.1529 292.362 81.4315 291.979C81.71 291.595 82.0852 291.295 82.557 291.079C83.0316 290.86 83.5674 290.751 84.1643 290.751C84.7668 290.751 85.2941 290.86 85.746 291.079C86.1979 291.298 86.5489 291.594 86.799 291.966C87.052 292.335 87.1771 292.75 87.1742 293.211C87.1771 293.7 87.025 294.108 86.718 294.434C86.4139 294.761 86.0174 294.969 85.5286 295.057V295.125C86.1709 295.207 86.6598 295.431 86.9951 295.794C87.3334 296.155 87.5011 296.607 87.4982 297.15C87.5011 297.648 87.3575 298.089 87.0676 298.476C86.7806 298.863 86.3841 299.167 85.8781 299.388C85.3722 299.61 84.7924 299.721 84.1387 299.721ZM88.8252 299.602V298.271L91.9332 295.394C92.1975 295.138 92.4192 294.908 92.5983 294.703C92.7802 294.498 92.918 294.298 93.0118 294.102C93.1056 293.903 93.1525 293.688 93.1525 293.458C93.1525 293.202 93.0942 292.982 92.9777 292.797C92.8612 292.61 92.702 292.466 92.5002 292.367C92.2984 292.264 92.0696 292.213 91.8138 292.213C91.5466 292.213 91.3136 292.267 91.1146 292.375C90.9157 292.483 90.7622 292.638 90.6542 292.84C90.5462 293.042 90.4922 293.282 90.4922 293.56H88.7399C88.7399 292.989 88.8693 292.493 89.1279 292.072C89.3865 291.652 89.7489 291.326 90.2151 291.096C90.6812 290.866 91.2184 290.751 91.8266 290.751C92.4519 290.751 92.9962 290.862 93.4595 291.083C93.9256 291.302 94.288 291.606 94.5466 291.996C94.8053 292.385 94.9346 292.831 94.9346 293.334C94.9346 293.664 94.8692 293.99 94.7385 294.311C94.6106 294.632 94.3818 294.989 94.0521 295.381C93.7224 295.77 93.2577 296.238 92.658 296.783L91.3832 298.033V298.092H95.0497V299.602H88.8252ZM96.4044 302.057V293.053H98.195V294.153H98.276C98.3556 293.977 98.4707 293.798 98.6213 293.616C98.7748 293.431 98.9738 293.278 99.2182 293.155C99.4655 293.03 99.7724 292.968 100.139 292.968C100.617 292.968 101.057 293.093 101.461 293.343C101.864 293.59 102.187 293.964 102.429 294.464C102.67 294.962 102.791 295.585 102.791 296.336C102.791 297.066 102.673 297.683 102.437 298.186C102.204 298.686 101.886 299.066 101.482 299.324C101.081 299.58 100.632 299.708 100.135 299.708C99.7824 299.708 99.4825 299.65 99.2353 299.533C98.9908 299.417 98.7904 299.27 98.6341 299.094C98.4778 298.915 98.3584 298.735 98.276 298.553H98.2206V302.057H96.4044ZM98.1822 296.327C98.1822 296.717 98.2362 297.056 98.3442 297.346C98.4522 297.636 98.6085 297.862 98.8132 298.024C99.0178 298.183 99.2665 298.263 99.5593 298.263C99.8549 298.263 100.105 298.182 100.31 298.02C100.514 297.855 100.669 297.628 100.774 297.338C100.882 297.045 100.936 296.708 100.936 296.327C100.936 295.949 100.884 295.617 100.779 295.33C100.673 295.043 100.519 294.818 100.314 294.656C100.109 294.494 99.8577 294.413 99.5593 294.413C99.2637 294.413 99.0136 294.491 98.8089 294.648C98.6071 294.804 98.4522 295.026 98.3442 295.313C98.2362 295.6 98.1822 295.938 98.1822 296.327ZM105.285 293.053L106.487 295.342L107.719 293.053H109.582L107.685 296.327L109.634 299.602H107.779L106.487 297.338L105.217 299.602H103.341L105.285 296.327L103.409 293.053H105.285Z" fill="#0B1530"/>
<path d="M125 224L125 176" stroke="#33F7C3" stroke-width="2"/>
<path d="M125 225L129 221" stroke="#33F7C3" stroke-width="2" stroke-linecap="round"/>
<path d="M125 225L121 221" stroke="#33F7C3" stroke-width="2" stroke-linecap="round"/>
<path d="M125 176L121 180" stroke="#33F7C3" stroke-width="2" stroke-linecap="round"/>
<path d="M125 176L129 180" stroke="#33F7C3" stroke-width="2" stroke-linecap="round"/>
<rect x="73.7504" y="189.75" width="43.9061" height="20.7027" rx="3.75176" fill="#33F7C3"/>
<rect x="73.7504" y="189.75" width="43.9061" height="20.7027" rx="3.75176" stroke="#33F7C3" stroke-width="1.5007"/>
<path d="M80.7792 203.067V201.613L84.4243 195.87H85.6778V197.883H84.9359L82.638 201.519V201.587H87.818V203.067H80.7792ZM84.9701 204.602V202.623L85.0042 201.98V195.87H86.7351V204.602H84.9701ZM92.3052 204.721C91.6486 204.721 91.0645 204.614 90.5529 204.401C90.0442 204.185 89.6448 203.891 89.3549 203.519C89.065 203.146 88.9201 202.724 88.9201 202.252C88.9201 201.889 89.0025 201.555 89.1673 201.251C89.335 200.944 89.5624 200.689 89.8495 200.487C90.1365 200.283 90.4577 200.152 90.813 200.095V200.036C90.3469 199.942 89.9688 199.716 89.6789 199.358C89.389 198.997 89.2441 198.577 89.2441 198.1C89.2441 197.648 89.3762 197.246 89.6406 196.893C89.9049 196.538 90.2673 196.26 90.7277 196.058C91.191 195.853 91.7168 195.751 92.3052 195.751C92.8935 195.751 93.4179 195.853 93.8783 196.058C94.3416 196.262 94.7054 196.542 94.9698 196.898C95.2341 197.25 95.3677 197.651 95.3705 198.1C95.3677 198.58 95.2199 199 94.9271 199.358C94.6344 199.716 94.2592 199.942 93.8016 200.036V200.095C94.1512 200.152 94.4681 200.283 94.7523 200.487C95.0394 200.689 95.2668 200.944 95.4345 201.251C95.605 201.555 95.6917 201.889 95.6945 202.252C95.6917 202.724 95.5453 203.146 95.2554 203.519C94.9655 203.891 94.5647 204.185 94.0531 204.401C93.5444 204.614 92.9617 204.721 92.3052 204.721ZM92.3052 203.365C92.5979 203.365 92.8537 203.313 93.0726 203.207C93.2914 203.099 93.462 202.952 93.5842 202.764C93.7092 202.574 93.7718 202.355 93.7718 202.107C93.7718 201.855 93.7078 201.631 93.5799 201.438C93.452 201.242 93.2786 201.089 93.0598 200.978C92.8409 200.864 92.5894 200.807 92.3052 200.807C92.0238 200.807 91.7722 200.864 91.5506 200.978C91.3289 201.089 91.1541 201.242 91.0262 201.438C90.9011 201.631 90.8386 201.855 90.8386 202.107C90.8386 202.355 90.8997 202.574 91.0219 202.764C91.1441 202.952 91.3161 203.099 91.5378 203.207C91.7595 203.313 92.0153 203.365 92.3052 203.365ZM92.3052 199.464C92.5496 199.464 92.767 199.414 92.9575 199.315C93.1479 199.216 93.2971 199.078 93.4051 198.901C93.5131 198.725 93.5671 198.522 93.5671 198.292C93.5671 198.064 93.5131 197.865 93.4051 197.695C93.2971 197.522 93.1493 197.387 92.9617 197.29C92.7741 197.19 92.5553 197.141 92.3052 197.141C92.0579 197.141 91.839 197.19 91.6486 197.29C91.4582 197.387 91.309 197.522 91.201 197.695C91.0958 197.865 91.0432 198.064 91.0432 198.292C91.0432 198.522 91.0972 198.725 91.2052 198.901C91.3132 199.078 91.4624 199.216 91.6529 199.315C91.8433 199.414 92.0607 199.464 92.3052 199.464ZM97.0023 207.057V198.053H98.7929V199.153H98.8739C98.9535 198.977 99.0686 198.798 99.2193 198.616C99.3728 198.431 99.5717 198.278 99.8161 198.155C100.063 198.03 100.37 197.968 100.737 197.968C101.215 197.968 101.655 198.093 102.059 198.343C102.462 198.59 102.785 198.964 103.026 199.464C103.268 199.962 103.389 200.585 103.389 201.336C103.389 202.066 103.271 202.683 103.035 203.186C102.802 203.686 102.484 204.066 102.08 204.324C101.679 204.58 101.23 204.708 100.733 204.708C100.38 204.708 100.08 204.65 99.8332 204.533C99.5888 204.417 99.3884 204.27 99.2321 204.094C99.0757 203.915 98.9564 203.735 98.8739 203.553H98.8185V207.057H97.0023ZM98.7801 201.327C98.7801 201.717 98.8341 202.056 98.9422 202.346C99.0502 202.636 99.2065 202.862 99.4111 203.024C99.6158 203.183 99.8645 203.263 100.157 203.263C100.453 203.263 100.703 203.182 100.908 203.02C101.112 202.855 101.267 202.628 101.372 202.338C101.48 202.045 101.534 201.708 101.534 201.327C101.534 200.949 101.482 200.617 101.377 200.33C101.271 200.043 101.116 199.818 100.912 199.656C100.707 199.494 100.456 199.413 100.157 199.413C99.8616 199.413 99.6115 199.491 99.4069 199.648C99.2051 199.804 99.0502 200.026 98.9422 200.313C98.8341 200.6 98.7801 200.938 98.7801 201.327ZM105.883 198.053L107.085 200.342L108.317 198.053H110.18L108.283 201.327L110.232 204.602H108.377L107.085 202.338L105.815 204.602H103.939L105.883 201.327L104.007 198.053H105.883Z" fill="#0B1530"/>
<defs>
<filter id="filter0_d_711_2216" x="67" y="27" width="634" height="310" filterUnits="userSpaceOnUse" color-interpolation-filters="sRGB">
<feFlood flood-opacity="0" result="BackgroundImageFix"/>
<feColorMatrix in="SourceAlpha" type="matrix" values="0 0 0 0 0 0 0 0 0 0 0 0 0 0 0 0 0 0 127 0" result="hardAlpha"/>
<feOffset/>
<feGaussianBlur stdDeviation="12.5"/>
<feComposite in2="hardAlpha" operator="out"/>
<feColorMatrix type="matrix" values="0 0 0 0 0 0 0 0 0 0 0 0 0 0 0 0 0 0 0.07 0"/>
<feBlend mode="normal" in2="BackgroundImageFix" result="effect1_dropShadow_711_2216"/>
<feBlend mode="normal" in="SourceGraphic" in2="effect1_dropShadow_711_2216" result="shape"/>
</filter>
</defs>
</svg>
