<svg width="418" height="240" viewBox="0 0 418 240" fill="none" xmlns="http://www.w3.org/2000/svg">
<rect width="418" height="240" rx="24" fill="#F5F6F8"/>
<path d="M182 160H137" stroke="#33F7C3" stroke-width="2"/>
<path d="M138 160L138 116.355" stroke="#33F7C3" stroke-width="2"/>
<path d="M180.994 160L180.994 116.355" stroke="#33F7C3" stroke-width="2"/>
<path d="M180.994 112.717L180.994 73.0078" stroke="#33F7C3" stroke-width="2"/>
<path d="M206 106.682V73.0039" stroke="#33F7C3" stroke-width="2"/>
<path d="M206 74L180.323 74" stroke="#33F7C3" stroke-width="2"/>
<rect x="137.75" y="168.75" width="42.9061" height="20.7027" rx="3.75176" fill="#33F7C3"/>
<rect x="137.75" y="168.75" width="42.9061" height="20.7027" rx="3.75176" stroke="#33F7C3" stroke-width="1.5007"/>
<path d="M144.911 183.602V182.271L148.019 179.394C148.284 179.138 148.505 178.908 148.684 178.703C148.866 178.498 149.004 178.298 149.098 178.102C149.192 177.903 149.239 177.688 149.239 177.458C149.239 177.202 149.18 176.982 149.064 176.797C148.947 176.61 148.788 176.466 148.586 176.367C148.385 176.264 148.156 176.213 147.9 176.213C147.633 176.213 147.4 176.267 147.201 176.375C147.002 176.483 146.848 176.638 146.74 176.84C146.632 177.042 146.578 177.282 146.578 177.56H144.826C144.826 176.989 144.955 176.493 145.214 176.072C145.473 175.652 145.835 175.326 146.301 175.096C146.767 174.866 147.304 174.751 147.913 174.751C148.538 174.751 149.082 174.862 149.546 175.083C150.012 175.302 150.374 175.606 150.633 175.996C150.891 176.385 151.021 176.831 151.021 177.334C151.021 177.664 150.955 177.99 150.825 178.311C150.697 178.632 150.468 178.989 150.138 179.381C149.809 179.77 149.344 180.238 148.744 180.783L147.469 182.033V182.092H151.136V183.602H144.911ZM152.154 182.067V180.613L155.799 174.87H157.052V176.883H156.31L154.013 180.519V180.587H159.193V182.067H152.154ZM156.345 183.602V181.623L156.379 180.98V174.87H158.11V183.602H156.345ZM160.44 186.057V177.053H162.23V178.153H162.311C162.391 177.977 162.506 177.798 162.657 177.616C162.81 177.431 163.009 177.278 163.253 177.155C163.501 177.03 163.808 176.968 164.174 176.968C164.652 176.968 165.092 177.093 165.496 177.343C165.9 177.59 166.222 177.964 166.464 178.464C166.705 178.962 166.826 179.585 166.826 180.336C166.826 181.066 166.708 181.683 166.472 182.186C166.239 182.686 165.921 183.066 165.517 183.324C165.116 183.58 164.667 183.708 164.17 183.708C163.818 183.708 163.518 183.65 163.27 183.533C163.026 183.417 162.826 183.27 162.669 183.094C162.513 182.915 162.394 182.735 162.311 182.553H162.256V186.057H160.44ZM162.217 180.327C162.217 180.717 162.271 181.056 162.379 181.346C162.487 181.636 162.644 181.862 162.848 182.024C163.053 182.183 163.302 182.263 163.594 182.263C163.89 182.263 164.14 182.182 164.345 182.02C164.549 181.855 164.704 181.628 164.81 181.338C164.918 181.045 164.972 180.708 164.972 180.327C164.972 179.949 164.919 179.617 164.814 179.33C164.709 179.043 164.554 178.818 164.349 178.656C164.144 178.494 163.893 178.413 163.594 178.413C163.299 178.413 163.049 178.491 162.844 178.648C162.642 178.804 162.487 179.026 162.379 179.313C162.271 179.6 162.217 179.938 162.217 180.327ZM169.32 177.053L170.522 179.342L171.755 177.053H173.618L171.72 180.327L173.669 183.602H171.814L170.522 181.338L169.252 183.602H167.376L169.32 180.327L167.444 177.053H169.32Z" fill="#0B1530"/>
<rect x="173.75" y="40.7504" width="40.9061" height="20.7027" rx="3.75176" fill="#33F7C3"/>
<rect x="173.75" y="40.7504" width="40.9061" height="20.7027" rx="3.75176" stroke="#33F7C3" stroke-width="1.5007"/>
<path d="M184.71 46.8702V55.6016H182.864V48.6224H182.813L180.813 49.8759V48.2387L182.975 46.8702H184.71ZM186.785 55.6016V54.2714L189.893 51.3936C190.157 51.1378 190.379 50.9076 190.558 50.703C190.74 50.4983 190.878 50.2979 190.972 50.1018C191.066 49.9029 191.112 49.6883 191.112 49.4581C191.112 49.2023 191.054 48.982 190.938 48.7972C190.821 48.6096 190.662 48.4661 190.46 48.3666C190.258 48.2643 190.03 48.2132 189.774 48.2132C189.507 48.2132 189.274 48.2672 189.075 48.3752C188.876 48.4832 188.722 48.6381 188.614 48.8399C188.506 49.0417 188.452 49.2818 188.452 49.5604H186.7C186.7 48.9891 186.829 48.4931 187.088 48.0725C187.347 47.6518 187.709 47.3264 188.175 47.0962C188.641 46.8659 189.178 46.7508 189.787 46.7508C190.412 46.7508 190.956 46.8617 191.419 47.0834C191.886 47.3022 192.248 47.6063 192.507 47.9957C192.765 48.3851 192.895 48.8313 192.895 49.3344C192.895 49.6641 192.829 49.9896 192.698 50.3107C192.571 50.6319 192.342 50.9886 192.012 51.3808C191.682 51.7702 191.218 52.2378 190.618 52.7835L189.343 54.0326V54.0923H193.01V55.6016H186.785ZM194.364 58.0573V49.053H196.155V50.153H196.236C196.316 49.9768 196.431 49.7977 196.581 49.6158C196.735 49.4311 196.934 49.2776 197.178 49.1554C197.425 49.0303 197.732 48.9678 198.099 48.9678C198.577 48.9678 199.017 49.0928 199.421 49.3429C199.824 49.5902 200.147 49.964 200.388 50.4642C200.63 50.9616 200.751 51.5855 200.751 52.3358C200.751 53.0663 200.633 53.683 200.397 54.1861C200.164 54.6864 199.846 55.0658 199.442 55.3244C199.041 55.5802 198.592 55.7081 198.095 55.7081C197.742 55.7081 197.443 55.6499 197.195 55.5333C196.951 55.4168 196.75 55.2704 196.594 55.0942C196.438 54.9152 196.318 54.7347 196.236 54.5528H196.181V58.0573H194.364ZM196.142 52.3273C196.142 52.7167 196.196 53.0563 196.304 53.3462C196.412 53.6362 196.569 53.8621 196.773 54.0241C196.978 54.1833 197.227 54.2629 197.519 54.2629C197.815 54.2629 198.065 54.1819 198.27 54.0199C198.474 53.855 198.629 53.6276 198.734 53.3377C198.842 53.045 198.896 52.7082 198.896 52.3273C198.896 51.9493 198.844 51.6167 198.739 51.3297C198.633 51.0426 198.479 50.8181 198.274 50.6561C198.069 50.4941 197.818 50.4131 197.519 50.4131C197.224 50.4131 196.974 50.4912 196.769 50.6475C196.567 50.8039 196.412 51.0256 196.304 51.3126C196.196 51.5997 196.142 51.9379 196.142 52.3273ZM203.245 49.053L204.447 51.3425L205.679 49.053H207.542L205.645 52.3273L207.594 55.6016H205.739L204.447 53.3377L203.177 55.6016H201.301L203.245 52.3273L201.369 49.053H203.245Z" fill="#0B1530"/>
<rect x="137" y="94" width="45" height="45" rx="22.5" fill="#457BF8"/>
<circle cx="159.5" cy="116.5" r="11.25" fill="white"/>
<path d="M219.95 106.612H213.875V129H211.1V106.612H205.025V103.987H219.95V106.612ZM232.26 123.787L234.51 125.025C233.985 126.025 233.347 126.862 232.597 127.537C231.172 128.812 229.447 129.45 227.422 129.45C225.322 129.45 223.51 128.775 221.985 127.425C220.485 126.05 219.735 124.012 219.735 121.312C219.735 118.937 220.41 116.975 221.76 115.425C223.135 113.85 224.972 113.062 227.272 113.062C229.872 113.062 231.835 114.012 233.16 115.912C234.21 117.412 234.697 119.362 234.622 121.762H222.51C222.535 123.337 223.022 124.612 223.972 125.587C224.922 126.562 226.085 127.05 227.46 127.05C228.685 127.05 229.747 126.675 230.647 125.925C231.347 125.325 231.885 124.612 232.26 123.787ZM222.697 119.512H231.847C231.622 118.287 231.085 117.312 230.235 116.587C229.41 115.837 228.422 115.462 227.272 115.462C226.147 115.462 225.147 115.85 224.272 116.625C223.422 117.375 222.897 118.337 222.697 119.512ZM238.764 113.437H241.464V119.812L247.764 113.437H251.064L244.314 120.375L251.889 129H248.364L242.289 122.175L241.464 122.962V129H238.764V113.437ZM265.966 114.562V117.787C264.741 116.237 263.116 115.462 261.091 115.462C259.566 115.462 258.266 115.987 257.191 117.037C256.116 118.062 255.579 119.475 255.579 121.275C255.579 123.075 256.116 124.487 257.191 125.512C258.266 126.537 259.554 127.05 261.054 127.05C263.054 127.05 264.729 126.237 266.079 124.612V127.837C264.604 128.912 262.954 129.45 261.129 129.45C258.704 129.45 256.704 128.687 255.129 127.162C253.579 125.612 252.804 123.662 252.804 121.312C252.804 118.937 253.591 116.975 255.166 115.425C256.741 113.85 258.729 113.062 261.129 113.062C262.929 113.062 264.541 113.562 265.966 114.562ZM280.421 115.912H275.546V129H272.846V115.912H267.971V113.437H280.421V115.912Z" fill="#0B1530"/>
</svg>
