<svg width="416" height="154" viewBox="0 0 416 154" fill="none" xmlns="http://www.w3.org/2000/svg">
<rect width="416" height="154" rx="24" fill="#F5F6F8"/>
<rect x="16" y="16" width="384" height="122" rx="18" fill="white"/>
<rect x="38.25" y="40" width="339.5" height="40" rx="9" fill="#EFF0F3"/>
<rect x="40.25" y="40" width="335.5" height="40" rx="9" fill="#EFF0F3"/>
<rect x="42.25" y="42" width="112" height="36" rx="8" fill="#457BF8"/>
<path d="M67.85 53.66H77.65V67H75.61V55.58H69.89V67H67.85V53.66ZM86.3978 64.16L88.0378 65.08C87.6645 65.7467 87.1911 66.26 86.6178 66.62C85.9645 67.0467 85.1378 67.26 84.1378 67.26C82.9645 67.26 82.0178 66.9 81.2978 66.18C80.4711 65.3533 80.0578 64.28 80.0578 62.96C80.0578 61.5733 80.5045 60.42 81.3978 59.5C82.1578 58.74 83.0978 58.36 84.2178 58.36C85.3111 58.36 86.2111 58.7267 86.9178 59.46C87.7045 60.2733 88.0978 61.46 88.0978 63.02V63.26H82.0578C82.1111 63.9667 82.3511 64.5333 82.7778 64.96C83.1378 65.32 83.6378 65.5 84.2778 65.5C84.7978 65.5 85.2445 65.36 85.6178 65.08C85.9245 64.84 86.1845 64.5333 86.3978 64.16ZM82.1978 61.66H86.0978C86.0178 61.1933 85.8178 60.8133 85.4978 60.52C85.1511 60.2 84.7111 60.04 84.1778 60.04C83.6178 60.04 83.1578 60.22 82.7978 60.58C82.5045 60.8467 82.3045 61.2067 82.1978 61.66ZM92.1063 66.02V71.58H90.1463V58.58H92.1063V59.5C92.7463 58.74 93.5796 58.36 94.6063 58.36C95.7529 58.36 96.7196 58.7667 97.5063 59.58C98.3063 60.38 98.7063 61.4333 98.7063 62.74C98.7063 64.0867 98.2929 65.18 97.4663 66.02C96.6396 66.8467 95.6929 67.26 94.6263 67.26C93.6263 67.26 92.7863 66.8467 92.1063 66.02ZM94.3663 60.12C93.6996 60.12 93.1329 60.36 92.6663 60.84C92.2129 61.3067 91.9863 61.9733 91.9863 62.84C91.9863 63.68 92.2129 64.3333 92.6663 64.8C93.1329 65.2667 93.6996 65.5 94.3663 65.5C95.0596 65.5 95.6196 65.24 96.0463 64.72C96.4863 64.2 96.7063 63.5667 96.7063 62.82C96.7063 62.06 96.4863 61.42 96.0463 60.9C95.6196 60.38 95.0596 60.12 94.3663 60.12ZM100.752 58.58H104.052C104.892 58.58 105.532 58.7467 105.972 59.08C106.492 59.4933 106.752 60.0333 106.752 60.7C106.752 61.46 106.418 62.0067 105.752 62.34C106.178 62.42 106.558 62.6067 106.892 62.9C107.332 63.3 107.552 63.84 107.552 64.52C107.552 65.3333 107.245 65.9733 106.632 66.44C106.125 66.8133 105.478 67 104.692 67H100.752V58.58ZM102.712 61.86H103.712C104.058 61.86 104.318 61.8 104.492 61.68C104.745 61.52 104.872 61.2933 104.872 61C104.872 60.72 104.758 60.5 104.532 60.34C104.372 60.2333 104.085 60.18 103.672 60.18H102.712V61.86ZM102.712 65.4H104.172C104.612 65.4 104.952 65.32 105.192 65.16C105.458 64.9867 105.592 64.74 105.592 64.42C105.592 64.0733 105.465 63.8267 105.212 63.68C104.985 63.5333 104.658 63.46 104.232 63.46H102.712V65.4ZM109.599 67V58.58H111.559V61.56H112.679C113.039 61.56 113.333 61.5733 113.559 61.6C113.786 61.6133 114.059 61.6867 114.379 61.82C114.699 61.9533 114.979 62.1533 115.219 62.42C115.659 62.9133 115.879 63.5267 115.879 64.26C115.879 65.1 115.626 65.7733 115.119 66.28C114.893 66.5067 114.619 66.68 114.299 66.8C113.993 66.9067 113.733 66.9667 113.519 66.98C113.319 66.9933 113.033 67 112.659 67H109.599ZM111.559 65.32H112.459C112.939 65.32 113.279 65.26 113.479 65.14C113.773 64.9267 113.919 64.64 113.919 64.28C113.919 63.9067 113.779 63.6267 113.499 63.44C113.286 63.3067 112.946 63.24 112.479 63.24H111.559V65.32ZM116.759 67V58.58H118.719V67H116.759ZM121.201 58.58H123.161V63.36L128.921 57.82V67H126.961V62.1L121.201 67.64V58.58ZM121.841 54.94L123.441 54.48C123.694 55.3467 124.241 55.78 125.081 55.78C125.908 55.78 126.454 55.3467 126.721 54.48L128.321 54.94C128.108 55.7 127.674 56.2867 127.021 56.7C126.381 57.1 125.734 57.3 125.081 57.3C124.428 57.3 123.774 57.1 123.121 56.7C122.481 56.2867 122.054 55.7 121.841 54.94Z" fill="white"/>
<rect x="156.75" y="42" width="108" height="36" rx="8" fill="#EFF0F3"/>
<path d="M182.35 53.66H184.37C185.277 53.66 186.01 53.7333 186.57 53.88C187.13 54.0267 187.623 54.3 188.05 54.7C188.757 55.3667 189.11 56.2467 189.11 57.34C189.11 57.9667 188.977 58.4933 188.71 58.92C188.47 59.3333 188.137 59.64 187.71 59.84C188.403 60.0133 188.977 60.3333 189.43 60.8C190.017 61.4133 190.31 62.2467 190.31 63.3C190.31 64.2733 190.017 65.0733 189.43 65.7C188.603 66.5667 187.357 67 185.69 67H182.35V53.66ZM184.39 55.58V59.4H185.01C185.757 59.4 186.31 59.2267 186.67 58.88C187.017 58.5467 187.19 58.04 187.19 57.36C187.19 56.8133 187.03 56.3867 186.71 56.08C186.363 55.7467 185.823 55.58 185.09 55.58H184.39ZM184.39 61.08V65.08H185.63C186.55 65.08 187.223 64.9067 187.65 64.56C188.09 64.2133 188.31 63.72 188.31 63.08C188.31 62.5067 188.13 62.04 187.77 61.68C187.357 61.28 186.657 61.08 185.67 61.08H184.39ZM198.317 60.38H195.857V67H193.897V60.38H191.437V58.58H198.317V60.38ZM200.35 59.62C201.216 58.78 202.29 58.36 203.57 58.36C204.85 58.36 205.916 58.78 206.77 59.62C207.636 60.4467 208.07 61.5067 208.07 62.8C208.07 64.08 207.636 65.1467 206.77 66C205.916 66.84 204.85 67.26 203.57 67.26C202.29 67.26 201.216 66.84 200.35 66C199.496 65.1467 199.07 64.08 199.07 62.8C199.07 61.5067 199.496 60.4467 200.35 59.62ZM201.75 64.78C202.203 65.26 202.81 65.5 203.57 65.5C204.33 65.5 204.936 65.26 205.39 64.78C205.843 64.2867 206.07 63.6333 206.07 62.82C206.07 61.9267 205.823 61.2533 205.33 60.8C204.85 60.3467 204.263 60.12 203.57 60.12C202.876 60.12 202.283 60.3467 201.79 60.8C201.31 61.2533 201.07 61.9267 201.07 62.82C201.07 63.6333 201.296 64.2867 201.75 64.78ZM212.075 66.02V71.58H210.115V58.58H212.075V59.5C212.715 58.74 213.548 58.36 214.575 58.36C215.722 58.36 216.688 58.7667 217.475 59.58C218.275 60.38 218.675 61.4333 218.675 62.74C218.675 64.0867 218.262 65.18 217.435 66.02C216.608 66.8467 215.662 67.26 214.595 67.26C213.595 67.26 212.755 66.8467 212.075 66.02ZM214.335 60.12C213.668 60.12 213.102 60.36 212.635 60.84C212.182 61.3067 211.955 61.9733 211.955 62.84C211.955 63.68 212.182 64.3333 212.635 64.8C213.102 65.2667 213.668 65.5 214.335 65.5C215.028 65.5 215.588 65.24 216.015 64.72C216.455 64.2 216.675 63.5667 216.675 62.82C216.675 62.06 216.455 61.42 216.015 60.9C215.588 60.38 215.028 60.12 214.335 60.12ZM221.56 59.62C222.427 58.78 223.5 58.36 224.78 58.36C226.06 58.36 227.127 58.78 227.98 59.62C228.847 60.4467 229.28 61.5067 229.28 62.8C229.28 64.08 228.847 65.1467 227.98 66C227.127 66.84 226.06 67.26 224.78 67.26C223.5 67.26 222.427 66.84 221.56 66C220.707 65.1467 220.28 64.08 220.28 62.8C220.28 61.5067 220.707 60.4467 221.56 59.62ZM222.96 64.78C223.414 65.26 224.02 65.5 224.78 65.5C225.54 65.5 226.147 65.26 226.6 64.78C227.054 64.2867 227.28 63.6333 227.28 62.82C227.28 61.9267 227.034 61.2533 226.54 60.8C226.06 60.3467 225.474 60.12 224.78 60.12C224.087 60.12 223.494 60.3467 223 60.8C222.52 61.2533 222.28 61.9267 222.28 62.82C222.28 63.6333 222.507 64.2867 222.96 64.78ZM231.326 58.58H233.286V63.36L239.046 57.82V67H237.086V62.1L231.326 67.64V58.58ZM231.966 54.94L233.566 54.48C233.819 55.3467 234.366 55.78 235.206 55.78C236.033 55.78 236.579 55.3467 236.846 54.48L238.446 54.94C238.233 55.7 237.799 56.2867 237.146 56.7C236.506 57.1 235.859 57.3 235.206 57.3C234.553 57.3 233.899 57.1 233.246 56.7C232.606 56.2867 232.179 55.7 231.966 54.94Z" fill="#457BF8"/>
<path d="M267.25 46V74" stroke="#CED0D6" stroke-linecap="round"/>
<rect x="269.75" y="42" width="104" height="36" rx="8" fill="#E7E8EA"/>
<path d="M302.11 55.58H299.05V67H297.01V55.58H293.95V53.66H302.11V55.58ZM304.899 66.02V71.58H302.939V58.58H304.899V59.5C305.539 58.74 306.373 58.36 307.399 58.36C308.546 58.36 309.513 58.7667 310.299 59.58C311.099 60.38 311.499 61.4333 311.499 62.74C311.499 64.0867 311.086 65.18 310.259 66.02C309.433 66.8467 308.486 67.26 307.419 67.26C306.419 67.26 305.579 66.8467 304.899 66.02ZM307.159 60.12C306.493 60.12 305.926 60.36 305.459 60.84C305.006 61.3067 304.779 61.9733 304.779 62.84C304.779 63.68 305.006 64.3333 305.459 64.8C305.926 65.2667 306.493 65.5 307.159 65.5C307.853 65.5 308.413 65.24 308.839 64.72C309.279 64.2 309.499 63.5667 309.499 62.82C309.499 62.06 309.279 61.42 308.839 60.9C308.413 60.38 307.853 60.12 307.159 60.12ZM319.445 64.16L321.085 65.08C320.711 65.7467 320.238 66.26 319.665 66.62C319.011 67.0467 318.185 67.26 317.185 67.26C316.011 67.26 315.065 66.9 314.345 66.18C313.518 65.3533 313.105 64.28 313.105 62.96C313.105 61.5733 313.551 60.42 314.445 59.5C315.205 58.74 316.145 58.36 317.265 58.36C318.358 58.36 319.258 58.7267 319.965 59.46C320.751 60.2733 321.145 61.46 321.145 63.02V63.26H315.105C315.158 63.9667 315.398 64.5333 315.825 64.96C316.185 65.32 316.685 65.5 317.325 65.5C317.845 65.5 318.291 65.36 318.665 65.08C318.971 64.84 319.231 64.5333 319.445 64.16ZM315.245 61.66H319.145C319.065 61.1933 318.865 60.8133 318.545 60.52C318.198 60.2 317.758 60.04 317.225 60.04C316.665 60.04 316.205 60.22 315.845 60.58C315.551 60.8467 315.351 61.2067 315.245 61.66ZM328.993 60.38H326.533V67H324.573V60.38H322.113V58.58H328.993V60.38ZM330.4 58.58H332.36V63.36L338.12 57.82V67H336.16V62.1L330.4 67.64V58.58ZM340.595 58.58H342.555V63.36L348.315 57.82V67H346.355V62.1L340.595 67.64V58.58ZM341.235 54.94L342.835 54.48C343.089 55.3467 343.635 55.78 344.475 55.78C345.302 55.78 345.849 55.3467 346.115 54.48L347.715 54.94C347.502 55.7 347.069 56.2867 346.415 56.7C345.775 57.1 345.129 57.3 344.475 57.3C343.822 57.3 343.169 57.1 342.515 56.7C341.875 56.2867 341.449 55.7 341.235 54.94Z" fill="#457BF8"/>
<g clip-path="url(#clip0_947_2577)">
<g filter="url(#filter0_d_947_2577)">
<path d="M362.151 88.3833L360.853 83.4024L360.69 82.776L360.125 83.0922L355.871 85.4738L355.876 85.4393C356.602 79.7255 357.329 74.0118 358.06 68.2988C361.461 72.9034 364.863 77.5082 368.271 82.1082L363.403 82.2006L362.769 82.2127L362.929 82.8266L364.228 87.8112L362.151 88.3833Z" fill="white" stroke="#0B1530"/>
</g>
</g>
<path d="M45.338 100.816L44.394 101.44C44.2233 101.109 44.0153 100.843 43.77 100.64C43.45 100.395 43.05 100.272 42.57 100.272C42.0367 100.272 41.6047 100.427 41.274 100.736C40.9433 101.035 40.778 101.429 40.778 101.92C40.778 102.283 40.9113 102.592 41.178 102.848C41.3913 103.061 41.7647 103.285 42.298 103.52L43.322 103.968C44.0793 104.299 44.6287 104.635 44.97 104.976C45.482 105.488 45.738 106.133 45.738 106.912C45.738 107.883 45.418 108.672 44.778 109.28C44.138 109.888 43.3327 110.192 42.362 110.192C41.402 110.192 40.6287 109.904 40.042 109.328C39.562 108.859 39.2313 108.229 39.05 107.44L40.202 107.12C40.2767 107.653 40.49 108.107 40.842 108.48C41.2367 108.875 41.7487 109.072 42.378 109.072C43.0607 109.072 43.5887 108.869 43.962 108.464C44.3353 108.048 44.522 107.547 44.522 106.96C44.522 106.448 44.346 106.032 43.994 105.712C43.7913 105.52 43.3647 105.275 42.714 104.976L41.754 104.528C41.1033 104.229 40.6287 103.936 40.33 103.648C39.8393 103.179 39.594 102.597 39.594 101.904C39.594 101.083 39.8713 100.421 40.426 99.92C40.9913 99.408 41.7113 99.152 42.586 99.152C43.2473 99.152 43.818 99.312 44.298 99.632C44.7353 99.92 45.082 100.315 45.338 100.816ZM52.5473 107.776L53.5073 108.304C53.2833 108.731 53.0113 109.088 52.6913 109.376C52.0833 109.92 51.3473 110.192 50.4833 110.192C49.5873 110.192 48.8139 109.904 48.1633 109.328C47.5233 108.741 47.2033 107.872 47.2033 106.72C47.2033 105.707 47.4913 104.869 48.0673 104.208C48.6539 103.536 49.4379 103.2 50.4193 103.2C51.5286 103.2 52.3659 103.605 52.9313 104.416C53.3793 105.056 53.5873 105.888 53.5553 106.912H48.3873C48.3979 107.584 48.6059 108.128 49.0113 108.544C49.4166 108.96 49.9126 109.168 50.4993 109.168C51.0219 109.168 51.4753 109.008 51.8593 108.688C52.1579 108.432 52.3873 108.128 52.5473 107.776ZM48.4673 105.952H52.3713C52.2753 105.429 52.0459 105.013 51.6833 104.704C51.3313 104.384 50.9099 104.224 50.4193 104.224C49.9393 104.224 49.5126 104.389 49.1393 104.72C48.7766 105.04 48.5526 105.451 48.4673 105.952ZM55.3224 98.336H56.4744V110H55.3224V98.336ZM63.5785 107.776L64.5385 108.304C64.3145 108.731 64.0425 109.088 63.7225 109.376C63.1145 109.92 62.3785 110.192 61.5145 110.192C60.6185 110.192 59.8452 109.904 59.1945 109.328C58.5545 108.741 58.2345 107.872 58.2345 106.72C58.2345 105.707 58.5225 104.869 59.0985 104.208C59.6852 103.536 60.4692 103.2 61.4505 103.2C62.5598 103.2 63.3972 103.605 63.9625 104.416C64.4105 105.056 64.6185 105.888 64.5865 106.912H59.4185C59.4292 107.584 59.6372 108.128 60.0425 108.544C60.4478 108.96 60.9438 109.168 61.5305 109.168C62.0532 109.168 62.5065 109.008 62.8905 108.688C63.1892 108.432 63.4185 108.128 63.5785 107.776ZM59.4985 105.952H63.4025C63.3065 105.429 63.0772 105.013 62.7145 104.704C62.3625 104.384 61.9412 104.224 61.4505 104.224C60.9705 104.224 60.5438 104.389 60.1705 104.72C59.8078 105.04 59.5838 105.451 59.4985 105.952ZM71.5536 103.84V105.216C71.031 104.555 70.3376 104.224 69.4736 104.224C68.823 104.224 68.2683 104.448 67.8096 104.896C67.351 105.333 67.1216 105.936 67.1216 106.704C67.1216 107.472 67.351 108.075 67.8096 108.512C68.2683 108.949 68.8176 109.168 69.4576 109.168C70.311 109.168 71.0256 108.821 71.6016 108.128V109.504C70.9723 109.963 70.2683 110.192 69.4896 110.192C68.455 110.192 67.6016 109.867 66.9296 109.216C66.2683 108.555 65.9376 107.723 65.9376 106.72C65.9376 105.707 66.2736 104.869 66.9456 104.208C67.6176 103.536 68.4656 103.2 69.4896 103.2C70.2576 103.2 70.9456 103.413 71.5536 103.84ZM75.7053 104.416H74.5533V110H73.4013V104.416H72.6973V103.36H73.4013V100.96H74.5533V103.36H75.7053V104.416ZM81.7191 107.776L82.6791 108.304C82.4551 108.731 82.1831 109.088 81.8631 109.376C81.2551 109.92 80.5191 110.192 79.6551 110.192C78.7591 110.192 77.9858 109.904 77.3351 109.328C76.6951 108.741 76.3751 107.872 76.3751 106.72C76.3751 105.707 76.6631 104.869 77.2391 104.208C77.8258 103.536 78.6098 103.2 79.5911 103.2C80.7005 103.2 81.5378 103.605 82.1031 104.416C82.5511 105.056 82.7591 105.888 82.7271 106.912H77.5591C77.5698 107.584 77.7778 108.128 78.1831 108.544C78.5885 108.96 79.0845 109.168 79.6711 109.168C80.1938 109.168 80.6471 109.008 81.0311 108.688C81.3298 108.432 81.5591 108.128 81.7191 107.776ZM77.6391 105.952H81.5431C81.4471 105.429 81.2178 105.013 80.8551 104.704C80.5031 104.384 80.0818 104.224 79.5911 104.224C79.1111 104.224 78.6845 104.389 78.3111 104.72C77.9485 105.04 77.7245 105.451 77.6391 105.952ZM89.5823 104.304V98.336H90.7343V110H89.5823V109.072C89.0063 109.819 88.2489 110.192 87.3103 110.192C86.4143 110.192 85.6516 109.883 85.0223 109.264C84.3929 108.645 84.0783 107.781 84.0783 106.672C84.0783 105.584 84.3876 104.736 85.0063 104.128C85.6356 103.509 86.4036 103.2 87.3103 103.2C88.2703 103.2 89.0276 103.568 89.5823 104.304ZM87.4383 104.224C86.8303 104.224 86.3129 104.443 85.8863 104.88C85.4703 105.307 85.2623 105.904 85.2623 106.672C85.2623 107.408 85.4543 108.011 85.8383 108.48C86.2329 108.939 86.7663 109.168 87.4383 109.168C88.1103 109.168 88.6436 108.928 89.0383 108.448C89.4436 107.968 89.6463 107.381 89.6463 106.688C89.6463 105.899 89.4223 105.291 88.9743 104.864C88.5263 104.437 88.0143 104.224 87.4383 104.224Z" fill="#0B1530"/>
<path d="M157.81 110H156.626V98.88L164.946 107.6V99.328H166.13V110.48L157.81 101.76V110ZM174.204 109.2C173.543 109.861 172.705 110.192 171.692 110.192C170.679 110.192 169.836 109.861 169.164 109.2C168.503 108.539 168.172 107.707 168.172 106.704C168.172 105.691 168.503 104.853 169.164 104.192C169.836 103.531 170.679 103.2 171.692 103.2C172.705 103.2 173.543 103.531 174.204 104.192C174.876 104.853 175.212 105.691 175.212 106.704C175.212 107.707 174.876 108.539 174.204 109.2ZM173.34 104.88C172.892 104.443 172.343 104.224 171.692 104.224C171.041 104.224 170.487 104.448 170.028 104.896C169.58 105.333 169.356 105.936 169.356 106.704C169.356 107.472 169.585 108.075 170.044 108.512C170.503 108.949 171.052 109.168 171.692 109.168C172.332 109.168 172.881 108.949 173.34 108.512C173.799 108.075 174.028 107.472 174.028 106.704C174.028 105.925 173.799 105.317 173.34 104.88ZM176.979 110V103.36H178.131V104.08C178.504 103.493 179.005 103.2 179.635 103.2C179.955 103.2 180.296 103.291 180.659 103.472L180.115 104.512C179.901 104.363 179.677 104.288 179.443 104.288C179.037 104.288 178.728 104.427 178.515 104.704C178.259 105.045 178.131 105.643 178.131 106.496V110H176.979ZM181.713 110V103.36H182.865V104.064C183.26 103.488 183.809 103.2 184.513 103.2C185.313 103.2 185.916 103.557 186.321 104.272C186.78 103.557 187.446 103.2 188.321 103.2C189.761 103.2 190.481 104.064 190.481 105.792V110H189.329V105.968C189.329 105.648 189.308 105.381 189.265 105.168C189.233 104.944 189.121 104.731 188.929 104.528C188.748 104.325 188.486 104.224 188.145 104.224C187.164 104.224 186.673 104.917 186.673 106.304V110H185.521V106.064C185.521 104.837 185.121 104.224 184.321 104.224C183.35 104.224 182.865 104.944 182.865 106.384V110H181.713ZM197.754 104.304V103.36H198.906V110H197.754V109.072C197.178 109.819 196.421 110.192 195.482 110.192C194.586 110.192 193.823 109.883 193.194 109.264C192.565 108.645 192.25 107.781 192.25 106.672C192.25 105.584 192.559 104.736 193.178 104.128C193.807 103.509 194.575 103.2 195.482 103.2C196.442 103.2 197.199 103.568 197.754 104.304ZM195.61 104.224C195.002 104.224 194.485 104.443 194.058 104.88C193.642 105.307 193.434 105.904 193.434 106.672C193.434 107.408 193.626 108.011 194.01 108.48C194.405 108.939 194.938 109.168 195.61 109.168C196.282 109.168 196.815 108.928 197.21 108.448C197.615 107.968 197.818 107.381 197.818 106.688C197.818 105.899 197.594 105.291 197.146 104.864C196.698 104.437 196.186 104.224 195.61 104.224ZM201.088 98.336H202.24V110H201.088V98.336Z" fill="#0B1530"/>
<path d="M272.81 99.328V103.664H278.282V99.328H279.466V110H278.282V104.784H272.81V110H271.626V99.328H272.81ZM287.548 109.2C286.886 109.861 286.049 110.192 285.036 110.192C284.022 110.192 283.18 109.861 282.508 109.2C281.846 108.539 281.516 107.707 281.516 106.704C281.516 105.691 281.846 104.853 282.508 104.192C283.18 103.531 284.022 103.2 285.036 103.2C286.049 103.2 286.886 103.531 287.548 104.192C288.22 104.853 288.556 105.691 288.556 106.704C288.556 107.707 288.22 108.539 287.548 109.2ZM286.684 104.88C286.236 104.443 285.686 104.224 285.036 104.224C284.385 104.224 283.83 104.448 283.372 104.896C282.924 105.333 282.7 105.936 282.7 106.704C282.7 107.472 282.929 108.075 283.388 108.512C283.846 108.949 284.396 109.168 285.036 109.168C285.676 109.168 286.225 108.949 286.684 108.512C287.142 108.075 287.372 107.472 287.372 106.704C287.372 105.925 287.142 105.317 286.684 104.88ZM289.362 103.36H290.642L292.626 107.84L294.61 103.36H295.89L292.626 110.432L289.362 103.36ZM302.032 107.776L302.992 108.304C302.768 108.731 302.496 109.088 302.176 109.376C301.568 109.92 300.832 110.192 299.968 110.192C299.072 110.192 298.298 109.904 297.648 109.328C297.008 108.741 296.688 107.872 296.688 106.72C296.688 105.707 296.976 104.869 297.552 104.208C298.138 103.536 298.922 103.2 299.904 103.2C301.013 103.2 301.85 103.605 302.416 104.416C302.864 105.056 303.072 105.888 303.04 106.912H297.872C297.882 107.584 298.09 108.128 298.496 108.544C298.901 108.96 299.397 109.168 299.984 109.168C300.506 109.168 300.96 109.008 301.344 108.688C301.642 108.432 301.872 108.128 302.032 107.776ZM297.952 105.952H301.856C301.76 105.429 301.53 105.013 301.168 104.704C300.816 104.384 300.394 104.224 299.904 104.224C299.424 104.224 298.997 104.389 298.624 104.72C298.261 105.04 298.037 105.451 297.952 105.952ZM304.807 110V103.36H305.959V104.08C306.332 103.493 306.833 103.2 307.463 103.2C307.783 103.2 308.124 103.291 308.487 103.472L307.943 104.512C307.729 104.363 307.505 104.288 307.271 104.288C306.865 104.288 306.556 104.427 306.343 104.704C306.087 105.045 305.959 105.643 305.959 106.496V110H304.807Z" fill="#0B1530"/>
<defs>
<filter id="filter0_d_947_2577" x="353.25" y="66" width="18" height="26" filterUnits="userSpaceOnUse" color-interpolation-filters="sRGB">
<feFlood flood-opacity="0" result="BackgroundImageFix"/>
<feColorMatrix in="SourceAlpha" type="matrix" values="0 0 0 0 0 0 0 0 0 0 0 0 0 0 0 0 0 0 127 0" result="hardAlpha"/>
<feOffset dy="1"/>
<feGaussianBlur stdDeviation="1"/>
<feComposite in2="hardAlpha" operator="out"/>
<feColorMatrix type="matrix" values="0 0 0 0 0 0 0 0 0 0 0 0 0 0 0 0 0 0 0.64 0"/>
<feBlend mode="normal" in2="BackgroundImageFix" result="effect1_dropShadow_947_2577"/>
<feBlend mode="normal" in="SourceGraphic" in2="effect1_dropShadow_947_2577" result="shape"/>
</filter>
<clipPath id="clip0_947_2577">
<rect width="24" height="24" fill="white" transform="translate(350.25 66)"/>
</clipPath>
</defs>
</svg>
