<svg width="416" height="198" viewBox="0 0 416 198" fill="none" xmlns="http://www.w3.org/2000/svg">
<rect width="416" height="198" rx="24" fill="#F5F6F8"/>
<rect x="16" y="16" width="384" height="166.203" rx="18" fill="white"/>
<path d="M176.203 82H148.203V116H176.203" stroke="#33F7C3" stroke-width="2"/>
<rect x="137.453" y="109.351" width="43.9061" height="20.7027" rx="3.75176" transform="rotate(-180 137.453 109.351)" fill="#33F7C3"/>
<rect x="137.453" y="109.351" width="43.9061" height="20.7027" rx="3.75176" transform="rotate(-180 137.453 109.351)" stroke="#33F7C3" stroke-width="1.5007"/>
<path d="M103.935 103.619C103.298 103.619 102.731 103.51 102.234 103.291C101.739 103.069 101.349 102.765 101.062 102.379C100.777 101.989 100.631 101.54 100.622 101.032H102.481C102.493 101.245 102.562 101.432 102.69 101.594C102.821 101.753 102.994 101.877 103.21 101.965C103.426 102.053 103.669 102.097 103.939 102.097C104.221 102.097 104.469 102.048 104.685 101.948C104.901 101.849 105.071 101.711 105.193 101.535C105.315 101.358 105.376 101.155 105.376 100.925C105.376 100.692 105.311 100.486 105.18 100.307C105.052 100.125 104.867 99.9827 104.626 99.8804C104.387 99.7781 104.103 99.7269 103.773 99.7269H102.959V98.3712H103.773C104.052 98.3712 104.297 98.3229 104.511 98.2262C104.727 98.1296 104.894 97.996 105.014 97.8255C105.133 97.6521 105.193 97.4503 105.193 97.2201C105.193 97.0012 105.14 96.8094 105.035 96.6445C104.933 96.4768 104.788 96.3461 104.6 96.2523C104.415 96.1585 104.199 96.1116 103.952 96.1116C103.702 96.1116 103.473 96.1571 103.266 96.248C103.058 96.3361 102.892 96.4626 102.767 96.6275C102.642 96.7923 102.575 96.9856 102.567 97.2073H100.797C100.806 96.7042 100.949 96.2608 101.228 95.8771C101.506 95.4934 101.882 95.1935 102.353 94.9775C102.828 94.7587 103.364 94.6493 103.961 94.6493C104.563 94.6493 105.09 94.7587 105.542 94.9775C105.994 95.1964 106.345 95.492 106.595 95.8643C106.848 96.2338 106.973 96.6488 106.971 97.1092C106.973 97.5981 106.821 98.0059 106.514 98.3328C106.21 98.6597 105.814 98.8671 105.325 98.9553V99.0235C105.967 99.1059 106.456 99.329 106.792 99.6928C107.13 100.054 107.297 100.506 107.295 101.049C107.297 101.546 107.154 101.988 106.864 102.374C106.577 102.761 106.18 103.065 105.675 103.287C105.169 103.509 104.589 103.619 103.935 103.619ZM111.973 103.619C111.524 103.617 111.09 103.541 110.672 103.393C110.257 103.246 109.885 103.005 109.555 102.673C109.226 102.34 108.964 101.9 108.771 101.351C108.58 100.803 108.485 100.129 108.485 99.3304C108.488 98.5971 108.572 97.942 108.737 97.365C108.904 96.7852 109.143 96.2935 109.453 95.8899C109.766 95.4863 110.139 95.1793 110.574 94.969C111.009 94.7558 111.497 94.6493 112.037 94.6493C112.619 94.6493 113.134 94.763 113.58 94.9903C114.026 95.2149 114.384 95.5204 114.654 95.907C114.927 96.2935 115.092 96.7269 115.149 97.2073H113.328C113.257 96.9032 113.108 96.6644 112.881 96.491C112.653 96.3177 112.372 96.231 112.037 96.231C111.468 96.231 111.036 96.4782 110.74 96.9728C110.448 97.4673 110.299 98.1395 110.293 98.9894H110.353C110.483 98.7307 110.659 98.5104 110.881 98.3285C111.106 98.1438 111.36 98.0031 111.644 97.9065C111.931 97.807 112.234 97.7573 112.552 97.7573C113.07 97.7573 113.53 97.8795 113.934 98.1239C114.337 98.3655 114.656 98.698 114.889 99.1215C115.122 99.545 115.238 100.03 115.238 100.575C115.238 101.167 115.1 101.692 114.825 102.153C114.552 102.613 114.17 102.974 113.678 103.236C113.189 103.494 112.621 103.622 111.973 103.619ZM111.964 102.17C112.248 102.17 112.503 102.102 112.727 101.965C112.952 101.829 113.128 101.644 113.256 101.411C113.384 101.178 113.448 100.916 113.448 100.626C113.448 100.337 113.384 100.077 113.256 99.8463C113.131 99.6161 112.957 99.4328 112.736 99.2963C112.514 99.1599 112.261 99.0917 111.977 99.0917C111.764 99.0917 111.566 99.1315 111.384 99.2111C111.205 99.2906 111.047 99.4015 110.911 99.5436C110.777 99.6857 110.672 99.8506 110.596 100.038C110.519 100.223 110.48 100.42 110.48 100.631C110.48 100.912 110.544 101.169 110.672 101.402C110.803 101.635 110.979 101.822 111.201 101.961C111.425 102.1 111.68 102.17 111.964 102.17ZM116.564 105.956V96.9515H118.355V98.0514H118.436C118.515 97.8752 118.631 97.6961 118.781 97.5142C118.935 97.3295 119.134 97.176 119.378 97.0538C119.625 96.9287 119.932 96.8662 120.299 96.8662C120.776 96.8662 121.217 96.9913 121.621 97.2414C122.024 97.4887 122.347 97.8624 122.588 98.3626C122.83 98.86 122.951 99.4839 122.951 100.234C122.951 100.965 122.833 101.581 122.597 102.085C122.364 102.585 122.045 102.964 121.642 103.223C121.241 103.479 120.792 103.607 120.295 103.607C119.942 103.607 119.642 103.548 119.395 103.432C119.151 103.315 118.95 103.169 118.794 102.993C118.638 102.814 118.518 102.633 118.436 102.451H118.38V105.956H116.564ZM118.342 100.226C118.342 100.615 118.396 100.955 118.504 101.245C118.612 101.535 118.768 101.761 118.973 101.923C119.178 102.082 119.426 102.161 119.719 102.161C120.015 102.161 120.265 102.08 120.469 101.918C120.674 101.753 120.829 101.526 120.934 101.236C121.042 100.943 121.096 100.607 121.096 100.226C121.096 99.8477 121.044 99.5152 120.938 99.2281C120.833 98.941 120.678 98.7165 120.474 98.5545C120.269 98.3925 120.018 98.3115 119.719 98.3115C119.424 98.3115 119.173 98.3897 118.969 98.546C118.767 98.7023 118.612 98.924 118.504 99.2111C118.396 99.4981 118.342 99.8364 118.342 100.226ZM125.445 96.9515L126.647 99.2409L127.879 96.9515H129.742L127.845 100.226L129.793 103.5H127.939L126.647 101.236L125.377 103.5H123.501L125.445 100.226L123.569 96.9515H125.445Z" fill="#0B1530"/>
<path d="M183 110.203V72.2031H159V110.203" stroke="#33F7C3" stroke-width="2"/>
<rect x="192.453" y="61.4528" width="42.9061" height="20.7027" rx="3.75176" transform="rotate(-180 192.453 61.4528)" fill="#33F7C3"/>
<rect x="192.453" y="61.4528" width="42.9061" height="20.7027" rx="3.75176" transform="rotate(-180 192.453 61.4528)" stroke="#33F7C3" stroke-width="1.5007"/>
<path d="M156.708 55.6016V54.2714L159.816 51.3936C160.08 51.1378 160.302 50.9076 160.481 50.703C160.663 50.4983 160.801 50.2979 160.894 50.1018C160.988 49.9029 161.035 49.6883 161.035 49.4581C161.035 49.2023 160.977 48.982 160.86 48.7972C160.744 48.6096 160.585 48.4661 160.383 48.3666C160.181 48.2643 159.952 48.2132 159.696 48.2132C159.429 48.2132 159.196 48.2672 158.997 48.3752C158.798 48.4832 158.645 48.6381 158.537 48.8399C158.429 49.0417 158.375 49.2818 158.375 49.5604H156.622C156.622 48.9891 156.752 48.4931 157.01 48.0725C157.269 47.6518 157.631 47.3264 158.098 47.0962C158.564 46.8659 159.101 46.7508 159.709 46.7508C160.334 46.7508 160.879 46.8617 161.342 47.0834C161.808 47.3022 162.171 47.6063 162.429 47.9957C162.688 48.3851 162.817 48.8313 162.817 49.3344C162.817 49.6641 162.752 49.9896 162.621 50.3107C162.493 50.6319 162.264 50.9886 161.935 51.3808C161.605 51.7702 161.14 52.2378 160.54 52.7835L159.266 54.0326V54.0923H162.932V55.6016H156.708ZM163.95 54.0668V52.6129L167.595 46.8702H168.849V48.8825H168.107L165.809 52.5192V52.5874H170.989V54.0668H163.95ZM168.141 55.6016V53.6234L168.175 52.9796V46.8702H169.906V55.6016H168.141ZM172.236 58.0573V49.053H174.027V50.153H174.108C174.187 49.9768 174.302 49.7977 174.453 49.6158C174.606 49.4311 174.805 49.2776 175.05 49.1554C175.297 49.0303 175.604 48.9678 175.971 48.9678C176.448 48.9678 176.889 49.0928 177.292 49.3429C177.696 49.5902 178.018 49.964 178.26 50.4642C178.502 50.9616 178.622 51.5855 178.622 52.3358C178.622 53.0663 178.505 53.683 178.269 54.1861C178.036 54.6864 177.717 55.0658 177.314 55.3244C176.913 55.5802 176.464 55.7081 175.966 55.7081C175.614 55.7081 175.314 55.6499 175.067 55.5333C174.822 55.4168 174.622 55.2704 174.466 55.0942C174.309 54.9152 174.19 54.7347 174.108 54.5528H174.052V58.0573H172.236ZM174.014 52.3273C174.014 52.7167 174.068 53.0563 174.176 53.3462C174.284 53.6362 174.44 53.8621 174.645 54.0241C174.849 54.1833 175.098 54.2629 175.391 54.2629C175.686 54.2629 175.937 54.1819 176.141 54.0199C176.346 53.855 176.501 53.6276 176.606 53.3377C176.714 53.045 176.768 52.7082 176.768 52.3273C176.768 51.9493 176.715 51.6167 176.61 51.3297C176.505 51.0426 176.35 50.8181 176.145 50.6561C175.941 50.4941 175.689 50.4131 175.391 50.4131C175.095 50.4131 174.845 50.4912 174.64 50.6475C174.439 50.8039 174.284 51.0256 174.176 51.3126C174.068 51.5997 174.014 51.9379 174.014 52.3273ZM181.117 49.053L182.319 51.3425L183.551 49.053H185.414L183.517 52.3273L185.465 55.6016H183.611L182.319 53.3377L181.048 55.6016H179.172L181.117 52.3273L179.241 49.053H181.117Z" fill="#0B1530"/>
<path d="M266.593 110.203V72.2031H242.593V110.203" stroke="#33F7C3" stroke-width="2"/>
<rect x="276.046" y="61.4528" width="42.9061" height="20.7027" rx="3.75176" transform="rotate(-180 276.046 61.4528)" fill="#33F7C3"/>
<rect x="276.046" y="61.4528" width="42.9061" height="20.7027" rx="3.75176" transform="rotate(-180 276.046 61.4528)" stroke="#33F7C3" stroke-width="1.5007"/>
<path d="M240.301 55.6016V54.2714L243.409 51.3936C243.673 51.1378 243.895 50.9076 244.074 50.703C244.256 50.4983 244.394 50.2979 244.488 50.1018C244.581 49.9029 244.628 49.6883 244.628 49.4581C244.628 49.2023 244.57 48.982 244.453 48.7972C244.337 48.6096 244.178 48.4661 243.976 48.3666C243.774 48.2643 243.545 48.2132 243.29 48.2132C243.022 48.2132 242.789 48.2672 242.59 48.3752C242.391 48.4832 242.238 48.6381 242.13 48.8399C242.022 49.0417 241.968 49.2818 241.968 49.5604H240.216C240.216 48.9891 240.345 48.4931 240.604 48.0725C240.862 47.6518 241.225 47.3264 241.691 47.0962C242.157 46.8659 242.694 46.7508 243.302 46.7508C243.928 46.7508 244.472 46.8617 244.935 47.0834C245.401 47.3022 245.764 47.6063 246.022 47.9957C246.281 48.3851 246.41 48.8313 246.41 49.3344C246.41 49.6641 246.345 49.9896 246.214 50.3107C246.086 50.6319 245.858 50.9886 245.528 51.3808C245.198 51.7702 244.733 52.2378 244.134 52.7835L242.859 54.0326V54.0923H246.525V55.6016H240.301ZM247.543 54.0668V52.6129L251.189 46.8702H252.442V48.8825H251.7L249.402 52.5192V52.5874H254.582V54.0668H247.543ZM251.734 55.6016V53.6234L251.768 52.9796V46.8702H253.499V55.6016H251.734ZM255.829 58.0573V49.053H257.62V50.153H257.701C257.78 49.9768 257.896 49.7977 258.046 49.6158C258.2 49.4311 258.399 49.2776 258.643 49.1554C258.89 49.0303 259.197 48.9678 259.564 48.9678C260.041 48.9678 260.482 49.0928 260.886 49.3429C261.289 49.5902 261.612 49.964 261.853 50.4642C262.095 50.9616 262.216 51.5855 262.216 52.3358C262.216 53.0663 262.098 53.683 261.862 54.1861C261.629 54.6864 261.31 55.0658 260.907 55.3244C260.506 55.5802 260.057 55.7081 259.56 55.7081C259.207 55.7081 258.907 55.6499 258.66 55.5333C258.416 55.4168 258.215 55.2704 258.059 55.0942C257.903 54.9152 257.783 54.7347 257.701 54.5528H257.645V58.0573H255.829ZM257.607 52.3273C257.607 52.7167 257.661 53.0563 257.769 53.3462C257.877 53.6362 258.033 53.8621 258.238 54.0241C258.443 54.1833 258.691 54.2629 258.984 54.2629C259.28 54.2629 259.53 54.1819 259.734 54.0199C259.939 53.855 260.094 53.6276 260.199 53.3377C260.307 53.045 260.361 52.7082 260.361 52.3273C260.361 51.9493 260.309 51.6167 260.203 51.3297C260.098 51.0426 259.943 50.8181 259.739 50.6561C259.534 50.4941 259.283 50.4131 258.984 50.4131C258.689 50.4131 258.438 50.4912 258.234 50.6475C258.032 50.8039 257.877 51.0256 257.769 51.3126C257.661 51.5997 257.607 51.9379 257.607 52.3273ZM264.71 49.053L265.912 51.3425L267.144 49.053H269.007L267.11 52.3273L269.058 55.6016H267.204L265.912 53.3377L264.642 55.6016H262.766L264.71 52.3273L262.834 49.053H264.71Z" fill="#0B1530"/>
<rect x="174.453" y="157.453" width="34.9061" height="20.7027" rx="3.75176" transform="rotate(-180 174.453 157.453)" fill="#33F7C3"/>
<rect x="174.453" y="157.453" width="34.9061" height="20.7027" rx="3.75176" transform="rotate(-180 174.453 157.453)" stroke="#33F7C3" stroke-width="1.5007"/>
<path d="M146.708 151.602V150.271L149.816 147.394C150.08 147.138 150.302 146.908 150.481 146.703C150.663 146.498 150.801 146.298 150.894 146.102C150.988 145.903 151.035 145.688 151.035 145.458C151.035 145.202 150.977 144.982 150.86 144.797C150.744 144.61 150.585 144.466 150.383 144.367C150.181 144.264 149.952 144.213 149.696 144.213C149.429 144.213 149.196 144.267 148.997 144.375C148.798 144.483 148.645 144.638 148.537 144.84C148.429 145.042 148.375 145.282 148.375 145.56H146.622C146.622 144.989 146.752 144.493 147.01 144.072C147.269 143.652 147.631 143.326 148.098 143.096C148.564 142.866 149.101 142.751 149.709 142.751C150.334 142.751 150.879 142.862 151.342 143.083C151.808 143.302 152.171 143.606 152.429 143.996C152.688 144.385 152.817 144.831 152.817 145.334C152.817 145.664 152.752 145.99 152.621 146.311C152.493 146.632 152.264 146.989 151.935 147.381C151.605 147.77 151.14 148.238 150.54 148.783L149.266 150.033V150.092H152.932V151.602H146.708ZM154.287 154.057V145.053H156.078V146.153H156.159C156.238 145.977 156.353 145.798 156.504 145.616C156.657 145.431 156.856 145.278 157.101 145.155C157.348 145.03 157.655 144.968 158.022 144.968C158.499 144.968 158.94 145.093 159.343 145.343C159.747 145.59 160.069 145.964 160.311 146.464C160.553 146.962 160.673 147.585 160.673 148.336C160.673 149.066 160.555 149.683 160.32 150.186C160.087 150.686 159.768 151.066 159.365 151.324C158.964 151.58 158.515 151.708 158.017 151.708C157.665 151.708 157.365 151.65 157.118 151.533C156.873 151.417 156.673 151.27 156.517 151.094C156.36 150.915 156.241 150.735 156.159 150.553H156.103V154.057H154.287ZM156.065 148.327C156.065 148.717 156.119 149.056 156.227 149.346C156.335 149.636 156.491 149.862 156.696 150.024C156.9 150.183 157.149 150.263 157.442 150.263C157.737 150.263 157.988 150.182 158.192 150.02C158.397 149.855 158.552 149.628 158.657 149.338C158.765 149.045 158.819 148.708 158.819 148.327C158.819 147.949 158.766 147.617 158.661 147.33C158.556 147.043 158.401 146.818 158.196 146.656C157.992 146.494 157.74 146.413 157.442 146.413C157.146 146.413 156.896 146.491 156.691 146.648C156.49 146.804 156.335 147.026 156.227 147.313C156.119 147.6 156.065 147.938 156.065 148.327ZM163.167 145.053L164.37 147.342L165.602 145.053H167.465L165.568 148.327L167.516 151.602H165.662L164.37 149.338L163.099 151.602H161.223L163.167 148.327L161.292 145.053H163.167Z" fill="#0B1530"/>
<path d="M155 88V126H159V88" stroke="#33F7C3" stroke-width="2"/>
<rect x="322.453" y="126.254" width="34.9061" height="20.7027" rx="3.75176" transform="rotate(-180 322.453 126.254)" fill="#33F7C3"/>
<rect x="322.453" y="126.254" width="34.9061" height="20.7027" rx="3.75176" transform="rotate(-180 322.453 126.254)" stroke="#33F7C3" stroke-width="1.5007"/>
<path d="M294.708 120.402V119.072L297.816 116.194C298.08 115.939 298.302 115.708 298.481 115.504C298.663 115.299 298.801 115.099 298.894 114.903C298.988 114.704 299.035 114.489 299.035 114.259C299.035 114.003 298.977 113.783 298.86 113.598C298.744 113.41 298.585 113.267 298.383 113.167C298.181 113.065 297.952 113.014 297.696 113.014C297.429 113.014 297.196 113.068 296.997 113.176C296.798 113.284 296.645 113.439 296.537 113.641C296.429 113.842 296.375 114.083 296.375 114.361H294.622C294.622 113.79 294.752 113.294 295.01 112.873C295.269 112.453 295.631 112.127 296.098 111.897C296.564 111.667 297.101 111.552 297.709 111.552C298.334 111.552 298.879 111.662 299.342 111.884C299.808 112.103 300.171 112.407 300.429 112.797C300.688 113.186 300.817 113.632 300.817 114.135C300.817 114.465 300.752 114.79 300.621 115.112C300.493 115.433 300.264 115.789 299.935 116.182C299.605 116.571 299.14 117.039 298.54 117.584L297.266 118.833V118.893H300.932V120.402H294.708ZM302.287 122.858V113.854H304.078V114.954H304.159C304.238 114.778 304.353 114.598 304.504 114.417C304.657 114.232 304.856 114.078 305.101 113.956C305.348 113.831 305.655 113.769 306.022 113.769C306.499 113.769 306.94 113.894 307.343 114.144C307.747 114.391 308.069 114.765 308.311 115.265C308.553 115.762 308.673 116.386 308.673 117.137C308.673 117.867 308.555 118.484 308.32 118.987C308.087 119.487 307.768 119.867 307.365 120.125C306.964 120.381 306.515 120.509 306.017 120.509C305.665 120.509 305.365 120.451 305.118 120.334C304.873 120.218 304.673 120.071 304.517 119.895C304.36 119.716 304.241 119.535 304.159 119.354H304.103V122.858H302.287ZM304.065 117.128C304.065 117.517 304.119 117.857 304.227 118.147C304.335 118.437 304.491 118.663 304.696 118.825C304.9 118.984 305.149 119.064 305.442 119.064C305.737 119.064 305.988 118.983 306.192 118.821C306.397 118.656 306.552 118.428 306.657 118.138C306.765 117.846 306.819 117.509 306.819 117.128C306.819 116.75 306.766 116.418 306.661 116.13C306.556 115.843 306.401 115.619 306.196 115.457C305.992 115.295 305.74 115.214 305.442 115.214C305.146 115.214 304.896 115.292 304.691 115.448C304.49 115.605 304.335 115.826 304.227 116.113C304.119 116.4 304.065 116.739 304.065 117.128ZM311.167 113.854L312.37 116.143L313.602 113.854H315.465L313.568 117.128L315.516 120.402H313.662L312.37 118.138L311.099 120.402H309.223L311.167 117.128L309.292 113.854H311.167Z" fill="#0B1530"/>
<path d="M238.797 117.902L276.797 117.902L276.797 113.902L238.797 113.902" stroke="#33F7C3" stroke-width="2"/>
<rect x="322.453" y="92.652" width="34.9061" height="20.7027" rx="3.75176" transform="rotate(-180 322.453 92.652)" fill="#33F7C3"/>
<rect x="322.453" y="92.652" width="34.9061" height="20.7027" rx="3.75176" transform="rotate(-180 322.453 92.652)" stroke="#33F7C3" stroke-width="1.5007"/>
<path d="M294.708 86.8008V85.4706L297.816 82.5928C298.08 82.337 298.302 82.1068 298.481 81.9022C298.663 81.6975 298.801 81.4972 298.894 81.301C298.988 81.1021 299.035 80.8875 299.035 80.6573C299.035 80.4015 298.977 80.1812 298.86 79.9965C298.744 79.8089 298.585 79.6653 298.383 79.5659C298.181 79.4635 297.952 79.4124 297.696 79.4124C297.429 79.4124 297.196 79.4664 296.997 79.5744C296.798 79.6824 296.645 79.8373 296.537 80.0391C296.429 80.2409 296.375 80.4811 296.375 80.7596H294.622C294.622 80.1883 294.752 79.6923 295.01 79.2717C295.269 78.851 295.631 78.5256 296.098 78.2954C296.564 78.0652 297.101 77.95 297.709 77.95C298.334 77.95 298.879 78.0609 299.342 78.2826C299.808 78.5014 300.171 78.8056 300.429 79.1949C300.688 79.5843 300.817 80.0306 300.817 80.5336C300.817 80.8633 300.752 81.1888 300.621 81.5099C300.493 81.8311 300.264 82.1878 299.935 82.5801C299.605 82.9694 299.14 83.437 298.54 83.9827L297.266 85.2319V85.2916H300.932V86.8008H294.708ZM302.287 89.2565V80.2523H304.078V81.3522H304.159C304.238 81.176 304.353 80.9969 304.504 80.815C304.657 80.6303 304.856 80.4768 305.101 80.3546C305.348 80.2295 305.655 80.167 306.022 80.167C306.499 80.167 306.94 80.292 307.343 80.5422C307.747 80.7894 308.069 81.1632 308.311 81.6634C308.553 82.1608 308.673 82.7847 308.673 83.535C308.673 84.2655 308.555 84.8823 308.32 85.3853C308.087 85.8856 307.768 86.265 307.365 86.5237C306.964 86.7795 306.515 86.9074 306.017 86.9074C305.665 86.9074 305.365 86.8491 305.118 86.7326C304.873 86.616 304.673 86.4697 304.517 86.2934C304.36 86.1144 304.241 85.9339 304.159 85.752H304.103V89.2565H302.287ZM304.065 83.5265C304.065 83.9159 304.119 84.2556 304.227 84.5455C304.335 84.8354 304.491 85.0613 304.696 85.2233C304.9 85.3825 305.149 85.4621 305.442 85.4621C305.737 85.4621 305.988 85.3811 306.192 85.2191C306.397 85.0542 306.552 84.8268 306.657 84.5369C306.765 84.2442 306.819 83.9074 306.819 83.5265C306.819 83.1485 306.766 82.816 306.661 82.5289C306.556 82.2418 306.401 82.0173 306.196 81.8553C305.992 81.6933 305.74 81.6123 305.442 81.6123C305.146 81.6123 304.896 81.6904 304.691 81.8468C304.49 82.0031 304.335 82.2248 304.227 82.5118C304.119 82.7989 304.065 83.1371 304.065 83.5265ZM311.167 80.2523L312.37 82.5417L313.602 80.2523H315.465L313.568 83.5265L315.516 86.8008H313.662L312.37 84.5369L311.099 86.8008H309.223L311.167 83.5265L309.292 80.2523H311.167Z" fill="#0B1530"/>
<path d="M238.797 84.3008L276.797 84.3008L276.797 80.3008L238.797 80.3008" stroke="#33F7C3" stroke-width="2"/>
<rect x="154.797" y="79" width="116" height="40" rx="9" fill="#EFF0F3"/>
<rect x="156.797" y="81" width="112" height="36" rx="8" fill="#457BF8"/>
<path d="M182.397 92.66H192.197V106H190.157V94.58H184.437V106H182.397V92.66ZM200.944 103.16L202.584 104.08C202.211 104.747 201.738 105.26 201.164 105.62C200.511 106.047 199.684 106.26 198.684 106.26C197.511 106.26 196.564 105.9 195.844 105.18C195.018 104.353 194.604 103.28 194.604 101.96C194.604 100.573 195.051 99.42 195.944 98.5C196.704 97.74 197.644 97.36 198.764 97.36C199.858 97.36 200.758 97.7267 201.464 98.46C202.251 99.2733 202.644 100.46 202.644 102.02V102.26H196.604C196.658 102.967 196.898 103.533 197.324 103.96C197.684 104.32 198.184 104.5 198.824 104.5C199.344 104.5 199.791 104.36 200.164 104.08C200.471 103.84 200.731 103.533 200.944 103.16ZM196.744 100.66H200.644C200.564 100.193 200.364 99.8133 200.044 99.52C199.698 99.2 199.258 99.04 198.724 99.04C198.164 99.04 197.704 99.22 197.344 99.58C197.051 99.8467 196.851 100.207 196.744 100.66ZM206.653 105.02V110.58H204.693V97.58H206.653V98.5C207.293 97.74 208.126 97.36 209.153 97.36C210.3 97.36 211.266 97.7667 212.053 98.58C212.853 99.38 213.253 100.433 213.253 101.74C213.253 103.087 212.84 104.18 212.013 105.02C211.186 105.847 210.24 106.26 209.173 106.26C208.173 106.26 207.333 105.847 206.653 105.02ZM208.913 99.12C208.246 99.12 207.68 99.36 207.213 99.84C206.76 100.307 206.533 100.973 206.533 101.84C206.533 102.68 206.76 103.333 207.213 103.8C207.68 104.267 208.246 104.5 208.913 104.5C209.606 104.5 210.166 104.24 210.593 103.72C211.033 103.2 211.253 102.567 211.253 101.82C211.253 101.06 211.033 100.42 210.593 99.9C210.166 99.38 209.606 99.12 208.913 99.12ZM215.298 97.58H218.598C219.438 97.58 220.078 97.7467 220.518 98.08C221.038 98.4933 221.298 99.0333 221.298 99.7C221.298 100.46 220.965 101.007 220.298 101.34C220.725 101.42 221.105 101.607 221.438 101.9C221.878 102.3 222.098 102.84 222.098 103.52C222.098 104.333 221.792 104.973 221.178 105.44C220.672 105.813 220.025 106 219.238 106H215.298V97.58ZM217.258 100.86H218.258C218.605 100.86 218.865 100.8 219.038 100.68C219.292 100.52 219.418 100.293 219.418 100C219.418 99.72 219.305 99.5 219.078 99.34C218.918 99.2333 218.632 99.18 218.218 99.18H217.258V100.86ZM217.258 104.4H218.718C219.158 104.4 219.498 104.32 219.738 104.16C220.005 103.987 220.138 103.74 220.138 103.42C220.138 103.073 220.012 102.827 219.758 102.68C219.532 102.533 219.205 102.46 218.778 102.46H217.258V104.4ZM224.146 106V97.58H226.106V100.56H227.226C227.586 100.56 227.879 100.573 228.106 100.6C228.333 100.613 228.606 100.687 228.926 100.82C229.246 100.953 229.526 101.153 229.766 101.42C230.206 101.913 230.426 102.527 230.426 103.26C230.426 104.1 230.173 104.773 229.666 105.28C229.439 105.507 229.166 105.68 228.846 105.8C228.539 105.907 228.279 105.967 228.066 105.98C227.866 105.993 227.579 106 227.206 106H224.146ZM226.106 104.32H227.006C227.486 104.32 227.826 104.26 228.026 104.14C228.319 103.927 228.466 103.64 228.466 103.28C228.466 102.907 228.326 102.627 228.046 102.44C227.833 102.307 227.493 102.24 227.026 102.24H226.106V104.32ZM231.306 106V97.58H233.266V106H231.306ZM235.748 97.58H237.708V102.36L243.468 96.82V106H241.508V101.1L235.748 106.64V97.58ZM236.388 93.94L237.988 93.48C238.241 94.3467 238.788 94.78 239.628 94.78C240.454 94.78 241.001 94.3467 241.268 93.48L242.868 93.94C242.654 94.7 242.221 95.2867 241.568 95.7C240.928 96.1 240.281 96.3 239.628 96.3C238.974 96.3 238.321 96.1 237.668 95.7C237.028 95.2867 236.601 94.7 236.388 93.94Z" fill="white"/>
</svg>
