<svg width="768" height="277" viewBox="0 0 768 277" fill="none" xmlns="http://www.w3.org/2000/svg">
<rect width="768" height="277" rx="24" fill="#F5F6F8"/>
<mask id="path-2-inside-1_995_4174" fill="white">
<path d="M217.407 181.5L183.407 181.5L183.407 98.5L217.407 98.5L217.407 181.5Z"/>
</mask>
<path d="M183.407 181.5L181.407 181.5L181.407 183.5L183.407 183.5L183.407 181.5ZM183.407 98.5L183.407 96.5L181.407 96.5L181.407 98.5L183.407 98.5ZM217.407 179.5L183.407 179.5L183.407 183.5L217.407 183.5L217.407 179.5ZM185.407 181.5L185.407 98.5L181.407 98.5L181.407 181.5L185.407 181.5ZM183.407 100.5L217.407 100.5L217.407 96.5L183.407 96.5L183.407 100.5Z" fill="#33F7C3" mask="url(#path-2-inside-1_995_4174)"/>
<rect x="128.75" y="129.649" width="43.9061" height="20.7027" rx="3.75176" fill="#33F7C3"/>
<rect x="128.75" y="129.649" width="43.9061" height="20.7027" rx="3.75176" stroke="#33F7C3" stroke-width="1.5007"/>
<path d="M135.779 142.965V141.511L139.424 135.769H140.677V137.781H139.935L137.638 141.418V141.486H142.817V142.965H135.779ZM139.97 144.5V142.522L140.004 141.878V135.769H141.735V144.5H139.97ZM147.471 144.692C146.738 144.689 146.107 144.509 145.578 144.15C145.052 143.792 144.647 143.274 144.363 142.594C144.082 141.915 143.942 141.098 143.945 140.143C143.945 139.191 144.086 138.379 144.367 137.708C144.651 137.038 145.056 136.528 145.582 136.178C146.111 135.825 146.74 135.649 147.471 135.649C148.201 135.649 148.83 135.825 149.355 136.178C149.884 136.53 150.29 137.042 150.575 137.713C150.859 138.381 151 139.191 150.997 140.143C150.997 141.101 150.855 141.919 150.57 142.599C150.289 143.278 149.885 143.797 149.36 144.155C148.834 144.513 148.204 144.692 147.471 144.692ZM147.471 143.161C147.971 143.161 148.371 142.91 148.669 142.407C148.967 141.904 149.115 141.149 149.112 140.143C149.112 139.481 149.044 138.929 148.908 138.489C148.774 138.048 148.584 137.717 148.336 137.495C148.092 137.274 147.803 137.163 147.471 137.163C146.974 137.163 146.576 137.411 146.277 137.909C145.979 138.406 145.828 139.151 145.825 140.143C145.825 140.814 145.892 141.374 146.026 141.823C146.162 142.269 146.354 142.604 146.601 142.829C146.848 143.05 147.138 143.161 147.471 143.161ZM152.33 146.956V137.951H154.121V139.051H154.202C154.281 138.875 154.396 138.696 154.547 138.514C154.701 138.329 154.9 138.176 155.144 138.054C155.391 137.929 155.698 137.866 156.065 137.866C156.542 137.866 156.983 137.991 157.386 138.241C157.79 138.489 158.113 138.862 158.354 139.363C158.596 139.86 158.717 140.484 158.717 141.234C158.717 141.965 158.599 142.581 158.363 143.085C158.13 143.585 157.811 143.964 157.408 144.223C157.007 144.479 156.558 144.607 156.061 144.607C155.708 144.607 155.408 144.548 155.161 144.432C154.917 144.315 154.716 144.169 154.56 143.993C154.404 143.814 154.284 143.633 154.202 143.451H154.146V146.956H152.33ZM154.108 141.226C154.108 141.615 154.162 141.955 154.27 142.245C154.378 142.535 154.534 142.761 154.739 142.923C154.944 143.082 155.192 143.161 155.485 143.161C155.781 143.161 156.031 143.08 156.235 142.918C156.44 142.753 156.595 142.526 156.7 142.236C156.808 141.943 156.862 141.607 156.862 141.226C156.862 140.848 156.809 140.515 156.704 140.228C156.599 139.941 156.444 139.717 156.24 139.555C156.035 139.392 155.783 139.311 155.485 139.311C155.189 139.311 154.939 139.39 154.735 139.546C154.533 139.702 154.378 139.924 154.27 140.211C154.162 140.498 154.108 140.836 154.108 141.226ZM161.211 137.951L162.413 140.241L163.645 137.951H165.508L163.611 141.226L165.559 144.5H163.705L162.413 142.236L161.142 144.5H159.267L161.211 141.226L159.335 137.951H161.211Z" fill="#0B1530"/>
<mask id="path-6-inside-2_995_4174" fill="white">
<path d="M227.497 165L227.497 195L204.497 195L204.497 165L227.497 165Z"/>
</mask>
<path d="M227.497 195L227.497 197L229.497 197L229.497 195L227.497 195ZM204.497 195L202.497 195L202.497 197L204.497 197L204.497 195ZM225.497 165L225.497 195L229.497 195L229.497 165L225.497 165ZM227.497 193L204.497 193L204.497 197L227.497 197L227.497 193ZM206.497 195L206.497 165L202.497 165L202.497 195L206.497 195Z" fill="#33F7C3" mask="url(#path-6-inside-2_995_4174)"/>
<rect x="194.043" y="205.75" width="43.9061" height="20.7027" rx="3.75176" fill="#33F7C3"/>
<rect x="194.043" y="205.75" width="43.9061" height="20.7027" rx="3.75176" stroke="#33F7C3" stroke-width="1.5007"/>
<path d="M201.204 220.602V219.271L204.312 216.394C204.576 216.138 204.798 215.908 204.977 215.703C205.159 215.498 205.297 215.298 205.39 215.102C205.484 214.903 205.531 214.688 205.531 214.458C205.531 214.202 205.473 213.982 205.356 213.797C205.24 213.61 205.081 213.466 204.879 213.367C204.677 213.264 204.448 213.213 204.192 213.213C203.925 213.213 203.692 213.267 203.493 213.375C203.294 213.483 203.141 213.638 203.033 213.84C202.925 214.042 202.871 214.282 202.871 214.56H201.119C201.119 213.989 201.248 213.493 201.507 213.072C201.765 212.652 202.128 212.326 202.594 212.096C203.06 211.866 203.597 211.751 204.205 211.751C204.831 211.751 205.375 211.862 205.838 212.083C206.304 212.302 206.667 212.606 206.925 212.996C207.184 213.385 207.313 213.831 207.313 214.334C207.313 214.664 207.248 214.99 207.117 215.311C206.989 215.632 206.76 215.989 206.431 216.381C206.101 216.77 205.636 217.238 205.037 217.783L203.762 219.033V219.092H207.428V220.602H201.204ZM212.189 220.793C211.456 220.791 210.825 220.61 210.296 220.252C209.771 219.894 209.366 219.375 209.081 218.696C208.8 218.017 208.661 217.199 208.664 216.244C208.664 215.292 208.804 214.481 209.086 213.81C209.37 213.139 209.775 212.629 210.301 212.279C210.829 211.927 211.459 211.751 212.189 211.751C212.92 211.751 213.548 211.927 214.074 212.279C214.602 212.632 215.009 213.144 215.293 213.814C215.577 214.482 215.718 215.292 215.715 216.244C215.715 217.202 215.573 218.021 215.289 218.7C215.008 219.379 214.604 219.898 214.078 220.256C213.552 220.614 212.923 220.793 212.189 220.793ZM212.189 219.263C212.69 219.263 213.089 219.011 213.387 218.508C213.686 218.005 213.834 217.251 213.831 216.244C213.831 215.582 213.763 215.031 213.626 214.59C213.493 214.15 213.302 213.819 213.055 213.597C212.81 213.375 212.522 213.264 212.189 213.264C211.692 213.264 211.294 213.513 210.996 214.01C210.697 214.508 210.547 215.252 210.544 216.244C210.544 216.915 210.611 217.475 210.744 217.924C210.881 218.37 211.072 218.706 211.32 218.93C211.567 219.152 211.857 219.263 212.189 219.263ZM217.049 223.057V214.053H218.839V215.153H218.92C219 214.977 219.115 214.798 219.266 214.616C219.419 214.431 219.618 214.278 219.862 214.155C220.11 214.03 220.417 213.968 220.783 213.968C221.261 213.968 221.701 214.093 222.105 214.343C222.509 214.59 222.831 214.964 223.073 215.464C223.314 215.962 223.435 216.585 223.435 217.336C223.435 218.066 223.317 218.683 223.081 219.186C222.848 219.686 222.53 220.066 222.126 220.324C221.726 220.58 221.276 220.708 220.779 220.708C220.427 220.708 220.127 220.65 219.879 220.533C219.635 220.417 219.435 220.27 219.278 220.094C219.122 219.915 219.003 219.735 218.92 219.553H218.865V223.057H217.049ZM218.826 217.327C218.826 217.717 218.88 218.056 218.988 218.346C219.096 218.636 219.253 218.862 219.457 219.024C219.662 219.183 219.911 219.263 220.203 219.263C220.499 219.263 220.749 219.182 220.954 219.02C221.158 218.855 221.313 218.628 221.419 218.338C221.527 218.045 221.581 217.708 221.581 217.327C221.581 216.949 221.528 216.617 221.423 216.33C221.318 216.043 221.163 215.818 220.958 215.656C220.753 215.494 220.502 215.413 220.203 215.413C219.908 215.413 219.658 215.491 219.453 215.648C219.251 215.804 219.096 216.026 218.988 216.313C218.88 216.6 218.826 216.938 218.826 217.327ZM225.929 214.053L227.131 216.342L228.364 214.053H230.227L228.329 217.327L230.278 220.602H228.423L227.131 218.338L225.861 220.602H223.985L225.929 217.327L224.053 214.053H225.929Z" fill="#0B1530"/>
<mask id="path-10-inside-3_995_4174" fill="white">
<path d="M550.203 113.203L550.203 83.2031L592.203 83.2031L592.203 113.203L550.203 113.203Z"/>
</mask>
<path d="M550.203 83.2031L550.203 81.2031L548.203 81.2031L548.203 83.2031L550.203 83.2031ZM592.203 83.2031L594.203 83.2031L594.203 81.2031L592.203 81.2031L592.203 83.2031ZM552.203 113.203L552.203 83.2031L548.203 83.2031L548.203 113.203L552.203 113.203ZM550.203 85.2031L592.203 85.2031L592.203 81.2031L550.203 81.2031L550.203 85.2031ZM590.203 83.2031L590.203 113.203L594.203 113.203L594.203 83.2031L590.203 83.2031Z" fill="#33F7C3" mask="url(#path-10-inside-3_995_4174)"/>
<rect x="549.75" y="51.7504" width="42.9061" height="20.7027" rx="3.75176" fill="#33F7C3"/>
<rect x="549.75" y="51.7504" width="42.9061" height="20.7027" rx="3.75176" stroke="#33F7C3" stroke-width="1.5007"/>
<path d="M556.911 66.6016L556.911 65.2714L560.019 62.3936C560.283 62.1378 560.505 61.9076 560.684 61.703C560.866 61.4983 561.004 61.2979 561.097 61.1018C561.191 60.9029 561.238 60.6883 561.238 60.4581C561.238 60.2023 561.18 59.982 561.063 59.7972C560.947 59.6096 560.788 59.4661 560.586 59.3666C560.384 59.2643 560.155 59.2132 559.899 59.2132C559.632 59.2132 559.399 59.2672 559.2 59.3752C559.001 59.4832 558.848 59.6381 558.74 59.8399C558.632 60.0417 558.578 60.2818 558.578 60.5604L556.826 60.5604C556.826 59.9891 556.955 59.4931 557.214 59.0725C557.472 58.6518 557.835 58.3264 558.301 58.0962C558.767 57.8659 559.304 57.7508 559.912 57.7508C560.538 57.7508 561.082 57.8617 561.545 58.0834C562.011 58.3022 562.374 58.6063 562.632 58.9957C562.891 59.3851 563.02 59.8313 563.02 60.3344C563.02 60.6641 562.955 60.9896 562.824 61.3107C562.696 61.6319 562.467 61.9886 562.138 62.3808C561.808 62.7702 561.343 63.2378 560.744 63.7835L559.469 65.0326L559.469 65.0923L563.135 65.0923L563.135 66.6016L556.911 66.6016ZM564.153 65.0668L564.153 63.6129L567.798 57.8702L569.052 57.8702L569.052 59.8825L568.31 59.8825L566.012 63.5192L566.012 63.5874L571.192 63.5874L571.192 65.0668L564.153 65.0668ZM568.344 66.6016L568.344 64.6234L568.378 63.9796L568.378 57.8702L570.109 57.8702L570.109 66.6016L568.344 66.6016ZM572.439 69.0573L572.439 60.053L574.23 60.053L574.23 61.153L574.311 61.153C574.39 60.9768 574.505 60.7977 574.656 60.6158C574.81 60.4311 575.008 60.2776 575.253 60.1554C575.5 60.0303 575.807 59.9678 576.174 59.9678C576.651 59.9678 577.092 60.0928 577.495 60.343C577.899 60.5902 578.222 60.964 578.463 61.4642C578.705 61.9616 578.826 62.5855 578.826 63.3358C578.826 64.0663 578.708 64.6831 578.472 65.1861C578.239 65.6864 577.92 66.0658 577.517 66.3244C577.116 66.5802 576.667 66.7082 576.17 66.7082C575.817 66.7081 575.517 66.6499 575.27 66.5334C575.026 66.4168 574.825 66.2704 574.669 66.0942C574.512 65.9152 574.393 65.7347 574.311 65.5528L574.255 65.5528L574.255 69.0573L572.439 69.0573ZM574.217 63.3273C574.217 63.7167 574.271 64.0563 574.379 64.3462C574.487 64.6362 574.643 64.8621 574.848 65.0241C575.053 65.1833 575.301 65.2629 575.594 65.2629C575.89 65.2629 576.14 65.1819 576.344 65.0199C576.549 64.855 576.704 64.6276 576.809 64.3377C576.917 64.045 576.971 63.7082 576.971 63.3273C576.971 62.9493 576.918 62.6167 576.813 62.3297C576.708 62.0426 576.553 61.8181 576.349 61.6561C576.144 61.4941 575.892 61.4131 575.594 61.4131C575.298 61.4131 575.048 61.4912 574.844 61.6475C574.642 61.8039 574.487 62.0256 574.379 62.3126C574.271 62.5997 574.217 62.9379 574.217 63.3273ZM581.32 60.053L582.522 62.3425L583.754 60.053L585.617 60.053L583.72 63.3273L585.668 66.6016L583.814 66.6016L582.522 64.3377L581.251 66.6016L579.376 66.6016L581.32 63.3273L579.444 60.053L581.32 60.053Z" fill="#0B1530"/>
<rect x="203.732" y="98.7321" width="408.536" height="81.3929" rx="16.8393" fill="white"/>
<rect x="203.732" y="98.7321" width="408.536" height="81.3929" rx="16.8393" stroke="#CED0D6" stroke-width="1.46429"/>
<path d="M228.772 129.894H231.729C233.057 129.894 234.131 130.002 234.951 130.216C235.771 130.431 236.493 130.831 237.118 131.417C238.153 132.393 238.67 133.682 238.67 135.283C238.67 136.2 238.475 136.972 238.084 137.596C237.733 138.202 237.245 138.651 236.62 138.943C237.635 139.197 238.475 139.666 239.139 140.349C239.998 141.247 240.427 142.467 240.427 144.01C240.427 145.435 239.998 146.607 239.139 147.524C237.928 148.793 236.103 149.428 233.662 149.428H228.772V129.894ZM231.759 132.706V138.299H232.667C233.76 138.299 234.57 138.045 235.097 137.538C235.605 137.05 235.859 136.308 235.859 135.312C235.859 134.512 235.624 133.887 235.156 133.438C234.648 132.95 233.858 132.706 232.784 132.706H231.759ZM231.759 140.759V146.616H233.574C234.922 146.616 235.908 146.362 236.532 145.855C237.177 145.347 237.499 144.625 237.499 143.688C237.499 142.848 237.235 142.165 236.708 141.638C236.103 141.052 235.078 140.759 233.633 140.759H231.759ZM243.659 149.428V137.098H246.529V141.462H248.169C248.697 141.462 249.126 141.482 249.458 141.521C249.79 141.54 250.19 141.647 250.659 141.843C251.127 142.038 251.537 142.331 251.889 142.721C252.533 143.444 252.855 144.342 252.855 145.416C252.855 146.646 252.484 147.632 251.742 148.373C251.41 148.705 251.01 148.959 250.542 149.135C250.093 149.291 249.712 149.379 249.399 149.398C249.107 149.418 248.687 149.428 248.14 149.428H243.659ZM246.529 146.968H247.847C248.55 146.968 249.048 146.88 249.341 146.704C249.77 146.392 249.985 145.972 249.985 145.445C249.985 144.898 249.78 144.488 249.37 144.215C249.058 144.02 248.56 143.922 247.877 143.922H246.529V146.968ZM254.144 149.428V137.098H257.014V149.428H254.144ZM269.96 128.635H272.889C272.674 129.65 272.225 130.529 271.542 131.271C270.858 132.012 270.019 132.52 269.023 132.793L267.09 133.321C266.583 133.457 266.192 133.574 265.919 133.672C265.646 133.77 265.304 133.955 264.894 134.228C264.503 134.482 264.172 134.795 263.898 135.166C263.254 136.025 262.912 137.137 262.873 138.504H262.902C263.762 137.352 265.157 136.776 267.09 136.776C268.828 136.776 270.263 137.362 271.395 138.533C272.586 139.763 273.182 141.325 273.182 143.219C273.182 145.132 272.547 146.714 271.278 147.963C270.029 149.193 268.467 149.808 266.592 149.808C264.718 149.808 263.215 149.262 262.082 148.168C261.458 147.583 260.979 146.86 260.647 146.001C260.316 145.142 260.12 144.439 260.062 143.893C260.023 143.327 260.003 142.643 260.003 141.843C260.003 138.016 260.628 135.195 261.877 133.379C262.815 131.993 264.045 131.114 265.567 130.743L267.617 130.246C268.965 129.914 269.746 129.377 269.96 128.635ZM263.927 146.177C264.591 146.88 265.48 147.231 266.592 147.231C267.705 147.231 268.594 146.88 269.257 146.177C269.921 145.455 270.253 144.498 270.253 143.307C270.253 141.999 269.892 141.013 269.17 140.349C268.467 139.685 267.608 139.353 266.592 139.353C265.577 139.353 264.708 139.685 263.986 140.349C263.283 141.013 262.932 141.999 262.932 143.307C262.932 144.498 263.264 145.455 263.927 146.177ZM284.816 145.269L287.218 146.616C286.671 147.592 285.978 148.344 285.138 148.871C284.182 149.496 282.971 149.808 281.507 149.808C279.789 149.808 278.403 149.281 277.348 148.227C276.138 147.017 275.533 145.445 275.533 143.512C275.533 141.482 276.187 139.793 277.495 138.446C278.608 137.333 279.984 136.776 281.624 136.776C283.225 136.776 284.543 137.313 285.578 138.387C286.73 139.578 287.305 141.316 287.305 143.6V143.951H278.461C278.539 144.986 278.891 145.816 279.515 146.441C280.043 146.968 280.775 147.231 281.712 147.231C282.473 147.231 283.127 147.026 283.674 146.616C284.123 146.265 284.504 145.816 284.816 145.269ZM278.666 141.608H284.377C284.26 140.925 283.967 140.369 283.498 139.939C282.991 139.471 282.346 139.236 281.565 139.236C280.745 139.236 280.072 139.5 279.545 140.027C279.115 140.417 278.822 140.945 278.666 141.608ZM293.175 147.993V156.134H290.305V137.098H293.175V138.446C294.112 137.333 295.332 136.776 296.836 136.776C298.515 136.776 299.93 137.372 301.082 138.563C302.254 139.734 302.839 141.277 302.839 143.19C302.839 145.162 302.234 146.763 301.024 147.993C299.813 149.203 298.427 149.808 296.865 149.808C295.401 149.808 294.171 149.203 293.175 147.993ZM296.484 139.353C295.508 139.353 294.678 139.705 293.995 140.408C293.331 141.091 292.999 142.067 292.999 143.336C292.999 144.566 293.331 145.523 293.995 146.206C294.678 146.89 295.508 147.231 296.484 147.231C297.499 147.231 298.319 146.851 298.944 146.089C299.589 145.328 299.911 144.4 299.911 143.307C299.911 142.194 299.589 141.257 298.944 140.496C298.319 139.734 297.499 139.353 296.484 139.353ZM305.834 137.098H308.704V144.098L317.139 135.986V149.428H314.269V142.253L305.834 150.365V137.098ZM329.256 139.734H325.654V149.428H322.784V139.734H319.182V137.098H329.256V139.734ZM339.641 145.269L342.043 146.616C341.496 147.592 340.803 148.344 339.963 148.871C339.007 149.496 337.796 149.808 336.332 149.808C334.614 149.808 333.228 149.281 332.173 148.227C330.963 147.017 330.358 145.445 330.358 143.512C330.358 141.482 331.012 139.793 332.32 138.446C333.433 137.333 334.809 136.776 336.449 136.776C338.05 136.776 339.368 137.313 340.403 138.387C341.554 139.578 342.13 141.316 342.13 143.6V143.951H333.286C333.364 144.986 333.716 145.816 334.34 146.441C334.868 146.968 335.6 147.231 336.537 147.231C337.298 147.231 337.952 147.026 338.499 146.616C338.948 146.265 339.329 145.816 339.641 145.269ZM333.491 141.608H339.202C339.085 140.925 338.792 140.369 338.323 139.939C337.816 139.471 337.171 139.236 336.39 139.236C335.57 139.236 334.897 139.5 334.37 140.027C333.94 140.417 333.647 140.945 333.491 141.608Z" fill="#0B1530"/>
<path d="M560.715 135.036L572.429 146.75L584.143 135.036" stroke="#6C7383" stroke-width="2.92857" stroke-linecap="round"/>
</svg>
