<svg width="416" height="216" viewBox="0 0 416 216" fill="none" xmlns="http://www.w3.org/2000/svg">
<rect width="416" height="216" rx="24" fill="#F5F6F8"/>
<path d="M141.851 85.8848L141.851 67.002" stroke="#33F7C3" stroke-width="2"/>
<path d="M127 103L103.009 103" stroke="#33F7C3" stroke-width="2"/>
<path d="M127 120L102.995 120" stroke="#33F7C3" stroke-width="2"/>
<path d="M143 137L143 125" stroke="#33F7C3" stroke-width="2"/>
<path d="M104 103L104 119" stroke="#33F7C3" stroke-width="2"/>
<rect x="60.7504" y="99.9242" width="35.9061" height="20.7027" rx="3.75176" fill="#33F7C3"/>
<rect x="60.7504" y="99.9242" width="35.9061" height="20.7027" rx="3.75176" stroke="#33F7C3" stroke-width="1.5007"/>
<path d="M71.1681 114.895C70.5115 114.895 69.9274 114.788 69.4158 114.575C68.907 114.359 68.5077 114.065 68.2178 113.692C67.9279 113.32 67.7829 112.898 67.7829 112.426C67.7829 112.062 67.8654 111.729 68.0302 111.424C68.1979 111.117 68.4253 110.863 68.7124 110.661C68.9994 110.457 69.3206 110.326 69.6759 110.269V110.209C69.2097 110.116 68.8317 109.89 68.5418 109.531C68.2519 109.17 68.107 108.751 68.107 108.274C68.107 107.822 68.2391 107.42 68.5035 107.067C68.7678 106.712 69.1302 106.433 69.5906 106.232C70.0539 106.027 70.5797 105.925 71.1681 105.925C71.7564 105.925 72.2808 106.027 72.7412 106.232C73.2045 106.436 73.5683 106.716 73.8327 107.071C74.097 107.424 74.2306 107.825 74.2334 108.274C74.2306 108.754 74.0828 109.173 73.79 109.531C73.4973 109.89 73.1221 110.116 72.6645 110.209V110.269C73.0141 110.326 73.331 110.457 73.6152 110.661C73.9023 110.863 74.1297 111.117 74.2974 111.424C74.4679 111.729 74.5546 112.062 74.5574 112.426C74.5546 112.898 74.4082 113.32 74.1183 113.692C73.8284 114.065 73.4276 114.359 72.916 114.575C72.4073 114.788 71.8246 114.895 71.1681 114.895ZM71.1681 113.539C71.4608 113.539 71.7166 113.486 71.9355 113.381C72.1543 113.273 72.3248 113.125 72.4471 112.938C72.5721 112.747 72.6346 112.529 72.6346 112.281C72.6346 112.028 72.5707 111.805 72.4428 111.612C72.3149 111.416 72.1415 111.262 71.9227 111.152C71.7038 111.038 71.4523 110.981 71.1681 110.981C70.8867 110.981 70.6351 111.038 70.4134 111.152C70.1917 111.262 70.0169 111.416 69.889 111.612C69.764 111.805 69.7015 112.028 69.7015 112.281C69.7015 112.529 69.7626 112.747 69.8848 112.938C70.007 113.125 70.179 113.273 70.4006 113.381C70.6223 113.486 70.8781 113.539 71.1681 113.539ZM71.1681 109.638C71.4125 109.638 71.6299 109.588 71.8203 109.489C72.0108 109.389 72.16 109.251 72.268 109.075C72.376 108.899 72.43 108.696 72.43 108.466C72.43 108.238 72.376 108.039 72.268 107.869C72.16 107.695 72.0122 107.56 71.8246 107.464C71.637 107.364 71.4182 107.315 71.1681 107.315C70.9208 107.315 70.7019 107.364 70.5115 107.464C70.3211 107.56 70.1718 107.695 70.0638 107.869C69.9587 108.039 69.9061 108.238 69.9061 108.466C69.9061 108.696 69.9601 108.899 70.0681 109.075C70.1761 109.251 70.3253 109.389 70.5158 109.489C70.7062 109.588 70.9236 109.638 71.1681 109.638ZM75.8652 117.231V108.227H77.6558V109.327H77.7368C77.8164 109.151 77.9315 108.972 78.0822 108.79C78.2356 108.605 78.4346 108.451 78.679 108.329C78.9263 108.204 79.2333 108.142 79.5999 108.142C80.0774 108.142 80.518 108.267 80.9216 108.517C81.3252 108.764 81.6477 109.138 81.8893 109.638C82.1309 110.135 82.2517 110.759 82.2517 111.51C82.2517 112.24 82.1338 112.857 81.8979 113.36C81.6648 113.86 81.3465 114.24 80.9429 114.498C80.5421 114.754 80.093 114.882 79.5957 114.882C79.2432 114.882 78.9434 114.824 78.6961 114.707C78.4516 114.591 78.2513 114.444 78.0949 114.268C77.9386 114.089 77.8193 113.909 77.7368 113.727H77.6814V117.231H75.8652ZM77.643 111.501C77.643 111.891 77.697 112.23 77.805 112.52C77.913 112.81 78.0694 113.036 78.274 113.198C78.4787 113.357 78.7273 113.437 79.0201 113.437C79.3157 113.437 79.5658 113.356 79.7704 113.194C79.9751 113.029 80.13 112.801 80.2352 112.512C80.3432 112.219 80.3972 111.882 80.3972 111.501C80.3972 111.123 80.3446 110.791 80.2394 110.504C80.1343 110.216 79.9794 109.992 79.7747 109.83C79.5701 109.668 79.3185 109.587 79.0201 109.587C78.7245 109.587 78.4744 109.665 78.2697 109.821C78.0679 109.978 77.913 110.199 77.805 110.486C77.697 110.774 77.643 111.112 77.643 111.501ZM84.7458 108.227L85.9481 110.516L87.1802 108.227H89.0433L87.1461 111.501L89.0944 114.775H87.2399L85.9481 112.512L84.6776 114.775H82.8017L84.7458 111.501L82.8699 108.227H84.7458Z" fill="#0B1530"/>
<path d="M159.406 68H142" stroke="#33F7C3" stroke-width="2"/>
<rect x="132.75" y="39.7504" width="35.9061" height="20.7027" rx="3.75176" fill="#33F7C3"/>
<rect x="132.75" y="39.7504" width="35.9061" height="20.7027" rx="3.75176" stroke="#33F7C3" stroke-width="1.5007"/>
<path d="M143.168 54.7209C142.511 54.7209 141.927 54.6144 141.416 54.4012C140.907 54.1852 140.508 53.891 140.218 53.5187C139.928 53.1463 139.783 52.7243 139.783 52.2525C139.783 51.8886 139.865 51.5547 140.03 51.2506C140.198 50.9436 140.425 50.6892 140.712 50.4874C140.999 50.2828 141.321 50.152 141.676 50.0952V50.0355C141.21 49.9417 140.832 49.7157 140.542 49.3576C140.252 48.9967 140.107 48.5774 140.107 48.0999C140.107 47.648 140.239 47.2458 140.503 46.8934C140.768 46.5381 141.13 46.2596 141.591 46.0578C142.054 45.8531 142.58 45.7508 143.168 45.7508C143.756 45.7508 144.281 45.8531 144.741 46.0578C145.205 46.2624 145.568 46.5424 145.833 46.8977C146.097 47.2501 146.231 47.6509 146.233 48.0999C146.231 48.5803 146.083 48.9995 145.79 49.3576C145.497 49.7157 145.122 49.9417 144.664 50.0355V50.0952C145.014 50.152 145.331 50.2828 145.615 50.4874C145.902 50.6892 146.13 50.9436 146.297 51.2506C146.468 51.5547 146.555 51.8886 146.557 52.2525C146.555 52.7243 146.408 53.1463 146.118 53.5187C145.828 53.891 145.428 54.1852 144.916 54.4012C144.407 54.6144 143.825 54.7209 143.168 54.7209ZM143.168 53.3652C143.461 53.3652 143.717 53.3126 143.935 53.2074C144.154 53.0994 144.325 52.9516 144.447 52.7641C144.572 52.5736 144.635 52.3548 144.635 52.1075C144.635 51.8545 144.571 51.6314 144.443 51.4381C144.315 51.242 144.142 51.0886 143.923 50.9777C143.704 50.864 143.452 50.8072 143.168 50.8072C142.887 50.8072 142.635 50.864 142.413 50.9777C142.192 51.0886 142.017 51.242 141.889 51.4381C141.764 51.6314 141.701 51.8545 141.701 52.1075C141.701 52.3548 141.763 52.5736 141.885 52.7641C142.007 52.9516 142.179 53.0994 142.401 53.2074C142.622 53.3126 142.878 53.3652 143.168 53.3652ZM143.168 49.4642C143.412 49.4642 143.63 49.4145 143.82 49.315C144.011 49.2155 144.16 49.0777 144.268 48.9014C144.376 48.7252 144.43 48.522 144.43 48.2918C144.43 48.0644 144.376 47.8655 144.268 47.6949C144.16 47.5215 144.012 47.3865 143.825 47.2899C143.637 47.1904 143.418 47.1407 143.168 47.1407C142.921 47.1407 142.702 47.1904 142.511 47.2899C142.321 47.3865 142.172 47.5215 142.064 47.6949C141.959 47.8655 141.906 48.0644 141.906 48.2918C141.906 48.522 141.96 48.7252 142.068 48.9014C142.176 49.0777 142.325 49.2155 142.516 49.315C142.706 49.4145 142.924 49.4642 143.168 49.4642ZM147.865 57.0573V48.053H149.656V49.153H149.737C149.816 48.9768 149.932 48.7977 150.082 48.6158C150.236 48.4311 150.435 48.2776 150.679 48.1554C150.926 48.0303 151.233 47.9678 151.6 47.9678C152.077 47.9678 152.518 48.0928 152.922 48.3429C153.325 48.5902 153.648 48.964 153.889 49.4642C154.131 49.9616 154.252 50.5855 154.252 51.3358C154.252 52.0663 154.134 52.683 153.898 53.1861C153.665 53.6864 153.346 54.0658 152.943 54.3244C152.542 54.5802 152.093 54.7081 151.596 54.7081C151.243 54.7081 150.943 54.6499 150.696 54.5333C150.452 54.4168 150.251 54.2704 150.095 54.0942C149.939 53.9152 149.819 53.7347 149.737 53.5528H149.681V57.0573H147.865ZM149.643 51.3273C149.643 51.7167 149.697 52.0563 149.805 52.3462C149.913 52.6362 150.069 52.8621 150.274 53.0241C150.479 53.1833 150.727 53.2629 151.02 53.2629C151.316 53.2629 151.566 53.1819 151.77 53.0199C151.975 52.855 152.13 52.6276 152.235 52.3377C152.343 52.045 152.397 51.7082 152.397 51.3273C152.397 50.9493 152.345 50.6167 152.239 50.3297C152.134 50.0426 151.979 49.8181 151.775 49.6561C151.57 49.4941 151.319 49.4131 151.02 49.4131C150.725 49.4131 150.474 49.4912 150.27 49.6475C150.068 49.8039 149.913 50.0256 149.805 50.3126C149.697 50.5997 149.643 50.9379 149.643 51.3273ZM156.746 48.053L157.948 50.3425L159.18 48.053H161.043L159.146 51.3273L161.094 54.6016H159.24L157.948 52.3377L156.678 54.6016H154.802L156.746 51.3273L154.87 48.053H156.746Z" fill="#0B1530"/>
<path d="M144 137H118" stroke="#33F7C3" stroke-width="2"/>
<rect x="109.75" y="144.75" width="42.9061" height="20.7027" rx="3.75176" fill="#33F7C3"/>
<rect x="109.75" y="144.75" width="42.9061" height="20.7027" rx="3.75176" stroke="#33F7C3" stroke-width="1.5007"/>
<path d="M116.911 159.602V158.271L120.019 155.394C120.283 155.138 120.505 154.908 120.684 154.703C120.866 154.498 121.004 154.298 121.097 154.102C121.191 153.903 121.238 153.688 121.238 153.458C121.238 153.202 121.18 152.982 121.063 152.797C120.947 152.61 120.788 152.466 120.586 152.367C120.384 152.264 120.155 152.213 119.899 152.213C119.632 152.213 119.399 152.267 119.2 152.375C119.001 152.483 118.848 152.638 118.74 152.84C118.632 153.042 118.578 153.282 118.578 153.56H116.826C116.826 152.989 116.955 152.493 117.214 152.072C117.472 151.652 117.835 151.326 118.301 151.096C118.767 150.866 119.304 150.751 119.912 150.751C120.538 150.751 121.082 150.862 121.545 151.083C122.011 151.302 122.374 151.606 122.632 151.996C122.891 152.385 123.02 152.831 123.02 153.334C123.02 153.664 122.955 153.99 122.824 154.311C122.696 154.632 122.467 154.989 122.138 155.381C121.808 155.77 121.343 156.238 120.744 156.783L119.469 158.033V158.092H123.135V159.602H116.911ZM124.153 158.067V156.613L127.798 150.87H129.052V152.883H128.31L126.012 156.519V156.587H131.192V158.067H124.153ZM128.344 159.602V157.623L128.378 156.98V150.87H130.109V159.602H128.344ZM132.439 162.057V153.053H134.23V154.153H134.311C134.39 153.977 134.505 153.798 134.656 153.616C134.81 153.431 135.008 153.278 135.253 153.155C135.5 153.03 135.807 152.968 136.174 152.968C136.651 152.968 137.092 153.093 137.495 153.343C137.899 153.59 138.222 153.964 138.463 154.464C138.705 154.962 138.826 155.585 138.826 156.336C138.826 157.066 138.708 157.683 138.472 158.186C138.239 158.686 137.92 159.066 137.517 159.324C137.116 159.58 136.667 159.708 136.17 159.708C135.817 159.708 135.517 159.65 135.27 159.533C135.026 159.417 134.825 159.27 134.669 159.094C134.512 158.915 134.393 158.735 134.311 158.553H134.255V162.057H132.439ZM134.217 156.327C134.217 156.717 134.271 157.056 134.379 157.346C134.487 157.636 134.643 157.862 134.848 158.024C135.053 158.183 135.301 158.263 135.594 158.263C135.89 158.263 136.14 158.182 136.344 158.02C136.549 157.855 136.704 157.628 136.809 157.338C136.917 157.045 136.971 156.708 136.971 156.327C136.971 155.949 136.918 155.617 136.813 155.33C136.708 155.043 136.553 154.818 136.349 154.656C136.144 154.494 135.892 154.413 135.594 154.413C135.298 154.413 135.048 154.491 134.844 154.648C134.642 154.804 134.487 155.026 134.379 155.313C134.271 155.6 134.217 155.938 134.217 156.327ZM141.32 153.053L142.522 155.342L143.754 153.053H145.617L143.72 156.327L145.668 159.602H143.814L142.522 157.338L141.251 159.602H139.376L141.32 156.327L139.444 153.053H141.32Z" fill="#0B1530"/>
<circle cx="131" cy="92" r="12" fill="#457BF8"/>
<path d="M130.316 99V87.54H127.996L129.116 85.66H132.356V99H130.316Z" fill="white"/>
<path d="M157.4 81.99H172.1V102H169.04V84.87H160.46V102H157.4V81.99ZM185.222 97.74L187.682 99.12C187.122 100.12 186.412 100.89 185.552 101.43C184.572 102.07 183.332 102.39 181.832 102.39C180.072 102.39 178.652 101.85 177.572 100.77C176.332 99.53 175.712 97.92 175.712 95.94C175.712 93.86 176.382 92.13 177.722 90.75C178.862 89.61 180.272 89.04 181.952 89.04C183.592 89.04 184.942 89.59 186.002 90.69C187.182 91.91 187.772 93.69 187.772 96.03V96.39H178.712C178.792 97.45 179.152 98.3 179.792 98.94C180.332 99.48 181.082 99.75 182.042 99.75C182.822 99.75 183.492 99.54 184.052 99.12C184.512 98.76 184.902 98.3 185.222 97.74ZM178.922 93.99H184.772C184.652 93.29 184.352 92.72 183.872 92.28C183.352 91.8 182.692 91.56 181.892 91.56C181.052 91.56 180.362 91.83 179.822 92.37C179.382 92.77 179.082 93.31 178.922 93.99ZM193.784 100.53V108.87H190.844V89.37H193.784V90.75C194.744 89.61 195.994 89.04 197.534 89.04C199.254 89.04 200.704 89.65 201.884 90.87C203.084 92.07 203.684 93.65 203.684 95.61C203.684 97.63 203.064 99.27 201.824 100.53C200.584 101.77 199.164 102.39 197.564 102.39C196.064 102.39 194.804 101.77 193.784 100.53ZM197.174 91.68C196.174 91.68 195.324 92.04 194.624 92.76C193.944 93.46 193.604 94.46 193.604 95.76C193.604 97.02 193.944 98 194.624 98.7C195.324 99.4 196.174 99.75 197.174 99.75C198.214 99.75 199.054 99.36 199.694 98.58C200.354 97.8 200.684 96.85 200.684 95.73C200.684 94.59 200.354 93.63 199.694 92.85C199.054 92.07 198.214 91.68 197.174 91.68ZM206.753 89.37H211.703C212.963 89.37 213.923 89.62 214.583 90.12C215.363 90.74 215.753 91.55 215.753 92.55C215.753 93.69 215.253 94.51 214.253 95.01C214.893 95.13 215.463 95.41 215.963 95.85C216.623 96.45 216.953 97.26 216.953 98.28C216.953 99.5 216.493 100.46 215.573 101.16C214.813 101.72 213.843 102 212.663 102H206.753V89.37ZM209.693 94.29H211.193C211.713 94.29 212.103 94.2 212.363 94.02C212.743 93.78 212.933 93.44 212.933 93C212.933 92.58 212.763 92.25 212.423 92.01C212.183 91.85 211.753 91.77 211.133 91.77H209.693V94.29ZM209.693 99.6H211.883C212.543 99.6 213.053 99.48 213.413 99.24C213.813 98.98 214.013 98.61 214.013 98.13C214.013 97.61 213.823 97.24 213.443 97.02C213.103 96.8 212.613 96.69 211.973 96.69H209.693V99.6ZM220.024 102V89.37H222.964V93.84H224.644C225.184 93.84 225.624 93.86 225.964 93.9C226.304 93.92 226.714 94.03 227.194 94.23C227.674 94.43 228.094 94.73 228.454 95.13C229.114 95.87 229.444 96.79 229.444 97.89C229.444 99.15 229.064 100.16 228.304 100.92C227.964 101.26 227.554 101.52 227.074 101.7C226.614 101.86 226.224 101.95 225.904 101.97C225.604 101.99 225.174 102 224.614 102H220.024ZM222.964 99.48H224.314C225.034 99.48 225.544 99.39 225.844 99.21C226.284 98.89 226.504 98.46 226.504 97.92C226.504 97.36 226.294 96.94 225.874 96.66C225.554 96.46 225.044 96.36 224.344 96.36H222.964V99.48ZM230.764 102V89.37H233.704V102H230.764ZM237.426 89.37H240.366V96.54L249.006 88.23V102H246.066V94.65L237.426 102.96V89.37ZM238.386 83.91L240.786 83.22C241.166 84.52 241.986 85.17 243.246 85.17C244.486 85.17 245.306 84.52 245.706 83.22L248.106 83.91C247.786 85.05 247.136 85.93 246.156 86.55C245.196 87.15 244.226 87.45 243.246 87.45C242.266 87.45 241.286 87.15 240.306 86.55C239.346 85.93 238.706 85.05 238.386 83.91Z" fill="#0B1530"/>
<path d="M116 122H251" stroke="#457BF8" stroke-width="6" stroke-linecap="round"/>
<path d="M118.983 137.184L118.983 125.043" stroke="#33F7C3" stroke-width="2"/>
<path d="M158.406 82V67" stroke="#33F7C3" stroke-width="2"/>
</svg>
