<svg width="415" height="216" viewBox="0 0 415 216" fill="none" xmlns="http://www.w3.org/2000/svg">
<rect width="415" height="216" rx="24" fill="#F5F6F8"/>
<path d="M124 106L124 124" stroke="#33F7C3" stroke-width="2"/>
<path d="M140 105L123.002 105" stroke="#33F7C3" stroke-width="2"/>
<path d="M140 125L123 125" stroke="#33F7C3" stroke-width="2"/>
<rect x="80.7504" y="104.924" width="35.9061" height="20.7027" rx="3.75176" fill="#33F7C3"/>
<rect x="80.7504" y="104.924" width="35.9061" height="20.7027" rx="3.75176" stroke="#33F7C3" stroke-width="1.5007"/>
<path d="M91.1685 119.895C90.512 119.895 89.9279 119.788 89.4163 119.575C88.9075 119.359 88.5082 119.065 88.2183 118.692C87.9284 118.32 87.7834 117.898 87.7834 117.426C87.7834 117.062 87.8659 116.729 88.0307 116.424C88.1984 116.117 88.4258 115.863 88.7128 115.661C88.9999 115.457 89.3211 115.326 89.6764 115.269V115.209C89.2102 115.116 88.8322 114.89 88.5423 114.531C88.2524 114.17 88.1074 113.751 88.1074 113.274C88.1074 112.822 88.2396 112.42 88.5039 112.067C88.7683 111.712 89.1307 111.433 89.5911 111.232C90.0544 111.027 90.5802 110.925 91.1685 110.925C91.7569 110.925 92.2813 111.027 92.7417 111.232C93.205 111.436 93.5688 111.716 93.8331 112.071C94.0975 112.424 94.2311 112.825 94.2339 113.274C94.2311 113.754 94.0833 114.173 93.7905 114.531C93.4978 114.89 93.1226 115.116 92.665 115.209V115.269C93.0146 115.326 93.3315 115.457 93.6157 115.661C93.9028 115.863 94.1302 116.117 94.2978 116.424C94.4684 116.729 94.5551 117.062 94.5579 117.426C94.5551 117.898 94.4087 118.32 94.1188 118.692C93.8289 119.065 93.4281 119.359 92.9165 119.575C92.4078 119.788 91.8251 119.895 91.1685 119.895ZM91.1685 118.539C91.4613 118.539 91.7171 118.486 91.9359 118.381C92.1548 118.273 92.3253 118.125 92.4475 117.938C92.5726 117.747 92.6351 117.529 92.6351 117.281C92.6351 117.028 92.5712 116.805 92.4433 116.612C92.3154 116.416 92.142 116.262 91.9232 116.152C91.7043 116.038 91.4528 115.981 91.1685 115.981C90.8872 115.981 90.6356 116.038 90.4139 116.152C90.1922 116.262 90.0174 116.416 89.8895 116.612C89.7645 116.805 89.7019 117.028 89.7019 117.281C89.7019 117.529 89.7631 117.747 89.8853 117.938C90.0075 118.125 90.1794 118.273 90.4011 118.381C90.6228 118.486 90.8786 118.539 91.1685 118.539ZM91.1685 114.638C91.413 114.638 91.6304 114.588 91.8208 114.489C92.0113 114.389 92.1605 114.251 92.2685 114.075C92.3765 113.899 92.4305 113.696 92.4305 113.466C92.4305 113.238 92.3765 113.039 92.2685 112.869C92.1605 112.695 92.0127 112.56 91.8251 112.464C91.6375 112.364 91.4187 112.315 91.1685 112.315C90.9213 112.315 90.7024 112.364 90.512 112.464C90.3216 112.56 90.1723 112.695 90.0643 112.869C89.9592 113.039 89.9066 113.238 89.9066 113.466C89.9066 113.696 89.9606 113.899 90.0686 114.075C90.1766 114.251 90.3258 114.389 90.5162 114.489C90.7067 114.588 90.9241 114.638 91.1685 114.638ZM95.8657 122.231V113.227H97.6563V114.327H97.7373C97.8169 114.151 97.932 113.972 98.0826 113.79C98.2361 113.605 98.4351 113.451 98.6795 113.329C98.9268 113.204 99.2338 113.142 99.6004 113.142C100.078 113.142 100.518 113.267 100.922 113.517C101.326 113.764 101.648 114.138 101.89 114.638C102.131 115.135 102.252 115.759 102.252 116.51C102.252 117.24 102.134 117.857 101.898 118.36C101.665 118.86 101.347 119.24 100.943 119.498C100.543 119.754 100.094 119.882 99.5961 119.882C99.2437 119.882 98.9438 119.824 98.6966 119.707C98.4521 119.591 98.2518 119.444 98.0954 119.268C97.9391 119.089 97.8197 118.909 97.7373 118.727H97.6819V122.231H95.8657ZM97.6435 116.501C97.6435 116.891 97.6975 117.23 97.8055 117.52C97.9135 117.81 98.0699 118.036 98.2745 118.198C98.4791 118.357 98.7278 118.437 99.0206 118.437C99.3162 118.437 99.5663 118.356 99.7709 118.194C99.9756 118.029 100.13 117.801 100.236 117.512C100.344 117.219 100.398 116.882 100.398 116.501C100.398 116.123 100.345 115.791 100.24 115.504C100.135 115.216 99.9798 114.992 99.7752 114.83C99.5706 114.668 99.319 114.587 99.0206 114.587C98.725 114.587 98.4749 114.665 98.2702 114.821C98.0684 114.978 97.9135 115.199 97.8055 115.486C97.6975 115.774 97.6435 116.112 97.6435 116.501ZM104.746 113.227L105.949 115.516L107.181 113.227H109.044L107.147 116.501L109.095 119.775H107.24L105.949 117.512L104.678 119.775H102.802L104.746 116.501L102.87 113.227H104.746Z" fill="#0B1530"/>
<path d="M138.145 85.9826H141.176C142.537 85.9826 143.637 86.0926 144.478 86.3127C145.318 86.5328 146.058 86.943 146.699 87.5433C147.759 88.5438 148.29 89.8644 148.29 91.5052C148.29 92.4456 148.089 93.236 147.689 93.8763C147.329 94.4966 146.829 94.9568 146.189 95.2569C147.229 95.517 148.089 95.9973 148.77 96.6976C149.65 97.618 150.09 98.8686 150.09 100.449C150.09 101.91 149.65 103.111 148.77 104.051C147.529 105.352 145.658 106.002 143.157 106.002H138.145V85.9826ZM141.206 88.8639V94.5966H142.137C143.257 94.5966 144.088 94.3365 144.628 93.8162C145.148 93.316 145.408 92.5557 145.408 91.5352C145.408 90.7148 145.168 90.0745 144.688 89.6143C144.168 89.114 143.357 88.8639 142.257 88.8639H141.206ZM141.206 97.1178V103.121H143.067C144.448 103.121 145.458 102.86 146.099 102.34C146.759 101.82 147.089 101.08 147.089 100.119C147.089 99.2588 146.819 98.5585 146.279 98.0182C145.658 97.4179 144.608 97.1178 143.127 97.1178H141.206ZM153.403 106.002V93.366H156.344V97.8381H158.025C158.565 97.8381 159.006 97.8581 159.346 97.8982C159.686 97.9182 160.096 98.0282 160.576 98.2283C161.057 98.4284 161.477 98.7285 161.837 99.1287C162.497 99.8691 162.827 100.79 162.827 101.89C162.827 103.151 162.447 104.161 161.687 104.921C161.347 105.262 160.936 105.522 160.456 105.702C159.996 105.862 159.606 105.952 159.286 105.972C158.986 105.992 158.555 106.002 157.995 106.002H153.403ZM156.344 103.481H157.695C158.415 103.481 158.926 103.391 159.226 103.211C159.666 102.89 159.886 102.46 159.886 101.92C159.886 101.36 159.676 100.94 159.256 100.659C158.936 100.459 158.425 100.359 157.725 100.359H156.344V103.481ZM164.148 106.002V93.366H167.089V106.002H164.148ZM180.358 84.692H183.359C183.139 85.7325 182.679 86.6329 181.979 87.3932C181.278 88.1536 180.418 88.6738 179.397 88.954L177.417 89.4942C176.896 89.6343 176.496 89.7543 176.216 89.8544C175.936 89.9544 175.586 90.1445 175.165 90.4247C174.765 90.6848 174.425 91.0049 174.145 91.3851C173.485 92.2655 173.135 93.406 173.095 94.8067H173.125C174.005 93.6262 175.436 93.0359 177.417 93.0359C179.197 93.0359 180.668 93.6362 181.829 94.8367C183.049 96.0973 183.659 97.6981 183.659 99.639C183.659 101.6 183.009 103.221 181.709 104.501C180.428 105.762 178.827 106.392 176.906 106.392C174.985 106.392 173.445 105.832 172.284 104.711C171.644 104.111 171.154 103.371 170.813 102.49C170.473 101.61 170.273 100.89 170.213 100.329C170.173 99.749 170.153 99.0487 170.153 98.2283C170.153 94.3065 170.793 91.4151 172.074 89.5542C173.034 88.1336 174.295 87.2332 175.856 86.853L177.957 86.3427C179.337 86.0026 180.138 85.4523 180.358 84.692ZM174.175 102.67C174.855 103.391 175.766 103.751 176.906 103.751C178.047 103.751 178.957 103.391 179.638 102.67C180.318 101.93 180.658 100.95 180.658 99.729C180.658 98.3884 180.288 97.3779 179.548 96.6976C178.827 96.0173 177.947 95.6771 176.906 95.6771C175.866 95.6771 174.975 96.0173 174.235 96.6976C173.515 97.3779 173.155 98.3884 173.155 99.729C173.155 100.95 173.495 101.93 174.175 102.67ZM187.99 94.9268C189.29 93.6662 190.901 93.0359 192.822 93.0359C194.743 93.0359 196.344 93.6662 197.624 94.9268C198.925 96.1673 199.575 97.7581 199.575 99.699C199.575 101.62 198.925 103.221 197.624 104.501C196.344 105.762 194.743 106.392 192.822 106.392C190.901 106.392 189.29 105.762 187.99 104.501C186.709 103.221 186.069 101.62 186.069 99.699C186.069 97.7581 186.709 96.1673 187.99 94.9268ZM190.091 102.67C190.771 103.391 191.681 103.751 192.822 103.751C193.963 103.751 194.873 103.391 195.553 102.67C196.234 101.93 196.574 100.95 196.574 99.729C196.574 98.3884 196.204 97.3779 195.463 96.6976C194.743 96.0173 193.862 95.6771 192.822 95.6771C191.781 95.6771 190.891 96.0173 190.151 96.6976C189.43 97.3779 189.07 98.3884 189.07 99.729C189.07 100.95 189.41 101.93 190.091 102.67ZM205.586 104.531V112.875H202.645V93.366H205.586V94.7467C206.547 93.6061 207.797 93.0359 209.338 93.0359C211.059 93.0359 212.509 93.6462 213.69 94.8667C214.891 96.0673 215.491 97.648 215.491 99.609C215.491 101.63 214.871 103.271 213.63 104.531C212.389 105.772 210.969 106.392 209.368 106.392C207.867 106.392 206.607 105.772 205.586 104.531ZM208.978 95.6771C207.977 95.6771 207.127 96.0373 206.427 96.7576C205.746 97.4579 205.406 98.4584 205.406 99.759C205.406 101.02 205.746 102 206.427 102.7C207.127 103.401 207.977 103.751 208.978 103.751C210.018 103.751 210.859 103.361 211.499 102.58C212.159 101.8 212.489 100.85 212.489 99.729C212.489 98.5885 212.159 97.628 211.499 96.8477C210.859 96.0673 210.018 95.6771 208.978 95.6771ZM224.125 106.002L227.186 92.2255L232.409 101.86L237.631 92.2255L240.693 106.002H237.691L236.431 99.669L232.409 106.962L228.387 99.669L227.126 106.002H224.125ZM251.83 101.74L254.291 103.121C253.731 104.121 253.021 104.891 252.16 105.432C251.18 106.072 249.939 106.392 248.439 106.392C246.678 106.392 245.257 105.852 244.177 104.771C242.936 103.531 242.316 101.92 242.316 99.9391C242.316 97.8581 242.986 96.1273 244.327 94.7467C245.467 93.6061 246.878 93.0359 248.559 93.0359C250.2 93.0359 251.55 93.5861 252.611 94.6866C253.791 95.9072 254.382 97.6881 254.382 100.029V100.389H245.317C245.397 101.45 245.757 102.3 246.398 102.941C246.938 103.481 247.688 103.751 248.649 103.751C249.429 103.751 250.1 103.541 250.66 103.121C251.12 102.76 251.51 102.3 251.83 101.74ZM245.527 97.9882H251.38C251.26 97.2879 250.96 96.7176 250.48 96.2774C249.959 95.7972 249.299 95.5571 248.499 95.5571C247.658 95.5571 246.968 95.8272 246.428 96.3674C245.988 96.7676 245.687 97.3079 245.527 97.9882ZM267.24 93.9363V97.2378C266.18 96.1974 264.989 95.6771 263.669 95.6771C262.548 95.6771 261.618 96.0473 260.877 96.7876C260.157 97.508 259.797 98.4784 259.797 99.699C259.797 100.96 260.177 101.97 260.937 102.73C261.658 103.411 262.548 103.751 263.609 103.751C265.069 103.751 266.28 103.211 267.24 102.13V105.402C266.18 106.062 264.899 106.392 263.398 106.392C261.377 106.392 259.777 105.772 258.596 104.531C257.396 103.291 256.795 101.71 256.795 99.789C256.795 97.8081 257.436 96.1773 258.716 94.8967C259.957 93.6562 261.648 93.0359 263.789 93.0359C265.009 93.0359 266.16 93.336 267.24 93.9363ZM279.056 96.0673H275.365V106.002H272.423V96.0673H268.732V93.366H279.056V96.0673ZM290.09 94.8367V93.366H293.031V106.002H290.09V104.681C289.109 105.822 287.849 106.392 286.308 106.392C284.447 106.392 282.956 105.732 281.836 104.411C280.735 103.091 280.185 101.51 280.185 99.669C280.185 97.668 280.775 96.0673 281.956 94.8667C283.157 93.6462 284.617 93.0359 286.338 93.0359C287.919 93.0359 289.169 93.6362 290.09 94.8367ZM286.698 95.6771C285.658 95.6771 284.807 96.0673 284.147 96.8477C283.507 97.628 283.187 98.5885 283.187 99.729C283.187 100.85 283.507 101.8 284.147 102.58C284.807 103.361 285.658 103.751 286.698 103.751C287.699 103.751 288.539 103.401 289.219 102.7C289.92 102 290.27 101.02 290.27 99.759C290.27 98.4584 289.92 97.4579 289.219 96.7576C288.539 96.0373 287.699 95.6771 286.698 95.6771Z" fill="#0B1530"/>
<path d="M135.744 127.008H295.744" stroke="#457BF8" stroke-width="6.00281" stroke-linecap="round"/>
</svg>
