<svg width="415" height="216" viewBox="0 0 415 216" fill="none" xmlns="http://www.w3.org/2000/svg">
<rect width="415" height="216" rx="24" fill="#F5F6F8"/>
<path d="M141.851 85.8848L141.851 67.002" stroke="#33F7C3" stroke-width="2"/>
<path d="M127 103L103.009 103" stroke="#33F7C3" stroke-width="2"/>
<path d="M127 120L102.995 120" stroke="#33F7C3" stroke-width="2"/>
<path d="M143 137L143 125" stroke="#33F7C3" stroke-width="2"/>
<path d="M104 103L104 119" stroke="#33F7C3" stroke-width="2"/>
<rect x="60.7504" y="99.9242" width="35.9061" height="20.7027" rx="3.75176" fill="#33F7C3"/>
<rect x="60.7504" y="99.9242" width="35.9061" height="20.7027" rx="3.75176" stroke="#33F7C3" stroke-width="1.5007"/>
<path d="M71.1685 114.895C70.512 114.895 69.9279 114.788 69.4163 114.575C68.9075 114.359 68.5082 114.065 68.2183 113.692C67.9284 113.32 67.7834 112.898 67.7834 112.426C67.7834 112.062 67.8659 111.729 68.0307 111.424C68.1984 111.117 68.4258 110.863 68.7128 110.661C68.9999 110.457 69.3211 110.326 69.6764 110.269V110.209C69.2102 110.116 68.8322 109.89 68.5423 109.531C68.2524 109.17 68.1074 108.751 68.1074 108.274C68.1074 107.822 68.2396 107.42 68.5039 107.067C68.7683 106.712 69.1307 106.433 69.5911 106.232C70.0544 106.027 70.5802 105.925 71.1685 105.925C71.7569 105.925 72.2813 106.027 72.7417 106.232C73.205 106.436 73.5688 106.716 73.8331 107.071C74.0975 107.424 74.2311 107.825 74.2339 108.274C74.2311 108.754 74.0833 109.173 73.7905 109.531C73.4978 109.89 73.1226 110.116 72.665 110.209V110.269C73.0146 110.326 73.3315 110.457 73.6157 110.661C73.9028 110.863 74.1302 111.117 74.2978 111.424C74.4684 111.729 74.5551 112.062 74.5579 112.426C74.5551 112.898 74.4087 113.32 74.1188 113.692C73.8289 114.065 73.4281 114.359 72.9165 114.575C72.4078 114.788 71.8251 114.895 71.1685 114.895ZM71.1685 113.539C71.4613 113.539 71.7171 113.486 71.9359 113.381C72.1548 113.273 72.3253 113.125 72.4475 112.938C72.5726 112.747 72.6351 112.529 72.6351 112.281C72.6351 112.028 72.5712 111.805 72.4433 111.612C72.3154 111.416 72.142 111.262 71.9232 111.152C71.7043 111.038 71.4528 110.981 71.1685 110.981C70.8872 110.981 70.6356 111.038 70.4139 111.152C70.1922 111.262 70.0174 111.416 69.8895 111.612C69.7645 111.805 69.7019 112.028 69.7019 112.281C69.7019 112.529 69.7631 112.747 69.8853 112.938C70.0075 113.125 70.1794 113.273 70.4011 113.381C70.6228 113.486 70.8786 113.539 71.1685 113.539ZM71.1685 109.638C71.413 109.638 71.6304 109.588 71.8208 109.489C72.0113 109.389 72.1605 109.251 72.2685 109.075C72.3765 108.899 72.4305 108.696 72.4305 108.466C72.4305 108.238 72.3765 108.039 72.2685 107.869C72.1605 107.695 72.0127 107.56 71.8251 107.464C71.6375 107.364 71.4187 107.315 71.1685 107.315C70.9213 107.315 70.7024 107.364 70.512 107.464C70.3216 107.56 70.1723 107.695 70.0643 107.869C69.9592 108.039 69.9066 108.238 69.9066 108.466C69.9066 108.696 69.9606 108.899 70.0686 109.075C70.1766 109.251 70.3258 109.389 70.5162 109.489C70.7067 109.588 70.9241 109.638 71.1685 109.638ZM75.8657 117.231V108.227H77.6563V109.327H77.7373C77.8169 109.151 77.932 108.972 78.0826 108.79C78.2361 108.605 78.4351 108.451 78.6795 108.329C78.9268 108.204 79.2338 108.142 79.6004 108.142C80.0779 108.142 80.5184 108.267 80.922 108.517C81.3256 108.764 81.6482 109.138 81.8898 109.638C82.1314 110.135 82.2522 110.759 82.2522 111.51C82.2522 112.24 82.1343 112.857 81.8984 113.36C81.6653 113.86 81.347 114.24 80.9434 114.498C80.5426 114.754 80.0935 114.882 79.5961 114.882C79.2437 114.882 78.9438 114.824 78.6966 114.707C78.4521 114.591 78.2518 114.444 78.0954 114.268C77.9391 114.089 77.8197 113.909 77.7373 113.727H77.6819V117.231H75.8657ZM77.6435 111.501C77.6435 111.891 77.6975 112.23 77.8055 112.52C77.9135 112.81 78.0699 113.036 78.2745 113.198C78.4791 113.357 78.7278 113.437 79.0206 113.437C79.3162 113.437 79.5663 113.356 79.7709 113.194C79.9756 113.029 80.1305 112.801 80.2356 112.512C80.3436 112.219 80.3977 111.882 80.3977 111.501C80.3977 111.123 80.3451 110.791 80.2399 110.504C80.1347 110.216 79.9798 109.992 79.7752 109.83C79.5706 109.668 79.319 109.587 79.0206 109.587C78.725 109.587 78.4749 109.665 78.2702 109.821C78.0684 109.978 77.9135 110.199 77.8055 110.486C77.6975 110.774 77.6435 111.112 77.6435 111.501ZM84.7463 108.227L85.9485 110.516L87.1807 108.227H89.0437L87.1466 111.501L89.0949 114.775H87.2403L85.9485 112.512L84.6781 114.775H82.8022L84.7463 111.501L82.8704 108.227H84.7463Z" fill="#0B1530"/>
<path d="M158.406 68H141" stroke="#33F7C3" stroke-width="2"/>
<rect x="130.75" y="39.7504" width="35.9061" height="20.7027" rx="3.75176" fill="#33F7C3"/>
<rect x="130.75" y="39.7504" width="35.9061" height="20.7027" rx="3.75176" stroke="#33F7C3" stroke-width="1.5007"/>
<path d="M141.169 54.7209C140.512 54.7209 139.928 54.6144 139.416 54.4012C138.908 54.1852 138.508 53.891 138.218 53.5187C137.928 53.1463 137.783 52.7243 137.783 52.2525C137.783 51.8886 137.866 51.5547 138.031 51.2506C138.198 50.9436 138.426 50.6892 138.713 50.4874C139 50.2828 139.321 50.152 139.676 50.0952V50.0355C139.21 49.9417 138.832 49.7157 138.542 49.3576C138.252 48.9967 138.107 48.5774 138.107 48.0999C138.107 47.648 138.24 47.2458 138.504 46.8934C138.768 46.5381 139.131 46.2596 139.591 46.0578C140.054 45.8531 140.58 45.7508 141.169 45.7508C141.757 45.7508 142.281 45.8531 142.742 46.0578C143.205 46.2624 143.569 46.5424 143.833 46.8977C144.097 47.2501 144.231 47.6509 144.234 48.0999C144.231 48.5803 144.083 48.9995 143.791 49.3576C143.498 49.7157 143.123 49.9417 142.665 50.0355V50.0952C143.015 50.152 143.331 50.2828 143.616 50.4874C143.903 50.6892 144.13 50.9436 144.298 51.2506C144.468 51.5547 144.555 51.8886 144.558 52.2525C144.555 52.7243 144.409 53.1463 144.119 53.5187C143.829 53.891 143.428 54.1852 142.917 54.4012C142.408 54.6144 141.825 54.7209 141.169 54.7209ZM141.169 53.3652C141.461 53.3652 141.717 53.3126 141.936 53.2074C142.155 53.0994 142.325 52.9516 142.448 52.7641C142.573 52.5736 142.635 52.3548 142.635 52.1075C142.635 51.8545 142.571 51.6314 142.443 51.4381C142.315 51.242 142.142 51.0886 141.923 50.9777C141.704 50.864 141.453 50.8072 141.169 50.8072C140.887 50.8072 140.636 50.864 140.414 50.9777C140.192 51.0886 140.017 51.242 139.89 51.4381C139.764 51.6314 139.702 51.8545 139.702 52.1075C139.702 52.3548 139.763 52.5736 139.885 52.7641C140.007 52.9516 140.179 53.0994 140.401 53.2074C140.623 53.3126 140.879 53.3652 141.169 53.3652ZM141.169 49.4642C141.413 49.4642 141.63 49.4145 141.821 49.315C142.011 49.2155 142.16 49.0777 142.268 48.9014C142.376 48.7252 142.43 48.522 142.43 48.2918C142.43 48.0644 142.376 47.8655 142.268 47.6949C142.16 47.5215 142.013 47.3865 141.825 47.2899C141.638 47.1904 141.419 47.1407 141.169 47.1407C140.921 47.1407 140.702 47.1904 140.512 47.2899C140.322 47.3865 140.172 47.5215 140.064 47.6949C139.959 47.8655 139.907 48.0644 139.907 48.2918C139.907 48.522 139.961 48.7252 140.069 48.9014C140.177 49.0777 140.326 49.2155 140.516 49.315C140.707 49.4145 140.924 49.4642 141.169 49.4642ZM145.866 57.0573V48.053H147.656V49.153H147.737C147.817 48.9768 147.932 48.7977 148.083 48.6158C148.236 48.4311 148.435 48.2776 148.68 48.1554C148.927 48.0303 149.234 47.9678 149.6 47.9678C150.078 47.9678 150.518 48.0928 150.922 48.3429C151.326 48.5902 151.648 48.964 151.89 49.4642C152.131 49.9616 152.252 50.5855 152.252 51.3358C152.252 52.0663 152.134 52.683 151.898 53.1861C151.665 53.6864 151.347 54.0658 150.943 54.3244C150.543 54.5802 150.094 54.7081 149.596 54.7081C149.244 54.7081 148.944 54.6499 148.697 54.5333C148.452 54.4168 148.252 54.2704 148.095 54.0942C147.939 53.9152 147.82 53.7347 147.737 53.5528H147.682V57.0573H145.866ZM147.644 51.3273C147.644 51.7167 147.698 52.0563 147.806 52.3462C147.914 52.6362 148.07 52.8621 148.274 53.0241C148.479 53.1833 148.728 53.2629 149.021 53.2629C149.316 53.2629 149.566 53.1819 149.771 53.0199C149.976 52.855 150.13 52.6276 150.236 52.3377C150.344 52.045 150.398 51.7082 150.398 51.3273C150.398 50.9493 150.345 50.6167 150.24 50.3297C150.135 50.0426 149.98 49.8181 149.775 49.6561C149.571 49.4941 149.319 49.4131 149.021 49.4131C148.725 49.4131 148.475 49.4912 148.27 49.6475C148.068 49.8039 147.914 50.0256 147.806 50.3126C147.698 50.5997 147.644 50.9379 147.644 51.3273ZM154.746 48.053L155.949 50.3425L157.181 48.053H159.044L157.147 51.3273L159.095 54.6016H157.24L155.949 52.3377L154.678 54.6016H152.802L154.746 51.3273L152.87 48.053H154.746Z" fill="#0B1530"/>
<path d="M144 137H118" stroke="#33F7C3" stroke-width="2"/>
<rect x="109.75" y="144.75" width="42.9061" height="20.7027" rx="3.75176" fill="#33F7C3"/>
<rect x="109.75" y="144.75" width="42.9061" height="20.7027" rx="3.75176" stroke="#33F7C3" stroke-width="1.5007"/>
<path d="M116.911 159.602V158.271L120.019 155.394C120.284 155.138 120.505 154.908 120.684 154.703C120.866 154.498 121.004 154.298 121.098 154.102C121.192 153.903 121.239 153.688 121.239 153.458C121.239 153.202 121.18 152.982 121.064 152.797C120.947 152.61 120.788 152.466 120.586 152.367C120.385 152.264 120.156 152.213 119.9 152.213C119.633 152.213 119.4 152.267 119.201 152.375C119.002 152.483 118.848 152.638 118.74 152.84C118.632 153.042 118.578 153.282 118.578 153.56H116.826C116.826 152.989 116.955 152.493 117.214 152.072C117.473 151.652 117.835 151.326 118.301 151.096C118.767 150.866 119.304 150.751 119.913 150.751C120.538 150.751 121.082 150.862 121.546 151.083C122.012 151.302 122.374 151.606 122.633 151.996C122.891 152.385 123.021 152.831 123.021 153.334C123.021 153.664 122.955 153.99 122.825 154.311C122.697 154.632 122.468 154.989 122.138 155.381C121.809 155.77 121.344 156.238 120.744 156.783L119.469 158.033V158.092H123.136V159.602H116.911ZM124.154 158.067V156.613L127.799 150.87H129.052V152.883H128.31L126.013 156.519V156.587H131.193V158.067H124.154ZM128.345 159.602V157.623L128.379 156.98V150.87H130.11V159.602H128.345ZM132.44 162.057V153.053H134.23V154.153H134.311C134.391 153.977 134.506 153.798 134.657 153.616C134.81 153.431 135.009 153.278 135.253 153.155C135.501 153.03 135.808 152.968 136.174 152.968C136.652 152.968 137.092 153.093 137.496 153.343C137.9 153.59 138.222 153.964 138.464 154.464C138.705 154.962 138.826 155.585 138.826 156.336C138.826 157.066 138.708 157.683 138.472 158.186C138.239 158.686 137.921 159.066 137.517 159.324C137.116 159.58 136.667 159.708 136.17 159.708C135.818 159.708 135.518 159.65 135.27 159.533C135.026 159.417 134.826 159.27 134.669 159.094C134.513 158.915 134.394 158.735 134.311 158.553H134.256V162.057H132.44ZM134.217 156.327C134.217 156.717 134.271 157.056 134.379 157.346C134.487 157.636 134.644 157.862 134.848 158.024C135.053 158.183 135.302 158.263 135.594 158.263C135.89 158.263 136.14 158.182 136.345 158.02C136.549 157.855 136.704 157.628 136.81 157.338C136.918 157.045 136.972 156.708 136.972 156.327C136.972 155.949 136.919 155.617 136.814 155.33C136.709 155.043 136.554 154.818 136.349 154.656C136.144 154.494 135.893 154.413 135.594 154.413C135.299 154.413 135.049 154.491 134.844 154.648C134.642 154.804 134.487 155.026 134.379 155.313C134.271 155.6 134.217 155.938 134.217 156.327ZM141.32 153.053L142.522 155.342L143.755 153.053H145.618L143.72 156.327L145.669 159.602H143.814L142.522 157.338L141.252 159.602H139.376L141.32 156.327L139.444 153.053H141.32Z" fill="#0B1530"/>
<path d="M125 87.875C125 86.8394 125.839 86 126.875 86C127.911 86 128.75 86.8394 128.75 87.875C128.75 88.9105 127.911 89.75 126.875 89.75C125.839 89.75 125 88.9105 125 87.875Z" fill="#0B1530"/>
<path fill-rule="evenodd" clip-rule="evenodd" d="M126.623 80C123.96 80 122.992 80.2705 122.018 80.7916C121.058 81.3048 120.305 82.0579 119.792 83.0175C119.271 83.9918 119 84.9602 119 87.6233V96.3767C119 99.0398 119.271 100.008 119.792 100.982C120.305 101.942 121.058 102.695 122.018 103.208C122.992 103.729 123.96 104 126.623 104H135.377C138.04 104 139.008 103.729 139.982 103.208C140.942 102.695 141.695 101.942 142.208 100.982C142.729 100.008 143 99.0398 143 96.3767V87.6233C143 84.9602 142.729 83.9918 142.208 83.0175C141.695 82.0579 140.942 81.3048 139.982 80.7916C139.008 80.2705 138.04 80 135.377 80H126.623ZM124.69 95.4069C125.109 94.9875 125.471 94.6258 125.793 94.3521C126.133 94.0633 126.503 93.8073 126.957 93.6596C127.635 93.4394 128.365 93.4394 129.043 93.6596C129.497 93.8073 129.867 94.0633 130.207 94.3521C130.447 94.5558 130.709 94.8082 131 95.0969L133.69 92.4069C134.109 91.9875 134.471 91.6258 134.793 91.3521C135.133 91.0633 135.503 90.8073 135.957 90.6596C136.635 90.4394 137.365 90.4394 138.043 90.6596C138.497 90.8073 138.867 91.0633 139.207 91.3521C139.529 91.6258 139.891 91.9875 140.31 92.4069L140.75 92.8465V87.6233C140.75 85.1332 140.497 84.5883 140.224 84.0786C139.921 83.5111 139.489 83.0792 138.921 82.7757C138.412 82.5031 137.867 82.25 135.377 82.25H126.623C124.133 82.25 123.588 82.5031 123.079 82.7757C122.511 83.0792 122.079 83.5111 121.776 84.0786C121.503 84.5883 121.25 85.1332 121.25 87.6233V96.3767C121.25 97.4867 121.3 98.2102 121.38 98.7163L124.69 95.4069ZM125 87.875C125 88.9105 125.839 89.75 126.875 89.75C127.911 89.75 128.75 88.9105 128.75 87.875C128.75 86.8394 127.911 86 126.875 86C125.839 86 125 86.8394 125 87.875ZM137.348 92.7995C137.122 92.7261 136.878 92.7261 136.652 92.7995C136.593 92.8188 136.483 92.869 136.249 93.0674C136.005 93.2744 135.709 93.5699 135.25 94.0286L131.795 97.483C131.585 97.6939 131.298 97.8125 131 97.8125C130.702 97.8125 130.415 97.6939 130.205 97.483L129.75 97.0286C129.291 96.5699 128.995 96.2744 128.751 96.0674C128.517 95.869 128.407 95.8188 128.348 95.7995C128.122 95.7261 127.878 95.7261 127.652 95.7995C127.593 95.8188 127.483 95.869 127.249 96.0674C127.005 96.2744 126.709 96.5699 126.25 97.0286L122.472 100.807C122.654 100.966 122.856 101.105 123.079 101.224C123.588 101.497 124.133 101.75 126.623 101.75H135.377C137.867 101.75 138.412 101.497 138.921 101.224C139.489 100.921 139.921 100.489 140.224 99.9214C140.497 99.4117 140.75 98.8668 140.75 96.3767V96.026C140.75 96.026 139.413 94.6925 138.75 94.0286C138.291 93.5699 137.995 93.2744 137.751 93.0674C137.517 92.869 137.407 92.8188 137.348 92.7995Z" fill="#0B1530"/>
<path d="M157.4 81.99H160.43C161.79 81.99 162.89 82.1 163.73 82.32C164.57 82.54 165.31 82.95 165.95 83.55C167.01 84.55 167.54 85.87 167.54 87.51C167.54 88.45 167.34 89.24 166.94 89.88C166.58 90.5 166.08 90.96 165.44 91.26C166.48 91.52 167.34 92 168.02 92.7C168.9 93.62 169.34 94.87 169.34 96.45C169.34 97.91 168.9 99.11 168.02 100.05C166.78 101.35 164.91 102 162.41 102H157.4V81.99ZM160.46 84.87V90.6H161.39C162.51 90.6 163.34 90.34 163.88 89.82C164.4 89.32 164.66 88.56 164.66 87.54C164.66 86.72 164.42 86.08 163.94 85.62C163.42 85.12 162.61 84.87 161.51 84.87H160.46ZM160.46 93.12V99.12H162.32C163.7 99.12 164.71 98.86 165.35 98.34C166.01 97.82 166.34 97.08 166.34 96.12C166.34 95.26 166.07 94.56 165.53 94.02C164.91 93.42 163.86 93.12 162.38 93.12H160.46ZM172.651 102V89.37H175.591V93.84H177.271C177.811 93.84 178.251 93.86 178.591 93.9C178.931 93.92 179.341 94.03 179.821 94.23C180.301 94.43 180.721 94.73 181.081 95.13C181.741 95.87 182.071 96.79 182.071 97.89C182.071 99.15 181.691 100.16 180.931 100.92C180.591 101.26 180.181 101.52 179.701 101.7C179.241 101.86 178.851 101.95 178.531 101.97C178.231 101.99 177.801 102 177.241 102H172.651ZM175.591 99.48H176.941C177.661 99.48 178.171 99.39 178.471 99.21C178.911 98.89 179.131 98.46 179.131 97.92C179.131 97.36 178.921 96.94 178.501 96.66C178.181 96.46 177.671 96.36 176.971 96.36H175.591V99.48ZM183.391 102V89.37H186.331V102H183.391ZM199.593 80.7H202.593C202.373 81.74 201.913 82.64 201.213 83.4C200.513 84.16 199.653 84.68 198.633 84.96L196.653 85.5C196.133 85.64 195.733 85.76 195.453 85.86C195.173 85.96 194.823 86.15 194.403 86.43C194.003 86.69 193.663 87.01 193.383 87.39C192.723 88.27 192.373 89.41 192.333 90.81H192.363C193.243 89.63 194.673 89.04 196.653 89.04C198.433 89.04 199.903 89.64 201.063 90.84C202.283 92.1 202.893 93.7 202.893 95.64C202.893 97.6 202.243 99.22 200.943 100.5C199.663 101.76 198.063 102.39 196.143 102.39C194.223 102.39 192.683 101.83 191.523 100.71C190.883 100.11 190.393 99.37 190.053 98.49C189.713 97.61 189.513 96.89 189.453 96.33C189.413 95.75 189.393 95.05 189.393 94.23C189.393 90.31 190.033 87.42 191.313 85.56C192.273 84.14 193.533 83.24 195.093 82.86L197.193 82.35C198.573 82.01 199.373 81.46 199.593 80.7ZM193.413 98.67C194.093 99.39 195.003 99.75 196.143 99.75C197.283 99.75 198.193 99.39 198.873 98.67C199.553 97.93 199.893 96.95 199.893 95.73C199.893 94.39 199.523 93.38 198.783 92.7C198.063 92.02 197.183 91.68 196.143 91.68C195.103 91.68 194.213 92.02 193.473 92.7C192.753 93.38 192.393 94.39 192.393 95.73C192.393 96.95 192.733 97.93 193.413 98.67ZM207.222 90.93C208.522 89.67 210.132 89.04 212.052 89.04C213.972 89.04 215.572 89.67 216.852 90.93C218.152 92.17 218.802 93.76 218.802 95.7C218.802 97.62 218.152 99.22 216.852 100.5C215.572 101.76 213.972 102.39 212.052 102.39C210.132 102.39 208.522 101.76 207.222 100.5C205.942 99.22 205.302 97.62 205.302 95.7C205.302 93.76 205.942 92.17 207.222 90.93ZM209.322 98.67C210.002 99.39 210.912 99.75 212.052 99.75C213.192 99.75 214.102 99.39 214.782 98.67C215.462 97.93 215.802 96.95 215.802 95.73C215.802 94.39 215.432 93.38 214.692 92.7C213.972 92.02 213.092 91.68 212.052 91.68C211.012 91.68 210.122 92.02 209.382 92.7C208.662 93.38 208.302 94.39 208.302 95.73C208.302 96.95 208.642 97.93 209.322 98.67ZM224.81 100.53V108.87H221.87V89.37H224.81V90.75C225.77 89.61 227.02 89.04 228.56 89.04C230.28 89.04 231.73 89.65 232.91 90.87C234.11 92.07 234.71 93.65 234.71 95.61C234.71 97.63 234.09 99.27 232.85 100.53C231.61 101.77 230.19 102.39 228.59 102.39C227.09 102.39 225.83 101.77 224.81 100.53ZM228.2 91.68C227.2 91.68 226.35 92.04 225.65 92.76C224.97 93.46 224.63 94.46 224.63 95.76C224.63 97.02 224.97 98 225.65 98.7C226.35 99.4 227.2 99.75 228.2 99.75C229.24 99.75 230.08 99.36 230.72 98.58C231.38 97.8 231.71 96.85 231.71 95.73C231.71 94.59 231.38 93.63 230.72 92.85C230.08 92.07 229.24 91.68 228.2 91.68ZM243.34 102L246.4 88.23L251.62 97.86L256.84 88.23L259.9 102H256.9L255.64 95.67L251.62 102.96L247.6 95.67L246.34 102H243.34ZM271.032 97.74L273.492 99.12C272.932 100.12 272.222 100.89 271.362 101.43C270.382 102.07 269.142 102.39 267.642 102.39C265.882 102.39 264.462 101.85 263.382 100.77C262.142 99.53 261.522 97.92 261.522 95.94C261.522 93.86 262.192 92.13 263.532 90.75C264.672 89.61 266.082 89.04 267.762 89.04C269.402 89.04 270.752 89.59 271.812 90.69C272.992 91.91 273.582 93.69 273.582 96.03V96.39H264.522C264.602 97.45 264.962 98.3 265.602 98.94C266.142 99.48 266.892 99.75 267.852 99.75C268.632 99.75 269.302 99.54 269.862 99.12C270.322 98.76 270.712 98.3 271.032 97.74ZM264.732 93.99H270.582C270.462 93.29 270.162 92.72 269.682 92.28C269.162 91.8 268.502 91.56 267.702 91.56C266.862 91.56 266.172 91.83 265.632 92.37C265.192 92.77 264.892 93.31 264.732 93.99ZM286.435 89.94V93.24C285.375 92.2 284.185 91.68 282.865 91.68C281.745 91.68 280.815 92.05 280.075 92.79C279.355 93.51 278.995 94.48 278.995 95.7C278.995 96.96 279.375 97.97 280.135 98.73C280.855 99.41 281.745 99.75 282.805 99.75C284.265 99.75 285.475 99.21 286.435 98.13V101.4C285.375 102.06 284.095 102.39 282.595 102.39C280.575 102.39 278.975 101.77 277.795 100.53C276.595 99.29 275.995 97.71 275.995 95.79C275.995 93.81 276.635 92.18 277.915 90.9C279.155 89.66 280.845 89.04 282.985 89.04C284.205 89.04 285.355 89.34 286.435 89.94ZM298.246 92.07H294.556V102H291.616V92.07H287.926V89.37H298.246V92.07ZM309.274 90.84V89.37H312.214V102H309.274V100.68C308.294 101.82 307.034 102.39 305.494 102.39C303.634 102.39 302.144 101.73 301.024 100.41C299.924 99.09 299.374 97.51 299.374 95.67C299.374 93.67 299.964 92.07 301.144 90.87C302.344 89.65 303.804 89.04 305.524 89.04C307.104 89.04 308.354 89.64 309.274 90.84ZM305.884 91.68C304.844 91.68 303.994 92.07 303.334 92.85C302.694 93.63 302.374 94.59 302.374 95.73C302.374 96.85 302.694 97.8 303.334 98.58C303.994 99.36 304.844 99.75 305.884 99.75C306.884 99.75 307.724 99.4 308.404 98.7C309.104 98 309.454 97.02 309.454 95.76C309.454 94.46 309.104 93.46 308.404 92.76C307.724 92.04 306.884 91.68 305.884 91.68Z" fill="#0B1530"/>
<path d="M116 122H315" stroke="#457BF8" stroke-width="6" stroke-linecap="round"/>
<path d="M118.983 137.184L118.983 125.043" stroke="#33F7C3" stroke-width="2"/>
<path d="M158.406 82V67" stroke="#33F7C3" stroke-width="2"/>
</svg>
