<svg width="416" height="208" viewBox="0 0 416 208" fill="none" xmlns="http://www.w3.org/2000/svg">
<rect width="416" height="208" rx="24" fill="#F5F6F8"/>
<rect x="16" y="16" width="384" height="176.5" rx="18" fill="white"/>
<path d="M178.407 81.0469H150.407V121.047H178.407" stroke="#33F7C3" stroke-width="2"/>
<rect x="139.656" y="111.398" width="43.9061" height="20.7027" rx="3.75176" transform="rotate(-180 139.656 111.398)" fill="#33F7C3"/>
<rect x="139.656" y="111.398" width="43.9061" height="20.7027" rx="3.75176" transform="rotate(-180 139.656 111.398)" stroke="#33F7C3" stroke-width="1.5007"/>
<path d="M102.779 104.012V102.558L106.424 96.8155H107.677V98.8278H106.935L104.638 102.464V102.533H109.817V104.012H102.779ZM106.97 105.547V103.569L107.004 102.925V96.8155H108.735V105.547H106.97ZM114.471 105.739C113.738 105.736 113.107 105.555 112.578 105.197C112.052 104.839 111.647 104.32 111.363 103.641C111.082 102.962 110.942 102.145 110.945 101.19C110.945 100.238 111.086 99.4261 111.367 98.7553C111.651 98.0846 112.056 97.5744 112.582 97.2248C113.111 96.8724 113.74 96.6961 114.471 96.6961C115.201 96.6961 115.83 96.8724 116.355 97.2248C116.884 97.5772 117.29 98.0888 117.575 98.7596C117.859 99.4275 118 100.238 117.997 101.19C117.997 102.148 117.855 102.966 117.57 103.645C117.289 104.325 116.885 104.843 116.36 105.202C115.834 105.56 115.204 105.739 114.471 105.739ZM114.471 104.208C114.971 104.208 115.371 103.957 115.669 103.454C115.967 102.95 116.115 102.196 116.112 101.19C116.112 100.527 116.044 99.9761 115.908 99.5355C115.774 99.095 115.584 98.7639 115.336 98.5422C115.092 98.3205 114.803 98.2096 114.471 98.2096C113.974 98.2096 113.576 98.4583 113.277 98.9557C112.979 99.4531 112.828 100.198 112.825 101.19C112.825 101.86 112.892 102.42 113.026 102.869C113.162 103.316 113.354 103.651 113.601 103.876C113.848 104.097 114.138 104.208 114.471 104.208ZM119.33 108.003V98.9984H121.121V100.098H121.202C121.281 99.9221 121.396 99.743 121.547 99.5611C121.701 99.3764 121.9 99.2229 122.144 99.1007C122.391 98.9756 122.698 98.9131 123.065 98.9131C123.542 98.9131 123.983 99.0381 124.386 99.2883C124.79 99.5355 125.113 99.9093 125.354 100.41C125.596 100.907 125.717 101.531 125.717 102.281C125.717 103.012 125.599 103.628 125.363 104.131C125.13 104.632 124.811 105.011 124.408 105.27C124.007 105.526 123.558 105.653 123.061 105.653C122.708 105.653 122.408 105.595 122.161 105.479C121.917 105.362 121.716 105.216 121.56 105.04C121.404 104.86 121.284 104.68 121.202 104.498H121.146V108.003H119.33ZM121.108 102.273C121.108 102.662 121.162 103.002 121.27 103.292C121.378 103.581 121.534 103.807 121.739 103.969C121.944 104.129 122.192 104.208 122.485 104.208C122.781 104.208 123.031 104.127 123.235 103.965C123.44 103.8 123.595 103.573 123.7 103.283C123.808 102.99 123.862 102.653 123.862 102.273C123.862 101.895 123.809 101.562 123.704 101.275C123.599 100.988 123.444 100.763 123.24 100.601C123.035 100.439 122.783 100.358 122.485 100.358C122.189 100.358 121.939 100.437 121.735 100.593C121.533 100.749 121.378 100.971 121.27 101.258C121.162 101.545 121.108 101.883 121.108 102.273ZM128.211 98.9984L129.413 101.288L130.645 98.9984H132.508L130.611 102.273L132.559 105.547H130.705L129.413 103.283L128.142 105.547H126.267L128.211 102.273L126.335 98.9984H128.211Z" fill="#0B1530"/>
<path d="M178.204 102.242V72.2422H162.204V102.242" stroke="#33F7C3" stroke-width="2"/>
<rect x="177.453" y="61.4918" width="41.9061" height="20.7027" rx="3.75176" transform="rotate(-180 177.453 61.4918)" fill="#33F7C3"/>
<rect x="177.453" y="61.4918" width="41.9061" height="20.7027" rx="3.75176" transform="rotate(-180 177.453 61.4918)" stroke="#33F7C3" stroke-width="1.5007"/>
<path d="M146.506 46.9093V55.6406H144.66V48.6615H144.609L142.61 49.9149V48.2778L144.771 46.9093H146.506ZM151.933 55.76C151.483 55.7572 151.05 55.6818 150.632 55.534C150.217 55.3862 149.845 55.1461 149.515 54.8135C149.186 54.481 148.924 54.0404 148.731 53.4919C148.54 52.9433 148.445 52.2697 148.445 51.4711C148.448 50.7378 148.532 50.0826 148.697 49.5056C148.864 48.9258 149.103 48.4341 149.413 48.0305C149.726 47.6269 150.099 47.32 150.534 47.1096C150.969 46.8965 151.456 46.7899 151.997 46.7899C152.579 46.7899 153.094 46.9036 153.54 47.131C153.986 47.3555 154.344 47.661 154.614 48.0476C154.887 48.4341 155.052 48.8676 155.109 49.3479H153.288C153.217 49.0438 153.068 48.805 152.841 48.6317C152.613 48.4583 152.332 48.3716 151.997 48.3716C151.428 48.3716 150.996 48.6189 150.7 49.1134C150.408 49.608 150.258 50.2802 150.253 51.13H150.312C150.443 50.8713 150.619 50.6511 150.841 50.4692C151.066 50.2844 151.32 50.1437 151.604 50.0471C151.891 49.9476 152.194 49.8979 152.512 49.8979C153.03 49.8979 153.49 50.0201 153.894 50.2645C154.297 50.5061 154.616 50.8387 154.849 51.2622C155.082 51.6856 155.198 52.1702 155.198 52.716C155.198 53.3071 155.06 53.833 154.785 54.2934C154.512 54.7538 154.13 55.1148 153.638 55.3763C153.149 55.6349 152.581 55.7628 151.933 55.76ZM151.924 54.3105C152.208 54.3105 152.463 54.2422 152.687 54.1058C152.912 53.9694 153.088 53.7846 153.216 53.5516C153.344 53.3185 153.408 53.057 153.408 52.7671C153.408 52.4772 153.344 52.2171 153.216 51.9869C153.091 51.7567 152.917 51.5734 152.696 51.437C152.474 51.3005 152.221 51.2323 151.937 51.2323C151.724 51.2323 151.526 51.2721 151.344 51.3517C151.165 51.4313 151.007 51.5421 150.871 51.6842C150.737 51.8263 150.632 51.9912 150.556 52.1788C150.479 52.3635 150.44 52.5611 150.44 52.7714C150.44 53.0528 150.504 53.31 150.632 53.5431C150.763 53.7761 150.939 53.9623 151.161 54.1016C151.385 54.2408 151.64 54.3105 151.924 54.3105ZM156.524 58.0963V49.0921H158.315V50.192H158.396C158.475 50.0158 158.591 49.8368 158.741 49.6549C158.895 49.4701 159.094 49.3166 159.338 49.1944C159.585 49.0694 159.892 49.0068 160.259 49.0068C160.736 49.0068 161.177 49.1319 161.581 49.382C161.984 49.6293 162.307 50.003 162.548 50.5033C162.79 51.0007 162.911 51.6245 162.911 52.3749C162.911 53.1053 162.793 53.7221 162.557 54.2252C162.324 54.7254 162.005 55.1049 161.602 55.3635C161.201 55.6193 160.752 55.7472 160.255 55.7472C159.902 55.7472 159.602 55.6889 159.355 55.5724C159.111 55.4559 158.91 55.3095 158.754 55.1333C158.598 54.9542 158.478 54.7737 158.396 54.5918H158.34V58.0963H156.524ZM158.302 52.3664C158.302 52.7558 158.356 53.0954 158.464 53.3853C158.572 53.6752 158.728 53.9012 158.933 54.0632C159.138 54.2223 159.386 54.3019 159.679 54.3019C159.975 54.3019 160.225 54.2209 160.429 54.0589C160.634 53.8941 160.789 53.6667 160.894 53.3768C161.002 53.084 161.056 52.7472 161.056 52.3664C161.056 51.9883 161.004 51.6558 160.898 51.3687C160.793 51.0817 160.638 50.8571 160.434 50.6951C160.229 50.5331 159.978 50.4521 159.679 50.4521C159.384 50.4521 159.133 50.5303 158.929 50.6866C158.727 50.8429 158.572 51.0646 158.464 51.3517C158.356 51.6387 158.302 51.977 158.302 52.3664ZM165.405 49.0921L166.607 51.3815L167.839 49.0921H169.702L167.805 52.3664L169.753 55.6406H167.899L166.607 53.3768L165.337 55.6406H163.461L165.405 52.3664L163.529 49.0921H165.405Z" fill="#0B1530"/>
<path d="M266.1 102.203V72.2031H250.1V102.203" stroke="#33F7C3" stroke-width="2"/>
<rect x="279.053" y="61.4528" width="41.9061" height="20.7027" rx="3.75176" transform="rotate(-180 279.053 61.4528)" fill="#33F7C3"/>
<rect x="279.053" y="61.4528" width="41.9061" height="20.7027" rx="3.75176" transform="rotate(-180 279.053 61.4528)" stroke="#33F7C3" stroke-width="1.5007"/>
<path d="M248.106 46.8702V55.6016H246.26V48.6224H246.209L244.21 49.8759V48.2387L246.371 46.8702H248.106ZM253.533 55.7209C253.084 55.7181 252.65 55.6428 252.232 55.495C251.817 55.3472 251.445 55.107 251.115 54.7745C250.786 54.4419 250.524 54.0014 250.331 53.4528C250.14 52.9043 250.045 52.2307 250.045 51.432C250.048 50.6987 250.132 50.0436 250.297 49.4666C250.464 48.8868 250.703 48.3951 251.013 47.9915C251.326 47.5879 251.699 47.2809 252.134 47.0706C252.569 46.8574 253.057 46.7508 253.597 46.7508C254.179 46.7508 254.694 46.8645 255.14 47.0919C255.586 47.3164 255.944 47.622 256.214 48.0085C256.487 48.3951 256.652 48.8285 256.709 49.3088H254.888C254.817 49.0047 254.668 48.766 254.441 48.5926C254.213 48.4192 253.932 48.3325 253.597 48.3325C253.028 48.3325 252.596 48.5798 252.301 49.0744C252.008 49.5689 251.859 50.2411 251.853 51.0909H251.913C252.043 50.8323 252.22 50.612 252.441 50.4301C252.666 50.2454 252.92 50.1047 253.204 50.008C253.491 49.9086 253.794 49.8588 254.112 49.8588C254.63 49.8588 255.09 49.981 255.494 50.2255C255.897 50.4671 256.216 50.7996 256.449 51.2231C256.682 51.6466 256.798 52.1312 256.798 52.6769C256.798 53.2681 256.661 53.7939 256.385 54.2543C256.112 54.7148 255.73 55.0757 255.238 55.3372C254.749 55.5959 254.181 55.7238 253.533 55.7209ZM253.524 54.2714C253.808 54.2714 254.063 54.2032 254.287 54.0668C254.512 53.9303 254.688 53.7456 254.816 53.5125C254.944 53.2795 255.008 53.018 255.008 52.7281C255.008 52.4381 254.944 52.1781 254.816 51.9479C254.691 51.7176 254.518 51.5343 254.296 51.3979C254.074 51.2615 253.821 51.1932 253.537 51.1932C253.324 51.1932 253.126 51.233 252.944 51.3126C252.765 51.3922 252.608 51.5031 252.471 51.6452C252.338 51.7873 252.232 51.9521 252.156 52.1397C252.079 52.3245 252.04 52.522 252.04 52.7323C252.04 53.0137 252.104 53.2709 252.232 53.504C252.363 53.7371 252.539 53.9232 252.761 54.0625C252.986 54.2018 253.24 54.2714 253.524 54.2714ZM258.124 58.0573V49.053H259.915V50.153H259.996C260.076 49.9768 260.191 49.7977 260.341 49.6158C260.495 49.4311 260.694 49.2776 260.938 49.1554C261.185 49.0303 261.492 48.9678 261.859 48.9678C262.337 48.9678 262.777 49.0928 263.181 49.3429C263.584 49.5902 263.907 49.964 264.148 50.4642C264.39 50.9616 264.511 51.5855 264.511 52.3358C264.511 53.0663 264.393 53.683 264.157 54.1861C263.924 54.6864 263.606 55.0658 263.202 55.3244C262.801 55.5802 262.352 55.7081 261.855 55.7081C261.502 55.7081 261.202 55.6499 260.955 55.5333C260.711 55.4168 260.51 55.2704 260.354 55.0942C260.198 54.9152 260.078 54.7347 259.996 54.5528H259.94V58.0573H258.124ZM259.902 52.3273C259.902 52.7167 259.956 53.0563 260.064 53.3462C260.172 53.6362 260.328 53.8621 260.533 54.0241C260.738 54.1833 260.986 54.2629 261.279 54.2629C261.575 54.2629 261.825 54.1819 262.03 54.0199C262.234 53.855 262.389 53.6276 262.494 53.3377C262.602 53.045 262.656 52.7082 262.656 52.3273C262.656 51.9493 262.604 51.6167 262.499 51.3297C262.393 51.0426 262.238 50.8181 262.034 50.6561C261.829 50.4941 261.578 50.4131 261.279 50.4131C260.984 50.4131 260.733 50.4912 260.529 50.6475C260.327 50.8039 260.172 51.0256 260.064 51.3126C259.956 51.5997 259.902 51.9379 259.902 52.3273ZM267.005 49.053L268.207 51.3425L269.439 49.053H271.302L269.405 52.3273L271.354 55.6016H269.499L268.207 53.3377L266.937 55.6016H265.061L267.005 52.3273L265.129 49.053H267.005Z" fill="#0B1530"/>
<path d="M227.804 102.461V72.4609H217.804V102.461" stroke="#33F7C3" stroke-width="2"/>
<rect x="227.053" y="61.7106" width="41.9061" height="20.7027" rx="3.75176" transform="rotate(-180 227.053 61.7106)" fill="#33F7C3"/>
<rect x="227.053" y="61.7106" width="41.9061" height="20.7027" rx="3.75176" transform="rotate(-180 227.053 61.7106)" stroke="#33F7C3" stroke-width="1.5007"/>
<path d="M196.106 47.128V55.8594H194.26V48.8803H194.209L192.21 50.1337V48.4965L194.371 47.128H196.106ZM201.605 56.0512C200.872 56.0484 200.241 55.8679 199.712 55.5098C199.186 55.1517 198.781 54.6329 198.497 53.9537C198.216 53.2744 198.076 52.4572 198.079 51.5022C198.079 50.5501 198.22 49.7386 198.501 49.0678C198.786 48.3971 199.191 47.8869 199.716 47.5373C200.245 47.1849 200.875 47.0086 201.605 47.0086C202.336 47.0086 202.964 47.1849 203.49 47.5373C204.018 47.8897 204.425 48.4013 204.709 49.0721C204.993 49.74 205.134 50.5501 205.131 51.5022C205.131 52.4601 204.989 53.2786 204.705 53.9579C204.423 54.6372 204.02 55.1559 203.494 55.514C202.968 55.8722 202.338 56.0512 201.605 56.0512ZM201.605 54.5207C202.105 54.5207 202.505 54.2691 202.803 53.7661C203.102 53.263 203.249 52.5084 203.247 51.5022C203.247 50.84 203.178 50.2886 203.042 49.848C202.908 49.4075 202.718 49.0764 202.471 48.8547C202.226 48.633 201.938 48.5221 201.605 48.5221C201.108 48.5221 200.71 48.7708 200.411 49.2682C200.113 49.7656 199.962 50.5103 199.959 51.5022C199.959 52.173 200.026 52.7329 200.16 53.182C200.296 53.6282 200.488 53.9636 200.735 54.1881C200.983 54.4098 201.273 54.5207 201.605 54.5207ZM206.464 58.3151V49.3109H208.255V50.4108H208.336C208.416 50.2346 208.531 50.0555 208.681 49.8736C208.835 49.6889 209.034 49.5354 209.278 49.4132C209.525 49.2881 209.832 49.2256 210.199 49.2256C210.677 49.2256 211.117 49.3506 211.521 49.6008C211.924 49.848 212.247 50.2218 212.488 50.722C212.73 51.2194 212.851 51.8433 212.851 52.5936C212.851 53.3241 212.733 53.9409 212.497 54.4439C212.264 54.9442 211.946 55.3236 211.542 55.5823C211.141 55.8381 210.692 55.966 210.195 55.966C209.842 55.966 209.542 55.9077 209.295 55.7912C209.051 55.6746 208.85 55.5283 208.694 55.352C208.538 55.173 208.418 54.9925 208.336 54.8106H208.28V58.3151H206.464ZM208.242 52.5851C208.242 52.9745 208.296 53.3141 208.404 53.6041C208.512 53.894 208.668 54.1199 208.873 54.2819C209.078 54.4411 209.326 54.5207 209.619 54.5207C209.915 54.5207 210.165 54.4397 210.37 54.2777C210.574 54.1128 210.729 53.8854 210.834 53.5955C210.942 53.3028 210.996 52.966 210.996 52.5851C210.996 52.2071 210.944 51.8746 210.839 51.5875C210.733 51.3004 210.578 51.0759 210.374 50.9139C210.169 50.7519 209.918 50.6709 209.619 50.6709C209.324 50.6709 209.073 50.749 208.869 50.9053C208.667 51.0617 208.512 51.2834 208.404 51.5704C208.296 51.8575 208.242 52.1957 208.242 52.5851ZM215.345 49.3109L216.547 51.6003L217.779 49.3109H219.642L217.745 52.5851L219.694 55.8594H217.839L216.547 53.5955L215.277 55.8594H213.401L215.345 52.5851L213.469 49.3109H215.345Z" fill="#0B1530"/>
<path d="M227.601 106.262L227.601 136.262L251.601 136.262L251.601 106.262" stroke="#33F7C3" stroke-width="2"/>
<rect x="261.053" y="167.714" width="42.9061" height="20.7027" rx="3.75176" transform="rotate(-180 261.053 167.714)" fill="#33F7C3"/>
<rect x="261.053" y="167.714" width="42.9061" height="20.7027" rx="3.75176" transform="rotate(-180 261.053 167.714)" stroke="#33F7C3" stroke-width="1.5007"/>
<path d="M225.308 161.863V160.533L228.416 157.655C228.68 157.4 228.902 157.169 229.081 156.965C229.263 156.76 229.401 156.56 229.494 156.364C229.588 156.165 229.635 155.95 229.635 155.72C229.635 155.464 229.577 155.244 229.46 155.059C229.344 154.871 229.185 154.728 228.983 154.628C228.781 154.526 228.552 154.475 228.296 154.475C228.029 154.475 227.796 154.529 227.597 154.637C227.398 154.745 227.245 154.9 227.137 155.102C227.029 155.303 226.975 155.544 226.975 155.822H225.223C225.223 155.251 225.352 154.755 225.611 154.334C225.869 153.914 226.232 153.588 226.698 153.358C227.164 153.128 227.701 153.013 228.309 153.013C228.935 153.013 229.479 153.123 229.942 153.345C230.408 153.564 230.771 153.868 231.029 154.257C231.288 154.647 231.417 155.093 231.417 155.596C231.417 155.926 231.352 156.251 231.221 156.572C231.093 156.894 230.864 157.25 230.535 157.643C230.205 158.032 229.74 158.499 229.141 159.045L227.866 160.294V160.354H231.532V161.863H225.308ZM232.55 160.328V158.875L236.195 153.132H237.449V155.144H236.707L234.409 158.781V158.849H239.589V160.328H232.55ZM236.741 161.863V159.885L236.775 159.241V153.132H238.506V161.863H236.741ZM240.836 164.319V155.315H242.627V156.415H242.708C242.787 156.238 242.902 156.059 243.053 155.878C243.206 155.693 243.405 155.539 243.65 155.417C243.897 155.292 244.204 155.229 244.571 155.229C245.048 155.229 245.489 155.355 245.892 155.605C246.296 155.852 246.619 156.226 246.86 156.726C247.102 157.223 247.223 157.847 247.223 158.598C247.223 159.328 247.105 159.945 246.869 160.448C246.636 160.948 246.317 161.328 245.914 161.586C245.513 161.842 245.064 161.97 244.566 161.97C244.214 161.97 243.914 161.912 243.667 161.795C243.422 161.679 243.222 161.532 243.066 161.356C242.909 161.177 242.79 160.996 242.708 160.814H242.652V164.319H240.836ZM242.614 158.589C242.614 158.978 242.668 159.318 242.776 159.608C242.884 159.898 243.04 160.124 243.245 160.286C243.449 160.445 243.698 160.525 243.991 160.525C244.287 160.525 244.537 160.444 244.741 160.282C244.946 160.117 245.101 159.889 245.206 159.599C245.314 159.307 245.368 158.97 245.368 158.589C245.368 158.211 245.315 157.878 245.21 157.591C245.105 157.304 244.95 157.08 244.746 156.918C244.541 156.756 244.289 156.675 243.991 156.675C243.695 156.675 243.445 156.753 243.241 156.909C243.039 157.066 242.884 157.287 242.776 157.574C242.668 157.861 242.614 158.2 242.614 158.589ZM249.717 155.315L250.919 157.604L252.151 155.315H254.014L252.117 158.589L254.065 161.863H252.211L250.919 159.599L249.648 161.863H247.773L249.717 158.589L247.841 155.315H249.717Z" fill="#0B1530"/>
<rect x="320.657" y="127.291" width="35.9061" height="20.7027" rx="3.75176" transform="rotate(-180 320.657 127.291)" fill="#33F7C3"/>
<rect x="320.657" y="127.291" width="35.9061" height="20.7027" rx="3.75176" transform="rotate(-180 320.657 127.291)" stroke="#33F7C3" stroke-width="1.5007"/>
<path d="M295.169 121.559C294.512 121.559 293.928 121.452 293.416 121.239C292.908 121.023 292.508 120.729 292.218 120.357C291.928 119.984 291.783 119.562 291.783 119.09C291.783 118.727 291.866 118.393 292.031 118.088C292.198 117.781 292.426 117.527 292.713 117.325C293 117.121 293.321 116.99 293.676 116.933V116.873C293.21 116.78 292.832 116.554 292.542 116.196C292.252 115.835 292.107 115.415 292.107 114.938C292.107 114.486 292.24 114.084 292.504 113.731C292.768 113.376 293.131 113.097 293.591 112.896C294.054 112.691 294.58 112.589 295.169 112.589C295.757 112.589 296.281 112.691 296.742 112.896C297.205 113.1 297.569 113.38 297.833 113.736C298.097 114.088 298.231 114.489 298.234 114.938C298.231 115.418 298.083 115.837 297.791 116.196C297.498 116.554 297.123 116.78 296.665 116.873V116.933C297.015 116.99 297.331 117.121 297.616 117.325C297.903 117.527 298.13 117.781 298.298 118.088C298.468 118.393 298.555 118.727 298.558 119.09C298.555 119.562 298.409 119.984 298.119 120.357C297.829 120.729 297.428 121.023 296.917 121.239C296.408 121.452 295.825 121.559 295.169 121.559ZM295.169 120.203C295.461 120.203 295.717 120.15 295.936 120.045C296.155 119.937 296.325 119.79 296.448 119.602C296.573 119.412 296.635 119.193 296.635 118.945C296.635 118.692 296.571 118.469 296.443 118.276C296.315 118.08 296.142 117.926 295.923 117.816C295.704 117.702 295.453 117.645 295.169 117.645C294.887 117.645 294.636 117.702 294.414 117.816C294.192 117.926 294.017 118.08 293.89 118.276C293.764 118.469 293.702 118.692 293.702 118.945C293.702 119.193 293.763 119.412 293.885 119.602C294.007 119.79 294.179 119.937 294.401 120.045C294.623 120.15 294.879 120.203 295.169 120.203ZM295.169 116.302C295.413 116.302 295.63 116.252 295.821 116.153C296.011 116.053 296.16 115.916 296.268 115.739C296.376 115.563 296.43 115.36 296.43 115.13C296.43 114.902 296.376 114.703 296.268 114.533C296.16 114.359 296.013 114.224 295.825 114.128C295.638 114.028 295.419 113.979 295.169 113.979C294.921 113.979 294.702 114.028 294.512 114.128C294.322 114.224 294.172 114.359 294.064 114.533C293.959 114.703 293.907 114.902 293.907 115.13C293.907 115.36 293.961 115.563 294.069 115.739C294.177 115.916 294.326 116.053 294.516 116.153C294.707 116.252 294.924 116.302 295.169 116.302ZM299.866 123.895V114.891H301.656V115.991H301.737C301.817 115.815 301.932 115.636 302.083 115.454C302.236 115.269 302.435 115.115 302.68 114.993C302.927 114.868 303.234 114.806 303.6 114.806C304.078 114.806 304.518 114.931 304.922 115.181C305.326 115.428 305.648 115.802 305.89 116.302C306.131 116.799 306.252 117.423 306.252 118.174C306.252 118.904 306.134 119.521 305.898 120.024C305.665 120.524 305.347 120.904 304.943 121.162C304.543 121.418 304.094 121.546 303.596 121.546C303.244 121.546 302.944 121.488 302.697 121.371C302.452 121.255 302.252 121.108 302.095 120.932C301.939 120.753 301.82 120.573 301.737 120.391H301.682V123.895H299.866ZM301.644 118.165C301.644 118.555 301.698 118.894 301.806 119.184C301.914 119.474 302.07 119.7 302.274 119.862C302.479 120.021 302.728 120.101 303.021 120.101C303.316 120.101 303.566 120.02 303.771 119.858C303.976 119.693 304.13 119.466 304.236 119.176C304.344 118.883 304.398 118.546 304.398 118.165C304.398 117.787 304.345 117.455 304.24 117.168C304.135 116.88 303.98 116.656 303.775 116.494C303.571 116.332 303.319 116.251 303.021 116.251C302.725 116.251 302.475 116.329 302.27 116.485C302.068 116.642 301.914 116.863 301.806 117.151C301.698 117.438 301.644 117.776 301.644 118.165ZM308.746 114.891L309.949 117.18L311.181 114.891H313.044L311.147 118.165L313.095 121.439H311.24L309.949 119.176L308.678 121.439H306.802L308.746 118.165L306.87 114.891H308.746Z" fill="#0B1530"/>
<path d="M236 120.939L274 120.939L274 112.939L236 112.939" stroke="#33F7C3" stroke-width="2"/>
<rect x="320.657" y="97.6891" width="35.9061" height="20.7027" rx="3.75176" transform="rotate(-180 320.657 97.6891)" fill="#33F7C3"/>
<rect x="320.657" y="97.6891" width="35.9061" height="20.7027" rx="3.75176" transform="rotate(-180 320.657 97.6891)" stroke="#33F7C3" stroke-width="1.5007"/>
<path d="M295.169 91.9573C294.512 91.9573 293.928 91.8507 293.416 91.6375C292.908 91.4215 292.508 91.1273 292.218 90.755C291.928 90.3827 291.783 89.9606 291.783 89.4888C291.783 89.125 291.866 88.791 292.031 88.4869C292.198 88.1799 292.426 87.9255 292.713 87.7237C293 87.5191 293.321 87.3884 293.676 87.3315V87.2718C293.21 87.178 292.832 86.9521 292.542 86.594C292.252 86.233 292.107 85.8138 292.107 85.3363C292.107 84.8843 292.24 84.4822 292.504 84.1297C292.768 83.7745 293.131 83.4959 293.591 83.2941C294.054 83.0895 294.58 82.9872 295.169 82.9872C295.757 82.9872 296.281 83.0895 296.742 83.2941C297.205 83.4988 297.569 83.7787 297.833 84.134C298.097 84.4864 298.231 84.8872 298.234 85.3363C298.231 85.8166 298.083 86.2358 297.791 86.594C297.498 86.9521 297.123 87.178 296.665 87.2718V87.3315C297.015 87.3884 297.331 87.5191 297.616 87.7237C297.903 87.9255 298.13 88.1799 298.298 88.4869C298.468 88.791 298.555 89.125 298.558 89.4888C298.555 89.9606 298.409 90.3827 298.119 90.755C297.829 91.1273 297.428 91.4215 296.917 91.6375C296.408 91.8507 295.825 91.9573 295.169 91.9573ZM295.169 90.6015C295.461 90.6015 295.717 90.5489 295.936 90.4438C296.155 90.3358 296.325 90.188 296.448 90.0004C296.573 89.81 296.635 89.5911 296.635 89.3438C296.635 89.0909 296.571 88.8677 296.443 88.6745C296.315 88.4784 296.142 88.3249 295.923 88.214C295.704 88.1003 295.453 88.0435 295.169 88.0435C294.887 88.0435 294.636 88.1003 294.414 88.214C294.192 88.3249 294.017 88.4784 293.89 88.6745C293.764 88.8677 293.702 89.0909 293.702 89.3438C293.702 89.5911 293.763 89.81 293.885 90.0004C294.007 90.188 294.179 90.3358 294.401 90.4438C294.623 90.5489 294.879 90.6015 295.169 90.6015ZM295.169 86.7005C295.413 86.7005 295.63 86.6508 295.821 86.5513C296.011 86.4518 296.16 86.314 296.268 86.1378C296.376 85.9616 296.43 85.7583 296.43 85.5281C296.43 85.3007 296.376 85.1018 296.268 84.9312C296.16 84.7579 296.013 84.6229 295.825 84.5262C295.638 84.4267 295.419 84.377 295.169 84.377C294.921 84.377 294.702 84.4267 294.512 84.5262C294.322 84.6229 294.172 84.7579 294.064 84.9312C293.959 85.1018 293.907 85.3007 293.907 85.5281C293.907 85.7583 293.961 85.9616 294.069 86.1378C294.177 86.314 294.326 86.4518 294.516 86.5513C294.707 86.6508 294.924 86.7005 295.169 86.7005ZM299.866 94.2936V85.2894H301.656V86.3893H301.737C301.817 86.2131 301.932 86.034 302.083 85.8521C302.236 85.6674 302.435 85.5139 302.68 85.3917C302.927 85.2666 303.234 85.2041 303.6 85.2041C304.078 85.2041 304.518 85.3292 304.922 85.5793C305.326 85.8266 305.648 86.2003 305.89 86.7005C306.131 87.1979 306.252 87.8218 306.252 88.5722C306.252 89.3026 306.134 89.9194 305.898 90.4225C305.665 90.9227 305.347 91.3021 304.943 91.5608C304.543 91.8166 304.094 91.9445 303.596 91.9445C303.244 91.9445 302.944 91.8862 302.697 91.7697C302.452 91.6531 302.252 91.5068 302.095 91.3306C301.939 91.1515 301.82 90.971 301.737 90.7891H301.682V94.2936H299.866ZM301.644 88.5636C301.644 88.953 301.698 89.2927 301.806 89.5826C301.914 89.8725 302.07 90.0984 302.274 90.2604C302.479 90.4196 302.728 90.4992 303.021 90.4992C303.316 90.4992 303.566 90.4182 303.771 90.2562C303.976 90.0913 304.13 89.864 304.236 89.574C304.344 89.2813 304.398 88.9445 304.398 88.5636C304.398 88.1856 304.345 87.8531 304.24 87.566C304.135 87.2789 303.98 87.0544 303.775 86.8924C303.571 86.7304 303.319 86.6494 303.021 86.6494C302.725 86.6494 302.475 86.7275 302.27 86.8839C302.068 87.0402 301.914 87.2619 301.806 87.5489C301.698 87.836 301.644 88.1742 301.644 88.5636ZM308.746 85.2894L309.949 87.5788L311.181 85.2894H313.044L311.147 88.5636L313.095 91.8379H311.24L309.949 89.574L308.678 91.8379H306.802L308.746 88.5636L306.87 85.2894H308.746Z" fill="#0B1530"/>
<path d="M236 91.3379L274 91.3379L274 83.3379L236 83.3379" stroke="#33F7C3" stroke-width="2"/>
<rect x="160.403" y="82.3379" width="107" height="40" rx="20" fill="#C1D3FD"/>
<path d="M184.643 97.3979H181.403V109.338H179.923V97.3979H176.683V95.9979H184.643V97.3979ZM191.208 106.558L192.408 107.218C192.128 107.751 191.788 108.198 191.388 108.558C190.628 109.238 189.708 109.578 188.628 109.578C187.508 109.578 186.542 109.218 185.728 108.498C184.928 107.765 184.528 106.678 184.528 105.238C184.528 103.971 184.888 102.925 185.608 102.098C186.342 101.258 187.322 100.838 188.548 100.838C189.935 100.838 190.982 101.345 191.688 102.358C192.248 103.158 192.508 104.198 192.468 105.478H186.008C186.022 106.318 186.282 106.998 186.788 107.518C187.295 108.038 187.915 108.298 188.648 108.298C189.302 108.298 189.868 108.098 190.348 107.698C190.722 107.378 191.008 106.998 191.208 106.558ZM186.108 104.278H190.988C190.868 103.625 190.582 103.105 190.128 102.718C189.688 102.318 189.162 102.118 188.548 102.118C187.948 102.118 187.415 102.325 186.948 102.738C186.495 103.138 186.215 103.651 186.108 104.278ZM194.677 101.038H196.117V104.438L199.477 101.038H201.237L197.637 104.738L201.677 109.338H199.797L196.557 105.698L196.117 106.118V109.338H194.677V101.038ZM209.185 101.638V103.358C208.532 102.531 207.665 102.118 206.585 102.118C205.772 102.118 205.079 102.398 204.505 102.958C203.932 103.505 203.645 104.258 203.645 105.218C203.645 106.178 203.932 106.931 204.505 107.478C205.079 108.025 205.765 108.298 206.565 108.298C207.632 108.298 208.525 107.865 209.245 106.998V108.718C208.459 109.291 207.579 109.578 206.605 109.578C205.312 109.578 204.245 109.171 203.405 108.358C202.579 107.531 202.165 106.491 202.165 105.238C202.165 103.971 202.585 102.925 203.425 102.098C204.265 101.258 205.325 100.838 206.605 100.838C207.565 100.838 208.425 101.105 209.185 101.638ZM216.895 102.358H214.295V109.338H212.855V102.358H210.255V101.038H216.895V102.358Z" fill="#0B1530"/>
<path d="M232.403 95.3379L246.403 109.338" stroke="#6C7383" stroke-width="2" stroke-linecap="round"/>
<path d="M246.403 95.3379L232.403 109.338" stroke="#6C7383" stroke-width="2" stroke-linecap="round"/>
</svg>
