<svg width="416" height="176" viewBox="0 0 416 176" fill="none" xmlns="http://www.w3.org/2000/svg">
<rect width="416" height="176" rx="24" fill="#F5F6F8"/>
<rect x="16" y="16" width="384" height="144" rx="18" fill="white"/>
<path d="M191.407 81.0547H163.407V121.055H191.407" stroke="#33F7C3" stroke-width="2"/>
<rect x="152.656" y="111.406" width="43.9061" height="20.7027" rx="3.75176" transform="rotate(-180 152.656 111.406)" fill="#33F7C3"/>
<rect x="152.656" y="111.406" width="43.9061" height="20.7027" rx="3.75176" transform="rotate(-180 152.656 111.406)" stroke="#33F7C3" stroke-width="1.5007"/>
<path d="M115.779 104.02V102.566L119.424 96.8233H120.677V98.8356H119.935L117.638 102.472V102.54H122.817V104.02H115.779ZM119.97 105.555V103.576L120.004 102.933V96.8233H121.735V105.555H119.97ZM127.471 105.747C126.738 105.744 126.107 105.563 125.578 105.205C125.052 104.847 124.647 104.328 124.363 103.649C124.082 102.97 123.942 102.153 123.945 101.198C123.945 100.245 124.086 99.4339 124.367 98.7632C124.651 98.0924 125.056 97.5822 125.582 97.2326C126.111 96.8802 126.74 96.7039 127.471 96.7039C128.201 96.7039 128.83 96.8802 129.355 97.2326C129.884 97.585 130.29 98.0966 130.575 98.7674C130.859 99.4353 131 100.245 130.997 101.198C130.997 102.155 130.855 102.974 130.57 103.653C130.289 104.333 129.885 104.851 129.36 105.209C128.834 105.567 128.204 105.747 127.471 105.747ZM127.471 104.216C127.971 104.216 128.371 103.964 128.669 103.461C128.967 102.958 129.115 102.204 129.112 101.198C129.112 100.535 129.044 99.9839 128.908 99.5433C128.774 99.1028 128.584 98.7717 128.336 98.55C128.092 98.3283 127.803 98.2174 127.471 98.2174C126.974 98.2174 126.576 98.4661 126.277 98.9635C125.979 99.4609 125.828 100.206 125.825 101.198C125.825 101.868 125.892 102.428 126.026 102.877C126.162 103.324 126.354 103.659 126.601 103.883C126.848 104.105 127.138 104.216 127.471 104.216ZM132.33 108.01V99.0062H134.121V100.106H134.202C134.281 99.9299 134.396 99.7508 134.547 99.5689C134.701 99.3842 134.9 99.2307 135.144 99.1085C135.391 98.9834 135.698 98.9209 136.065 98.9209C136.542 98.9209 136.983 99.046 137.386 99.2961C137.79 99.5433 138.113 99.9171 138.354 100.417C138.596 100.915 138.717 101.539 138.717 102.289C138.717 103.019 138.599 103.636 138.363 104.139C138.13 104.639 137.811 105.019 137.408 105.278C137.007 105.533 136.558 105.661 136.061 105.661C135.708 105.661 135.408 105.603 135.161 105.486C134.917 105.37 134.716 105.224 134.56 105.047C134.404 104.868 134.284 104.688 134.202 104.506H134.146V108.01H132.33ZM134.108 102.28C134.108 102.67 134.162 103.009 134.27 103.299C134.378 103.589 134.534 103.815 134.739 103.977C134.944 104.136 135.192 104.216 135.485 104.216C135.781 104.216 136.031 104.135 136.235 103.973C136.44 103.808 136.595 103.581 136.7 103.291C136.808 102.998 136.862 102.661 136.862 102.28C136.862 101.902 136.809 101.57 136.704 101.283C136.599 100.996 136.444 100.771 136.24 100.609C136.035 100.447 135.783 100.366 135.485 100.366C135.189 100.366 134.939 100.444 134.735 100.601C134.533 100.757 134.378 100.979 134.27 101.266C134.162 101.553 134.108 101.891 134.108 102.28ZM141.211 99.0062L142.413 101.296L143.645 99.0062H145.508L143.611 102.28L145.559 105.555H143.705L142.413 103.291L141.142 105.555H139.267L141.211 102.28L139.335 99.0062H141.211Z" fill="#0B1530"/>
<path d="M190.5 102.25V72.25H174.5V102.25" stroke="#33F7C3" stroke-width="2"/>
<rect x="203.453" y="61.4996" width="41.9061" height="20.7027" rx="3.75176" transform="rotate(-180 203.453 61.4996)" fill="#33F7C3"/>
<rect x="203.453" y="61.4996" width="41.9061" height="20.7027" rx="3.75176" transform="rotate(-180 203.453 61.4996)" stroke="#33F7C3" stroke-width="1.5007"/>
<path d="M172.506 46.9171V55.6484H170.66V48.6693H170.609L168.61 49.9227V48.2856L170.771 46.9171H172.506ZM177.933 55.7678C177.483 55.765 177.05 55.6896 176.632 55.5419C176.217 55.3941 175.845 55.1539 175.515 54.8213C175.186 54.4888 174.924 54.0483 174.731 53.4997C174.54 52.9512 174.445 52.2775 174.445 51.4789C174.448 50.7456 174.532 50.0904 174.697 49.5135C174.864 48.9336 175.103 48.4419 175.413 48.0383C175.726 47.6347 176.099 47.3278 176.534 47.1175C176.969 46.9043 177.456 46.7977 177.997 46.7977C178.579 46.7977 179.094 46.9114 179.54 47.1388C179.986 47.3633 180.344 47.6688 180.614 48.0554C180.887 48.4419 181.052 48.8754 181.109 49.3557H179.288C179.217 49.0516 179.068 48.8128 178.841 48.6395C178.613 48.4661 178.332 48.3794 177.997 48.3794C177.428 48.3794 176.996 48.6267 176.7 49.1212C176.408 49.6158 176.258 50.288 176.253 51.1378H176.312C176.443 50.8792 176.619 50.6589 176.841 50.477C177.066 50.2922 177.32 50.1515 177.604 50.0549C177.891 49.9554 178.194 49.9057 178.512 49.9057C179.03 49.9057 179.49 50.0279 179.894 50.2723C180.297 50.5139 180.616 50.8465 180.849 51.27C181.082 51.6935 181.198 52.1781 181.198 52.7238C181.198 53.315 181.06 53.8408 180.785 54.3012C180.512 54.7617 180.13 55.1226 179.638 55.3841C179.149 55.6428 178.581 55.7707 177.933 55.7678ZM177.924 54.3183C178.208 54.3183 178.463 54.2501 178.687 54.1136C178.912 53.9772 179.088 53.7925 179.216 53.5594C179.344 53.3263 179.408 53.0648 179.408 52.7749C179.408 52.485 179.344 52.225 179.216 51.9947C179.091 51.7645 178.917 51.5812 178.696 51.4448C178.474 51.3083 178.221 51.2401 177.937 51.2401C177.724 51.2401 177.526 51.2799 177.344 51.3595C177.165 51.4391 177.007 51.5499 176.871 51.692C176.737 51.8341 176.632 51.999 176.556 52.1866C176.479 52.3713 176.44 52.5689 176.44 52.7792C176.44 53.0606 176.504 53.3178 176.632 53.5509C176.763 53.7839 176.939 53.9701 177.161 54.1094C177.385 54.2486 177.64 54.3183 177.924 54.3183ZM182.524 58.1041V49.0999H184.315V50.1999H184.396C184.475 50.0236 184.591 49.8446 184.741 49.6627C184.895 49.4779 185.094 49.3245 185.338 49.2022C185.585 49.0772 185.892 49.0146 186.259 49.0146C186.736 49.0146 187.177 49.1397 187.581 49.3898C187.984 49.6371 188.307 50.0109 188.548 50.5111C188.79 51.0085 188.911 51.6324 188.911 52.3827C188.911 53.1132 188.793 53.7299 188.557 54.233C188.324 54.7332 188.005 55.1127 187.602 55.3713C187.201 55.6271 186.752 55.755 186.255 55.755C185.902 55.755 185.602 55.6968 185.355 55.5802C185.111 55.4637 184.91 55.3173 184.754 55.1411C184.598 54.962 184.478 54.7816 184.396 54.5997H184.34V58.1041H182.524ZM184.302 52.3742C184.302 52.7636 184.356 53.1032 184.464 53.3931C184.572 53.683 184.728 53.909 184.933 54.071C185.138 54.2302 185.386 54.3097 185.679 54.3097C185.975 54.3097 186.225 54.2287 186.429 54.0667C186.634 53.9019 186.789 53.6745 186.894 53.3846C187.002 53.0918 187.056 52.755 187.056 52.3742C187.056 51.9962 187.004 51.6636 186.898 51.3765C186.793 51.0895 186.638 50.8649 186.434 50.7029C186.229 50.5409 185.978 50.4599 185.679 50.4599C185.384 50.4599 185.133 50.5381 184.929 50.6944C184.727 50.8507 184.572 51.0724 184.464 51.3595C184.356 51.6466 184.302 51.9848 184.302 52.3742ZM191.405 49.0999L192.607 51.3893L193.839 49.0999H195.702L193.805 52.3742L195.753 55.6484H193.899L192.607 53.3846L191.337 55.6484H189.461L191.405 52.3742L189.529 49.0999H191.405Z" fill="#0B1530"/>
<path d="M245.1 102.203V72.2031H229.1V102.203" stroke="#33F7C3" stroke-width="2"/>
<rect x="258.053" y="61.4528" width="41.9061" height="20.7027" rx="3.75176" transform="rotate(-180 258.053 61.4528)" fill="#33F7C3"/>
<rect x="258.053" y="61.4528" width="41.9061" height="20.7027" rx="3.75176" transform="rotate(-180 258.053 61.4528)" stroke="#33F7C3" stroke-width="1.5007"/>
<path d="M227.106 46.8702V55.6016H225.26V48.6224H225.209L223.21 49.8759V48.2387L225.371 46.8702H227.106ZM232.533 55.7209C232.084 55.7181 231.65 55.6428 231.232 55.495C230.817 55.3472 230.445 55.107 230.115 54.7745C229.786 54.4419 229.524 54.0014 229.331 53.4528C229.14 52.9043 229.045 52.2307 229.045 51.432C229.048 50.6987 229.132 50.0436 229.297 49.4666C229.464 48.8868 229.703 48.3951 230.013 47.9915C230.326 47.5879 230.699 47.2809 231.134 47.0706C231.569 46.8574 232.057 46.7508 232.597 46.7508C233.179 46.7508 233.694 46.8645 234.14 47.0919C234.586 47.3164 234.944 47.622 235.214 48.0085C235.487 48.3951 235.652 48.8285 235.709 49.3088H233.888C233.817 49.0047 233.668 48.766 233.441 48.5926C233.213 48.4192 232.932 48.3325 232.597 48.3325C232.028 48.3325 231.596 48.5798 231.301 49.0744C231.008 49.5689 230.859 50.2411 230.853 51.0909H230.913C231.043 50.8323 231.22 50.612 231.441 50.4301C231.666 50.2454 231.92 50.1047 232.204 50.008C232.491 49.9086 232.794 49.8588 233.112 49.8588C233.63 49.8588 234.09 49.981 234.494 50.2255C234.897 50.4671 235.216 50.7996 235.449 51.2231C235.682 51.6466 235.798 52.1312 235.798 52.6769C235.798 53.2681 235.661 53.7939 235.385 54.2543C235.112 54.7148 234.73 55.0757 234.238 55.3372C233.749 55.5959 233.181 55.7238 232.533 55.7209ZM232.524 54.2714C232.808 54.2714 233.063 54.2032 233.287 54.0668C233.512 53.9303 233.688 53.7456 233.816 53.5125C233.944 53.2795 234.008 53.018 234.008 52.7281C234.008 52.4381 233.944 52.1781 233.816 51.9479C233.691 51.7176 233.518 51.5343 233.296 51.3979C233.074 51.2615 232.821 51.1932 232.537 51.1932C232.324 51.1932 232.126 51.233 231.944 51.3126C231.765 51.3922 231.608 51.5031 231.471 51.6452C231.338 51.7873 231.232 51.9521 231.156 52.1397C231.079 52.3245 231.04 52.522 231.04 52.7323C231.04 53.0137 231.104 53.2709 231.232 53.504C231.363 53.7371 231.539 53.9232 231.761 54.0625C231.986 54.2018 232.24 54.2714 232.524 54.2714ZM237.124 58.0573V49.053H238.915V50.153H238.996C239.076 49.9768 239.191 49.7977 239.341 49.6158C239.495 49.4311 239.694 49.2776 239.938 49.1554C240.185 49.0303 240.492 48.9678 240.859 48.9678C241.337 48.9678 241.777 49.0928 242.181 49.3429C242.584 49.5902 242.907 49.964 243.148 50.4642C243.39 50.9616 243.511 51.5855 243.511 52.3358C243.511 53.0663 243.393 53.683 243.157 54.1861C242.924 54.6864 242.606 55.0658 242.202 55.3244C241.801 55.5802 241.352 55.7081 240.855 55.7081C240.502 55.7081 240.202 55.6499 239.955 55.5333C239.711 55.4168 239.51 55.2704 239.354 55.0942C239.198 54.9152 239.078 54.7347 238.996 54.5528H238.94V58.0573H237.124ZM238.902 52.3273C238.902 52.7167 238.956 53.0563 239.064 53.3462C239.172 53.6362 239.328 53.8621 239.533 54.0241C239.738 54.1833 239.986 54.2629 240.279 54.2629C240.575 54.2629 240.825 54.1819 241.03 54.0199C241.234 53.855 241.389 53.6276 241.494 53.3377C241.602 53.045 241.656 52.7082 241.656 52.3273C241.656 51.9493 241.604 51.6167 241.499 51.3297C241.393 51.0426 241.238 50.8181 241.034 50.6561C240.829 50.4941 240.578 50.4131 240.279 50.4131C239.984 50.4131 239.733 50.4912 239.529 50.6475C239.327 50.8039 239.172 51.0256 239.064 51.3126C238.956 51.5997 238.902 51.9379 238.902 52.3273ZM246.005 49.053L247.207 51.3425L248.439 49.053H250.302L248.405 52.3273L250.354 55.6016H248.499L247.207 53.3377L245.937 55.6016H244.061L246.005 52.3273L244.129 49.053H246.005Z" fill="#0B1530"/>
<rect x="299.657" y="127.292" width="35.9061" height="20.7027" rx="3.75176" transform="rotate(-180 299.657 127.292)" fill="#33F7C3"/>
<rect x="299.657" y="127.292" width="35.9061" height="20.7027" rx="3.75176" transform="rotate(-180 299.657 127.292)" stroke="#33F7C3" stroke-width="1.5007"/>
<path d="M274.169 121.56C273.512 121.56 272.928 121.453 272.416 121.24C271.908 121.024 271.508 120.73 271.218 120.358C270.928 119.985 270.783 119.563 270.783 119.091C270.783 118.728 270.866 118.394 271.031 118.089C271.198 117.782 271.426 117.528 271.713 117.326C272 117.122 272.321 116.991 272.676 116.934V116.874C272.21 116.781 271.832 116.555 271.542 116.196C271.252 115.836 271.107 115.416 271.107 114.939C271.107 114.487 271.24 114.085 271.504 113.732C271.768 113.377 272.131 113.098 272.591 112.897C273.054 112.692 273.58 112.59 274.169 112.59C274.757 112.59 275.281 112.692 275.742 112.897C276.205 113.101 276.569 113.381 276.833 113.737C277.097 114.089 277.231 114.49 277.234 114.939C277.231 115.419 277.083 115.838 276.791 116.196C276.498 116.555 276.123 116.781 275.665 116.874V116.934C276.015 116.991 276.331 117.122 276.616 117.326C276.903 117.528 277.13 117.782 277.298 118.089C277.468 118.394 277.555 118.728 277.558 119.091C277.555 119.563 277.409 119.985 277.119 120.358C276.829 120.73 276.428 121.024 275.917 121.24C275.408 121.453 274.825 121.56 274.169 121.56ZM274.169 120.204C274.461 120.204 274.717 120.151 274.936 120.046C275.155 119.938 275.325 119.791 275.448 119.603C275.573 119.412 275.635 119.194 275.635 118.946C275.635 118.693 275.571 118.47 275.443 118.277C275.315 118.081 275.142 117.927 274.923 117.817C274.704 117.703 274.453 117.646 274.169 117.646C273.887 117.646 273.636 117.703 273.414 117.817C273.192 117.927 273.017 118.081 272.89 118.277C272.764 118.47 272.702 118.693 272.702 118.946C272.702 119.194 272.763 119.412 272.885 119.603C273.007 119.791 273.179 119.938 273.401 120.046C273.623 120.151 273.879 120.204 274.169 120.204ZM274.169 116.303C274.413 116.303 274.63 116.253 274.821 116.154C275.011 116.054 275.16 115.917 275.268 115.74C275.376 115.564 275.43 115.361 275.43 115.131C275.43 114.903 275.376 114.704 275.268 114.534C275.16 114.36 275.013 114.225 274.825 114.129C274.638 114.029 274.419 113.98 274.169 113.98C273.921 113.98 273.702 114.029 273.512 114.129C273.322 114.225 273.172 114.36 273.064 114.534C272.959 114.704 272.907 114.903 272.907 115.131C272.907 115.361 272.961 115.564 273.069 115.74C273.177 115.917 273.326 116.054 273.516 116.154C273.707 116.253 273.924 116.303 274.169 116.303ZM278.866 123.896V114.892H280.656V115.992H280.737C280.817 115.816 280.932 115.637 281.083 115.455C281.236 115.27 281.435 115.116 281.68 114.994C281.927 114.869 282.234 114.807 282.6 114.807C283.078 114.807 283.518 114.932 283.922 115.182C284.326 115.429 284.648 115.803 284.89 116.303C285.131 116.8 285.252 117.424 285.252 118.175C285.252 118.905 285.134 119.522 284.898 120.025C284.665 120.525 284.347 120.905 283.943 121.163C283.543 121.419 283.094 121.547 282.596 121.547C282.244 121.547 281.944 121.489 281.697 121.372C281.452 121.256 281.252 121.109 281.095 120.933C280.939 120.754 280.82 120.574 280.737 120.392H280.682V123.896H278.866ZM280.644 118.166C280.644 118.556 280.698 118.895 280.806 119.185C280.914 119.475 281.07 119.701 281.274 119.863C281.479 120.022 281.728 120.102 282.021 120.102C282.316 120.102 282.566 120.021 282.771 119.859C282.976 119.694 283.13 119.466 283.236 119.177C283.344 118.884 283.398 118.547 283.398 118.166C283.398 117.788 283.345 117.456 283.24 117.169C283.135 116.881 282.98 116.657 282.775 116.495C282.571 116.333 282.319 116.252 282.021 116.252C281.725 116.252 281.475 116.33 281.27 116.486C281.068 116.643 280.914 116.864 280.806 117.151C280.698 117.439 280.644 117.777 280.644 118.166ZM287.746 114.892L288.949 117.181L290.181 114.892H292.044L290.147 118.166L292.095 121.44H290.24L288.949 119.177L287.678 121.44H285.802L287.746 118.166L285.87 114.892H287.746Z" fill="#0B1530"/>
<path d="M215 120.94L253 120.94L253 112.94L215 112.94" stroke="#33F7C3" stroke-width="2"/>
<rect x="299.657" y="97.6901" width="35.9061" height="20.7027" rx="3.75176" transform="rotate(-180 299.657 97.6901)" fill="#33F7C3"/>
<rect x="299.657" y="97.6901" width="35.9061" height="20.7027" rx="3.75176" transform="rotate(-180 299.657 97.6901)" stroke="#33F7C3" stroke-width="1.5007"/>
<path d="M274.169 91.9582C273.512 91.9582 272.928 91.8517 272.416 91.6385C271.908 91.4225 271.508 91.1283 271.218 90.756C270.928 90.3836 270.783 89.9616 270.783 89.4898C270.783 89.1259 270.866 88.792 271.031 88.4879C271.198 88.1809 271.426 87.9265 271.713 87.7247C272 87.5201 272.321 87.3893 272.676 87.3325V87.2728C272.21 87.179 271.832 86.9531 271.542 86.5949C271.252 86.234 271.107 85.8147 271.107 85.3372C271.107 84.8853 271.24 84.4831 271.504 84.1307C271.768 83.7754 272.131 83.4969 272.591 83.2951C273.054 83.0904 273.58 82.9881 274.169 82.9881C274.757 82.9881 275.281 83.0904 275.742 83.2951C276.205 83.4997 276.569 83.7797 276.833 84.135C277.097 84.4874 277.231 84.8882 277.234 85.3372C277.231 85.8176 277.083 86.2368 276.791 86.5949C276.498 86.9531 276.123 87.179 275.665 87.2728V87.3325C276.015 87.3893 276.331 87.5201 276.616 87.7247C276.903 87.9265 277.13 88.1809 277.298 88.4879C277.468 88.792 277.555 89.1259 277.558 89.4898C277.555 89.9616 277.409 90.3836 277.119 90.756C276.829 91.1283 276.428 91.4225 275.917 91.6385C275.408 91.8517 274.825 91.9582 274.169 91.9582ZM274.169 90.6025C274.461 90.6025 274.717 90.5499 274.936 90.4447C275.155 90.3367 275.325 90.1889 275.448 90.0014C275.573 89.8109 275.635 89.5921 275.635 89.3448C275.635 89.0918 275.571 88.8687 275.443 88.6755C275.315 88.4793 275.142 88.3259 274.923 88.215C274.704 88.1013 274.453 88.0445 274.169 88.0445C273.887 88.0445 273.636 88.1013 273.414 88.215C273.192 88.3259 273.017 88.4793 272.89 88.6755C272.764 88.8687 272.702 89.0918 272.702 89.3448C272.702 89.5921 272.763 89.8109 272.885 90.0014C273.007 90.1889 273.179 90.3367 273.401 90.4447C273.623 90.5499 273.879 90.6025 274.169 90.6025ZM274.169 86.7015C274.413 86.7015 274.63 86.6518 274.821 86.5523C275.011 86.4528 275.16 86.315 275.268 86.1388C275.376 85.9625 275.43 85.7593 275.43 85.5291C275.43 85.3017 275.376 85.1028 275.268 84.9322C275.16 84.7588 275.013 84.6238 274.825 84.5272C274.638 84.4277 274.419 84.378 274.169 84.378C273.921 84.378 273.702 84.4277 273.512 84.5272C273.322 84.6238 273.172 84.7588 273.064 84.9322C272.959 85.1028 272.907 85.3017 272.907 85.5291C272.907 85.7593 272.961 85.9625 273.069 86.1388C273.177 86.315 273.326 86.4528 273.516 86.5523C273.707 86.6518 273.924 86.7015 274.169 86.7015ZM278.866 94.2946V85.2903H280.656V86.3903H280.737C280.817 86.2141 280.932 86.035 281.083 85.8531C281.236 85.6684 281.435 85.5149 281.68 85.3927C281.927 85.2676 282.234 85.2051 282.6 85.2051C283.078 85.2051 283.518 85.3301 283.922 85.5803C284.326 85.8275 284.648 86.2013 284.89 86.7015C285.131 87.1989 285.252 87.8228 285.252 88.5731C285.252 89.3036 285.134 89.9204 284.898 90.4234C284.665 90.9237 284.347 91.3031 283.943 91.5617C283.543 91.8176 283.094 91.9455 282.596 91.9455C282.244 91.9455 281.944 91.8872 281.697 91.7707C281.452 91.6541 281.252 91.5077 281.095 91.3315C280.939 91.1525 280.82 90.972 280.737 90.7901H280.682V94.2946H278.866ZM280.644 88.5646C280.644 88.954 280.698 89.2936 280.806 89.5835C280.914 89.8735 281.07 90.0994 281.274 90.2614C281.479 90.4206 281.728 90.5002 282.021 90.5002C282.316 90.5002 282.566 90.4192 282.771 90.2572C282.976 90.0923 283.13 89.8649 283.236 89.575C283.344 89.2823 283.398 88.9455 283.398 88.5646C283.398 88.1866 283.345 87.854 283.24 87.567C283.135 87.2799 282.98 87.0554 282.775 86.8934C282.571 86.7314 282.319 86.6504 282.021 86.6504C281.725 86.6504 281.475 86.7285 281.27 86.8848C281.068 87.0412 280.914 87.2629 280.806 87.5499C280.698 87.837 280.644 88.1752 280.644 88.5646ZM287.746 85.2903L288.949 87.5798L290.181 85.2903H292.044L290.147 88.5646L292.095 91.8389H290.24L288.949 89.575L287.678 91.8389H285.802L287.746 88.5646L285.87 85.2903H287.746Z" fill="#0B1530"/>
<path d="M215 91.3389L253 91.3389L253 83.3389L215 83.3389" stroke="#33F7C3" stroke-width="2"/>
<rect x="173.204" y="82.3281" width="73" height="40" rx="20" fill="#C1D3FD"/>
<path d="M197.444 97.3881H194.204V109.328H192.724V97.3881H189.484V95.9881H197.444V97.3881ZM204.009 106.548L205.209 107.208C204.929 107.741 204.589 108.188 204.189 108.548C203.429 109.228 202.509 109.568 201.429 109.568C200.309 109.568 199.342 109.208 198.529 108.488C197.729 107.755 197.329 106.668 197.329 105.228C197.329 103.961 197.689 102.915 198.409 102.088C199.142 101.248 200.122 100.828 201.349 100.828C202.735 100.828 203.782 101.335 204.489 102.348C205.049 103.148 205.309 104.188 205.269 105.468H198.809C198.822 106.308 199.082 106.988 199.589 107.508C200.095 108.028 200.715 108.288 201.449 108.288C202.102 108.288 202.669 108.088 203.149 107.688C203.522 107.368 203.809 106.988 204.009 106.548ZM198.909 104.268H203.789C203.669 103.615 203.382 103.095 202.929 102.708C202.489 102.308 201.962 102.108 201.349 102.108C200.749 102.108 200.215 102.315 199.749 102.728C199.295 103.128 199.015 103.641 198.909 104.268ZM207.478 101.028H208.918V104.428L212.278 101.028H214.038L210.438 104.728L214.478 109.328H212.598L209.358 105.688L208.918 106.108V109.328H207.478V101.028ZM221.985 101.628V103.348C221.332 102.521 220.465 102.108 219.385 102.108C218.572 102.108 217.879 102.388 217.305 102.948C216.732 103.495 216.445 104.248 216.445 105.208C216.445 106.168 216.732 106.921 217.305 107.468C217.879 108.015 218.565 108.288 219.365 108.288C220.432 108.288 221.325 107.855 222.045 106.988V108.708C221.259 109.281 220.379 109.568 219.405 109.568C218.112 109.568 217.045 109.161 216.205 108.348C215.379 107.521 214.965 106.481 214.965 105.228C214.965 103.961 215.385 102.915 216.225 102.088C217.065 101.248 218.125 100.828 219.405 100.828C220.365 100.828 221.225 101.095 221.985 101.628ZM229.695 102.348H227.095V109.328H225.655V102.348H223.055V101.028H229.695V102.348Z" fill="#0B1530"/>
</svg>
