<svg width="416" height="314" viewBox="0 0 416 314" fill="none" xmlns="http://www.w3.org/2000/svg">
<rect width="416" height="314" rx="24" fill="#F5F6F8"/>
<mask id="path-2-inside-1_994_3862" fill="white">
<path d="M280 137H292V175H280V137Z"/>
</mask>
<path d="M292 137H294V135H292V137ZM292 175V177H294V175H292ZM280 139H292V135H280V139ZM290 137V175H294V137H290ZM292 173H280V177H292V173Z" fill="#33F7C3" mask="url(#path-2-inside-1_994_3862)"/>
<rect x="302.751" y="145.649" width="43.9061" height="20.7027" rx="3.75176" fill="#33F7C3"/>
<rect x="302.751" y="145.649" width="43.9061" height="20.7027" rx="3.75176" stroke="#33F7C3" stroke-width="1.5007"/>
<path d="M313.139 160.619C312.502 160.619 311.935 160.51 311.438 160.291C310.943 160.069 310.552 159.765 310.265 159.379C309.981 158.989 309.835 158.54 309.826 158.032H311.685C311.696 158.245 311.766 158.432 311.894 158.594C312.025 158.753 312.198 158.877 312.414 158.965C312.63 159.053 312.873 159.097 313.143 159.097C313.424 159.097 313.673 159.048 313.889 158.948C314.105 158.849 314.274 158.711 314.396 158.535C314.519 158.358 314.58 158.155 314.58 157.925C314.58 157.692 314.514 157.486 314.384 157.307C314.256 157.125 314.071 156.983 313.829 156.88C313.591 156.778 313.306 156.727 312.977 156.727H312.162V155.371H312.977C313.255 155.371 313.501 155.323 313.714 155.226C313.93 155.13 314.098 154.996 314.217 154.825C314.337 154.652 314.396 154.45 314.396 154.22C314.396 154.001 314.344 153.809 314.239 153.645C314.136 153.477 313.991 153.346 313.804 153.252C313.619 153.158 313.403 153.112 313.156 153.112C312.906 153.112 312.677 153.157 312.469 153.248C312.262 153.336 312.096 153.463 311.971 153.627C311.845 153.792 311.779 153.986 311.77 154.207H310.001C310.009 153.704 310.153 153.261 310.431 152.877C310.71 152.493 311.085 152.194 311.557 151.978C312.032 151.759 312.567 151.649 313.164 151.649C313.767 151.649 314.294 151.759 314.746 151.978C315.198 152.196 315.549 152.492 315.799 152.864C316.052 153.234 316.177 153.649 316.174 154.109C316.177 154.598 316.025 155.006 315.718 155.333C315.414 155.66 315.017 155.867 314.529 155.955V156.023C315.171 156.106 315.66 156.329 315.995 156.693C316.333 157.054 316.501 157.506 316.498 158.049C316.501 158.546 316.358 158.988 316.068 159.374C315.781 159.761 315.384 160.065 314.878 160.287C314.372 160.509 313.792 160.619 313.139 160.619ZM321.176 160.619C320.727 160.617 320.294 160.541 319.876 160.393C319.461 160.246 319.089 160.005 318.759 159.673C318.429 159.34 318.168 158.9 317.974 158.351C317.784 157.803 317.689 157.129 317.689 156.33C317.692 155.597 317.775 154.942 317.94 154.365C318.108 153.785 318.347 153.293 318.657 152.89C318.969 152.486 319.343 152.179 319.778 151.969C320.213 151.756 320.7 151.649 321.24 151.649C321.823 151.649 322.337 151.763 322.783 151.99C323.23 152.215 323.588 152.52 323.858 152.907C324.131 153.293 324.296 153.727 324.352 154.207H322.532C322.461 153.903 322.312 153.664 322.084 153.491C321.857 153.318 321.576 153.231 321.24 153.231C320.672 153.231 320.24 153.478 319.944 153.973C319.651 154.467 319.502 155.14 319.496 155.989H319.556C319.687 155.731 319.863 155.51 320.085 155.329C320.309 155.144 320.564 155.003 320.848 154.906C321.135 154.807 321.438 154.757 321.756 154.757C322.273 154.757 322.734 154.879 323.137 155.124C323.541 155.365 323.859 155.698 324.092 156.122C324.325 156.545 324.442 157.03 324.442 157.575C324.442 158.167 324.304 158.692 324.028 159.153C323.756 159.613 323.373 159.974 322.882 160.236C322.393 160.494 321.824 160.622 321.176 160.619ZM321.168 159.17C321.452 159.17 321.706 159.102 321.931 158.965C322.155 158.829 322.332 158.644 322.459 158.411C322.587 158.178 322.651 157.916 322.651 157.626C322.651 157.337 322.587 157.077 322.459 156.846C322.334 156.616 322.161 156.433 321.939 156.296C321.718 156.16 321.465 156.092 321.18 156.092C320.967 156.092 320.77 156.131 320.588 156.211C320.409 156.291 320.251 156.401 320.115 156.544C319.981 156.686 319.876 156.851 319.799 157.038C319.722 157.223 319.684 157.42 319.684 157.631C319.684 157.912 319.748 158.169 319.876 158.402C320.007 158.635 320.183 158.822 320.405 158.961C320.629 159.1 320.883 159.17 321.168 159.17ZM325.768 162.956V153.951H327.558V155.051H327.639C327.719 154.875 327.834 154.696 327.985 154.514C328.138 154.329 328.337 154.176 328.582 154.054C328.829 153.929 329.136 153.866 329.503 153.866C329.98 153.866 330.421 153.991 330.824 154.241C331.228 154.489 331.55 154.862 331.792 155.363C332.034 155.86 332.154 156.484 332.154 157.234C332.154 157.965 332.036 158.581 331.8 159.085C331.567 159.585 331.249 159.964 330.846 160.223C330.445 160.479 329.996 160.607 329.498 160.607C329.146 160.607 328.846 160.548 328.599 160.432C328.354 160.315 328.154 160.169 327.998 159.993C327.841 159.814 327.722 159.633 327.639 159.451H327.584V162.956H325.768ZM327.546 157.226C327.546 157.615 327.6 157.955 327.708 158.245C327.816 158.535 327.972 158.761 328.177 158.923C328.381 159.082 328.63 159.161 328.923 159.161C329.218 159.161 329.468 159.08 329.673 158.918C329.878 158.753 330.033 158.526 330.138 158.236C330.246 157.943 330.3 157.607 330.3 157.226C330.3 156.848 330.247 156.515 330.142 156.228C330.037 155.941 329.882 155.717 329.677 155.555C329.473 155.392 329.221 155.311 328.923 155.311C328.627 155.311 328.377 155.39 328.172 155.546C327.971 155.702 327.816 155.924 327.708 156.211C327.6 156.498 327.546 156.836 327.546 157.226ZM334.648 153.951L335.851 156.241L337.083 153.951H338.946L337.049 157.226L338.997 160.5H337.142L335.851 158.236L334.58 160.5H332.704L334.648 157.226L332.773 153.951H334.648Z" fill="#0B1530"/>
<mask id="path-6-inside-2_994_3862" fill="white">
<path d="M280 173.102H292V195.102H280V173.102Z"/>
</mask>
<path d="M292 173.102H294V171.102H292V173.102ZM292 195.102V197.102H294V195.102H292ZM280 175.102H292V171.102H280V175.102ZM290 173.102V195.102H294V173.102H290ZM292 193.102H280V197.102H292V193.102Z" fill="#33F7C3" mask="url(#path-6-inside-2_994_3862)"/>
<rect x="302.751" y="173.75" width="43.9061" height="20.7027" rx="3.75176" fill="#33F7C3"/>
<rect x="302.751" y="173.75" width="43.9061" height="20.7027" rx="3.75176" stroke="#33F7C3" stroke-width="1.5007"/>
<path d="M309.911 188.602V187.271L313.019 184.394C313.284 184.138 313.505 183.908 313.684 183.703C313.866 183.498 314.004 183.298 314.098 183.102C314.192 182.903 314.239 182.688 314.239 182.458C314.239 182.202 314.18 181.982 314.064 181.797C313.947 181.61 313.788 181.466 313.586 181.367C313.385 181.264 313.156 181.213 312.9 181.213C312.633 181.213 312.4 181.267 312.201 181.375C312.002 181.483 311.848 181.638 311.74 181.84C311.632 182.042 311.578 182.282 311.578 182.56H309.826C309.826 181.989 309.955 181.493 310.214 181.072C310.473 180.652 310.835 180.326 311.301 180.096C311.767 179.866 312.304 179.751 312.913 179.751C313.538 179.751 314.082 179.862 314.546 180.083C315.012 180.302 315.374 180.606 315.633 180.996C315.891 181.385 316.021 181.831 316.021 182.334C316.021 182.664 315.955 182.99 315.825 183.311C315.697 183.632 315.468 183.989 315.138 184.381C314.809 184.77 314.344 185.238 313.744 185.783L312.469 187.033V187.092H316.136V188.602H309.911ZM320.897 188.793C320.164 188.791 319.533 188.61 319.004 188.252C318.478 187.894 318.073 187.375 317.789 186.696C317.508 186.017 317.368 185.199 317.371 184.244C317.371 183.292 317.512 182.481 317.793 181.81C318.077 181.139 318.482 180.629 319.008 180.279C319.537 179.927 320.166 179.751 320.897 179.751C321.627 179.751 322.256 179.927 322.781 180.279C323.31 180.632 323.716 181.144 324.001 181.814C324.285 182.482 324.426 183.292 324.423 184.244C324.423 185.202 324.281 186.021 323.996 186.7C323.715 187.379 323.311 187.898 322.786 188.256C322.26 188.614 321.63 188.793 320.897 188.793ZM320.897 187.263C321.397 187.263 321.797 187.011 322.095 186.508C322.393 186.005 322.541 185.251 322.538 184.244C322.538 183.582 322.47 183.031 322.334 182.59C322.2 182.15 322.01 181.819 321.762 181.597C321.518 181.375 321.229 181.264 320.897 181.264C320.4 181.264 320.002 181.513 319.703 182.01C319.405 182.508 319.254 183.252 319.251 184.244C319.251 184.915 319.318 185.475 319.452 185.924C319.588 186.37 319.78 186.706 320.027 186.93C320.274 187.152 320.564 187.263 320.897 187.263ZM325.756 191.057V182.053H327.547V183.153H327.628C327.707 182.977 327.822 182.798 327.973 182.616C328.127 182.431 328.326 182.278 328.57 182.155C328.817 182.03 329.124 181.968 329.491 181.968C329.968 181.968 330.409 182.093 330.812 182.343C331.216 182.59 331.539 182.964 331.78 183.464C332.022 183.962 332.143 184.585 332.143 185.336C332.143 186.066 332.025 186.683 331.789 187.186C331.556 187.686 331.237 188.066 330.834 188.324C330.433 188.58 329.984 188.708 329.487 188.708C329.134 188.708 328.834 188.65 328.587 188.533C328.343 188.417 328.142 188.27 327.986 188.094C327.83 187.915 327.71 187.735 327.628 187.553H327.572V191.057H325.756ZM327.534 185.327C327.534 185.717 327.588 186.056 327.696 186.346C327.804 186.636 327.96 186.862 328.165 187.024C328.37 187.183 328.618 187.263 328.911 187.263C329.207 187.263 329.457 187.182 329.661 187.02C329.866 186.855 330.021 186.628 330.126 186.338C330.234 186.045 330.288 185.708 330.288 185.327C330.288 184.949 330.235 184.617 330.13 184.33C330.025 184.043 329.87 183.818 329.666 183.656C329.461 183.494 329.209 183.413 328.911 183.413C328.615 183.413 328.365 183.491 328.161 183.648C327.959 183.804 327.804 184.026 327.696 184.313C327.588 184.6 327.534 184.938 327.534 185.327ZM334.637 182.053L335.839 184.342L337.071 182.053H338.934L337.037 185.327L338.985 188.602H337.131L335.839 186.338L334.568 188.602H332.693L334.637 185.327L332.761 182.053H334.637Z" fill="#0B1530"/>
<mask id="path-10-inside-3_994_3862" fill="white">
<path d="M280 117.102H292V139.102H280V117.102Z"/>
</mask>
<path d="M292 117.102H294V115.102H292V117.102ZM292 139.102V141.102H294V139.102H292ZM280 119.102H292V115.102H280V119.102ZM290 117.102V139.102H294V117.102H290ZM292 137.102H280V141.102H292V137.102Z" fill="#33F7C3" mask="url(#path-10-inside-3_994_3862)"/>
<rect x="302.751" y="117.75" width="43.9061" height="20.7027" rx="3.75176" fill="#33F7C3"/>
<rect x="302.751" y="117.75" width="43.9061" height="20.7027" rx="3.75176" stroke="#33F7C3" stroke-width="1.5007"/>
<path d="M309.911 132.602V131.271L313.019 128.394C313.284 128.138 313.505 127.908 313.684 127.703C313.866 127.498 314.004 127.298 314.098 127.102C314.192 126.903 314.239 126.688 314.239 126.458C314.239 126.202 314.18 125.982 314.064 125.797C313.947 125.61 313.788 125.466 313.586 125.367C313.385 125.264 313.156 125.213 312.9 125.213C312.633 125.213 312.4 125.267 312.201 125.375C312.002 125.483 311.848 125.638 311.74 125.84C311.632 126.042 311.578 126.282 311.578 126.56H309.826C309.826 125.989 309.955 125.493 310.214 125.072C310.473 124.652 310.835 124.326 311.301 124.096C311.767 123.866 312.304 123.751 312.913 123.751C313.538 123.751 314.082 123.862 314.546 124.083C315.012 124.302 315.374 124.606 315.633 124.996C315.891 125.385 316.021 125.831 316.021 126.334C316.021 126.664 315.955 126.99 315.825 127.311C315.697 127.632 315.468 127.989 315.138 128.381C314.809 128.77 314.344 129.238 313.744 129.783L312.469 131.033V131.092H316.136V132.602H309.911ZM320.897 132.793C320.164 132.791 319.533 132.61 319.004 132.252C318.478 131.894 318.073 131.375 317.789 130.696C317.508 130.017 317.368 129.199 317.371 128.244C317.371 127.292 317.512 126.481 317.793 125.81C318.077 125.139 318.482 124.629 319.008 124.279C319.537 123.927 320.166 123.751 320.897 123.751C321.627 123.751 322.256 123.927 322.781 124.279C323.31 124.632 323.716 125.144 324.001 125.814C324.285 126.482 324.426 127.292 324.423 128.244C324.423 129.202 324.281 130.021 323.996 130.7C323.715 131.379 323.311 131.898 322.786 132.256C322.26 132.614 321.63 132.793 320.897 132.793ZM320.897 131.263C321.397 131.263 321.797 131.011 322.095 130.508C322.393 130.005 322.541 129.251 322.538 128.244C322.538 127.582 322.47 127.031 322.334 126.59C322.2 126.15 322.01 125.819 321.762 125.597C321.518 125.375 321.229 125.264 320.897 125.264C320.4 125.264 320.002 125.513 319.703 126.01C319.405 126.508 319.254 127.252 319.251 128.244C319.251 128.915 319.318 129.475 319.452 129.924C319.588 130.37 319.78 130.706 320.027 130.93C320.274 131.152 320.564 131.263 320.897 131.263ZM325.756 135.057V126.053H327.547V127.153H327.628C327.707 126.977 327.822 126.798 327.973 126.616C328.127 126.431 328.326 126.278 328.57 126.155C328.817 126.03 329.124 125.968 329.491 125.968C329.968 125.968 330.409 126.093 330.812 126.343C331.216 126.59 331.539 126.964 331.78 127.464C332.022 127.962 332.143 128.585 332.143 129.336C332.143 130.066 332.025 130.683 331.789 131.186C331.556 131.686 331.237 132.066 330.834 132.324C330.433 132.58 329.984 132.708 329.487 132.708C329.134 132.708 328.834 132.65 328.587 132.533C328.343 132.417 328.142 132.27 327.986 132.094C327.83 131.915 327.71 131.735 327.628 131.553H327.572V135.057H325.756ZM327.534 129.327C327.534 129.717 327.588 130.056 327.696 130.346C327.804 130.636 327.96 130.862 328.165 131.024C328.37 131.183 328.618 131.263 328.911 131.263C329.207 131.263 329.457 131.182 329.661 131.02C329.866 130.855 330.021 130.628 330.126 130.338C330.234 130.045 330.288 129.708 330.288 129.327C330.288 128.949 330.235 128.617 330.13 128.33C330.025 128.043 329.87 127.818 329.666 127.656C329.461 127.494 329.209 127.413 328.911 127.413C328.615 127.413 328.365 127.491 328.161 127.648C327.959 127.804 327.804 128.026 327.696 128.313C327.588 128.6 327.534 128.938 327.534 129.327ZM334.637 126.053L335.839 128.342L337.071 126.053H338.934L337.037 129.327L338.985 132.602H337.131L335.839 130.338L334.568 132.602H332.693L334.637 129.327L332.761 126.053H334.637Z" fill="#0B1530"/>
<path d="M139 157V193" stroke="#33F7C3" stroke-width="2" stroke-linecap="square"/>
<path d="M149 157V193" stroke="#33F7C3" stroke-width="2" stroke-linecap="square"/>
<mask id="path-16-inside-4_994_3862" fill="white">
<path d="M148.704 225L148.704 241L138.704 241L138.704 225L148.704 225Z"/>
</mask>
<path d="M148.704 241L148.704 243L150.704 243L150.704 241L148.704 241ZM138.704 241L136.704 241L136.704 243L138.704 243L138.704 241ZM146.704 225L146.704 241L150.704 241L150.704 225L146.704 225ZM148.704 239L138.704 239L138.704 243L148.704 243L148.704 239ZM140.704 241L140.704 225L136.704 225L136.704 241L140.704 241Z" fill="#33F7C3" mask="url(#path-16-inside-4_994_3862)"/>
<rect x="125.751" y="251.75" width="35.9061" height="20.7027" rx="3.75176" fill="#33F7C3"/>
<rect x="125.751" y="251.75" width="35.9061" height="20.7027" rx="3.75176" stroke="#33F7C3" stroke-width="1.5007"/>
<path d="M136.169 266.721C135.512 266.721 134.928 266.614 134.417 266.401C133.908 266.185 133.509 265.891 133.219 265.519C132.929 265.146 132.784 264.724 132.784 264.252C132.784 263.889 132.866 263.555 133.031 263.251C133.199 262.944 133.426 262.689 133.713 262.487C134 262.283 134.322 262.152 134.677 262.095V262.036C134.211 261.942 133.833 261.716 133.543 261.358C133.253 260.997 133.108 260.577 133.108 260.1C133.108 259.648 133.24 259.246 133.504 258.893C133.769 258.538 134.131 258.26 134.592 258.058C135.055 257.853 135.581 257.751 136.169 257.751C136.757 257.751 137.282 257.853 137.742 258.058C138.205 258.262 138.569 258.542 138.834 258.898C139.098 259.25 139.232 259.651 139.234 260.1C139.232 260.58 139.084 261 138.791 261.358C138.498 261.716 138.123 261.942 137.665 262.036V262.095C138.015 262.152 138.332 262.283 138.616 262.487C138.903 262.689 139.131 262.944 139.298 263.251C139.469 263.555 139.556 263.889 139.558 264.252C139.556 264.724 139.409 265.146 139.119 265.519C138.829 265.891 138.429 266.185 137.917 266.401C137.408 266.614 136.826 266.721 136.169 266.721ZM136.169 265.365C136.462 265.365 136.718 265.313 136.936 265.207C137.155 265.099 137.326 264.952 137.448 264.764C137.573 264.574 137.636 264.355 137.636 264.107C137.636 263.855 137.572 263.631 137.444 263.438C137.316 263.242 137.142 263.089 136.924 262.978C136.705 262.864 136.453 262.807 136.169 262.807C135.888 262.807 135.636 262.864 135.414 262.978C135.193 263.089 135.018 263.242 134.89 263.438C134.765 263.631 134.702 263.855 134.702 264.107C134.702 264.355 134.764 264.574 134.886 264.764C135.008 264.952 135.18 265.099 135.402 265.207C135.623 265.313 135.879 265.365 136.169 265.365ZM136.169 261.464C136.413 261.464 136.631 261.414 136.821 261.315C137.012 261.216 137.161 261.078 137.269 260.901C137.377 260.725 137.431 260.522 137.431 260.292C137.431 260.064 137.377 259.865 137.269 259.695C137.161 259.522 137.013 259.387 136.826 259.29C136.638 259.19 136.419 259.141 136.169 259.141C135.922 259.141 135.703 259.19 135.512 259.29C135.322 259.387 135.173 259.522 135.065 259.695C134.96 259.865 134.907 260.064 134.907 260.292C134.907 260.522 134.961 260.725 135.069 260.901C135.177 261.078 135.326 261.216 135.517 261.315C135.707 261.414 135.925 261.464 136.169 261.464ZM140.866 269.057V260.053H142.657V261.153H142.738C142.817 260.977 142.932 260.798 143.083 260.616C143.237 260.431 143.436 260.278 143.68 260.155C143.927 260.03 144.234 259.968 144.601 259.968C145.078 259.968 145.519 260.093 145.923 260.343C146.326 260.59 146.649 260.964 146.89 261.464C147.132 261.962 147.253 262.585 147.253 263.336C147.253 264.066 147.135 264.683 146.899 265.186C146.666 265.686 146.347 266.066 145.944 266.324C145.543 266.58 145.094 266.708 144.597 266.708C144.244 266.708 143.944 266.65 143.697 266.533C143.453 266.417 143.252 266.27 143.096 266.094C142.94 265.915 142.82 265.735 142.738 265.553H142.682V269.057H140.866ZM142.644 263.327C142.644 263.717 142.698 264.056 142.806 264.346C142.914 264.636 143.07 264.862 143.275 265.024C143.48 265.183 143.728 265.263 144.021 265.263C144.317 265.263 144.567 265.182 144.771 265.02C144.976 264.855 145.131 264.628 145.236 264.338C145.344 264.045 145.398 263.708 145.398 263.327C145.398 262.949 145.346 262.617 145.24 262.33C145.135 262.043 144.98 261.818 144.776 261.656C144.571 261.494 144.32 261.413 144.021 261.413C143.725 261.413 143.475 261.491 143.271 261.648C143.069 261.804 142.914 262.026 142.806 262.313C142.698 262.6 142.644 262.938 142.644 263.327ZM149.747 260.053L150.949 262.342L152.181 260.053H154.044L152.147 263.327L154.095 266.602H152.241L150.949 264.338L149.679 266.602H147.803L149.747 263.327L147.871 260.053H149.747Z" fill="#0B1530"/>
<path d="M78.9998 157V193" stroke="#33F7C3" stroke-width="2" stroke-linecap="square"/>
<path d="M107 157V193" stroke="#33F7C3" stroke-width="2" stroke-linecap="square"/>
<mask id="path-22-inside-5_994_3862" fill="white">
<path d="M107.203 225L107.203 241L79.2034 241L79.2034 225L107.203 225Z"/>
</mask>
<path d="M107.203 241L107.203 243L109.203 243L109.203 241L107.203 241ZM79.2034 241L77.2034 241L77.2034 243L79.2034 243L79.2034 241ZM105.203 225L105.203 241L109.203 241L109.203 225L105.203 225ZM107.203 239L79.2034 239L79.2034 243L107.203 243L107.203 239ZM81.2034 241L81.2034 225L77.2034 225L77.2034 241L81.2034 241Z" fill="#33F7C3" mask="url(#path-22-inside-5_994_3862)"/>
<rect x="71.7504" y="251.75" width="42.9061" height="20.7027" rx="3.75176" fill="#33F7C3"/>
<rect x="71.7504" y="251.75" width="42.9061" height="20.7027" rx="3.75176" stroke="#33F7C3" stroke-width="1.5007"/>
<path d="M78.9111 266.602V265.271L82.0191 262.394C82.2834 262.138 82.5051 261.908 82.6842 261.703C82.8661 261.498 83.0039 261.298 83.0977 261.102C83.1915 260.903 83.2384 260.688 83.2384 260.458C83.2384 260.202 83.1801 259.982 83.0636 259.797C82.9471 259.61 82.7879 259.466 82.5861 259.367C82.3843 259.264 82.1555 259.213 81.8997 259.213C81.6325 259.213 81.3995 259.267 81.2005 259.375C81.0016 259.483 80.8481 259.638 80.7401 259.84C80.6321 260.042 80.5781 260.282 80.5781 260.56H78.8258C78.8258 259.989 78.9551 259.493 79.2138 259.072C79.4724 258.652 79.8348 258.326 80.3009 258.096C80.7671 257.866 81.3043 257.751 81.9125 257.751C82.5378 257.751 83.0821 257.862 83.5454 258.083C84.0115 258.302 84.3739 258.606 84.6325 258.996C84.8912 259.385 85.0205 259.831 85.0205 260.334C85.0205 260.664 84.9551 260.99 84.8244 261.311C84.6965 261.632 84.4677 261.989 84.138 262.381C83.8083 262.77 83.3436 263.238 82.7438 263.783L81.4691 265.033V265.092H85.1356V266.602H78.9111ZM89.7304 266.721C89.0739 266.721 88.4898 266.614 87.9782 266.401C87.4694 266.185 87.0701 265.891 86.7802 265.519C86.4903 265.146 86.3453 264.724 86.3453 264.252C86.3453 263.889 86.4277 263.555 86.5926 263.251C86.7603 262.944 86.9877 262.689 87.2747 262.487C87.5618 262.283 87.883 262.152 88.2383 262.095V262.036C87.7721 261.942 87.3941 261.716 87.1042 261.358C86.8143 260.997 86.6693 260.577 86.6693 260.1C86.6693 259.648 86.8015 259.246 87.0658 258.893C87.3302 258.538 87.6925 258.26 88.153 258.058C88.6163 257.853 89.1421 257.751 89.7304 257.751C90.3188 257.751 90.8432 257.853 91.3036 258.058C91.7669 258.262 92.1307 258.542 92.395 258.898C92.6594 259.25 92.7929 259.651 92.7958 260.1C92.7929 260.58 92.6452 261 92.3524 261.358C92.0597 261.716 91.6845 261.942 91.2269 262.036V262.095C91.5765 262.152 91.8934 262.283 92.1776 262.487C92.4647 262.689 92.692 262.944 92.8597 263.251C93.0303 263.555 93.117 263.889 93.1198 264.252C93.117 264.724 92.9706 265.146 92.6807 265.519C92.3908 265.891 91.99 266.185 91.4784 266.401C90.9697 266.614 90.387 266.721 89.7304 266.721ZM89.7304 265.365C90.0232 265.365 90.279 265.313 90.4978 265.207C90.7167 265.099 90.8872 264.952 91.0094 264.764C91.1345 264.574 91.197 264.355 91.197 264.107C91.197 263.855 91.1331 263.631 91.0052 263.438C90.8773 263.242 90.7039 263.089 90.485 262.978C90.2662 262.864 90.0147 262.807 89.7304 262.807C89.4491 262.807 89.1975 262.864 88.9758 262.978C88.7541 263.089 88.5793 263.242 88.4514 263.438C88.3264 263.631 88.2638 263.855 88.2638 264.107C88.2638 264.355 88.3249 264.574 88.4472 264.764C88.5694 264.952 88.7413 265.099 88.963 265.207C89.1847 265.313 89.4405 265.365 89.7304 265.365ZM89.7304 261.464C89.9749 261.464 90.1923 261.414 90.3827 261.315C90.5732 261.216 90.7224 261.078 90.8304 260.901C90.9384 260.725 90.9924 260.522 90.9924 260.292C90.9924 260.064 90.9384 259.865 90.8304 259.695C90.7224 259.522 90.5746 259.387 90.387 259.29C90.1994 259.19 89.9806 259.141 89.7304 259.141C89.4832 259.141 89.2643 259.19 89.0739 259.29C88.8834 259.387 88.7342 259.522 88.6262 259.695C88.5211 259.865 88.4685 260.064 88.4685 260.292C88.4685 260.522 88.5225 260.725 88.6305 260.901C88.7385 261.078 88.8877 261.216 89.0781 261.315C89.2686 261.414 89.486 261.464 89.7304 261.464ZM94.4276 269.057V260.053H96.2182V261.153H96.2992C96.3788 260.977 96.4939 260.798 96.6445 260.616C96.798 260.431 96.997 260.278 97.2414 260.155C97.4887 260.03 97.7956 259.968 98.1623 259.968C98.6398 259.968 99.0803 260.093 99.4839 260.343C99.8875 260.59 100.21 260.964 100.452 261.464C100.693 261.962 100.814 262.585 100.814 263.336C100.814 264.066 100.696 264.683 100.46 265.186C100.227 265.686 99.9089 266.066 99.5053 266.324C99.1045 266.58 98.6554 266.708 98.158 266.708C97.8056 266.708 97.5057 266.65 97.2585 266.533C97.014 266.417 96.8137 266.27 96.6573 266.094C96.501 265.915 96.3816 265.735 96.2992 265.553H96.2438V269.057H94.4276ZM96.2054 263.327C96.2054 263.717 96.2594 264.056 96.3674 264.346C96.4754 264.636 96.6318 264.862 96.8364 265.024C97.041 265.183 97.2897 265.263 97.5825 265.263C97.8781 265.263 98.1282 265.182 98.3328 265.02C98.5375 264.855 98.6924 264.628 98.7975 264.338C98.9055 264.045 98.9595 263.708 98.9595 263.327C98.9595 262.949 98.907 262.617 98.8018 262.33C98.6966 262.043 98.5417 261.818 98.3371 261.656C98.1325 261.494 97.8809 261.413 97.5825 261.413C97.2869 261.413 97.0368 261.491 96.8321 261.648C96.6303 261.804 96.4754 262.026 96.3674 262.313C96.2594 262.6 96.2054 262.938 96.2054 263.327ZM103.308 260.053L104.51 262.342L105.743 260.053H107.606L105.708 263.327L107.657 266.602H105.802L104.51 264.338L103.24 266.602H101.364L103.308 263.327L101.432 260.053H103.308Z" fill="#0B1530"/>
<path d="M139 156.203L139 120.203" stroke="#33F7C3" stroke-width="2" stroke-linecap="square"/>
<path d="M76 156.203L76 120.203" stroke="#33F7C3" stroke-width="2" stroke-linecap="square"/>
<mask id="path-28-inside-6_994_3862" fill="white">
<path d="M75.4067 88.2031L75.4067 72.2031L138.407 72.2031L138.407 88.2031L75.4067 88.2031Z"/>
</mask>
<path d="M75.4067 72.2031L75.4067 70.2031L73.4067 70.2031L73.4067 72.2031L75.4067 72.2031ZM138.407 72.2031L140.407 72.2031L140.407 70.2031L138.407 70.2031L138.407 72.2031ZM77.4067 88.2031L77.4067 72.2031L73.4067 72.2031L73.4067 88.2031L77.4067 88.2031ZM75.4067 74.2031L138.407 74.2031L138.407 70.2031L75.4067 70.2031L75.4067 74.2031ZM136.407 72.2031L136.407 88.2031L140.407 88.2031L140.407 72.2031L136.407 72.2031Z" fill="#33F7C3" mask="url(#path-28-inside-6_994_3862)"/>
<rect x="84.9537" y="40.7504" width="43.9061" height="20.7027" rx="3.75176" fill="#33F7C3"/>
<rect x="84.9537" y="40.7504" width="43.9061" height="20.7027" rx="3.75176" stroke="#33F7C3" stroke-width="1.5007"/>
<path d="M95.4655 55.7209C95.0164 55.7181 94.5829 55.6428 94.1651 55.495C93.7502 55.3472 93.3778 55.107 93.0481 54.7745C92.7184 54.4419 92.4569 54.0014 92.2637 53.4528C92.0732 52.9043 91.978 52.2307 91.978 51.432C91.9809 50.6987 92.0647 50.0436 92.2296 49.4666C92.3973 48.8868 92.636 48.3951 92.9458 47.9915C93.2585 47.5879 93.6322 47.2809 94.0671 47.0706C94.5019 46.8574 94.9894 46.7508 95.5294 46.7508C96.1121 46.7508 96.6265 46.8645 97.0727 47.0919C97.519 47.3164 97.8771 47.622 98.1471 48.0085C98.42 48.3951 98.5848 48.8285 98.6417 49.3088L96.8212 49.3088C96.7502 49.0047 96.6009 48.766 96.3736 48.5926C96.1462 48.4192 95.8648 48.3325 95.5294 48.3325C94.961 48.3325 94.5289 48.5798 94.2333 49.0744C93.9406 49.5689 93.7914 50.2411 93.7857 51.0909L93.8454 51.0909C93.9761 50.8323 94.1523 50.612 94.374 50.4301C94.5986 50.2454 94.853 50.1047 95.1372 50.008C95.4242 49.9086 95.7269 49.8588 96.0453 49.8588C96.5626 49.8588 97.023 49.981 97.4266 50.2255C97.8302 50.4671 98.1485 50.7996 98.3816 51.2231C98.6147 51.6466 98.7312 52.1312 98.7312 52.6769C98.7312 53.2681 98.5933 53.7939 98.3176 54.2543C98.0448 54.7148 97.6625 55.0757 97.1708 55.3372C96.6819 55.5959 96.1135 55.7238 95.4655 55.7209ZM95.4569 54.2714C95.7412 54.2714 95.9955 54.2032 96.2201 54.0668C96.4446 53.9303 96.6208 53.7456 96.7487 53.5125C96.8766 53.2795 96.9406 53.018 96.9406 52.7281C96.9406 52.4381 96.8766 52.1781 96.7487 51.9479C96.6237 51.7176 96.4503 51.5343 96.2286 51.3979C96.0069 51.2615 95.7539 51.1932 95.4697 51.1932C95.2566 51.1932 95.059 51.233 94.8771 51.3126C94.6981 51.3922 94.5403 51.5031 94.4039 51.6452C94.2703 51.7873 94.1651 51.9521 94.0884 52.1397C94.0117 52.3245 93.9733 52.522 93.9733 52.7323C93.9733 53.0137 94.0372 53.2709 94.1651 53.504C94.2959 53.7371 94.4721 53.9232 94.6938 54.0625C94.9183 54.2018 95.1727 54.2714 95.4569 54.2714ZM99.9079 54.0668L99.9079 52.6129L103.553 46.8702L104.806 46.8702L104.806 48.8825L104.065 48.8825L101.767 52.5192L101.767 52.5874L106.947 52.5874L106.947 54.0668L99.9079 54.0668ZM104.099 55.6016L104.099 53.6234L104.133 52.9796L104.133 46.8702L105.864 46.8702L105.864 55.6016L104.099 55.6016ZM108.194 58.0573L108.194 49.053L109.984 49.053L109.984 50.153L110.065 50.153C110.145 49.9768 110.26 49.7977 110.411 49.6158C110.564 49.4311 110.763 49.2776 111.008 49.1554C111.255 49.0303 111.562 48.9678 111.928 48.9678C112.406 48.9678 112.846 49.0928 113.25 49.343C113.654 49.5902 113.976 49.964 114.218 50.4642C114.459 50.9616 114.58 51.5855 114.58 52.3358C114.58 53.0663 114.462 53.6831 114.226 54.1861C113.993 54.6864 113.675 55.0658 113.271 55.3244C112.871 55.5802 112.422 55.7082 111.924 55.7082C111.572 55.7082 111.272 55.6499 111.025 55.5334C110.78 55.4168 110.58 55.2704 110.423 55.0942C110.267 54.9152 110.148 54.7347 110.065 54.5528L110.01 54.5528L110.01 58.0573L108.194 58.0573ZM109.972 52.3273C109.972 52.7167 110.026 53.0563 110.134 53.3462C110.242 53.6362 110.398 53.8621 110.603 54.0241C110.807 54.1833 111.056 54.2629 111.349 54.2629C111.644 54.2629 111.894 54.1819 112.099 54.0199C112.304 53.855 112.459 53.6276 112.564 53.3377C112.672 53.045 112.726 52.7082 112.726 52.3273C112.726 51.9493 112.673 51.6167 112.568 51.3297C112.463 51.0426 112.308 50.8181 112.103 50.6561C111.899 50.4941 111.647 50.4131 111.349 50.4131C111.053 50.4131 110.803 50.4912 110.598 50.6475C110.396 50.8039 110.242 51.0256 110.134 51.3126C110.026 51.5997 109.972 51.9379 109.972 52.3273ZM117.074 49.053L118.277 51.3425L119.509 49.053L121.372 49.053L119.475 52.3273L121.423 55.6016L119.568 55.6016L118.277 53.3377L117.006 55.6016L115.13 55.6016L117.074 52.3273L115.198 49.053L117.074 49.053Z" fill="#0B1530"/>
<path d="M76.7202 98.8592H86.5202V112.199H85.0402V100.259H78.2002V112.199H76.7202V98.8592ZM91.0424 111.039V116.799H89.6024V103.899H91.0424V105.059C91.7758 104.153 92.7224 103.699 93.8824 103.699C95.1224 103.699 96.1024 104.139 96.8224 105.019C97.5558 105.886 97.9224 106.913 97.9224 108.099C97.9224 109.299 97.5624 110.326 96.8424 111.179C96.1224 112.019 95.1558 112.439 93.9424 112.439C92.7291 112.439 91.7624 111.973 91.0424 111.039ZM93.7424 111.159C94.5558 111.159 95.2091 110.866 95.7024 110.279C96.1958 109.679 96.4424 108.953 96.4424 108.099C96.4424 107.139 96.1691 106.379 95.6224 105.819C95.0758 105.259 94.4424 104.979 93.7224 104.979C93.0024 104.979 92.3624 105.259 91.8024 105.819C91.2424 106.379 90.9624 107.133 90.9624 108.079C90.9624 108.946 91.2158 109.679 91.7224 110.279C92.2424 110.866 92.9158 111.159 93.7424 111.159ZM106.29 109.419L107.49 110.079C107.21 110.613 106.87 111.059 106.47 111.419C105.71 112.099 104.79 112.439 103.71 112.439C102.59 112.439 101.623 112.079 100.81 111.359C100.01 110.626 99.6098 109.539 99.6098 108.099C99.6098 106.833 99.9698 105.786 100.69 104.959C101.423 104.119 102.403 103.699 103.63 103.699C105.016 103.699 106.063 104.206 106.77 105.219C107.33 106.019 107.59 107.059 107.55 108.339H101.09C101.103 109.179 101.363 109.859 101.87 110.379C102.376 110.899 102.996 111.159 103.73 111.159C104.383 111.159 104.95 110.959 105.43 110.559C105.803 110.239 106.09 109.859 106.29 109.419ZM101.19 107.139H106.07C105.95 106.486 105.663 105.966 105.21 105.579C104.77 105.179 104.243 104.979 103.63 104.979C103.03 104.979 102.496 105.186 102.03 105.599C101.576 105.999 101.296 106.513 101.19 107.139ZM110.359 103.899H116.199V110.879H117.439V114.399H116.119V112.199H109.799V114.399H108.479V110.879C109.172 110.866 109.685 110.506 110.019 109.799C110.245 109.333 110.359 108.599 110.359 107.599V103.899ZM114.759 110.879V105.219H111.799V108.339C111.799 109.446 111.465 110.293 110.799 110.879H114.759ZM118.958 112.199V103.899H120.398V110.879H123.598V103.899H125.038V110.879H128.238V103.899H129.678V112.199H118.958ZM138.555 109.419L139.755 110.079C139.475 110.613 139.135 111.059 138.735 111.419C137.975 112.099 137.055 112.439 135.975 112.439C134.855 112.439 133.889 112.079 133.075 111.359C132.275 110.626 131.875 109.539 131.875 108.099C131.875 106.833 132.235 105.786 132.955 104.959C133.689 104.119 134.669 103.699 135.895 103.699C137.282 103.699 138.329 104.206 139.035 105.219C139.595 106.019 139.855 107.059 139.815 108.339H133.355C133.369 109.179 133.629 109.859 134.135 110.379C134.642 110.899 135.262 111.159 135.995 111.159C136.649 111.159 137.215 110.959 137.695 110.559C138.069 110.239 138.355 109.859 138.555 109.419ZM133.455 107.139H138.335C138.215 106.486 137.929 105.966 137.475 105.579C137.035 105.179 136.509 104.979 135.895 104.979C135.295 104.979 134.762 105.186 134.295 105.599C133.842 105.999 133.562 106.513 133.455 107.139ZM148.524 104.499V106.219C147.871 105.393 147.004 104.979 145.924 104.979C145.111 104.979 144.418 105.259 143.844 105.819C143.271 106.366 142.984 107.119 142.984 108.079C142.984 109.039 143.271 109.793 143.844 110.339C144.418 110.886 145.104 111.159 145.904 111.159C146.971 111.159 147.864 110.726 148.584 109.859V111.579C147.798 112.153 146.918 112.439 145.944 112.439C144.651 112.439 143.584 112.033 142.744 111.219C141.918 110.393 141.504 109.353 141.504 108.099C141.504 106.833 141.924 105.786 142.764 104.959C143.604 104.119 144.664 103.699 145.944 103.699C146.904 103.699 147.764 103.966 148.524 104.499ZM156.234 105.219H153.634V112.199H152.194V105.219H149.594V103.899H156.234V105.219ZM157.747 103.899H160.887C161.647 103.899 162.227 104.059 162.627 104.379C163.107 104.766 163.347 105.286 163.347 105.939C163.347 106.659 163.047 107.213 162.447 107.599C162.86 107.706 163.207 107.893 163.487 108.159C163.927 108.586 164.147 109.119 164.147 109.759C164.147 110.559 163.86 111.186 163.287 111.639C162.794 112.013 162.14 112.199 161.327 112.199H157.747V103.899ZM159.187 107.279H160.707C161.094 107.279 161.4 107.199 161.627 107.039C161.894 106.839 162.027 106.553 162.027 106.179C162.027 105.846 161.894 105.579 161.627 105.379C161.427 105.246 161.04 105.179 160.467 105.179H159.187V107.279ZM159.187 110.919H160.967C161.58 110.919 162.014 110.826 162.267 110.639C162.587 110.399 162.747 110.093 162.747 109.719C162.747 109.319 162.607 109.006 162.327 108.779C162.074 108.579 161.64 108.479 161.027 108.479H159.187V110.919ZM166.321 116.799L168.961 111.419L165.141 103.899H166.781L169.721 109.839L172.421 103.899H174.021L167.921 116.799H166.321ZM176.98 107.299H178.48C178.613 106.366 178.987 105.579 179.6 104.939C180.387 104.113 181.433 103.699 182.74 103.699C184.02 103.699 185.073 104.113 185.9 104.939C186.727 105.766 187.14 106.813 187.14 108.079C187.14 109.333 186.72 110.373 185.88 111.199C185.053 112.026 184.007 112.439 182.74 112.439C181.287 112.439 180.147 111.919 179.32 110.879C178.787 110.213 178.48 109.459 178.4 108.619H176.98V112.199H175.54V103.899H176.98V107.299ZM182.74 104.979C181.94 104.979 181.26 105.259 180.7 105.819C180.153 106.366 179.88 107.119 179.88 108.079C179.88 109.053 180.16 109.813 180.72 110.359C181.28 110.893 181.953 111.159 182.74 111.159C183.54 111.159 184.227 110.886 184.8 110.339C185.373 109.793 185.66 109.039 185.66 108.079C185.66 107.119 185.373 106.366 184.8 105.819C184.24 105.259 183.553 104.979 182.74 104.979ZM189.349 112.199V103.899H190.789V110.879H193.989V103.899H195.429V110.879H198.629V103.899H200.069V110.879H201.429V114.399H200.109V112.199H189.349ZM202.942 103.899H204.382V109.379L210.062 103.259V112.199H208.622V106.659L202.942 112.779V103.899ZM212.786 103.899H214.226V109.379L219.906 103.259V112.199H218.466V106.659L212.786 112.779V103.899ZM213.506 100.319L214.706 99.8592C214.946 100.659 215.513 101.059 216.406 101.059C217.299 101.059 217.866 100.659 218.106 99.8592L219.306 100.319C219.093 100.919 218.726 101.393 218.206 101.739C217.699 102.086 217.099 102.259 216.406 102.259C215.713 102.259 215.106 102.086 214.586 101.739C214.079 101.393 213.719 100.919 213.506 100.319ZM232.738 105.219H230.138V112.199H228.698V105.219H226.098V103.899H232.738V105.219ZM240.216 109.419L241.416 110.079C241.136 110.613 240.796 111.059 240.396 111.419C239.636 112.099 238.716 112.439 237.636 112.439C236.516 112.439 235.549 112.079 234.736 111.359C233.936 110.626 233.536 109.539 233.536 108.099C233.536 106.833 233.896 105.786 234.616 104.959C235.349 104.119 236.329 103.699 237.556 103.699C238.942 103.699 239.989 104.206 240.696 105.219C241.256 106.019 241.516 107.059 241.476 108.339H235.016C235.029 109.179 235.289 109.859 235.796 110.379C236.302 110.899 236.922 111.159 237.656 111.159C238.309 111.159 238.876 110.959 239.356 110.559C239.729 110.239 240.016 109.859 240.216 109.419ZM235.116 107.139H239.996C239.876 106.486 239.589 105.966 239.136 105.579C238.696 105.179 238.169 104.979 237.556 104.979C236.956 104.979 236.422 105.186 235.956 105.599C235.502 105.999 235.222 106.513 235.116 107.139ZM243.684 103.899H245.124V107.299L248.484 103.899H250.244L246.644 107.599L250.684 112.199H248.804L245.564 108.559L245.124 108.979V112.199H243.684V103.899ZM258.192 104.499V106.219C257.539 105.393 256.672 104.979 255.592 104.979C254.779 104.979 254.086 105.259 253.512 105.819C252.939 106.366 252.652 107.119 252.652 108.079C252.652 109.039 252.939 109.793 253.512 110.339C254.086 110.886 254.772 111.159 255.572 111.159C256.639 111.159 257.532 110.726 258.252 109.859V111.579C257.466 112.153 256.586 112.439 255.612 112.439C254.319 112.439 253.252 112.033 252.412 111.219C251.586 110.393 251.172 109.353 251.172 108.099C251.172 106.833 251.592 105.786 252.432 104.959C253.272 104.119 254.332 103.699 255.612 103.699C256.572 103.699 257.432 103.966 258.192 104.499ZM265.902 105.219H263.302V112.199H261.862V105.219H259.262V103.899H265.902V105.219ZM267.029 112.099C266.829 111.899 266.729 111.666 266.729 111.399C266.729 111.133 266.829 110.899 267.029 110.699C267.229 110.499 267.463 110.399 267.729 110.399C267.996 110.399 268.229 110.499 268.429 110.699C268.629 110.899 268.729 111.133 268.729 111.399C268.729 111.666 268.629 111.899 268.429 112.099C268.229 112.299 267.996 112.399 267.729 112.399C267.463 112.399 267.229 112.299 267.029 112.099Z" fill="#B6B9C1"/>
<rect x="76.0002" y="138.199" width="61.9976" height="34" rx="17" fill="white"/>
<rect x="76.0002" y="138.199" width="61.9976" height="34" rx="17" stroke="#457BF8" stroke-width="2"/>
<rect x="79.0002" y="141.199" width="27.9976" height="28" rx="13.9988" fill="#457BF8"/>
<path d="M150.198 148.859V154.279H157.038V148.859H158.518V162.199H157.038V155.679H150.198V162.199H148.718V148.859H150.198ZM167.96 155.079V153.899H169.4V162.199H167.96V161.039C167.24 161.973 166.293 162.439 165.12 162.439C164 162.439 163.047 162.053 162.26 161.279C161.473 160.506 161.08 159.426 161.08 158.039C161.08 156.679 161.467 155.619 162.24 154.859C163.027 154.086 163.987 153.699 165.12 153.699C166.32 153.699 167.267 154.159 167.96 155.079ZM165.28 154.979C164.52 154.979 163.873 155.253 163.34 155.799C162.82 156.333 162.56 157.079 162.56 158.039C162.56 158.959 162.8 159.713 163.28 160.299C163.773 160.873 164.44 161.159 165.28 161.159C166.12 161.159 166.787 160.859 167.28 160.259C167.787 159.659 168.04 158.926 168.04 158.059C168.04 157.073 167.76 156.313 167.2 155.779C166.64 155.246 166 154.979 165.28 154.979ZM173.207 156.019L172.207 155.199C172.527 154.733 172.881 154.386 173.267 154.159C173.787 153.853 174.394 153.699 175.087 153.699C175.927 153.699 176.581 153.893 177.047 154.279C177.527 154.693 177.767 155.219 177.767 155.859C177.767 156.633 177.454 157.213 176.827 157.599C177.227 157.693 177.547 157.873 177.787 158.139C178.174 158.553 178.367 159.059 178.367 159.659C178.367 160.553 178.007 161.266 177.287 161.799C176.701 162.226 175.914 162.439 174.927 162.439C174.047 162.439 173.307 162.206 172.707 161.739C172.254 161.406 171.887 160.933 171.607 160.319L172.847 159.799C172.994 160.173 173.241 160.486 173.587 160.739C173.961 161.019 174.414 161.159 174.947 161.159C175.574 161.159 176.041 161.053 176.347 160.839C176.734 160.586 176.927 160.199 176.927 159.679C176.927 159.253 176.761 158.933 176.427 158.719C176.147 158.533 175.694 158.439 175.067 158.439H174.227V157.119H174.927C175.434 157.119 175.794 157.046 176.007 156.899C176.301 156.713 176.447 156.459 176.447 156.139C176.447 155.766 176.327 155.479 176.087 155.279C175.861 155.079 175.507 154.979 175.027 154.979C174.614 154.979 174.234 155.086 173.887 155.299C173.594 155.486 173.367 155.726 173.207 156.019ZM180.565 153.899H183.705C184.465 153.899 185.045 154.059 185.445 154.379C185.925 154.766 186.165 155.286 186.165 155.939C186.165 156.659 185.865 157.213 185.265 157.599C185.678 157.706 186.025 157.893 186.305 158.159C186.745 158.586 186.965 159.119 186.965 159.759C186.965 160.559 186.678 161.186 186.105 161.639C185.612 162.013 184.958 162.199 184.145 162.199H180.565V153.899ZM182.005 157.279H183.525C183.912 157.279 184.218 157.199 184.445 157.039C184.712 156.839 184.845 156.553 184.845 156.179C184.845 155.846 184.712 155.579 184.445 155.379C184.245 155.246 183.858 155.179 183.285 155.179H182.005V157.279ZM182.005 160.919H183.785C184.398 160.919 184.832 160.826 185.085 160.639C185.405 160.399 185.565 160.093 185.565 159.719C185.565 159.319 185.425 159.006 185.145 158.779C184.892 158.579 184.458 158.479 183.845 158.479H182.005V160.919ZM195.519 155.079V153.899H196.959V162.199H195.519V161.039C194.799 161.973 193.852 162.439 192.679 162.439C191.559 162.439 190.605 162.053 189.819 161.279C189.032 160.506 188.639 159.426 188.639 158.039C188.639 156.679 189.025 155.619 189.799 154.859C190.585 154.086 191.545 153.699 192.679 153.699C193.879 153.699 194.825 154.159 195.519 155.079ZM192.839 154.979C192.079 154.979 191.432 155.253 190.899 155.799C190.379 156.333 190.119 157.079 190.119 158.039C190.119 158.959 190.359 159.713 190.839 160.299C191.332 160.873 191.999 161.159 192.839 161.159C193.679 161.159 194.345 160.859 194.839 160.259C195.345 159.659 195.599 158.926 195.599 158.059C195.599 157.073 195.319 156.313 194.759 155.779C194.199 155.246 193.559 154.979 192.839 154.979ZM199.686 162.199V153.899H201.126V157.299H205.046V153.899H206.486V162.199H205.046V158.619H201.126V162.199H199.686ZM209.198 153.899H210.638V159.379L216.318 153.259V162.199H214.878V156.659L209.198 162.779V153.899ZM225.201 159.419L226.401 160.079C226.121 160.613 225.781 161.059 225.381 161.419C224.621 162.099 223.701 162.439 222.621 162.439C221.501 162.439 220.535 162.079 219.721 161.359C218.921 160.626 218.521 159.539 218.521 158.099C218.521 156.833 218.881 155.786 219.601 154.959C220.335 154.119 221.315 153.699 222.541 153.699C223.928 153.699 224.975 154.206 225.681 155.219C226.241 156.019 226.501 157.059 226.461 158.339H220.001C220.015 159.179 220.275 159.859 220.781 160.379C221.288 160.899 221.908 161.159 222.641 161.159C223.295 161.159 223.861 160.959 224.341 160.559C224.715 160.239 225.001 159.859 225.201 159.419ZM220.101 157.139H224.981C224.861 156.486 224.575 155.966 224.121 155.579C223.681 155.179 223.155 154.979 222.541 154.979C221.941 154.979 221.408 155.186 220.941 155.599C220.488 155.999 220.208 156.513 220.101 157.139Z" fill="#0B1530"/>
<path d="M76.7202 198.859H86.5202V212.199H85.0402V200.259H78.2002V212.199H76.7202V198.859ZM96.6224 211.199C95.7958 212.026 94.7491 212.439 93.4824 212.439C92.2158 212.439 91.1624 212.026 90.3224 211.199C89.4958 210.373 89.0824 209.333 89.0824 208.079C89.0824 206.813 89.4958 205.766 90.3224 204.939C91.1624 204.113 92.2158 203.699 93.4824 203.699C94.7491 203.699 95.7958 204.113 96.6224 204.939C97.4624 205.766 97.8824 206.813 97.8824 208.079C97.8824 209.333 97.4624 210.373 96.6224 211.199ZM95.5424 205.799C94.9824 205.253 94.2958 204.979 93.4824 204.979C92.6691 204.979 91.9758 205.259 91.4024 205.819C90.8424 206.366 90.5624 207.119 90.5624 208.079C90.5624 209.039 90.8491 209.793 91.4224 210.339C91.9958 210.886 92.6824 211.159 93.4824 211.159C94.2824 211.159 94.9691 210.886 95.5424 210.339C96.1158 209.793 96.4024 209.039 96.4024 208.079C96.4024 207.106 96.1158 206.346 95.5424 205.799ZM106.591 204.499V206.219C105.937 205.393 105.071 204.979 103.991 204.979C103.177 204.979 102.484 205.259 101.911 205.819C101.337 206.366 101.051 207.119 101.051 208.079C101.051 209.039 101.337 209.793 101.911 210.339C102.484 210.886 103.171 211.159 103.971 211.159C105.037 211.159 105.931 210.726 106.651 209.859V211.579C105.864 212.153 104.984 212.439 104.011 212.439C102.717 212.439 101.651 212.033 100.811 211.219C99.984 210.393 99.5707 209.353 99.5707 208.099C99.5707 206.833 99.9907 205.786 100.831 204.959C101.671 204.119 102.731 203.699 104.011 203.699C104.971 203.699 105.831 203.966 106.591 204.499ZM115.14 203.899V212.199H113.7V205.219H110.74V208.959C110.74 210.039 110.527 210.839 110.1 211.359C109.62 211.946 108.954 212.239 108.1 212.239C107.994 212.239 107.847 212.226 107.66 212.199V210.879C107.794 210.906 107.9 210.919 107.98 210.919C108.447 210.919 108.794 210.739 109.02 210.379C109.207 210.086 109.3 209.613 109.3 208.959V203.899H115.14ZM124.024 209.419L125.224 210.079C124.944 210.613 124.604 211.059 124.204 211.419C123.444 212.099 122.524 212.439 121.444 212.439C120.324 212.439 119.357 212.079 118.544 211.359C117.744 210.626 117.344 209.539 117.344 208.099C117.344 206.833 117.704 205.786 118.424 204.959C119.157 204.119 120.137 203.699 121.364 203.699C122.751 203.699 123.797 204.206 124.504 205.219C125.064 206.019 125.324 207.059 125.284 208.339H118.824C118.837 209.179 119.097 209.859 119.604 210.379C120.111 210.899 120.731 211.159 121.464 211.159C122.117 211.159 122.684 210.959 123.164 210.559C123.537 210.239 123.824 209.859 124.024 209.419ZM118.924 207.139H123.804C123.684 206.486 123.397 205.966 122.944 205.579C122.504 205.179 121.977 204.979 121.364 204.979C120.764 204.979 120.231 205.186 119.764 205.599C119.311 205.999 119.031 206.513 118.924 207.139ZM128.093 203.899H133.933V210.879H135.173V214.399H133.853V212.199H127.533V214.399H126.213V210.879C126.906 210.866 127.42 210.506 127.753 209.799C127.98 209.333 128.093 208.599 128.093 207.599V203.899ZM132.493 210.879V205.219H129.533V208.339C129.533 209.446 129.2 210.293 128.533 210.879H132.493ZM136.672 216.799L139.312 211.419L135.492 203.899H137.132L140.072 209.839L142.772 203.899H144.372L138.272 216.799H136.672ZM147.331 207.299H148.831C148.965 206.366 149.338 205.579 149.951 204.939C150.738 204.113 151.785 203.699 153.091 203.699C154.371 203.699 155.425 204.113 156.251 204.939C157.078 205.766 157.491 206.813 157.491 208.079C157.491 209.333 157.071 210.373 156.231 211.199C155.405 212.026 154.358 212.439 153.091 212.439C151.638 212.439 150.498 211.919 149.671 210.879C149.138 210.213 148.831 209.459 148.751 208.619H147.331V212.199H145.891V203.899H147.331V207.299ZM153.091 204.979C152.291 204.979 151.611 205.259 151.051 205.819C150.505 206.366 150.231 207.119 150.231 208.079C150.231 209.053 150.511 209.813 151.071 210.359C151.631 210.893 152.305 211.159 153.091 211.159C153.891 211.159 154.578 210.886 155.151 210.339C155.725 209.793 156.011 209.039 156.011 208.079C156.011 207.119 155.725 206.366 155.151 205.819C154.591 205.259 153.905 204.979 153.091 204.979ZM159.7 212.199V203.899H161.14V210.879H164.34V203.899H165.78V210.879H168.98V203.899H170.42V210.879H171.78V214.399H170.46V212.199H159.7ZM173.294 203.899H174.734V209.379L180.414 203.259V212.199H178.974V206.659L173.294 212.779V203.899ZM183.138 203.899H184.578V209.379L190.258 203.259V212.199H188.818V206.659L183.138 212.779V203.899ZM183.858 200.319L185.058 199.859C185.298 200.659 185.864 201.059 186.758 201.059C187.651 201.059 188.218 200.659 188.458 199.859L189.658 200.319C189.444 200.919 189.078 201.393 188.558 201.739C188.051 202.086 187.451 202.259 186.758 202.259C186.064 202.259 185.458 202.086 184.938 201.739C184.431 201.393 184.071 200.919 183.858 200.319ZM203.089 205.219H200.489V212.199H199.049V205.219H196.449V203.899H203.089V205.219ZM210.567 209.419L211.767 210.079C211.487 210.613 211.147 211.059 210.747 211.419C209.987 212.099 209.067 212.439 207.987 212.439C206.867 212.439 205.9 212.079 205.087 211.359C204.287 210.626 203.887 209.539 203.887 208.099C203.887 206.833 204.247 205.786 204.967 204.959C205.7 204.119 206.68 203.699 207.907 203.699C209.294 203.699 210.34 204.206 211.047 205.219C211.607 206.019 211.867 207.059 211.827 208.339H205.367C205.38 209.179 205.64 209.859 206.147 210.379C206.654 210.899 207.274 211.159 208.007 211.159C208.66 211.159 209.227 210.959 209.707 210.559C210.08 210.239 210.367 209.859 210.567 209.419ZM205.467 207.139H210.347C210.227 206.486 209.94 205.966 209.487 205.579C209.047 205.179 208.52 204.979 207.907 204.979C207.307 204.979 206.774 205.186 206.307 205.599C205.854 205.999 205.574 206.513 205.467 207.139ZM214.036 203.899H215.476V207.299L218.836 203.899H220.596L216.996 207.599L221.036 212.199H219.156L215.916 208.559L215.476 208.979V212.199H214.036V203.899ZM228.544 204.499V206.219C227.891 205.393 227.024 204.979 225.944 204.979C225.131 204.979 224.437 205.259 223.864 205.819C223.291 206.366 223.004 207.119 223.004 208.079C223.004 209.039 223.291 209.793 223.864 210.339C224.437 210.886 225.124 211.159 225.924 211.159C226.991 211.159 227.884 210.726 228.604 209.859V211.579C227.817 212.153 226.937 212.439 225.964 212.439C224.671 212.439 223.604 212.033 222.764 211.219C221.937 210.393 221.524 209.353 221.524 208.099C221.524 206.833 221.944 205.786 222.784 204.959C223.624 204.119 224.684 203.699 225.964 203.699C226.924 203.699 227.784 203.966 228.544 204.499ZM236.253 205.219H233.653V212.199H232.213V205.219H229.613V203.899H236.253V205.219ZM237.381 212.099C237.181 211.899 237.081 211.666 237.081 211.399C237.081 211.133 237.181 210.899 237.381 210.699C237.581 210.499 237.814 210.399 238.081 210.399C238.348 210.399 238.581 210.499 238.781 210.699C238.981 210.899 239.081 211.133 239.081 211.399C239.081 211.666 238.981 211.899 238.781 212.099C238.581 212.299 238.348 212.399 238.081 212.399C237.814 212.399 237.581 212.299 237.381 212.099Z" fill="#B6B9C1"/>
</svg>
