<svg width="768" height="280" viewBox="0 0 768 280" fill="none" xmlns="http://www.w3.org/2000/svg">
<path d="M0 0H744C757.255 0 768 10.7452 768 24V256C768 269.255 757.255 280 744 280H24C10.7452 280 0 269.255 0 256V0Z" fill="#F5F6F8"/>
<rect x="305" y="113" width="61.9976" height="34" rx="17" fill="white"/>
<rect x="305" y="113" width="61.9976" height="34" rx="17" stroke="#457BF8" stroke-width="2"/>
<rect x="308" y="116" width="27.9976" height="28" rx="13.9988" fill="#457BF8"/>
<path d="M379.198 123.66V129.08H386.038V123.66H387.518V137H386.038V130.48H379.198V137H377.718V123.66H379.198ZM396.96 129.88V128.7H398.4V137H396.96V135.84C396.24 136.773 395.293 137.24 394.12 137.24C393 137.24 392.046 136.853 391.26 136.08C390.473 135.307 390.08 134.227 390.08 132.84C390.08 131.48 390.466 130.42 391.24 129.66C392.026 128.887 392.986 128.5 394.12 128.5C395.32 128.5 396.266 128.96 396.96 129.88ZM394.28 129.78C393.52 129.78 392.873 130.053 392.34 130.6C391.82 131.133 391.56 131.88 391.56 132.84C391.56 133.76 391.8 134.513 392.28 135.1C392.773 135.673 393.44 135.96 394.28 135.96C395.12 135.96 395.786 135.66 396.28 135.06C396.786 134.46 397.04 133.727 397.04 132.86C397.04 131.873 396.76 131.113 396.2 130.58C395.64 130.047 395 129.78 394.28 129.78ZM402.207 130.82L401.207 130C401.527 129.533 401.88 129.187 402.267 128.96C402.787 128.653 403.394 128.5 404.087 128.5C404.927 128.5 405.58 128.693 406.047 129.08C406.527 129.493 406.767 130.02 406.767 130.66C406.767 131.433 406.454 132.013 405.827 132.4C406.227 132.493 406.547 132.673 406.787 132.94C407.174 133.353 407.367 133.86 407.367 134.46C407.367 135.353 407.007 136.067 406.287 136.6C405.7 137.027 404.914 137.24 403.927 137.24C403.047 137.24 402.307 137.007 401.707 136.54C401.254 136.207 400.887 135.733 400.607 135.12L401.847 134.6C401.994 134.973 402.24 135.287 402.587 135.54C402.96 135.82 403.414 135.96 403.947 135.96C404.574 135.96 405.04 135.853 405.347 135.64C405.734 135.387 405.927 135 405.927 134.48C405.927 134.053 405.76 133.733 405.427 133.52C405.147 133.333 404.694 133.24 404.067 133.24H403.227V131.92H403.927C404.434 131.92 404.794 131.847 405.007 131.7C405.3 131.513 405.447 131.26 405.447 130.94C405.447 130.567 405.327 130.28 405.087 130.08C404.86 129.88 404.507 129.78 404.027 129.78C403.614 129.78 403.234 129.887 402.887 130.1C402.594 130.287 402.367 130.527 402.207 130.82ZM409.565 128.7H412.705C413.465 128.7 414.045 128.86 414.445 129.18C414.925 129.567 415.165 130.087 415.165 130.74C415.165 131.46 414.865 132.013 414.265 132.4C414.678 132.507 415.025 132.693 415.305 132.96C415.745 133.387 415.965 133.92 415.965 134.56C415.965 135.36 415.678 135.987 415.105 136.44C414.611 136.813 413.958 137 413.145 137H409.565V128.7ZM411.005 132.08H412.525C412.911 132.08 413.218 132 413.445 131.84C413.711 131.64 413.845 131.353 413.845 130.98C413.845 130.647 413.711 130.38 413.445 130.18C413.245 130.047 412.858 129.98 412.285 129.98H411.005V132.08ZM411.005 135.72H412.785C413.398 135.72 413.831 135.627 414.085 135.44C414.405 135.2 414.565 134.893 414.565 134.52C414.565 134.12 414.425 133.807 414.145 133.58C413.891 133.38 413.458 133.28 412.845 133.28H411.005V135.72ZM424.518 129.88V128.7H425.958V137H424.518V135.84C423.798 136.773 422.852 137.24 421.678 137.24C420.558 137.24 419.605 136.853 418.818 136.08C418.032 135.307 417.638 134.227 417.638 132.84C417.638 131.48 418.025 130.42 418.798 129.66C419.585 128.887 420.545 128.5 421.678 128.5C422.878 128.5 423.825 128.96 424.518 129.88ZM421.838 129.78C421.078 129.78 420.432 130.053 419.898 130.6C419.378 131.133 419.118 131.88 419.118 132.84C419.118 133.76 419.358 134.513 419.838 135.1C420.332 135.673 420.998 135.96 421.838 135.96C422.678 135.96 423.345 135.66 423.838 135.06C424.345 134.46 424.598 133.727 424.598 132.86C424.598 131.873 424.318 131.113 423.758 130.58C423.198 130.047 422.558 129.78 421.838 129.78ZM428.686 137V128.7H430.126V132.1H434.046V128.7H435.486V137H434.046V133.42H430.126V137H428.686ZM438.197 128.7H439.637V134.18L445.317 128.06V137H443.877V131.46L438.197 137.58V128.7ZM454.201 134.22L455.401 134.88C455.121 135.413 454.781 135.86 454.381 136.22C453.621 136.9 452.701 137.24 451.621 137.24C450.501 137.24 449.534 136.88 448.721 136.16C447.921 135.427 447.521 134.34 447.521 132.9C447.521 131.633 447.881 130.587 448.601 129.76C449.334 128.92 450.314 128.5 451.541 128.5C452.928 128.5 453.974 129.007 454.681 130.02C455.241 130.82 455.501 131.86 455.461 133.14H449.001C449.014 133.98 449.274 134.66 449.781 135.18C450.288 135.7 450.908 135.96 451.641 135.96C452.294 135.96 452.861 135.76 453.341 135.36C453.714 135.04 454.001 134.66 454.201 134.22ZM449.101 131.94H453.981C453.861 131.287 453.574 130.767 453.121 130.38C452.681 129.98 452.154 129.78 451.541 129.78C450.941 129.78 450.408 129.987 449.941 130.4C449.488 130.8 449.208 131.313 449.101 131.94Z" fill="#0B1530"/>
</svg>
