<svg width="416" height="392" viewBox="0 0 416 392" fill="none" xmlns="http://www.w3.org/2000/svg">
<path d="M1.72 11.66H11.52V25H10.04V13.06H3.2V25H1.72V11.66ZM21.6222 24C20.7955 24.8267 19.7489 25.24 18.4822 25.24C17.2155 25.24 16.1622 24.8267 15.3222 24C14.4955 23.1733 14.0822 22.1333 14.0822 20.88C14.0822 19.6133 14.4955 18.5667 15.3222 17.74C16.1622 16.9133 17.2155 16.5 18.4822 16.5C19.7489 16.5 20.7955 16.9133 21.6222 17.74C22.4622 18.5667 22.8822 19.6133 22.8822 20.88C22.8822 22.1333 22.4622 23.1733 21.6222 24ZM20.5422 18.6C19.9822 18.0533 19.2955 17.78 18.4822 17.78C17.6689 17.78 16.9755 18.06 16.4022 18.62C15.8422 19.1667 15.5622 19.92 15.5622 20.88C15.5622 21.84 15.8489 22.5933 16.4222 23.14C16.9955 23.6867 17.6822 23.96 18.4822 23.96C19.2822 23.96 19.9689 23.6867 20.5422 23.14C21.1155 22.5933 21.4022 21.84 21.4022 20.88C21.4022 19.9067 21.1155 19.1467 20.5422 18.6ZM29.7384 29.6L32.3784 24.22L28.5584 16.7H30.1984L33.1384 22.64L35.8384 16.7H37.4384L31.3384 29.6H29.7384ZM37.9977 25L39.9977 16.06L43.4377 22.82L46.7977 16.06L48.7977 25H47.3177L46.2177 19.86L43.3977 25.58L40.5377 19.86L39.4777 25H37.9977ZM57.5792 24C56.7526 24.8267 55.7059 25.24 54.4392 25.24C53.1726 25.24 52.1192 24.8267 51.2792 24C50.4526 23.1733 50.0392 22.1333 50.0392 20.88C50.0392 19.6133 50.4526 18.5667 51.2792 17.74C52.1192 16.9133 53.1726 16.5 54.4392 16.5C55.7059 16.5 56.7526 16.9133 57.5792 17.74C58.4192 18.5667 58.8392 19.6133 58.8392 20.88C58.8392 22.1333 58.4192 23.1733 57.5792 24ZM56.4992 18.6C55.9392 18.0533 55.2526 17.78 54.4392 17.78C53.6259 17.78 52.9326 18.06 52.3592 18.62C51.7992 19.1667 51.5192 19.92 51.5192 20.88C51.5192 21.84 51.8059 22.5933 52.3792 23.14C52.9526 23.6867 53.6392 23.96 54.4392 23.96C55.2392 23.96 55.9259 23.6867 56.4992 23.14C57.0726 22.5933 57.3592 21.84 57.3592 20.88C57.3592 19.9067 57.0726 19.1467 56.4992 18.6ZM67.3275 16.7V25H65.8875V18.02H62.9275V21.76C62.9275 22.84 62.7142 23.64 62.2875 24.16C61.8075 24.7467 61.1408 25.04 60.2875 25.04C60.1808 25.04 60.0342 25.0267 59.8475 25V23.68C59.9808 23.7067 60.0875 23.72 60.1675 23.72C60.6342 23.72 60.9808 23.54 61.2075 23.18C61.3942 22.8867 61.4875 22.4133 61.4875 21.76V16.7H67.3275ZM74.4914 25V21.74C73.7047 21.86 73.0514 21.92 72.5314 21.92C71.6247 21.92 70.9514 21.72 70.5114 21.32C70.0447 20.9067 69.8114 20.2267 69.8114 19.28V16.7H71.2514V19.08C71.2514 19.5333 71.3114 19.86 71.4314 20.06C71.6181 20.42 72.0381 20.6 72.6914 20.6C73.2781 20.6 73.8781 20.54 74.4914 20.42V16.7H75.9314V25H74.4914ZM85.0052 17.88V16.7H86.4452V25H85.0052V23.84C84.2852 24.7733 83.3385 25.24 82.1652 25.24C81.0452 25.24 80.0918 24.8533 79.3052 24.08C78.5185 23.3067 78.1252 22.2267 78.1252 20.84C78.1252 19.48 78.5118 18.42 79.2852 17.66C80.0718 16.8867 81.0318 16.5 82.1652 16.5C83.3652 16.5 84.3118 16.96 85.0052 17.88ZM82.3252 17.78C81.5652 17.78 80.9185 18.0533 80.3852 18.6C79.8652 19.1333 79.6052 19.88 79.6052 20.84C79.6052 21.76 79.8452 22.5133 80.3252 23.1C80.8185 23.6733 81.4852 23.96 82.3252 23.96C83.1652 23.96 83.8318 23.66 84.3252 23.06C84.8318 22.46 85.0852 21.7267 85.0852 20.86C85.0852 19.8733 84.8052 19.1133 84.2452 18.58C83.6852 18.0467 83.0452 17.78 82.3252 17.78ZM89.1725 25V16.7H90.6125V20.1H94.5325V16.7H95.9725V25H94.5325V21.42H90.6125V25H89.1725ZM98.6842 16.7H100.124V22.18L105.804 16.06V25H104.364V19.46L98.6842 25.58V16.7ZM109.968 20.1H111.468C111.601 19.1667 111.975 18.38 112.588 17.74C113.375 16.9133 114.421 16.5 115.728 16.5C117.008 16.5 118.061 16.9133 118.888 17.74C119.715 18.5667 120.128 19.6133 120.128 20.88C120.128 22.1333 119.708 23.1733 118.868 24C118.041 24.8267 116.995 25.24 115.728 25.24C114.275 25.24 113.135 24.72 112.308 23.68C111.775 23.0133 111.468 22.26 111.388 21.42H109.968V25H108.528V16.7H109.968V20.1ZM115.728 17.78C114.928 17.78 114.248 18.06 113.688 18.62C113.141 19.1667 112.868 19.92 112.868 20.88C112.868 21.8533 113.148 22.6133 113.708 23.16C114.268 23.6933 114.941 23.96 115.728 23.96C116.528 23.96 117.215 23.6867 117.788 23.14C118.361 22.5933 118.648 21.84 118.648 20.88C118.648 19.92 118.361 19.1667 117.788 18.62C117.228 18.06 116.541 17.78 115.728 17.78ZM138.505 23.26C137.171 24.58 135.531 25.24 133.585 25.24C131.638 25.24 129.991 24.58 128.645 23.26C127.311 21.94 126.645 20.3 126.645 18.34C126.645 16.3667 127.318 14.7267 128.665 13.42C130.011 12.1 131.651 11.44 133.585 11.44C135.518 11.44 137.158 12.1 138.505 13.42C139.851 14.7267 140.525 16.3667 140.525 18.34C140.525 20.3 139.851 21.94 138.505 23.26ZM137.425 14.44C136.371 13.3733 135.091 12.84 133.585 12.84C132.078 12.84 130.798 13.3733 129.745 14.44C128.691 15.5067 128.165 16.8067 128.165 18.34C128.165 19.8733 128.691 21.1733 129.745 22.24C130.798 23.3067 132.078 23.84 133.585 23.84C135.091 23.84 136.371 23.3067 137.425 22.24C138.478 21.1733 139.005 19.8733 139.005 18.34C139.005 16.8067 138.478 15.5067 137.425 14.44ZM146.403 18.02H144.363V25H142.923V18.02H142.123V16.7H142.923V13.08C142.923 11.9733 143.19 11.1933 143.723 10.74C144.15 10.38 144.703 10.2 145.383 10.2C145.743 10.2 146.083 10.26 146.403 10.38V11.78C146.11 11.66 145.797 11.6 145.463 11.6C145.023 11.6 144.717 11.7467 144.543 12.04C144.423 12.24 144.363 12.64 144.363 13.24V16.7H146.403V18.02ZM151.599 18.02H149.559V25H148.119V18.02H147.319V16.7H148.119V13.08C148.119 11.9733 148.385 11.1933 148.919 10.74C149.345 10.38 149.899 10.2 150.579 10.2C150.939 10.2 151.279 10.26 151.599 10.38V11.78C151.305 11.66 150.992 11.6 150.659 11.6C150.219 11.6 149.912 11.7467 149.739 12.04C149.619 12.24 149.559 12.64 149.559 13.24V16.7H151.599V18.02Z" fill="#0B1530"/>
<rect x="217" y="1" width="61.9976" height="34" rx="17" fill="white"/>
<rect x="217" y="1" width="61.9976" height="34" rx="17" stroke="#457BF8" stroke-width="2"/>
<rect x="220" y="4" width="27.9976" height="28" rx="13.9988" fill="#457BF8"/>
<path d="M291.198 11.66V17.08H298.038V11.66H299.518V25H298.038V18.48H291.198V25H289.718V11.66H291.198ZM308.96 17.88V16.7H310.4V25H308.96V23.84C308.24 24.7733 307.293 25.24 306.12 25.24C305 25.24 304.046 24.8533 303.26 24.08C302.473 23.3067 302.08 22.2267 302.08 20.84C302.08 19.48 302.466 18.42 303.24 17.66C304.026 16.8867 304.986 16.5 306.12 16.5C307.32 16.5 308.266 16.96 308.96 17.88ZM306.28 17.78C305.52 17.78 304.873 18.0533 304.34 18.6C303.82 19.1333 303.56 19.88 303.56 20.84C303.56 21.76 303.8 22.5133 304.28 23.1C304.773 23.6733 305.44 23.96 306.28 23.96C307.12 23.96 307.786 23.66 308.28 23.06C308.786 22.46 309.04 21.7267 309.04 20.86C309.04 19.8733 308.76 19.1133 308.2 18.58C307.64 18.0467 307 17.78 306.28 17.78ZM314.207 18.82L313.207 18C313.527 17.5333 313.88 17.1867 314.267 16.96C314.787 16.6533 315.394 16.5 316.087 16.5C316.927 16.5 317.58 16.6933 318.047 17.08C318.527 17.4933 318.767 18.02 318.767 18.66C318.767 19.4333 318.454 20.0133 317.827 20.4C318.227 20.4933 318.547 20.6733 318.787 20.94C319.174 21.3533 319.367 21.86 319.367 22.46C319.367 23.3533 319.007 24.0667 318.287 24.6C317.7 25.0267 316.914 25.24 315.927 25.24C315.047 25.24 314.307 25.0067 313.707 24.54C313.254 24.2067 312.887 23.7333 312.607 23.12L313.847 22.6C313.994 22.9733 314.24 23.2867 314.587 23.54C314.96 23.82 315.414 23.96 315.947 23.96C316.574 23.96 317.04 23.8533 317.347 23.64C317.734 23.3867 317.927 23 317.927 22.48C317.927 22.0533 317.76 21.7333 317.427 21.52C317.147 21.3333 316.694 21.24 316.067 21.24H315.227V19.92H315.927C316.434 19.92 316.794 19.8467 317.007 19.7C317.3 19.5133 317.447 19.26 317.447 18.94C317.447 18.5667 317.327 18.28 317.087 18.08C316.86 17.88 316.507 17.78 316.027 17.78C315.614 17.78 315.234 17.8867 314.887 18.1C314.594 18.2867 314.367 18.5267 314.207 18.82ZM321.565 16.7H324.705C325.465 16.7 326.045 16.86 326.445 17.18C326.925 17.5667 327.165 18.0867 327.165 18.74C327.165 19.46 326.865 20.0133 326.265 20.4C326.678 20.5067 327.025 20.6933 327.305 20.96C327.745 21.3867 327.965 21.92 327.965 22.56C327.965 23.36 327.678 23.9867 327.105 24.44C326.611 24.8133 325.958 25 325.145 25H321.565V16.7ZM323.005 20.08H324.525C324.911 20.08 325.218 20 325.445 19.84C325.711 19.64 325.845 19.3533 325.845 18.98C325.845 18.6467 325.711 18.38 325.445 18.18C325.245 18.0467 324.858 17.98 324.285 17.98H323.005V20.08ZM323.005 23.72H324.785C325.398 23.72 325.831 23.6267 326.085 23.44C326.405 23.2 326.565 22.8933 326.565 22.52C326.565 22.12 326.425 21.8067 326.145 21.58C325.891 21.38 325.458 21.28 324.845 21.28H323.005V23.72ZM336.518 17.88V16.7H337.958V25H336.518V23.84C335.798 24.7733 334.852 25.24 333.678 25.24C332.558 25.24 331.605 24.8533 330.818 24.08C330.032 23.3067 329.638 22.2267 329.638 20.84C329.638 19.48 330.025 18.42 330.798 17.66C331.585 16.8867 332.545 16.5 333.678 16.5C334.878 16.5 335.825 16.96 336.518 17.88ZM333.838 17.78C333.078 17.78 332.432 18.0533 331.898 18.6C331.378 19.1333 331.118 19.88 331.118 20.84C331.118 21.76 331.358 22.5133 331.838 23.1C332.332 23.6733 332.998 23.96 333.838 23.96C334.678 23.96 335.345 23.66 335.838 23.06C336.345 22.46 336.598 21.7267 336.598 20.86C336.598 19.8733 336.318 19.1133 335.758 18.58C335.198 18.0467 334.558 17.78 333.838 17.78ZM340.686 25V16.7H342.126V20.1H346.046V16.7H347.486V25H346.046V21.42H342.126V25H340.686ZM350.197 16.7H351.637V22.18L357.317 16.06V25H355.877V19.46L350.197 25.58V16.7ZM366.201 22.22L367.401 22.88C367.121 23.4133 366.781 23.86 366.381 24.22C365.621 24.9 364.701 25.24 363.621 25.24C362.501 25.24 361.534 24.88 360.721 24.16C359.921 23.4267 359.521 22.34 359.521 20.9C359.521 19.6333 359.881 18.5867 360.601 17.76C361.334 16.92 362.314 16.5 363.541 16.5C364.928 16.5 365.974 17.0067 366.681 18.02C367.241 18.82 367.501 19.86 367.461 21.14H361.001C361.014 21.98 361.274 22.66 361.781 23.18C362.288 23.7 362.908 23.96 363.641 23.96C364.294 23.96 364.861 23.76 365.341 23.36C365.714 23.04 366.001 22.66 366.201 22.22ZM361.101 19.94H365.981C365.861 19.2867 365.574 18.7667 365.121 18.38C364.681 17.98 364.154 17.78 363.541 17.78C362.941 17.78 362.408 17.9867 361.941 18.4C361.488 18.8 361.208 19.3133 361.101 19.94Z" fill="#0B1530"/>
<path d="M1.72 67.66H11.52V81H10.04V69.06H3.2V81H1.72V67.66ZM16.0422 79.84V85.6H14.6022V72.7H16.0422V73.86C16.7755 72.9533 17.7222 72.5 18.8822 72.5C20.1222 72.5 21.1022 72.94 21.8222 73.82C22.5555 74.6867 22.9222 75.7133 22.9222 76.9C22.9222 78.1 22.5622 79.1267 21.8422 79.98C21.1222 80.82 20.1555 81.24 18.9422 81.24C17.7289 81.24 16.7622 80.7733 16.0422 79.84ZM18.7422 79.96C19.5555 79.96 20.2089 79.6667 20.7022 79.08C21.1955 78.48 21.4422 77.7533 21.4422 76.9C21.4422 75.94 21.1689 75.18 20.6222 74.62C20.0755 74.06 19.4422 73.78 18.7222 73.78C18.0022 73.78 17.3622 74.06 16.8022 74.62C16.2422 75.18 15.9622 75.9333 15.9622 76.88C15.9622 77.7467 16.2155 78.48 16.7222 79.08C17.2422 79.6667 17.9155 79.96 18.7422 79.96ZM25.1295 72.7H26.5695V78.18L32.2495 72.06V81H30.8095V75.46L25.1295 81.58V72.7ZM39.6413 81V72.7H41.0813V76.1H45.0013V72.7H46.4413V81H45.0013V77.42H41.0813V81H39.6413ZM55.513 73.88V72.7H56.953V81H55.513V79.84C54.793 80.7733 53.8463 81.24 52.673 81.24C51.553 81.24 50.5996 80.8533 49.813 80.08C49.0263 79.3067 48.633 78.2267 48.633 76.84C48.633 75.48 49.0196 74.42 49.793 73.66C50.5796 72.8867 51.5396 72.5 52.673 72.5C53.873 72.5 54.8196 72.96 55.513 73.88ZM52.833 73.78C52.073 73.78 51.4263 74.0533 50.893 74.6C50.373 75.1333 50.113 75.88 50.113 76.84C50.113 77.76 50.353 78.5133 50.833 79.1C51.3263 79.6733 51.993 79.96 52.833 79.96C53.673 79.96 54.3396 79.66 54.833 79.06C55.3396 78.46 55.593 77.7267 55.593 76.86C55.593 75.8733 55.313 75.1133 54.753 74.58C54.193 74.0467 53.553 73.78 52.833 73.78ZM59.6803 72.7H62.8203C63.5803 72.7 64.1603 72.86 64.5603 73.18C65.0403 73.5667 65.2803 74.0867 65.2803 74.74C65.2803 75.46 64.9803 76.0133 64.3803 76.4C64.7936 76.5067 65.1403 76.6933 65.4203 76.96C65.8603 77.3867 66.0803 77.92 66.0803 78.56C66.0803 79.36 65.7936 79.9867 65.2203 80.44C64.727 80.8133 64.0736 81 63.2603 81H59.6803V72.7ZM61.1203 76.08H62.6403C63.027 76.08 63.3336 76 63.5603 75.84C63.827 75.64 63.9603 75.3533 63.9603 74.98C63.9603 74.6467 63.827 74.38 63.5603 74.18C63.3603 74.0467 62.9736 73.98 62.4003 73.98H61.1203V76.08ZM61.1203 79.72H62.9003C63.5136 79.72 63.947 79.6267 64.2003 79.44C64.5203 79.2 64.6803 78.8933 64.6803 78.52C64.6803 78.12 64.5403 77.8067 64.2603 77.58C64.007 77.38 63.5736 77.28 62.9603 77.28H61.1203V79.72ZM74.4341 78.22L75.6341 78.88C75.3541 79.4133 75.0141 79.86 74.6141 80.22C73.8541 80.9 72.9341 81.24 71.8541 81.24C70.7341 81.24 69.7674 80.88 68.9541 80.16C68.1541 79.4267 67.7541 78.34 67.7541 76.9C67.7541 75.6333 68.1141 74.5867 68.8341 73.76C69.5674 72.92 70.5474 72.5 71.7741 72.5C73.1607 72.5 74.2074 73.0067 74.9141 74.02C75.4741 74.82 75.7341 75.86 75.6941 77.14H69.2341C69.2474 77.98 69.5074 78.66 70.0141 79.18C70.5207 79.7 71.1407 79.96 71.8741 79.96C72.5274 79.96 73.0941 79.76 73.5741 79.36C73.9474 79.04 74.2341 78.66 74.4341 78.22ZM69.3341 75.94H74.2141C74.0941 75.2867 73.8074 74.7667 73.3541 74.38C72.9141 73.98 72.3874 73.78 71.7741 73.78C71.1741 73.78 70.6407 73.9867 70.1741 74.4C69.7207 74.8 69.4407 75.3133 69.3341 75.94ZM78.503 72.7H84.343V79.68H85.583V83.2H84.263V81H77.943V83.2H76.623V79.68C77.3163 79.6667 77.8296 79.3067 78.163 78.6C78.3896 78.1333 78.503 77.4 78.503 76.4V72.7ZM82.903 79.68V74.02H79.943V77.14C79.943 78.2467 79.6096 79.0933 78.943 79.68H82.903ZM93.2622 78.22L94.4622 78.88C94.1822 79.4133 93.8422 79.86 93.4422 80.22C92.6822 80.9 91.7622 81.24 90.6822 81.24C89.5622 81.24 88.5955 80.88 87.7822 80.16C86.9822 79.4267 86.5822 78.34 86.5822 76.9C86.5822 75.6333 86.9422 74.5867 87.6622 73.76C88.3955 72.92 89.3755 72.5 90.6022 72.5C91.9889 72.5 93.0355 73.0067 93.7422 74.02C94.3022 74.82 94.5622 75.86 94.5222 77.14H88.0622C88.0755 77.98 88.3355 78.66 88.8422 79.18C89.3489 79.7 89.9689 79.96 90.7022 79.96C91.3555 79.96 91.9222 79.76 92.4022 79.36C92.7755 79.04 93.0622 78.66 93.2622 78.22ZM88.1622 75.94H93.0422C92.9222 75.2867 92.6355 74.7667 92.1822 74.38C91.7422 73.98 91.2155 73.78 90.6022 73.78C90.0022 73.78 89.4689 73.9867 89.0022 74.4C88.5489 74.8 88.2689 75.3133 88.1622 75.94ZM96.7311 81V72.7H98.1711V76.1H102.091V72.7H103.531V81H102.091V77.42H98.1711V81H96.7311ZM106.243 72.7H107.683V78.18L113.363 72.06V81H111.923V75.46L106.243 81.58V72.7ZM116.087 72.7H117.527V78.18L123.207 72.06V81H121.767V75.46L116.087 81.58V72.7Z" fill="#0B1530"/>
<rect x="217" y="57" width="61.9976" height="34" rx="17" fill="#EAF0FE"/>
<rect x="217" y="57" width="61.9976" height="34" rx="17" stroke="#6E98FA" stroke-width="2"/>
<rect x="220" y="60" width="27.9976" height="28" rx="13.9988" fill="#6E98FA"/>
<path d="M291.198 67.66V73.08H298.038V67.66H299.518V81H298.038V74.48H291.198V81H289.718V67.66H291.198ZM308.96 73.88V72.7H310.4V81H308.96V79.84C308.24 80.7733 307.293 81.24 306.12 81.24C305 81.24 304.046 80.8533 303.26 80.08C302.473 79.3067 302.08 78.2267 302.08 76.84C302.08 75.48 302.466 74.42 303.24 73.66C304.026 72.8867 304.986 72.5 306.12 72.5C307.32 72.5 308.266 72.96 308.96 73.88ZM306.28 73.78C305.52 73.78 304.873 74.0533 304.34 74.6C303.82 75.1333 303.56 75.88 303.56 76.84C303.56 77.76 303.8 78.5133 304.28 79.1C304.773 79.6733 305.44 79.96 306.28 79.96C307.12 79.96 307.786 79.66 308.28 79.06C308.786 78.46 309.04 77.7267 309.04 76.86C309.04 75.8733 308.76 75.1133 308.2 74.58C307.64 74.0467 307 73.78 306.28 73.78ZM314.207 74.82L313.207 74C313.527 73.5333 313.88 73.1867 314.267 72.96C314.787 72.6533 315.394 72.5 316.087 72.5C316.927 72.5 317.58 72.6933 318.047 73.08C318.527 73.4933 318.767 74.02 318.767 74.66C318.767 75.4333 318.454 76.0133 317.827 76.4C318.227 76.4933 318.547 76.6733 318.787 76.94C319.174 77.3533 319.367 77.86 319.367 78.46C319.367 79.3533 319.007 80.0667 318.287 80.6C317.7 81.0267 316.914 81.24 315.927 81.24C315.047 81.24 314.307 81.0067 313.707 80.54C313.254 80.2067 312.887 79.7333 312.607 79.12L313.847 78.6C313.994 78.9733 314.24 79.2867 314.587 79.54C314.96 79.82 315.414 79.96 315.947 79.96C316.574 79.96 317.04 79.8533 317.347 79.64C317.734 79.3867 317.927 79 317.927 78.48C317.927 78.0533 317.76 77.7333 317.427 77.52C317.147 77.3333 316.694 77.24 316.067 77.24H315.227V75.92H315.927C316.434 75.92 316.794 75.8467 317.007 75.7C317.3 75.5133 317.447 75.26 317.447 74.94C317.447 74.5667 317.327 74.28 317.087 74.08C316.86 73.88 316.507 73.78 316.027 73.78C315.614 73.78 315.234 73.8867 314.887 74.1C314.594 74.2867 314.367 74.5267 314.207 74.82ZM321.565 72.7H324.705C325.465 72.7 326.045 72.86 326.445 73.18C326.925 73.5667 327.165 74.0867 327.165 74.74C327.165 75.46 326.865 76.0133 326.265 76.4C326.678 76.5067 327.025 76.6933 327.305 76.96C327.745 77.3867 327.965 77.92 327.965 78.56C327.965 79.36 327.678 79.9867 327.105 80.44C326.611 80.8133 325.958 81 325.145 81H321.565V72.7ZM323.005 76.08H324.525C324.911 76.08 325.218 76 325.445 75.84C325.711 75.64 325.845 75.3533 325.845 74.98C325.845 74.6467 325.711 74.38 325.445 74.18C325.245 74.0467 324.858 73.98 324.285 73.98H323.005V76.08ZM323.005 79.72H324.785C325.398 79.72 325.831 79.6267 326.085 79.44C326.405 79.2 326.565 78.8933 326.565 78.52C326.565 78.12 326.425 77.8067 326.145 77.58C325.891 77.38 325.458 77.28 324.845 77.28H323.005V79.72ZM336.518 73.88V72.7H337.958V81H336.518V79.84C335.798 80.7733 334.852 81.24 333.678 81.24C332.558 81.24 331.605 80.8533 330.818 80.08C330.032 79.3067 329.638 78.2267 329.638 76.84C329.638 75.48 330.025 74.42 330.798 73.66C331.585 72.8867 332.545 72.5 333.678 72.5C334.878 72.5 335.825 72.96 336.518 73.88ZM333.838 73.78C333.078 73.78 332.432 74.0533 331.898 74.6C331.378 75.1333 331.118 75.88 331.118 76.84C331.118 77.76 331.358 78.5133 331.838 79.1C332.332 79.6733 332.998 79.96 333.838 79.96C334.678 79.96 335.345 79.66 335.838 79.06C336.345 78.46 336.598 77.7267 336.598 76.86C336.598 75.8733 336.318 75.1133 335.758 74.58C335.198 74.0467 334.558 73.78 333.838 73.78ZM340.686 81V72.7H342.126V76.1H346.046V72.7H347.486V81H346.046V77.42H342.126V81H340.686ZM350.197 72.7H351.637V78.18L357.317 72.06V81H355.877V75.46L350.197 81.58V72.7ZM366.201 78.22L367.401 78.88C367.121 79.4133 366.781 79.86 366.381 80.22C365.621 80.9 364.701 81.24 363.621 81.24C362.501 81.24 361.534 80.88 360.721 80.16C359.921 79.4267 359.521 78.34 359.521 76.9C359.521 75.6333 359.881 74.5867 360.601 73.76C361.334 72.92 362.314 72.5 363.541 72.5C364.928 72.5 365.974 73.0067 366.681 74.02C367.241 74.82 367.501 75.86 367.461 77.14H361.001C361.014 77.98 361.274 78.66 361.781 79.18C362.288 79.7 362.908 79.96 363.641 79.96C364.294 79.96 364.861 79.76 365.341 79.36C365.714 79.04 366.001 78.66 366.201 78.22ZM361.101 75.94H365.981C365.861 75.2867 365.574 74.7667 365.121 74.38C364.681 73.98 364.154 73.78 363.541 73.78C362.941 73.78 362.408 73.9867 361.941 74.4C361.488 74.8 361.208 75.3133 361.101 75.94Z" fill="#0B1530"/>
<path d="M1.72 123.66H4.12C5.45333 123.66 6.47333 123.94 7.18 124.5C7.98 125.113 8.38 126.033 8.38 127.26C8.38 128.407 7.94 129.28 7.06 129.88C7.91333 130.093 8.54667 130.527 8.96 131.18C9.38667 131.82 9.6 132.507 9.6 133.24C9.6 133.84 9.46667 134.393 9.2 134.9C8.94667 135.407 8.62667 135.813 8.24 136.12C7.49333 136.707 6.42667 137 5.04 137H1.72V123.66ZM3.2 125.06V129.52H4.32C4.52 129.52 4.71333 129.513 4.9 129.5C5.08667 129.473 5.30667 129.42 5.56 129.34C5.82667 129.247 6.05333 129.127 6.24 128.98C6.44 128.833 6.60667 128.613 6.74 128.32C6.87333 128.027 6.94 127.687 6.94 127.3C6.94 126.887 6.86 126.533 6.7 126.24C6.54 125.933 6.36 125.707 6.16 125.56C5.96 125.413 5.72 125.3 5.44 125.22C5.16 125.14 4.94667 125.093 4.8 125.08C4.65333 125.067 4.50667 125.06 4.36 125.06H3.2ZM3.2 130.84V135.6H4.9C5.98 135.6 6.76 135.413 7.24 135.04C7.82667 134.613 8.12 134 8.12 133.2C8.12 132.307 7.74 131.653 6.98 131.24C6.5 130.973 5.74667 130.84 4.72 130.84H3.2ZM15.6734 137L17.6734 128.06L21.1134 134.82L24.4734 128.06L26.4734 137H24.9934L23.8934 131.86L21.0734 137.58L18.2134 131.86L17.1534 137H15.6734ZM35.255 136C34.4283 136.827 33.3817 137.24 32.115 137.24C30.8483 137.24 29.795 136.827 28.955 136C28.1283 135.173 27.715 134.133 27.715 132.88C27.715 131.613 28.1283 130.567 28.955 129.74C29.795 128.913 30.8483 128.5 32.115 128.5C33.3817 128.5 34.4283 128.913 35.255 129.74C36.095 130.567 36.515 131.613 36.515 132.88C36.515 134.133 36.095 135.173 35.255 136ZM34.175 130.6C33.615 130.053 32.9283 129.78 32.115 129.78C31.3017 129.78 30.6083 130.06 30.035 130.62C29.475 131.167 29.195 131.92 29.195 132.88C29.195 133.84 29.4817 134.593 30.055 135.14C30.6283 135.687 31.315 135.96 32.115 135.96C32.915 135.96 33.6017 135.687 34.175 135.14C34.7483 134.593 35.035 133.84 35.035 132.88C35.035 131.907 34.7483 131.147 34.175 130.6ZM37.7633 137L39.7633 128.06L43.2033 134.82L46.5633 128.06L48.5633 137H47.0833L45.9833 131.86L43.1633 137.58L40.3033 131.86L39.2433 137H37.7633ZM56.4848 134.22L57.6848 134.88C57.4048 135.413 57.0648 135.86 56.6648 136.22C55.9048 136.9 54.9848 137.24 53.9048 137.24C52.7848 137.24 51.8182 136.88 51.0048 136.16C50.2048 135.427 49.8048 134.34 49.8048 132.9C49.8048 131.633 50.1648 130.587 50.8848 129.76C51.6182 128.92 52.5982 128.5 53.8248 128.5C55.2115 128.5 56.2582 129.007 56.9648 130.02C57.5248 130.82 57.7848 131.86 57.7448 133.14H51.2848C51.2982 133.98 51.5582 134.66 52.0648 135.18C52.5715 135.7 53.1915 135.96 53.9248 135.96C54.5782 135.96 55.1448 135.76 55.6248 135.36C55.9982 135.04 56.2848 134.66 56.4848 134.22ZM51.3848 131.94H56.2648C56.1448 131.287 55.8582 130.767 55.4048 130.38C54.9648 129.98 54.4382 129.78 53.8248 129.78C53.2248 129.78 52.6915 129.987 52.2248 130.4C51.7715 130.8 51.4915 131.313 51.3848 131.94ZM59.9538 137V128.7H61.3938V132.1H65.3138V128.7H66.7538V137H65.3138V133.42H61.3938V137H59.9538ZM74.9055 130.02H72.3055V137H70.8655V130.02H68.2655V128.7H74.9055V130.02ZM81.0866 137V128.7H82.5266V132.1H86.4466V128.7H87.8866V137H86.4466V133.42H82.5266V137H81.0866ZM96.9583 129.88V128.7H98.3983V137H96.9583V135.84C96.2383 136.773 95.2916 137.24 94.1183 137.24C92.9983 137.24 92.0449 136.853 91.2583 136.08C90.4716 135.307 90.0783 134.227 90.0783 132.84C90.0783 131.48 90.4649 130.42 91.2383 129.66C92.0249 128.887 92.9849 128.5 94.1183 128.5C95.3183 128.5 96.2649 128.96 96.9583 129.88ZM94.2783 129.78C93.5183 129.78 92.8716 130.053 92.3383 130.6C91.8183 131.133 91.5583 131.88 91.5583 132.84C91.5583 133.76 91.7983 134.513 92.2783 135.1C92.7716 135.673 93.4383 135.96 94.2783 135.96C95.1183 135.96 95.7849 135.66 96.2783 135.06C96.7849 134.46 97.0383 133.727 97.0383 132.86C97.0383 131.873 96.7583 131.113 96.1983 130.58C95.6383 130.047 94.9983 129.78 94.2783 129.78ZM105.006 128.7H106.446V132.1L109.566 128.7H111.246L107.646 132.54L111.606 137H109.806L106.726 133.5L106.446 133.78V137H105.006V133.78L104.726 133.5L101.646 137H99.8456L103.806 132.54L100.206 128.7H101.886L105.006 132.1V128.7ZM119.4 129.88V128.7H120.84V137H119.4V135.84C118.68 136.773 117.733 137.24 116.56 137.24C115.44 137.24 114.486 136.853 113.7 136.08C112.913 135.307 112.52 134.227 112.52 132.84C112.52 131.48 112.906 130.42 113.68 129.66C114.466 128.887 115.426 128.5 116.56 128.5C117.76 128.5 118.706 128.96 119.4 129.88ZM116.72 129.78C115.96 129.78 115.313 130.053 114.78 130.6C114.26 131.133 114 131.88 114 132.84C114 133.76 114.24 134.513 114.72 135.1C115.213 135.673 115.88 135.96 116.72 135.96C117.56 135.96 118.226 135.66 118.72 135.06C119.226 134.46 119.48 133.727 119.48 132.86C119.48 131.873 119.2 131.113 118.64 130.58C118.08 130.047 117.44 129.78 116.72 129.78ZM129.007 130.02H126.407V137H124.967V130.02H122.367V128.7H129.007V130.02ZM130.52 128.7H131.96V134.18L137.64 128.06V137H136.2V131.46L130.52 137.58V128.7ZM139.404 137L141.984 133.58C141.904 133.58 141.791 133.567 141.644 133.54C141.511 133.513 141.311 133.447 141.044 133.34C140.777 133.233 140.557 133.093 140.384 132.92C139.944 132.507 139.724 131.953 139.724 131.26C139.724 130.473 139.971 129.853 140.464 129.4C140.957 128.933 141.771 128.7 142.904 128.7H145.804V137H144.364V133.66H143.484L141.124 137H139.404ZM144.364 132.46V129.98H143.024C142.397 129.98 141.964 130.053 141.724 130.2C141.377 130.427 141.204 130.767 141.204 131.22C141.204 131.673 141.377 132.007 141.724 132.22C141.977 132.38 142.404 132.46 143.004 132.46H144.364Z" fill="#0B1530"/>
<rect x="217" y="113" width="62" height="34.0024" rx="17.0012" fill="#6E98FA"/>
<rect x="217" y="113" width="62" height="34.0024" rx="17.0012" stroke="#6E98FA" stroke-width="2"/>
<rect x="248" y="116" width="28" height="28.0024" rx="14" fill="white"/>
<path d="M291.2 123.662V129.082H298.04V123.662H299.52V137.002H298.04V130.482H291.2V137.002H289.72V123.662H291.2ZM308.962 129.882V128.702H310.402V137.002H308.962V135.842C308.242 136.775 307.296 137.242 306.122 137.242C305.002 137.242 304.049 136.855 303.262 136.082C302.476 135.309 302.082 134.229 302.082 132.842C302.082 131.482 302.469 130.422 303.242 129.662C304.029 128.889 304.989 128.502 306.122 128.502C307.322 128.502 308.269 128.962 308.962 129.882ZM306.282 129.782C305.522 129.782 304.876 130.055 304.342 130.602C303.822 131.135 303.562 131.882 303.562 132.842C303.562 133.762 303.802 134.515 304.282 135.102C304.776 135.675 305.442 135.962 306.282 135.962C307.122 135.962 307.789 135.662 308.282 135.062C308.789 134.462 309.042 133.729 309.042 132.862C309.042 131.875 308.762 131.115 308.202 130.582C307.642 130.049 307.002 129.782 306.282 129.782ZM314.21 130.822L313.21 130.002C313.53 129.535 313.883 129.189 314.27 128.962C314.79 128.655 315.396 128.502 316.09 128.502C316.93 128.502 317.583 128.695 318.05 129.082C318.53 129.495 318.77 130.022 318.77 130.662C318.77 131.435 318.456 132.015 317.83 132.402C318.23 132.495 318.55 132.675 318.79 132.942C319.176 133.355 319.37 133.862 319.37 134.462C319.37 135.355 319.01 136.069 318.29 136.602C317.703 137.029 316.916 137.242 315.93 137.242C315.05 137.242 314.31 137.009 313.71 136.542C313.256 136.209 312.89 135.735 312.61 135.122L313.85 134.602C313.996 134.975 314.243 135.289 314.59 135.542C314.963 135.822 315.416 135.962 315.95 135.962C316.576 135.962 317.043 135.855 317.35 135.642C317.736 135.389 317.93 135.002 317.93 134.482C317.93 134.055 317.763 133.735 317.43 133.522C317.15 133.335 316.696 133.242 316.07 133.242H315.23V131.922H315.93C316.436 131.922 316.796 131.849 317.01 131.702C317.303 131.515 317.45 131.262 317.45 130.942C317.45 130.569 317.33 130.282 317.09 130.082C316.863 129.882 316.51 129.782 316.03 129.782C315.616 129.782 315.236 129.889 314.89 130.102C314.596 130.289 314.37 130.529 314.21 130.822ZM321.567 128.702H324.707C325.467 128.702 326.047 128.862 326.447 129.182C326.927 129.569 327.167 130.089 327.167 130.742C327.167 131.462 326.867 132.015 326.267 132.402C326.68 132.509 327.027 132.695 327.307 132.962C327.747 133.389 327.967 133.922 327.967 134.562C327.967 135.362 327.68 135.989 327.107 136.442C326.614 136.815 325.96 137.002 325.147 137.002H321.567V128.702ZM323.007 132.082H324.527C324.914 132.082 325.22 132.002 325.447 131.842C325.714 131.642 325.847 131.355 325.847 130.982C325.847 130.649 325.714 130.382 325.447 130.182C325.247 130.049 324.86 129.982 324.287 129.982H323.007V132.082ZM323.007 135.722H324.787C325.4 135.722 325.834 135.629 326.087 135.442C326.407 135.202 326.567 134.895 326.567 134.522C326.567 134.122 326.427 133.809 326.147 133.582C325.894 133.382 325.46 133.282 324.847 133.282H323.007V135.722ZM336.521 129.882V128.702H337.961V137.002H336.521V135.842C335.801 136.775 334.854 137.242 333.681 137.242C332.561 137.242 331.607 136.855 330.821 136.082C330.034 135.309 329.641 134.229 329.641 132.842C329.641 131.482 330.027 130.422 330.801 129.662C331.587 128.889 332.547 128.502 333.681 128.502C334.881 128.502 335.827 128.962 336.521 129.882ZM333.841 129.782C333.081 129.782 332.434 130.055 331.901 130.602C331.381 131.135 331.121 131.882 331.121 132.842C331.121 133.762 331.361 134.515 331.841 135.102C332.334 135.675 333.001 135.962 333.841 135.962C334.681 135.962 335.347 135.662 335.841 135.062C336.347 134.462 336.601 133.729 336.601 132.862C336.601 131.875 336.321 131.115 335.761 130.582C335.201 130.049 334.561 129.782 333.841 129.782ZM340.688 137.002V128.702H342.128V132.102H346.048V128.702H347.488V137.002H346.048V133.422H342.128V137.002H340.688ZM350.2 128.702H351.64V134.182L357.32 128.062V137.002H355.88V131.462L350.2 137.582V128.702ZM366.204 134.222L367.404 134.882C367.124 135.415 366.784 135.862 366.384 136.222C365.624 136.902 364.704 137.242 363.624 137.242C362.504 137.242 361.537 136.882 360.724 136.162C359.924 135.429 359.524 134.342 359.524 132.902C359.524 131.635 359.884 130.589 360.604 129.762C361.337 128.922 362.317 128.502 363.544 128.502C364.93 128.502 365.977 129.009 366.684 130.022C367.244 130.822 367.504 131.862 367.464 133.142H361.004C361.017 133.982 361.277 134.662 361.784 135.182C362.29 135.702 362.91 135.962 363.644 135.962C364.297 135.962 364.864 135.762 365.344 135.362C365.717 135.042 366.004 134.662 366.204 134.222ZM361.104 131.942H365.984C365.864 131.289 365.577 130.769 365.124 130.382C364.684 129.982 364.157 129.782 363.544 129.782C362.944 129.782 362.41 129.989 361.944 130.402C361.49 130.802 361.21 131.315 361.104 131.942Z" fill="#0B1530"/>
<path d="M1.72 179.662H4.12C5.45333 179.662 6.47333 179.942 7.18 180.502C7.98 181.115 8.38 182.035 8.38 183.262C8.38 184.409 7.94 185.282 7.06 185.882C7.91333 186.095 8.54667 186.529 8.96 187.182C9.38667 187.822 9.6 188.509 9.6 189.242C9.6 189.842 9.46667 190.395 9.2 190.902C8.94667 191.409 8.62667 191.815 8.24 192.122C7.49333 192.709 6.42667 193.002 5.04 193.002H1.72V179.662ZM3.2 181.062V185.522H4.32C4.52 185.522 4.71333 185.515 4.9 185.502C5.08667 185.475 5.30667 185.422 5.56 185.342C5.82667 185.249 6.05333 185.129 6.24 184.982C6.44 184.835 6.60667 184.615 6.74 184.322C6.87333 184.029 6.94 183.689 6.94 183.302C6.94 182.889 6.86 182.535 6.7 182.242C6.54 181.935 6.36 181.709 6.16 181.562C5.96 181.415 5.72 181.302 5.44 181.222C5.16 181.142 4.94667 181.095 4.8 181.082C4.65333 181.069 4.50667 181.062 4.36 181.062H3.2ZM3.2 186.842V191.602H4.9C5.98 191.602 6.76 191.415 7.24 191.042C7.82667 190.615 8.12 190.002 8.12 189.202C8.12 188.309 7.74 187.655 6.98 187.242C6.5 186.975 5.74667 186.842 4.72 186.842H3.2ZM11.9655 193.002V184.702H13.4055V187.882H14.8855C16.0321 187.882 16.8721 188.155 17.4055 188.702C17.8321 189.129 18.0455 189.709 18.0455 190.442C18.0455 191.215 17.7988 191.835 17.3055 192.302C16.8121 192.769 15.9988 193.002 14.8655 193.002H11.9655ZM13.4055 191.722H14.7455C15.3455 191.722 15.7721 191.649 16.0255 191.502C16.3855 191.262 16.5655 190.909 16.5655 190.442C16.5655 189.962 16.3921 189.615 16.0455 189.402C15.8055 189.242 15.3788 189.162 14.7655 189.162H13.4055V191.722ZM19.0455 193.002V184.702H20.4855V193.002H19.0455ZM29.5959 179.002H31.1959C31.0493 179.495 30.7959 179.915 30.4359 180.262C30.0893 180.595 29.7693 180.822 29.4759 180.942C29.1959 181.062 28.8626 181.169 28.4759 181.262C28.4093 181.275 28.2493 181.315 27.9959 181.382C27.7426 181.435 27.5493 181.482 27.4159 181.522C27.2826 181.562 27.1093 181.615 26.8959 181.682C26.6826 181.749 26.4893 181.829 26.3159 181.922C26.1426 182.015 25.9826 182.115 25.8359 182.222C25.3293 182.609 24.9159 183.149 24.5959 183.842C24.2893 184.522 24.1226 185.249 24.0959 186.022H24.1359C24.7359 185.009 25.7426 184.502 27.1559 184.502C28.3959 184.502 29.4226 184.922 30.2359 185.762C31.0626 186.602 31.4759 187.642 31.4759 188.882C31.4759 190.135 31.0559 191.175 30.2159 192.002C29.3759 192.829 28.2826 193.242 26.9359 193.242C25.7759 193.242 24.8226 192.895 24.0759 192.202C23.1426 191.349 22.6759 189.922 22.6759 187.922C22.6759 184.442 23.4626 182.162 25.0359 181.082C25.1559 181.002 25.2826 180.929 25.4159 180.862C25.5493 180.782 25.6893 180.715 25.8359 180.662C25.9959 180.595 26.1293 180.542 26.2359 180.502C26.3426 180.449 26.4893 180.402 26.6759 180.362C26.8759 180.309 27.0093 180.275 27.0759 180.262C27.1559 180.235 27.3026 180.202 27.5159 180.162C27.7426 180.109 27.8826 180.075 27.9359 180.062C28.4693 179.942 28.8559 179.802 29.0959 179.642C29.3359 179.469 29.5026 179.255 29.5959 179.002ZM29.1359 186.602C28.5759 186.055 27.8893 185.782 27.0759 185.782C26.2626 185.782 25.5693 186.062 24.9959 186.622C24.4359 187.169 24.1559 187.922 24.1559 188.882C24.1559 189.842 24.4426 190.595 25.0159 191.142C25.5893 191.689 26.2759 191.962 27.0759 191.962C27.8759 191.962 28.5626 191.689 29.1359 191.142C29.7093 190.595 29.9959 189.842 29.9959 188.882C29.9959 187.909 29.7093 187.149 29.1359 186.602ZM35.1242 191.842V197.602H33.6842V184.702H35.1242V185.862C35.8576 184.955 36.8042 184.502 37.9642 184.502C39.2042 184.502 40.1842 184.942 40.9042 185.822C41.6376 186.689 42.0042 187.715 42.0042 188.902C42.0042 190.102 41.6442 191.129 40.9242 191.982C40.2042 192.822 39.2376 193.242 38.0242 193.242C36.8109 193.242 35.8442 192.775 35.1242 191.842ZM37.8242 191.962C38.6376 191.962 39.2909 191.669 39.7842 191.082C40.2776 190.482 40.5242 189.755 40.5242 188.902C40.5242 187.942 40.2509 187.182 39.7042 186.622C39.1576 186.062 38.5242 185.782 37.8042 185.782C37.0842 185.782 36.4442 186.062 35.8842 186.622C35.3242 187.182 35.0442 187.935 35.0442 188.882C35.0442 189.749 35.2976 190.482 35.8042 191.082C36.3242 191.669 36.9976 191.962 37.8242 191.962ZM50.5716 185.882V184.702H52.0116V193.002H50.5716V191.842C49.8516 192.775 48.9049 193.242 47.7316 193.242C46.6116 193.242 45.6582 192.855 44.8716 192.082C44.0849 191.309 43.6916 190.229 43.6916 188.842C43.6916 187.482 44.0782 186.422 44.8516 185.662C45.6382 184.889 46.5982 184.502 47.7316 184.502C48.9316 184.502 49.8782 184.962 50.5716 185.882ZM47.8916 185.782C47.1316 185.782 46.4849 186.055 45.9516 186.602C45.4316 187.135 45.1716 187.882 45.1716 188.842C45.1716 189.762 45.4116 190.515 45.8916 191.102C46.3849 191.675 47.0516 191.962 47.8916 191.962C48.7316 191.962 49.3982 191.662 49.8916 191.062C50.3982 190.462 50.6516 189.729 50.6516 188.862C50.6516 187.875 50.3716 187.115 49.8116 186.582C49.2516 186.049 48.6116 185.782 47.8916 185.782ZM54.7389 193.002V184.702H56.1789V188.102H60.0989V184.702H61.5389V193.002H60.0989V189.422H56.1789V193.002H54.7389ZM64.2506 193.002V184.702H65.6906V188.102H69.6106V184.702H71.0506V193.002H69.6106V189.422H65.6906V193.002H64.2506ZM73.7623 193.002V184.702H75.2023V187.882H76.6823C77.829 187.882 78.669 188.155 79.2023 188.702C79.629 189.129 79.8423 189.709 79.8423 190.442C79.8423 191.215 79.5957 191.835 79.1023 192.302C78.609 192.769 77.7957 193.002 76.6623 193.002H73.7623ZM75.2023 191.722H76.5423C77.1423 191.722 77.569 191.649 77.8223 191.502C78.1823 191.262 78.3623 190.909 78.3623 190.442C78.3623 189.962 78.189 189.615 77.8423 189.402C77.6023 189.242 77.1757 189.162 76.5623 189.162H75.2023V191.722ZM80.8423 193.002V184.702H82.2823V193.002H80.8423ZM84.9928 184.702H86.4328V190.182L92.1128 184.062V193.002H90.6728V187.462L84.9928 193.582V184.702ZM85.7128 181.122L86.9128 180.662C87.1528 181.462 87.7195 181.862 88.6128 181.862C89.5061 181.862 90.0728 181.462 90.3128 180.662L91.5128 181.122C91.2995 181.722 90.9328 182.195 90.4128 182.542C89.9061 182.889 89.3061 183.062 88.6128 183.062C87.9195 183.062 87.3128 182.889 86.7928 182.542C86.2861 182.195 85.9261 181.722 85.7128 181.122ZM111.005 191.262C109.671 192.582 108.031 193.242 106.085 193.242C104.138 193.242 102.491 192.582 101.145 191.262C99.8112 189.942 99.1445 188.302 99.1445 186.342C99.1445 184.369 99.8179 182.729 101.165 181.422C102.511 180.102 104.151 179.442 106.085 179.442C108.018 179.442 109.658 180.102 111.005 181.422C112.351 182.729 113.025 184.369 113.025 186.342C113.025 188.302 112.351 189.942 111.005 191.262ZM109.925 182.442C108.871 181.375 107.591 180.842 106.085 180.842C104.578 180.842 103.298 181.375 102.245 182.442C101.191 183.509 100.665 184.809 100.665 186.342C100.665 187.875 101.191 189.175 102.245 190.242C103.298 191.309 104.578 191.842 106.085 191.842C107.591 191.842 108.871 191.309 109.925 190.242C110.978 189.175 111.505 187.875 111.505 186.342C111.505 184.809 110.978 183.509 109.925 182.442ZM115.383 193.002V184.702H116.823V185.662C117.41 184.889 118.203 184.502 119.203 184.502C120.27 184.502 121.063 184.882 121.583 185.642C121.903 186.109 122.063 186.849 122.063 187.862V193.002H120.623V187.902C120.623 187.222 120.497 186.715 120.243 186.382C119.937 185.982 119.483 185.782 118.883 185.782C118.27 185.782 117.783 185.995 117.423 186.422C117.023 186.889 116.823 187.635 116.823 188.662V193.002H115.383Z" fill="#0B1530"/>
<rect x="217" y="169.002" width="62" height="34.0024" rx="17.0012" fill="#457BF8"/>
<rect x="217" y="169.002" width="62" height="34.0024" rx="17.0012" stroke="#457BF8" stroke-width="2"/>
<rect x="248" y="172.002" width="28" height="28.0024" rx="14" fill="white"/>
<path d="M291.2 179.664V185.084H298.04V179.664H299.52V193.004H298.04V186.484H291.2V193.004H289.72V179.664H291.2ZM308.962 185.884V184.704H310.402V193.004H308.962V191.844C308.242 192.777 307.296 193.244 306.122 193.244C305.002 193.244 304.049 192.857 303.262 192.084C302.476 191.311 302.082 190.231 302.082 188.844C302.082 187.484 302.469 186.424 303.242 185.664C304.029 184.891 304.989 184.504 306.122 184.504C307.322 184.504 308.269 184.964 308.962 185.884ZM306.282 185.784C305.522 185.784 304.876 186.057 304.342 186.604C303.822 187.137 303.562 187.884 303.562 188.844C303.562 189.764 303.802 190.517 304.282 191.104C304.776 191.677 305.442 191.964 306.282 191.964C307.122 191.964 307.789 191.664 308.282 191.064C308.789 190.464 309.042 189.731 309.042 188.864C309.042 187.877 308.762 187.117 308.202 186.584C307.642 186.051 307.002 185.784 306.282 185.784ZM314.21 186.824L313.21 186.004C313.53 185.537 313.883 185.191 314.27 184.964C314.79 184.657 315.396 184.504 316.09 184.504C316.93 184.504 317.583 184.697 318.05 185.084C318.53 185.497 318.77 186.024 318.77 186.664C318.77 187.437 318.456 188.017 317.83 188.404C318.23 188.497 318.55 188.677 318.79 188.944C319.176 189.357 319.37 189.864 319.37 190.464C319.37 191.357 319.01 192.071 318.29 192.604C317.703 193.031 316.916 193.244 315.93 193.244C315.05 193.244 314.31 193.011 313.71 192.544C313.256 192.211 312.89 191.737 312.61 191.124L313.85 190.604C313.996 190.977 314.243 191.291 314.59 191.544C314.963 191.824 315.416 191.964 315.95 191.964C316.576 191.964 317.043 191.857 317.35 191.644C317.736 191.391 317.93 191.004 317.93 190.484C317.93 190.057 317.763 189.737 317.43 189.524C317.15 189.337 316.696 189.244 316.07 189.244H315.23V187.924H315.93C316.436 187.924 316.796 187.851 317.01 187.704C317.303 187.517 317.45 187.264 317.45 186.944C317.45 186.571 317.33 186.284 317.09 186.084C316.863 185.884 316.51 185.784 316.03 185.784C315.616 185.784 315.236 185.891 314.89 186.104C314.596 186.291 314.37 186.531 314.21 186.824ZM321.567 184.704H324.707C325.467 184.704 326.047 184.864 326.447 185.184C326.927 185.571 327.167 186.091 327.167 186.744C327.167 187.464 326.867 188.017 326.267 188.404C326.68 188.511 327.027 188.697 327.307 188.964C327.747 189.391 327.967 189.924 327.967 190.564C327.967 191.364 327.68 191.991 327.107 192.444C326.614 192.817 325.96 193.004 325.147 193.004H321.567V184.704ZM323.007 188.084H324.527C324.914 188.084 325.22 188.004 325.447 187.844C325.714 187.644 325.847 187.357 325.847 186.984C325.847 186.651 325.714 186.384 325.447 186.184C325.247 186.051 324.86 185.984 324.287 185.984H323.007V188.084ZM323.007 191.724H324.787C325.4 191.724 325.834 191.631 326.087 191.444C326.407 191.204 326.567 190.897 326.567 190.524C326.567 190.124 326.427 189.811 326.147 189.584C325.894 189.384 325.46 189.284 324.847 189.284H323.007V191.724ZM336.521 185.884V184.704H337.961V193.004H336.521V191.844C335.801 192.777 334.854 193.244 333.681 193.244C332.561 193.244 331.607 192.857 330.821 192.084C330.034 191.311 329.641 190.231 329.641 188.844C329.641 187.484 330.027 186.424 330.801 185.664C331.587 184.891 332.547 184.504 333.681 184.504C334.881 184.504 335.827 184.964 336.521 185.884ZM333.841 185.784C333.081 185.784 332.434 186.057 331.901 186.604C331.381 187.137 331.121 187.884 331.121 188.844C331.121 189.764 331.361 190.517 331.841 191.104C332.334 191.677 333.001 191.964 333.841 191.964C334.681 191.964 335.347 191.664 335.841 191.064C336.347 190.464 336.601 189.731 336.601 188.864C336.601 187.877 336.321 187.117 335.761 186.584C335.201 186.051 334.561 185.784 333.841 185.784ZM340.688 193.004V184.704H342.128V188.104H346.048V184.704H347.488V193.004H346.048V189.424H342.128V193.004H340.688ZM350.2 184.704H351.64V190.184L357.32 184.064V193.004H355.88V187.464L350.2 193.584V184.704ZM366.204 190.224L367.404 190.884C367.124 191.417 366.784 191.864 366.384 192.224C365.624 192.904 364.704 193.244 363.624 193.244C362.504 193.244 361.537 192.884 360.724 192.164C359.924 191.431 359.524 190.344 359.524 188.904C359.524 187.637 359.884 186.591 360.604 185.764C361.337 184.924 362.317 184.504 363.544 184.504C364.93 184.504 365.977 185.011 366.684 186.024C367.244 186.824 367.504 187.864 367.464 189.144H361.004C361.017 189.984 361.277 190.664 361.784 191.184C362.29 191.704 362.91 191.964 363.644 191.964C364.297 191.964 364.864 191.764 365.344 191.364C365.717 191.044 366.004 190.664 366.204 190.224ZM361.104 187.944H365.984C365.864 187.291 365.577 186.771 365.124 186.384C364.684 185.984 364.157 185.784 363.544 185.784C362.944 185.784 362.41 185.991 361.944 186.404C361.49 186.804 361.21 187.317 361.104 187.944Z" fill="#0B1530"/>
<path d="M7.48 254.004V252.124H7.12C6.17333 252.124 5.32667 252.011 4.58 251.784C3.84667 251.557 3.26 251.271 2.82 250.924C2.38 250.577 2.01333 250.164 1.72 249.684C1.44 249.204 1.24667 248.744 1.14 248.304C1.04667 247.851 1 247.391 1 246.924C1 246.457 1.04667 246.004 1.14 245.564C1.24667 245.111 1.44 244.644 1.72 244.164C2.01333 243.684 2.38 243.271 2.82 242.924C3.26 242.577 3.84667 242.291 4.58 242.064C5.32667 241.837 6.17333 241.724 7.12 241.724H7.48V240.124H8.96V241.724H9.32C10.2667 241.724 11.1067 241.837 11.84 242.064C12.5867 242.291 13.18 242.577 13.62 242.924C14.06 243.271 14.42 243.684 14.7 244.164C14.9933 244.644 15.1867 245.111 15.28 245.564C15.3867 246.004 15.44 246.457 15.44 246.924C15.44 247.391 15.3867 247.851 15.28 248.304C15.1867 248.744 14.9933 249.204 14.7 249.684C14.42 250.164 14.06 250.577 13.62 250.924C13.18 251.271 12.5867 251.557 11.84 251.784C11.1067 252.011 10.2667 252.124 9.32 252.124H8.96V254.004H7.48ZM7.48 250.724V243.124H7.08C6.21333 243.124 5.46667 243.237 4.84 243.464C4.21333 243.691 3.74 244.004 3.42 244.404C3.1 244.791 2.86667 245.191 2.72 245.604C2.58667 246.017 2.52 246.457 2.52 246.924C2.52 247.391 2.58667 247.831 2.72 248.244C2.86667 248.657 3.1 249.064 3.42 249.464C3.74 249.851 4.21333 250.157 4.84 250.384C5.46667 250.611 6.21333 250.724 7.08 250.724H7.48ZM8.96 243.124V250.724H9.36C10.2267 250.724 10.9733 250.611 11.6 250.384C12.2267 250.157 12.7 249.851 13.02 249.464C13.34 249.064 13.5667 248.657 13.7 248.244C13.8467 247.831 13.92 247.391 13.92 246.924C13.92 246.457 13.8467 246.017 13.7 245.604C13.5667 245.191 13.34 244.791 13.02 244.404C12.7 244.004 12.2267 243.691 11.6 243.464C10.9733 243.237 10.2267 243.124 9.36 243.124H8.96ZM24.8253 253.004C23.9986 253.831 22.952 254.244 21.6853 254.244C20.4186 254.244 19.3653 253.831 18.5253 253.004C17.6986 252.177 17.2853 251.137 17.2853 249.884C17.2853 248.617 17.6986 247.571 18.5253 246.744C19.3653 245.917 20.4186 245.504 21.6853 245.504C22.952 245.504 23.9986 245.917 24.8253 246.744C25.6653 247.571 26.0853 248.617 26.0853 249.884C26.0853 251.137 25.6653 252.177 24.8253 253.004ZM23.7453 247.604C23.1853 247.057 22.4986 246.784 21.6853 246.784C20.872 246.784 20.1786 247.064 19.6053 247.624C19.0453 248.171 18.7653 248.924 18.7653 249.884C18.7653 250.844 19.052 251.597 19.6253 252.144C20.1986 252.691 20.8853 252.964 21.6853 252.964C22.4853 252.964 23.172 252.691 23.7453 252.144C24.3186 251.597 24.6053 250.844 24.6053 249.884C24.6053 248.911 24.3186 248.151 23.7453 247.604ZM28.2936 245.704H29.7336V249.104L33.0936 245.704H34.8536L31.2536 249.404L35.2936 254.004H33.4136L30.1736 250.364L29.7336 250.784V254.004H28.2936V245.704ZM36.7111 258.604L39.3511 253.224L35.5311 245.704H37.1711L40.1111 251.644L42.8111 245.704H44.4111L38.3111 258.604H36.7111ZM52.4303 246.304V248.024C51.777 247.197 50.9103 246.784 49.8303 246.784C49.017 246.784 48.3236 247.064 47.7503 247.624C47.177 248.171 46.8903 248.924 46.8903 249.884C46.8903 250.844 47.177 251.597 47.7503 252.144C48.3236 252.691 49.0103 252.964 49.8103 252.964C50.877 252.964 51.7703 252.531 52.4903 251.664V253.384C51.7036 253.957 50.8236 254.244 49.8503 254.244C48.557 254.244 47.4903 253.837 46.6503 253.024C45.8236 252.197 45.4103 251.157 45.4103 249.904C45.4103 248.637 45.8303 247.591 46.6703 246.764C47.5103 245.924 48.5703 245.504 49.8503 245.504C50.8103 245.504 51.6703 245.771 52.4303 246.304ZM70.8678 252.264C69.5345 253.584 67.8945 254.244 65.9478 254.244C64.0011 254.244 62.3545 253.584 61.0078 252.264C59.6745 250.944 59.0078 249.304 59.0078 247.344C59.0078 245.371 59.6811 243.731 61.0278 242.424C62.3745 241.104 64.0145 240.444 65.9478 240.444C67.8811 240.444 69.5211 241.104 70.8678 242.424C72.2145 243.731 72.8878 245.371 72.8878 247.344C72.8878 249.304 72.2145 250.944 70.8678 252.264ZM69.7878 243.444C68.7345 242.377 67.4545 241.844 65.9478 241.844C64.4411 241.844 63.1611 242.377 62.1078 243.444C61.0545 244.511 60.5278 245.811 60.5278 247.344C60.5278 248.877 61.0545 250.177 62.1078 251.244C63.1611 252.311 64.4411 252.844 65.9478 252.844C67.4545 252.844 68.7345 252.311 69.7878 251.244C70.8411 250.177 71.3678 248.877 71.3678 247.344C71.3678 245.811 70.8411 244.511 69.7878 243.444ZM78.7667 247.024H76.7267V254.004H75.2867V247.024H74.4867V245.704H75.2867V242.084C75.2867 240.977 75.5534 240.197 76.0867 239.744C76.5134 239.384 77.0667 239.204 77.7467 239.204C78.1067 239.204 78.4467 239.264 78.7667 239.384V240.784C78.4734 240.664 78.1601 240.604 77.8267 240.604C77.3867 240.604 77.0801 240.751 76.9067 241.044C76.7867 241.244 76.7267 241.644 76.7267 242.244V245.704H78.7667V247.024ZM83.962 247.024H81.922V254.004H80.482V247.024H79.682V245.704H80.482V242.084C80.482 240.977 80.7487 240.197 81.282 239.744C81.7087 239.384 82.262 239.204 82.942 239.204C83.302 239.204 83.642 239.264 83.962 239.384V240.784C83.6687 240.664 83.3554 240.604 83.022 240.604C82.582 240.604 82.2754 240.751 82.102 241.044C81.982 241.244 81.922 241.644 81.922 242.244V245.704H83.962V247.024Z" fill="#0B1530"/>
<rect x="212.5" y="225.504" width="70.9977" height="43" rx="21.5" stroke="#457BF8" stroke-width="3"/>
<rect x="217" y="230.004" width="61.9976" height="34" rx="17" fill="white"/>
<rect x="217" y="230.004" width="61.9976" height="34" rx="17" stroke="#457BF8" stroke-width="2"/>
<rect x="220" y="233.004" width="27.9976" height="28" rx="13.9988" fill="#457BF8"/>
<path d="M291.198 240.664V246.084H298.038V240.664H299.518V254.004H298.038V247.484H291.198V254.004H289.718V240.664H291.198ZM308.96 246.884V245.704H310.4V254.004H308.96V252.844C308.24 253.777 307.293 254.244 306.12 254.244C305 254.244 304.046 253.857 303.26 253.084C302.473 252.311 302.08 251.231 302.08 249.844C302.08 248.484 302.466 247.424 303.24 246.664C304.026 245.891 304.986 245.504 306.12 245.504C307.32 245.504 308.266 245.964 308.96 246.884ZM306.28 246.784C305.52 246.784 304.873 247.057 304.34 247.604C303.82 248.137 303.56 248.884 303.56 249.844C303.56 250.764 303.8 251.517 304.28 252.104C304.773 252.677 305.44 252.964 306.28 252.964C307.12 252.964 307.786 252.664 308.28 252.064C308.786 251.464 309.04 250.731 309.04 249.864C309.04 248.877 308.76 248.117 308.2 247.584C307.64 247.051 307 246.784 306.28 246.784ZM314.207 247.824L313.207 247.004C313.527 246.537 313.88 246.191 314.267 245.964C314.787 245.657 315.394 245.504 316.087 245.504C316.927 245.504 317.58 245.697 318.047 246.084C318.527 246.497 318.767 247.024 318.767 247.664C318.767 248.437 318.454 249.017 317.827 249.404C318.227 249.497 318.547 249.677 318.787 249.944C319.174 250.357 319.367 250.864 319.367 251.464C319.367 252.357 319.007 253.071 318.287 253.604C317.7 254.031 316.914 254.244 315.927 254.244C315.047 254.244 314.307 254.011 313.707 253.544C313.254 253.211 312.887 252.737 312.607 252.124L313.847 251.604C313.994 251.977 314.24 252.291 314.587 252.544C314.96 252.824 315.414 252.964 315.947 252.964C316.574 252.964 317.04 252.857 317.347 252.644C317.734 252.391 317.927 252.004 317.927 251.484C317.927 251.057 317.76 250.737 317.427 250.524C317.147 250.337 316.694 250.244 316.067 250.244H315.227V248.924H315.927C316.434 248.924 316.794 248.851 317.007 248.704C317.3 248.517 317.447 248.264 317.447 247.944C317.447 247.571 317.327 247.284 317.087 247.084C316.86 246.884 316.507 246.784 316.027 246.784C315.614 246.784 315.234 246.891 314.887 247.104C314.594 247.291 314.367 247.531 314.207 247.824ZM321.565 245.704H324.705C325.465 245.704 326.045 245.864 326.445 246.184C326.925 246.571 327.165 247.091 327.165 247.744C327.165 248.464 326.865 249.017 326.265 249.404C326.678 249.511 327.025 249.697 327.305 249.964C327.745 250.391 327.965 250.924 327.965 251.564C327.965 252.364 327.678 252.991 327.105 253.444C326.611 253.817 325.958 254.004 325.145 254.004H321.565V245.704ZM323.005 249.084H324.525C324.911 249.084 325.218 249.004 325.445 248.844C325.711 248.644 325.845 248.357 325.845 247.984C325.845 247.651 325.711 247.384 325.445 247.184C325.245 247.051 324.858 246.984 324.285 246.984H323.005V249.084ZM323.005 252.724H324.785C325.398 252.724 325.831 252.631 326.085 252.444C326.405 252.204 326.565 251.897 326.565 251.524C326.565 251.124 326.425 250.811 326.145 250.584C325.891 250.384 325.458 250.284 324.845 250.284H323.005V252.724ZM336.518 246.884V245.704H337.958V254.004H336.518V252.844C335.798 253.777 334.852 254.244 333.678 254.244C332.558 254.244 331.605 253.857 330.818 253.084C330.032 252.311 329.638 251.231 329.638 249.844C329.638 248.484 330.025 247.424 330.798 246.664C331.585 245.891 332.545 245.504 333.678 245.504C334.878 245.504 335.825 245.964 336.518 246.884ZM333.838 246.784C333.078 246.784 332.432 247.057 331.898 247.604C331.378 248.137 331.118 248.884 331.118 249.844C331.118 250.764 331.358 251.517 331.838 252.104C332.332 252.677 332.998 252.964 333.838 252.964C334.678 252.964 335.345 252.664 335.838 252.064C336.345 251.464 336.598 250.731 336.598 249.864C336.598 248.877 336.318 248.117 335.758 247.584C335.198 247.051 334.558 246.784 333.838 246.784ZM340.686 254.004V245.704H342.126V249.104H346.046V245.704H347.486V254.004H346.046V250.424H342.126V254.004H340.686ZM350.197 245.704H351.637V251.184L357.317 245.064V254.004H355.877V248.464L350.197 254.584V245.704ZM366.201 251.224L367.401 251.884C367.121 252.417 366.781 252.864 366.381 253.224C365.621 253.904 364.701 254.244 363.621 254.244C362.501 254.244 361.534 253.884 360.721 253.164C359.921 252.431 359.521 251.344 359.521 249.904C359.521 248.637 359.881 247.591 360.601 246.764C361.334 245.924 362.314 245.504 363.541 245.504C364.928 245.504 365.974 246.011 366.681 247.024C367.241 247.824 367.501 248.864 367.461 250.144H361.001C361.014 250.984 361.274 251.664 361.781 252.184C362.288 252.704 362.908 252.964 363.641 252.964C364.294 252.964 364.861 252.764 365.341 252.364C365.714 252.044 366.001 251.664 366.201 251.224ZM361.101 248.944H365.981C365.861 248.291 365.574 247.771 365.121 247.384C364.681 246.984 364.154 246.784 363.541 246.784C362.941 246.784 362.408 246.991 361.941 247.404C361.488 247.804 361.208 248.317 361.101 248.944Z" fill="#0B1530"/>
<path d="M7.48 320.004V318.124H7.12C6.17333 318.124 5.32667 318.011 4.58 317.784C3.84667 317.557 3.26 317.271 2.82 316.924C2.38 316.577 2.01333 316.164 1.72 315.684C1.44 315.204 1.24667 314.744 1.14 314.304C1.04667 313.851 1 313.391 1 312.924C1 312.457 1.04667 312.004 1.14 311.564C1.24667 311.111 1.44 310.644 1.72 310.164C2.01333 309.684 2.38 309.271 2.82 308.924C3.26 308.577 3.84667 308.291 4.58 308.064C5.32667 307.837 6.17333 307.724 7.12 307.724H7.48V306.124H8.96V307.724H9.32C10.2667 307.724 11.1067 307.837 11.84 308.064C12.5867 308.291 13.18 308.577 13.62 308.924C14.06 309.271 14.42 309.684 14.7 310.164C14.9933 310.644 15.1867 311.111 15.28 311.564C15.3867 312.004 15.44 312.457 15.44 312.924C15.44 313.391 15.3867 313.851 15.28 314.304C15.1867 314.744 14.9933 315.204 14.7 315.684C14.42 316.164 14.06 316.577 13.62 316.924C13.18 317.271 12.5867 317.557 11.84 317.784C11.1067 318.011 10.2667 318.124 9.32 318.124H8.96V320.004H7.48ZM7.48 316.724V309.124H7.08C6.21333 309.124 5.46667 309.237 4.84 309.464C4.21333 309.691 3.74 310.004 3.42 310.404C3.1 310.791 2.86667 311.191 2.72 311.604C2.58667 312.017 2.52 312.457 2.52 312.924C2.52 313.391 2.58667 313.831 2.72 314.244C2.86667 314.657 3.1 315.064 3.42 315.464C3.74 315.851 4.21333 316.157 4.84 316.384C5.46667 316.611 6.21333 316.724 7.08 316.724H7.48ZM8.96 309.124V316.724H9.36C10.2267 316.724 10.9733 316.611 11.6 316.384C12.2267 316.157 12.7 315.851 13.02 315.464C13.34 315.064 13.5667 314.657 13.7 314.244C13.8467 313.831 13.92 313.391 13.92 312.924C13.92 312.457 13.8467 312.017 13.7 311.604C13.5667 311.191 13.34 310.791 13.02 310.404C12.7 310.004 12.2267 309.691 11.6 309.464C10.9733 309.237 10.2267 309.124 9.36 309.124H8.96ZM24.8253 319.004C23.9986 319.831 22.952 320.244 21.6853 320.244C20.4186 320.244 19.3653 319.831 18.5253 319.004C17.6986 318.177 17.2853 317.137 17.2853 315.884C17.2853 314.617 17.6986 313.571 18.5253 312.744C19.3653 311.917 20.4186 311.504 21.6853 311.504C22.952 311.504 23.9986 311.917 24.8253 312.744C25.6653 313.571 26.0853 314.617 26.0853 315.884C26.0853 317.137 25.6653 318.177 24.8253 319.004ZM23.7453 313.604C23.1853 313.057 22.4986 312.784 21.6853 312.784C20.872 312.784 20.1786 313.064 19.6053 313.624C19.0453 314.171 18.7653 314.924 18.7653 315.884C18.7653 316.844 19.052 317.597 19.6253 318.144C20.1986 318.691 20.8853 318.964 21.6853 318.964C22.4853 318.964 23.172 318.691 23.7453 318.144C24.3186 317.597 24.6053 316.844 24.6053 315.884C24.6053 314.911 24.3186 314.151 23.7453 313.604ZM28.2936 311.704H29.7336V315.104L33.0936 311.704H34.8536L31.2536 315.404L35.2936 320.004H33.4136L30.1736 316.364L29.7336 316.784V320.004H28.2936V311.704ZM36.7111 324.604L39.3511 319.224L35.5311 311.704H37.1711L40.1111 317.644L42.8111 311.704H44.4111L38.3111 324.604H36.7111ZM52.4303 312.304V314.024C51.777 313.197 50.9103 312.784 49.8303 312.784C49.017 312.784 48.3236 313.064 47.7503 313.624C47.177 314.171 46.8903 314.924 46.8903 315.884C46.8903 316.844 47.177 317.597 47.7503 318.144C48.3236 318.691 49.0103 318.964 49.8103 318.964C50.877 318.964 51.7703 318.531 52.4903 317.664V319.384C51.7036 319.957 50.8236 320.244 49.8503 320.244C48.557 320.244 47.4903 319.837 46.6503 319.024C45.8236 318.197 45.4103 317.157 45.4103 315.904C45.4103 314.637 45.8303 313.591 46.6703 312.764C47.5103 311.924 48.5703 311.504 49.8503 311.504C50.8103 311.504 51.6703 311.771 52.4303 312.304ZM70.8678 318.264C69.5345 319.584 67.8945 320.244 65.9478 320.244C64.0011 320.244 62.3545 319.584 61.0078 318.264C59.6745 316.944 59.0078 315.304 59.0078 313.344C59.0078 311.371 59.6811 309.731 61.0278 308.424C62.3745 307.104 64.0145 306.444 65.9478 306.444C67.8811 306.444 69.5211 307.104 70.8678 308.424C72.2145 309.731 72.8878 311.371 72.8878 313.344C72.8878 315.304 72.2145 316.944 70.8678 318.264ZM69.7878 309.444C68.7345 308.377 67.4545 307.844 65.9478 307.844C64.4411 307.844 63.1611 308.377 62.1078 309.444C61.0545 310.511 60.5278 311.811 60.5278 313.344C60.5278 314.877 61.0545 316.177 62.1078 317.244C63.1611 318.311 64.4411 318.844 65.9478 318.844C67.4545 318.844 68.7345 318.311 69.7878 317.244C70.8411 316.177 71.3678 314.877 71.3678 313.344C71.3678 311.811 70.8411 310.511 69.7878 309.444ZM75.2467 320.004V311.704H76.6867V312.664C77.2734 311.891 78.0667 311.504 79.0667 311.504C80.1334 311.504 80.9267 311.884 81.4467 312.644C81.7667 313.111 81.9267 313.851 81.9267 314.864V320.004H80.4867V314.904C80.4867 314.224 80.3601 313.717 80.1067 313.384C79.8001 312.984 79.3467 312.784 78.7467 312.784C78.1334 312.784 77.6467 312.997 77.2867 313.424C76.8867 313.891 76.6867 314.637 76.6867 315.664V320.004H75.2467Z" fill="#0B1530"/>
<rect x="212.5" y="291.504" width="70.9977" height="43" rx="21.5" stroke="#457BF8" stroke-width="3"/>
<rect x="217" y="296.004" width="61.9976" height="34" rx="17" fill="white"/>
<rect x="217" y="296.004" width="61.9976" height="34" rx="17" stroke="#457BF8" stroke-width="2"/>
<rect x="220" y="299.004" width="27.9976" height="28" rx="13.9988" fill="#457BF8"/>
<path d="M291.198 306.664V312.084H298.038V306.664H299.518V320.004H298.038V313.484H291.198V320.004H289.718V306.664H291.198ZM308.96 312.884V311.704H310.4V320.004H308.96V318.844C308.24 319.777 307.293 320.244 306.12 320.244C305 320.244 304.046 319.857 303.26 319.084C302.473 318.311 302.08 317.231 302.08 315.844C302.08 314.484 302.466 313.424 303.24 312.664C304.026 311.891 304.986 311.504 306.12 311.504C307.32 311.504 308.266 311.964 308.96 312.884ZM306.28 312.784C305.52 312.784 304.873 313.057 304.34 313.604C303.82 314.137 303.56 314.884 303.56 315.844C303.56 316.764 303.8 317.517 304.28 318.104C304.773 318.677 305.44 318.964 306.28 318.964C307.12 318.964 307.786 318.664 308.28 318.064C308.786 317.464 309.04 316.731 309.04 315.864C309.04 314.877 308.76 314.117 308.2 313.584C307.64 313.051 307 312.784 306.28 312.784ZM314.207 313.824L313.207 313.004C313.527 312.537 313.88 312.191 314.267 311.964C314.787 311.657 315.394 311.504 316.087 311.504C316.927 311.504 317.58 311.697 318.047 312.084C318.527 312.497 318.767 313.024 318.767 313.664C318.767 314.437 318.454 315.017 317.827 315.404C318.227 315.497 318.547 315.677 318.787 315.944C319.174 316.357 319.367 316.864 319.367 317.464C319.367 318.357 319.007 319.071 318.287 319.604C317.7 320.031 316.914 320.244 315.927 320.244C315.047 320.244 314.307 320.011 313.707 319.544C313.254 319.211 312.887 318.737 312.607 318.124L313.847 317.604C313.994 317.977 314.24 318.291 314.587 318.544C314.96 318.824 315.414 318.964 315.947 318.964C316.574 318.964 317.04 318.857 317.347 318.644C317.734 318.391 317.927 318.004 317.927 317.484C317.927 317.057 317.76 316.737 317.427 316.524C317.147 316.337 316.694 316.244 316.067 316.244H315.227V314.924H315.927C316.434 314.924 316.794 314.851 317.007 314.704C317.3 314.517 317.447 314.264 317.447 313.944C317.447 313.571 317.327 313.284 317.087 313.084C316.86 312.884 316.507 312.784 316.027 312.784C315.614 312.784 315.234 312.891 314.887 313.104C314.594 313.291 314.367 313.531 314.207 313.824ZM321.565 311.704H324.705C325.465 311.704 326.045 311.864 326.445 312.184C326.925 312.571 327.165 313.091 327.165 313.744C327.165 314.464 326.865 315.017 326.265 315.404C326.678 315.511 327.025 315.697 327.305 315.964C327.745 316.391 327.965 316.924 327.965 317.564C327.965 318.364 327.678 318.991 327.105 319.444C326.611 319.817 325.958 320.004 325.145 320.004H321.565V311.704ZM323.005 315.084H324.525C324.911 315.084 325.218 315.004 325.445 314.844C325.711 314.644 325.845 314.357 325.845 313.984C325.845 313.651 325.711 313.384 325.445 313.184C325.245 313.051 324.858 312.984 324.285 312.984H323.005V315.084ZM323.005 318.724H324.785C325.398 318.724 325.831 318.631 326.085 318.444C326.405 318.204 326.565 317.897 326.565 317.524C326.565 317.124 326.425 316.811 326.145 316.584C325.891 316.384 325.458 316.284 324.845 316.284H323.005V318.724ZM336.518 312.884V311.704H337.958V320.004H336.518V318.844C335.798 319.777 334.852 320.244 333.678 320.244C332.558 320.244 331.605 319.857 330.818 319.084C330.032 318.311 329.638 317.231 329.638 315.844C329.638 314.484 330.025 313.424 330.798 312.664C331.585 311.891 332.545 311.504 333.678 311.504C334.878 311.504 335.825 311.964 336.518 312.884ZM333.838 312.784C333.078 312.784 332.432 313.057 331.898 313.604C331.378 314.137 331.118 314.884 331.118 315.844C331.118 316.764 331.358 317.517 331.838 318.104C332.332 318.677 332.998 318.964 333.838 318.964C334.678 318.964 335.345 318.664 335.838 318.064C336.345 317.464 336.598 316.731 336.598 315.864C336.598 314.877 336.318 314.117 335.758 313.584C335.198 313.051 334.558 312.784 333.838 312.784ZM340.686 320.004V311.704H342.126V315.104H346.046V311.704H347.486V320.004H346.046V316.424H342.126V320.004H340.686ZM350.197 311.704H351.637V317.184L357.317 311.064V320.004H355.877V314.464L350.197 320.584V311.704ZM366.201 317.224L367.401 317.884C367.121 318.417 366.781 318.864 366.381 319.224C365.621 319.904 364.701 320.244 363.621 320.244C362.501 320.244 361.534 319.884 360.721 319.164C359.921 318.431 359.521 317.344 359.521 315.904C359.521 314.637 359.881 313.591 360.601 312.764C361.334 311.924 362.314 311.504 363.541 311.504C364.928 311.504 365.974 312.011 366.681 313.024C367.241 313.824 367.501 314.864 367.461 316.144H361.001C361.014 316.984 361.274 317.664 361.781 318.184C362.288 318.704 362.908 318.964 363.641 318.964C364.294 318.964 364.861 318.764 365.341 318.364C365.714 318.044 366.001 317.664 366.201 317.224ZM361.101 314.944H365.981C365.861 314.291 365.574 313.771 365.121 313.384C364.681 312.984 364.154 312.784 363.541 312.784C362.941 312.784 362.408 312.991 361.941 313.404C361.488 313.804 361.208 314.317 361.101 314.944Z" fill="#0B1530"/>
<path d="M3.2 367.664V373.084H10.04V367.664H11.52V381.004H10.04V374.484H3.2V381.004H1.72V367.664H3.2ZM20.7622 378.224L21.9622 378.884C21.6822 379.417 21.3422 379.864 20.9422 380.224C20.1822 380.904 19.2622 381.244 18.1822 381.244C17.0622 381.244 16.0955 380.884 15.2822 380.164C14.4822 379.431 14.0822 378.344 14.0822 376.904C14.0822 375.637 14.4422 374.591 15.1622 373.764C15.8955 372.924 16.8755 372.504 18.1022 372.504C19.4889 372.504 20.5355 373.011 21.2422 374.024C21.8022 374.824 22.0622 375.864 22.0222 377.144H15.5622C15.5755 377.984 15.8355 378.664 16.3422 379.184C16.8489 379.704 17.4689 379.964 18.2022 379.964C18.8555 379.964 19.4222 379.764 19.9022 379.364C20.2755 379.044 20.5622 378.664 20.7622 378.224ZM15.6622 375.944H20.5422C20.4222 375.291 20.1355 374.771 19.6822 374.384C19.2422 373.984 18.7155 373.784 18.1022 373.784C17.5022 373.784 16.9689 373.991 16.5022 374.404C16.0489 374.804 15.7689 375.317 15.6622 375.944ZM30.5911 373.884V372.704H32.0311V381.004H30.5911V379.844C29.8711 380.777 28.9244 381.244 27.7511 381.244C26.6311 381.244 25.6778 380.857 24.8911 380.084C24.1044 379.311 23.7111 378.231 23.7111 376.844C23.7111 375.484 24.0978 374.424 24.8711 373.664C25.6578 372.891 26.6178 372.504 27.7511 372.504C28.9511 372.504 29.8978 372.964 30.5911 373.884ZM27.9111 373.784C27.1511 373.784 26.5044 374.057 25.9711 374.604C25.4511 375.137 25.1911 375.884 25.1911 376.844C25.1911 377.764 25.4311 378.517 25.9111 379.104C26.4044 379.677 27.0711 379.964 27.9111 379.964C28.7511 379.964 29.4178 379.664 29.9111 379.064C30.4178 378.464 30.6711 377.731 30.6711 376.864C30.6711 375.877 30.3911 375.117 29.8311 374.584C29.2711 374.051 28.6311 373.784 27.9111 373.784ZM34.7584 372.704H36.1984V376.104L39.5584 372.704H41.3184L37.7184 376.404L41.7584 381.004H39.8784L36.6384 377.364L36.1984 377.784V381.004H34.7584V372.704ZM48.6359 374.024H46.0359V381.004H44.5959V374.024H41.9959V372.704H48.6359V374.024ZM50.1491 372.704H51.5891V378.184L57.2691 372.064V381.004H55.8291V375.464L50.1491 381.584V372.704ZM59.9928 372.704H63.1328C63.8928 372.704 64.4728 372.864 64.8728 373.184C65.3528 373.571 65.5928 374.091 65.5928 374.744C65.5928 375.464 65.2928 376.017 64.6928 376.404C65.1061 376.511 65.4528 376.697 65.7328 376.964C66.1728 377.391 66.3928 377.924 66.3928 378.564C66.3928 379.364 66.1061 379.991 65.5328 380.444C65.0395 380.817 64.3861 381.004 63.5728 381.004H59.9928V372.704ZM61.4328 376.084H62.9528C63.3395 376.084 63.6461 376.004 63.8728 375.844C64.1395 375.644 64.2728 375.357 64.2728 374.984C64.2728 374.651 64.1395 374.384 63.8728 374.184C63.6728 374.051 63.2861 373.984 62.7128 373.984H61.4328V376.084ZM61.4328 379.724H63.2128C63.8261 379.724 64.2595 379.631 64.5128 379.444C64.8328 379.204 64.9928 378.897 64.9928 378.524C64.9928 378.124 64.8528 377.811 64.5728 377.584C64.3195 377.384 63.8861 377.284 63.2728 377.284H61.4328V379.724ZM74.7466 378.224L75.9466 378.884C75.6666 379.417 75.3266 379.864 74.9266 380.224C74.1666 380.904 73.2466 381.244 72.1666 381.244C71.0466 381.244 70.0799 380.884 69.2666 380.164C68.4666 379.431 68.0666 378.344 68.0666 376.904C68.0666 375.637 68.4266 374.591 69.1466 373.764C69.8799 372.924 70.8599 372.504 72.0866 372.504C73.4732 372.504 74.5199 373.011 75.2266 374.024C75.7866 374.824 76.0466 375.864 76.0066 377.144H69.5466C69.5599 377.984 69.8199 378.664 70.3266 379.184C70.8332 379.704 71.4532 379.964 72.1866 379.964C72.8399 379.964 73.4066 379.764 73.8866 379.364C74.2599 379.044 74.5466 378.664 74.7466 378.224ZM69.6466 375.944H74.5266C74.4066 375.291 74.1199 374.771 73.6666 374.384C73.2266 373.984 72.6999 373.784 72.0866 373.784C71.4866 373.784 70.9532 373.991 70.4866 374.404C70.0332 374.804 69.7532 375.317 69.6466 375.944ZM78.2155 381.004V372.704H79.6555V376.104H83.5755V372.704H85.0155V381.004H83.5755V377.424H79.6555V381.004H78.2155Z" fill="#0B1530"/>
<rect x="217" y="357.004" width="61.9976" height="34" rx="17" fill="#EAF0FE"/>
<rect x="217" y="357.004" width="61.9976" height="34" rx="17" stroke="#C1D3FD" stroke-width="2"/>
<rect x="220" y="360.004" width="27.9976" height="28" rx="13.9988" fill="#C1D3FD"/>
<path d="M291.198 367.664V373.084H298.038V367.664H299.518V381.004H298.038V374.484H291.198V381.004H289.718V367.664H291.198ZM308.96 373.884V372.704H310.4V381.004H308.96V379.844C308.24 380.777 307.293 381.244 306.12 381.244C305 381.244 304.046 380.857 303.26 380.084C302.473 379.311 302.08 378.231 302.08 376.844C302.08 375.484 302.466 374.424 303.24 373.664C304.026 372.891 304.986 372.504 306.12 372.504C307.32 372.504 308.266 372.964 308.96 373.884ZM306.28 373.784C305.52 373.784 304.873 374.057 304.34 374.604C303.82 375.137 303.56 375.884 303.56 376.844C303.56 377.764 303.8 378.517 304.28 379.104C304.773 379.677 305.44 379.964 306.28 379.964C307.12 379.964 307.786 379.664 308.28 379.064C308.786 378.464 309.04 377.731 309.04 376.864C309.04 375.877 308.76 375.117 308.2 374.584C307.64 374.051 307 373.784 306.28 373.784ZM314.207 374.824L313.207 374.004C313.527 373.537 313.88 373.191 314.267 372.964C314.787 372.657 315.394 372.504 316.087 372.504C316.927 372.504 317.58 372.697 318.047 373.084C318.527 373.497 318.767 374.024 318.767 374.664C318.767 375.437 318.454 376.017 317.827 376.404C318.227 376.497 318.547 376.677 318.787 376.944C319.174 377.357 319.367 377.864 319.367 378.464C319.367 379.357 319.007 380.071 318.287 380.604C317.7 381.031 316.914 381.244 315.927 381.244C315.047 381.244 314.307 381.011 313.707 380.544C313.254 380.211 312.887 379.737 312.607 379.124L313.847 378.604C313.994 378.977 314.24 379.291 314.587 379.544C314.96 379.824 315.414 379.964 315.947 379.964C316.574 379.964 317.04 379.857 317.347 379.644C317.734 379.391 317.927 379.004 317.927 378.484C317.927 378.057 317.76 377.737 317.427 377.524C317.147 377.337 316.694 377.244 316.067 377.244H315.227V375.924H315.927C316.434 375.924 316.794 375.851 317.007 375.704C317.3 375.517 317.447 375.264 317.447 374.944C317.447 374.571 317.327 374.284 317.087 374.084C316.86 373.884 316.507 373.784 316.027 373.784C315.614 373.784 315.234 373.891 314.887 374.104C314.594 374.291 314.367 374.531 314.207 374.824ZM321.565 372.704H324.705C325.465 372.704 326.045 372.864 326.445 373.184C326.925 373.571 327.165 374.091 327.165 374.744C327.165 375.464 326.865 376.017 326.265 376.404C326.678 376.511 327.025 376.697 327.305 376.964C327.745 377.391 327.965 377.924 327.965 378.564C327.965 379.364 327.678 379.991 327.105 380.444C326.611 380.817 325.958 381.004 325.145 381.004H321.565V372.704ZM323.005 376.084H324.525C324.911 376.084 325.218 376.004 325.445 375.844C325.711 375.644 325.845 375.357 325.845 374.984C325.845 374.651 325.711 374.384 325.445 374.184C325.245 374.051 324.858 373.984 324.285 373.984H323.005V376.084ZM323.005 379.724H324.785C325.398 379.724 325.831 379.631 326.085 379.444C326.405 379.204 326.565 378.897 326.565 378.524C326.565 378.124 326.425 377.811 326.145 377.584C325.891 377.384 325.458 377.284 324.845 377.284H323.005V379.724ZM336.518 373.884V372.704H337.958V381.004H336.518V379.844C335.798 380.777 334.852 381.244 333.678 381.244C332.558 381.244 331.605 380.857 330.818 380.084C330.032 379.311 329.638 378.231 329.638 376.844C329.638 375.484 330.025 374.424 330.798 373.664C331.585 372.891 332.545 372.504 333.678 372.504C334.878 372.504 335.825 372.964 336.518 373.884ZM333.838 373.784C333.078 373.784 332.432 374.057 331.898 374.604C331.378 375.137 331.118 375.884 331.118 376.844C331.118 377.764 331.358 378.517 331.838 379.104C332.332 379.677 332.998 379.964 333.838 379.964C334.678 379.964 335.345 379.664 335.838 379.064C336.345 378.464 336.598 377.731 336.598 376.864C336.598 375.877 336.318 375.117 335.758 374.584C335.198 374.051 334.558 373.784 333.838 373.784ZM340.686 381.004V372.704H342.126V376.104H346.046V372.704H347.486V381.004H346.046V377.424H342.126V381.004H340.686ZM350.197 372.704H351.637V378.184L357.317 372.064V381.004H355.877V375.464L350.197 381.584V372.704ZM366.201 378.224L367.401 378.884C367.121 379.417 366.781 379.864 366.381 380.224C365.621 380.904 364.701 381.244 363.621 381.244C362.501 381.244 361.534 380.884 360.721 380.164C359.921 379.431 359.521 378.344 359.521 376.904C359.521 375.637 359.881 374.591 360.601 373.764C361.334 372.924 362.314 372.504 363.541 372.504C364.928 372.504 365.974 373.011 366.681 374.024C367.241 374.824 367.501 375.864 367.461 377.144H361.001C361.014 377.984 361.274 378.664 361.781 379.184C362.288 379.704 362.908 379.964 363.641 379.964C364.294 379.964 364.861 379.764 365.341 379.364C365.714 379.044 366.001 378.664 366.201 378.224ZM361.101 375.944H365.981C365.861 375.291 365.574 374.771 365.121 374.384C364.681 373.984 364.154 373.784 363.541 373.784C362.941 373.784 362.408 373.991 361.941 374.404C361.488 374.804 361.208 375.317 361.101 375.944Z" fill="#B6B9C1"/>
</svg>
