<svg width="415" height="114" viewBox="0 0 415 114" fill="none" xmlns="http://www.w3.org/2000/svg">
<rect width="415" height="114" rx="24" fill="#F5F6F8"/>
<g filter="url(#filter0_d_903_2824)">
<rect x="104" y="32" width="207" height="42" rx="8" fill="white"/>
<path d="M118.56 47.328V51.904L123.104 47.328H124.704L119.712 52.304L124.864 58H123.232L118.864 53.104L118.56 53.408V58H117.376V47.328H118.56ZM131.126 57.2C130.465 57.8613 129.627 58.192 128.614 58.192C127.601 58.192 126.758 57.8613 126.086 57.2C125.425 56.5387 125.094 55.7067 125.094 54.704C125.094 53.6907 125.425 52.8533 126.086 52.192C126.758 51.5307 127.601 51.2 128.614 51.2C129.627 51.2 130.465 51.5307 131.126 52.192C131.798 52.8533 132.134 53.6907 132.134 54.704C132.134 55.7067 131.798 56.5387 131.126 57.2ZM130.262 52.88C129.814 52.4427 129.265 52.224 128.614 52.224C127.963 52.224 127.409 52.448 126.95 52.896C126.502 53.3333 126.278 53.936 126.278 54.704C126.278 55.472 126.507 56.0747 126.966 56.512C127.425 56.9493 127.974 57.168 128.614 57.168C129.254 57.168 129.803 56.9493 130.262 56.512C130.721 56.0747 130.95 55.472 130.95 54.704C130.95 53.9253 130.721 53.3173 130.262 52.88ZM135.053 57.072V61.68H133.901V51.36H135.053V52.288C135.639 51.5627 136.397 51.2 137.325 51.2C138.317 51.2 139.101 51.552 139.677 52.256C140.263 52.9493 140.557 53.7707 140.557 54.72C140.557 55.68 140.269 56.5013 139.693 57.184C139.117 57.856 138.343 58.192 137.373 58.192C136.402 58.192 135.629 57.8187 135.053 57.072ZM137.213 57.168C137.863 57.168 138.386 56.9333 138.781 56.464C139.175 55.984 139.373 55.4027 139.373 54.72C139.373 53.952 139.154 53.344 138.717 52.896C138.279 52.448 137.773 52.224 137.197 52.224C136.621 52.224 136.109 52.448 135.661 52.896C135.213 53.344 134.989 53.9467 134.989 54.704C134.989 55.3973 135.191 55.984 135.597 56.464C136.013 56.9333 136.551 57.168 137.213 57.168ZM147.938 57.2C147.277 57.8613 146.44 58.192 145.426 58.192C144.413 58.192 143.57 57.8613 142.898 57.2C142.237 56.5387 141.906 55.7067 141.906 54.704C141.906 53.6907 142.237 52.8533 142.898 52.192C143.57 51.5307 144.413 51.2 145.426 51.2C146.44 51.2 147.277 51.5307 147.938 52.192C148.61 52.8533 148.946 53.6907 148.946 54.704C148.946 55.7067 148.61 56.5387 147.938 57.2ZM147.074 52.88C146.626 52.4427 146.077 52.224 145.426 52.224C144.776 52.224 144.221 52.448 143.762 52.896C143.314 53.3333 143.09 53.936 143.09 54.704C143.09 55.472 143.32 56.0747 143.778 56.512C144.237 56.9493 144.786 57.168 145.426 57.168C146.066 57.168 146.616 56.9493 147.074 56.512C147.533 56.0747 147.762 55.472 147.762 54.704C147.762 53.9253 147.533 53.3173 147.074 52.88ZM154.909 52.416H152.829V58H151.677V52.416H149.597V51.36H154.909V52.416ZM156.119 51.36H157.271V54.08L159.959 51.36H161.367L158.487 54.32L161.719 58H160.215L157.623 55.088L157.271 55.424V58H156.119V51.36ZM162.869 51.36H164.021V55.744L168.565 50.848V58H167.413V53.568L162.869 58.464V51.36ZM170.744 51.36H171.896V55.744L176.44 50.848V58H175.288V53.568L170.744 58.464V51.36ZM171.32 48.496L172.28 48.128C172.472 48.768 172.926 49.088 173.64 49.088C174.355 49.088 174.808 48.768 175 48.128L175.96 48.496C175.79 48.976 175.496 49.3547 175.08 49.632C174.675 49.9093 174.195 50.048 173.64 50.048C173.086 50.048 172.6 49.9093 172.184 49.632C171.779 49.3547 171.491 48.976 171.32 48.496ZM182.354 51.36H187.698V58H186.546V52.416H183.506V58H182.354V51.36ZM195.485 57.2C194.824 57.8613 193.987 58.192 192.973 58.192C191.96 58.192 191.117 57.8613 190.445 57.2C189.784 56.5387 189.453 55.7067 189.453 54.704C189.453 53.6907 189.784 52.8533 190.445 52.192C191.117 51.5307 191.96 51.2 192.973 51.2C193.987 51.2 194.824 51.5307 195.485 52.192C196.157 52.8533 196.493 53.6907 196.493 54.704C196.493 55.7067 196.157 56.5387 195.485 57.2ZM194.621 52.88C194.173 52.4427 193.624 52.224 192.973 52.224C192.323 52.224 191.768 52.448 191.309 52.896C190.861 53.3333 190.637 53.936 190.637 54.704C190.637 55.472 190.867 56.0747 191.325 56.512C191.784 56.9493 192.333 57.168 192.973 57.168C193.613 57.168 194.163 56.9493 194.621 56.512C195.08 56.0747 195.309 55.472 195.309 54.704C195.309 53.9253 195.08 53.3173 194.621 52.88ZM197.492 58L199.556 55.264C199.492 55.264 199.401 55.2533 199.284 55.232C199.177 55.2107 199.017 55.1573 198.804 55.072C198.591 54.9867 198.415 54.8747 198.276 54.736C197.924 54.4053 197.748 53.9627 197.748 53.408C197.748 52.7787 197.945 52.2827 198.34 51.92C198.735 51.5467 199.385 51.36 200.292 51.36H202.612V58H201.46V55.328H200.756L198.868 58H197.492ZM201.46 54.368V52.384H200.388C199.887 52.384 199.54 52.4427 199.348 52.56C199.071 52.7413 198.932 53.0133 198.932 53.376C198.932 53.7387 199.071 54.0053 199.348 54.176C199.551 54.304 199.892 54.368 200.372 54.368H201.46ZM209.991 51.84V53.216C209.468 52.5547 208.775 52.224 207.911 52.224C207.26 52.224 206.706 52.448 206.247 52.896C205.788 53.3333 205.559 53.936 205.559 54.704C205.559 55.472 205.788 56.0747 206.247 56.512C206.706 56.9493 207.255 57.168 207.895 57.168C208.748 57.168 209.463 56.8213 210.039 56.128V57.504C209.41 57.9627 208.706 58.192 207.927 58.192C206.892 58.192 206.039 57.8667 205.367 57.216C204.706 56.5547 204.375 55.7227 204.375 54.72C204.375 53.7067 204.711 52.8693 205.383 52.208C206.055 51.536 206.903 51.2 207.927 51.2C208.695 51.2 209.383 51.4133 209.991 51.84ZM211.807 58V51.36H212.959V54.08H216.095V51.36H217.247V58H216.095V55.136H212.959V58H211.807ZM218.648 58L220.712 55.264C220.648 55.264 220.557 55.2533 220.44 55.232C220.333 55.2107 220.173 55.1573 219.96 55.072C219.747 54.9867 219.571 54.8747 219.432 54.736C219.08 54.4053 218.904 53.9627 218.904 53.408C218.904 52.7787 219.101 52.2827 219.496 51.92C219.891 51.5467 220.541 51.36 221.448 51.36H223.768V58H222.616V55.328H221.912L220.024 58H218.648ZM222.616 54.368V52.384H221.544C221.043 52.384 220.696 52.4427 220.504 52.56C220.227 52.7413 220.088 53.0133 220.088 53.376C220.088 53.7387 220.227 54.0053 220.504 54.176C220.707 54.304 221.048 54.368 221.528 54.368H222.616ZM227.099 54.08H228.299C228.406 53.3333 228.705 52.704 229.195 52.192C229.825 51.5307 230.662 51.2 231.707 51.2C232.731 51.2 233.574 51.5307 234.235 52.192C234.897 52.8533 235.227 53.6907 235.227 54.704C235.227 55.7067 234.891 56.5387 234.219 57.2C233.558 57.8613 232.721 58.192 231.707 58.192C230.545 58.192 229.633 57.776 228.971 56.944C228.545 56.4107 228.299 55.808 228.235 55.136H227.099V58H225.947V51.36H227.099V54.08ZM231.707 52.224C231.067 52.224 230.523 52.448 230.075 52.896C229.638 53.3333 229.419 53.936 229.419 54.704C229.419 55.4827 229.643 56.0907 230.091 56.528C230.539 56.9547 231.078 57.168 231.707 57.168C232.347 57.168 232.897 56.9493 233.355 56.512C233.814 56.0747 234.043 55.472 234.043 54.704C234.043 53.936 233.814 53.3333 233.355 52.896C232.907 52.448 232.358 52.224 231.707 52.224ZM236.994 58V51.36H238.146V56.944H240.706V51.36H241.858V56.944H244.418V51.36H245.57V56.944H246.658V59.76H245.602V58H236.994ZM247.869 51.36H249.021V55.744L253.565 50.848V58H252.413V53.568L247.869 58.464V51.36ZM255.744 51.36H256.896V55.744L261.44 50.848V58H260.288V53.568L255.744 58.464V51.36ZM256.32 48.496L257.28 48.128C257.472 48.768 257.926 49.088 258.64 49.088C259.355 49.088 259.808 48.768 260 48.128L260.96 48.496C260.79 48.976 260.496 49.3547 260.08 49.632C259.675 49.9093 259.195 50.048 258.64 50.048C258.086 50.048 257.6 49.9093 257.184 49.632C256.779 49.3547 256.491 48.976 256.32 48.496ZM271.706 52.416H269.626V58H268.474V52.416H266.394V51.36H271.706V52.416ZM277.688 55.776L278.648 56.304C278.424 56.7307 278.152 57.088 277.832 57.376C277.224 57.92 276.488 58.192 275.624 58.192C274.728 58.192 273.955 57.904 273.304 57.328C272.664 56.7413 272.344 55.872 272.344 54.72C272.344 53.7067 272.632 52.8693 273.208 52.208C273.795 51.536 274.579 51.2 275.56 51.2C276.669 51.2 277.507 51.6053 278.072 52.416C278.52 53.056 278.728 53.888 278.696 54.912H273.528C273.539 55.584 273.747 56.128 274.152 56.544C274.557 56.96 275.053 57.168 275.64 57.168C276.163 57.168 276.616 57.008 277 56.688C277.299 56.432 277.528 56.128 277.688 55.776ZM273.608 53.952H277.512C277.416 53.4293 277.187 53.0133 276.824 52.704C276.472 52.384 276.051 52.224 275.56 52.224C275.08 52.224 274.653 52.3893 274.28 52.72C273.917 53.04 273.693 53.4507 273.608 53.952ZM280.463 51.36H281.615V54.08L284.303 51.36H285.711L282.831 54.32L286.063 58H284.559L281.967 55.088L281.615 55.424V58H280.463V51.36ZM292.069 51.84V53.216C291.547 52.5547 290.853 52.224 289.989 52.224C289.339 52.224 288.784 52.448 288.325 52.896C287.867 53.3333 287.637 53.936 287.637 54.704C287.637 55.472 287.867 56.0747 288.325 56.512C288.784 56.9493 289.333 57.168 289.973 57.168C290.827 57.168 291.541 56.8213 292.117 56.128V57.504C291.488 57.9627 290.784 58.192 290.005 58.192C288.971 58.192 288.117 57.8667 287.445 57.216C286.784 56.5547 286.453 55.7227 286.453 54.72C286.453 53.7067 286.789 52.8693 287.461 52.208C288.133 51.536 288.981 51.2 290.005 51.2C290.773 51.2 291.461 51.4133 292.069 51.84ZM298.237 52.416H296.157V58H295.005V52.416H292.925V51.36H298.237V52.416Z" fill="#0B1530"/>
<path d="M207.5 82L199.5 74L215.5 74L207.5 82Z" fill="white"/>
</g>
<defs>
<filter id="filter0_d_903_2824" x="92" y="20" width="231" height="74" filterUnits="userSpaceOnUse" color-interpolation-filters="sRGB">
<feFlood flood-opacity="0" result="BackgroundImageFix"/>
<feColorMatrix in="SourceAlpha" type="matrix" values="0 0 0 0 0 0 0 0 0 0 0 0 0 0 0 0 0 0 127 0" result="hardAlpha"/>
<feOffset/>
<feGaussianBlur stdDeviation="6"/>
<feComposite in2="hardAlpha" operator="out"/>
<feColorMatrix type="matrix" values="0 0 0 0 0 0 0 0 0 0 0 0 0 0 0 0 0 0 0.07 0"/>
<feBlend mode="normal" in2="BackgroundImageFix" result="effect1_dropShadow_903_2824"/>
<feBlend mode="normal" in="SourceGraphic" in2="effect1_dropShadow_903_2824" result="shape"/>
</filter>
</defs>
</svg>
