<svg width="768" height="280" viewBox="0 0 768 280" fill="none" xmlns="http://www.w3.org/2000/svg">
<path d="M0 0H744C757.255 0 768 10.7452 768 24V256C768 269.255 757.255 280 744 280H24C10.7452 280 0 269.255 0 256V0Z" fill="#F5F6F8"/>
<g filter="url(#filter0_d_877_2498)">
<rect x="280" y="103" width="207" height="42" rx="8" fill="white"/>
<path d="M294.56 118.328V122.904L299.104 118.328H300.704L295.712 123.304L300.864 129H299.232L294.864 124.104L294.56 124.408V129H293.376V118.328H294.56ZM307.126 128.2C306.465 128.861 305.627 129.192 304.614 129.192C303.601 129.192 302.758 128.861 302.086 128.2C301.425 127.539 301.094 126.707 301.094 125.704C301.094 124.691 301.425 123.853 302.086 123.192C302.758 122.531 303.601 122.2 304.614 122.2C305.627 122.2 306.465 122.531 307.126 123.192C307.798 123.853 308.134 124.691 308.134 125.704C308.134 126.707 307.798 127.539 307.126 128.2ZM306.262 123.88C305.814 123.443 305.265 123.224 304.614 123.224C303.963 123.224 303.409 123.448 302.95 123.896C302.502 124.333 302.278 124.936 302.278 125.704C302.278 126.472 302.507 127.075 302.966 127.512C303.425 127.949 303.974 128.168 304.614 128.168C305.254 128.168 305.803 127.949 306.262 127.512C306.721 127.075 306.95 126.472 306.95 125.704C306.95 124.925 306.721 124.317 306.262 123.88ZM311.053 128.072V132.68H309.901V122.36H311.053V123.288C311.639 122.563 312.397 122.2 313.325 122.2C314.317 122.2 315.101 122.552 315.677 123.256C316.263 123.949 316.557 124.771 316.557 125.72C316.557 126.68 316.269 127.501 315.693 128.184C315.117 128.856 314.343 129.192 313.373 129.192C312.402 129.192 311.629 128.819 311.053 128.072ZM313.213 128.168C313.863 128.168 314.386 127.933 314.781 127.464C315.175 126.984 315.373 126.403 315.373 125.72C315.373 124.952 315.154 124.344 314.717 123.896C314.279 123.448 313.773 123.224 313.197 123.224C312.621 123.224 312.109 123.448 311.661 123.896C311.213 124.344 310.989 124.947 310.989 125.704C310.989 126.397 311.191 126.984 311.597 127.464C312.013 127.933 312.551 128.168 313.213 128.168ZM323.938 128.2C323.277 128.861 322.44 129.192 321.426 129.192C320.413 129.192 319.57 128.861 318.898 128.2C318.237 127.539 317.906 126.707 317.906 125.704C317.906 124.691 318.237 123.853 318.898 123.192C319.57 122.531 320.413 122.2 321.426 122.2C322.44 122.2 323.277 122.531 323.938 123.192C324.61 123.853 324.946 124.691 324.946 125.704C324.946 126.707 324.61 127.539 323.938 128.2ZM323.074 123.88C322.626 123.443 322.077 123.224 321.426 123.224C320.776 123.224 320.221 123.448 319.762 123.896C319.314 124.333 319.09 124.936 319.09 125.704C319.09 126.472 319.32 127.075 319.778 127.512C320.237 127.949 320.786 128.168 321.426 128.168C322.066 128.168 322.616 127.949 323.074 127.512C323.533 127.075 323.762 126.472 323.762 125.704C323.762 124.925 323.533 124.317 323.074 123.88ZM330.909 123.416H328.829V129H327.677V123.416H325.597V122.36H330.909V123.416ZM332.119 122.36H333.271V125.08L335.959 122.36H337.367L334.487 125.32L337.719 129H336.215L333.623 126.088L333.271 126.424V129H332.119V122.36ZM338.869 122.36H340.021V126.744L344.565 121.848V129H343.413V124.568L338.869 129.464V122.36ZM346.744 122.36H347.896V126.744L352.44 121.848V129H351.288V124.568L346.744 129.464V122.36ZM347.32 119.496L348.28 119.128C348.472 119.768 348.926 120.088 349.64 120.088C350.355 120.088 350.808 119.768 351 119.128L351.96 119.496C351.79 119.976 351.496 120.355 351.08 120.632C350.675 120.909 350.195 121.048 349.64 121.048C349.086 121.048 348.6 120.909 348.184 120.632C347.779 120.355 347.491 119.976 347.32 119.496ZM358.354 122.36H363.698V129H362.546V123.416H359.506V129H358.354V122.36ZM371.485 128.2C370.824 128.861 369.987 129.192 368.973 129.192C367.96 129.192 367.117 128.861 366.445 128.2C365.784 127.539 365.453 126.707 365.453 125.704C365.453 124.691 365.784 123.853 366.445 123.192C367.117 122.531 367.96 122.2 368.973 122.2C369.987 122.2 370.824 122.531 371.485 123.192C372.157 123.853 372.493 124.691 372.493 125.704C372.493 126.707 372.157 127.539 371.485 128.2ZM370.621 123.88C370.173 123.443 369.624 123.224 368.973 123.224C368.323 123.224 367.768 123.448 367.309 123.896C366.861 124.333 366.637 124.936 366.637 125.704C366.637 126.472 366.867 127.075 367.325 127.512C367.784 127.949 368.333 128.168 368.973 128.168C369.613 128.168 370.163 127.949 370.621 127.512C371.08 127.075 371.309 126.472 371.309 125.704C371.309 124.925 371.08 124.317 370.621 123.88ZM373.492 129L375.556 126.264C375.492 126.264 375.401 126.253 375.284 126.232C375.177 126.211 375.017 126.157 374.804 126.072C374.591 125.987 374.415 125.875 374.276 125.736C373.924 125.405 373.748 124.963 373.748 124.408C373.748 123.779 373.945 123.283 374.34 122.92C374.735 122.547 375.385 122.36 376.292 122.36H378.612V129H377.46V126.328H376.756L374.868 129H373.492ZM377.46 125.368V123.384H376.388C375.887 123.384 375.54 123.443 375.348 123.56C375.071 123.741 374.932 124.013 374.932 124.376C374.932 124.739 375.071 125.005 375.348 125.176C375.551 125.304 375.892 125.368 376.372 125.368H377.46ZM385.991 122.84V124.216C385.468 123.555 384.775 123.224 383.911 123.224C383.26 123.224 382.706 123.448 382.247 123.896C381.788 124.333 381.559 124.936 381.559 125.704C381.559 126.472 381.788 127.075 382.247 127.512C382.706 127.949 383.255 128.168 383.895 128.168C384.748 128.168 385.463 127.821 386.039 127.128V128.504C385.41 128.963 384.706 129.192 383.927 129.192C382.892 129.192 382.039 128.867 381.367 128.216C380.706 127.555 380.375 126.723 380.375 125.72C380.375 124.707 380.711 123.869 381.383 123.208C382.055 122.536 382.903 122.2 383.927 122.2C384.695 122.2 385.383 122.413 385.991 122.84ZM387.807 129V122.36H388.959V125.08H392.095V122.36H393.247V129H392.095V126.136H388.959V129H387.807ZM394.648 129L396.712 126.264C396.648 126.264 396.557 126.253 396.44 126.232C396.333 126.211 396.173 126.157 395.96 126.072C395.747 125.987 395.571 125.875 395.432 125.736C395.08 125.405 394.904 124.963 394.904 124.408C394.904 123.779 395.101 123.283 395.496 122.92C395.891 122.547 396.541 122.36 397.448 122.36H399.768V129H398.616V126.328H397.912L396.024 129H394.648ZM398.616 125.368V123.384H397.544C397.043 123.384 396.696 123.443 396.504 123.56C396.227 123.741 396.088 124.013 396.088 124.376C396.088 124.739 396.227 125.005 396.504 125.176C396.707 125.304 397.048 125.368 397.528 125.368H398.616ZM403.099 125.08H404.299C404.406 124.333 404.705 123.704 405.195 123.192C405.825 122.531 406.662 122.2 407.707 122.2C408.731 122.2 409.574 122.531 410.235 123.192C410.897 123.853 411.227 124.691 411.227 125.704C411.227 126.707 410.891 127.539 410.219 128.2C409.558 128.861 408.721 129.192 407.707 129.192C406.545 129.192 405.633 128.776 404.971 127.944C404.545 127.411 404.299 126.808 404.235 126.136H403.099V129H401.947V122.36H403.099V125.08ZM407.707 123.224C407.067 123.224 406.523 123.448 406.075 123.896C405.638 124.333 405.419 124.936 405.419 125.704C405.419 126.483 405.643 127.091 406.091 127.528C406.539 127.955 407.078 128.168 407.707 128.168C408.347 128.168 408.897 127.949 409.355 127.512C409.814 127.075 410.043 126.472 410.043 125.704C410.043 124.936 409.814 124.333 409.355 123.896C408.907 123.448 408.358 123.224 407.707 123.224ZM412.994 129V122.36H414.146V127.944H416.706V122.36H417.858V127.944H420.418V122.36H421.57V127.944H422.658V130.76H421.602V129H412.994ZM423.869 122.36H425.021V126.744L429.565 121.848V129H428.413V124.568L423.869 129.464V122.36ZM431.744 122.36H432.896V126.744L437.44 121.848V129H436.288V124.568L431.744 129.464V122.36ZM432.32 119.496L433.28 119.128C433.472 119.768 433.926 120.088 434.64 120.088C435.355 120.088 435.808 119.768 436 119.128L436.96 119.496C436.79 119.976 436.496 120.355 436.08 120.632C435.675 120.909 435.195 121.048 434.64 121.048C434.086 121.048 433.6 120.909 433.184 120.632C432.779 120.355 432.491 119.976 432.32 119.496ZM447.706 123.416H445.626V129H444.474V123.416H442.394V122.36H447.706V123.416ZM453.688 126.776L454.648 127.304C454.424 127.731 454.152 128.088 453.832 128.376C453.224 128.92 452.488 129.192 451.624 129.192C450.728 129.192 449.955 128.904 449.304 128.328C448.664 127.741 448.344 126.872 448.344 125.72C448.344 124.707 448.632 123.869 449.208 123.208C449.795 122.536 450.579 122.2 451.56 122.2C452.669 122.2 453.507 122.605 454.072 123.416C454.52 124.056 454.728 124.888 454.696 125.912H449.528C449.539 126.584 449.747 127.128 450.152 127.544C450.557 127.96 451.053 128.168 451.64 128.168C452.163 128.168 452.616 128.008 453 127.688C453.299 127.432 453.528 127.128 453.688 126.776ZM449.608 124.952H453.512C453.416 124.429 453.187 124.013 452.824 123.704C452.472 123.384 452.051 123.224 451.56 123.224C451.08 123.224 450.653 123.389 450.28 123.72C449.917 124.04 449.693 124.451 449.608 124.952ZM456.463 122.36H457.615V125.08L460.303 122.36H461.711L458.831 125.32L462.063 129H460.559L457.967 126.088L457.615 126.424V129H456.463V122.36ZM468.069 122.84V124.216C467.547 123.555 466.853 123.224 465.989 123.224C465.339 123.224 464.784 123.448 464.325 123.896C463.867 124.333 463.637 124.936 463.637 125.704C463.637 126.472 463.867 127.075 464.325 127.512C464.784 127.949 465.333 128.168 465.973 128.168C466.827 128.168 467.541 127.821 468.117 127.128V128.504C467.488 128.963 466.784 129.192 466.005 129.192C464.971 129.192 464.117 128.867 463.445 128.216C462.784 127.555 462.453 126.723 462.453 125.72C462.453 124.707 462.789 123.869 463.461 123.208C464.133 122.536 464.981 122.2 466.005 122.2C466.773 122.2 467.461 122.413 468.069 122.84ZM474.237 123.416H472.157V129H471.005V123.416H468.925V122.36H474.237V123.416Z" fill="#0B1530"/>
<path d="M383.5 153L375.5 145L391.5 145L383.5 153Z" fill="white"/>
</g>
<path d="M383.5 170.331C384.364 170.331 385.066 171.032 385.064 171.897C385.064 172.761 384.364 173.46 383.5 173.46C382.636 173.46 381.936 172.761 381.936 171.897C381.936 171.033 382.636 170.333 383.5 170.331ZM382.841 160.117H384.161C384.78 160.117 385.279 160.692 385.279 161.407L384.887 167.744C384.887 168.458 384.387 169.034 383.5 169.034C382.614 169.034 382.115 168.458 382.115 167.744L381.723 161.407C381.723 160.693 382.222 160.117 382.841 160.117ZM383.5 157C378.094 157 373.711 161.382 373.711 166.789C373.711 172.195 378.094 176.577 383.5 176.577C388.906 176.579 393.289 172.195 393.289 166.789C393.289 161.382 388.906 157 383.5 157Z" fill="#6C7383"/>
<defs>
<filter id="filter0_d_877_2498" x="268" y="91" width="231" height="74" filterUnits="userSpaceOnUse" color-interpolation-filters="sRGB">
<feFlood flood-opacity="0" result="BackgroundImageFix"/>
<feColorMatrix in="SourceAlpha" type="matrix" values="0 0 0 0 0 0 0 0 0 0 0 0 0 0 0 0 0 0 127 0" result="hardAlpha"/>
<feOffset/>
<feGaussianBlur stdDeviation="6"/>
<feComposite in2="hardAlpha" operator="out"/>
<feColorMatrix type="matrix" values="0 0 0 0 0 0 0 0 0 0 0 0 0 0 0 0 0 0 0.07 0"/>
<feBlend mode="normal" in2="BackgroundImageFix" result="effect1_dropShadow_877_2498"/>
<feBlend mode="normal" in="SourceGraphic" in2="effect1_dropShadow_877_2498" result="shape"/>
</filter>
</defs>
</svg>
