<svg width="416" height="283" viewBox="0 0 416 283" fill="none" xmlns="http://www.w3.org/2000/svg">
<rect width="416" height="283" rx="24" fill="#F5F6F8"/>
<rect x="274.15" y="239.449" width="35.9061" height="20.7027" rx="3.75176" transform="rotate(-180 274.15 239.449)" fill="#33F7C3"/>
<rect x="274.15" y="239.449" width="35.9061" height="20.7027" rx="3.75176" transform="rotate(-180 274.15 239.449)" stroke="#33F7C3" stroke-width="1.5007"/>
<path d="M245.272 232.063V230.609L248.917 224.866H250.171V226.879H249.429L247.131 230.515V230.583H252.311V232.063H245.272ZM249.463 233.598V231.619L249.497 230.976V224.866H251.228V233.598H249.463ZM253.558 236.053V227.049H255.349V228.149H255.43C255.509 227.973 255.624 227.794 255.775 227.612C255.928 227.427 256.127 227.274 256.372 227.151C256.619 227.026 256.926 226.964 257.293 226.964C257.77 226.964 258.211 227.089 258.614 227.339C259.018 227.586 259.34 227.96 259.582 228.46C259.824 228.958 259.944 229.582 259.944 230.332C259.944 231.062 259.826 231.679 259.591 232.182C259.358 232.682 259.039 233.062 258.636 233.321C258.235 233.576 257.786 233.704 257.288 233.704C256.936 233.704 256.636 233.646 256.389 233.529C256.144 233.413 255.944 233.267 255.788 233.09C255.631 232.911 255.512 232.731 255.43 232.549H255.374V236.053H253.558ZM255.336 230.323C255.336 230.713 255.39 231.052 255.498 231.342C255.606 231.632 255.762 231.858 255.967 232.02C256.171 232.179 256.42 232.259 256.713 232.259C257.008 232.259 257.259 232.178 257.463 232.016C257.668 231.851 257.823 231.624 257.928 231.334C258.036 231.041 258.09 230.704 258.09 230.323C258.09 229.945 258.037 229.613 257.932 229.326C257.827 229.039 257.672 228.814 257.467 228.652C257.263 228.49 257.011 228.409 256.713 228.409C256.417 228.409 256.167 228.487 255.962 228.644C255.761 228.8 255.606 229.022 255.498 229.309C255.39 229.596 255.336 229.934 255.336 230.323ZM262.439 227.049L263.641 229.339L264.873 227.049H266.736L264.839 230.323L266.787 233.598H264.933L263.641 231.334L262.37 233.598H260.494L262.439 230.323L260.563 227.049H262.439Z" fill="#0B1530"/>
<mask id="path-4-inside-1_903_2938" fill="white">
<path d="M207.493 234.098L227.493 234.098L227.493 224.098L207.493 224.098L207.493 234.098Z"/>
</mask>
<path d="M227.493 234.098L229.493 234.098L229.493 236.098L227.493 236.098L227.493 234.098ZM227.493 224.098L227.493 222.098L229.493 222.098L229.493 224.098L227.493 224.098ZM207.493 232.098L227.493 232.098L227.493 236.098L207.493 236.098L207.493 232.098ZM225.493 234.098L225.493 224.098L229.493 224.098L229.493 234.098L225.493 234.098ZM227.493 226.098L207.493 226.098L207.493 222.098L227.493 222.098L227.493 226.098Z" fill="#33F7C3" mask="url(#path-4-inside-1_903_2938)"/>
<path d="M201.407 216.1H79.4067V225.1H209" stroke="#33F7C3" stroke-width="2"/>
<rect x="68.6564" y="230.951" width="35.9061" height="20.7027" rx="3.75176" transform="rotate(-180 68.6564 230.951)" fill="#33F7C3"/>
<rect x="68.6564" y="230.951" width="35.9061" height="20.7027" rx="3.75176" transform="rotate(-180 68.6564 230.951)" stroke="#33F7C3" stroke-width="1.5007"/>
<path d="M43.1683 225.219C42.5117 225.219 41.9276 225.112 41.416 224.899C40.9073 224.683 40.5079 224.389 40.218 224.017C39.9281 223.644 39.7832 223.222 39.7832 222.75C39.7832 222.387 39.8656 222.053 40.0304 221.749C40.1981 221.442 40.4255 221.187 40.7126 220.985C40.9997 220.781 41.3208 220.65 41.6761 220.593V220.534C41.21 220.44 40.832 220.214 40.542 219.856C40.2521 219.495 40.1072 219.075 40.1072 218.598C40.1072 218.146 40.2394 217.744 40.5037 217.391C40.768 217.036 41.1304 216.758 41.5908 216.556C42.0541 216.351 42.5799 216.249 43.1683 216.249C43.7566 216.249 44.281 216.351 44.7415 216.556C45.2047 216.76 45.5686 217.04 45.8329 217.396C46.0972 217.748 46.2308 218.149 46.2336 218.598C46.2308 219.078 46.083 219.498 45.7902 219.856C45.4975 220.214 45.1223 220.44 44.6647 220.534V220.593C45.0143 220.65 45.3312 220.781 45.6155 220.985C45.9025 221.187 46.1299 221.442 46.2976 221.749C46.4681 222.053 46.5548 222.387 46.5577 222.75C46.5548 223.222 46.4084 223.644 46.1185 224.017C45.8286 224.389 45.4279 224.683 44.9163 224.899C44.4075 225.112 43.8248 225.219 43.1683 225.219ZM43.1683 223.863C43.461 223.863 43.7168 223.811 43.9357 223.705C44.1545 223.597 44.3251 223.45 44.4473 223.262C44.5723 223.072 44.6349 222.853 44.6349 222.606C44.6349 222.353 44.5709 222.129 44.443 221.936C44.3151 221.74 44.1417 221.587 43.9229 221.476C43.704 221.362 43.4525 221.305 43.1683 221.305C42.8869 221.305 42.6354 221.362 42.4137 221.476C42.192 221.587 42.0172 221.74 41.8893 221.936C41.7642 222.129 41.7017 222.353 41.7017 222.606C41.7017 222.853 41.7628 223.072 41.885 223.262C42.0072 223.45 42.1792 223.597 42.4009 223.705C42.6226 223.811 42.8784 223.863 43.1683 223.863ZM43.1683 219.962C43.4127 219.962 43.6301 219.913 43.8206 219.813C44.011 219.714 44.1602 219.576 44.2682 219.399C44.3762 219.223 44.4302 219.02 44.4302 218.79C44.4302 218.562 44.3762 218.363 44.2682 218.193C44.1602 218.02 44.0124 217.885 43.8248 217.788C43.6373 217.688 43.4184 217.639 43.1683 217.639C42.921 217.639 42.7022 217.688 42.5117 217.788C42.3213 217.885 42.1721 218.02 42.0641 218.193C41.9589 218.363 41.9063 218.562 41.9063 218.79C41.9063 219.02 41.9603 219.223 42.0683 219.399C42.1763 219.576 42.3256 219.714 42.516 219.813C42.7064 219.913 42.9238 219.962 43.1683 219.962ZM47.8654 227.555V218.551H49.6561V219.651H49.7371C49.8166 219.475 49.9317 219.296 50.0824 219.114C50.2359 218.929 50.4348 218.776 50.6793 218.653C50.9265 218.528 51.2335 218.466 51.6001 218.466C52.0776 218.466 52.5182 218.591 52.9218 218.841C53.3254 219.088 53.648 219.462 53.8896 219.962C54.1312 220.46 54.252 221.084 54.252 221.834C54.252 222.564 54.134 223.181 53.8981 223.684C53.665 224.184 53.3467 224.564 52.9431 224.822C52.5423 225.078 52.0933 225.206 51.5959 225.206C51.2434 225.206 50.9436 225.148 50.6963 225.031C50.4519 224.915 50.2515 224.768 50.0952 224.592C49.9389 224.413 49.8195 224.233 49.7371 224.051H49.6816V227.555H47.8654ZM49.6433 221.825C49.6433 222.215 49.6973 222.554 49.8053 222.844C49.9133 223.134 50.0696 223.36 50.2742 223.522C50.4789 223.681 50.7276 223.761 51.0203 223.761C51.3159 223.761 51.566 223.68 51.7707 223.518C51.9753 223.353 52.1302 223.126 52.2354 222.836C52.3434 222.543 52.3974 222.206 52.3974 221.825C52.3974 221.447 52.3448 221.115 52.2396 220.828C52.1345 220.541 51.9796 220.316 51.7749 220.154C51.5703 219.992 51.3188 219.911 51.0203 219.911C50.7247 219.911 50.4746 219.989 50.27 220.146C50.0682 220.302 49.9133 220.524 49.8053 220.811C49.6973 221.098 49.6433 221.436 49.6433 221.825ZM56.746 218.551L57.9483 220.841L59.1804 218.551H61.0435L59.1463 221.825L61.0947 225.1H59.2401L57.9483 222.836L56.6778 225.1H54.8019L56.746 221.825L54.8701 218.551H56.746Z" fill="#0B1530"/>
<path d="M107.407 123.102H79.4067V133.102H107.407" stroke="#33F7C3" stroke-width="2"/>
<rect x="68.6564" y="138.453" width="41.9061" height="20.7027" rx="3.75176" transform="rotate(-180 68.6564 138.453)" fill="#33F7C3"/>
<rect x="68.6564" y="138.453" width="41.9061" height="20.7027" rx="3.75176" transform="rotate(-180 68.6564 138.453)" stroke="#33F7C3" stroke-width="1.5007"/>
<path d="M37.7097 123.87V132.602H35.8637V125.622H35.8125L33.813 126.876V125.239L35.9746 123.87H37.7097ZM43.2084 132.793C42.4751 132.791 41.8441 132.61 41.3155 132.252C40.7897 131.894 40.3846 131.375 40.1004 130.696C39.819 130.017 39.6798 129.199 39.6826 128.244C39.6826 127.292 39.8233 126.481 40.1047 125.81C40.3889 125.139 40.7939 124.629 41.3197 124.279C41.8484 123.927 42.478 123.751 43.2084 123.751C43.9389 123.751 44.567 123.927 45.0928 124.279C45.6215 124.632 46.0279 125.144 46.3121 125.814C46.5964 126.482 46.7371 127.292 46.7342 128.244C46.7342 129.202 46.5921 130.021 46.3079 130.7C46.0265 131.379 45.6229 131.898 45.0971 132.256C44.5713 132.614 43.9417 132.793 43.2084 132.793ZM43.2084 131.263C43.7086 131.263 44.108 131.011 44.4064 130.508C44.7049 130.005 44.8526 129.251 44.8498 128.244C44.8498 127.582 44.7816 127.031 44.6452 126.59C44.5116 126.15 44.3212 125.819 44.0739 125.597C43.8294 125.375 43.541 125.264 43.2084 125.264C42.711 125.264 42.3131 125.513 42.0147 126.01C41.7162 126.508 41.5656 127.252 41.5628 128.244C41.5628 128.915 41.6295 129.475 41.7631 129.924C41.8996 130.37 42.0914 130.706 42.3387 130.93C42.586 131.152 42.8759 131.263 43.2084 131.263ZM48.0676 135.057V126.053H49.8582V127.153H49.9392C50.0188 126.977 50.1339 126.798 50.2845 126.616C50.438 126.431 50.637 126.278 50.8814 126.155C51.1287 126.03 51.4356 125.968 51.8023 125.968C52.2798 125.968 52.7203 126.093 53.1239 126.343C53.5275 126.59 53.8501 126.964 54.0917 127.464C54.3333 127.962 54.4541 128.585 54.4541 129.336C54.4541 130.066 54.3361 130.683 54.1002 131.186C53.8672 131.686 53.5488 132.066 53.1452 132.324C52.7445 132.58 52.2954 132.708 51.798 132.708C51.4456 132.708 51.1457 132.65 50.8985 132.533C50.654 132.417 50.4536 132.27 50.2973 132.094C50.141 131.915 50.0216 131.735 49.9392 131.553H49.8838V135.057H48.0676ZM49.8454 129.327C49.8454 129.717 49.8994 130.056 50.0074 130.346C50.1154 130.636 50.2717 130.862 50.4764 131.024C50.681 131.183 50.9297 131.263 51.2225 131.263C51.5181 131.263 51.7682 131.182 51.9728 131.02C52.1775 130.855 52.3324 130.628 52.4375 130.338C52.5455 130.045 52.5995 129.708 52.5995 129.327C52.5995 128.949 52.547 128.617 52.4418 128.33C52.3366 128.043 52.1817 127.818 51.9771 127.656C51.7724 127.494 51.5209 127.413 51.2225 127.413C50.9269 127.413 50.6768 127.491 50.4721 127.648C50.2703 127.804 50.1154 128.026 50.0074 128.313C49.8994 128.6 49.8454 128.938 49.8454 129.327ZM56.9482 126.053L58.1504 128.342L59.3825 126.053H61.2456L59.3484 129.327L61.2968 132.602H59.4422L58.1504 130.338L56.8799 132.602H55.0041L56.9482 129.327L55.0723 126.053H56.9482Z" fill="#0B1530"/>
<rect x="380.05" y="107.849" width="40.9061" height="20.7027" rx="3.75176" transform="rotate(-180 380.05 107.849)" fill="#33F7C3"/>
<rect x="380.05" y="107.849" width="40.9061" height="20.7027" rx="3.75176" transform="rotate(-180 380.05 107.849)" stroke="#33F7C3" stroke-width="1.5007"/>
<path d="M350.103 93.2667V101.998H348.257V95.0189H348.206L346.206 96.2724V94.6352L348.368 93.2667H350.103ZM352.178 101.998V100.668L355.286 97.7901C355.551 97.5343 355.772 97.3041 355.951 97.0994C356.133 96.8948 356.271 96.6944 356.365 96.4983C356.459 96.2994 356.506 96.0848 356.506 95.8545C356.506 95.5987 356.447 95.3785 356.331 95.1937C356.214 95.0061 356.055 94.8626 355.853 94.7631C355.651 94.6608 355.423 94.6096 355.167 94.6096C354.9 94.6096 354.667 94.6636 354.468 94.7716C354.269 94.8797 354.115 95.0346 354.007 95.2364C353.899 95.4382 353.845 95.6783 353.845 95.9569H352.093C352.093 95.3856 352.222 94.8896 352.481 94.4689C352.74 94.0483 353.102 93.7229 353.568 93.4926C354.034 93.2624 354.571 93.1473 355.18 93.1473C355.805 93.1473 356.349 93.2582 356.813 93.4798C357.279 93.6987 357.641 94.0028 357.9 94.3922C358.158 94.7816 358.288 95.2278 358.288 95.7309C358.288 96.0606 358.222 96.386 358.092 96.7072C357.964 97.0284 357.735 97.3851 357.405 97.7773C357.075 98.1667 356.611 98.6343 356.011 99.18L354.736 100.429V100.489H358.403V101.998H352.178ZM359.757 104.454V95.4495H361.548V96.5495H361.629C361.709 96.3733 361.824 96.1942 361.974 96.0123C362.128 95.8275 362.327 95.6741 362.571 95.5518C362.819 95.4268 363.125 95.3643 363.492 95.3643C363.97 95.3643 364.41 95.4893 364.814 95.7394C365.217 95.9867 365.54 96.3605 365.782 96.8607C366.023 97.3581 366.144 97.982 366.144 98.7323C366.144 99.4628 366.026 100.08 365.79 100.583C365.557 101.083 365.239 101.462 364.835 101.721C364.434 101.977 363.985 102.105 363.488 102.105C363.135 102.105 362.836 102.046 362.588 101.93C362.344 101.813 362.143 101.667 361.987 101.491C361.831 101.312 361.711 101.131 361.629 100.949H361.574V104.454H359.757ZM361.535 98.7238C361.535 99.1132 361.589 99.4528 361.697 99.7427C361.805 100.033 361.962 100.259 362.166 100.421C362.371 100.58 362.62 100.659 362.912 100.659C363.208 100.659 363.458 100.578 363.663 100.416C363.867 100.251 364.022 100.024 364.127 99.7342C364.235 99.4415 364.289 99.1046 364.289 98.7238C364.289 98.3458 364.237 98.0132 364.132 97.7262C364.026 97.4391 363.872 97.2146 363.667 97.0525C363.462 96.8905 363.211 96.8095 362.912 96.8095C362.617 96.8095 362.367 96.8877 362.162 97.044C361.96 97.2003 361.805 97.422 361.697 97.7091C361.589 97.9962 361.535 98.3344 361.535 98.7238ZM368.638 95.4495L369.84 97.7389L371.072 95.4495H372.935L371.038 98.7238L372.987 101.998H371.132L369.84 99.7342L368.57 101.998H366.694L368.638 98.7238L366.762 95.4495H368.638Z" fill="#0B1530"/>
<path d="M290.393 102.998H328.393V91.998H290.393" stroke="#33F7C3" stroke-width="2"/>
<rect x="380.05" y="220.849" width="40.9061" height="20.7027" rx="3.75176" transform="rotate(-180 380.05 220.849)" fill="#33F7C3"/>
<rect x="380.05" y="220.849" width="40.9061" height="20.7027" rx="3.75176" transform="rotate(-180 380.05 220.849)" stroke="#33F7C3" stroke-width="1.5007"/>
<path d="M350.103 206.267V214.998H348.257V208.019H348.206L346.206 209.272V207.635L348.368 206.267H350.103ZM352.178 214.998V213.668L355.286 210.79C355.551 210.534 355.772 210.304 355.951 210.099C356.133 209.895 356.271 209.694 356.365 209.498C356.459 209.299 356.506 209.085 356.506 208.855C356.506 208.599 356.447 208.378 356.331 208.194C356.214 208.006 356.055 207.863 355.853 207.763C355.651 207.661 355.423 207.61 355.167 207.61C354.9 207.61 354.667 207.664 354.468 207.772C354.269 207.88 354.115 208.035 354.007 208.236C353.899 208.438 353.845 208.678 353.845 208.957H352.093C352.093 208.386 352.222 207.89 352.481 207.469C352.74 207.048 353.102 206.723 353.568 206.493C354.034 206.262 354.571 206.147 355.18 206.147C355.805 206.147 356.349 206.258 356.813 206.48C357.279 206.699 357.641 207.003 357.9 207.392C358.158 207.782 358.288 208.228 358.288 208.731C358.288 209.061 358.222 209.386 358.092 209.707C357.964 210.028 357.735 210.385 357.405 210.777C357.075 211.167 356.611 211.634 356.011 212.18L354.736 213.429V213.489H358.403V214.998H352.178ZM359.757 217.454V208.45H361.548V209.549H361.629C361.709 209.373 361.824 209.194 361.974 209.012C362.128 208.828 362.327 208.674 362.571 208.552C362.819 208.427 363.125 208.364 363.492 208.364C363.97 208.364 364.41 208.489 364.814 208.739C365.217 208.987 365.54 209.36 365.782 209.861C366.023 210.358 366.144 210.982 366.144 211.732C366.144 212.463 366.026 213.08 365.79 213.583C365.557 214.083 365.239 214.462 364.835 214.721C364.434 214.977 363.985 215.105 363.488 215.105C363.135 215.105 362.836 215.046 362.588 214.93C362.344 214.813 362.143 214.667 361.987 214.491C361.831 214.312 361.711 214.131 361.629 213.949H361.574V217.454H359.757ZM361.535 211.724C361.535 212.113 361.589 212.453 361.697 212.743C361.805 213.033 361.962 213.259 362.166 213.421C362.371 213.58 362.62 213.659 362.912 213.659C363.208 213.659 363.458 213.578 363.663 213.416C363.867 213.251 364.022 213.024 364.127 212.734C364.235 212.441 364.289 212.105 364.289 211.724C364.289 211.346 364.237 211.013 364.132 210.726C364.026 210.439 363.872 210.215 363.667 210.053C363.462 209.891 363.211 209.81 362.912 209.81C362.617 209.81 362.367 209.888 362.162 210.044C361.96 210.2 361.805 210.422 361.697 210.709C361.589 210.996 361.535 211.334 361.535 211.724ZM368.638 208.45L369.84 210.739L371.072 208.45H372.935L371.038 211.724L372.987 214.998H371.132L369.84 212.734L368.57 214.998H366.694L368.638 211.724L366.762 208.45H368.638Z" fill="#0B1530"/>
<path d="M290.393 215.998H328.393V204.998H290.393" stroke="#33F7C3" stroke-width="2"/>
<path d="M317.703 120.203V82.2031H281.703V120.203" stroke="#33F7C3" stroke-width="2"/>
<rect x="321.656" y="71.4528" width="43.9061" height="20.7027" rx="3.75176" transform="rotate(-180 321.656 71.4528)" fill="#33F7C3"/>
<rect x="321.656" y="71.4528" width="43.9061" height="20.7027" rx="3.75176" transform="rotate(-180 321.656 71.4528)" stroke="#33F7C3" stroke-width="1.5007"/>
<path d="M288.138 65.7209C287.502 65.7209 286.935 65.6115 286.437 65.3927C285.943 65.171 285.552 64.8668 285.265 64.4803C284.981 64.0909 284.834 63.6418 284.826 63.1331H286.685C286.696 63.3462 286.766 63.5338 286.894 63.6958C287.024 63.855 287.198 63.9786 287.414 64.0668C287.63 64.1549 287.873 64.1989 288.143 64.1989C288.424 64.1989 288.673 64.1492 288.889 64.0497C289.105 63.9502 289.274 63.8124 289.396 63.6362C289.518 63.4599 289.579 63.2567 289.579 63.0265C289.579 62.7934 289.514 62.5874 289.383 62.4083C289.255 62.2264 289.071 62.0843 288.829 61.982C288.59 61.8796 288.306 61.8285 287.976 61.8285H287.162V60.4727H287.976C288.255 60.4727 288.501 60.4244 288.714 60.3278C288.93 60.2311 289.098 60.0976 289.217 59.927C289.336 59.7537 289.396 59.5519 289.396 59.3216C289.396 59.1028 289.344 58.9109 289.238 58.7461C289.136 58.5784 288.991 58.4476 288.804 58.3538C288.619 58.2601 288.403 58.2132 288.156 58.2132C287.905 58.2132 287.677 58.2586 287.469 58.3496C287.262 58.4377 287.095 58.5642 286.97 58.729C286.845 58.8939 286.778 59.0871 286.77 59.3088H285.001C285.009 58.8058 285.153 58.3624 285.431 57.9787C285.71 57.595 286.085 57.2951 286.557 57.0791C287.031 56.8602 287.567 56.7508 288.164 56.7508C288.767 56.7508 289.294 56.8602 289.746 57.0791C290.198 57.298 290.549 57.5935 290.799 57.9659C291.052 58.3354 291.177 58.7503 291.174 59.2108C291.177 59.6996 291.025 60.1075 290.718 60.4344C290.414 60.7612 290.017 60.9687 289.528 61.0568V61.125C290.171 61.2075 290.66 61.4306 290.995 61.7944C291.333 62.1553 291.501 62.6073 291.498 63.1501C291.501 63.6475 291.357 64.0895 291.067 64.476C290.78 64.8626 290.384 65.1667 289.878 65.3884C289.372 65.6101 288.792 65.7209 288.138 65.7209ZM296.176 65.7209C295.727 65.7181 295.293 65.6428 294.876 65.495C294.461 65.3472 294.088 65.107 293.759 64.7745C293.429 64.4419 293.167 64.0014 292.974 63.4528C292.784 62.9043 292.689 62.2307 292.689 61.432C292.691 60.6987 292.775 60.0436 292.94 59.4666C293.108 58.8868 293.347 58.3951 293.656 57.9915C293.969 57.5879 294.343 57.2809 294.778 57.0706C295.212 56.8574 295.7 56.7508 296.24 56.7508C296.823 56.7508 297.337 56.8645 297.783 57.0919C298.229 57.3164 298.588 57.622 298.858 58.0085C299.13 58.3951 299.295 58.8285 299.352 59.3088H297.532C297.461 59.0047 297.311 58.766 297.084 58.5926C296.857 58.4192 296.575 58.3325 296.24 58.3325C295.671 58.3325 295.239 58.5798 294.944 59.0744C294.651 59.5689 294.502 60.2411 294.496 61.0909H294.556C294.687 60.8323 294.863 60.612 295.085 60.4301C295.309 60.2454 295.563 60.1047 295.848 60.008C296.135 59.9086 296.437 59.8588 296.756 59.8588C297.273 59.8588 297.734 59.981 298.137 60.2255C298.541 60.4671 298.859 60.7996 299.092 61.2231C299.325 61.6466 299.442 62.1312 299.442 62.6769C299.442 63.2681 299.304 63.7939 299.028 64.2543C298.755 64.7148 298.373 65.0757 297.881 65.3372C297.392 65.5959 296.824 65.7238 296.176 65.7209ZM296.167 64.2714C296.452 64.2714 296.706 64.2032 296.931 64.0668C297.155 63.9303 297.331 63.7456 297.459 63.5125C297.587 63.2795 297.651 63.018 297.651 62.7281C297.651 62.4381 297.587 62.1781 297.459 61.9479C297.334 61.7176 297.161 61.5343 296.939 61.3979C296.717 61.2615 296.464 61.1932 296.18 61.1932C295.967 61.1932 295.77 61.233 295.588 61.3126C295.409 61.3922 295.251 61.5031 295.114 61.6452C294.981 61.7873 294.876 61.9521 294.799 62.1397C294.722 62.3245 294.684 62.522 294.684 62.7323C294.684 63.0137 294.748 63.2709 294.876 63.504C295.006 63.7371 295.183 63.9232 295.404 64.0625C295.629 64.2018 295.883 64.2714 296.167 64.2714ZM300.768 68.0573V59.053H302.558V60.153H302.639C302.719 59.9768 302.834 59.7977 302.985 59.6158C303.138 59.4311 303.337 59.2776 303.581 59.1554C303.829 59.0303 304.136 58.9678 304.502 58.9678C304.98 58.9678 305.42 59.0928 305.824 59.3429C306.228 59.5902 306.55 59.964 306.792 60.4642C307.033 60.9616 307.154 61.5855 307.154 62.3358C307.154 63.0663 307.036 63.683 306.8 64.1861C306.567 64.6864 306.249 65.0658 305.845 65.3244C305.445 65.5802 304.995 65.7081 304.498 65.7081C304.146 65.7081 303.846 65.6499 303.598 65.5333C303.354 65.4168 303.154 65.2704 302.997 65.0942C302.841 64.9152 302.722 64.7347 302.639 64.5528H302.584V68.0573H300.768ZM302.545 62.3273C302.545 62.7167 302.599 63.0563 302.707 63.3462C302.815 63.6362 302.972 63.8621 303.176 64.0241C303.381 64.1833 303.63 64.2629 303.922 64.2629C304.218 64.2629 304.468 64.1819 304.673 64.0199C304.877 63.855 305.032 63.6276 305.138 63.3377C305.246 63.045 305.3 62.7082 305.3 62.3273C305.3 61.9493 305.247 61.6167 305.142 61.3297C305.037 61.0426 304.882 60.8181 304.677 60.6561C304.472 60.4941 304.221 60.4131 303.922 60.4131C303.627 60.4131 303.377 60.4912 303.172 60.6475C302.97 60.8039 302.815 61.0256 302.707 61.3126C302.599 61.5997 302.545 61.9379 302.545 62.3273ZM309.648 59.053L310.85 61.3425L312.083 59.053H313.946L312.048 62.3273L313.997 65.6016H312.142L310.85 63.3377L309.58 65.6016H307.704L309.648 62.3273L307.772 59.053H309.648Z" fill="#0B1530"/>
<rect x="332.656" y="257.453" width="40.9061" height="20.7027" rx="3.75176" transform="rotate(-180 332.656 257.453)" fill="#33F7C3"/>
<rect x="332.656" y="257.453" width="40.9061" height="20.7027" rx="3.75176" transform="rotate(-180 332.656 257.453)" stroke="#33F7C3" stroke-width="1.5007"/>
<path d="M302.71 242.87V251.602H300.864V244.622H300.813L298.813 245.876V244.239L300.975 242.87H302.71ZM304.785 251.602V250.271L307.893 247.394C308.157 247.138 308.379 246.908 308.558 246.703C308.74 246.498 308.878 246.298 308.972 246.102C309.065 245.903 309.112 245.688 309.112 245.458C309.112 245.202 309.054 244.982 308.937 244.797C308.821 244.61 308.662 244.466 308.46 244.367C308.258 244.264 308.029 244.213 307.774 244.213C307.506 244.213 307.273 244.267 307.074 244.375C306.875 244.483 306.722 244.638 306.614 244.84C306.506 245.042 306.452 245.282 306.452 245.56H304.7C304.7 244.989 304.829 244.493 305.088 244.072C305.346 243.652 305.709 243.326 306.175 243.096C306.641 242.866 307.178 242.751 307.786 242.751C308.412 242.751 308.956 242.862 309.419 243.083C309.885 243.302 310.248 243.606 310.506 243.996C310.765 244.385 310.894 244.831 310.894 245.334C310.894 245.664 310.829 245.99 310.698 246.311C310.57 246.632 310.342 246.989 310.012 247.381C309.682 247.77 309.217 248.238 308.618 248.783L307.343 250.033V250.092H311.009V251.602H304.785ZM312.364 254.057V245.053H314.155V246.153H314.236C314.315 245.977 314.43 245.798 314.581 245.616C314.735 245.431 314.934 245.278 315.178 245.155C315.425 245.03 315.732 244.968 316.099 244.968C316.576 244.968 317.017 245.093 317.42 245.343C317.824 245.59 318.147 245.964 318.388 246.464C318.63 246.962 318.751 247.585 318.751 248.336C318.751 249.066 318.633 249.683 318.397 250.186C318.164 250.686 317.845 251.066 317.442 251.324C317.041 251.58 316.592 251.708 316.095 251.708C315.742 251.708 315.442 251.65 315.195 251.533C314.951 251.417 314.75 251.27 314.594 251.094C314.438 250.915 314.318 250.735 314.236 250.553H314.18V254.057H312.364ZM314.142 248.327C314.142 248.717 314.196 249.056 314.304 249.346C314.412 249.636 314.568 249.862 314.773 250.024C314.978 250.183 315.226 250.263 315.519 250.263C315.815 250.263 316.065 250.182 316.269 250.02C316.474 249.855 316.629 249.628 316.734 249.338C316.842 249.045 316.896 248.708 316.896 248.327C316.896 247.949 316.843 247.617 316.738 247.33C316.633 247.043 316.478 246.818 316.274 246.656C316.069 246.494 315.817 246.413 315.519 246.413C315.223 246.413 314.973 246.491 314.769 246.648C314.567 246.804 314.412 247.026 314.304 247.313C314.196 247.6 314.142 247.938 314.142 248.327ZM321.245 245.053L322.447 247.342L323.679 245.053H325.542L323.645 248.327L325.593 251.602H323.739L322.447 249.338L321.176 251.602H319.301L321.245 248.327L319.369 245.053H321.245Z" fill="#0B1530"/>
<path d="M306.703 188V226H317.703V188" stroke="#33F7C3" stroke-width="2"/>
<path d="M108.703 120.203V82.2031H97.7034V120.203" stroke="#33F7C3" stroke-width="2"/>
<rect x="123.656" y="71.4528" width="40.9061" height="20.7027" rx="3.75176" transform="rotate(-180 123.656 71.4528)" fill="#33F7C3"/>
<rect x="123.656" y="71.4528" width="40.9061" height="20.7027" rx="3.75176" transform="rotate(-180 123.656 71.4528)" stroke="#33F7C3" stroke-width="1.5007"/>
<path d="M93.7097 56.8702V65.6016H91.8637V58.6224H91.8125L89.813 59.8759V58.2387L91.9746 56.8702H93.7097ZM95.7849 65.6016V64.2714L98.8929 61.3936C99.1573 61.1378 99.3789 60.9076 99.558 60.703C99.7399 60.4983 99.8778 60.2979 99.9716 60.1018C100.065 59.9029 100.112 59.6883 100.112 59.4581C100.112 59.2023 100.054 58.982 99.9374 58.7972C99.8209 58.6096 99.6618 58.4661 99.46 58.3666C99.2582 58.2643 99.0294 58.2132 98.7736 58.2132C98.5064 58.2132 98.2733 58.2672 98.0744 58.3752C97.8754 58.4832 97.7219 58.6381 97.6139 58.8399C97.5059 59.0417 97.4519 59.2818 97.4519 59.5604H95.6997C95.6997 58.9891 95.829 58.4931 96.0876 58.0725C96.3463 57.6518 96.7087 57.3264 97.1748 57.0962C97.6409 56.8659 98.1781 56.7508 98.7863 56.7508C99.4116 56.7508 99.9559 56.8617 100.419 57.0834C100.885 57.3022 101.248 57.6063 101.506 57.9957C101.765 58.3851 101.894 58.8313 101.894 59.3344C101.894 59.6641 101.829 59.9896 101.698 60.3107C101.57 60.6319 101.342 60.9886 101.012 61.3808C100.682 61.7702 100.217 62.2378 99.6177 62.7835L98.343 64.0326V64.0923H102.009V65.6016H95.7849ZM103.364 68.0573V59.053H105.155V60.153H105.236C105.315 59.9768 105.43 59.7977 105.581 59.6158C105.735 59.4311 105.934 59.2776 106.178 59.1554C106.425 59.0303 106.732 58.9678 107.099 58.9678C107.576 58.9678 108.017 59.0928 108.42 59.3429C108.824 59.5902 109.147 59.964 109.388 60.4642C109.63 60.9616 109.751 61.5855 109.751 62.3358C109.751 63.0663 109.633 63.683 109.397 64.1861C109.164 64.6864 108.845 65.0658 108.442 65.3244C108.041 65.5802 107.592 65.7081 107.095 65.7081C106.742 65.7081 106.442 65.6499 106.195 65.5333C105.951 65.4168 105.75 65.2704 105.594 65.0942C105.438 64.9152 105.318 64.7347 105.236 64.5528H105.18V68.0573H103.364ZM105.142 62.3273C105.142 62.7167 105.196 63.0563 105.304 63.3462C105.412 63.6362 105.568 63.8621 105.773 64.0241C105.978 64.1833 106.226 64.2629 106.519 64.2629C106.815 64.2629 107.065 64.1819 107.269 64.0199C107.474 63.855 107.629 63.6276 107.734 63.3377C107.842 63.045 107.896 62.7082 107.896 62.3273C107.896 61.9493 107.843 61.6167 107.738 61.3297C107.633 61.0426 107.478 60.8181 107.274 60.6561C107.069 60.4941 106.817 60.4131 106.519 60.4131C106.223 60.4131 105.973 60.4912 105.769 60.6475C105.567 60.8039 105.412 61.0256 105.304 61.3126C105.196 61.5997 105.142 61.9379 105.142 62.3273ZM112.245 59.053L113.447 61.3425L114.679 59.053H116.542L114.645 62.3273L116.593 65.6016H114.739L113.447 63.3377L112.176 65.6016H110.301L112.245 62.3273L110.369 59.053H112.245Z" fill="#0B1530"/>
<path d="M214.703 120.203V82.2031H198.703V120.203" stroke="#33F7C3" stroke-width="2"/>
<rect x="227.656" y="71.4528" width="41.9061" height="20.7027" rx="3.75176" transform="rotate(-180 227.656 71.4528)" fill="#33F7C3"/>
<rect x="227.656" y="71.4528" width="41.9061" height="20.7027" rx="3.75176" transform="rotate(-180 227.656 71.4528)" stroke="#33F7C3" stroke-width="1.5007"/>
<path d="M196.71 56.8702V65.6016H194.864V58.6224H194.813L192.813 59.8759V58.2387L194.975 56.8702H196.71ZM202.136 65.7209C201.687 65.7181 201.253 65.6428 200.836 65.495C200.421 65.3472 200.048 65.107 199.719 64.7745C199.389 64.4419 199.127 64.0014 198.934 63.4528C198.744 62.9043 198.649 62.2307 198.649 61.432C198.651 60.6987 198.735 60.0436 198.9 59.4666C199.068 58.8868 199.306 58.3951 199.616 57.9915C199.929 57.5879 200.303 57.2809 200.738 57.0706C201.172 56.8574 201.66 56.7508 202.2 56.7508C202.783 56.7508 203.297 56.8645 203.743 57.0919C204.189 57.3164 204.548 57.622 204.818 58.0085C205.09 58.3951 205.255 58.8285 205.312 59.3088H203.492C203.421 59.0047 203.271 58.766 203.044 58.5926C202.817 58.4192 202.535 58.3325 202.2 58.3325C201.631 58.3325 201.199 58.5798 200.904 59.0744C200.611 59.5689 200.462 60.2411 200.456 61.0909H200.516C200.647 60.8323 200.823 60.612 201.045 60.4301C201.269 60.2454 201.523 60.1047 201.808 60.008C202.095 59.9086 202.397 59.8588 202.716 59.8588C203.233 59.8588 203.693 59.981 204.097 60.2255C204.501 60.4671 204.819 60.7996 205.052 61.2231C205.285 61.6466 205.402 62.1312 205.402 62.6769C205.402 63.2681 205.264 63.7939 204.988 64.2543C204.715 64.7148 204.333 65.0757 203.841 65.3372C203.352 65.5959 202.784 65.7238 202.136 65.7209ZM202.127 64.2714C202.412 64.2714 202.666 64.2032 202.891 64.0668C203.115 63.9303 203.291 63.7456 203.419 63.5125C203.547 63.2795 203.611 63.018 203.611 62.7281C203.611 62.4381 203.547 62.1781 203.419 61.9479C203.294 61.7176 203.121 61.5343 202.899 61.3979C202.677 61.2615 202.424 61.1932 202.14 61.1932C201.927 61.1932 201.729 61.233 201.548 61.3126C201.369 61.3922 201.211 61.5031 201.074 61.6452C200.941 61.7873 200.836 61.9521 200.759 62.1397C200.682 62.3245 200.644 62.522 200.644 62.7323C200.644 63.0137 200.708 63.2709 200.836 63.504C200.966 63.7371 201.143 63.9232 201.364 64.0625C201.589 64.2018 201.843 64.2714 202.127 64.2714ZM206.728 68.0573V59.053H208.518V60.153H208.599C208.679 59.9768 208.794 59.7977 208.945 59.6158C209.098 59.4311 209.297 59.2776 209.541 59.1554C209.789 59.0303 210.096 58.9678 210.462 58.9678C210.94 58.9678 211.38 59.0928 211.784 59.3429C212.188 59.5902 212.51 59.964 212.752 60.4642C212.993 60.9616 213.114 61.5855 213.114 62.3358C213.114 63.0663 212.996 63.683 212.76 64.1861C212.527 64.6864 212.209 65.0658 211.805 65.3244C211.404 65.5802 210.955 65.7081 210.458 65.7081C210.106 65.7081 209.806 65.6499 209.558 65.5333C209.314 65.4168 209.114 65.2704 208.957 65.0942C208.801 64.9152 208.682 64.7347 208.599 64.5528H208.544V68.0573H206.728ZM208.505 62.3273C208.505 62.7167 208.559 63.0563 208.667 63.3462C208.775 63.6362 208.932 63.8621 209.136 64.0241C209.341 64.1833 209.59 64.2629 209.882 64.2629C210.178 64.2629 210.428 64.1819 210.633 64.0199C210.837 63.855 210.992 63.6276 211.098 63.3377C211.206 63.045 211.26 62.7082 211.26 62.3273C211.26 61.9493 211.207 61.6167 211.102 61.3297C210.997 61.0426 210.842 60.8181 210.637 60.6561C210.432 60.4941 210.181 60.4131 209.882 60.4131C209.587 60.4131 209.337 60.4912 209.132 60.6475C208.93 60.8039 208.775 61.0256 208.667 61.3126C208.559 61.5997 208.505 61.9379 208.505 62.3273ZM215.608 59.053L216.81 61.3425L218.043 59.053H219.906L218.008 62.3273L219.957 65.6016H218.102L216.81 63.3377L215.54 65.6016H213.664L215.608 62.3273L213.732 59.053H215.608Z" fill="#0B1530"/>
<g filter="url(#filter0_d_903_2938)">
<rect x="96" y="91" width="223" height="126" rx="8" fill="white"/>
<g clip-path="url(#clip0_903_2938)">
<path d="M110.192 111.744L109.12 110.704C109.515 110.181 109.973 109.797 110.496 109.552C111.029 109.285 111.675 109.152 112.432 109.152C113.499 109.152 114.325 109.435 114.912 110C115.424 110.501 115.68 111.125 115.68 111.872C115.68 112.384 115.563 112.827 115.328 113.2C115.104 113.584 114.784 113.893 114.368 114.128C114.955 114.277 115.435 114.592 115.808 115.072C116.171 115.531 116.352 116.133 116.352 116.88C116.352 117.84 115.995 118.635 115.28 119.264C114.555 119.883 113.595 120.192 112.4 120.192C111.387 120.192 110.512 119.915 109.776 119.36C109.2 118.912 108.747 118.336 108.416 117.632L109.856 116.896C110.069 117.44 110.4 117.872 110.848 118.192C111.317 118.523 111.904 118.688 112.608 118.688C113.312 118.688 113.856 118.496 114.24 118.112C114.581 117.771 114.752 117.333 114.752 116.8C114.752 116.245 114.544 115.829 114.128 115.552C113.733 115.275 113.088 115.136 112.192 115.136H111.232V113.6H112.096C112.779 113.6 113.291 113.456 113.632 113.168C113.952 112.901 114.112 112.539 114.112 112.08C114.112 111.6 113.941 111.232 113.6 110.976C113.323 110.763 112.912 110.656 112.368 110.656C111.856 110.656 111.424 110.757 111.072 110.96C110.731 111.152 110.437 111.413 110.192 111.744ZM123.045 114.048V113.264H124.613V120H123.045V119.296C122.522 119.904 121.85 120.208 121.029 120.208C120.037 120.208 119.242 119.856 118.645 119.152C118.058 118.448 117.765 117.605 117.765 116.624C117.765 115.557 118.08 114.704 118.709 114.064C119.349 113.413 120.128 113.088 121.045 113.088C121.888 113.088 122.554 113.408 123.045 114.048ZM121.237 114.496C120.682 114.496 120.229 114.704 119.877 115.12C119.536 115.536 119.365 116.048 119.365 116.656C119.365 117.253 119.536 117.76 119.877 118.176C120.229 118.592 120.682 118.8 121.237 118.8C121.77 118.8 122.218 118.613 122.581 118.24C122.954 117.867 123.141 117.344 123.141 116.672C123.141 115.979 122.954 115.445 122.581 115.072C122.218 114.688 121.77 114.496 121.237 114.496ZM126.601 120V113.264H130.729V114.704H128.169V120H126.601ZM132.367 114.096C133.06 113.424 133.919 113.088 134.943 113.088C135.967 113.088 136.82 113.424 137.503 114.096C138.196 114.757 138.543 115.605 138.543 116.64C138.543 117.664 138.196 118.517 137.503 119.2C136.82 119.872 135.967 120.208 134.943 120.208C133.919 120.208 133.06 119.872 132.367 119.2C131.684 118.517 131.343 117.664 131.343 116.64C131.343 115.605 131.684 114.757 132.367 114.096ZM133.487 118.224C133.85 118.608 134.335 118.8 134.943 118.8C135.551 118.8 136.036 118.608 136.399 118.224C136.762 117.829 136.943 117.307 136.943 116.656C136.943 115.941 136.746 115.403 136.351 115.04C135.967 114.677 135.498 114.496 134.943 114.496C134.388 114.496 133.914 114.677 133.519 115.04C133.135 115.403 132.943 115.941 132.943 116.656C132.943 117.307 133.124 117.829 133.487 118.224ZM145.716 113.264V120H144.148V114.704H142.164V117.376C142.164 118.208 141.95 118.853 141.524 119.312C140.98 119.92 140.244 120.149 139.316 120V118.56C139.774 118.667 140.142 118.565 140.42 118.256C140.58 118.064 140.66 117.771 140.66 117.376V113.264H145.716ZM148.367 114.096C149.06 113.424 149.919 113.088 150.943 113.088C151.967 113.088 152.82 113.424 153.503 114.096C154.196 114.757 154.543 115.605 154.543 116.64C154.543 117.664 154.196 118.517 153.503 119.2C152.82 119.872 151.967 120.208 150.943 120.208C149.919 120.208 149.06 119.872 148.367 119.2C147.684 118.517 147.343 117.664 147.343 116.64C147.343 115.605 147.684 114.757 148.367 114.096ZM149.487 118.224C149.85 118.608 150.335 118.8 150.943 118.8C151.551 118.8 152.036 118.608 152.399 118.224C152.762 117.829 152.943 117.307 152.943 116.656C152.943 115.941 152.746 115.403 152.351 115.04C151.967 114.677 151.498 114.496 150.943 114.496C150.388 114.496 149.914 114.677 149.519 115.04C149.135 115.403 148.943 115.941 148.943 116.656C148.943 117.307 149.124 117.829 149.487 118.224ZM156.18 113.264H158.82C159.492 113.264 160.004 113.397 160.356 113.664C160.772 113.995 160.98 114.427 160.98 114.96C160.98 115.568 160.713 116.005 160.18 116.272C160.521 116.336 160.825 116.485 161.092 116.72C161.444 117.04 161.62 117.472 161.62 118.016C161.62 118.667 161.374 119.179 160.884 119.552C160.478 119.851 159.961 120 159.332 120H156.18V113.264ZM157.748 115.888H158.548C158.825 115.888 159.033 115.84 159.172 115.744C159.374 115.616 159.476 115.435 159.476 115.2C159.476 114.976 159.385 114.8 159.204 114.672C159.076 114.587 158.846 114.544 158.516 114.544H157.748V115.888ZM157.748 118.72H158.916C159.268 118.72 159.54 118.656 159.732 118.528C159.945 118.389 160.052 118.192 160.052 117.936C160.052 117.659 159.95 117.461 159.748 117.344C159.566 117.227 159.305 117.168 158.964 117.168H157.748V118.72ZM163.93 114.096C164.623 113.424 165.482 113.088 166.506 113.088C167.53 113.088 168.383 113.424 169.066 114.096C169.759 114.757 170.106 115.605 170.106 116.64C170.106 117.664 169.759 118.517 169.066 119.2C168.383 119.872 167.53 120.208 166.506 120.208C165.482 120.208 164.623 119.872 163.93 119.2C163.247 118.517 162.906 117.664 162.906 116.64C162.906 115.605 163.247 114.757 163.93 114.096ZM165.05 118.224C165.412 118.608 165.898 118.8 166.506 118.8C167.114 118.8 167.599 118.608 167.962 118.224C168.324 117.829 168.506 117.307 168.506 116.656C168.506 115.941 168.308 115.403 167.914 115.04C167.53 114.677 167.06 114.496 166.506 114.496C165.951 114.496 165.476 114.677 165.082 115.04C164.698 115.403 164.506 115.941 164.506 116.656C164.506 117.307 164.687 117.829 165.05 118.224ZM171.742 113.264H173.31V115.664L175.55 113.264H177.63L174.686 116.208L177.79 120H175.806L173.566 117.232L173.31 117.488V120H171.742V113.264Z" fill="#0B1530"/>
</g>
<path d="M288 108L302 122" stroke="#B6B9C1" stroke-width="2" stroke-linecap="round"/>
<path d="M302 108L288 122" stroke="#B6B9C1" stroke-width="2" stroke-linecap="round"/>
<path d="M110.304 136.328H116.8V145.88H118.016V149.24H116.896V147H109.344V149.24H108.224V145.88C108.587 145.891 108.917 145.763 109.216 145.496C109.515 145.219 109.749 144.867 109.92 144.44C110.176 143.789 110.304 142.856 110.304 141.64V136.328ZM111.488 137.448V141.64C111.488 142.952 111.36 143.944 111.104 144.616C110.923 145.096 110.651 145.517 110.288 145.88H115.616V137.448H111.488ZM124.346 140.36V147H123.194V141.416H120.826V144.408C120.826 145.272 120.656 145.912 120.314 146.328C119.93 146.797 119.397 147.032 118.714 147.032C118.629 147.032 118.512 147.021 118.362 147V145.944C118.469 145.965 118.554 145.976 118.618 145.976C118.992 145.976 119.269 145.832 119.45 145.544C119.6 145.309 119.674 144.931 119.674 144.408V140.36H124.346ZM126.526 140.36H127.678V144.744L132.222 139.848V147H131.07V142.568L126.526 147.464V140.36ZM134.401 147V140.36H135.553V143.08H138.689V140.36H139.841V147H138.689V144.136H135.553V147H134.401ZM142.01 147V140.36H143.162V143.08H146.298V140.36H147.45V147H146.298V144.136H143.162V147H142.01ZM149.619 147V140.36H150.771V142.904H151.955C152.873 142.904 153.545 143.123 153.971 143.56C154.313 143.901 154.483 144.365 154.483 144.952C154.483 145.571 154.286 146.067 153.891 146.44C153.497 146.813 152.846 147 151.939 147H149.619ZM150.771 145.976H151.843C152.323 145.976 152.665 145.917 152.867 145.8C153.155 145.608 153.299 145.325 153.299 144.952C153.299 144.568 153.161 144.291 152.883 144.12C152.691 143.992 152.35 143.928 151.859 143.928H150.771V145.976ZM155.283 147V140.36H156.435V147H155.283ZM158.604 140.36H159.756V144.744L164.3 139.848V147H163.148V142.568L158.604 147.464V140.36ZM159.18 137.496L160.14 137.128C160.332 137.768 160.785 138.088 161.5 138.088C162.214 138.088 162.668 137.768 162.86 137.128L163.82 137.496C163.649 137.976 163.356 138.355 162.94 138.632C162.534 138.909 162.054 139.048 161.5 139.048C160.945 139.048 160.46 138.909 160.044 138.632C159.638 138.355 159.35 137.976 159.18 137.496ZM170.213 140.36H175.557V147H174.405V141.416H171.365V147H170.213V140.36ZM183.345 146.2C182.683 146.861 181.846 147.192 180.833 147.192C179.819 147.192 178.977 146.861 178.305 146.2C177.643 145.539 177.313 144.707 177.313 143.704C177.313 142.691 177.643 141.853 178.305 141.192C178.977 140.531 179.819 140.2 180.833 140.2C181.846 140.2 182.683 140.531 183.345 141.192C184.017 141.853 184.353 142.691 184.353 143.704C184.353 144.707 184.017 145.539 183.345 146.2ZM182.481 141.88C182.033 141.443 181.483 141.224 180.833 141.224C180.182 141.224 179.627 141.448 179.169 141.896C178.721 142.333 178.497 142.936 178.497 143.704C178.497 144.472 178.726 145.075 179.185 145.512C179.643 145.949 180.193 146.168 180.833 146.168C181.473 146.168 182.022 145.949 182.481 145.512C182.939 145.075 183.169 144.472 183.169 143.704C183.169 142.925 182.939 142.317 182.481 141.88ZM185.351 147L187.415 144.264C187.351 144.264 187.261 144.253 187.143 144.232C187.037 144.211 186.877 144.157 186.663 144.072C186.45 143.987 186.274 143.875 186.135 143.736C185.783 143.405 185.607 142.963 185.607 142.408C185.607 141.779 185.805 141.283 186.199 140.92C186.594 140.547 187.245 140.36 188.151 140.36H190.471V147H189.319V144.328H188.615L186.727 147H185.351ZM189.319 143.368V141.384H188.247C187.746 141.384 187.399 141.443 187.207 141.56C186.93 141.741 186.791 142.013 186.791 142.376C186.791 142.739 186.93 143.005 187.207 143.176C187.41 143.304 187.751 143.368 188.231 143.368H189.319ZM197.851 140.84V142.216C197.328 141.555 196.635 141.224 195.771 141.224C195.12 141.224 194.565 141.448 194.107 141.896C193.648 142.333 193.419 142.936 193.419 143.704C193.419 144.472 193.648 145.075 194.107 145.512C194.565 145.949 195.115 146.168 195.755 146.168C196.608 146.168 197.323 145.821 197.899 145.128V146.504C197.269 146.963 196.565 147.192 195.786 147.192C194.752 147.192 193.899 146.867 193.227 146.216C192.565 145.555 192.235 144.723 192.235 143.72C192.235 142.707 192.571 141.869 193.243 141.208C193.915 140.536 194.763 140.2 195.786 140.2C196.555 140.2 197.243 140.413 197.851 140.84ZM199.666 147V140.36H200.818V143.08H203.954V140.36H205.106V147H203.954V144.136H200.818V147H199.666ZM206.508 147L208.572 144.264C208.508 144.264 208.417 144.253 208.299 144.232C208.193 144.211 208.033 144.157 207.82 144.072C207.606 143.987 207.43 143.875 207.292 143.736C206.94 143.405 206.764 142.963 206.764 142.408C206.764 141.779 206.961 141.283 207.356 140.92C207.75 140.547 208.401 140.36 209.308 140.36H211.628V147H210.476V144.328H209.772L207.884 147H206.508ZM210.476 143.368V141.384H209.404C208.902 141.384 208.556 141.443 208.364 141.56C208.086 141.741 207.948 142.013 207.948 142.376C207.948 142.739 208.086 143.005 208.364 143.176C208.566 143.304 208.908 143.368 209.388 143.368H210.476ZM214.959 143.08H216.159C216.265 142.333 216.564 141.704 217.055 141.192C217.684 140.531 218.521 140.2 219.567 140.2C220.591 140.2 221.433 140.531 222.095 141.192C222.756 141.853 223.087 142.691 223.087 143.704C223.087 144.707 222.751 145.539 222.079 146.2C221.417 146.861 220.58 147.192 219.567 147.192C218.404 147.192 217.492 146.776 216.831 145.944C216.404 145.411 216.159 144.808 216.095 144.136H214.959V147H213.807V140.36H214.959V143.08ZM219.567 141.224C218.927 141.224 218.383 141.448 217.935 141.896C217.497 142.333 217.279 142.936 217.279 143.704C217.279 144.483 217.503 145.091 217.951 145.528C218.399 145.955 218.937 146.168 219.567 146.168C220.207 146.168 220.756 145.949 221.215 145.512C221.673 145.075 221.903 144.472 221.903 143.704C221.903 142.936 221.673 142.333 221.215 141.896C220.767 141.448 220.217 141.224 219.567 141.224ZM224.854 147V140.36H226.006V145.944H228.566V140.36H229.718V145.944H232.278V140.36H233.43V145.944H234.518V148.76H233.462V147H224.854ZM235.729 140.36H236.881V144.744L241.425 139.848V147H240.273V142.568L235.729 147.464V140.36ZM243.604 140.36H244.756V144.744L249.3 139.848V147H248.148V142.568L243.604 147.464V140.36ZM244.18 137.496L245.14 137.128C245.332 137.768 245.785 138.088 246.5 138.088C247.214 138.088 247.668 137.768 247.86 137.128L248.82 137.496C248.649 137.976 248.356 138.355 247.94 138.632C247.534 138.909 247.054 139.048 246.5 139.048C245.945 139.048 245.46 138.909 245.044 138.632C244.638 138.355 244.35 137.976 244.18 137.496ZM113.44 159.416H111.36V165H110.208V159.416H108.128V158.36H113.44V159.416ZM119.422 162.776L120.382 163.304C120.158 163.731 119.886 164.088 119.566 164.376C118.958 164.92 118.222 165.192 117.358 165.192C116.462 165.192 115.689 164.904 115.038 164.328C114.398 163.741 114.078 162.872 114.078 161.72C114.078 160.707 114.366 159.869 114.942 159.208C115.529 158.536 116.313 158.2 117.294 158.2C118.404 158.2 119.241 158.605 119.806 159.416C120.254 160.056 120.462 160.888 120.43 161.912H115.262C115.273 162.584 115.481 163.128 115.886 163.544C116.292 163.96 116.788 164.168 117.374 164.168C117.897 164.168 118.35 164.008 118.734 163.688C119.033 163.432 119.262 163.128 119.422 162.776ZM115.342 160.952H119.246C119.15 160.429 118.921 160.013 118.558 159.704C118.206 159.384 117.785 159.224 117.294 159.224C116.814 159.224 116.388 159.389 116.014 159.72C115.652 160.04 115.428 160.451 115.342 160.952ZM122.197 158.36H123.349V161.08L126.037 158.36H127.445L124.565 161.32L127.797 165H126.293L123.701 162.088L123.349 162.424V165H122.197V158.36ZM133.804 158.84V160.216C133.281 159.555 132.588 159.224 131.724 159.224C131.073 159.224 130.518 159.448 130.06 159.896C129.601 160.333 129.372 160.936 129.372 161.704C129.372 162.472 129.601 163.075 130.06 163.512C130.518 163.949 131.068 164.168 131.708 164.168C132.561 164.168 133.276 163.821 133.852 163.128V164.504C133.222 164.963 132.518 165.192 131.74 165.192C130.705 165.192 129.852 164.867 129.18 164.216C128.518 163.555 128.188 162.723 128.188 161.72C128.188 160.707 128.524 159.869 129.196 159.208C129.868 158.536 130.716 158.2 131.74 158.2C132.508 158.2 133.196 158.413 133.804 158.84ZM139.971 159.416H137.891V165H136.739V159.416H134.659V158.36H139.971V159.416ZM145.396 158.36H150.068V163.944H151.06V166.76H150.004V165H144.948V166.76H143.892V163.944C144.447 163.933 144.857 163.645 145.124 163.08C145.305 162.707 145.396 162.12 145.396 161.32V158.36ZM148.916 163.944V159.416H146.548V161.912C146.548 162.797 146.281 163.475 145.748 163.944H148.916ZM157.784 158.36V165H156.632V159.416H154.264V162.408C154.264 163.272 154.093 163.912 153.752 164.328C153.368 164.797 152.835 165.032 152.152 165.032C152.067 165.032 151.949 165.021 151.8 165V163.944C151.907 163.965 151.992 163.976 152.056 163.976C152.429 163.976 152.707 163.832 152.888 163.544C153.037 163.309 153.112 162.931 153.112 162.408V158.36H157.784ZM159.195 165L161.259 162.264C161.195 162.264 161.104 162.253 160.987 162.232C160.88 162.211 160.72 162.157 160.507 162.072C160.294 161.987 160.118 161.875 159.979 161.736C159.627 161.405 159.451 160.963 159.451 160.408C159.451 159.779 159.648 159.283 160.043 158.92C160.438 158.547 161.088 158.36 161.995 158.36H164.315V165H163.163V162.328H162.459L160.571 165H159.195ZM163.163 161.368V159.384H162.091C161.59 159.384 161.243 159.443 161.051 159.56C160.774 159.741 160.635 160.013 160.635 160.376C160.635 160.739 160.774 161.005 161.051 161.176C161.254 161.304 161.595 161.368 162.075 161.368H163.163ZM170.229 158.36H175.573V165H174.421V159.416H171.381V165H170.229V158.36ZM183.36 164.2C182.699 164.861 181.862 165.192 180.848 165.192C179.835 165.192 178.992 164.861 178.32 164.2C177.659 163.539 177.328 162.707 177.328 161.704C177.328 160.691 177.659 159.853 178.32 159.192C178.992 158.531 179.835 158.2 180.848 158.2C181.862 158.2 182.699 158.531 183.36 159.192C184.032 159.853 184.368 160.691 184.368 161.704C184.368 162.707 184.032 163.539 183.36 164.2ZM182.496 159.88C182.048 159.443 181.499 159.224 180.848 159.224C180.198 159.224 179.643 159.448 179.184 159.896C178.736 160.333 178.512 160.936 178.512 161.704C178.512 162.472 178.742 163.075 179.2 163.512C179.659 163.949 180.208 164.168 180.848 164.168C181.488 164.168 182.038 163.949 182.496 163.512C182.955 163.075 183.184 162.472 183.184 161.704C183.184 160.925 182.955 160.317 182.496 159.88ZM191.159 158.36V165H190.007V159.416H187.639V162.408C187.639 163.272 187.468 163.912 187.127 164.328C186.743 164.797 186.21 165.032 185.527 165.032C185.442 165.032 185.324 165.021 185.175 165V163.944C185.282 163.965 185.367 163.976 185.431 163.976C185.804 163.976 186.082 163.832 186.263 163.544C186.412 163.309 186.487 162.931 186.487 162.408V158.36H191.159ZM193.338 165V158.36H194.49V160.904H195.674C196.591 160.904 197.263 161.123 197.69 161.56C198.031 161.901 198.202 162.365 198.202 162.952C198.202 163.571 198.005 164.067 197.61 164.44C197.215 164.813 196.565 165 195.658 165H193.338ZM194.49 163.976H195.562C196.042 163.976 196.383 163.917 196.586 163.8C196.874 163.608 197.018 163.325 197.018 162.952C197.018 162.568 196.879 162.291 196.602 162.12C196.41 161.992 196.069 161.928 195.578 161.928H194.49V163.976ZM200.608 160.056L199.808 159.4C200.064 159.027 200.347 158.749 200.656 158.568C201.072 158.323 201.558 158.2 202.112 158.2C202.784 158.2 203.307 158.355 203.68 158.664C204.064 158.995 204.256 159.416 204.256 159.928C204.256 160.547 204.006 161.011 203.504 161.32C203.824 161.395 204.08 161.539 204.272 161.752C204.582 162.083 204.736 162.488 204.736 162.968C204.736 163.683 204.448 164.253 203.872 164.68C203.403 165.021 202.774 165.192 201.984 165.192C201.28 165.192 200.688 165.005 200.208 164.632C199.846 164.365 199.552 163.987 199.328 163.496L200.32 163.08C200.438 163.379 200.635 163.629 200.912 163.832C201.211 164.056 201.574 164.168 202 164.168C202.502 164.168 202.875 164.083 203.12 163.912C203.43 163.709 203.584 163.4 203.584 162.984C203.584 162.643 203.451 162.387 203.184 162.216C202.96 162.067 202.598 161.992 202.096 161.992H201.424V160.936H201.984C202.39 160.936 202.678 160.877 202.848 160.76C203.083 160.611 203.2 160.408 203.2 160.152C203.2 159.853 203.104 159.624 202.912 159.464C202.731 159.304 202.448 159.224 202.064 159.224C201.734 159.224 201.43 159.309 201.152 159.48C200.918 159.629 200.736 159.821 200.608 160.056ZM212.11 164.2C211.449 164.861 210.612 165.192 209.598 165.192C208.585 165.192 207.742 164.861 207.07 164.2C206.409 163.539 206.078 162.707 206.078 161.704C206.078 160.691 206.409 159.853 207.07 159.192C207.742 158.531 208.585 158.2 209.598 158.2C210.612 158.2 211.449 158.531 212.11 159.192C212.782 159.853 213.118 160.691 213.118 161.704C213.118 162.707 212.782 163.539 212.11 164.2ZM211.246 159.88C210.798 159.443 210.249 159.224 209.598 159.224C208.948 159.224 208.393 159.448 207.934 159.896C207.486 160.333 207.262 160.936 207.262 161.704C207.262 162.472 207.492 163.075 207.95 163.512C208.409 163.949 208.958 164.168 209.598 164.168C210.238 164.168 210.788 163.949 211.246 163.512C211.705 163.075 211.934 162.472 211.934 161.704C211.934 160.925 211.705 160.317 211.246 159.88ZM214.885 158.36H217.397C218.005 158.36 218.469 158.488 218.789 158.744C219.173 159.053 219.365 159.469 219.365 159.992C219.365 160.568 219.125 161.011 218.645 161.32C218.976 161.405 219.253 161.555 219.477 161.768C219.829 162.109 220.005 162.536 220.005 163.048C220.005 163.688 219.776 164.189 219.317 164.552C218.922 164.851 218.4 165 217.749 165H214.885V158.36ZM216.037 161.064H217.253C217.562 161.064 217.808 161 217.989 160.872C218.202 160.712 218.309 160.483 218.309 160.184C218.309 159.917 218.202 159.704 217.989 159.544C217.829 159.437 217.52 159.384 217.061 159.384H216.037V161.064ZM216.037 163.976H217.461C217.952 163.976 218.298 163.901 218.501 163.752C218.757 163.56 218.885 163.315 218.885 163.016C218.885 162.696 218.773 162.445 218.549 162.264C218.346 162.104 218 162.024 217.509 162.024H216.037V163.976ZM226.848 159.304V158.36H228V165H226.848V164.072C226.272 164.819 225.515 165.192 224.576 165.192C223.68 165.192 222.917 164.883 222.288 164.264C221.659 163.645 221.344 162.781 221.344 161.672C221.344 160.584 221.653 159.736 222.272 159.128C222.901 158.509 223.669 158.2 224.576 158.2C225.536 158.2 226.293 158.568 226.848 159.304ZM224.704 159.224C224.096 159.224 223.579 159.443 223.152 159.88C222.736 160.307 222.528 160.904 222.528 161.672C222.528 162.408 222.72 163.011 223.104 163.48C223.499 163.939 224.032 164.168 224.704 164.168C225.376 164.168 225.909 163.928 226.304 163.448C226.709 162.968 226.912 162.381 226.912 161.688C226.912 160.899 226.688 160.291 226.24 159.864C225.792 159.437 225.28 159.224 224.704 159.224ZM234.534 159.416H232.454V165H231.302V159.416H229.222V158.36H234.534V159.416ZM240.516 162.776L241.476 163.304C241.252 163.731 240.98 164.088 240.66 164.376C240.052 164.92 239.316 165.192 238.452 165.192C237.556 165.192 236.783 164.904 236.132 164.328C235.492 163.741 235.172 162.872 235.172 161.72C235.172 160.707 235.46 159.869 236.036 159.208C236.623 158.536 237.407 158.2 238.388 158.2C239.497 158.2 240.335 158.605 240.9 159.416C241.348 160.056 241.556 160.888 241.524 161.912H236.356C236.367 162.584 236.575 163.128 236.98 163.544C237.385 163.96 237.881 164.168 238.468 164.168C238.991 164.168 239.444 164.008 239.828 163.688C240.127 163.432 240.356 163.128 240.516 162.776ZM236.436 160.952H240.34C240.244 160.429 240.015 160.013 239.652 159.704C239.3 159.384 238.879 159.224 238.388 159.224C237.908 159.224 237.481 159.389 237.108 159.72C236.745 160.04 236.521 160.451 236.436 160.952ZM248.315 158.36V165H247.163V159.416H244.795V162.408C244.795 163.272 244.624 163.912 244.283 164.328C243.899 164.797 243.366 165.032 242.683 165.032C242.598 165.032 242.48 165.021 242.331 165V163.944C242.438 163.965 242.523 163.976 242.587 163.976C242.96 163.976 243.238 163.832 243.419 163.544C243.568 163.309 243.643 162.931 243.643 162.408V158.36H248.315ZM249.726 165L251.79 162.264C251.726 162.264 251.636 162.253 251.518 162.232C251.412 162.211 251.252 162.157 251.038 162.072C250.825 161.987 250.649 161.875 250.51 161.736C250.158 161.405 249.982 160.963 249.982 160.408C249.982 159.779 250.18 159.283 250.574 158.92C250.969 158.547 251.62 158.36 252.526 158.36H254.846V165H253.694V162.328H252.99L251.102 165H249.726ZM253.694 161.368V159.384H252.622C252.121 159.384 251.774 159.443 251.582 159.56C251.305 159.741 251.166 160.013 251.166 160.376C251.166 160.739 251.305 161.005 251.582 161.176C251.785 161.304 252.126 161.368 252.606 161.368H253.694ZM257.202 164.92C257.042 164.76 256.962 164.573 256.962 164.36C256.962 164.147 257.042 163.96 257.202 163.8C257.362 163.64 257.548 163.56 257.762 163.56C257.975 163.56 258.162 163.64 258.322 163.8C258.482 163.96 258.562 164.147 258.562 164.36C258.562 164.573 258.482 164.76 258.322 164.92C258.162 165.08 257.975 165.16 257.762 165.16C257.548 165.16 257.362 165.08 257.202 164.92ZM110.224 183H109.008L110.784 171.736L114.88 180.744L119.056 171.72L120.72 183H119.504L118.496 175.576L114.864 183.448L111.28 175.576L110.224 183ZM128.517 182.2C127.855 182.861 127.018 183.192 126.005 183.192C124.991 183.192 124.149 182.861 123.477 182.2C122.815 181.539 122.485 180.707 122.485 179.704C122.485 178.691 122.815 177.853 123.477 177.192C124.149 176.531 124.991 176.2 126.005 176.2C127.018 176.2 127.855 176.531 128.517 177.192C129.189 177.853 129.525 178.691 129.525 179.704C129.525 180.707 129.189 181.539 128.517 182.2ZM127.653 177.88C127.205 177.443 126.655 177.224 126.005 177.224C125.354 177.224 124.799 177.448 124.341 177.896C123.893 178.333 123.669 178.936 123.669 179.704C123.669 180.472 123.898 181.075 124.357 181.512C124.815 181.949 125.365 182.168 126.005 182.168C126.645 182.168 127.194 181.949 127.653 181.512C128.111 181.075 128.341 180.472 128.341 179.704C128.341 178.925 128.111 178.317 127.653 177.88ZM134.395 176.36H135.547V179.08L138.043 176.36H139.387L136.507 179.432L139.675 183H138.235L135.771 180.2L135.547 180.424V183H134.395V180.424L134.171 180.2L131.707 183H130.267L133.435 179.432L130.555 176.36H131.899L134.395 179.08V176.36ZM145.594 180.776L146.554 181.304C146.33 181.731 146.058 182.088 145.738 182.376C145.13 182.92 144.394 183.192 143.53 183.192C142.634 183.192 141.861 182.904 141.21 182.328C140.57 181.741 140.25 180.872 140.25 179.72C140.25 178.707 140.538 177.869 141.114 177.208C141.701 176.536 142.485 176.2 143.466 176.2C144.575 176.2 145.413 176.605 145.978 177.416C146.426 178.056 146.634 178.888 146.602 179.912H141.434C141.445 180.584 141.653 181.128 142.058 181.544C142.463 181.96 142.959 182.168 143.546 182.168C144.069 182.168 144.522 182.008 144.906 181.688C145.205 181.432 145.434 181.128 145.594 180.776ZM141.514 178.952H145.418C145.322 178.429 145.093 178.013 144.73 177.704C144.378 177.384 143.957 177.224 143.466 177.224C142.986 177.224 142.559 177.389 142.186 177.72C141.823 178.04 141.599 178.451 141.514 178.952ZM152.721 177.416H150.641V183H149.489V177.416H147.409V176.36H152.721V177.416ZM157.666 176.36H158.818V180.744L163.362 175.848V183H162.21V178.568L157.666 183.464V176.36ZM170.741 176.84V178.216C170.218 177.555 169.525 177.224 168.661 177.224C168.01 177.224 167.456 177.448 166.997 177.896C166.538 178.333 166.309 178.936 166.309 179.704C166.309 180.472 166.538 181.075 166.997 181.512C167.456 181.949 168.005 182.168 168.645 182.168C169.498 182.168 170.213 181.821 170.789 181.128V182.504C170.16 182.963 169.456 183.192 168.677 183.192C167.642 183.192 166.789 182.867 166.117 182.216C165.456 181.555 165.125 180.723 165.125 179.72C165.125 178.707 165.461 177.869 166.133 177.208C166.805 176.536 167.653 176.2 168.677 176.2C169.445 176.2 170.133 176.413 170.741 176.84ZM172.557 176.36H177.901V183H176.749V177.416H173.709V183H172.557V176.36ZM185.688 182.2C185.027 182.861 184.19 183.192 183.176 183.192C182.163 183.192 181.32 182.861 180.648 182.2C179.987 181.539 179.656 180.707 179.656 179.704C179.656 178.691 179.987 177.853 180.648 177.192C181.32 176.531 182.163 176.2 183.176 176.2C184.19 176.2 185.027 176.531 185.688 177.192C186.36 177.853 186.696 178.691 186.696 179.704C186.696 180.707 186.36 181.539 185.688 182.2ZM184.824 177.88C184.376 177.443 183.827 177.224 183.176 177.224C182.526 177.224 181.971 177.448 181.512 177.896C181.064 178.333 180.84 178.936 180.84 179.704C180.84 180.472 181.07 181.075 181.528 181.512C181.987 181.949 182.536 182.168 183.176 182.168C183.816 182.168 184.366 181.949 184.824 181.512C185.283 181.075 185.512 180.472 185.512 179.704C185.512 178.925 185.283 178.317 184.824 177.88ZM193.487 176.36V183H192.335V177.416H189.967V180.408C189.967 181.272 189.796 181.912 189.455 182.328C189.071 182.797 188.538 183.032 187.855 183.032C187.77 183.032 187.652 183.021 187.503 183V181.944C187.61 181.965 187.695 181.976 187.759 181.976C188.132 181.976 188.41 181.832 188.591 181.544C188.74 181.309 188.815 180.931 188.815 180.408V176.36H193.487ZM195.666 183V176.36H196.818V178.904H198.002C198.919 178.904 199.591 179.123 200.018 179.56C200.359 179.901 200.53 180.365 200.53 180.952C200.53 181.571 200.333 182.067 199.938 182.44C199.543 182.813 198.893 183 197.986 183H195.666ZM196.818 181.976H197.89C198.37 181.976 198.711 181.917 198.914 181.8C199.202 181.608 199.346 181.325 199.346 180.952C199.346 180.568 199.207 180.291 198.93 180.12C198.738 179.992 198.397 179.928 197.906 179.928H196.818V181.976ZM202.936 178.056L202.136 177.4C202.392 177.027 202.675 176.749 202.984 176.568C203.4 176.323 203.886 176.2 204.44 176.2C205.112 176.2 205.635 176.355 206.008 176.664C206.392 176.995 206.584 177.416 206.584 177.928C206.584 178.547 206.334 179.011 205.832 179.32C206.152 179.395 206.408 179.539 206.6 179.752C206.91 180.083 207.064 180.488 207.064 180.968C207.064 181.683 206.776 182.253 206.2 182.68C205.731 183.021 205.102 183.192 204.312 183.192C203.608 183.192 203.016 183.005 202.536 182.632C202.174 182.365 201.88 181.987 201.656 181.496L202.648 181.08C202.766 181.379 202.963 181.629 203.24 181.832C203.539 182.056 203.902 182.168 204.328 182.168C204.83 182.168 205.203 182.083 205.448 181.912C205.758 181.709 205.912 181.4 205.912 180.984C205.912 180.643 205.779 180.387 205.512 180.216C205.288 180.067 204.926 179.992 204.424 179.992H203.752V178.936H204.312C204.718 178.936 205.006 178.877 205.176 178.76C205.411 178.611 205.528 178.408 205.528 178.152C205.528 177.853 205.432 177.624 205.24 177.464C205.059 177.304 204.776 177.224 204.392 177.224C204.062 177.224 203.758 177.309 203.48 177.48C203.246 177.629 203.064 177.821 202.936 178.056ZM214.438 182.2C213.777 182.861 212.94 183.192 211.926 183.192C210.913 183.192 210.07 182.861 209.398 182.2C208.737 181.539 208.406 180.707 208.406 179.704C208.406 178.691 208.737 177.853 209.398 177.192C210.07 176.531 210.913 176.2 211.926 176.2C212.94 176.2 213.777 176.531 214.438 177.192C215.11 177.853 215.446 178.691 215.446 179.704C215.446 180.707 215.11 181.539 214.438 182.2ZM213.574 177.88C213.126 177.443 212.577 177.224 211.926 177.224C211.276 177.224 210.721 177.448 210.262 177.896C209.814 178.333 209.59 178.936 209.59 179.704C209.59 180.472 209.82 181.075 210.278 181.512C210.737 181.949 211.286 182.168 211.926 182.168C212.566 182.168 213.116 181.949 213.574 181.512C214.033 181.075 214.262 180.472 214.262 179.704C214.262 178.925 214.033 178.317 213.574 177.88ZM217.213 176.36H219.725C220.333 176.36 220.797 176.488 221.117 176.744C221.501 177.053 221.693 177.469 221.693 177.992C221.693 178.568 221.453 179.011 220.973 179.32C221.304 179.405 221.581 179.555 221.805 179.768C222.157 180.109 222.333 180.536 222.333 181.048C222.333 181.688 222.104 182.189 221.645 182.552C221.25 182.851 220.728 183 220.077 183H217.213V176.36ZM218.365 179.064H219.581C219.89 179.064 220.136 179 220.317 178.872C220.53 178.712 220.637 178.483 220.637 178.184C220.637 177.917 220.53 177.704 220.317 177.544C220.157 177.437 219.848 177.384 219.389 177.384H218.365V179.064ZM218.365 181.976H219.789C220.28 181.976 220.626 181.901 220.829 181.752C221.085 181.56 221.213 181.315 221.213 181.016C221.213 180.696 221.101 180.445 220.877 180.264C220.674 180.104 220.328 180.024 219.837 180.024H218.365V181.976ZM229.176 177.304V176.36H230.328V183H229.176V182.072C228.6 182.819 227.843 183.192 226.904 183.192C226.008 183.192 225.245 182.883 224.616 182.264C223.987 181.645 223.672 180.781 223.672 179.672C223.672 178.584 223.981 177.736 224.6 177.128C225.229 176.509 225.997 176.2 226.904 176.2C227.864 176.2 228.621 176.568 229.176 177.304ZM227.032 177.224C226.424 177.224 225.907 177.443 225.48 177.88C225.064 178.307 224.856 178.904 224.856 179.672C224.856 180.408 225.048 181.011 225.432 181.48C225.827 181.939 226.36 182.168 227.032 182.168C227.704 182.168 228.237 181.928 228.632 181.448C229.037 180.968 229.24 180.381 229.24 179.688C229.24 178.899 229.016 178.291 228.568 177.864C228.12 177.437 227.608 177.224 227.032 177.224ZM236.862 177.416H234.782V183H233.63V177.416H231.55V176.36H236.862V177.416ZM238.072 183V176.36H239.224V178.904H240.408C241.326 178.904 241.998 179.123 242.424 179.56C242.766 179.901 242.936 180.365 242.936 180.952C242.936 181.571 242.739 182.067 242.344 182.44C241.95 182.813 241.299 183 240.392 183H238.072ZM239.224 181.976H240.296C240.776 181.976 241.118 181.917 241.32 181.8C241.608 181.608 241.752 181.325 241.752 180.952C241.752 180.568 241.614 180.291 241.336 180.12C241.144 179.992 240.803 179.928 240.312 179.928H239.224V181.976ZM249.679 176.84V178.216C249.156 177.555 248.463 177.224 247.599 177.224C246.948 177.224 246.393 177.448 245.935 177.896C245.476 178.333 245.247 178.936 245.247 179.704C245.247 180.472 245.476 181.075 245.935 181.512C246.393 181.949 246.943 182.168 247.583 182.168C248.436 182.168 249.151 181.821 249.727 181.128V182.504C249.097 182.963 248.393 183.192 247.615 183.192C246.58 183.192 245.727 182.867 245.055 182.216C244.393 181.555 244.063 180.723 244.063 179.72C244.063 178.707 244.399 177.869 245.071 177.208C245.743 176.536 246.591 176.2 247.615 176.2C248.383 176.2 249.071 176.413 249.679 176.84ZM250.726 183L252.79 180.264C252.726 180.264 252.636 180.253 252.518 180.232C252.412 180.211 252.252 180.157 252.038 180.072C251.825 179.987 251.649 179.875 251.51 179.736C251.158 179.405 250.982 178.963 250.982 178.408C250.982 177.779 251.18 177.283 251.574 176.92C251.969 176.547 252.62 176.36 253.526 176.36H255.846V183H254.694V180.328H253.99L252.102 183H250.726ZM254.694 179.368V177.384H253.622C253.121 177.384 252.774 177.443 252.582 177.56C252.305 177.741 252.166 178.013 252.166 178.376C252.166 178.739 252.305 179.005 252.582 179.176C252.785 179.304 253.126 179.368 253.606 179.368H254.694ZM114.208 189.8H115.488C115.371 190.195 115.168 190.531 114.88 190.808C114.603 191.075 114.347 191.256 114.112 191.352C113.888 191.448 113.621 191.533 113.312 191.608C113.259 191.619 113.131 191.651 112.928 191.704C112.725 191.747 112.571 191.784 112.464 191.816C112.357 191.848 112.219 191.891 112.048 191.944C111.877 191.997 111.723 192.061 111.584 192.136C111.445 192.211 111.317 192.291 111.2 192.376C110.795 192.685 110.464 193.117 110.208 193.672C109.963 194.216 109.829 194.797 109.808 195.416H109.84C110.32 194.605 111.125 194.2 112.256 194.2C113.248 194.2 114.069 194.536 114.72 195.208C115.381 195.88 115.712 196.712 115.712 197.704C115.712 198.707 115.376 199.539 114.704 200.2C114.032 200.861 113.157 201.192 112.08 201.192C111.152 201.192 110.389 200.915 109.792 200.36C109.045 199.677 108.672 198.536 108.672 196.936C108.672 194.152 109.301 192.328 110.56 191.464C110.656 191.4 110.757 191.341 110.864 191.288C110.971 191.224 111.083 191.171 111.2 191.128C111.328 191.075 111.435 191.032 111.52 191C111.605 190.957 111.723 190.92 111.872 190.888C112.032 190.845 112.139 190.819 112.192 190.808C112.256 190.787 112.373 190.76 112.544 190.728C112.725 190.685 112.837 190.659 112.88 190.648C113.307 190.552 113.616 190.44 113.808 190.312C114 190.173 114.133 190.003 114.208 189.8ZM113.84 195.88C113.392 195.443 112.843 195.224 112.192 195.224C111.541 195.224 110.987 195.448 110.528 195.896C110.08 196.333 109.856 196.936 109.856 197.704C109.856 198.472 110.085 199.075 110.544 199.512C111.003 199.949 111.552 200.168 112.192 200.168C112.832 200.168 113.381 199.949 113.84 199.512C114.299 199.075 114.528 198.472 114.528 197.704C114.528 196.925 114.299 196.317 113.84 195.88ZM122.407 198.776L123.367 199.304C123.143 199.731 122.871 200.088 122.551 200.376C121.943 200.92 121.207 201.192 120.343 201.192C119.447 201.192 118.673 200.904 118.023 200.328C117.383 199.741 117.063 198.872 117.063 197.72C117.063 196.707 117.351 195.869 117.927 195.208C118.513 194.536 119.297 194.2 120.279 194.2C121.388 194.2 122.225 194.605 122.791 195.416C123.239 196.056 123.447 196.888 123.415 197.912H118.247C118.257 198.584 118.465 199.128 118.871 199.544C119.276 199.96 119.772 200.168 120.359 200.168C120.881 200.168 121.335 200.008 121.719 199.688C122.017 199.432 122.247 199.128 122.407 198.776ZM118.327 196.952H122.231C122.135 196.429 121.905 196.013 121.543 195.704C121.191 195.384 120.769 195.224 120.279 195.224C119.799 195.224 119.372 195.389 118.999 195.72C118.636 196.04 118.412 196.451 118.327 196.952ZM125.89 196.056L125.09 195.4C125.346 195.027 125.628 194.749 125.938 194.568C126.354 194.323 126.839 194.2 127.394 194.2C128.066 194.2 128.588 194.355 128.962 194.664C129.346 194.995 129.538 195.416 129.538 195.928C129.538 196.547 129.287 197.011 128.786 197.32C129.106 197.395 129.362 197.539 129.554 197.752C129.863 198.083 130.018 198.488 130.018 198.968C130.018 199.683 129.73 200.253 129.154 200.68C128.684 201.021 128.055 201.192 127.266 201.192C126.562 201.192 125.97 201.005 125.49 200.632C125.127 200.365 124.834 199.987 124.61 199.496L125.602 199.08C125.719 199.379 125.916 199.629 126.194 199.832C126.492 200.056 126.855 200.168 127.282 200.168C127.783 200.168 128.156 200.083 128.402 199.912C128.711 199.709 128.866 199.4 128.866 198.984C128.866 198.643 128.732 198.387 128.466 198.216C128.242 198.067 127.879 197.992 127.378 197.992H126.706V196.936H127.266C127.671 196.936 127.959 196.877 128.13 196.76C128.364 196.611 128.482 196.408 128.482 196.152C128.482 195.853 128.386 195.624 128.194 195.464C128.012 195.304 127.73 195.224 127.346 195.224C127.015 195.224 126.711 195.309 126.434 195.48C126.199 195.629 126.018 195.821 125.89 196.056ZM136.374 196.056L135.574 195.4C135.83 195.027 136.113 194.749 136.422 194.568C136.838 194.323 137.323 194.2 137.878 194.2C138.55 194.2 139.073 194.355 139.446 194.664C139.83 194.995 140.022 195.416 140.022 195.928C140.022 196.547 139.771 197.011 139.27 197.32C139.59 197.395 139.846 197.539 140.038 197.752C140.347 198.083 140.502 198.488 140.502 198.968C140.502 199.683 140.214 200.253 139.638 200.68C139.169 201.021 138.539 201.192 137.75 201.192C137.046 201.192 136.454 201.005 135.974 200.632C135.611 200.365 135.318 199.987 135.094 199.496L136.086 199.08C136.203 199.379 136.401 199.629 136.678 199.832C136.977 200.056 137.339 200.168 137.766 200.168C138.267 200.168 138.641 200.083 138.886 199.912C139.195 199.709 139.35 199.4 139.35 198.984C139.35 198.643 139.217 198.387 138.95 198.216C138.726 198.067 138.363 197.992 137.862 197.992H137.19V196.936H137.75C138.155 196.936 138.443 196.877 138.614 196.76C138.849 196.611 138.966 196.408 138.966 196.152C138.966 195.853 138.87 195.624 138.678 195.464C138.497 195.304 138.214 195.224 137.83 195.224C137.499 195.224 137.195 195.309 136.918 195.48C136.683 195.629 136.502 195.821 136.374 196.056ZM147.348 195.304V194.36H148.5V201H147.348V200.072C146.772 200.819 146.015 201.192 145.076 201.192C144.18 201.192 143.417 200.883 142.788 200.264C142.159 199.645 141.844 198.781 141.844 197.672C141.844 196.584 142.153 195.736 142.772 195.128C143.401 194.509 144.169 194.2 145.076 194.2C146.036 194.2 146.793 194.568 147.348 195.304ZM145.204 195.224C144.596 195.224 144.079 195.443 143.652 195.88C143.236 196.307 143.028 196.904 143.028 197.672C143.028 198.408 143.22 199.011 143.604 199.48C143.999 199.939 144.532 200.168 145.204 200.168C145.876 200.168 146.409 199.928 146.804 199.448C147.209 198.968 147.412 198.381 147.412 197.688C147.412 196.899 147.188 196.291 146.74 195.864C146.292 195.437 145.78 195.224 145.204 195.224ZM150.682 201V194.36H154.618V195.416H151.834V201H150.682ZM161.048 200.2C160.386 200.861 159.549 201.192 158.536 201.192C157.522 201.192 156.68 200.861 156.008 200.2C155.346 199.539 155.016 198.707 155.016 197.704C155.016 196.691 155.346 195.853 156.008 195.192C156.68 194.531 157.522 194.2 158.536 194.2C159.549 194.2 160.386 194.531 161.048 195.192C161.72 195.853 162.056 196.691 162.056 197.704C162.056 198.707 161.72 199.539 161.048 200.2ZM160.184 195.88C159.736 195.443 159.186 195.224 158.536 195.224C157.885 195.224 157.33 195.448 156.872 195.896C156.424 196.333 156.2 196.936 156.2 197.704C156.2 198.472 156.429 199.075 156.888 199.512C157.346 199.949 157.896 200.168 158.536 200.168C159.176 200.168 159.725 199.949 160.184 199.512C160.642 199.075 160.872 198.472 160.872 197.704C160.872 196.925 160.642 196.317 160.184 195.88ZM168.846 194.36V201H167.694V195.416H165.326V198.408C165.326 199.272 165.156 199.912 164.814 200.328C164.43 200.797 163.897 201.032 163.214 201.032C163.129 201.032 163.012 201.021 162.862 201V199.944C162.969 199.965 163.054 199.976 163.118 199.976C163.492 199.976 163.769 199.832 163.95 199.544C164.1 199.309 164.174 198.931 164.174 198.408V194.36H168.846ZM176.642 200.2C175.98 200.861 175.143 201.192 174.13 201.192C173.116 201.192 172.274 200.861 171.602 200.2C170.94 199.539 170.61 198.707 170.61 197.704C170.61 196.691 170.94 195.853 171.602 195.192C172.274 194.531 173.116 194.2 174.13 194.2C175.143 194.2 175.98 194.531 176.642 195.192C177.314 195.853 177.65 196.691 177.65 197.704C177.65 198.707 177.314 199.539 176.642 200.2ZM175.778 195.88C175.33 195.443 174.78 195.224 174.13 195.224C173.479 195.224 172.924 195.448 172.466 195.896C172.018 196.333 171.794 196.936 171.794 197.704C171.794 198.472 172.023 199.075 172.482 199.512C172.94 199.949 173.49 200.168 174.13 200.168C174.77 200.168 175.319 199.949 175.778 199.512C176.236 199.075 176.466 198.472 176.466 197.704C176.466 196.925 176.236 196.317 175.778 195.88ZM179.416 194.36H181.928C182.536 194.36 183 194.488 183.32 194.744C183.704 195.053 183.896 195.469 183.896 195.992C183.896 196.568 183.656 197.011 183.176 197.32C183.507 197.405 183.784 197.555 184.008 197.768C184.36 198.109 184.536 198.536 184.536 199.048C184.536 199.688 184.307 200.189 183.848 200.552C183.453 200.851 182.931 201 182.28 201H179.416V194.36ZM180.568 197.064H181.784C182.093 197.064 182.339 197 182.52 196.872C182.733 196.712 182.84 196.483 182.84 196.184C182.84 195.917 182.733 195.704 182.52 195.544C182.36 195.437 182.051 195.384 181.592 195.384H180.568V197.064ZM180.568 199.976H181.992C182.483 199.976 182.829 199.901 183.032 199.752C183.288 199.56 183.416 199.315 183.416 199.016C183.416 198.696 183.304 198.445 183.08 198.264C182.877 198.104 182.531 198.024 182.04 198.024H180.568V199.976ZM186.291 194.36H187.443V197.08L190.131 194.36H191.539L188.659 197.32L191.891 201H190.387L187.795 198.088L187.443 198.424V201H186.291V194.36ZM198.129 195.304V194.36H199.281V201H198.129V200.072C197.553 200.819 196.796 201.192 195.857 201.192C194.961 201.192 194.198 200.883 193.569 200.264C192.94 199.645 192.625 198.781 192.625 197.672C192.625 196.584 192.934 195.736 193.553 195.128C194.182 194.509 194.95 194.2 195.857 194.2C196.817 194.2 197.574 194.568 198.129 195.304ZM195.985 195.224C195.377 195.224 194.86 195.443 194.433 195.88C194.017 196.307 193.809 196.904 193.809 197.672C193.809 198.408 194.001 199.011 194.385 199.48C194.78 199.939 195.313 200.168 195.985 200.168C196.657 200.168 197.19 199.928 197.585 199.448C197.99 198.968 198.193 198.381 198.193 197.688C198.193 196.899 197.969 196.291 197.521 195.864C197.073 195.437 196.561 195.224 195.985 195.224ZM201.639 200.92C201.479 200.76 201.399 200.573 201.399 200.36C201.399 200.147 201.479 199.96 201.639 199.8C201.799 199.64 201.986 199.56 202.199 199.56C202.412 199.56 202.599 199.64 202.759 199.8C202.919 199.96 202.999 200.147 202.999 200.36C202.999 200.573 202.919 200.76 202.759 200.92C202.599 201.08 202.412 201.16 202.199 201.16C201.986 201.16 201.799 201.08 201.639 200.92Z" fill="#0B1530"/>
<path d="M207.5 225L199.5 217L215.5 217L207.5 225Z" fill="white"/>
</g>
<path d="M207.789 245.331C208.653 245.331 209.355 246.032 209.353 246.897C209.353 247.761 208.653 248.46 207.789 248.46C206.925 248.46 206.225 247.761 206.225 246.897C206.225 246.033 206.925 245.333 207.789 245.331ZM207.13 235.117H208.45C209.069 235.117 209.568 235.692 209.568 236.407L209.176 242.744C209.176 243.458 208.676 244.034 207.789 244.034C206.903 244.034 206.404 243.458 206.404 242.744L206.012 236.407C206.012 235.693 206.511 235.117 207.13 235.117ZM207.789 232C202.383 232 198 236.382 198 241.789C198 247.195 202.383 251.577 207.789 251.577C213.195 251.579 217.578 247.195 217.578 241.789C217.578 236.382 213.195 232 207.789 232Z" fill="#6C7383"/>
<defs>
<filter id="filter0_d_903_2938" x="84" y="79" width="247" height="158" filterUnits="userSpaceOnUse" color-interpolation-filters="sRGB">
<feFlood flood-opacity="0" result="BackgroundImageFix"/>
<feColorMatrix in="SourceAlpha" type="matrix" values="0 0 0 0 0 0 0 0 0 0 0 0 0 0 0 0 0 0 127 0" result="hardAlpha"/>
<feOffset/>
<feGaussianBlur stdDeviation="6"/>
<feComposite in2="hardAlpha" operator="out"/>
<feColorMatrix type="matrix" values="0 0 0 0 0 0 0 0 0 0 0 0 0 0 0 0 0 0 0.07 0"/>
<feBlend mode="normal" in2="BackgroundImageFix" result="effect1_dropShadow_903_2938"/>
<feBlend mode="normal" in="SourceGraphic" in2="effect1_dropShadow_903_2938" result="shape"/>
</filter>
<clipPath id="clip0_903_2938">
<rect width="175" height="16" fill="white" transform="translate(108 107)"/>
</clipPath>
</defs>
</svg>
