<svg width="415" height="198" viewBox="0 0 415 198" fill="none" xmlns="http://www.w3.org/2000/svg">
<rect width="415" height="198" rx="24" fill="#F5F6F8"/>
<g filter="url(#filter0_d_903_2833)">
<rect x="96" y="32" width="223" height="126" rx="8" fill="white"/>
<g clip-path="url(#clip0_903_2833)">
<path d="M110.192 52.744L109.12 51.704C109.515 51.1813 109.973 50.7973 110.496 50.552C111.029 50.2853 111.675 50.152 112.432 50.152C113.499 50.152 114.325 50.4347 114.912 51C115.424 51.5013 115.68 52.1253 115.68 52.872C115.68 53.384 115.563 53.8267 115.328 54.2C115.104 54.584 114.784 54.8933 114.368 55.128C114.955 55.2773 115.435 55.592 115.808 56.072C116.171 56.5307 116.352 57.1333 116.352 57.88C116.352 58.84 115.995 59.6347 115.28 60.264C114.555 60.8827 113.595 61.192 112.4 61.192C111.387 61.192 110.512 60.9147 109.776 60.36C109.2 59.912 108.747 59.336 108.416 58.632L109.856 57.896C110.069 58.44 110.4 58.872 110.848 59.192C111.317 59.5227 111.904 59.688 112.608 59.688C113.312 59.688 113.856 59.496 114.24 59.112C114.581 58.7707 114.752 58.3333 114.752 57.8C114.752 57.2453 114.544 56.8293 114.128 56.552C113.733 56.2747 113.088 56.136 112.192 56.136H111.232V54.6H112.096C112.779 54.6 113.291 54.456 113.632 54.168C113.952 53.9013 114.112 53.5387 114.112 53.08C114.112 52.6 113.941 52.232 113.6 51.976C113.323 51.7627 112.912 51.656 112.368 51.656C111.856 51.656 111.424 51.7573 111.072 51.96C110.731 52.152 110.437 52.4133 110.192 52.744ZM123.045 55.048V54.264H124.613V61H123.045V60.296C122.522 60.904 121.85 61.208 121.029 61.208C120.037 61.208 119.242 60.856 118.645 60.152C118.058 59.448 117.765 58.6053 117.765 57.624C117.765 56.5573 118.08 55.704 118.709 55.064C119.349 54.4133 120.128 54.088 121.045 54.088C121.888 54.088 122.554 54.408 123.045 55.048ZM121.237 55.496C120.682 55.496 120.229 55.704 119.877 56.12C119.536 56.536 119.365 57.048 119.365 57.656C119.365 58.2533 119.536 58.76 119.877 59.176C120.229 59.592 120.682 59.8 121.237 59.8C121.77 59.8 122.218 59.6133 122.581 59.24C122.954 58.8667 123.141 58.344 123.141 57.672C123.141 56.9787 122.954 56.4453 122.581 56.072C122.218 55.688 121.77 55.496 121.237 55.496ZM126.601 61V54.264H130.729V55.704H128.169V61H126.601ZM132.367 55.096C133.06 54.424 133.919 54.088 134.943 54.088C135.967 54.088 136.82 54.424 137.503 55.096C138.196 55.7573 138.543 56.6053 138.543 57.64C138.543 58.664 138.196 59.5173 137.503 60.2C136.82 60.872 135.967 61.208 134.943 61.208C133.919 61.208 133.06 60.872 132.367 60.2C131.684 59.5173 131.343 58.664 131.343 57.64C131.343 56.6053 131.684 55.7573 132.367 55.096ZM133.487 59.224C133.85 59.608 134.335 59.8 134.943 59.8C135.551 59.8 136.036 59.608 136.399 59.224C136.762 58.8293 136.943 58.3067 136.943 57.656C136.943 56.9413 136.746 56.4027 136.351 56.04C135.967 55.6773 135.498 55.496 134.943 55.496C134.388 55.496 133.914 55.6773 133.519 56.04C133.135 56.4027 132.943 56.9413 132.943 57.656C132.943 58.3067 133.124 58.8293 133.487 59.224ZM145.716 54.264V61H144.148V55.704H142.164V58.376C142.164 59.208 141.95 59.8533 141.524 60.312C140.98 60.92 140.244 61.1493 139.316 61V59.56C139.774 59.6667 140.142 59.5653 140.42 59.256C140.58 59.064 140.66 58.7707 140.66 58.376V54.264H145.716ZM148.367 55.096C149.06 54.424 149.919 54.088 150.943 54.088C151.967 54.088 152.82 54.424 153.503 55.096C154.196 55.7573 154.543 56.6053 154.543 57.64C154.543 58.664 154.196 59.5173 153.503 60.2C152.82 60.872 151.967 61.208 150.943 61.208C149.919 61.208 149.06 60.872 148.367 60.2C147.684 59.5173 147.343 58.664 147.343 57.64C147.343 56.6053 147.684 55.7573 148.367 55.096ZM149.487 59.224C149.85 59.608 150.335 59.8 150.943 59.8C151.551 59.8 152.036 59.608 152.399 59.224C152.762 58.8293 152.943 58.3067 152.943 57.656C152.943 56.9413 152.746 56.4027 152.351 56.04C151.967 55.6773 151.498 55.496 150.943 55.496C150.388 55.496 149.914 55.6773 149.519 56.04C149.135 56.4027 148.943 56.9413 148.943 57.656C148.943 58.3067 149.124 58.8293 149.487 59.224ZM156.18 54.264H158.82C159.492 54.264 160.004 54.3973 160.356 54.664C160.772 54.9947 160.98 55.4267 160.98 55.96C160.98 56.568 160.713 57.0053 160.18 57.272C160.521 57.336 160.825 57.4853 161.092 57.72C161.444 58.04 161.62 58.472 161.62 59.016C161.62 59.6667 161.374 60.1787 160.884 60.552C160.478 60.8507 159.961 61 159.332 61H156.18V54.264ZM157.748 56.888H158.548C158.825 56.888 159.033 56.84 159.172 56.744C159.374 56.616 159.476 56.4347 159.476 56.2C159.476 55.976 159.385 55.8 159.204 55.672C159.076 55.5867 158.846 55.544 158.516 55.544H157.748V56.888ZM157.748 59.72H158.916C159.268 59.72 159.54 59.656 159.732 59.528C159.945 59.3893 160.052 59.192 160.052 58.936C160.052 58.6587 159.95 58.4613 159.748 58.344C159.566 58.2267 159.305 58.168 158.964 58.168H157.748V59.72ZM163.93 55.096C164.623 54.424 165.482 54.088 166.506 54.088C167.53 54.088 168.383 54.424 169.066 55.096C169.759 55.7573 170.106 56.6053 170.106 57.64C170.106 58.664 169.759 59.5173 169.066 60.2C168.383 60.872 167.53 61.208 166.506 61.208C165.482 61.208 164.623 60.872 163.93 60.2C163.247 59.5173 162.906 58.664 162.906 57.64C162.906 56.6053 163.247 55.7573 163.93 55.096ZM165.05 59.224C165.412 59.608 165.898 59.8 166.506 59.8C167.114 59.8 167.599 59.608 167.962 59.224C168.324 58.8293 168.506 58.3067 168.506 57.656C168.506 56.9413 168.308 56.4027 167.914 56.04C167.53 55.6773 167.06 55.496 166.506 55.496C165.951 55.496 165.476 55.6773 165.082 56.04C164.698 56.4027 164.506 56.9413 164.506 57.656C164.506 58.3067 164.687 58.8293 165.05 59.224ZM171.742 54.264H173.31V56.664L175.55 54.264H177.63L174.686 57.208L177.79 61H175.806L173.566 58.232L173.31 58.488V61H171.742V54.264Z" fill="#0B1530"/>
</g>
<path d="M288 49L302 63" stroke="#B6B9C1" stroke-width="2" stroke-linecap="round"/>
<path d="M302 49L288 63" stroke="#B6B9C1" stroke-width="2" stroke-linecap="round"/>
<path d="M110.304 77.328H116.8V86.88H118.016V90.24H116.896V88H109.344V90.24H108.224V86.88C108.587 86.8907 108.917 86.7627 109.216 86.496C109.515 86.2187 109.749 85.8667 109.92 85.44C110.176 84.7893 110.304 83.856 110.304 82.64V77.328ZM111.488 78.448V82.64C111.488 83.952 111.36 84.944 111.104 85.616C110.923 86.096 110.651 86.5173 110.288 86.88H115.616V78.448H111.488ZM124.346 81.36V88H123.194V82.416H120.826V85.408C120.826 86.272 120.656 86.912 120.314 87.328C119.93 87.7973 119.397 88.032 118.714 88.032C118.629 88.032 118.512 88.0213 118.362 88V86.944C118.469 86.9653 118.554 86.976 118.618 86.976C118.992 86.976 119.269 86.832 119.45 86.544C119.6 86.3093 119.674 85.9307 119.674 85.408V81.36H124.346ZM126.526 81.36H127.678V85.744L132.222 80.848V88H131.07V83.568L126.526 88.464V81.36ZM134.401 88V81.36H135.553V84.08H138.689V81.36H139.841V88H138.689V85.136H135.553V88H134.401ZM142.01 88V81.36H143.162V84.08H146.298V81.36H147.45V88H146.298V85.136H143.162V88H142.01ZM149.619 88V81.36H150.771V83.904H151.955C152.873 83.904 153.545 84.1227 153.971 84.56C154.313 84.9013 154.483 85.3653 154.483 85.952C154.483 86.5707 154.286 87.0667 153.891 87.44C153.497 87.8133 152.846 88 151.939 88H149.619ZM150.771 86.976H151.843C152.323 86.976 152.665 86.9173 152.867 86.8C153.155 86.608 153.299 86.3253 153.299 85.952C153.299 85.568 153.161 85.2907 152.883 85.12C152.691 84.992 152.35 84.928 151.859 84.928H150.771V86.976ZM155.283 88V81.36H156.435V88H155.283ZM158.604 81.36H159.756V85.744L164.3 80.848V88H163.148V83.568L158.604 88.464V81.36ZM159.18 78.496L160.14 78.128C160.332 78.768 160.785 79.088 161.5 79.088C162.214 79.088 162.668 78.768 162.86 78.128L163.82 78.496C163.649 78.976 163.356 79.3547 162.94 79.632C162.534 79.9093 162.054 80.048 161.5 80.048C160.945 80.048 160.46 79.9093 160.044 79.632C159.638 79.3547 159.35 78.976 159.18 78.496ZM170.213 81.36H175.557V88H174.405V82.416H171.365V88H170.213V81.36ZM183.345 87.2C182.683 87.8613 181.846 88.192 180.833 88.192C179.819 88.192 178.977 87.8613 178.305 87.2C177.643 86.5387 177.313 85.7067 177.313 84.704C177.313 83.6907 177.643 82.8533 178.305 82.192C178.977 81.5307 179.819 81.2 180.833 81.2C181.846 81.2 182.683 81.5307 183.345 82.192C184.017 82.8533 184.353 83.6907 184.353 84.704C184.353 85.7067 184.017 86.5387 183.345 87.2ZM182.481 82.88C182.033 82.4427 181.483 82.224 180.833 82.224C180.182 82.224 179.627 82.448 179.169 82.896C178.721 83.3333 178.497 83.936 178.497 84.704C178.497 85.472 178.726 86.0747 179.185 86.512C179.643 86.9493 180.193 87.168 180.833 87.168C181.473 87.168 182.022 86.9493 182.481 86.512C182.939 86.0747 183.169 85.472 183.169 84.704C183.169 83.9253 182.939 83.3173 182.481 82.88ZM185.351 88L187.415 85.264C187.351 85.264 187.261 85.2533 187.143 85.232C187.037 85.2107 186.877 85.1573 186.663 85.072C186.45 84.9867 186.274 84.8747 186.135 84.736C185.783 84.4053 185.607 83.9627 185.607 83.408C185.607 82.7787 185.805 82.2827 186.199 81.92C186.594 81.5467 187.245 81.36 188.151 81.36H190.471V88H189.319V85.328H188.615L186.727 88H185.351ZM189.319 84.368V82.384H188.247C187.746 82.384 187.399 82.4427 187.207 82.56C186.93 82.7413 186.791 83.0133 186.791 83.376C186.791 83.7387 186.93 84.0053 187.207 84.176C187.41 84.304 187.751 84.368 188.231 84.368H189.319ZM197.851 81.84V83.216C197.328 82.5547 196.635 82.224 195.771 82.224C195.12 82.224 194.565 82.448 194.107 82.896C193.648 83.3333 193.419 83.936 193.419 84.704C193.419 85.472 193.648 86.0747 194.107 86.512C194.565 86.9493 195.115 87.168 195.755 87.168C196.608 87.168 197.323 86.8213 197.899 86.128V87.504C197.269 87.9627 196.565 88.192 195.786 88.192C194.752 88.192 193.899 87.8667 193.227 87.216C192.565 86.5547 192.235 85.7227 192.235 84.72C192.235 83.7067 192.571 82.8693 193.243 82.208C193.915 81.536 194.763 81.2 195.786 81.2C196.555 81.2 197.243 81.4133 197.851 81.84ZM199.666 88V81.36H200.818V84.08H203.954V81.36H205.106V88H203.954V85.136H200.818V88H199.666ZM206.508 88L208.572 85.264C208.508 85.264 208.417 85.2533 208.299 85.232C208.193 85.2107 208.033 85.1573 207.82 85.072C207.606 84.9867 207.43 84.8747 207.292 84.736C206.94 84.4053 206.764 83.9627 206.764 83.408C206.764 82.7787 206.961 82.2827 207.356 81.92C207.75 81.5467 208.401 81.36 209.308 81.36H211.628V88H210.476V85.328H209.772L207.884 88H206.508ZM210.476 84.368V82.384H209.404C208.902 82.384 208.556 82.4427 208.364 82.56C208.086 82.7413 207.948 83.0133 207.948 83.376C207.948 83.7387 208.086 84.0053 208.364 84.176C208.566 84.304 208.908 84.368 209.388 84.368H210.476ZM214.959 84.08H216.159C216.265 83.3333 216.564 82.704 217.055 82.192C217.684 81.5307 218.521 81.2 219.567 81.2C220.591 81.2 221.433 81.5307 222.095 82.192C222.756 82.8533 223.087 83.6907 223.087 84.704C223.087 85.7067 222.751 86.5387 222.079 87.2C221.417 87.8613 220.58 88.192 219.567 88.192C218.404 88.192 217.492 87.776 216.831 86.944C216.404 86.4107 216.159 85.808 216.095 85.136H214.959V88H213.807V81.36H214.959V84.08ZM219.567 82.224C218.927 82.224 218.383 82.448 217.935 82.896C217.497 83.3333 217.279 83.936 217.279 84.704C217.279 85.4827 217.503 86.0907 217.951 86.528C218.399 86.9547 218.937 87.168 219.567 87.168C220.207 87.168 220.756 86.9493 221.215 86.512C221.673 86.0747 221.903 85.472 221.903 84.704C221.903 83.936 221.673 83.3333 221.215 82.896C220.767 82.448 220.217 82.224 219.567 82.224ZM224.854 88V81.36H226.006V86.944H228.566V81.36H229.718V86.944H232.278V81.36H233.43V86.944H234.518V89.76H233.462V88H224.854ZM235.729 81.36H236.881V85.744L241.425 80.848V88H240.273V83.568L235.729 88.464V81.36ZM243.604 81.36H244.756V85.744L249.3 80.848V88H248.148V83.568L243.604 88.464V81.36ZM244.18 78.496L245.14 78.128C245.332 78.768 245.785 79.088 246.5 79.088C247.214 79.088 247.668 78.768 247.86 78.128L248.82 78.496C248.649 78.976 248.356 79.3547 247.94 79.632C247.534 79.9093 247.054 80.048 246.5 80.048C245.945 80.048 245.46 79.9093 245.044 79.632C244.638 79.3547 244.35 78.976 244.18 78.496ZM113.44 100.416H111.36V106H110.208V100.416H108.128V99.36H113.44V100.416ZM119.422 103.776L120.382 104.304C120.158 104.731 119.886 105.088 119.566 105.376C118.958 105.92 118.222 106.192 117.358 106.192C116.462 106.192 115.689 105.904 115.038 105.328C114.398 104.741 114.078 103.872 114.078 102.72C114.078 101.707 114.366 100.869 114.942 100.208C115.529 99.536 116.313 99.2 117.294 99.2C118.404 99.2 119.241 99.6053 119.806 100.416C120.254 101.056 120.462 101.888 120.43 102.912H115.262C115.273 103.584 115.481 104.128 115.886 104.544C116.292 104.96 116.788 105.168 117.374 105.168C117.897 105.168 118.35 105.008 118.734 104.688C119.033 104.432 119.262 104.128 119.422 103.776ZM115.342 101.952H119.246C119.15 101.429 118.921 101.013 118.558 100.704C118.206 100.384 117.785 100.224 117.294 100.224C116.814 100.224 116.388 100.389 116.014 100.72C115.652 101.04 115.428 101.451 115.342 101.952ZM122.197 99.36H123.349V102.08L126.037 99.36H127.445L124.565 102.32L127.797 106H126.293L123.701 103.088L123.349 103.424V106H122.197V99.36ZM133.804 99.84V101.216C133.281 100.555 132.588 100.224 131.724 100.224C131.073 100.224 130.518 100.448 130.06 100.896C129.601 101.333 129.372 101.936 129.372 102.704C129.372 103.472 129.601 104.075 130.06 104.512C130.518 104.949 131.068 105.168 131.708 105.168C132.561 105.168 133.276 104.821 133.852 104.128V105.504C133.222 105.963 132.518 106.192 131.74 106.192C130.705 106.192 129.852 105.867 129.18 105.216C128.518 104.555 128.188 103.723 128.188 102.72C128.188 101.707 128.524 100.869 129.196 100.208C129.868 99.536 130.716 99.2 131.74 99.2C132.508 99.2 133.196 99.4133 133.804 99.84ZM139.971 100.416H137.891V106H136.739V100.416H134.659V99.36H139.971V100.416ZM145.396 99.36H150.068V104.944H151.06V107.76H150.004V106H144.948V107.76H143.892V104.944C144.447 104.933 144.857 104.645 145.124 104.08C145.305 103.707 145.396 103.12 145.396 102.32V99.36ZM148.916 104.944V100.416H146.548V102.912C146.548 103.797 146.281 104.475 145.748 104.944H148.916ZM157.784 99.36V106H156.632V100.416H154.264V103.408C154.264 104.272 154.093 104.912 153.752 105.328C153.368 105.797 152.835 106.032 152.152 106.032C152.067 106.032 151.949 106.021 151.8 106V104.944C151.907 104.965 151.992 104.976 152.056 104.976C152.429 104.976 152.707 104.832 152.888 104.544C153.037 104.309 153.112 103.931 153.112 103.408V99.36H157.784ZM159.195 106L161.259 103.264C161.195 103.264 161.104 103.253 160.987 103.232C160.88 103.211 160.72 103.157 160.507 103.072C160.294 102.987 160.118 102.875 159.979 102.736C159.627 102.405 159.451 101.963 159.451 101.408C159.451 100.779 159.648 100.283 160.043 99.92C160.438 99.5467 161.088 99.36 161.995 99.36H164.315V106H163.163V103.328H162.459L160.571 106H159.195ZM163.163 102.368V100.384H162.091C161.59 100.384 161.243 100.443 161.051 100.56C160.774 100.741 160.635 101.013 160.635 101.376C160.635 101.739 160.774 102.005 161.051 102.176C161.254 102.304 161.595 102.368 162.075 102.368H163.163ZM170.229 99.36H175.573V106H174.421V100.416H171.381V106H170.229V99.36ZM183.36 105.2C182.699 105.861 181.862 106.192 180.848 106.192C179.835 106.192 178.992 105.861 178.32 105.2C177.659 104.539 177.328 103.707 177.328 102.704C177.328 101.691 177.659 100.853 178.32 100.192C178.992 99.5307 179.835 99.2 180.848 99.2C181.862 99.2 182.699 99.5307 183.36 100.192C184.032 100.853 184.368 101.691 184.368 102.704C184.368 103.707 184.032 104.539 183.36 105.2ZM182.496 100.88C182.048 100.443 181.499 100.224 180.848 100.224C180.198 100.224 179.643 100.448 179.184 100.896C178.736 101.333 178.512 101.936 178.512 102.704C178.512 103.472 178.742 104.075 179.2 104.512C179.659 104.949 180.208 105.168 180.848 105.168C181.488 105.168 182.038 104.949 182.496 104.512C182.955 104.075 183.184 103.472 183.184 102.704C183.184 101.925 182.955 101.317 182.496 100.88ZM191.159 99.36V106H190.007V100.416H187.639V103.408C187.639 104.272 187.468 104.912 187.127 105.328C186.743 105.797 186.21 106.032 185.527 106.032C185.442 106.032 185.324 106.021 185.175 106V104.944C185.282 104.965 185.367 104.976 185.431 104.976C185.804 104.976 186.082 104.832 186.263 104.544C186.412 104.309 186.487 103.931 186.487 103.408V99.36H191.159ZM193.338 106V99.36H194.49V101.904H195.674C196.591 101.904 197.263 102.123 197.69 102.56C198.031 102.901 198.202 103.365 198.202 103.952C198.202 104.571 198.005 105.067 197.61 105.44C197.215 105.813 196.565 106 195.658 106H193.338ZM194.49 104.976H195.562C196.042 104.976 196.383 104.917 196.586 104.8C196.874 104.608 197.018 104.325 197.018 103.952C197.018 103.568 196.879 103.291 196.602 103.12C196.41 102.992 196.069 102.928 195.578 102.928H194.49V104.976ZM200.608 101.056L199.808 100.4C200.064 100.027 200.347 99.7493 200.656 99.568C201.072 99.3227 201.558 99.2 202.112 99.2C202.784 99.2 203.307 99.3547 203.68 99.664C204.064 99.9947 204.256 100.416 204.256 100.928C204.256 101.547 204.006 102.011 203.504 102.32C203.824 102.395 204.08 102.539 204.272 102.752C204.582 103.083 204.736 103.488 204.736 103.968C204.736 104.683 204.448 105.253 203.872 105.68C203.403 106.021 202.774 106.192 201.984 106.192C201.28 106.192 200.688 106.005 200.208 105.632C199.846 105.365 199.552 104.987 199.328 104.496L200.32 104.08C200.438 104.379 200.635 104.629 200.912 104.832C201.211 105.056 201.574 105.168 202 105.168C202.502 105.168 202.875 105.083 203.12 104.912C203.43 104.709 203.584 104.4 203.584 103.984C203.584 103.643 203.451 103.387 203.184 103.216C202.96 103.067 202.598 102.992 202.096 102.992H201.424V101.936H201.984C202.39 101.936 202.678 101.877 202.848 101.76C203.083 101.611 203.2 101.408 203.2 101.152C203.2 100.853 203.104 100.624 202.912 100.464C202.731 100.304 202.448 100.224 202.064 100.224C201.734 100.224 201.43 100.309 201.152 100.48C200.918 100.629 200.736 100.821 200.608 101.056ZM212.11 105.2C211.449 105.861 210.612 106.192 209.598 106.192C208.585 106.192 207.742 105.861 207.07 105.2C206.409 104.539 206.078 103.707 206.078 102.704C206.078 101.691 206.409 100.853 207.07 100.192C207.742 99.5307 208.585 99.2 209.598 99.2C210.612 99.2 211.449 99.5307 212.11 100.192C212.782 100.853 213.118 101.691 213.118 102.704C213.118 103.707 212.782 104.539 212.11 105.2ZM211.246 100.88C210.798 100.443 210.249 100.224 209.598 100.224C208.948 100.224 208.393 100.448 207.934 100.896C207.486 101.333 207.262 101.936 207.262 102.704C207.262 103.472 207.492 104.075 207.95 104.512C208.409 104.949 208.958 105.168 209.598 105.168C210.238 105.168 210.788 104.949 211.246 104.512C211.705 104.075 211.934 103.472 211.934 102.704C211.934 101.925 211.705 101.317 211.246 100.88ZM214.885 99.36H217.397C218.005 99.36 218.469 99.488 218.789 99.744C219.173 100.053 219.365 100.469 219.365 100.992C219.365 101.568 219.125 102.011 218.645 102.32C218.976 102.405 219.253 102.555 219.477 102.768C219.829 103.109 220.005 103.536 220.005 104.048C220.005 104.688 219.776 105.189 219.317 105.552C218.922 105.851 218.4 106 217.749 106H214.885V99.36ZM216.037 102.064H217.253C217.562 102.064 217.808 102 217.989 101.872C218.202 101.712 218.309 101.483 218.309 101.184C218.309 100.917 218.202 100.704 217.989 100.544C217.829 100.437 217.52 100.384 217.061 100.384H216.037V102.064ZM216.037 104.976H217.461C217.952 104.976 218.298 104.901 218.501 104.752C218.757 104.56 218.885 104.315 218.885 104.016C218.885 103.696 218.773 103.445 218.549 103.264C218.346 103.104 218 103.024 217.509 103.024H216.037V104.976ZM226.848 100.304V99.36H228V106H226.848V105.072C226.272 105.819 225.515 106.192 224.576 106.192C223.68 106.192 222.917 105.883 222.288 105.264C221.659 104.645 221.344 103.781 221.344 102.672C221.344 101.584 221.653 100.736 222.272 100.128C222.901 99.5093 223.669 99.2 224.576 99.2C225.536 99.2 226.293 99.568 226.848 100.304ZM224.704 100.224C224.096 100.224 223.579 100.443 223.152 100.88C222.736 101.307 222.528 101.904 222.528 102.672C222.528 103.408 222.72 104.011 223.104 104.48C223.499 104.939 224.032 105.168 224.704 105.168C225.376 105.168 225.909 104.928 226.304 104.448C226.709 103.968 226.912 103.381 226.912 102.688C226.912 101.899 226.688 101.291 226.24 100.864C225.792 100.437 225.28 100.224 224.704 100.224ZM234.534 100.416H232.454V106H231.302V100.416H229.222V99.36H234.534V100.416ZM240.516 103.776L241.476 104.304C241.252 104.731 240.98 105.088 240.66 105.376C240.052 105.92 239.316 106.192 238.452 106.192C237.556 106.192 236.783 105.904 236.132 105.328C235.492 104.741 235.172 103.872 235.172 102.72C235.172 101.707 235.46 100.869 236.036 100.208C236.623 99.536 237.407 99.2 238.388 99.2C239.497 99.2 240.335 99.6053 240.9 100.416C241.348 101.056 241.556 101.888 241.524 102.912H236.356C236.367 103.584 236.575 104.128 236.98 104.544C237.385 104.96 237.881 105.168 238.468 105.168C238.991 105.168 239.444 105.008 239.828 104.688C240.127 104.432 240.356 104.128 240.516 103.776ZM236.436 101.952H240.34C240.244 101.429 240.015 101.013 239.652 100.704C239.3 100.384 238.879 100.224 238.388 100.224C237.908 100.224 237.481 100.389 237.108 100.72C236.745 101.04 236.521 101.451 236.436 101.952ZM248.315 99.36V106H247.163V100.416H244.795V103.408C244.795 104.272 244.624 104.912 244.283 105.328C243.899 105.797 243.366 106.032 242.683 106.032C242.598 106.032 242.48 106.021 242.331 106V104.944C242.438 104.965 242.523 104.976 242.587 104.976C242.96 104.976 243.238 104.832 243.419 104.544C243.568 104.309 243.643 103.931 243.643 103.408V99.36H248.315ZM249.726 106L251.79 103.264C251.726 103.264 251.636 103.253 251.518 103.232C251.412 103.211 251.252 103.157 251.038 103.072C250.825 102.987 250.649 102.875 250.51 102.736C250.158 102.405 249.982 101.963 249.982 101.408C249.982 100.779 250.18 100.283 250.574 99.92C250.969 99.5467 251.62 99.36 252.526 99.36H254.846V106H253.694V103.328H252.99L251.102 106H249.726ZM253.694 102.368V100.384H252.622C252.121 100.384 251.774 100.443 251.582 100.56C251.305 100.741 251.166 101.013 251.166 101.376C251.166 101.739 251.305 102.005 251.582 102.176C251.785 102.304 252.126 102.368 252.606 102.368H253.694ZM257.202 105.92C257.042 105.76 256.962 105.573 256.962 105.36C256.962 105.147 257.042 104.96 257.202 104.8C257.362 104.64 257.548 104.56 257.762 104.56C257.975 104.56 258.162 104.64 258.322 104.8C258.482 104.96 258.562 105.147 258.562 105.36C258.562 105.573 258.482 105.76 258.322 105.92C258.162 106.08 257.975 106.16 257.762 106.16C257.548 106.16 257.362 106.08 257.202 105.92ZM110.224 124H109.008L110.784 112.736L114.88 121.744L119.056 112.72L120.72 124H119.504L118.496 116.576L114.864 124.448L111.28 116.576L110.224 124ZM128.517 123.2C127.855 123.861 127.018 124.192 126.005 124.192C124.991 124.192 124.149 123.861 123.477 123.2C122.815 122.539 122.485 121.707 122.485 120.704C122.485 119.691 122.815 118.853 123.477 118.192C124.149 117.531 124.991 117.2 126.005 117.2C127.018 117.2 127.855 117.531 128.517 118.192C129.189 118.853 129.525 119.691 129.525 120.704C129.525 121.707 129.189 122.539 128.517 123.2ZM127.653 118.88C127.205 118.443 126.655 118.224 126.005 118.224C125.354 118.224 124.799 118.448 124.341 118.896C123.893 119.333 123.669 119.936 123.669 120.704C123.669 121.472 123.898 122.075 124.357 122.512C124.815 122.949 125.365 123.168 126.005 123.168C126.645 123.168 127.194 122.949 127.653 122.512C128.111 122.075 128.341 121.472 128.341 120.704C128.341 119.925 128.111 119.317 127.653 118.88ZM134.395 117.36H135.547V120.08L138.043 117.36H139.387L136.507 120.432L139.675 124H138.235L135.771 121.2L135.547 121.424V124H134.395V121.424L134.171 121.2L131.707 124H130.267L133.435 120.432L130.555 117.36H131.899L134.395 120.08V117.36ZM145.594 121.776L146.554 122.304C146.33 122.731 146.058 123.088 145.738 123.376C145.13 123.92 144.394 124.192 143.53 124.192C142.634 124.192 141.861 123.904 141.21 123.328C140.57 122.741 140.25 121.872 140.25 120.72C140.25 119.707 140.538 118.869 141.114 118.208C141.701 117.536 142.485 117.2 143.466 117.2C144.575 117.2 145.413 117.605 145.978 118.416C146.426 119.056 146.634 119.888 146.602 120.912H141.434C141.445 121.584 141.653 122.128 142.058 122.544C142.463 122.96 142.959 123.168 143.546 123.168C144.069 123.168 144.522 123.008 144.906 122.688C145.205 122.432 145.434 122.128 145.594 121.776ZM141.514 119.952H145.418C145.322 119.429 145.093 119.013 144.73 118.704C144.378 118.384 143.957 118.224 143.466 118.224C142.986 118.224 142.559 118.389 142.186 118.72C141.823 119.04 141.599 119.451 141.514 119.952ZM152.721 118.416H150.641V124H149.489V118.416H147.409V117.36H152.721V118.416ZM157.666 117.36H158.818V121.744L163.362 116.848V124H162.21V119.568L157.666 124.464V117.36ZM170.741 117.84V119.216C170.218 118.555 169.525 118.224 168.661 118.224C168.01 118.224 167.456 118.448 166.997 118.896C166.538 119.333 166.309 119.936 166.309 120.704C166.309 121.472 166.538 122.075 166.997 122.512C167.456 122.949 168.005 123.168 168.645 123.168C169.498 123.168 170.213 122.821 170.789 122.128V123.504C170.16 123.963 169.456 124.192 168.677 124.192C167.642 124.192 166.789 123.867 166.117 123.216C165.456 122.555 165.125 121.723 165.125 120.72C165.125 119.707 165.461 118.869 166.133 118.208C166.805 117.536 167.653 117.2 168.677 117.2C169.445 117.2 170.133 117.413 170.741 117.84ZM172.557 117.36H177.901V124H176.749V118.416H173.709V124H172.557V117.36ZM185.688 123.2C185.027 123.861 184.19 124.192 183.176 124.192C182.163 124.192 181.32 123.861 180.648 123.2C179.987 122.539 179.656 121.707 179.656 120.704C179.656 119.691 179.987 118.853 180.648 118.192C181.32 117.531 182.163 117.2 183.176 117.2C184.19 117.2 185.027 117.531 185.688 118.192C186.36 118.853 186.696 119.691 186.696 120.704C186.696 121.707 186.36 122.539 185.688 123.2ZM184.824 118.88C184.376 118.443 183.827 118.224 183.176 118.224C182.526 118.224 181.971 118.448 181.512 118.896C181.064 119.333 180.84 119.936 180.84 120.704C180.84 121.472 181.07 122.075 181.528 122.512C181.987 122.949 182.536 123.168 183.176 123.168C183.816 123.168 184.366 122.949 184.824 122.512C185.283 122.075 185.512 121.472 185.512 120.704C185.512 119.925 185.283 119.317 184.824 118.88ZM193.487 117.36V124H192.335V118.416H189.967V121.408C189.967 122.272 189.796 122.912 189.455 123.328C189.071 123.797 188.538 124.032 187.855 124.032C187.77 124.032 187.652 124.021 187.503 124V122.944C187.61 122.965 187.695 122.976 187.759 122.976C188.132 122.976 188.41 122.832 188.591 122.544C188.74 122.309 188.815 121.931 188.815 121.408V117.36H193.487ZM195.666 124V117.36H196.818V119.904H198.002C198.919 119.904 199.591 120.123 200.018 120.56C200.359 120.901 200.53 121.365 200.53 121.952C200.53 122.571 200.333 123.067 199.938 123.44C199.543 123.813 198.893 124 197.986 124H195.666ZM196.818 122.976H197.89C198.37 122.976 198.711 122.917 198.914 122.8C199.202 122.608 199.346 122.325 199.346 121.952C199.346 121.568 199.207 121.291 198.93 121.12C198.738 120.992 198.397 120.928 197.906 120.928H196.818V122.976ZM202.936 119.056L202.136 118.4C202.392 118.027 202.675 117.749 202.984 117.568C203.4 117.323 203.886 117.2 204.44 117.2C205.112 117.2 205.635 117.355 206.008 117.664C206.392 117.995 206.584 118.416 206.584 118.928C206.584 119.547 206.334 120.011 205.832 120.32C206.152 120.395 206.408 120.539 206.6 120.752C206.91 121.083 207.064 121.488 207.064 121.968C207.064 122.683 206.776 123.253 206.2 123.68C205.731 124.021 205.102 124.192 204.312 124.192C203.608 124.192 203.016 124.005 202.536 123.632C202.174 123.365 201.88 122.987 201.656 122.496L202.648 122.08C202.766 122.379 202.963 122.629 203.24 122.832C203.539 123.056 203.902 123.168 204.328 123.168C204.83 123.168 205.203 123.083 205.448 122.912C205.758 122.709 205.912 122.4 205.912 121.984C205.912 121.643 205.779 121.387 205.512 121.216C205.288 121.067 204.926 120.992 204.424 120.992H203.752V119.936H204.312C204.718 119.936 205.006 119.877 205.176 119.76C205.411 119.611 205.528 119.408 205.528 119.152C205.528 118.853 205.432 118.624 205.24 118.464C205.059 118.304 204.776 118.224 204.392 118.224C204.062 118.224 203.758 118.309 203.48 118.48C203.246 118.629 203.064 118.821 202.936 119.056ZM214.438 123.2C213.777 123.861 212.94 124.192 211.926 124.192C210.913 124.192 210.07 123.861 209.398 123.2C208.737 122.539 208.406 121.707 208.406 120.704C208.406 119.691 208.737 118.853 209.398 118.192C210.07 117.531 210.913 117.2 211.926 117.2C212.94 117.2 213.777 117.531 214.438 118.192C215.11 118.853 215.446 119.691 215.446 120.704C215.446 121.707 215.11 122.539 214.438 123.2ZM213.574 118.88C213.126 118.443 212.577 118.224 211.926 118.224C211.276 118.224 210.721 118.448 210.262 118.896C209.814 119.333 209.59 119.936 209.59 120.704C209.59 121.472 209.82 122.075 210.278 122.512C210.737 122.949 211.286 123.168 211.926 123.168C212.566 123.168 213.116 122.949 213.574 122.512C214.033 122.075 214.262 121.472 214.262 120.704C214.262 119.925 214.033 119.317 213.574 118.88ZM217.213 117.36H219.725C220.333 117.36 220.797 117.488 221.117 117.744C221.501 118.053 221.693 118.469 221.693 118.992C221.693 119.568 221.453 120.011 220.973 120.32C221.304 120.405 221.581 120.555 221.805 120.768C222.157 121.109 222.333 121.536 222.333 122.048C222.333 122.688 222.104 123.189 221.645 123.552C221.25 123.851 220.728 124 220.077 124H217.213V117.36ZM218.365 120.064H219.581C219.89 120.064 220.136 120 220.317 119.872C220.53 119.712 220.637 119.483 220.637 119.184C220.637 118.917 220.53 118.704 220.317 118.544C220.157 118.437 219.848 118.384 219.389 118.384H218.365V120.064ZM218.365 122.976H219.789C220.28 122.976 220.626 122.901 220.829 122.752C221.085 122.56 221.213 122.315 221.213 122.016C221.213 121.696 221.101 121.445 220.877 121.264C220.674 121.104 220.328 121.024 219.837 121.024H218.365V122.976ZM229.176 118.304V117.36H230.328V124H229.176V123.072C228.6 123.819 227.843 124.192 226.904 124.192C226.008 124.192 225.245 123.883 224.616 123.264C223.987 122.645 223.672 121.781 223.672 120.672C223.672 119.584 223.981 118.736 224.6 118.128C225.229 117.509 225.997 117.2 226.904 117.2C227.864 117.2 228.621 117.568 229.176 118.304ZM227.032 118.224C226.424 118.224 225.907 118.443 225.48 118.88C225.064 119.307 224.856 119.904 224.856 120.672C224.856 121.408 225.048 122.011 225.432 122.48C225.827 122.939 226.36 123.168 227.032 123.168C227.704 123.168 228.237 122.928 228.632 122.448C229.037 121.968 229.24 121.381 229.24 120.688C229.24 119.899 229.016 119.291 228.568 118.864C228.12 118.437 227.608 118.224 227.032 118.224ZM236.862 118.416H234.782V124H233.63V118.416H231.55V117.36H236.862V118.416ZM238.072 124V117.36H239.224V119.904H240.408C241.326 119.904 241.998 120.123 242.424 120.56C242.766 120.901 242.936 121.365 242.936 121.952C242.936 122.571 242.739 123.067 242.344 123.44C241.95 123.813 241.299 124 240.392 124H238.072ZM239.224 122.976H240.296C240.776 122.976 241.118 122.917 241.32 122.8C241.608 122.608 241.752 122.325 241.752 121.952C241.752 121.568 241.614 121.291 241.336 121.12C241.144 120.992 240.803 120.928 240.312 120.928H239.224V122.976ZM249.679 117.84V119.216C249.156 118.555 248.463 118.224 247.599 118.224C246.948 118.224 246.393 118.448 245.935 118.896C245.476 119.333 245.247 119.936 245.247 120.704C245.247 121.472 245.476 122.075 245.935 122.512C246.393 122.949 246.943 123.168 247.583 123.168C248.436 123.168 249.151 122.821 249.727 122.128V123.504C249.097 123.963 248.393 124.192 247.615 124.192C246.58 124.192 245.727 123.867 245.055 123.216C244.393 122.555 244.063 121.723 244.063 120.72C244.063 119.707 244.399 118.869 245.071 118.208C245.743 117.536 246.591 117.2 247.615 117.2C248.383 117.2 249.071 117.413 249.679 117.84ZM250.726 124L252.79 121.264C252.726 121.264 252.636 121.253 252.518 121.232C252.412 121.211 252.252 121.157 252.038 121.072C251.825 120.987 251.649 120.875 251.51 120.736C251.158 120.405 250.982 119.963 250.982 119.408C250.982 118.779 251.18 118.283 251.574 117.92C251.969 117.547 252.62 117.36 253.526 117.36H255.846V124H254.694V121.328H253.99L252.102 124H250.726ZM254.694 120.368V118.384H253.622C253.121 118.384 252.774 118.443 252.582 118.56C252.305 118.741 252.166 119.013 252.166 119.376C252.166 119.739 252.305 120.005 252.582 120.176C252.785 120.304 253.126 120.368 253.606 120.368H254.694ZM114.208 130.8H115.488C115.371 131.195 115.168 131.531 114.88 131.808C114.603 132.075 114.347 132.256 114.112 132.352C113.888 132.448 113.621 132.533 113.312 132.608C113.259 132.619 113.131 132.651 112.928 132.704C112.725 132.747 112.571 132.784 112.464 132.816C112.357 132.848 112.219 132.891 112.048 132.944C111.877 132.997 111.723 133.061 111.584 133.136C111.445 133.211 111.317 133.291 111.2 133.376C110.795 133.685 110.464 134.117 110.208 134.672C109.963 135.216 109.829 135.797 109.808 136.416H109.84C110.32 135.605 111.125 135.2 112.256 135.2C113.248 135.2 114.069 135.536 114.72 136.208C115.381 136.88 115.712 137.712 115.712 138.704C115.712 139.707 115.376 140.539 114.704 141.2C114.032 141.861 113.157 142.192 112.08 142.192C111.152 142.192 110.389 141.915 109.792 141.36C109.045 140.677 108.672 139.536 108.672 137.936C108.672 135.152 109.301 133.328 110.56 132.464C110.656 132.4 110.757 132.341 110.864 132.288C110.971 132.224 111.083 132.171 111.2 132.128C111.328 132.075 111.435 132.032 111.52 132C111.605 131.957 111.723 131.92 111.872 131.888C112.032 131.845 112.139 131.819 112.192 131.808C112.256 131.787 112.373 131.76 112.544 131.728C112.725 131.685 112.837 131.659 112.88 131.648C113.307 131.552 113.616 131.44 113.808 131.312C114 131.173 114.133 131.003 114.208 130.8ZM113.84 136.88C113.392 136.443 112.843 136.224 112.192 136.224C111.541 136.224 110.987 136.448 110.528 136.896C110.08 137.333 109.856 137.936 109.856 138.704C109.856 139.472 110.085 140.075 110.544 140.512C111.003 140.949 111.552 141.168 112.192 141.168C112.832 141.168 113.381 140.949 113.84 140.512C114.299 140.075 114.528 139.472 114.528 138.704C114.528 137.925 114.299 137.317 113.84 136.88ZM122.407 139.776L123.367 140.304C123.143 140.731 122.871 141.088 122.551 141.376C121.943 141.92 121.207 142.192 120.343 142.192C119.447 142.192 118.673 141.904 118.023 141.328C117.383 140.741 117.063 139.872 117.063 138.72C117.063 137.707 117.351 136.869 117.927 136.208C118.513 135.536 119.297 135.2 120.279 135.2C121.388 135.2 122.225 135.605 122.791 136.416C123.239 137.056 123.447 137.888 123.415 138.912H118.247C118.257 139.584 118.465 140.128 118.871 140.544C119.276 140.96 119.772 141.168 120.359 141.168C120.881 141.168 121.335 141.008 121.719 140.688C122.017 140.432 122.247 140.128 122.407 139.776ZM118.327 137.952H122.231C122.135 137.429 121.905 137.013 121.543 136.704C121.191 136.384 120.769 136.224 120.279 136.224C119.799 136.224 119.372 136.389 118.999 136.72C118.636 137.04 118.412 137.451 118.327 137.952ZM125.89 137.056L125.09 136.4C125.346 136.027 125.628 135.749 125.938 135.568C126.354 135.323 126.839 135.2 127.394 135.2C128.066 135.2 128.588 135.355 128.962 135.664C129.346 135.995 129.538 136.416 129.538 136.928C129.538 137.547 129.287 138.011 128.786 138.32C129.106 138.395 129.362 138.539 129.554 138.752C129.863 139.083 130.018 139.488 130.018 139.968C130.018 140.683 129.73 141.253 129.154 141.68C128.684 142.021 128.055 142.192 127.266 142.192C126.562 142.192 125.97 142.005 125.49 141.632C125.127 141.365 124.834 140.987 124.61 140.496L125.602 140.08C125.719 140.379 125.916 140.629 126.194 140.832C126.492 141.056 126.855 141.168 127.282 141.168C127.783 141.168 128.156 141.083 128.402 140.912C128.711 140.709 128.866 140.4 128.866 139.984C128.866 139.643 128.732 139.387 128.466 139.216C128.242 139.067 127.879 138.992 127.378 138.992H126.706V137.936H127.266C127.671 137.936 127.959 137.877 128.13 137.76C128.364 137.611 128.482 137.408 128.482 137.152C128.482 136.853 128.386 136.624 128.194 136.464C128.012 136.304 127.73 136.224 127.346 136.224C127.015 136.224 126.711 136.309 126.434 136.48C126.199 136.629 126.018 136.821 125.89 137.056ZM136.374 137.056L135.574 136.4C135.83 136.027 136.113 135.749 136.422 135.568C136.838 135.323 137.323 135.2 137.878 135.2C138.55 135.2 139.073 135.355 139.446 135.664C139.83 135.995 140.022 136.416 140.022 136.928C140.022 137.547 139.771 138.011 139.27 138.32C139.59 138.395 139.846 138.539 140.038 138.752C140.347 139.083 140.502 139.488 140.502 139.968C140.502 140.683 140.214 141.253 139.638 141.68C139.169 142.021 138.539 142.192 137.75 142.192C137.046 142.192 136.454 142.005 135.974 141.632C135.611 141.365 135.318 140.987 135.094 140.496L136.086 140.08C136.203 140.379 136.401 140.629 136.678 140.832C136.977 141.056 137.339 141.168 137.766 141.168C138.267 141.168 138.641 141.083 138.886 140.912C139.195 140.709 139.35 140.4 139.35 139.984C139.35 139.643 139.217 139.387 138.95 139.216C138.726 139.067 138.363 138.992 137.862 138.992H137.19V137.936H137.75C138.155 137.936 138.443 137.877 138.614 137.76C138.849 137.611 138.966 137.408 138.966 137.152C138.966 136.853 138.87 136.624 138.678 136.464C138.497 136.304 138.214 136.224 137.83 136.224C137.499 136.224 137.195 136.309 136.918 136.48C136.683 136.629 136.502 136.821 136.374 137.056ZM147.348 136.304V135.36H148.5V142H147.348V141.072C146.772 141.819 146.015 142.192 145.076 142.192C144.18 142.192 143.417 141.883 142.788 141.264C142.159 140.645 141.844 139.781 141.844 138.672C141.844 137.584 142.153 136.736 142.772 136.128C143.401 135.509 144.169 135.2 145.076 135.2C146.036 135.2 146.793 135.568 147.348 136.304ZM145.204 136.224C144.596 136.224 144.079 136.443 143.652 136.88C143.236 137.307 143.028 137.904 143.028 138.672C143.028 139.408 143.22 140.011 143.604 140.48C143.999 140.939 144.532 141.168 145.204 141.168C145.876 141.168 146.409 140.928 146.804 140.448C147.209 139.968 147.412 139.381 147.412 138.688C147.412 137.899 147.188 137.291 146.74 136.864C146.292 136.437 145.78 136.224 145.204 136.224ZM150.682 142V135.36H154.618V136.416H151.834V142H150.682ZM161.048 141.2C160.386 141.861 159.549 142.192 158.536 142.192C157.522 142.192 156.68 141.861 156.008 141.2C155.346 140.539 155.016 139.707 155.016 138.704C155.016 137.691 155.346 136.853 156.008 136.192C156.68 135.531 157.522 135.2 158.536 135.2C159.549 135.2 160.386 135.531 161.048 136.192C161.72 136.853 162.056 137.691 162.056 138.704C162.056 139.707 161.72 140.539 161.048 141.2ZM160.184 136.88C159.736 136.443 159.186 136.224 158.536 136.224C157.885 136.224 157.33 136.448 156.872 136.896C156.424 137.333 156.2 137.936 156.2 138.704C156.2 139.472 156.429 140.075 156.888 140.512C157.346 140.949 157.896 141.168 158.536 141.168C159.176 141.168 159.725 140.949 160.184 140.512C160.642 140.075 160.872 139.472 160.872 138.704C160.872 137.925 160.642 137.317 160.184 136.88ZM168.846 135.36V142H167.694V136.416H165.326V139.408C165.326 140.272 165.156 140.912 164.814 141.328C164.43 141.797 163.897 142.032 163.214 142.032C163.129 142.032 163.012 142.021 162.862 142V140.944C162.969 140.965 163.054 140.976 163.118 140.976C163.492 140.976 163.769 140.832 163.95 140.544C164.1 140.309 164.174 139.931 164.174 139.408V135.36H168.846ZM176.642 141.2C175.98 141.861 175.143 142.192 174.13 142.192C173.116 142.192 172.274 141.861 171.602 141.2C170.94 140.539 170.61 139.707 170.61 138.704C170.61 137.691 170.94 136.853 171.602 136.192C172.274 135.531 173.116 135.2 174.13 135.2C175.143 135.2 175.98 135.531 176.642 136.192C177.314 136.853 177.65 137.691 177.65 138.704C177.65 139.707 177.314 140.539 176.642 141.2ZM175.778 136.88C175.33 136.443 174.78 136.224 174.13 136.224C173.479 136.224 172.924 136.448 172.466 136.896C172.018 137.333 171.794 137.936 171.794 138.704C171.794 139.472 172.023 140.075 172.482 140.512C172.94 140.949 173.49 141.168 174.13 141.168C174.77 141.168 175.319 140.949 175.778 140.512C176.236 140.075 176.466 139.472 176.466 138.704C176.466 137.925 176.236 137.317 175.778 136.88ZM179.416 135.36H181.928C182.536 135.36 183 135.488 183.32 135.744C183.704 136.053 183.896 136.469 183.896 136.992C183.896 137.568 183.656 138.011 183.176 138.32C183.507 138.405 183.784 138.555 184.008 138.768C184.36 139.109 184.536 139.536 184.536 140.048C184.536 140.688 184.307 141.189 183.848 141.552C183.453 141.851 182.931 142 182.28 142H179.416V135.36ZM180.568 138.064H181.784C182.093 138.064 182.339 138 182.52 137.872C182.733 137.712 182.84 137.483 182.84 137.184C182.84 136.917 182.733 136.704 182.52 136.544C182.36 136.437 182.051 136.384 181.592 136.384H180.568V138.064ZM180.568 140.976H181.992C182.483 140.976 182.829 140.901 183.032 140.752C183.288 140.56 183.416 140.315 183.416 140.016C183.416 139.696 183.304 139.445 183.08 139.264C182.877 139.104 182.531 139.024 182.04 139.024H180.568V140.976ZM186.291 135.36H187.443V138.08L190.131 135.36H191.539L188.659 138.32L191.891 142H190.387L187.795 139.088L187.443 139.424V142H186.291V135.36ZM198.129 136.304V135.36H199.281V142H198.129V141.072C197.553 141.819 196.796 142.192 195.857 142.192C194.961 142.192 194.198 141.883 193.569 141.264C192.94 140.645 192.625 139.781 192.625 138.672C192.625 137.584 192.934 136.736 193.553 136.128C194.182 135.509 194.95 135.2 195.857 135.2C196.817 135.2 197.574 135.568 198.129 136.304ZM195.985 136.224C195.377 136.224 194.86 136.443 194.433 136.88C194.017 137.307 193.809 137.904 193.809 138.672C193.809 139.408 194.001 140.011 194.385 140.48C194.78 140.939 195.313 141.168 195.985 141.168C196.657 141.168 197.19 140.928 197.585 140.448C197.99 139.968 198.193 139.381 198.193 138.688C198.193 137.899 197.969 137.291 197.521 136.864C197.073 136.437 196.561 136.224 195.985 136.224ZM201.639 141.92C201.479 141.76 201.399 141.573 201.399 141.36C201.399 141.147 201.479 140.96 201.639 140.8C201.799 140.64 201.986 140.56 202.199 140.56C202.412 140.56 202.599 140.64 202.759 140.8C202.919 140.96 202.999 141.147 202.999 141.36C202.999 141.573 202.919 141.76 202.759 141.92C202.599 142.08 202.412 142.16 202.199 142.16C201.986 142.16 201.799 142.08 201.639 141.92Z" fill="#0B1530"/>
<path d="M207.5 166L199.5 158L215.5 158L207.5 166Z" fill="white"/>
</g>
<defs>
<filter id="filter0_d_903_2833" x="84" y="20" width="247" height="158" filterUnits="userSpaceOnUse" color-interpolation-filters="sRGB">
<feFlood flood-opacity="0" result="BackgroundImageFix"/>
<feColorMatrix in="SourceAlpha" type="matrix" values="0 0 0 0 0 0 0 0 0 0 0 0 0 0 0 0 0 0 127 0" result="hardAlpha"/>
<feOffset/>
<feGaussianBlur stdDeviation="6"/>
<feComposite in2="hardAlpha" operator="out"/>
<feColorMatrix type="matrix" values="0 0 0 0 0 0 0 0 0 0 0 0 0 0 0 0 0 0 0.07 0"/>
<feBlend mode="normal" in2="BackgroundImageFix" result="effect1_dropShadow_903_2833"/>
<feBlend mode="normal" in="SourceGraphic" in2="effect1_dropShadow_903_2833" result="shape"/>
</filter>
<clipPath id="clip0_903_2833">
<rect width="175" height="16" fill="white" transform="translate(108 48)"/>
</clipPath>
</defs>
</svg>
