<svg width="415" height="198" viewBox="0 0 415 198" fill="none" xmlns="http://www.w3.org/2000/svg">
<rect width="415" height="198" rx="24" fill="#F5F6F8"/>
<g filter="url(#filter0_d_903_2974)">
<rect x="96" y="47" width="223" height="96" rx="8" fill="white"/>
<path d="M110.304 62.328H116.8V71.88H118.016V75.24H116.896V73H109.344V75.24H108.224V71.88C108.587 71.8907 108.917 71.7627 109.216 71.496C109.515 71.2187 109.749 70.8667 109.92 70.44C110.176 69.7893 110.304 68.856 110.304 67.64V62.328ZM111.488 63.448V67.64C111.488 68.952 111.36 69.944 111.104 70.616C110.923 71.096 110.651 71.5173 110.288 71.88H115.616V63.448H111.488ZM124.346 66.36V73H123.194V67.416H120.826V70.408C120.826 71.272 120.656 71.912 120.314 72.328C119.93 72.7973 119.397 73.032 118.714 73.032C118.629 73.032 118.512 73.0213 118.362 73V71.944C118.469 71.9653 118.554 71.976 118.618 71.976C118.992 71.976 119.269 71.832 119.45 71.544C119.6 71.3093 119.674 70.9307 119.674 70.408V66.36H124.346ZM126.526 66.36H127.678V70.744L132.222 65.848V73H131.07V68.568L126.526 73.464V66.36ZM134.401 73V66.36H135.553V69.08H138.689V66.36H139.841V73H138.689V70.136H135.553V73H134.401ZM142.01 73V66.36H143.162V69.08H146.298V66.36H147.45V73H146.298V70.136H143.162V73H142.01ZM149.619 73V66.36H150.771V68.904H151.955C152.873 68.904 153.545 69.1227 153.971 69.56C154.313 69.9013 154.483 70.3653 154.483 70.952C154.483 71.5707 154.286 72.0667 153.891 72.44C153.497 72.8133 152.846 73 151.939 73H149.619ZM150.771 71.976H151.843C152.323 71.976 152.665 71.9173 152.867 71.8C153.155 71.608 153.299 71.3253 153.299 70.952C153.299 70.568 153.161 70.2907 152.883 70.12C152.691 69.992 152.35 69.928 151.859 69.928H150.771V71.976ZM155.283 73V66.36H156.435V73H155.283ZM158.604 66.36H159.756V70.744L164.3 65.848V73H163.148V68.568L158.604 73.464V66.36ZM159.18 63.496L160.14 63.128C160.332 63.768 160.785 64.088 161.5 64.088C162.214 64.088 162.668 63.768 162.86 63.128L163.82 63.496C163.649 63.976 163.356 64.3547 162.94 64.632C162.534 64.9093 162.054 65.048 161.5 65.048C160.945 65.048 160.46 64.9093 160.044 64.632C159.638 64.3547 159.35 63.976 159.18 63.496ZM170.213 66.36H175.557V73H174.405V67.416H171.365V73H170.213V66.36ZM183.345 72.2C182.683 72.8613 181.846 73.192 180.833 73.192C179.819 73.192 178.977 72.8613 178.305 72.2C177.643 71.5387 177.313 70.7067 177.313 69.704C177.313 68.6907 177.643 67.8533 178.305 67.192C178.977 66.5307 179.819 66.2 180.833 66.2C181.846 66.2 182.683 66.5307 183.345 67.192C184.017 67.8533 184.353 68.6907 184.353 69.704C184.353 70.7067 184.017 71.5387 183.345 72.2ZM182.481 67.88C182.033 67.4427 181.483 67.224 180.833 67.224C180.182 67.224 179.627 67.448 179.169 67.896C178.721 68.3333 178.497 68.936 178.497 69.704C178.497 70.472 178.726 71.0747 179.185 71.512C179.643 71.9493 180.193 72.168 180.833 72.168C181.473 72.168 182.022 71.9493 182.481 71.512C182.939 71.0747 183.169 70.472 183.169 69.704C183.169 68.9253 182.939 68.3173 182.481 67.88ZM185.351 73L187.415 70.264C187.351 70.264 187.261 70.2533 187.143 70.232C187.037 70.2107 186.877 70.1573 186.663 70.072C186.45 69.9867 186.274 69.8747 186.135 69.736C185.783 69.4053 185.607 68.9627 185.607 68.408C185.607 67.7787 185.805 67.2827 186.199 66.92C186.594 66.5467 187.245 66.36 188.151 66.36H190.471V73H189.319V70.328H188.615L186.727 73H185.351ZM189.319 69.368V67.384H188.247C187.746 67.384 187.399 67.4427 187.207 67.56C186.93 67.7413 186.791 68.0133 186.791 68.376C186.791 68.7387 186.93 69.0053 187.207 69.176C187.41 69.304 187.751 69.368 188.231 69.368H189.319ZM197.851 66.84V68.216C197.328 67.5547 196.635 67.224 195.771 67.224C195.12 67.224 194.565 67.448 194.107 67.896C193.648 68.3333 193.419 68.936 193.419 69.704C193.419 70.472 193.648 71.0747 194.107 71.512C194.565 71.9493 195.115 72.168 195.755 72.168C196.608 72.168 197.323 71.8213 197.899 71.128V72.504C197.269 72.9627 196.565 73.192 195.786 73.192C194.752 73.192 193.899 72.8667 193.227 72.216C192.565 71.5547 192.235 70.7227 192.235 69.72C192.235 68.7067 192.571 67.8693 193.243 67.208C193.915 66.536 194.763 66.2 195.786 66.2C196.555 66.2 197.243 66.4133 197.851 66.84ZM199.666 73V66.36H200.818V69.08H203.954V66.36H205.106V73H203.954V70.136H200.818V73H199.666ZM206.508 73L208.572 70.264C208.508 70.264 208.417 70.2533 208.299 70.232C208.193 70.2107 208.033 70.1573 207.82 70.072C207.606 69.9867 207.43 69.8747 207.292 69.736C206.94 69.4053 206.764 68.9627 206.764 68.408C206.764 67.7787 206.961 67.2827 207.356 66.92C207.75 66.5467 208.401 66.36 209.308 66.36H211.628V73H210.476V70.328H209.772L207.884 73H206.508ZM210.476 69.368V67.384H209.404C208.902 67.384 208.556 67.4427 208.364 67.56C208.086 67.7413 207.948 68.0133 207.948 68.376C207.948 68.7387 208.086 69.0053 208.364 69.176C208.566 69.304 208.908 69.368 209.388 69.368H210.476ZM214.959 69.08H216.159C216.265 68.3333 216.564 67.704 217.055 67.192C217.684 66.5307 218.521 66.2 219.567 66.2C220.591 66.2 221.433 66.5307 222.095 67.192C222.756 67.8533 223.087 68.6907 223.087 69.704C223.087 70.7067 222.751 71.5387 222.079 72.2C221.417 72.8613 220.58 73.192 219.567 73.192C218.404 73.192 217.492 72.776 216.831 71.944C216.404 71.4107 216.159 70.808 216.095 70.136H214.959V73H213.807V66.36H214.959V69.08ZM219.567 67.224C218.927 67.224 218.383 67.448 217.935 67.896C217.497 68.3333 217.279 68.936 217.279 69.704C217.279 70.4827 217.503 71.0907 217.951 71.528C218.399 71.9547 218.937 72.168 219.567 72.168C220.207 72.168 220.756 71.9493 221.215 71.512C221.673 71.0747 221.903 70.472 221.903 69.704C221.903 68.936 221.673 68.3333 221.215 67.896C220.767 67.448 220.217 67.224 219.567 67.224ZM224.854 73V66.36H226.006V71.944H228.566V66.36H229.718V71.944H232.278V66.36H233.43V71.944H234.518V74.76H233.462V73H224.854ZM235.729 66.36H236.881V70.744L241.425 65.848V73H240.273V68.568L235.729 73.464V66.36ZM243.604 66.36H244.756V70.744L249.3 65.848V73H248.148V68.568L243.604 73.464V66.36ZM244.18 63.496L245.14 63.128C245.332 63.768 245.785 64.088 246.5 64.088C247.214 64.088 247.668 63.768 247.86 63.128L248.82 63.496C248.649 63.976 248.356 64.3547 247.94 64.632C247.534 64.9093 247.054 65.048 246.5 65.048C245.945 65.048 245.46 64.9093 245.044 64.632C244.638 64.3547 244.35 63.976 244.18 63.496ZM113.44 85.416H111.36V91H110.208V85.416H108.128V84.36H113.44V85.416ZM119.422 88.776L120.382 89.304C120.158 89.7307 119.886 90.088 119.566 90.376C118.958 90.92 118.222 91.192 117.358 91.192C116.462 91.192 115.689 90.904 115.038 90.328C114.398 89.7413 114.078 88.872 114.078 87.72C114.078 86.7067 114.366 85.8693 114.942 85.208C115.529 84.536 116.313 84.2 117.294 84.2C118.404 84.2 119.241 84.6053 119.806 85.416C120.254 86.056 120.462 86.888 120.43 87.912H115.262C115.273 88.584 115.481 89.128 115.886 89.544C116.292 89.96 116.788 90.168 117.374 90.168C117.897 90.168 118.35 90.008 118.734 89.688C119.033 89.432 119.262 89.128 119.422 88.776ZM115.342 86.952H119.246C119.15 86.4293 118.921 86.0133 118.558 85.704C118.206 85.384 117.785 85.224 117.294 85.224C116.814 85.224 116.388 85.3893 116.014 85.72C115.652 86.04 115.428 86.4507 115.342 86.952ZM122.197 84.36H123.349V87.08L126.037 84.36H127.445L124.565 87.32L127.797 91H126.293L123.701 88.088L123.349 88.424V91H122.197V84.36ZM133.804 84.84V86.216C133.281 85.5547 132.588 85.224 131.724 85.224C131.073 85.224 130.518 85.448 130.06 85.896C129.601 86.3333 129.372 86.936 129.372 87.704C129.372 88.472 129.601 89.0747 130.06 89.512C130.518 89.9493 131.068 90.168 131.708 90.168C132.561 90.168 133.276 89.8213 133.852 89.128V90.504C133.222 90.9627 132.518 91.192 131.74 91.192C130.705 91.192 129.852 90.8667 129.18 90.216C128.518 89.5547 128.188 88.7227 128.188 87.72C128.188 86.7067 128.524 85.8693 129.196 85.208C129.868 84.536 130.716 84.2 131.74 84.2C132.508 84.2 133.196 84.4133 133.804 84.84ZM139.971 85.416H137.891V91H136.739V85.416H134.659V84.36H139.971V85.416ZM145.396 84.36H150.068V89.944H151.06V92.76H150.004V91H144.948V92.76H143.892V89.944C144.447 89.9333 144.857 89.6453 145.124 89.08C145.305 88.7067 145.396 88.12 145.396 87.32V84.36ZM148.916 89.944V85.416H146.548V87.912C146.548 88.7973 146.281 89.4747 145.748 89.944H148.916ZM157.784 84.36V91H156.632V85.416H154.264V88.408C154.264 89.272 154.093 89.912 153.752 90.328C153.368 90.7973 152.835 91.032 152.152 91.032C152.067 91.032 151.949 91.0213 151.8 91V89.944C151.907 89.9653 151.992 89.976 152.056 89.976C152.429 89.976 152.707 89.832 152.888 89.544C153.037 89.3093 153.112 88.9307 153.112 88.408V84.36H157.784ZM159.195 91L161.259 88.264C161.195 88.264 161.104 88.2533 160.987 88.232C160.88 88.2107 160.72 88.1573 160.507 88.072C160.294 87.9867 160.118 87.8747 159.979 87.736C159.627 87.4053 159.451 86.9627 159.451 86.408C159.451 85.7787 159.648 85.2827 160.043 84.92C160.438 84.5467 161.088 84.36 161.995 84.36H164.315V91H163.163V88.328H162.459L160.571 91H159.195ZM163.163 87.368V85.384H162.091C161.59 85.384 161.243 85.4427 161.051 85.56C160.774 85.7413 160.635 86.0133 160.635 86.376C160.635 86.7387 160.774 87.0053 161.051 87.176C161.254 87.304 161.595 87.368 162.075 87.368H163.163ZM170.229 84.36H175.573V91H174.421V85.416H171.381V91H170.229V84.36ZM183.36 90.2C182.699 90.8613 181.862 91.192 180.848 91.192C179.835 91.192 178.992 90.8613 178.32 90.2C177.659 89.5387 177.328 88.7067 177.328 87.704C177.328 86.6907 177.659 85.8533 178.32 85.192C178.992 84.5307 179.835 84.2 180.848 84.2C181.862 84.2 182.699 84.5307 183.36 85.192C184.032 85.8533 184.368 86.6907 184.368 87.704C184.368 88.7067 184.032 89.5387 183.36 90.2ZM182.496 85.88C182.048 85.4427 181.499 85.224 180.848 85.224C180.198 85.224 179.643 85.448 179.184 85.896C178.736 86.3333 178.512 86.936 178.512 87.704C178.512 88.472 178.742 89.0747 179.2 89.512C179.659 89.9493 180.208 90.168 180.848 90.168C181.488 90.168 182.038 89.9493 182.496 89.512C182.955 89.0747 183.184 88.472 183.184 87.704C183.184 86.9253 182.955 86.3173 182.496 85.88ZM191.159 84.36V91H190.007V85.416H187.639V88.408C187.639 89.272 187.468 89.912 187.127 90.328C186.743 90.7973 186.21 91.032 185.527 91.032C185.442 91.032 185.324 91.0213 185.175 91V89.944C185.282 89.9653 185.367 89.976 185.431 89.976C185.804 89.976 186.082 89.832 186.263 89.544C186.412 89.3093 186.487 88.9307 186.487 88.408V84.36H191.159ZM193.338 91V84.36H194.49V86.904H195.674C196.591 86.904 197.263 87.1227 197.69 87.56C198.031 87.9013 198.202 88.3653 198.202 88.952C198.202 89.5707 198.005 90.0667 197.61 90.44C197.215 90.8133 196.565 91 195.658 91H193.338ZM194.49 89.976H195.562C196.042 89.976 196.383 89.9173 196.586 89.8C196.874 89.608 197.018 89.3253 197.018 88.952C197.018 88.568 196.879 88.2907 196.602 88.12C196.41 87.992 196.069 87.928 195.578 87.928H194.49V89.976ZM200.608 86.056L199.808 85.4C200.064 85.0267 200.347 84.7493 200.656 84.568C201.072 84.3227 201.558 84.2 202.112 84.2C202.784 84.2 203.307 84.3547 203.68 84.664C204.064 84.9947 204.256 85.416 204.256 85.928C204.256 86.5467 204.006 87.0107 203.504 87.32C203.824 87.3947 204.08 87.5387 204.272 87.752C204.582 88.0827 204.736 88.488 204.736 88.968C204.736 89.6827 204.448 90.2533 203.872 90.68C203.403 91.0213 202.774 91.192 201.984 91.192C201.28 91.192 200.688 91.0053 200.208 90.632C199.846 90.3653 199.552 89.9867 199.328 89.496L200.32 89.08C200.438 89.3787 200.635 89.6293 200.912 89.832C201.211 90.056 201.574 90.168 202 90.168C202.502 90.168 202.875 90.0827 203.12 89.912C203.43 89.7093 203.584 89.4 203.584 88.984C203.584 88.6427 203.451 88.3867 203.184 88.216C202.96 88.0667 202.598 87.992 202.096 87.992H201.424V86.936H201.984C202.39 86.936 202.678 86.8773 202.848 86.76C203.083 86.6107 203.2 86.408 203.2 86.152C203.2 85.8533 203.104 85.624 202.912 85.464C202.731 85.304 202.448 85.224 202.064 85.224C201.734 85.224 201.43 85.3093 201.152 85.48C200.918 85.6293 200.736 85.8213 200.608 86.056ZM212.11 90.2C211.449 90.8613 210.612 91.192 209.598 91.192C208.585 91.192 207.742 90.8613 207.07 90.2C206.409 89.5387 206.078 88.7067 206.078 87.704C206.078 86.6907 206.409 85.8533 207.07 85.192C207.742 84.5307 208.585 84.2 209.598 84.2C210.612 84.2 211.449 84.5307 212.11 85.192C212.782 85.8533 213.118 86.6907 213.118 87.704C213.118 88.7067 212.782 89.5387 212.11 90.2ZM211.246 85.88C210.798 85.4427 210.249 85.224 209.598 85.224C208.948 85.224 208.393 85.448 207.934 85.896C207.486 86.3333 207.262 86.936 207.262 87.704C207.262 88.472 207.492 89.0747 207.95 89.512C208.409 89.9493 208.958 90.168 209.598 90.168C210.238 90.168 210.788 89.9493 211.246 89.512C211.705 89.0747 211.934 88.472 211.934 87.704C211.934 86.9253 211.705 86.3173 211.246 85.88ZM214.885 84.36H217.397C218.005 84.36 218.469 84.488 218.789 84.744C219.173 85.0533 219.365 85.4693 219.365 85.992C219.365 86.568 219.125 87.0107 218.645 87.32C218.976 87.4053 219.253 87.5547 219.477 87.768C219.829 88.1093 220.005 88.536 220.005 89.048C220.005 89.688 219.776 90.1893 219.317 90.552C218.922 90.8507 218.4 91 217.749 91H214.885V84.36ZM216.037 87.064H217.253C217.562 87.064 217.808 87 217.989 86.872C218.202 86.712 218.309 86.4827 218.309 86.184C218.309 85.9173 218.202 85.704 217.989 85.544C217.829 85.4373 217.52 85.384 217.061 85.384H216.037V87.064ZM216.037 89.976H217.461C217.952 89.976 218.298 89.9013 218.501 89.752C218.757 89.56 218.885 89.3147 218.885 89.016C218.885 88.696 218.773 88.4453 218.549 88.264C218.346 88.104 218 88.024 217.509 88.024H216.037V89.976ZM226.848 85.304V84.36H228V91H226.848V90.072C226.272 90.8187 225.515 91.192 224.576 91.192C223.68 91.192 222.917 90.8827 222.288 90.264C221.659 89.6453 221.344 88.7813 221.344 87.672C221.344 86.584 221.653 85.736 222.272 85.128C222.901 84.5093 223.669 84.2 224.576 84.2C225.536 84.2 226.293 84.568 226.848 85.304ZM224.704 85.224C224.096 85.224 223.579 85.4427 223.152 85.88C222.736 86.3067 222.528 86.904 222.528 87.672C222.528 88.408 222.72 89.0107 223.104 89.48C223.499 89.9387 224.032 90.168 224.704 90.168C225.376 90.168 225.909 89.928 226.304 89.448C226.709 88.968 226.912 88.3813 226.912 87.688C226.912 86.8987 226.688 86.2907 226.24 85.864C225.792 85.4373 225.28 85.224 224.704 85.224ZM234.534 85.416H232.454V91H231.302V85.416H229.222V84.36H234.534V85.416ZM240.516 88.776L241.476 89.304C241.252 89.7307 240.98 90.088 240.66 90.376C240.052 90.92 239.316 91.192 238.452 91.192C237.556 91.192 236.783 90.904 236.132 90.328C235.492 89.7413 235.172 88.872 235.172 87.72C235.172 86.7067 235.46 85.8693 236.036 85.208C236.623 84.536 237.407 84.2 238.388 84.2C239.497 84.2 240.335 84.6053 240.9 85.416C241.348 86.056 241.556 86.888 241.524 87.912H236.356C236.367 88.584 236.575 89.128 236.98 89.544C237.385 89.96 237.881 90.168 238.468 90.168C238.991 90.168 239.444 90.008 239.828 89.688C240.127 89.432 240.356 89.128 240.516 88.776ZM236.436 86.952H240.34C240.244 86.4293 240.015 86.0133 239.652 85.704C239.3 85.384 238.879 85.224 238.388 85.224C237.908 85.224 237.481 85.3893 237.108 85.72C236.745 86.04 236.521 86.4507 236.436 86.952ZM248.315 84.36V91H247.163V85.416H244.795V88.408C244.795 89.272 244.624 89.912 244.283 90.328C243.899 90.7973 243.366 91.032 242.683 91.032C242.598 91.032 242.48 91.0213 242.331 91V89.944C242.438 89.9653 242.523 89.976 242.587 89.976C242.96 89.976 243.238 89.832 243.419 89.544C243.568 89.3093 243.643 88.9307 243.643 88.408V84.36H248.315ZM249.726 91L251.79 88.264C251.726 88.264 251.636 88.2533 251.518 88.232C251.412 88.2107 251.252 88.1573 251.038 88.072C250.825 87.9867 250.649 87.8747 250.51 87.736C250.158 87.4053 249.982 86.9627 249.982 86.408C249.982 85.7787 250.18 85.2827 250.574 84.92C250.969 84.5467 251.62 84.36 252.526 84.36H254.846V91H253.694V88.328H252.99L251.102 91H249.726ZM253.694 87.368V85.384H252.622C252.121 85.384 251.774 85.4427 251.582 85.56C251.305 85.7413 251.166 86.0133 251.166 86.376C251.166 86.7387 251.305 87.0053 251.582 87.176C251.785 87.304 252.126 87.368 252.606 87.368H253.694ZM257.202 90.92C257.042 90.76 256.962 90.5733 256.962 90.36C256.962 90.1467 257.042 89.96 257.202 89.8C257.362 89.64 257.548 89.56 257.762 89.56C257.975 89.56 258.162 89.64 258.322 89.8C258.482 89.96 258.562 90.1467 258.562 90.36C258.562 90.5733 258.482 90.76 258.322 90.92C258.162 91.08 257.975 91.16 257.762 91.16C257.548 91.16 257.362 91.08 257.202 90.92ZM110.224 109H109.008L110.784 97.736L114.88 106.744L119.056 97.72L120.72 109H119.504L118.496 101.576L114.864 109.448L111.28 101.576L110.224 109ZM128.517 108.2C127.855 108.861 127.018 109.192 126.005 109.192C124.991 109.192 124.149 108.861 123.477 108.2C122.815 107.539 122.485 106.707 122.485 105.704C122.485 104.691 122.815 103.853 123.477 103.192C124.149 102.531 124.991 102.2 126.005 102.2C127.018 102.2 127.855 102.531 128.517 103.192C129.189 103.853 129.525 104.691 129.525 105.704C129.525 106.707 129.189 107.539 128.517 108.2ZM127.653 103.88C127.205 103.443 126.655 103.224 126.005 103.224C125.354 103.224 124.799 103.448 124.341 103.896C123.893 104.333 123.669 104.936 123.669 105.704C123.669 106.472 123.898 107.075 124.357 107.512C124.815 107.949 125.365 108.168 126.005 108.168C126.645 108.168 127.194 107.949 127.653 107.512C128.111 107.075 128.341 106.472 128.341 105.704C128.341 104.925 128.111 104.317 127.653 103.88ZM134.395 102.36H135.547V105.08L138.043 102.36H139.387L136.507 105.432L139.675 109H138.235L135.771 106.2L135.547 106.424V109H134.395V106.424L134.171 106.2L131.707 109H130.267L133.435 105.432L130.555 102.36H131.899L134.395 105.08V102.36ZM145.594 106.776L146.554 107.304C146.33 107.731 146.058 108.088 145.738 108.376C145.13 108.92 144.394 109.192 143.53 109.192C142.634 109.192 141.861 108.904 141.21 108.328C140.57 107.741 140.25 106.872 140.25 105.72C140.25 104.707 140.538 103.869 141.114 103.208C141.701 102.536 142.485 102.2 143.466 102.2C144.575 102.2 145.413 102.605 145.978 103.416C146.426 104.056 146.634 104.888 146.602 105.912H141.434C141.445 106.584 141.653 107.128 142.058 107.544C142.463 107.96 142.959 108.168 143.546 108.168C144.069 108.168 144.522 108.008 144.906 107.688C145.205 107.432 145.434 107.128 145.594 106.776ZM141.514 104.952H145.418C145.322 104.429 145.093 104.013 144.73 103.704C144.378 103.384 143.957 103.224 143.466 103.224C142.986 103.224 142.559 103.389 142.186 103.72C141.823 104.04 141.599 104.451 141.514 104.952ZM152.721 103.416H150.641V109H149.489V103.416H147.409V102.36H152.721V103.416ZM157.666 102.36H158.818V106.744L163.362 101.848V109H162.21V104.568L157.666 109.464V102.36ZM170.741 102.84V104.216C170.218 103.555 169.525 103.224 168.661 103.224C168.01 103.224 167.456 103.448 166.997 103.896C166.538 104.333 166.309 104.936 166.309 105.704C166.309 106.472 166.538 107.075 166.997 107.512C167.456 107.949 168.005 108.168 168.645 108.168C169.498 108.168 170.213 107.821 170.789 107.128V108.504C170.16 108.963 169.456 109.192 168.677 109.192C167.642 109.192 166.789 108.867 166.117 108.216C165.456 107.555 165.125 106.723 165.125 105.72C165.125 104.707 165.461 103.869 166.133 103.208C166.805 102.536 167.653 102.2 168.677 102.2C169.445 102.2 170.133 102.413 170.741 102.84ZM172.557 102.36H177.901V109H176.749V103.416H173.709V109H172.557V102.36ZM185.688 108.2C185.027 108.861 184.19 109.192 183.176 109.192C182.163 109.192 181.32 108.861 180.648 108.2C179.987 107.539 179.656 106.707 179.656 105.704C179.656 104.691 179.987 103.853 180.648 103.192C181.32 102.531 182.163 102.2 183.176 102.2C184.19 102.2 185.027 102.531 185.688 103.192C186.36 103.853 186.696 104.691 186.696 105.704C186.696 106.707 186.36 107.539 185.688 108.2ZM184.824 103.88C184.376 103.443 183.827 103.224 183.176 103.224C182.526 103.224 181.971 103.448 181.512 103.896C181.064 104.333 180.84 104.936 180.84 105.704C180.84 106.472 181.07 107.075 181.528 107.512C181.987 107.949 182.536 108.168 183.176 108.168C183.816 108.168 184.366 107.949 184.824 107.512C185.283 107.075 185.512 106.472 185.512 105.704C185.512 104.925 185.283 104.317 184.824 103.88ZM193.487 102.36V109H192.335V103.416H189.967V106.408C189.967 107.272 189.796 107.912 189.455 108.328C189.071 108.797 188.538 109.032 187.855 109.032C187.77 109.032 187.652 109.021 187.503 109V107.944C187.61 107.965 187.695 107.976 187.759 107.976C188.132 107.976 188.41 107.832 188.591 107.544C188.74 107.309 188.815 106.931 188.815 106.408V102.36H193.487ZM195.666 109V102.36H196.818V104.904H198.002C198.919 104.904 199.591 105.123 200.018 105.56C200.359 105.901 200.53 106.365 200.53 106.952C200.53 107.571 200.333 108.067 199.938 108.44C199.543 108.813 198.893 109 197.986 109H195.666ZM196.818 107.976H197.89C198.37 107.976 198.711 107.917 198.914 107.8C199.202 107.608 199.346 107.325 199.346 106.952C199.346 106.568 199.207 106.291 198.93 106.12C198.738 105.992 198.397 105.928 197.906 105.928H196.818V107.976ZM202.936 104.056L202.136 103.4C202.392 103.027 202.675 102.749 202.984 102.568C203.4 102.323 203.886 102.2 204.44 102.2C205.112 102.2 205.635 102.355 206.008 102.664C206.392 102.995 206.584 103.416 206.584 103.928C206.584 104.547 206.334 105.011 205.832 105.32C206.152 105.395 206.408 105.539 206.6 105.752C206.91 106.083 207.064 106.488 207.064 106.968C207.064 107.683 206.776 108.253 206.2 108.68C205.731 109.021 205.102 109.192 204.312 109.192C203.608 109.192 203.016 109.005 202.536 108.632C202.174 108.365 201.88 107.987 201.656 107.496L202.648 107.08C202.766 107.379 202.963 107.629 203.24 107.832C203.539 108.056 203.902 108.168 204.328 108.168C204.83 108.168 205.203 108.083 205.448 107.912C205.758 107.709 205.912 107.4 205.912 106.984C205.912 106.643 205.779 106.387 205.512 106.216C205.288 106.067 204.926 105.992 204.424 105.992H203.752V104.936H204.312C204.718 104.936 205.006 104.877 205.176 104.76C205.411 104.611 205.528 104.408 205.528 104.152C205.528 103.853 205.432 103.624 205.24 103.464C205.059 103.304 204.776 103.224 204.392 103.224C204.062 103.224 203.758 103.309 203.48 103.48C203.246 103.629 203.064 103.821 202.936 104.056ZM214.438 108.2C213.777 108.861 212.94 109.192 211.926 109.192C210.913 109.192 210.07 108.861 209.398 108.2C208.737 107.539 208.406 106.707 208.406 105.704C208.406 104.691 208.737 103.853 209.398 103.192C210.07 102.531 210.913 102.2 211.926 102.2C212.94 102.2 213.777 102.531 214.438 103.192C215.11 103.853 215.446 104.691 215.446 105.704C215.446 106.707 215.11 107.539 214.438 108.2ZM213.574 103.88C213.126 103.443 212.577 103.224 211.926 103.224C211.276 103.224 210.721 103.448 210.262 103.896C209.814 104.333 209.59 104.936 209.59 105.704C209.59 106.472 209.82 107.075 210.278 107.512C210.737 107.949 211.286 108.168 211.926 108.168C212.566 108.168 213.116 107.949 213.574 107.512C214.033 107.075 214.262 106.472 214.262 105.704C214.262 104.925 214.033 104.317 213.574 103.88ZM217.213 102.36H219.725C220.333 102.36 220.797 102.488 221.117 102.744C221.501 103.053 221.693 103.469 221.693 103.992C221.693 104.568 221.453 105.011 220.973 105.32C221.304 105.405 221.581 105.555 221.805 105.768C222.157 106.109 222.333 106.536 222.333 107.048C222.333 107.688 222.104 108.189 221.645 108.552C221.25 108.851 220.728 109 220.077 109H217.213V102.36ZM218.365 105.064H219.581C219.89 105.064 220.136 105 220.317 104.872C220.53 104.712 220.637 104.483 220.637 104.184C220.637 103.917 220.53 103.704 220.317 103.544C220.157 103.437 219.848 103.384 219.389 103.384H218.365V105.064ZM218.365 107.976H219.789C220.28 107.976 220.626 107.901 220.829 107.752C221.085 107.56 221.213 107.315 221.213 107.016C221.213 106.696 221.101 106.445 220.877 106.264C220.674 106.104 220.328 106.024 219.837 106.024H218.365V107.976ZM229.176 103.304V102.36H230.328V109H229.176V108.072C228.6 108.819 227.843 109.192 226.904 109.192C226.008 109.192 225.245 108.883 224.616 108.264C223.987 107.645 223.672 106.781 223.672 105.672C223.672 104.584 223.981 103.736 224.6 103.128C225.229 102.509 225.997 102.2 226.904 102.2C227.864 102.2 228.621 102.568 229.176 103.304ZM227.032 103.224C226.424 103.224 225.907 103.443 225.48 103.88C225.064 104.307 224.856 104.904 224.856 105.672C224.856 106.408 225.048 107.011 225.432 107.48C225.827 107.939 226.36 108.168 227.032 108.168C227.704 108.168 228.237 107.928 228.632 107.448C229.037 106.968 229.24 106.381 229.24 105.688C229.24 104.899 229.016 104.291 228.568 103.864C228.12 103.437 227.608 103.224 227.032 103.224ZM236.862 103.416H234.782V109H233.63V103.416H231.55V102.36H236.862V103.416ZM238.072 109V102.36H239.224V104.904H240.408C241.326 104.904 241.998 105.123 242.424 105.56C242.766 105.901 242.936 106.365 242.936 106.952C242.936 107.571 242.739 108.067 242.344 108.44C241.95 108.813 241.299 109 240.392 109H238.072ZM239.224 107.976H240.296C240.776 107.976 241.118 107.917 241.32 107.8C241.608 107.608 241.752 107.325 241.752 106.952C241.752 106.568 241.614 106.291 241.336 106.12C241.144 105.992 240.803 105.928 240.312 105.928H239.224V107.976ZM249.679 102.84V104.216C249.156 103.555 248.463 103.224 247.599 103.224C246.948 103.224 246.393 103.448 245.935 103.896C245.476 104.333 245.247 104.936 245.247 105.704C245.247 106.472 245.476 107.075 245.935 107.512C246.393 107.949 246.943 108.168 247.583 108.168C248.436 108.168 249.151 107.821 249.727 107.128V108.504C249.097 108.963 248.393 109.192 247.615 109.192C246.58 109.192 245.727 108.867 245.055 108.216C244.393 107.555 244.063 106.723 244.063 105.72C244.063 104.707 244.399 103.869 245.071 103.208C245.743 102.536 246.591 102.2 247.615 102.2C248.383 102.2 249.071 102.413 249.679 102.84ZM250.726 109L252.79 106.264C252.726 106.264 252.636 106.253 252.518 106.232C252.412 106.211 252.252 106.157 252.038 106.072C251.825 105.987 251.649 105.875 251.51 105.736C251.158 105.405 250.982 104.963 250.982 104.408C250.982 103.779 251.18 103.283 251.574 102.92C251.969 102.547 252.62 102.36 253.526 102.36H255.846V109H254.694V106.328H253.99L252.102 109H250.726ZM254.694 105.368V103.384H253.622C253.121 103.384 252.774 103.443 252.582 103.56C252.305 103.741 252.166 104.013 252.166 104.376C252.166 104.739 252.305 105.005 252.582 105.176C252.785 105.304 253.126 105.368 253.606 105.368H254.694ZM114.208 115.8H115.488C115.371 116.195 115.168 116.531 114.88 116.808C114.603 117.075 114.347 117.256 114.112 117.352C113.888 117.448 113.621 117.533 113.312 117.608C113.259 117.619 113.131 117.651 112.928 117.704C112.725 117.747 112.571 117.784 112.464 117.816C112.357 117.848 112.219 117.891 112.048 117.944C111.877 117.997 111.723 118.061 111.584 118.136C111.445 118.211 111.317 118.291 111.2 118.376C110.795 118.685 110.464 119.117 110.208 119.672C109.963 120.216 109.829 120.797 109.808 121.416H109.84C110.32 120.605 111.125 120.2 112.256 120.2C113.248 120.2 114.069 120.536 114.72 121.208C115.381 121.88 115.712 122.712 115.712 123.704C115.712 124.707 115.376 125.539 114.704 126.2C114.032 126.861 113.157 127.192 112.08 127.192C111.152 127.192 110.389 126.915 109.792 126.36C109.045 125.677 108.672 124.536 108.672 122.936C108.672 120.152 109.301 118.328 110.56 117.464C110.656 117.4 110.757 117.341 110.864 117.288C110.971 117.224 111.083 117.171 111.2 117.128C111.328 117.075 111.435 117.032 111.52 117C111.605 116.957 111.723 116.92 111.872 116.888C112.032 116.845 112.139 116.819 112.192 116.808C112.256 116.787 112.373 116.76 112.544 116.728C112.725 116.685 112.837 116.659 112.88 116.648C113.307 116.552 113.616 116.44 113.808 116.312C114 116.173 114.133 116.003 114.208 115.8ZM113.84 121.88C113.392 121.443 112.843 121.224 112.192 121.224C111.541 121.224 110.987 121.448 110.528 121.896C110.08 122.333 109.856 122.936 109.856 123.704C109.856 124.472 110.085 125.075 110.544 125.512C111.003 125.949 111.552 126.168 112.192 126.168C112.832 126.168 113.381 125.949 113.84 125.512C114.299 125.075 114.528 124.472 114.528 123.704C114.528 122.925 114.299 122.317 113.84 121.88ZM122.407 124.776L123.367 125.304C123.143 125.731 122.871 126.088 122.551 126.376C121.943 126.92 121.207 127.192 120.343 127.192C119.447 127.192 118.673 126.904 118.023 126.328C117.383 125.741 117.063 124.872 117.063 123.72C117.063 122.707 117.351 121.869 117.927 121.208C118.513 120.536 119.297 120.2 120.279 120.2C121.388 120.2 122.225 120.605 122.791 121.416C123.239 122.056 123.447 122.888 123.415 123.912H118.247C118.257 124.584 118.465 125.128 118.871 125.544C119.276 125.96 119.772 126.168 120.359 126.168C120.881 126.168 121.335 126.008 121.719 125.688C122.017 125.432 122.247 125.128 122.407 124.776ZM118.327 122.952H122.231C122.135 122.429 121.905 122.013 121.543 121.704C121.191 121.384 120.769 121.224 120.279 121.224C119.799 121.224 119.372 121.389 118.999 121.72C118.636 122.04 118.412 122.451 118.327 122.952ZM125.89 122.056L125.09 121.4C125.346 121.027 125.628 120.749 125.938 120.568C126.354 120.323 126.839 120.2 127.394 120.2C128.066 120.2 128.588 120.355 128.962 120.664C129.346 120.995 129.538 121.416 129.538 121.928C129.538 122.547 129.287 123.011 128.786 123.32C129.106 123.395 129.362 123.539 129.554 123.752C129.863 124.083 130.018 124.488 130.018 124.968C130.018 125.683 129.73 126.253 129.154 126.68C128.684 127.021 128.055 127.192 127.266 127.192C126.562 127.192 125.97 127.005 125.49 126.632C125.127 126.365 124.834 125.987 124.61 125.496L125.602 125.08C125.719 125.379 125.916 125.629 126.194 125.832C126.492 126.056 126.855 126.168 127.282 126.168C127.783 126.168 128.156 126.083 128.402 125.912C128.711 125.709 128.866 125.4 128.866 124.984C128.866 124.643 128.732 124.387 128.466 124.216C128.242 124.067 127.879 123.992 127.378 123.992H126.706V122.936H127.266C127.671 122.936 127.959 122.877 128.13 122.76C128.364 122.611 128.482 122.408 128.482 122.152C128.482 121.853 128.386 121.624 128.194 121.464C128.012 121.304 127.73 121.224 127.346 121.224C127.015 121.224 126.711 121.309 126.434 121.48C126.199 121.629 126.018 121.821 125.89 122.056ZM136.374 122.056L135.574 121.4C135.83 121.027 136.113 120.749 136.422 120.568C136.838 120.323 137.323 120.2 137.878 120.2C138.55 120.2 139.073 120.355 139.446 120.664C139.83 120.995 140.022 121.416 140.022 121.928C140.022 122.547 139.771 123.011 139.27 123.32C139.59 123.395 139.846 123.539 140.038 123.752C140.347 124.083 140.502 124.488 140.502 124.968C140.502 125.683 140.214 126.253 139.638 126.68C139.169 127.021 138.539 127.192 137.75 127.192C137.046 127.192 136.454 127.005 135.974 126.632C135.611 126.365 135.318 125.987 135.094 125.496L136.086 125.08C136.203 125.379 136.401 125.629 136.678 125.832C136.977 126.056 137.339 126.168 137.766 126.168C138.267 126.168 138.641 126.083 138.886 125.912C139.195 125.709 139.35 125.4 139.35 124.984C139.35 124.643 139.217 124.387 138.95 124.216C138.726 124.067 138.363 123.992 137.862 123.992H137.19V122.936H137.75C138.155 122.936 138.443 122.877 138.614 122.76C138.849 122.611 138.966 122.408 138.966 122.152C138.966 121.853 138.87 121.624 138.678 121.464C138.497 121.304 138.214 121.224 137.83 121.224C137.499 121.224 137.195 121.309 136.918 121.48C136.683 121.629 136.502 121.821 136.374 122.056ZM147.348 121.304V120.36H148.5V127H147.348V126.072C146.772 126.819 146.015 127.192 145.076 127.192C144.18 127.192 143.417 126.883 142.788 126.264C142.159 125.645 141.844 124.781 141.844 123.672C141.844 122.584 142.153 121.736 142.772 121.128C143.401 120.509 144.169 120.2 145.076 120.2C146.036 120.2 146.793 120.568 147.348 121.304ZM145.204 121.224C144.596 121.224 144.079 121.443 143.652 121.88C143.236 122.307 143.028 122.904 143.028 123.672C143.028 124.408 143.22 125.011 143.604 125.48C143.999 125.939 144.532 126.168 145.204 126.168C145.876 126.168 146.409 125.928 146.804 125.448C147.209 124.968 147.412 124.381 147.412 123.688C147.412 122.899 147.188 122.291 146.74 121.864C146.292 121.437 145.78 121.224 145.204 121.224ZM150.682 127V120.36H154.618V121.416H151.834V127H150.682ZM161.048 126.2C160.386 126.861 159.549 127.192 158.536 127.192C157.522 127.192 156.68 126.861 156.008 126.2C155.346 125.539 155.016 124.707 155.016 123.704C155.016 122.691 155.346 121.853 156.008 121.192C156.68 120.531 157.522 120.2 158.536 120.2C159.549 120.2 160.386 120.531 161.048 121.192C161.72 121.853 162.056 122.691 162.056 123.704C162.056 124.707 161.72 125.539 161.048 126.2ZM160.184 121.88C159.736 121.443 159.186 121.224 158.536 121.224C157.885 121.224 157.33 121.448 156.872 121.896C156.424 122.333 156.2 122.936 156.2 123.704C156.2 124.472 156.429 125.075 156.888 125.512C157.346 125.949 157.896 126.168 158.536 126.168C159.176 126.168 159.725 125.949 160.184 125.512C160.642 125.075 160.872 124.472 160.872 123.704C160.872 122.925 160.642 122.317 160.184 121.88ZM168.846 120.36V127H167.694V121.416H165.326V124.408C165.326 125.272 165.156 125.912 164.814 126.328C164.43 126.797 163.897 127.032 163.214 127.032C163.129 127.032 163.012 127.021 162.862 127V125.944C162.969 125.965 163.054 125.976 163.118 125.976C163.492 125.976 163.769 125.832 163.95 125.544C164.1 125.309 164.174 124.931 164.174 124.408V120.36H168.846ZM176.642 126.2C175.98 126.861 175.143 127.192 174.13 127.192C173.116 127.192 172.274 126.861 171.602 126.2C170.94 125.539 170.61 124.707 170.61 123.704C170.61 122.691 170.94 121.853 171.602 121.192C172.274 120.531 173.116 120.2 174.13 120.2C175.143 120.2 175.98 120.531 176.642 121.192C177.314 121.853 177.65 122.691 177.65 123.704C177.65 124.707 177.314 125.539 176.642 126.2ZM175.778 121.88C175.33 121.443 174.78 121.224 174.13 121.224C173.479 121.224 172.924 121.448 172.466 121.896C172.018 122.333 171.794 122.936 171.794 123.704C171.794 124.472 172.023 125.075 172.482 125.512C172.94 125.949 173.49 126.168 174.13 126.168C174.77 126.168 175.319 125.949 175.778 125.512C176.236 125.075 176.466 124.472 176.466 123.704C176.466 122.925 176.236 122.317 175.778 121.88ZM179.416 120.36H181.928C182.536 120.36 183 120.488 183.32 120.744C183.704 121.053 183.896 121.469 183.896 121.992C183.896 122.568 183.656 123.011 183.176 123.32C183.507 123.405 183.784 123.555 184.008 123.768C184.36 124.109 184.536 124.536 184.536 125.048C184.536 125.688 184.307 126.189 183.848 126.552C183.453 126.851 182.931 127 182.28 127H179.416V120.36ZM180.568 123.064H181.784C182.093 123.064 182.339 123 182.52 122.872C182.733 122.712 182.84 122.483 182.84 122.184C182.84 121.917 182.733 121.704 182.52 121.544C182.36 121.437 182.051 121.384 181.592 121.384H180.568V123.064ZM180.568 125.976H181.992C182.483 125.976 182.829 125.901 183.032 125.752C183.288 125.56 183.416 125.315 183.416 125.016C183.416 124.696 183.304 124.445 183.08 124.264C182.877 124.104 182.531 124.024 182.04 124.024H180.568V125.976ZM186.291 120.36H187.443V123.08L190.131 120.36H191.539L188.659 123.32L191.891 127H190.387L187.795 124.088L187.443 124.424V127H186.291V120.36ZM198.129 121.304V120.36H199.281V127H198.129V126.072C197.553 126.819 196.796 127.192 195.857 127.192C194.961 127.192 194.198 126.883 193.569 126.264C192.94 125.645 192.625 124.781 192.625 123.672C192.625 122.584 192.934 121.736 193.553 121.128C194.182 120.509 194.95 120.2 195.857 120.2C196.817 120.2 197.574 120.568 198.129 121.304ZM195.985 121.224C195.377 121.224 194.86 121.443 194.433 121.88C194.017 122.307 193.809 122.904 193.809 123.672C193.809 124.408 194.001 125.011 194.385 125.48C194.78 125.939 195.313 126.168 195.985 126.168C196.657 126.168 197.19 125.928 197.585 125.448C197.99 124.968 198.193 124.381 198.193 123.688C198.193 122.899 197.969 122.291 197.521 121.864C197.073 121.437 196.561 121.224 195.985 121.224ZM201.639 126.92C201.479 126.76 201.399 126.573 201.399 126.36C201.399 126.147 201.479 125.96 201.639 125.8C201.799 125.64 201.986 125.56 202.199 125.56C202.412 125.56 202.599 125.64 202.759 125.8C202.919 125.96 202.999 126.147 202.999 126.36C202.999 126.573 202.919 126.76 202.759 126.92C202.599 127.08 202.412 127.16 202.199 127.16C201.986 127.16 201.799 127.08 201.639 126.92Z" fill="#0B1530"/>
<path d="M288 64L302 78" stroke="#B6B9C1" stroke-width="2" stroke-linecap="round"/>
<path d="M302 64L288 78" stroke="#B6B9C1" stroke-width="2" stroke-linecap="round"/>
<path d="M207.5 151L199.5 143L215.5 143L207.5 151Z" fill="white"/>
</g>
<defs>
<filter id="filter0_d_903_2974" x="84" y="35" width="247" height="128" filterUnits="userSpaceOnUse" color-interpolation-filters="sRGB">
<feFlood flood-opacity="0" result="BackgroundImageFix"/>
<feColorMatrix in="SourceAlpha" type="matrix" values="0 0 0 0 0 0 0 0 0 0 0 0 0 0 0 0 0 0 127 0" result="hardAlpha"/>
<feOffset/>
<feGaussianBlur stdDeviation="6"/>
<feComposite in2="hardAlpha" operator="out"/>
<feColorMatrix type="matrix" values="0 0 0 0 0 0 0 0 0 0 0 0 0 0 0 0 0 0 0.07 0"/>
<feBlend mode="normal" in2="BackgroundImageFix" result="effect1_dropShadow_903_2974"/>
<feBlend mode="normal" in="SourceGraphic" in2="effect1_dropShadow_903_2974" result="shape"/>
</filter>
</defs>
</svg>
