<svg width="416" height="288" viewBox="0 0 416 288" fill="none" xmlns="http://www.w3.org/2000/svg">
<rect width="416" height="288" rx="24" fill="#F5F6F8"/>
<rect x="274.15" y="229.449" width="35.9061" height="20.7027" rx="3.75176" transform="rotate(-180 274.15 229.449)" fill="#33F7C3"/>
<rect x="274.15" y="229.449" width="35.9061" height="20.7027" rx="3.75176" transform="rotate(-180 274.15 229.449)" stroke="#33F7C3" stroke-width="1.5007"/>
<path d="M245.272 222.063V220.609L248.917 214.866H250.171V216.879H249.429L247.131 220.515V220.583H252.311V222.063H245.272ZM249.463 223.598V221.619L249.497 220.976V214.866H251.228V223.598H249.463ZM253.558 226.053V217.049H255.349V218.149H255.43C255.509 217.973 255.624 217.794 255.775 217.612C255.928 217.427 256.127 217.274 256.372 217.151C256.619 217.026 256.926 216.964 257.293 216.964C257.77 216.964 258.211 217.089 258.614 217.339C259.018 217.586 259.34 217.96 259.582 218.46C259.824 218.958 259.944 219.582 259.944 220.332C259.944 221.062 259.826 221.679 259.591 222.182C259.358 222.682 259.039 223.062 258.636 223.321C258.235 223.576 257.786 223.704 257.288 223.704C256.936 223.704 256.636 223.646 256.389 223.529C256.144 223.413 255.944 223.267 255.788 223.09C255.631 222.911 255.512 222.731 255.43 222.549H255.374V226.053H253.558ZM255.336 220.323C255.336 220.713 255.39 221.052 255.498 221.342C255.606 221.632 255.762 221.858 255.967 222.02C256.171 222.179 256.42 222.259 256.713 222.259C257.008 222.259 257.259 222.178 257.463 222.016C257.668 221.851 257.823 221.624 257.928 221.334C258.036 221.041 258.09 220.704 258.09 220.323C258.09 219.945 258.037 219.613 257.932 219.326C257.827 219.039 257.672 218.814 257.467 218.652C257.263 218.49 257.011 218.409 256.713 218.409C256.417 218.409 256.167 218.487 255.962 218.644C255.761 218.8 255.606 219.022 255.498 219.309C255.39 219.596 255.336 219.934 255.336 220.323ZM262.439 217.049L263.641 219.339L264.873 217.049H266.736L264.839 220.323L266.787 223.598H264.933L263.641 221.334L262.37 223.598H260.494L262.439 220.323L260.563 217.049H262.439Z" fill="#0B1530"/>
<mask id="path-4-inside-1_1142_8717" fill="white">
<path d="M207.493 224.098L227.493 224.098L227.493 214.098L207.493 214.098L207.493 224.098Z"/>
</mask>
<path d="M227.493 224.098L229.493 224.098L229.493 226.098L227.493 226.098L227.493 224.098ZM227.493 214.098L227.493 212.098L229.493 212.098L229.493 214.098L227.493 214.098ZM207.493 222.098L227.493 222.098L227.493 226.098L207.493 226.098L207.493 222.098ZM225.493 224.098L225.493 214.098L229.493 214.098L229.493 224.098L225.493 224.098ZM227.493 216.098L207.493 216.098L207.493 212.098L227.493 212.098L227.493 216.098Z" fill="#33F7C3" mask="url(#path-4-inside-1_1142_8717)"/>
<path d="M201.407 206.1H79.4067V215.1H209" stroke="#33F7C3" stroke-width="2"/>
<rect x="68.6564" y="220.951" width="35.9061" height="20.7027" rx="3.75176" transform="rotate(-180 68.6564 220.951)" fill="#33F7C3"/>
<rect x="68.6564" y="220.951" width="35.9061" height="20.7027" rx="3.75176" transform="rotate(-180 68.6564 220.951)" stroke="#33F7C3" stroke-width="1.5007"/>
<path d="M43.1683 215.219C42.5117 215.219 41.9277 215.112 41.4161 214.899C40.9073 214.683 40.508 214.389 40.218 214.017C39.9281 213.644 39.7832 213.222 39.7832 212.75C39.7832 212.387 39.8656 212.053 40.0305 211.749C40.1982 211.442 40.4255 211.187 40.7126 210.985C40.9997 210.781 41.3208 210.65 41.6761 210.593V210.534C41.21 210.44 40.832 210.214 40.5421 209.856C40.2522 209.495 40.1072 209.075 40.1072 208.598C40.1072 208.146 40.2394 207.744 40.5037 207.391C40.768 207.036 41.1304 206.758 41.5909 206.556C42.0541 206.351 42.58 206.249 43.1683 206.249C43.7566 206.249 44.281 206.351 44.7415 206.556C45.2048 206.76 45.5686 207.04 45.8329 207.396C46.0972 207.748 46.2308 208.149 46.2337 208.598C46.2308 209.078 46.083 209.498 45.7903 209.856C45.4975 210.214 45.1223 210.44 44.6647 210.534V210.593C45.0143 210.65 45.3312 210.781 45.6155 210.985C45.9025 211.187 46.1299 211.442 46.2976 211.749C46.4681 212.053 46.5548 212.387 46.5577 212.75C46.5548 213.222 46.4085 213.644 46.1185 214.017C45.8286 214.389 45.4279 214.683 44.9163 214.899C44.4075 215.112 43.8249 215.219 43.1683 215.219ZM43.1683 213.863C43.461 213.863 43.7168 213.811 43.9357 213.705C44.1546 213.597 44.3251 213.45 44.4473 213.262C44.5724 213.072 44.6349 212.853 44.6349 212.606C44.6349 212.353 44.5709 212.129 44.443 211.936C44.3151 211.74 44.1418 211.587 43.9229 211.476C43.7041 211.362 43.4525 211.305 43.1683 211.305C42.8869 211.305 42.6354 211.362 42.4137 211.476C42.192 211.587 42.0172 211.74 41.8893 211.936C41.7642 212.129 41.7017 212.353 41.7017 212.606C41.7017 212.853 41.7628 213.072 41.885 213.262C42.0072 213.45 42.1792 213.597 42.4009 213.705C42.6226 213.811 42.8784 213.863 43.1683 213.863ZM43.1683 209.962C43.4127 209.962 43.6302 209.913 43.8206 209.813C44.011 209.714 44.1602 209.576 44.2682 209.399C44.3762 209.223 44.4303 209.02 44.4303 208.79C44.4303 208.562 44.3762 208.363 44.2682 208.193C44.1602 208.02 44.0124 207.885 43.8249 207.788C43.6373 207.688 43.4184 207.639 43.1683 207.639C42.921 207.639 42.7022 207.688 42.5117 207.788C42.3213 207.885 42.1721 208.02 42.0641 208.193C41.9589 208.363 41.9063 208.562 41.9063 208.79C41.9063 209.02 41.9603 209.223 42.0683 209.399C42.1764 209.576 42.3256 209.714 42.516 209.813C42.7064 209.913 42.9239 209.962 43.1683 209.962ZM47.8655 217.555V208.551H49.6561V209.651H49.7371C49.8167 209.475 49.9318 209.296 50.0824 209.114C50.2359 208.929 50.4348 208.776 50.6793 208.653C50.9265 208.528 51.2335 208.466 51.6002 208.466C52.0777 208.466 52.5182 208.591 52.9218 208.841C53.3254 209.088 53.648 209.462 53.8896 209.962C54.1312 210.46 54.252 211.084 54.252 211.834C54.252 212.564 54.134 213.181 53.8981 213.684C53.665 214.184 53.3467 214.564 52.9431 214.822C52.5424 215.078 52.0933 215.206 51.5959 215.206C51.2435 215.206 50.9436 215.148 50.6963 215.031C50.4519 214.915 50.2515 214.768 50.0952 214.592C49.9389 214.413 49.8195 214.233 49.7371 214.051H49.6816V217.555H47.8655ZM49.6433 211.825C49.6433 212.215 49.6973 212.554 49.8053 212.844C49.9133 213.134 50.0696 213.36 50.2743 213.522C50.4789 213.681 50.7276 213.761 51.0203 213.761C51.3159 213.761 51.5661 213.68 51.7707 213.518C51.9753 213.353 52.1302 213.126 52.2354 212.836C52.3434 212.543 52.3974 212.206 52.3974 211.825C52.3974 211.447 52.3448 211.115 52.2397 210.828C52.1345 210.541 51.9796 210.316 51.775 210.154C51.5703 209.992 51.3188 209.911 51.0203 209.911C50.7247 209.911 50.4746 209.989 50.27 210.146C50.0682 210.302 49.9133 210.524 49.8053 210.811C49.6973 211.098 49.6433 211.436 49.6433 211.825ZM56.746 208.551L57.9483 210.841L59.1804 208.551H61.0435L59.1463 211.825L61.0947 215.1H59.2401L57.9483 212.836L56.6778 215.1H54.8019L56.746 211.825L54.8702 208.551H56.746Z" fill="#0B1530"/>
<path d="M107.407 113.102H79.4067V123.102H107.407" stroke="#33F7C3" stroke-width="2"/>
<rect x="68.6564" y="128.453" width="41.9061" height="20.7027" rx="3.75176" transform="rotate(-180 68.6564 128.453)" fill="#33F7C3"/>
<rect x="68.6564" y="128.453" width="41.9061" height="20.7027" rx="3.75176" transform="rotate(-180 68.6564 128.453)" stroke="#33F7C3" stroke-width="1.5007"/>
<path d="M37.7097 113.87V122.602H35.8637V115.622H35.8125L33.813 116.876V115.239L35.9746 113.87H37.7097ZM43.2084 122.793C42.4751 122.791 41.8441 122.61 41.3155 122.252C40.7897 121.894 40.3846 121.375 40.1004 120.696C39.819 120.017 39.6798 119.199 39.6826 118.244C39.6826 117.292 39.8233 116.481 40.1047 115.81C40.3889 115.139 40.7939 114.629 41.3197 114.279C41.8484 113.927 42.478 113.751 43.2084 113.751C43.9389 113.751 44.567 113.927 45.0928 114.279C45.6215 114.632 46.0279 115.144 46.3121 115.814C46.5964 116.482 46.7371 117.292 46.7342 118.244C46.7342 119.202 46.5921 120.021 46.3079 120.7C46.0265 121.379 45.6229 121.898 45.0971 122.256C44.5713 122.614 43.9417 122.793 43.2084 122.793ZM43.2084 121.263C43.7086 121.263 44.108 121.011 44.4064 120.508C44.7049 120.005 44.8526 119.251 44.8498 118.244C44.8498 117.582 44.7816 117.031 44.6452 116.59C44.5116 116.15 44.3212 115.819 44.0739 115.597C43.8294 115.375 43.541 115.264 43.2084 115.264C42.711 115.264 42.3131 115.513 42.0147 116.01C41.7162 116.508 41.5656 117.252 41.5628 118.244C41.5628 118.915 41.6295 119.475 41.7631 119.924C41.8996 120.37 42.0914 120.706 42.3387 120.93C42.586 121.152 42.8759 121.263 43.2084 121.263ZM48.0676 125.057V116.053H49.8582V117.153H49.9392C50.0188 116.977 50.1339 116.798 50.2845 116.616C50.438 116.431 50.637 116.278 50.8814 116.155C51.1287 116.03 51.4356 115.968 51.8023 115.968C52.2798 115.968 52.7203 116.093 53.1239 116.343C53.5275 116.59 53.8501 116.964 54.0917 117.464C54.3333 117.962 54.4541 118.585 54.4541 119.336C54.4541 120.066 54.3361 120.683 54.1002 121.186C53.8672 121.686 53.5488 122.066 53.1452 122.324C52.7445 122.58 52.2954 122.708 51.798 122.708C51.4456 122.708 51.1457 122.65 50.8985 122.533C50.654 122.417 50.4536 122.27 50.2973 122.094C50.141 121.915 50.0216 121.735 49.9392 121.553H49.8838V125.057H48.0676ZM49.8454 119.327C49.8454 119.717 49.8994 120.056 50.0074 120.346C50.1154 120.636 50.2717 120.862 50.4764 121.024C50.681 121.183 50.9297 121.263 51.2225 121.263C51.5181 121.263 51.7682 121.182 51.9728 121.02C52.1775 120.855 52.3324 120.628 52.4375 120.338C52.5455 120.045 52.5995 119.708 52.5995 119.327C52.5995 118.949 52.547 118.617 52.4418 118.33C52.3366 118.043 52.1817 117.818 51.9771 117.656C51.7724 117.494 51.5209 117.413 51.2225 117.413C50.9269 117.413 50.6768 117.491 50.4721 117.648C50.2703 117.804 50.1154 118.026 50.0074 118.313C49.8994 118.6 49.8454 118.938 49.8454 119.327ZM56.9482 116.053L58.1504 118.342L59.3825 116.053H61.2456L59.3484 119.327L61.2968 122.602H59.4422L58.1504 120.338L56.8799 122.602H55.0041L56.9482 119.327L55.0723 116.053H56.9482Z" fill="#0B1530"/>
<rect x="380.05" y="97.8493" width="40.9061" height="20.7027" rx="3.75176" transform="rotate(-180 380.05 97.8493)" fill="#33F7C3"/>
<rect x="380.05" y="97.8493" width="40.9061" height="20.7027" rx="3.75176" transform="rotate(-180 380.05 97.8493)" stroke="#33F7C3" stroke-width="1.5007"/>
<path d="M350.103 83.2667V91.998H348.257V85.0189H348.206L346.206 86.2724V84.6352L348.368 83.2667H350.103ZM352.178 91.998V90.6679L355.286 87.7901C355.551 87.5343 355.772 87.3041 355.951 87.0994C356.133 86.8948 356.271 86.6944 356.365 86.4983C356.459 86.2994 356.506 86.0848 356.506 85.8545C356.506 85.5987 356.447 85.3785 356.331 85.1937C356.214 85.0061 356.055 84.8626 355.853 84.7631C355.651 84.6608 355.423 84.6096 355.167 84.6096C354.9 84.6096 354.667 84.6636 354.468 84.7716C354.269 84.8797 354.115 85.0346 354.007 85.2364C353.899 85.4382 353.845 85.6783 353.845 85.9569H352.093C352.093 85.3856 352.222 84.8896 352.481 84.4689C352.74 84.0483 353.102 83.7229 353.568 83.4926C354.034 83.2624 354.571 83.1473 355.18 83.1473C355.805 83.1473 356.349 83.2582 356.813 83.4798C357.279 83.6987 357.641 84.0028 357.9 84.3922C358.158 84.7816 358.288 85.2278 358.288 85.7309C358.288 86.0606 358.222 86.386 358.092 86.7072C357.964 87.0284 357.735 87.3851 357.405 87.7773C357.075 88.1667 356.611 88.6343 356.011 89.18L354.736 90.4291V90.4888H358.403V91.998H352.178ZM359.757 94.4537V85.4495H361.548V86.5495H361.629C361.709 86.3733 361.824 86.1942 361.974 86.0123C362.128 85.8275 362.327 85.6741 362.571 85.5518C362.819 85.4268 363.125 85.3643 363.492 85.3643C363.97 85.3643 364.41 85.4893 364.814 85.7394C365.217 85.9867 365.54 86.3605 365.782 86.8607C366.023 87.3581 366.144 87.982 366.144 88.7323C366.144 89.4628 366.026 90.0795 365.79 90.5826C365.557 91.0828 365.239 91.4623 364.835 91.7209C364.434 91.9767 363.985 92.1046 363.488 92.1046C363.135 92.1046 362.836 92.0464 362.588 91.9298C362.344 91.8133 362.143 91.6669 361.987 91.4907C361.831 91.3116 361.711 91.1312 361.629 90.9493H361.574V94.4537H359.757ZM361.535 88.7238C361.535 89.1132 361.589 89.4528 361.697 89.7427C361.805 90.0326 361.962 90.2586 362.166 90.4206C362.371 90.5798 362.62 90.6594 362.912 90.6594C363.208 90.6594 363.458 90.5783 363.663 90.4163C363.867 90.2515 364.022 90.0241 364.127 89.7342C364.235 89.4415 364.289 89.1046 364.289 88.7238C364.289 88.3458 364.237 88.0132 364.132 87.7262C364.026 87.4391 363.872 87.2146 363.667 87.0525C363.462 86.8905 363.211 86.8095 362.912 86.8095C362.617 86.8095 362.367 86.8877 362.162 87.044C361.96 87.2003 361.805 87.422 361.697 87.7091C361.589 87.9962 361.535 88.3344 361.535 88.7238ZM368.638 85.4495L369.84 87.7389L371.072 85.4495H372.935L371.038 88.7238L372.987 91.998H371.132L369.84 89.7342L368.57 91.998H366.694L368.638 88.7238L366.762 85.4495H368.638Z" fill="#0B1530"/>
<path d="M290.393 92.998H328.393V81.998H290.393" stroke="#33F7C3" stroke-width="2"/>
<rect x="380.05" y="210.849" width="40.9061" height="20.7027" rx="3.75176" transform="rotate(-180 380.05 210.849)" fill="#33F7C3"/>
<rect x="380.05" y="210.849" width="40.9061" height="20.7027" rx="3.75176" transform="rotate(-180 380.05 210.849)" stroke="#33F7C3" stroke-width="1.5007"/>
<path d="M350.103 196.267V204.998H348.257V198.019H348.206L346.206 199.272V197.635L348.368 196.267H350.103ZM352.178 204.998V203.668L355.286 200.79C355.551 200.534 355.772 200.304 355.951 200.099C356.133 199.895 356.271 199.694 356.365 199.498C356.459 199.299 356.506 199.085 356.506 198.855C356.506 198.599 356.447 198.378 356.331 198.194C356.214 198.006 356.055 197.863 355.853 197.763C355.651 197.661 355.423 197.61 355.167 197.61C354.9 197.61 354.667 197.664 354.468 197.772C354.269 197.88 354.115 198.035 354.007 198.236C353.899 198.438 353.845 198.678 353.845 198.957H352.093C352.093 198.386 352.222 197.89 352.481 197.469C352.74 197.048 353.102 196.723 353.568 196.493C354.034 196.262 354.571 196.147 355.18 196.147C355.805 196.147 356.349 196.258 356.813 196.48C357.279 196.699 357.641 197.003 357.9 197.392C358.158 197.782 358.288 198.228 358.288 198.731C358.288 199.061 358.222 199.386 358.092 199.707C357.964 200.028 357.735 200.385 357.405 200.777C357.075 201.167 356.611 201.634 356.011 202.18L354.736 203.429V203.489H358.403V204.998H352.178ZM359.757 207.454V198.45H361.548V199.549H361.629C361.709 199.373 361.824 199.194 361.974 199.012C362.128 198.828 362.327 198.674 362.571 198.552C362.819 198.427 363.125 198.364 363.492 198.364C363.97 198.364 364.41 198.489 364.814 198.739C365.217 198.987 365.54 199.36 365.782 199.861C366.023 200.358 366.144 200.982 366.144 201.732C366.144 202.463 366.026 203.08 365.79 203.583C365.557 204.083 365.239 204.462 364.835 204.721C364.434 204.977 363.985 205.105 363.488 205.105C363.135 205.105 362.836 205.046 362.588 204.93C362.344 204.813 362.143 204.667 361.987 204.491C361.831 204.312 361.711 204.131 361.629 203.949H361.574V207.454H359.757ZM361.535 201.724C361.535 202.113 361.589 202.453 361.697 202.743C361.805 203.033 361.962 203.259 362.166 203.421C362.371 203.58 362.62 203.659 362.912 203.659C363.208 203.659 363.458 203.578 363.663 203.416C363.867 203.251 364.022 203.024 364.127 202.734C364.235 202.441 364.289 202.105 364.289 201.724C364.289 201.346 364.237 201.013 364.132 200.726C364.026 200.439 363.872 200.215 363.667 200.053C363.462 199.891 363.211 199.81 362.912 199.81C362.617 199.81 362.367 199.888 362.162 200.044C361.96 200.2 361.805 200.422 361.697 200.709C361.589 200.996 361.535 201.334 361.535 201.724ZM368.638 198.45L369.84 200.739L371.072 198.45H372.935L371.038 201.724L372.987 204.998H371.132L369.84 202.734L368.57 204.998H366.694L368.638 201.724L366.762 198.45H368.638Z" fill="#0B1530"/>
<path d="M290.393 205.998H328.393V194.998H290.393" stroke="#33F7C3" stroke-width="2"/>
<path d="M317.703 110.203V72.2031H281.703V110.203" stroke="#33F7C3" stroke-width="2"/>
<rect x="321.656" y="61.4528" width="43.9061" height="20.7027" rx="3.75176" transform="rotate(-180 321.656 61.4528)" fill="#33F7C3"/>
<rect x="321.656" y="61.4528" width="43.9061" height="20.7027" rx="3.75176" transform="rotate(-180 321.656 61.4528)" stroke="#33F7C3" stroke-width="1.5007"/>
<path d="M288.138 55.7209C287.502 55.7209 286.935 55.6115 286.437 55.3927C285.943 55.171 285.552 54.8668 285.265 54.4803C284.981 54.0909 284.834 53.6418 284.826 53.1331H286.685C286.696 53.3462 286.766 53.5338 286.894 53.6958C287.024 53.855 287.198 53.9786 287.414 54.0668C287.63 54.1549 287.873 54.1989 288.143 54.1989C288.424 54.1989 288.673 54.1492 288.889 54.0497C289.105 53.9502 289.274 53.8124 289.396 53.6362C289.518 53.4599 289.579 53.2567 289.579 53.0265C289.579 52.7934 289.514 52.5874 289.383 52.4083C289.255 52.2264 289.071 52.0843 288.829 51.982C288.59 51.8796 288.306 51.8285 287.976 51.8285H287.162V50.4727H287.976C288.255 50.4727 288.501 50.4244 288.714 50.3278C288.93 50.2311 289.098 50.0976 289.217 49.927C289.336 49.7537 289.396 49.5519 289.396 49.3216C289.396 49.1028 289.344 48.9109 289.238 48.7461C289.136 48.5784 288.991 48.4476 288.804 48.3538C288.619 48.2601 288.403 48.2132 288.156 48.2132C287.905 48.2132 287.677 48.2586 287.469 48.3496C287.262 48.4377 287.095 48.5642 286.97 48.729C286.845 48.8939 286.778 49.0871 286.77 49.3088H285.001C285.009 48.8058 285.153 48.3624 285.431 47.9787C285.71 47.595 286.085 47.2951 286.557 47.0791C287.031 46.8602 287.567 46.7508 288.164 46.7508C288.767 46.7508 289.294 46.8602 289.746 47.0791C290.198 47.298 290.549 47.5935 290.799 47.9659C291.052 48.3354 291.177 48.7503 291.174 49.2108C291.177 49.6996 291.025 50.1075 290.718 50.4344C290.414 50.7612 290.017 50.9687 289.528 51.0568V51.125C290.171 51.2075 290.66 51.4306 290.995 51.7944C291.333 52.1553 291.501 52.6073 291.498 53.1501C291.501 53.6475 291.357 54.0895 291.067 54.476C290.78 54.8626 290.384 55.1667 289.878 55.3884C289.372 55.6101 288.792 55.7209 288.138 55.7209ZM296.176 55.7209C295.727 55.7181 295.293 55.6428 294.876 55.495C294.461 55.3472 294.088 55.107 293.759 54.7745C293.429 54.4419 293.167 54.0014 292.974 53.4528C292.784 52.9043 292.689 52.2307 292.689 51.432C292.691 50.6987 292.775 50.0436 292.94 49.4666C293.108 48.8868 293.347 48.3951 293.656 47.9915C293.969 47.5879 294.343 47.2809 294.778 47.0706C295.212 46.8574 295.7 46.7508 296.24 46.7508C296.823 46.7508 297.337 46.8645 297.783 47.0919C298.229 47.3164 298.588 47.622 298.858 48.0085C299.13 48.3951 299.295 48.8285 299.352 49.3088H297.532C297.461 49.0047 297.311 48.766 297.084 48.5926C296.857 48.4192 296.575 48.3325 296.24 48.3325C295.671 48.3325 295.239 48.5798 294.944 49.0744C294.651 49.5689 294.502 50.2411 294.496 51.0909H294.556C294.687 50.8323 294.863 50.612 295.085 50.4301C295.309 50.2454 295.563 50.1047 295.848 50.008C296.135 49.9086 296.437 49.8588 296.756 49.8588C297.273 49.8588 297.734 49.981 298.137 50.2255C298.541 50.4671 298.859 50.7996 299.092 51.2231C299.325 51.6466 299.442 52.1312 299.442 52.6769C299.442 53.2681 299.304 53.7939 299.028 54.2543C298.755 54.7148 298.373 55.0757 297.881 55.3372C297.392 55.5959 296.824 55.7238 296.176 55.7209ZM296.167 54.2714C296.452 54.2714 296.706 54.2032 296.931 54.0668C297.155 53.9303 297.331 53.7456 297.459 53.5125C297.587 53.2795 297.651 53.018 297.651 52.7281C297.651 52.4381 297.587 52.1781 297.459 51.9479C297.334 51.7176 297.161 51.5343 296.939 51.3979C296.717 51.2615 296.464 51.1932 296.18 51.1932C295.967 51.1932 295.77 51.233 295.588 51.3126C295.409 51.3922 295.251 51.5031 295.114 51.6452C294.981 51.7873 294.876 51.9521 294.799 52.1397C294.722 52.3245 294.684 52.522 294.684 52.7323C294.684 53.0137 294.748 53.2709 294.876 53.504C295.006 53.7371 295.183 53.9232 295.404 54.0625C295.629 54.2018 295.883 54.2714 296.167 54.2714ZM300.768 58.0573V49.053H302.558V50.153H302.639C302.719 49.9768 302.834 49.7977 302.985 49.6158C303.138 49.4311 303.337 49.2776 303.581 49.1554C303.829 49.0303 304.136 48.9678 304.502 48.9678C304.98 48.9678 305.42 49.0928 305.824 49.3429C306.228 49.5902 306.55 49.964 306.792 50.4642C307.033 50.9616 307.154 51.5855 307.154 52.3358C307.154 53.0663 307.036 53.683 306.8 54.1861C306.567 54.6864 306.249 55.0658 305.845 55.3244C305.445 55.5802 304.995 55.7081 304.498 55.7081C304.146 55.7081 303.846 55.6499 303.598 55.5333C303.354 55.4168 303.154 55.2704 302.997 55.0942C302.841 54.9152 302.722 54.7347 302.639 54.5528H302.584V58.0573H300.768ZM302.545 52.3273C302.545 52.7167 302.599 53.0563 302.707 53.3462C302.815 53.6362 302.972 53.8621 303.176 54.0241C303.381 54.1833 303.63 54.2629 303.922 54.2629C304.218 54.2629 304.468 54.1819 304.673 54.0199C304.877 53.855 305.032 53.6276 305.138 53.3377C305.246 53.045 305.3 52.7082 305.3 52.3273C305.3 51.9493 305.247 51.6167 305.142 51.3297C305.037 51.0426 304.882 50.8181 304.677 50.6561C304.472 50.4941 304.221 50.4131 303.922 50.4131C303.627 50.4131 303.377 50.4912 303.172 50.6475C302.97 50.8039 302.815 51.0256 302.707 51.3126C302.599 51.5997 302.545 51.9379 302.545 52.3273ZM309.648 49.053L310.85 51.3425L312.083 49.053H313.946L312.048 52.3273L313.997 55.6016H312.142L310.85 53.3377L309.58 55.6016H307.704L309.648 52.3273L307.772 49.053H309.648Z" fill="#0B1530"/>
<rect x="332.656" y="247.453" width="40.9061" height="20.7027" rx="3.75176" transform="rotate(-180 332.656 247.453)" fill="#33F7C3"/>
<rect x="332.656" y="247.453" width="40.9061" height="20.7027" rx="3.75176" transform="rotate(-180 332.656 247.453)" stroke="#33F7C3" stroke-width="1.5007"/>
<path d="M302.71 232.87V241.602H300.864V234.622H300.813L298.813 235.876V234.239L300.975 232.87H302.71ZM304.785 241.602V240.271L307.893 237.394C308.157 237.138 308.379 236.908 308.558 236.703C308.74 236.498 308.878 236.298 308.972 236.102C309.065 235.903 309.112 235.688 309.112 235.458C309.112 235.202 309.054 234.982 308.937 234.797C308.821 234.61 308.662 234.466 308.46 234.367C308.258 234.264 308.029 234.213 307.774 234.213C307.506 234.213 307.273 234.267 307.074 234.375C306.875 234.483 306.722 234.638 306.614 234.84C306.506 235.042 306.452 235.282 306.452 235.56H304.7C304.7 234.989 304.829 234.493 305.088 234.072C305.346 233.652 305.709 233.326 306.175 233.096C306.641 232.866 307.178 232.751 307.786 232.751C308.412 232.751 308.956 232.862 309.419 233.083C309.885 233.302 310.248 233.606 310.506 233.996C310.765 234.385 310.894 234.831 310.894 235.334C310.894 235.664 310.829 235.99 310.698 236.311C310.57 236.632 310.342 236.989 310.012 237.381C309.682 237.77 309.217 238.238 308.618 238.783L307.343 240.033V240.092H311.009V241.602H304.785ZM312.364 244.057V235.053H314.155V236.153H314.236C314.315 235.977 314.43 235.798 314.581 235.616C314.735 235.431 314.934 235.278 315.178 235.155C315.425 235.03 315.732 234.968 316.099 234.968C316.576 234.968 317.017 235.093 317.42 235.343C317.824 235.59 318.147 235.964 318.388 236.464C318.63 236.962 318.751 237.585 318.751 238.336C318.751 239.066 318.633 239.683 318.397 240.186C318.164 240.686 317.845 241.066 317.442 241.324C317.041 241.58 316.592 241.708 316.095 241.708C315.742 241.708 315.442 241.65 315.195 241.533C314.951 241.417 314.75 241.27 314.594 241.094C314.438 240.915 314.318 240.735 314.236 240.553H314.18V244.057H312.364ZM314.142 238.327C314.142 238.717 314.196 239.056 314.304 239.346C314.412 239.636 314.568 239.862 314.773 240.024C314.978 240.183 315.226 240.263 315.519 240.263C315.815 240.263 316.065 240.182 316.269 240.02C316.474 239.855 316.629 239.628 316.734 239.338C316.842 239.045 316.896 238.708 316.896 238.327C316.896 237.949 316.843 237.617 316.738 237.33C316.633 237.043 316.478 236.818 316.274 236.656C316.069 236.494 315.817 236.413 315.519 236.413C315.223 236.413 314.973 236.491 314.769 236.648C314.567 236.804 314.412 237.026 314.304 237.313C314.196 237.6 314.142 237.938 314.142 238.327ZM321.245 235.053L322.447 237.342L323.679 235.053H325.542L323.645 238.327L325.593 241.602H323.739L322.447 239.338L321.176 241.602H319.301L321.245 238.327L319.369 235.053H321.245Z" fill="#0B1530"/>
<path d="M306.703 178V216H317.703V178" stroke="#33F7C3" stroke-width="2"/>
<path d="M108.703 110.203V72.2031H97.7034V110.203" stroke="#33F7C3" stroke-width="2"/>
<rect x="123.656" y="61.4528" width="40.9061" height="20.7027" rx="3.75176" transform="rotate(-180 123.656 61.4528)" fill="#33F7C3"/>
<rect x="123.656" y="61.4528" width="40.9061" height="20.7027" rx="3.75176" transform="rotate(-180 123.656 61.4528)" stroke="#33F7C3" stroke-width="1.5007"/>
<path d="M93.7097 46.8702V55.6016H91.8637V48.6224H91.8125L89.813 49.8759V48.2387L91.9746 46.8702H93.7097ZM95.7849 55.6016V54.2714L98.8929 51.3936C99.1573 51.1378 99.3789 50.9076 99.558 50.703C99.7399 50.4983 99.8778 50.2979 99.9716 50.1018C100.065 49.9029 100.112 49.6883 100.112 49.4581C100.112 49.2023 100.054 48.982 99.9374 48.7972C99.8209 48.6096 99.6618 48.4661 99.46 48.3666C99.2582 48.2643 99.0294 48.2132 98.7736 48.2132C98.5064 48.2132 98.2733 48.2672 98.0744 48.3752C97.8754 48.4832 97.7219 48.6381 97.6139 48.8399C97.5059 49.0417 97.4519 49.2818 97.4519 49.5604H95.6997C95.6997 48.9891 95.829 48.4931 96.0876 48.0725C96.3463 47.6518 96.7087 47.3264 97.1748 47.0962C97.6409 46.8659 98.1781 46.7508 98.7863 46.7508C99.4116 46.7508 99.9559 46.8617 100.419 47.0834C100.885 47.3022 101.248 47.6063 101.506 47.9957C101.765 48.3851 101.894 48.8313 101.894 49.3344C101.894 49.6641 101.829 49.9896 101.698 50.3107C101.57 50.6319 101.342 50.9886 101.012 51.3808C100.682 51.7702 100.217 52.2378 99.6177 52.7835L98.343 54.0326V54.0923H102.009V55.6016H95.7849ZM103.364 58.0573V49.053H105.155V50.153H105.236C105.315 49.9768 105.43 49.7977 105.581 49.6158C105.735 49.4311 105.934 49.2776 106.178 49.1554C106.425 49.0303 106.732 48.9678 107.099 48.9678C107.576 48.9678 108.017 49.0928 108.42 49.3429C108.824 49.5902 109.147 49.964 109.388 50.4642C109.63 50.9616 109.751 51.5855 109.751 52.3358C109.751 53.0663 109.633 53.683 109.397 54.1861C109.164 54.6864 108.845 55.0658 108.442 55.3244C108.041 55.5802 107.592 55.7081 107.095 55.7081C106.742 55.7081 106.442 55.6499 106.195 55.5333C105.951 55.4168 105.75 55.2704 105.594 55.0942C105.438 54.9152 105.318 54.7347 105.236 54.5528H105.18V58.0573H103.364ZM105.142 52.3273C105.142 52.7167 105.196 53.0563 105.304 53.3462C105.412 53.6362 105.568 53.8621 105.773 54.0241C105.978 54.1833 106.226 54.2629 106.519 54.2629C106.815 54.2629 107.065 54.1819 107.269 54.0199C107.474 53.855 107.629 53.6276 107.734 53.3377C107.842 53.045 107.896 52.7082 107.896 52.3273C107.896 51.9493 107.843 51.6167 107.738 51.3297C107.633 51.0426 107.478 50.8181 107.274 50.6561C107.069 50.4941 106.817 50.4131 106.519 50.4131C106.223 50.4131 105.973 50.4912 105.769 50.6475C105.567 50.8039 105.412 51.0256 105.304 51.3126C105.196 51.5997 105.142 51.9379 105.142 52.3273ZM112.245 49.053L113.447 51.3425L114.679 49.053H116.542L114.645 52.3273L116.593 55.6016H114.739L113.447 53.3377L112.176 55.6016H110.301L112.245 52.3273L110.369 49.053H112.245Z" fill="#0B1530"/>
<path d="M214.703 110.203V72.2031H198.703V110.203" stroke="#33F7C3" stroke-width="2"/>
<rect x="227.656" y="61.4528" width="41.9061" height="20.7027" rx="3.75176" transform="rotate(-180 227.656 61.4528)" fill="#33F7C3"/>
<rect x="227.656" y="61.4528" width="41.9061" height="20.7027" rx="3.75176" transform="rotate(-180 227.656 61.4528)" stroke="#33F7C3" stroke-width="1.5007"/>
<path d="M196.71 46.8702V55.6016H194.864V48.6224H194.813L192.813 49.8759V48.2387L194.975 46.8702H196.71ZM202.136 55.7209C201.687 55.7181 201.253 55.6428 200.836 55.495C200.421 55.3472 200.048 55.107 199.719 54.7745C199.389 54.4419 199.127 54.0014 198.934 53.4528C198.744 52.9043 198.649 52.2307 198.649 51.432C198.651 50.6987 198.735 50.0436 198.9 49.4666C199.068 48.8868 199.306 48.3951 199.616 47.9915C199.929 47.5879 200.303 47.2809 200.738 47.0706C201.172 46.8574 201.66 46.7508 202.2 46.7508C202.783 46.7508 203.297 46.8645 203.743 47.0919C204.189 47.3164 204.548 47.622 204.818 48.0085C205.09 48.3951 205.255 48.8285 205.312 49.3088H203.492C203.421 49.0047 203.271 48.766 203.044 48.5926C202.817 48.4192 202.535 48.3325 202.2 48.3325C201.631 48.3325 201.199 48.5798 200.904 49.0744C200.611 49.5689 200.462 50.2411 200.456 51.0909H200.516C200.647 50.8323 200.823 50.612 201.045 50.4301C201.269 50.2454 201.523 50.1047 201.808 50.008C202.095 49.9086 202.397 49.8588 202.716 49.8588C203.233 49.8588 203.693 49.981 204.097 50.2255C204.501 50.4671 204.819 50.7996 205.052 51.2231C205.285 51.6466 205.402 52.1312 205.402 52.6769C205.402 53.2681 205.264 53.7939 204.988 54.2543C204.715 54.7148 204.333 55.0757 203.841 55.3372C203.352 55.5959 202.784 55.7238 202.136 55.7209ZM202.127 54.2714C202.412 54.2714 202.666 54.2032 202.891 54.0668C203.115 53.9303 203.291 53.7456 203.419 53.5125C203.547 53.2795 203.611 53.018 203.611 52.7281C203.611 52.4381 203.547 52.1781 203.419 51.9479C203.294 51.7176 203.121 51.5343 202.899 51.3979C202.677 51.2615 202.424 51.1932 202.14 51.1932C201.927 51.1932 201.729 51.233 201.548 51.3126C201.369 51.3922 201.211 51.5031 201.074 51.6452C200.941 51.7873 200.836 51.9521 200.759 52.1397C200.682 52.3245 200.644 52.522 200.644 52.7323C200.644 53.0137 200.708 53.2709 200.836 53.504C200.966 53.7371 201.143 53.9232 201.364 54.0625C201.589 54.2018 201.843 54.2714 202.127 54.2714ZM206.728 58.0573V49.053H208.518V50.153H208.599C208.679 49.9768 208.794 49.7977 208.945 49.6158C209.098 49.4311 209.297 49.2776 209.541 49.1554C209.789 49.0303 210.096 48.9678 210.462 48.9678C210.94 48.9678 211.38 49.0928 211.784 49.3429C212.188 49.5902 212.51 49.964 212.752 50.4642C212.993 50.9616 213.114 51.5855 213.114 52.3358C213.114 53.0663 212.996 53.683 212.76 54.1861C212.527 54.6864 212.209 55.0658 211.805 55.3244C211.404 55.5802 210.955 55.7081 210.458 55.7081C210.106 55.7081 209.806 55.6499 209.558 55.5333C209.314 55.4168 209.114 55.2704 208.957 55.0942C208.801 54.9152 208.682 54.7347 208.599 54.5528H208.544V58.0573H206.728ZM208.505 52.3273C208.505 52.7167 208.559 53.0563 208.667 53.3462C208.775 53.6362 208.932 53.8621 209.136 54.0241C209.341 54.1833 209.59 54.2629 209.882 54.2629C210.178 54.2629 210.428 54.1819 210.633 54.0199C210.837 53.855 210.992 53.6276 211.098 53.3377C211.206 53.045 211.26 52.7082 211.26 52.3273C211.26 51.9493 211.207 51.6167 211.102 51.3297C210.997 51.0426 210.842 50.8181 210.637 50.6561C210.432 50.4941 210.181 50.4131 209.882 50.4131C209.587 50.4131 209.337 50.4912 209.132 50.6475C208.93 50.8039 208.775 51.0256 208.667 51.3126C208.559 51.5997 208.505 51.9379 208.505 52.3273ZM215.608 49.053L216.81 51.3425L218.043 49.053H219.906L218.008 52.3273L219.957 55.6016H218.102L216.81 53.3377L215.54 55.6016H213.664L215.608 52.3273L213.732 49.053H215.608Z" fill="#0B1530"/>
<g filter="url(#filter0_d_1142_8717)">
<rect x="96" y="81" width="223" height="126" rx="8" fill="white"/>
<g clip-path="url(#clip0_1142_8717)">
<path d="M110.192 101.744L109.12 100.704C109.515 100.181 109.973 99.7973 110.496 99.552C111.029 99.2853 111.675 99.152 112.432 99.152C113.499 99.152 114.325 99.4347 114.912 100C115.424 100.501 115.68 101.125 115.68 101.872C115.68 102.384 115.563 102.827 115.328 103.2C115.104 103.584 114.784 103.893 114.368 104.128C114.955 104.277 115.435 104.592 115.808 105.072C116.171 105.531 116.352 106.133 116.352 106.88C116.352 107.84 115.995 108.635 115.28 109.264C114.555 109.883 113.595 110.192 112.4 110.192C111.387 110.192 110.512 109.915 109.776 109.36C109.2 108.912 108.747 108.336 108.416 107.632L109.856 106.896C110.069 107.44 110.4 107.872 110.848 108.192C111.317 108.523 111.904 108.688 112.608 108.688C113.312 108.688 113.856 108.496 114.24 108.112C114.581 107.771 114.752 107.333 114.752 106.8C114.752 106.245 114.544 105.829 114.128 105.552C113.733 105.275 113.088 105.136 112.192 105.136H111.232V103.6H112.096C112.779 103.6 113.291 103.456 113.632 103.168C113.952 102.901 114.112 102.539 114.112 102.08C114.112 101.6 113.941 101.232 113.6 100.976C113.323 100.763 112.912 100.656 112.368 100.656C111.856 100.656 111.424 100.757 111.072 100.96C110.731 101.152 110.437 101.413 110.192 101.744ZM123.045 104.048V103.264H124.613V110H123.045V109.296C122.522 109.904 121.85 110.208 121.029 110.208C120.037 110.208 119.242 109.856 118.645 109.152C118.058 108.448 117.765 107.605 117.765 106.624C117.765 105.557 118.08 104.704 118.709 104.064C119.349 103.413 120.128 103.088 121.045 103.088C121.888 103.088 122.554 103.408 123.045 104.048ZM121.237 104.496C120.682 104.496 120.229 104.704 119.877 105.12C119.536 105.536 119.365 106.048 119.365 106.656C119.365 107.253 119.536 107.76 119.877 108.176C120.229 108.592 120.682 108.8 121.237 108.8C121.77 108.8 122.218 108.613 122.581 108.24C122.954 107.867 123.141 107.344 123.141 106.672C123.141 105.979 122.954 105.445 122.581 105.072C122.218 104.688 121.77 104.496 121.237 104.496ZM126.601 110V103.264H130.729V104.704H128.169V110H126.601ZM132.367 104.096C133.06 103.424 133.919 103.088 134.943 103.088C135.967 103.088 136.82 103.424 137.503 104.096C138.196 104.757 138.543 105.605 138.543 106.64C138.543 107.664 138.196 108.517 137.503 109.2C136.82 109.872 135.967 110.208 134.943 110.208C133.919 110.208 133.06 109.872 132.367 109.2C131.684 108.517 131.343 107.664 131.343 106.64C131.343 105.605 131.684 104.757 132.367 104.096ZM133.487 108.224C133.85 108.608 134.335 108.8 134.943 108.8C135.551 108.8 136.036 108.608 136.399 108.224C136.762 107.829 136.943 107.307 136.943 106.656C136.943 105.941 136.746 105.403 136.351 105.04C135.967 104.677 135.498 104.496 134.943 104.496C134.388 104.496 133.914 104.677 133.519 105.04C133.135 105.403 132.943 105.941 132.943 106.656C132.943 107.307 133.124 107.829 133.487 108.224ZM145.716 103.264V110H144.148V104.704H142.164V107.376C142.164 108.208 141.95 108.853 141.524 109.312C140.98 109.92 140.244 110.149 139.316 110V108.56C139.774 108.667 140.142 108.565 140.42 108.256C140.58 108.064 140.66 107.771 140.66 107.376V103.264H145.716ZM148.367 104.096C149.06 103.424 149.919 103.088 150.943 103.088C151.967 103.088 152.82 103.424 153.503 104.096C154.196 104.757 154.543 105.605 154.543 106.64C154.543 107.664 154.196 108.517 153.503 109.2C152.82 109.872 151.967 110.208 150.943 110.208C149.919 110.208 149.06 109.872 148.367 109.2C147.684 108.517 147.343 107.664 147.343 106.64C147.343 105.605 147.684 104.757 148.367 104.096ZM149.487 108.224C149.85 108.608 150.335 108.8 150.943 108.8C151.551 108.8 152.036 108.608 152.399 108.224C152.762 107.829 152.943 107.307 152.943 106.656C152.943 105.941 152.746 105.403 152.351 105.04C151.967 104.677 151.498 104.496 150.943 104.496C150.388 104.496 149.914 104.677 149.519 105.04C149.135 105.403 148.943 105.941 148.943 106.656C148.943 107.307 149.124 107.829 149.487 108.224ZM156.18 103.264H158.82C159.492 103.264 160.004 103.397 160.356 103.664C160.772 103.995 160.98 104.427 160.98 104.96C160.98 105.568 160.713 106.005 160.18 106.272C160.521 106.336 160.825 106.485 161.092 106.72C161.444 107.04 161.62 107.472 161.62 108.016C161.62 108.667 161.374 109.179 160.884 109.552C160.478 109.851 159.961 110 159.332 110H156.18V103.264ZM157.748 105.888H158.548C158.825 105.888 159.033 105.84 159.172 105.744C159.374 105.616 159.476 105.435 159.476 105.2C159.476 104.976 159.385 104.8 159.204 104.672C159.076 104.587 158.846 104.544 158.516 104.544H157.748V105.888ZM157.748 108.72H158.916C159.268 108.72 159.54 108.656 159.732 108.528C159.945 108.389 160.052 108.192 160.052 107.936C160.052 107.659 159.95 107.461 159.748 107.344C159.566 107.227 159.305 107.168 158.964 107.168H157.748V108.72ZM163.93 104.096C164.623 103.424 165.482 103.088 166.506 103.088C167.53 103.088 168.383 103.424 169.066 104.096C169.759 104.757 170.106 105.605 170.106 106.64C170.106 107.664 169.759 108.517 169.066 109.2C168.383 109.872 167.53 110.208 166.506 110.208C165.482 110.208 164.623 109.872 163.93 109.2C163.247 108.517 162.906 107.664 162.906 106.64C162.906 105.605 163.247 104.757 163.93 104.096ZM165.05 108.224C165.412 108.608 165.898 108.8 166.506 108.8C167.114 108.8 167.599 108.608 167.962 108.224C168.324 107.829 168.506 107.307 168.506 106.656C168.506 105.941 168.308 105.403 167.914 105.04C167.53 104.677 167.06 104.496 166.506 104.496C165.951 104.496 165.476 104.677 165.082 105.04C164.698 105.403 164.506 105.941 164.506 106.656C164.506 107.307 164.687 107.829 165.05 108.224ZM171.742 103.264H173.31V105.664L175.55 103.264H177.63L174.686 106.208L177.79 110H175.806L173.566 107.232L173.31 107.488V110H171.742V103.264Z" fill="#0B1530"/>
</g>
<path d="M288 98L302 112" stroke="#B6B9C1" stroke-width="2" stroke-linecap="round"/>
<path d="M302 98L288 112" stroke="#B6B9C1" stroke-width="2" stroke-linecap="round"/>
<path d="M110.304 126.328H116.8V135.88H118.016V139.24H116.896V137H109.344V139.24H108.224V135.88C108.587 135.891 108.917 135.763 109.216 135.496C109.515 135.219 109.749 134.867 109.92 134.44C110.176 133.789 110.304 132.856 110.304 131.64V126.328ZM111.488 127.448V131.64C111.488 132.952 111.36 133.944 111.104 134.616C110.923 135.096 110.651 135.517 110.288 135.88H115.616V127.448H111.488ZM124.346 130.36V137H123.194V131.416H120.826V134.408C120.826 135.272 120.656 135.912 120.314 136.328C119.93 136.797 119.397 137.032 118.714 137.032C118.629 137.032 118.512 137.021 118.362 137V135.944C118.469 135.965 118.554 135.976 118.618 135.976C118.992 135.976 119.269 135.832 119.45 135.544C119.6 135.309 119.674 134.931 119.674 134.408V130.36H124.346ZM126.526 130.36H127.678V134.744L132.222 129.848V137H131.07V132.568L126.526 137.464V130.36ZM134.401 137V130.36H135.553V133.08H138.689V130.36H139.841V137H138.689V134.136H135.553V137H134.401ZM142.01 137V130.36H143.162V133.08H146.298V130.36H147.45V137H146.298V134.136H143.162V137H142.01ZM149.619 137V130.36H150.771V132.904H151.955C152.873 132.904 153.545 133.123 153.971 133.56C154.313 133.901 154.483 134.365 154.483 134.952C154.483 135.571 154.286 136.067 153.891 136.44C153.497 136.813 152.846 137 151.939 137H149.619ZM150.771 135.976H151.843C152.323 135.976 152.665 135.917 152.867 135.8C153.155 135.608 153.299 135.325 153.299 134.952C153.299 134.568 153.161 134.291 152.883 134.12C152.691 133.992 152.35 133.928 151.859 133.928H150.771V135.976ZM155.283 137V130.36H156.435V137H155.283ZM158.604 130.36H159.756V134.744L164.3 129.848V137H163.148V132.568L158.604 137.464V130.36ZM159.18 127.496L160.14 127.128C160.332 127.768 160.785 128.088 161.5 128.088C162.214 128.088 162.668 127.768 162.86 127.128L163.82 127.496C163.649 127.976 163.356 128.355 162.94 128.632C162.534 128.909 162.054 129.048 161.5 129.048C160.945 129.048 160.46 128.909 160.044 128.632C159.638 128.355 159.35 127.976 159.18 127.496ZM170.213 130.36H175.557V137H174.405V131.416H171.365V137H170.213V130.36ZM183.345 136.2C182.683 136.861 181.846 137.192 180.833 137.192C179.819 137.192 178.977 136.861 178.305 136.2C177.643 135.539 177.313 134.707 177.313 133.704C177.313 132.691 177.643 131.853 178.305 131.192C178.977 130.531 179.819 130.2 180.833 130.2C181.846 130.2 182.683 130.531 183.345 131.192C184.017 131.853 184.353 132.691 184.353 133.704C184.353 134.707 184.017 135.539 183.345 136.2ZM182.481 131.88C182.033 131.443 181.483 131.224 180.833 131.224C180.182 131.224 179.627 131.448 179.169 131.896C178.721 132.333 178.497 132.936 178.497 133.704C178.497 134.472 178.726 135.075 179.185 135.512C179.643 135.949 180.193 136.168 180.833 136.168C181.473 136.168 182.022 135.949 182.481 135.512C182.939 135.075 183.169 134.472 183.169 133.704C183.169 132.925 182.939 132.317 182.481 131.88ZM185.351 137L187.415 134.264C187.351 134.264 187.261 134.253 187.143 134.232C187.037 134.211 186.877 134.157 186.663 134.072C186.45 133.987 186.274 133.875 186.135 133.736C185.783 133.405 185.607 132.963 185.607 132.408C185.607 131.779 185.805 131.283 186.199 130.92C186.594 130.547 187.245 130.36 188.151 130.36H190.471V137H189.319V134.328H188.615L186.727 137H185.351ZM189.319 133.368V131.384H188.247C187.746 131.384 187.399 131.443 187.207 131.56C186.93 131.741 186.791 132.013 186.791 132.376C186.791 132.739 186.93 133.005 187.207 133.176C187.41 133.304 187.751 133.368 188.231 133.368H189.319ZM197.851 130.84V132.216C197.328 131.555 196.635 131.224 195.771 131.224C195.12 131.224 194.565 131.448 194.107 131.896C193.648 132.333 193.419 132.936 193.419 133.704C193.419 134.472 193.648 135.075 194.107 135.512C194.565 135.949 195.115 136.168 195.755 136.168C196.608 136.168 197.323 135.821 197.899 135.128V136.504C197.269 136.963 196.565 137.192 195.786 137.192C194.752 137.192 193.899 136.867 193.227 136.216C192.565 135.555 192.235 134.723 192.235 133.72C192.235 132.707 192.571 131.869 193.243 131.208C193.915 130.536 194.763 130.2 195.786 130.2C196.555 130.2 197.243 130.413 197.851 130.84ZM199.666 137V130.36H200.818V133.08H203.954V130.36H205.106V137H203.954V134.136H200.818V137H199.666ZM206.508 137L208.572 134.264C208.508 134.264 208.417 134.253 208.299 134.232C208.193 134.211 208.033 134.157 207.82 134.072C207.606 133.987 207.43 133.875 207.292 133.736C206.94 133.405 206.764 132.963 206.764 132.408C206.764 131.779 206.961 131.283 207.356 130.92C207.75 130.547 208.401 130.36 209.308 130.36H211.628V137H210.476V134.328H209.772L207.884 137H206.508ZM210.476 133.368V131.384H209.404C208.902 131.384 208.556 131.443 208.364 131.56C208.086 131.741 207.948 132.013 207.948 132.376C207.948 132.739 208.086 133.005 208.364 133.176C208.566 133.304 208.908 133.368 209.388 133.368H210.476ZM214.959 133.08H216.159C216.265 132.333 216.564 131.704 217.055 131.192C217.684 130.531 218.521 130.2 219.567 130.2C220.591 130.2 221.433 130.531 222.095 131.192C222.756 131.853 223.087 132.691 223.087 133.704C223.087 134.707 222.751 135.539 222.079 136.2C221.417 136.861 220.58 137.192 219.567 137.192C218.404 137.192 217.492 136.776 216.831 135.944C216.404 135.411 216.159 134.808 216.095 134.136H214.959V137H213.807V130.36H214.959V133.08ZM219.567 131.224C218.927 131.224 218.383 131.448 217.935 131.896C217.497 132.333 217.279 132.936 217.279 133.704C217.279 134.483 217.503 135.091 217.951 135.528C218.399 135.955 218.937 136.168 219.567 136.168C220.207 136.168 220.756 135.949 221.215 135.512C221.673 135.075 221.903 134.472 221.903 133.704C221.903 132.936 221.673 132.333 221.215 131.896C220.767 131.448 220.217 131.224 219.567 131.224ZM224.854 137V130.36H226.006V135.944H228.566V130.36H229.718V135.944H232.278V130.36H233.43V135.944H234.518V138.76H233.462V137H224.854ZM235.729 130.36H236.881V134.744L241.425 129.848V137H240.273V132.568L235.729 137.464V130.36ZM243.604 130.36H244.756V134.744L249.3 129.848V137H248.148V132.568L243.604 137.464V130.36ZM244.18 127.496L245.14 127.128C245.332 127.768 245.785 128.088 246.5 128.088C247.214 128.088 247.668 127.768 247.86 127.128L248.82 127.496C248.649 127.976 248.356 128.355 247.94 128.632C247.534 128.909 247.054 129.048 246.5 129.048C245.945 129.048 245.46 128.909 245.044 128.632C244.638 128.355 244.35 127.976 244.18 127.496ZM113.44 149.416H111.36V155H110.208V149.416H108.128V148.36H113.44V149.416ZM119.422 152.776L120.382 153.304C120.158 153.731 119.886 154.088 119.566 154.376C118.958 154.92 118.222 155.192 117.358 155.192C116.462 155.192 115.689 154.904 115.038 154.328C114.398 153.741 114.078 152.872 114.078 151.72C114.078 150.707 114.366 149.869 114.942 149.208C115.529 148.536 116.313 148.2 117.294 148.2C118.404 148.2 119.241 148.605 119.806 149.416C120.254 150.056 120.462 150.888 120.43 151.912H115.262C115.273 152.584 115.481 153.128 115.886 153.544C116.292 153.96 116.788 154.168 117.374 154.168C117.897 154.168 118.35 154.008 118.734 153.688C119.033 153.432 119.262 153.128 119.422 152.776ZM115.342 150.952H119.246C119.15 150.429 118.921 150.013 118.558 149.704C118.206 149.384 117.785 149.224 117.294 149.224C116.814 149.224 116.388 149.389 116.014 149.72C115.652 150.04 115.428 150.451 115.342 150.952ZM122.197 148.36H123.349V151.08L126.037 148.36H127.445L124.565 151.32L127.797 155H126.293L123.701 152.088L123.349 152.424V155H122.197V148.36ZM133.804 148.84V150.216C133.281 149.555 132.588 149.224 131.724 149.224C131.073 149.224 130.518 149.448 130.06 149.896C129.601 150.333 129.372 150.936 129.372 151.704C129.372 152.472 129.601 153.075 130.06 153.512C130.518 153.949 131.068 154.168 131.708 154.168C132.561 154.168 133.276 153.821 133.852 153.128V154.504C133.222 154.963 132.518 155.192 131.74 155.192C130.705 155.192 129.852 154.867 129.18 154.216C128.518 153.555 128.188 152.723 128.188 151.72C128.188 150.707 128.524 149.869 129.196 149.208C129.868 148.536 130.716 148.2 131.74 148.2C132.508 148.2 133.196 148.413 133.804 148.84ZM139.971 149.416H137.891V155H136.739V149.416H134.659V148.36H139.971V149.416ZM145.396 148.36H150.068V153.944H151.06V156.76H150.004V155H144.948V156.76H143.892V153.944C144.447 153.933 144.857 153.645 145.124 153.08C145.305 152.707 145.396 152.12 145.396 151.32V148.36ZM148.916 153.944V149.416H146.548V151.912C146.548 152.797 146.281 153.475 145.748 153.944H148.916ZM157.784 148.36V155H156.632V149.416H154.264V152.408C154.264 153.272 154.093 153.912 153.752 154.328C153.368 154.797 152.835 155.032 152.152 155.032C152.067 155.032 151.949 155.021 151.8 155V153.944C151.907 153.965 151.992 153.976 152.056 153.976C152.429 153.976 152.707 153.832 152.888 153.544C153.037 153.309 153.112 152.931 153.112 152.408V148.36H157.784ZM159.195 155L161.259 152.264C161.195 152.264 161.104 152.253 160.987 152.232C160.88 152.211 160.72 152.157 160.507 152.072C160.294 151.987 160.118 151.875 159.979 151.736C159.627 151.405 159.451 150.963 159.451 150.408C159.451 149.779 159.648 149.283 160.043 148.92C160.438 148.547 161.088 148.36 161.995 148.36H164.315V155H163.163V152.328H162.459L160.571 155H159.195ZM163.163 151.368V149.384H162.091C161.59 149.384 161.243 149.443 161.051 149.56C160.774 149.741 160.635 150.013 160.635 150.376C160.635 150.739 160.774 151.005 161.051 151.176C161.254 151.304 161.595 151.368 162.075 151.368H163.163ZM170.229 148.36H175.573V155H174.421V149.416H171.381V155H170.229V148.36ZM183.36 154.2C182.699 154.861 181.862 155.192 180.848 155.192C179.835 155.192 178.992 154.861 178.32 154.2C177.659 153.539 177.328 152.707 177.328 151.704C177.328 150.691 177.659 149.853 178.32 149.192C178.992 148.531 179.835 148.2 180.848 148.2C181.862 148.2 182.699 148.531 183.36 149.192C184.032 149.853 184.368 150.691 184.368 151.704C184.368 152.707 184.032 153.539 183.36 154.2ZM182.496 149.88C182.048 149.443 181.499 149.224 180.848 149.224C180.198 149.224 179.643 149.448 179.184 149.896C178.736 150.333 178.512 150.936 178.512 151.704C178.512 152.472 178.742 153.075 179.2 153.512C179.659 153.949 180.208 154.168 180.848 154.168C181.488 154.168 182.038 153.949 182.496 153.512C182.955 153.075 183.184 152.472 183.184 151.704C183.184 150.925 182.955 150.317 182.496 149.88ZM191.159 148.36V155H190.007V149.416H187.639V152.408C187.639 153.272 187.468 153.912 187.127 154.328C186.743 154.797 186.21 155.032 185.527 155.032C185.442 155.032 185.324 155.021 185.175 155V153.944C185.282 153.965 185.367 153.976 185.431 153.976C185.804 153.976 186.082 153.832 186.263 153.544C186.412 153.309 186.487 152.931 186.487 152.408V148.36H191.159ZM193.338 155V148.36H194.49V150.904H195.674C196.591 150.904 197.263 151.123 197.69 151.56C198.031 151.901 198.202 152.365 198.202 152.952C198.202 153.571 198.005 154.067 197.61 154.44C197.215 154.813 196.565 155 195.658 155H193.338ZM194.49 153.976H195.562C196.042 153.976 196.383 153.917 196.586 153.8C196.874 153.608 197.018 153.325 197.018 152.952C197.018 152.568 196.879 152.291 196.602 152.12C196.41 151.992 196.069 151.928 195.578 151.928H194.49V153.976ZM200.608 150.056L199.808 149.4C200.064 149.027 200.347 148.749 200.656 148.568C201.072 148.323 201.558 148.2 202.112 148.2C202.784 148.2 203.307 148.355 203.68 148.664C204.064 148.995 204.256 149.416 204.256 149.928C204.256 150.547 204.006 151.011 203.504 151.32C203.824 151.395 204.08 151.539 204.272 151.752C204.582 152.083 204.736 152.488 204.736 152.968C204.736 153.683 204.448 154.253 203.872 154.68C203.403 155.021 202.774 155.192 201.984 155.192C201.28 155.192 200.688 155.005 200.208 154.632C199.846 154.365 199.552 153.987 199.328 153.496L200.32 153.08C200.438 153.379 200.635 153.629 200.912 153.832C201.211 154.056 201.574 154.168 202 154.168C202.502 154.168 202.875 154.083 203.12 153.912C203.43 153.709 203.584 153.4 203.584 152.984C203.584 152.643 203.451 152.387 203.184 152.216C202.96 152.067 202.598 151.992 202.096 151.992H201.424V150.936H201.984C202.39 150.936 202.678 150.877 202.848 150.76C203.083 150.611 203.2 150.408 203.2 150.152C203.2 149.853 203.104 149.624 202.912 149.464C202.731 149.304 202.448 149.224 202.064 149.224C201.734 149.224 201.43 149.309 201.152 149.48C200.918 149.629 200.736 149.821 200.608 150.056ZM212.11 154.2C211.449 154.861 210.612 155.192 209.598 155.192C208.585 155.192 207.742 154.861 207.07 154.2C206.409 153.539 206.078 152.707 206.078 151.704C206.078 150.691 206.409 149.853 207.07 149.192C207.742 148.531 208.585 148.2 209.598 148.2C210.612 148.2 211.449 148.531 212.11 149.192C212.782 149.853 213.118 150.691 213.118 151.704C213.118 152.707 212.782 153.539 212.11 154.2ZM211.246 149.88C210.798 149.443 210.249 149.224 209.598 149.224C208.948 149.224 208.393 149.448 207.934 149.896C207.486 150.333 207.262 150.936 207.262 151.704C207.262 152.472 207.492 153.075 207.95 153.512C208.409 153.949 208.958 154.168 209.598 154.168C210.238 154.168 210.788 153.949 211.246 153.512C211.705 153.075 211.934 152.472 211.934 151.704C211.934 150.925 211.705 150.317 211.246 149.88ZM214.885 148.36H217.397C218.005 148.36 218.469 148.488 218.789 148.744C219.173 149.053 219.365 149.469 219.365 149.992C219.365 150.568 219.125 151.011 218.645 151.32C218.976 151.405 219.253 151.555 219.477 151.768C219.829 152.109 220.005 152.536 220.005 153.048C220.005 153.688 219.776 154.189 219.317 154.552C218.922 154.851 218.4 155 217.749 155H214.885V148.36ZM216.037 151.064H217.253C217.562 151.064 217.808 151 217.989 150.872C218.202 150.712 218.309 150.483 218.309 150.184C218.309 149.917 218.202 149.704 217.989 149.544C217.829 149.437 217.52 149.384 217.061 149.384H216.037V151.064ZM216.037 153.976H217.461C217.952 153.976 218.298 153.901 218.501 153.752C218.757 153.56 218.885 153.315 218.885 153.016C218.885 152.696 218.773 152.445 218.549 152.264C218.346 152.104 218 152.024 217.509 152.024H216.037V153.976ZM226.848 149.304V148.36H228V155H226.848V154.072C226.272 154.819 225.515 155.192 224.576 155.192C223.68 155.192 222.917 154.883 222.288 154.264C221.659 153.645 221.344 152.781 221.344 151.672C221.344 150.584 221.653 149.736 222.272 149.128C222.901 148.509 223.669 148.2 224.576 148.2C225.536 148.2 226.293 148.568 226.848 149.304ZM224.704 149.224C224.096 149.224 223.579 149.443 223.152 149.88C222.736 150.307 222.528 150.904 222.528 151.672C222.528 152.408 222.72 153.011 223.104 153.48C223.499 153.939 224.032 154.168 224.704 154.168C225.376 154.168 225.909 153.928 226.304 153.448C226.709 152.968 226.912 152.381 226.912 151.688C226.912 150.899 226.688 150.291 226.24 149.864C225.792 149.437 225.28 149.224 224.704 149.224ZM234.534 149.416H232.454V155H231.302V149.416H229.222V148.36H234.534V149.416ZM240.516 152.776L241.476 153.304C241.252 153.731 240.98 154.088 240.66 154.376C240.052 154.92 239.316 155.192 238.452 155.192C237.556 155.192 236.783 154.904 236.132 154.328C235.492 153.741 235.172 152.872 235.172 151.72C235.172 150.707 235.46 149.869 236.036 149.208C236.623 148.536 237.407 148.2 238.388 148.2C239.497 148.2 240.335 148.605 240.9 149.416C241.348 150.056 241.556 150.888 241.524 151.912H236.356C236.367 152.584 236.575 153.128 236.98 153.544C237.385 153.96 237.881 154.168 238.468 154.168C238.991 154.168 239.444 154.008 239.828 153.688C240.127 153.432 240.356 153.128 240.516 152.776ZM236.436 150.952H240.34C240.244 150.429 240.015 150.013 239.652 149.704C239.3 149.384 238.879 149.224 238.388 149.224C237.908 149.224 237.481 149.389 237.108 149.72C236.745 150.04 236.521 150.451 236.436 150.952ZM248.315 148.36V155H247.163V149.416H244.795V152.408C244.795 153.272 244.624 153.912 244.283 154.328C243.899 154.797 243.366 155.032 242.683 155.032C242.598 155.032 242.48 155.021 242.331 155V153.944C242.438 153.965 242.523 153.976 242.587 153.976C242.96 153.976 243.238 153.832 243.419 153.544C243.568 153.309 243.643 152.931 243.643 152.408V148.36H248.315ZM249.726 155L251.79 152.264C251.726 152.264 251.636 152.253 251.518 152.232C251.412 152.211 251.252 152.157 251.038 152.072C250.825 151.987 250.649 151.875 250.51 151.736C250.158 151.405 249.982 150.963 249.982 150.408C249.982 149.779 250.18 149.283 250.574 148.92C250.969 148.547 251.62 148.36 252.526 148.36H254.846V155H253.694V152.328H252.99L251.102 155H249.726ZM253.694 151.368V149.384H252.622C252.121 149.384 251.774 149.443 251.582 149.56C251.305 149.741 251.166 150.013 251.166 150.376C251.166 150.739 251.305 151.005 251.582 151.176C251.785 151.304 252.126 151.368 252.606 151.368H253.694ZM257.202 154.92C257.042 154.76 256.962 154.573 256.962 154.36C256.962 154.147 257.042 153.96 257.202 153.8C257.362 153.64 257.548 153.56 257.762 153.56C257.975 153.56 258.162 153.64 258.322 153.8C258.482 153.96 258.562 154.147 258.562 154.36C258.562 154.573 258.482 154.76 258.322 154.92C258.162 155.08 257.975 155.16 257.762 155.16C257.548 155.16 257.362 155.08 257.202 154.92ZM110.224 173H109.008L110.784 161.736L114.88 170.744L119.056 161.72L120.72 173H119.504L118.496 165.576L114.864 173.448L111.28 165.576L110.224 173ZM128.517 172.2C127.855 172.861 127.018 173.192 126.005 173.192C124.991 173.192 124.149 172.861 123.477 172.2C122.815 171.539 122.485 170.707 122.485 169.704C122.485 168.691 122.815 167.853 123.477 167.192C124.149 166.531 124.991 166.2 126.005 166.2C127.018 166.2 127.855 166.531 128.517 167.192C129.189 167.853 129.525 168.691 129.525 169.704C129.525 170.707 129.189 171.539 128.517 172.2ZM127.653 167.88C127.205 167.443 126.655 167.224 126.005 167.224C125.354 167.224 124.799 167.448 124.341 167.896C123.893 168.333 123.669 168.936 123.669 169.704C123.669 170.472 123.898 171.075 124.357 171.512C124.815 171.949 125.365 172.168 126.005 172.168C126.645 172.168 127.194 171.949 127.653 171.512C128.111 171.075 128.341 170.472 128.341 169.704C128.341 168.925 128.111 168.317 127.653 167.88ZM134.395 166.36H135.547V169.08L138.043 166.36H139.387L136.507 169.432L139.675 173H138.235L135.771 170.2L135.547 170.424V173H134.395V170.424L134.171 170.2L131.707 173H130.267L133.435 169.432L130.555 166.36H131.899L134.395 169.08V166.36ZM145.594 170.776L146.554 171.304C146.33 171.731 146.058 172.088 145.738 172.376C145.13 172.92 144.394 173.192 143.53 173.192C142.634 173.192 141.861 172.904 141.21 172.328C140.57 171.741 140.25 170.872 140.25 169.72C140.25 168.707 140.538 167.869 141.114 167.208C141.701 166.536 142.485 166.2 143.466 166.2C144.575 166.2 145.413 166.605 145.978 167.416C146.426 168.056 146.634 168.888 146.602 169.912H141.434C141.445 170.584 141.653 171.128 142.058 171.544C142.463 171.96 142.959 172.168 143.546 172.168C144.069 172.168 144.522 172.008 144.906 171.688C145.205 171.432 145.434 171.128 145.594 170.776ZM141.514 168.952H145.418C145.322 168.429 145.093 168.013 144.73 167.704C144.378 167.384 143.957 167.224 143.466 167.224C142.986 167.224 142.559 167.389 142.186 167.72C141.823 168.04 141.599 168.451 141.514 168.952ZM152.721 167.416H150.641V173H149.489V167.416H147.409V166.36H152.721V167.416ZM157.666 166.36H158.818V170.744L163.362 165.848V173H162.21V168.568L157.666 173.464V166.36ZM170.741 166.84V168.216C170.218 167.555 169.525 167.224 168.661 167.224C168.01 167.224 167.456 167.448 166.997 167.896C166.538 168.333 166.309 168.936 166.309 169.704C166.309 170.472 166.538 171.075 166.997 171.512C167.456 171.949 168.005 172.168 168.645 172.168C169.498 172.168 170.213 171.821 170.789 171.128V172.504C170.16 172.963 169.456 173.192 168.677 173.192C167.642 173.192 166.789 172.867 166.117 172.216C165.456 171.555 165.125 170.723 165.125 169.72C165.125 168.707 165.461 167.869 166.133 167.208C166.805 166.536 167.653 166.2 168.677 166.2C169.445 166.2 170.133 166.413 170.741 166.84ZM172.557 166.36H177.901V173H176.749V167.416H173.709V173H172.557V166.36ZM185.688 172.2C185.027 172.861 184.19 173.192 183.176 173.192C182.163 173.192 181.32 172.861 180.648 172.2C179.987 171.539 179.656 170.707 179.656 169.704C179.656 168.691 179.987 167.853 180.648 167.192C181.32 166.531 182.163 166.2 183.176 166.2C184.19 166.2 185.027 166.531 185.688 167.192C186.36 167.853 186.696 168.691 186.696 169.704C186.696 170.707 186.36 171.539 185.688 172.2ZM184.824 167.88C184.376 167.443 183.827 167.224 183.176 167.224C182.526 167.224 181.971 167.448 181.512 167.896C181.064 168.333 180.84 168.936 180.84 169.704C180.84 170.472 181.07 171.075 181.528 171.512C181.987 171.949 182.536 172.168 183.176 172.168C183.816 172.168 184.366 171.949 184.824 171.512C185.283 171.075 185.512 170.472 185.512 169.704C185.512 168.925 185.283 168.317 184.824 167.88ZM193.487 166.36V173H192.335V167.416H189.967V170.408C189.967 171.272 189.796 171.912 189.455 172.328C189.071 172.797 188.538 173.032 187.855 173.032C187.77 173.032 187.652 173.021 187.503 173V171.944C187.61 171.965 187.695 171.976 187.759 171.976C188.132 171.976 188.41 171.832 188.591 171.544C188.74 171.309 188.815 170.931 188.815 170.408V166.36H193.487ZM195.666 173V166.36H196.818V168.904H198.002C198.919 168.904 199.591 169.123 200.018 169.56C200.359 169.901 200.53 170.365 200.53 170.952C200.53 171.571 200.333 172.067 199.938 172.44C199.543 172.813 198.893 173 197.986 173H195.666ZM196.818 171.976H197.89C198.37 171.976 198.711 171.917 198.914 171.8C199.202 171.608 199.346 171.325 199.346 170.952C199.346 170.568 199.207 170.291 198.93 170.12C198.738 169.992 198.397 169.928 197.906 169.928H196.818V171.976ZM202.936 168.056L202.136 167.4C202.392 167.027 202.675 166.749 202.984 166.568C203.4 166.323 203.886 166.2 204.44 166.2C205.112 166.2 205.635 166.355 206.008 166.664C206.392 166.995 206.584 167.416 206.584 167.928C206.584 168.547 206.334 169.011 205.832 169.32C206.152 169.395 206.408 169.539 206.6 169.752C206.91 170.083 207.064 170.488 207.064 170.968C207.064 171.683 206.776 172.253 206.2 172.68C205.731 173.021 205.102 173.192 204.312 173.192C203.608 173.192 203.016 173.005 202.536 172.632C202.174 172.365 201.88 171.987 201.656 171.496L202.648 171.08C202.766 171.379 202.963 171.629 203.24 171.832C203.539 172.056 203.902 172.168 204.328 172.168C204.83 172.168 205.203 172.083 205.448 171.912C205.758 171.709 205.912 171.4 205.912 170.984C205.912 170.643 205.779 170.387 205.512 170.216C205.288 170.067 204.926 169.992 204.424 169.992H203.752V168.936H204.312C204.718 168.936 205.006 168.877 205.176 168.76C205.411 168.611 205.528 168.408 205.528 168.152C205.528 167.853 205.432 167.624 205.24 167.464C205.059 167.304 204.776 167.224 204.392 167.224C204.062 167.224 203.758 167.309 203.48 167.48C203.246 167.629 203.064 167.821 202.936 168.056ZM214.438 172.2C213.777 172.861 212.94 173.192 211.926 173.192C210.913 173.192 210.07 172.861 209.398 172.2C208.737 171.539 208.406 170.707 208.406 169.704C208.406 168.691 208.737 167.853 209.398 167.192C210.07 166.531 210.913 166.2 211.926 166.2C212.94 166.2 213.777 166.531 214.438 167.192C215.11 167.853 215.446 168.691 215.446 169.704C215.446 170.707 215.11 171.539 214.438 172.2ZM213.574 167.88C213.126 167.443 212.577 167.224 211.926 167.224C211.276 167.224 210.721 167.448 210.262 167.896C209.814 168.333 209.59 168.936 209.59 169.704C209.59 170.472 209.82 171.075 210.278 171.512C210.737 171.949 211.286 172.168 211.926 172.168C212.566 172.168 213.116 171.949 213.574 171.512C214.033 171.075 214.262 170.472 214.262 169.704C214.262 168.925 214.033 168.317 213.574 167.88ZM217.213 166.36H219.725C220.333 166.36 220.797 166.488 221.117 166.744C221.501 167.053 221.693 167.469 221.693 167.992C221.693 168.568 221.453 169.011 220.973 169.32C221.304 169.405 221.581 169.555 221.805 169.768C222.157 170.109 222.333 170.536 222.333 171.048C222.333 171.688 222.104 172.189 221.645 172.552C221.25 172.851 220.728 173 220.077 173H217.213V166.36ZM218.365 169.064H219.581C219.89 169.064 220.136 169 220.317 168.872C220.53 168.712 220.637 168.483 220.637 168.184C220.637 167.917 220.53 167.704 220.317 167.544C220.157 167.437 219.848 167.384 219.389 167.384H218.365V169.064ZM218.365 171.976H219.789C220.28 171.976 220.626 171.901 220.829 171.752C221.085 171.56 221.213 171.315 221.213 171.016C221.213 170.696 221.101 170.445 220.877 170.264C220.674 170.104 220.328 170.024 219.837 170.024H218.365V171.976ZM229.176 167.304V166.36H230.328V173H229.176V172.072C228.6 172.819 227.843 173.192 226.904 173.192C226.008 173.192 225.245 172.883 224.616 172.264C223.987 171.645 223.672 170.781 223.672 169.672C223.672 168.584 223.981 167.736 224.6 167.128C225.229 166.509 225.997 166.2 226.904 166.2C227.864 166.2 228.621 166.568 229.176 167.304ZM227.032 167.224C226.424 167.224 225.907 167.443 225.48 167.88C225.064 168.307 224.856 168.904 224.856 169.672C224.856 170.408 225.048 171.011 225.432 171.48C225.827 171.939 226.36 172.168 227.032 172.168C227.704 172.168 228.237 171.928 228.632 171.448C229.037 170.968 229.24 170.381 229.24 169.688C229.24 168.899 229.016 168.291 228.568 167.864C228.12 167.437 227.608 167.224 227.032 167.224ZM236.862 167.416H234.782V173H233.63V167.416H231.55V166.36H236.862V167.416ZM238.072 173V166.36H239.224V168.904H240.408C241.326 168.904 241.998 169.123 242.424 169.56C242.766 169.901 242.936 170.365 242.936 170.952C242.936 171.571 242.739 172.067 242.344 172.44C241.95 172.813 241.299 173 240.392 173H238.072ZM239.224 171.976H240.296C240.776 171.976 241.118 171.917 241.32 171.8C241.608 171.608 241.752 171.325 241.752 170.952C241.752 170.568 241.614 170.291 241.336 170.12C241.144 169.992 240.803 169.928 240.312 169.928H239.224V171.976ZM249.679 166.84V168.216C249.156 167.555 248.463 167.224 247.599 167.224C246.948 167.224 246.393 167.448 245.935 167.896C245.476 168.333 245.247 168.936 245.247 169.704C245.247 170.472 245.476 171.075 245.935 171.512C246.393 171.949 246.943 172.168 247.583 172.168C248.436 172.168 249.151 171.821 249.727 171.128V172.504C249.097 172.963 248.393 173.192 247.615 173.192C246.58 173.192 245.727 172.867 245.055 172.216C244.393 171.555 244.063 170.723 244.063 169.72C244.063 168.707 244.399 167.869 245.071 167.208C245.743 166.536 246.591 166.2 247.615 166.2C248.383 166.2 249.071 166.413 249.679 166.84ZM250.726 173L252.79 170.264C252.726 170.264 252.636 170.253 252.518 170.232C252.412 170.211 252.252 170.157 252.038 170.072C251.825 169.987 251.649 169.875 251.51 169.736C251.158 169.405 250.982 168.963 250.982 168.408C250.982 167.779 251.18 167.283 251.574 166.92C251.969 166.547 252.62 166.36 253.526 166.36H255.846V173H254.694V170.328H253.99L252.102 173H250.726ZM254.694 169.368V167.384H253.622C253.121 167.384 252.774 167.443 252.582 167.56C252.305 167.741 252.166 168.013 252.166 168.376C252.166 168.739 252.305 169.005 252.582 169.176C252.785 169.304 253.126 169.368 253.606 169.368H254.694ZM114.208 179.8H115.488C115.371 180.195 115.168 180.531 114.88 180.808C114.603 181.075 114.347 181.256 114.112 181.352C113.888 181.448 113.621 181.533 113.312 181.608C113.259 181.619 113.131 181.651 112.928 181.704C112.725 181.747 112.571 181.784 112.464 181.816C112.357 181.848 112.219 181.891 112.048 181.944C111.877 181.997 111.723 182.061 111.584 182.136C111.445 182.211 111.317 182.291 111.2 182.376C110.795 182.685 110.464 183.117 110.208 183.672C109.963 184.216 109.829 184.797 109.808 185.416H109.84C110.32 184.605 111.125 184.2 112.256 184.2C113.248 184.2 114.069 184.536 114.72 185.208C115.381 185.88 115.712 186.712 115.712 187.704C115.712 188.707 115.376 189.539 114.704 190.2C114.032 190.861 113.157 191.192 112.08 191.192C111.152 191.192 110.389 190.915 109.792 190.36C109.045 189.677 108.672 188.536 108.672 186.936C108.672 184.152 109.301 182.328 110.56 181.464C110.656 181.4 110.757 181.341 110.864 181.288C110.971 181.224 111.083 181.171 111.2 181.128C111.328 181.075 111.435 181.032 111.52 181C111.605 180.957 111.723 180.92 111.872 180.888C112.032 180.845 112.139 180.819 112.192 180.808C112.256 180.787 112.373 180.76 112.544 180.728C112.725 180.685 112.837 180.659 112.88 180.648C113.307 180.552 113.616 180.44 113.808 180.312C114 180.173 114.133 180.003 114.208 179.8ZM113.84 185.88C113.392 185.443 112.843 185.224 112.192 185.224C111.541 185.224 110.987 185.448 110.528 185.896C110.08 186.333 109.856 186.936 109.856 187.704C109.856 188.472 110.085 189.075 110.544 189.512C111.003 189.949 111.552 190.168 112.192 190.168C112.832 190.168 113.381 189.949 113.84 189.512C114.299 189.075 114.528 188.472 114.528 187.704C114.528 186.925 114.299 186.317 113.84 185.88ZM122.407 188.776L123.367 189.304C123.143 189.731 122.871 190.088 122.551 190.376C121.943 190.92 121.207 191.192 120.343 191.192C119.447 191.192 118.673 190.904 118.023 190.328C117.383 189.741 117.063 188.872 117.063 187.72C117.063 186.707 117.351 185.869 117.927 185.208C118.513 184.536 119.297 184.2 120.279 184.2C121.388 184.2 122.225 184.605 122.791 185.416C123.239 186.056 123.447 186.888 123.415 187.912H118.247C118.257 188.584 118.465 189.128 118.871 189.544C119.276 189.96 119.772 190.168 120.359 190.168C120.881 190.168 121.335 190.008 121.719 189.688C122.017 189.432 122.247 189.128 122.407 188.776ZM118.327 186.952H122.231C122.135 186.429 121.905 186.013 121.543 185.704C121.191 185.384 120.769 185.224 120.279 185.224C119.799 185.224 119.372 185.389 118.999 185.72C118.636 186.04 118.412 186.451 118.327 186.952ZM125.89 186.056L125.09 185.4C125.346 185.027 125.628 184.749 125.938 184.568C126.354 184.323 126.839 184.2 127.394 184.2C128.066 184.2 128.588 184.355 128.962 184.664C129.346 184.995 129.538 185.416 129.538 185.928C129.538 186.547 129.287 187.011 128.786 187.32C129.106 187.395 129.362 187.539 129.554 187.752C129.863 188.083 130.018 188.488 130.018 188.968C130.018 189.683 129.73 190.253 129.154 190.68C128.684 191.021 128.055 191.192 127.266 191.192C126.562 191.192 125.97 191.005 125.49 190.632C125.127 190.365 124.834 189.987 124.61 189.496L125.602 189.08C125.719 189.379 125.916 189.629 126.194 189.832C126.492 190.056 126.855 190.168 127.282 190.168C127.783 190.168 128.156 190.083 128.402 189.912C128.711 189.709 128.866 189.4 128.866 188.984C128.866 188.643 128.732 188.387 128.466 188.216C128.242 188.067 127.879 187.992 127.378 187.992H126.706V186.936H127.266C127.671 186.936 127.959 186.877 128.13 186.76C128.364 186.611 128.482 186.408 128.482 186.152C128.482 185.853 128.386 185.624 128.194 185.464C128.012 185.304 127.73 185.224 127.346 185.224C127.015 185.224 126.711 185.309 126.434 185.48C126.199 185.629 126.018 185.821 125.89 186.056ZM136.374 186.056L135.574 185.4C135.83 185.027 136.113 184.749 136.422 184.568C136.838 184.323 137.323 184.2 137.878 184.2C138.55 184.2 139.073 184.355 139.446 184.664C139.83 184.995 140.022 185.416 140.022 185.928C140.022 186.547 139.771 187.011 139.27 187.32C139.59 187.395 139.846 187.539 140.038 187.752C140.347 188.083 140.502 188.488 140.502 188.968C140.502 189.683 140.214 190.253 139.638 190.68C139.169 191.021 138.539 191.192 137.75 191.192C137.046 191.192 136.454 191.005 135.974 190.632C135.611 190.365 135.318 189.987 135.094 189.496L136.086 189.08C136.203 189.379 136.401 189.629 136.678 189.832C136.977 190.056 137.339 190.168 137.766 190.168C138.267 190.168 138.641 190.083 138.886 189.912C139.195 189.709 139.35 189.4 139.35 188.984C139.35 188.643 139.217 188.387 138.95 188.216C138.726 188.067 138.363 187.992 137.862 187.992H137.19V186.936H137.75C138.155 186.936 138.443 186.877 138.614 186.76C138.849 186.611 138.966 186.408 138.966 186.152C138.966 185.853 138.87 185.624 138.678 185.464C138.497 185.304 138.214 185.224 137.83 185.224C137.499 185.224 137.195 185.309 136.918 185.48C136.683 185.629 136.502 185.821 136.374 186.056ZM147.348 185.304V184.36H148.5V191H147.348V190.072C146.772 190.819 146.015 191.192 145.076 191.192C144.18 191.192 143.417 190.883 142.788 190.264C142.159 189.645 141.844 188.781 141.844 187.672C141.844 186.584 142.153 185.736 142.772 185.128C143.401 184.509 144.169 184.2 145.076 184.2C146.036 184.2 146.793 184.568 147.348 185.304ZM145.204 185.224C144.596 185.224 144.079 185.443 143.652 185.88C143.236 186.307 143.028 186.904 143.028 187.672C143.028 188.408 143.22 189.011 143.604 189.48C143.999 189.939 144.532 190.168 145.204 190.168C145.876 190.168 146.409 189.928 146.804 189.448C147.209 188.968 147.412 188.381 147.412 187.688C147.412 186.899 147.188 186.291 146.74 185.864C146.292 185.437 145.78 185.224 145.204 185.224ZM150.682 191V184.36H154.618V185.416H151.834V191H150.682ZM161.048 190.2C160.386 190.861 159.549 191.192 158.536 191.192C157.522 191.192 156.68 190.861 156.008 190.2C155.346 189.539 155.016 188.707 155.016 187.704C155.016 186.691 155.346 185.853 156.008 185.192C156.68 184.531 157.522 184.2 158.536 184.2C159.549 184.2 160.386 184.531 161.048 185.192C161.72 185.853 162.056 186.691 162.056 187.704C162.056 188.707 161.72 189.539 161.048 190.2ZM160.184 185.88C159.736 185.443 159.186 185.224 158.536 185.224C157.885 185.224 157.33 185.448 156.872 185.896C156.424 186.333 156.2 186.936 156.2 187.704C156.2 188.472 156.429 189.075 156.888 189.512C157.346 189.949 157.896 190.168 158.536 190.168C159.176 190.168 159.725 189.949 160.184 189.512C160.642 189.075 160.872 188.472 160.872 187.704C160.872 186.925 160.642 186.317 160.184 185.88ZM168.846 184.36V191H167.694V185.416H165.326V188.408C165.326 189.272 165.156 189.912 164.814 190.328C164.43 190.797 163.897 191.032 163.214 191.032C163.129 191.032 163.012 191.021 162.862 191V189.944C162.969 189.965 163.054 189.976 163.118 189.976C163.492 189.976 163.769 189.832 163.95 189.544C164.1 189.309 164.174 188.931 164.174 188.408V184.36H168.846ZM176.642 190.2C175.98 190.861 175.143 191.192 174.13 191.192C173.116 191.192 172.274 190.861 171.602 190.2C170.94 189.539 170.61 188.707 170.61 187.704C170.61 186.691 170.94 185.853 171.602 185.192C172.274 184.531 173.116 184.2 174.13 184.2C175.143 184.2 175.98 184.531 176.642 185.192C177.314 185.853 177.65 186.691 177.65 187.704C177.65 188.707 177.314 189.539 176.642 190.2ZM175.778 185.88C175.33 185.443 174.78 185.224 174.13 185.224C173.479 185.224 172.924 185.448 172.466 185.896C172.018 186.333 171.794 186.936 171.794 187.704C171.794 188.472 172.023 189.075 172.482 189.512C172.94 189.949 173.49 190.168 174.13 190.168C174.77 190.168 175.319 189.949 175.778 189.512C176.236 189.075 176.466 188.472 176.466 187.704C176.466 186.925 176.236 186.317 175.778 185.88ZM179.416 184.36H181.928C182.536 184.36 183 184.488 183.32 184.744C183.704 185.053 183.896 185.469 183.896 185.992C183.896 186.568 183.656 187.011 183.176 187.32C183.507 187.405 183.784 187.555 184.008 187.768C184.36 188.109 184.536 188.536 184.536 189.048C184.536 189.688 184.307 190.189 183.848 190.552C183.453 190.851 182.931 191 182.28 191H179.416V184.36ZM180.568 187.064H181.784C182.093 187.064 182.339 187 182.52 186.872C182.733 186.712 182.84 186.483 182.84 186.184C182.84 185.917 182.733 185.704 182.52 185.544C182.36 185.437 182.051 185.384 181.592 185.384H180.568V187.064ZM180.568 189.976H181.992C182.483 189.976 182.829 189.901 183.032 189.752C183.288 189.56 183.416 189.315 183.416 189.016C183.416 188.696 183.304 188.445 183.08 188.264C182.877 188.104 182.531 188.024 182.04 188.024H180.568V189.976ZM186.291 184.36H187.443V187.08L190.131 184.36H191.539L188.659 187.32L191.891 191H190.387L187.795 188.088L187.443 188.424V191H186.291V184.36ZM198.129 185.304V184.36H199.281V191H198.129V190.072C197.553 190.819 196.796 191.192 195.857 191.192C194.961 191.192 194.198 190.883 193.569 190.264C192.94 189.645 192.625 188.781 192.625 187.672C192.625 186.584 192.934 185.736 193.553 185.128C194.182 184.509 194.95 184.2 195.857 184.2C196.817 184.2 197.574 184.568 198.129 185.304ZM195.985 185.224C195.377 185.224 194.86 185.443 194.433 185.88C194.017 186.307 193.809 186.904 193.809 187.672C193.809 188.408 194.001 189.011 194.385 189.48C194.78 189.939 195.313 190.168 195.985 190.168C196.657 190.168 197.19 189.928 197.585 189.448C197.99 188.968 198.193 188.381 198.193 187.688C198.193 186.899 197.969 186.291 197.521 185.864C197.073 185.437 196.561 185.224 195.985 185.224ZM201.639 190.92C201.479 190.76 201.399 190.573 201.399 190.36C201.399 190.147 201.479 189.96 201.639 189.8C201.799 189.64 201.986 189.56 202.199 189.56C202.412 189.56 202.599 189.64 202.759 189.8C202.919 189.96 202.999 190.147 202.999 190.36C202.999 190.573 202.919 190.76 202.759 190.92C202.599 191.08 202.412 191.16 202.199 191.16C201.986 191.16 201.799 191.08 201.639 190.92Z" fill="#0B1530"/>
<path d="M207.5 215L199.5 207L215.5 207L207.5 215Z" fill="white"/>
</g>
<path d="M207.789 235.331C208.653 235.331 209.355 236.032 209.353 236.897C209.353 237.761 208.653 238.46 207.789 238.46C206.925 238.46 206.225 237.761 206.225 236.897C206.225 236.033 206.925 235.333 207.789 235.331ZM207.13 225.117H208.45C209.069 225.117 209.568 225.692 209.568 226.407L209.176 232.744C209.176 233.458 208.676 234.034 207.789 234.034C206.903 234.034 206.404 233.458 206.404 232.744L206.012 226.407C206.012 225.693 206.511 225.117 207.13 225.117ZM207.789 222C202.383 222 198 226.382 198 231.789C198 237.195 202.383 241.577 207.789 241.577C213.195 241.579 217.578 237.195 217.578 231.789C217.578 226.382 213.195 222 207.789 222Z" fill="#6C7383"/>
<defs>
<filter id="filter0_d_1142_8717" x="84" y="69" width="247" height="158" filterUnits="userSpaceOnUse" color-interpolation-filters="sRGB">
<feFlood flood-opacity="0" result="BackgroundImageFix"/>
<feColorMatrix in="SourceAlpha" type="matrix" values="0 0 0 0 0 0 0 0 0 0 0 0 0 0 0 0 0 0 127 0" result="hardAlpha"/>
<feOffset/>
<feGaussianBlur stdDeviation="6"/>
<feComposite in2="hardAlpha" operator="out"/>
<feColorMatrix type="matrix" values="0 0 0 0 0 0 0 0 0 0 0 0 0 0 0 0 0 0 0.07 0"/>
<feBlend mode="normal" in2="BackgroundImageFix" result="effect1_dropShadow_1142_8717"/>
<feBlend mode="normal" in="SourceGraphic" in2="effect1_dropShadow_1142_8717" result="shape"/>
</filter>
<clipPath id="clip0_1142_8717">
<rect width="175" height="16" fill="white" transform="translate(108 97)"/>
</clipPath>
</defs>
</svg>
