<svg width="415" height="186" viewBox="0 0 415 186" fill="none" xmlns="http://www.w3.org/2000/svg">
<rect width="415" height="186" rx="24" fill="#F5F6F8"/>
<g filter="url(#filter0_d_903_2848)">
<rect x="96" y="31" width="223" height="116" rx="8" fill="white"/>
<circle cx="195.5" cy="75" r="32" fill="#E7E8EA"/>
<path d="M141.007 129.608C139.94 130.664 138.628 131.192 137.071 131.192C135.513 131.192 134.196 130.664 133.119 129.608C132.052 128.552 131.519 127.24 131.519 125.672C131.519 124.093 132.057 122.781 133.135 121.736C134.212 120.68 135.524 120.152 137.071 120.152C138.617 120.152 139.929 120.68 141.007 121.736C142.084 122.781 142.623 124.093 142.623 125.672C142.623 127.24 142.084 128.552 141.007 129.608ZM140.143 122.552C139.3 121.699 138.276 121.272 137.071 121.272C135.865 121.272 134.841 121.699 133.999 122.552C133.156 123.405 132.735 124.445 132.735 125.672C132.735 126.899 133.156 127.939 133.999 128.792C134.841 129.645 135.865 130.072 137.071 130.072C138.276 130.072 139.3 129.645 140.143 128.792C140.985 127.939 141.407 126.899 141.407 125.672C141.407 124.445 140.985 123.405 140.143 122.552ZM144.51 124.36H149.854V131H148.702V125.416H145.662V131H144.51V124.36ZM152.026 124.36H153.178V128.744L157.722 123.848V131H156.57V126.568L152.026 131.464V124.36ZM165.101 124.84V126.216C164.578 125.555 163.885 125.224 163.021 125.224C162.37 125.224 161.815 125.448 161.357 125.896C160.898 126.333 160.669 126.936 160.669 127.704C160.669 128.472 160.898 129.075 161.357 129.512C161.815 129.949 162.365 130.168 163.005 130.168C163.858 130.168 164.573 129.821 165.149 129.128V130.504C164.519 130.963 163.815 131.192 163.036 131.192C162.002 131.192 161.149 130.867 160.477 130.216C159.815 129.555 159.485 128.723 159.485 127.72C159.485 126.707 159.821 125.869 160.493 125.208C161.165 124.536 162.013 124.2 163.036 124.2C163.805 124.2 164.493 124.413 165.101 124.84ZM172.004 125.304V124.36H173.156V131H172.004V130.072C171.428 130.819 170.671 131.192 169.732 131.192C168.836 131.192 168.073 130.883 167.444 130.264C166.815 129.645 166.5 128.781 166.5 127.672C166.5 126.584 166.809 125.736 167.428 125.128C168.057 124.509 168.825 124.2 169.732 124.2C170.692 124.2 171.449 124.568 172.004 125.304ZM169.86 125.224C169.252 125.224 168.735 125.443 168.308 125.88C167.892 126.307 167.684 126.904 167.684 127.672C167.684 128.408 167.876 129.011 168.26 129.48C168.655 129.939 169.188 130.168 169.86 130.168C170.532 130.168 171.065 129.928 171.46 129.448C171.865 128.968 172.068 128.381 172.068 127.688C172.068 126.899 171.844 126.291 171.396 125.864C170.948 125.437 170.436 125.224 169.86 125.224ZM175.338 131V124.36H176.49V127.08H179.626V124.36H180.778V131H179.626V128.136H176.49V131H175.338ZM182.947 124.36H184.099V128.744L188.643 123.848V131H187.491V126.568L182.947 131.464V124.36ZM195.75 128.776L196.71 129.304C196.486 129.731 196.214 130.088 195.894 130.376C195.286 130.92 194.55 131.192 193.686 131.192C192.79 131.192 192.017 130.904 191.366 130.328C190.726 129.741 190.406 128.872 190.406 127.72C190.406 126.707 190.694 125.869 191.27 125.208C191.857 124.536 192.641 124.2 193.622 124.2C194.732 124.2 195.569 124.605 196.134 125.416C196.582 126.056 196.79 126.888 196.758 127.912H191.59C191.601 128.584 191.809 129.128 192.214 129.544C192.62 129.96 193.116 130.168 193.702 130.168C194.225 130.168 194.678 130.008 195.062 129.688C195.361 129.432 195.59 129.128 195.75 128.776ZM191.67 126.952H195.574C195.478 126.429 195.249 126.013 194.886 125.704C194.534 125.384 194.113 125.224 193.622 125.224C193.142 125.224 192.716 125.389 192.342 125.72C191.98 126.04 191.756 126.451 191.67 126.952ZM202.26 124.36H203.412V127.08L206.1 124.36H207.508L204.628 127.32L207.86 131H206.356L203.764 128.088L203.412 128.424V131H202.26V124.36ZM214.098 125.304V124.36H215.25V131H214.098V130.072C213.522 130.819 212.765 131.192 211.826 131.192C210.93 131.192 210.167 130.883 209.538 130.264C208.909 129.645 208.594 128.781 208.594 127.672C208.594 126.584 208.903 125.736 209.522 125.128C210.151 124.509 210.919 124.2 211.826 124.2C212.786 124.2 213.543 124.568 214.098 125.304ZM211.954 125.224C211.346 125.224 210.829 125.443 210.402 125.88C209.986 126.307 209.778 126.904 209.778 127.672C209.778 128.408 209.97 129.011 210.354 129.48C210.749 129.939 211.282 130.168 211.954 130.168C212.626 130.168 213.159 129.928 213.554 129.448C213.959 128.968 214.162 128.381 214.162 127.688C214.162 126.899 213.938 126.291 213.49 125.864C213.042 125.437 212.53 125.224 211.954 125.224ZM218.584 130.072V134.68H217.432V124.36H218.584V125.288C219.17 124.563 219.928 124.2 220.856 124.2C221.848 124.2 222.632 124.552 223.208 125.256C223.794 125.949 224.088 126.771 224.088 127.72C224.088 128.68 223.8 129.501 223.224 130.184C222.648 130.856 221.874 131.192 220.904 131.192C219.933 131.192 219.16 130.819 218.584 130.072ZM220.744 130.168C221.394 130.168 221.917 129.933 222.312 129.464C222.706 128.984 222.904 128.403 222.904 127.72C222.904 126.952 222.685 126.344 222.248 125.896C221.81 125.448 221.304 125.224 220.728 125.224C220.152 125.224 219.64 125.448 219.192 125.896C218.744 126.344 218.52 126.947 218.52 127.704C218.52 128.397 218.722 128.984 219.128 129.464C219.544 129.933 220.082 130.168 220.744 130.168ZM230.049 125.416H227.969V131H226.817V125.416H224.737V124.36H230.049V125.416ZM231.26 124.36H232.412V128.744L236.956 123.848V131H235.804V126.568L231.26 131.464V124.36ZM239.135 131V124.36H240.287V127.08H243.423V124.36H244.575V131H243.423V128.136H240.287V131H239.135ZM246.744 124.36H247.896V127.08L250.584 124.36H251.992L249.112 127.32L252.344 131H250.84L248.248 128.088L247.896 128.424V131H246.744V124.36ZM253.494 124.36H254.646V128.744L259.19 123.848V131H258.038V126.568L253.494 131.464V124.36Z" fill="#0B1530"/>
<path d="M288 48L302 62" stroke="#B6B9C1" stroke-width="2" stroke-linecap="round"/>
<path d="M302 48L288 62" stroke="#B6B9C1" stroke-width="2" stroke-linecap="round"/>
<path d="M207.5 155L199.5 147L215.5 147L207.5 155Z" fill="white"/>
</g>
<defs>
<filter id="filter0_d_903_2848" x="84" y="19" width="247" height="148" filterUnits="userSpaceOnUse" color-interpolation-filters="sRGB">
<feFlood flood-opacity="0" result="BackgroundImageFix"/>
<feColorMatrix in="SourceAlpha" type="matrix" values="0 0 0 0 0 0 0 0 0 0 0 0 0 0 0 0 0 0 127 0" result="hardAlpha"/>
<feOffset/>
<feGaussianBlur stdDeviation="6"/>
<feComposite in2="hardAlpha" operator="out"/>
<feColorMatrix type="matrix" values="0 0 0 0 0 0 0 0 0 0 0 0 0 0 0 0 0 0 0.07 0"/>
<feBlend mode="normal" in2="BackgroundImageFix" result="effect1_dropShadow_903_2848"/>
<feBlend mode="normal" in="SourceGraphic" in2="effect1_dropShadow_903_2848" result="shape"/>
</filter>
</defs>
</svg>
