<svg width="416" height="262" viewBox="0 0 416 262" fill="none" xmlns="http://www.w3.org/2000/svg">
<rect width="416" height="262" rx="24" fill="#F5F6F8"/>
<path d="M20.4 45.38V44.1H33.6V45.38H20.4Z" fill="#0B1530"/>
<path d="M46.36 49V40.7H47.8V44.1H51.72V40.7H53.16V49H51.72V45.42H47.8V49H46.36ZM62.0317 46.22L63.2317 46.88C62.9517 47.4133 62.6117 47.86 62.2117 48.22C61.4517 48.9 60.5317 49.24 59.4517 49.24C58.3317 49.24 57.3651 48.88 56.5517 48.16C55.7517 47.4267 55.3517 46.34 55.3517 44.9C55.3517 43.6333 55.7117 42.5867 56.4317 41.76C57.1651 40.92 58.1451 40.5 59.3717 40.5C60.7584 40.5 61.8051 41.0067 62.5117 42.02C63.0717 42.82 63.3317 43.86 63.2917 45.14H56.8317C56.8451 45.98 57.1051 46.66 57.6117 47.18C58.1184 47.7 58.7384 47.96 59.4717 47.96C60.1251 47.96 60.6917 47.76 61.1717 47.36C61.5451 47.04 61.8317 46.66 62.0317 46.22ZM56.9317 43.94H61.8117C61.6917 43.2867 61.4051 42.7667 60.9517 42.38C60.5117 41.98 59.9851 41.78 59.3717 41.78C58.7717 41.78 58.2384 41.9867 57.7717 42.4C57.3184 42.8 57.0384 43.3133 56.9317 43.94ZM64.5406 49L66.5406 40.06L69.9806 46.82L73.3406 40.06L75.3406 49H73.8606L72.7606 43.86L69.9406 49.58L67.0806 43.86L66.0206 49H64.5406ZM83.4622 41.88V40.7H84.9022V49H83.4622V47.84C82.7422 48.7733 81.7955 49.24 80.6222 49.24C79.5022 49.24 78.5489 48.8533 77.7622 48.08C76.9755 47.3067 76.5822 46.2267 76.5822 44.84C76.5822 43.48 76.9689 42.42 77.7422 41.66C78.5289 40.8867 79.4889 40.5 80.6222 40.5C81.8222 40.5 82.7689 40.96 83.4622 41.88ZM80.7822 41.78C80.0222 41.78 79.3755 42.0533 78.8422 42.6C78.3222 43.1333 78.0622 43.88 78.0622 44.84C78.0622 45.76 78.3022 46.5133 78.7822 47.1C79.2755 47.6733 79.9422 47.96 80.7822 47.96C81.6222 47.96 82.2889 47.66 82.7822 47.06C83.2889 46.46 83.5422 45.7267 83.5422 44.86C83.5422 43.8733 83.2622 43.1133 82.7022 42.58C82.1422 42.0467 81.5022 41.78 80.7822 41.78ZM89.0695 47.84V53.6H87.6295V40.7H89.0695V41.86C89.8029 40.9533 90.7495 40.5 91.9095 40.5C93.1495 40.5 94.1295 40.94 94.8495 41.82C95.5829 42.6867 95.9495 43.7133 95.9495 44.9C95.9495 46.1 95.5895 47.1267 94.8695 47.98C94.1495 48.82 93.1829 49.24 91.9695 49.24C90.7562 49.24 89.7895 48.7733 89.0695 47.84ZM91.7695 47.96C92.5829 47.96 93.2362 47.6667 93.7295 47.08C94.2229 46.48 94.4695 45.7533 94.4695 44.9C94.4695 43.94 94.1962 43.18 93.6495 42.62C93.1029 42.06 92.4695 41.78 91.7495 41.78C91.0295 41.78 90.3895 42.06 89.8295 42.62C89.2695 43.18 88.9895 43.9333 88.9895 44.88C88.9895 45.7467 89.2429 46.48 89.7495 47.08C90.2695 47.6667 90.9429 47.96 91.7695 47.96ZM98.1569 40.7H99.5969V44.1L102.957 40.7H104.717L101.117 44.4L105.157 49H103.277L100.037 45.36L99.5969 45.78V49H98.1569V40.7ZM112.559 46.22L113.759 46.88C113.479 47.4133 113.139 47.86 112.739 48.22C111.979 48.9 111.059 49.24 109.979 49.24C108.859 49.24 107.892 48.88 107.079 48.16C106.279 47.4267 105.879 46.34 105.879 44.9C105.879 43.6333 106.239 42.5867 106.959 41.76C107.692 40.92 108.672 40.5 109.899 40.5C111.286 40.5 112.332 41.0067 113.039 42.02C113.599 42.82 113.859 43.86 113.819 45.14H107.359C107.372 45.98 107.632 46.66 108.139 47.18C108.646 47.7 109.266 47.96 109.999 47.96C110.652 47.96 111.219 47.76 111.699 47.36C112.072 47.04 112.359 46.66 112.559 46.22ZM107.459 43.94H112.339C112.219 43.2867 111.932 42.7667 111.479 42.38C111.039 41.98 110.512 41.78 109.899 41.78C109.299 41.78 108.766 41.9867 108.299 42.4C107.846 42.8 107.566 43.3133 107.459 43.94ZM117.468 47.84V53.6H116.028V40.7H117.468V41.86C118.201 40.9533 119.148 40.5 120.308 40.5C121.548 40.5 122.528 40.94 123.248 41.82C123.981 42.6867 124.348 43.7133 124.348 44.9C124.348 46.1 123.988 47.1267 123.268 47.98C122.548 48.82 121.581 49.24 120.368 49.24C119.155 49.24 118.188 48.7733 117.468 47.84ZM120.168 47.96C120.981 47.96 121.635 47.6667 122.128 47.08C122.621 46.48 122.868 45.7533 122.868 44.9C122.868 43.94 122.595 43.18 122.048 42.62C121.501 42.06 120.868 41.78 120.148 41.78C119.428 41.78 118.788 42.06 118.228 42.62C117.668 43.18 117.388 43.9333 117.388 44.88C117.388 45.7467 117.641 46.48 118.148 47.08C118.668 47.6667 119.341 47.96 120.168 47.96ZM133.575 48C132.749 48.8267 131.702 49.24 130.435 49.24C129.169 49.24 128.115 48.8267 127.275 48C126.449 47.1733 126.035 46.1333 126.035 44.88C126.035 43.6133 126.449 42.5667 127.275 41.74C128.115 40.9133 129.169 40.5 130.435 40.5C131.702 40.5 132.749 40.9133 133.575 41.74C134.415 42.5667 134.835 43.6133 134.835 44.88C134.835 46.1333 134.415 47.1733 133.575 48ZM132.495 42.6C131.935 42.0533 131.249 41.78 130.435 41.78C129.622 41.78 128.929 42.06 128.355 42.62C127.795 43.1667 127.515 43.92 127.515 44.88C127.515 45.84 127.802 46.5933 128.375 47.14C128.949 47.6867 129.635 47.96 130.435 47.96C131.235 47.96 131.922 47.6867 132.495 47.14C133.069 46.5933 133.355 45.84 133.355 44.88C133.355 43.9067 133.069 43.1467 132.495 42.6ZM137.044 40.7H140.184C140.944 40.7 141.524 40.86 141.924 41.18C142.404 41.5667 142.644 42.0867 142.644 42.74C142.644 43.46 142.344 44.0133 141.744 44.4C142.157 44.5067 142.504 44.6933 142.784 44.96C143.224 45.3867 143.444 45.92 143.444 46.56C143.444 47.36 143.157 47.9867 142.584 48.44C142.09 48.8133 141.437 49 140.624 49H137.044V40.7ZM138.484 44.08H140.004C140.39 44.08 140.697 44 140.924 43.84C141.19 43.64 141.324 43.3533 141.324 42.98C141.324 42.6467 141.19 42.38 140.924 42.18C140.724 42.0467 140.337 41.98 139.764 41.98H138.484V44.08ZM138.484 47.72H140.264C140.877 47.72 141.31 47.6267 141.564 47.44C141.884 47.2 142.044 46.8933 142.044 46.52C142.044 46.12 141.904 45.8067 141.624 45.58C141.37 45.38 140.937 45.28 140.324 45.28H138.484V47.72ZM151.997 41.88V40.7H153.437V49H151.997V47.84C151.277 48.7733 150.331 49.24 149.157 49.24C148.037 49.24 147.084 48.8533 146.297 48.08C145.511 47.3067 145.117 46.2267 145.117 44.84C145.117 43.48 145.504 42.42 146.277 41.66C147.064 40.8867 148.024 40.5 149.157 40.5C150.357 40.5 151.304 40.96 151.997 41.88ZM149.317 41.78C148.557 41.78 147.911 42.0533 147.377 42.6C146.857 43.1333 146.597 43.88 146.597 44.84C146.597 45.76 146.837 46.5133 147.317 47.1C147.811 47.6733 148.477 47.96 149.317 47.96C150.157 47.96 150.824 47.66 151.317 47.06C151.824 46.46 152.077 45.7267 152.077 44.86C152.077 43.8733 151.797 43.1133 151.237 42.58C150.677 42.0467 150.037 41.78 149.317 41.78ZM156.165 49V40.7H157.605V44.1H161.525V40.7H162.965V49H161.525V45.42H157.605V49H156.165ZM165.676 49V40.7H167.116V44.1H171.036V40.7H172.476V49H171.036V45.42H167.116V49H165.676ZM175.188 49V40.7H176.628V43.88H178.108C179.255 43.88 180.095 44.1533 180.628 44.7C181.055 45.1267 181.268 45.7067 181.268 46.44C181.268 47.2133 181.021 47.8333 180.528 48.3C180.035 48.7667 179.221 49 178.088 49H175.188ZM176.628 47.72H177.968C178.568 47.72 178.995 47.6467 179.248 47.5C179.608 47.26 179.788 46.9067 179.788 46.44C179.788 45.96 179.615 45.6133 179.268 45.4C179.028 45.24 178.601 45.16 177.988 45.16H176.628V47.72ZM182.268 49V40.7H183.708V49H182.268ZM186.419 40.7H187.859V46.18L193.539 40.06V49H192.099V43.46L186.419 49.58V40.7ZM187.139 37.12L188.339 36.66C188.579 37.46 189.145 37.86 190.039 37.86C190.932 37.86 191.499 37.46 191.739 36.66L192.939 37.12C192.725 37.72 192.359 38.1933 191.839 38.54C191.332 38.8867 190.732 39.06 190.039 39.06C189.345 39.06 188.739 38.8867 188.219 38.54C187.712 38.1933 187.352 37.72 187.139 37.12ZM207.43 41.3V43.02C206.777 42.1933 205.91 41.78 204.83 41.78C204.017 41.78 203.324 42.06 202.75 42.62C202.177 43.1667 201.89 43.92 201.89 44.88C201.89 45.84 202.177 46.5933 202.75 47.14C203.324 47.6867 204.01 47.96 204.81 47.96C205.877 47.96 206.77 47.5267 207.49 46.66V48.38C206.704 48.9533 205.824 49.24 204.85 49.24C203.557 49.24 202.49 48.8333 201.65 48.02C200.824 47.1933 200.41 46.1533 200.41 44.9C200.41 43.6333 200.83 42.5867 201.67 41.76C202.51 40.92 203.57 40.5 204.85 40.5C205.81 40.5 206.67 40.7667 207.43 41.3ZM209.7 40.7H216.38V49H214.94V42.02H211.14V49H209.7V40.7ZM219.094 40.7H220.534V46.18L226.214 40.06V49H224.774V43.46L219.094 49.58V40.7ZM235.438 41.3V43.02C234.785 42.1933 233.918 41.78 232.838 41.78C232.025 41.78 231.331 42.06 230.758 42.62C230.185 43.1667 229.898 43.92 229.898 44.88C229.898 45.84 230.185 46.5933 230.758 47.14C231.331 47.6867 232.018 47.96 232.818 47.96C233.885 47.96 234.778 47.5267 235.498 46.66V48.38C234.711 48.9533 233.831 49.24 232.858 49.24C231.565 49.24 230.498 48.8333 229.658 48.02C228.831 47.1933 228.418 46.1533 228.418 44.9C228.418 43.6333 228.838 42.5867 229.678 41.76C230.518 40.92 231.578 40.5 232.858 40.5C233.818 40.5 234.678 40.7667 235.438 41.3ZM244.513 48C243.686 48.8267 242.639 49.24 241.373 49.24C240.106 49.24 239.053 48.8267 238.213 48C237.386 47.1733 236.973 46.1333 236.973 44.88C236.973 43.6133 237.386 42.5667 238.213 41.74C239.053 40.9133 240.106 40.5 241.373 40.5C242.639 40.5 243.686 40.9133 244.513 41.74C245.353 42.5667 245.773 43.6133 245.773 44.88C245.773 46.1333 245.353 47.1733 244.513 48ZM243.433 42.6C242.873 42.0533 242.186 41.78 241.373 41.78C240.559 41.78 239.866 42.06 239.293 42.62C238.733 43.1667 238.453 43.92 238.453 44.88C238.453 45.84 238.739 46.5933 239.313 47.14C239.886 47.6867 240.573 47.96 241.373 47.96C242.173 47.96 242.859 47.6867 243.433 47.14C244.006 46.5933 244.293 45.84 244.293 44.88C244.293 43.9067 244.006 43.1467 243.433 42.6ZM247.981 40.7H249.421V44.1L252.781 40.7H254.541L250.941 44.4L254.981 49H253.101L249.861 45.36L249.421 45.78V49H247.981V40.7ZM265.047 49V37.06H262.807L263.587 35.66H266.527V49H265.047ZM277.102 53.6L279.742 48.22L275.922 40.7H277.562L280.502 46.64L283.202 40.7H284.802L278.702 53.6H277.102ZM287.761 47.84V53.6H286.321V40.7H287.761V41.86C288.494 40.9533 289.441 40.5 290.601 40.5C291.841 40.5 292.821 40.94 293.541 41.82C294.274 42.6867 294.641 43.7133 294.641 44.9C294.641 46.1 294.281 47.1267 293.561 47.98C292.841 48.82 291.874 49.24 290.661 49.24C289.448 49.24 288.481 48.7733 287.761 47.84ZM290.461 47.96C291.274 47.96 291.928 47.6667 292.421 47.08C292.914 46.48 293.161 45.7533 293.161 44.9C293.161 43.94 292.888 43.18 292.341 42.62C291.794 42.06 291.161 41.78 290.441 41.78C289.721 41.78 289.081 42.06 288.521 42.62C287.961 43.18 287.681 43.9333 287.681 44.88C287.681 45.7467 287.934 46.48 288.441 47.08C288.961 47.6667 289.634 47.96 290.461 47.96ZM303.868 48C303.042 48.8267 301.995 49.24 300.728 49.24C299.462 49.24 298.408 48.8267 297.568 48C296.742 47.1733 296.328 46.1333 296.328 44.88C296.328 43.6133 296.742 42.5667 297.568 41.74C298.408 40.9133 299.462 40.5 300.728 40.5C301.995 40.5 303.042 40.9133 303.868 41.74C304.708 42.5667 305.128 43.6133 305.128 44.88C305.128 46.1333 304.708 47.1733 303.868 48ZM302.788 42.6C302.228 42.0533 301.542 41.78 300.728 41.78C299.915 41.78 299.222 42.06 298.648 42.62C298.088 43.1667 297.808 43.92 297.808 44.88C297.808 45.84 298.095 46.5933 298.668 47.14C299.242 47.6867 299.928 47.96 300.728 47.96C301.528 47.96 302.215 47.6867 302.788 47.14C303.362 46.5933 303.648 45.84 303.648 44.88C303.648 43.9067 303.362 43.1467 302.788 42.6ZM307.337 40.7H310.477C311.237 40.7 311.817 40.86 312.217 41.18C312.697 41.5667 312.937 42.0867 312.937 42.74C312.937 43.46 312.637 44.0133 312.037 44.4C312.45 44.5067 312.797 44.6933 313.077 44.96C313.517 45.3867 313.737 45.92 313.737 46.56C313.737 47.36 313.45 47.9867 312.877 48.44C312.383 48.8133 311.73 49 310.917 49H307.337V40.7ZM308.777 44.08H310.297C310.683 44.08 310.99 44 311.217 43.84C311.483 43.64 311.617 43.3533 311.617 42.98C311.617 42.6467 311.483 42.38 311.217 42.18C311.017 42.0467 310.63 41.98 310.057 41.98H308.777V44.08ZM308.777 47.72H310.557C311.17 47.72 311.603 47.6267 311.857 47.44C312.177 47.2 312.337 46.8933 312.337 46.52C312.337 46.12 312.197 45.8067 311.917 45.58C311.663 45.38 311.23 45.28 310.617 45.28H308.777V47.72ZM315.93 49V40.7H317.37V44.1H321.29V40.7H322.73V49H321.29V45.42H317.37V49H315.93ZM324.482 49L327.062 45.58C326.982 45.58 326.869 45.5667 326.722 45.54C326.589 45.5133 326.389 45.4467 326.122 45.34C325.855 45.2333 325.635 45.0933 325.462 44.92C325.022 44.5067 324.802 43.9533 324.802 43.26C324.802 42.4733 325.049 41.8533 325.542 41.4C326.035 40.9333 326.849 40.7 327.982 40.7H330.882V49H329.442V45.66H328.562L326.202 49H324.482ZM329.442 44.46V41.98H328.102C327.475 41.98 327.042 42.0533 326.802 42.2C326.455 42.4267 326.282 42.7667 326.282 43.22C326.282 43.6733 326.455 44.0067 326.802 44.22C327.055 44.38 327.482 44.46 328.082 44.46H329.442Z" fill="#0B1530"/>
<path d="M20.4 89.38V88.1H33.6V89.38H20.4Z" fill="#0B1530"/>
<path d="M46.36 93V84.7H47.8V88.1H51.72V84.7H53.16V93H51.72V89.42H47.8V93H46.36ZM62.0317 90.22L63.2317 90.88C62.9517 91.4133 62.6117 91.86 62.2117 92.22C61.4517 92.9 60.5317 93.24 59.4517 93.24C58.3317 93.24 57.3651 92.88 56.5517 92.16C55.7517 91.4267 55.3517 90.34 55.3517 88.9C55.3517 87.6333 55.7117 86.5867 56.4317 85.76C57.1651 84.92 58.1451 84.5 59.3717 84.5C60.7584 84.5 61.8051 85.0067 62.5117 86.02C63.0717 86.82 63.3317 87.86 63.2917 89.14H56.8317C56.8451 89.98 57.1051 90.66 57.6117 91.18C58.1184 91.7 58.7384 91.96 59.4717 91.96C60.1251 91.96 60.6917 91.76 61.1717 91.36C61.5451 91.04 61.8317 90.66 62.0317 90.22ZM56.9317 87.94H61.8117C61.6917 87.2867 61.4051 86.7667 60.9517 86.38C60.5117 85.98 59.9851 85.78 59.3717 85.78C58.7717 85.78 58.2384 85.9867 57.7717 86.4C57.3184 86.8 57.0384 87.3133 56.9317 87.94ZM64.5406 93L66.5406 84.06L69.9806 90.82L73.3406 84.06L75.3406 93H73.8606L72.7606 87.86L69.9406 93.58L67.0806 87.86L66.0206 93H64.5406ZM83.4622 85.88V84.7H84.9022V93H83.4622V91.84C82.7422 92.7733 81.7955 93.24 80.6222 93.24C79.5022 93.24 78.5489 92.8533 77.7622 92.08C76.9755 91.3067 76.5822 90.2267 76.5822 88.84C76.5822 87.48 76.9689 86.42 77.7422 85.66C78.5289 84.8867 79.4889 84.5 80.6222 84.5C81.8222 84.5 82.7689 84.96 83.4622 85.88ZM80.7822 85.78C80.0222 85.78 79.3755 86.0533 78.8422 86.6C78.3222 87.1333 78.0622 87.88 78.0622 88.84C78.0622 89.76 78.3022 90.5133 78.7822 91.1C79.2755 91.6733 79.9422 91.96 80.7822 91.96C81.6222 91.96 82.2889 91.66 82.7822 91.06C83.2889 90.46 83.5422 89.7267 83.5422 88.86C83.5422 87.8733 83.2622 87.1133 82.7022 86.58C82.1422 86.0467 81.5022 85.78 80.7822 85.78ZM89.0695 91.84V97.6H87.6295V84.7H89.0695V85.86C89.8029 84.9533 90.7495 84.5 91.9095 84.5C93.1495 84.5 94.1295 84.94 94.8495 85.82C95.5829 86.6867 95.9495 87.7133 95.9495 88.9C95.9495 90.1 95.5895 91.1267 94.8695 91.98C94.1495 92.82 93.1829 93.24 91.9695 93.24C90.7562 93.24 89.7895 92.7733 89.0695 91.84ZM91.7695 91.96C92.5829 91.96 93.2362 91.6667 93.7295 91.08C94.2229 90.48 94.4695 89.7533 94.4695 88.9C94.4695 87.94 94.1962 87.18 93.6495 86.62C93.1029 86.06 92.4695 85.78 91.7495 85.78C91.0295 85.78 90.3895 86.06 89.8295 86.62C89.2695 87.18 88.9895 87.9333 88.9895 88.88C88.9895 89.7467 89.2429 90.48 89.7495 91.08C90.2695 91.6667 90.9429 91.96 91.7695 91.96ZM98.1569 84.7H99.5969V88.1L102.957 84.7H104.717L101.117 88.4L105.157 93H103.277L100.037 89.36L99.5969 89.78V93H98.1569V84.7ZM112.559 90.22L113.759 90.88C113.479 91.4133 113.139 91.86 112.739 92.22C111.979 92.9 111.059 93.24 109.979 93.24C108.859 93.24 107.892 92.88 107.079 92.16C106.279 91.4267 105.879 90.34 105.879 88.9C105.879 87.6333 106.239 86.5867 106.959 85.76C107.692 84.92 108.672 84.5 109.899 84.5C111.286 84.5 112.332 85.0067 113.039 86.02C113.599 86.82 113.859 87.86 113.819 89.14H107.359C107.372 89.98 107.632 90.66 108.139 91.18C108.646 91.7 109.266 91.96 109.999 91.96C110.652 91.96 111.219 91.76 111.699 91.36C112.072 91.04 112.359 90.66 112.559 90.22ZM107.459 87.94H112.339C112.219 87.2867 111.932 86.7667 111.479 86.38C111.039 85.98 110.512 85.78 109.899 85.78C109.299 85.78 108.766 85.9867 108.299 86.4C107.846 86.8 107.566 87.3133 107.459 87.94ZM117.468 91.84V97.6H116.028V84.7H117.468V85.86C118.201 84.9533 119.148 84.5 120.308 84.5C121.548 84.5 122.528 84.94 123.248 85.82C123.981 86.6867 124.348 87.7133 124.348 88.9C124.348 90.1 123.988 91.1267 123.268 91.98C122.548 92.82 121.581 93.24 120.368 93.24C119.155 93.24 118.188 92.7733 117.468 91.84ZM120.168 91.96C120.981 91.96 121.635 91.6667 122.128 91.08C122.621 90.48 122.868 89.7533 122.868 88.9C122.868 87.94 122.595 87.18 122.048 86.62C121.501 86.06 120.868 85.78 120.148 85.78C119.428 85.78 118.788 86.06 118.228 86.62C117.668 87.18 117.388 87.9333 117.388 88.88C117.388 89.7467 117.641 90.48 118.148 91.08C118.668 91.6667 119.341 91.96 120.168 91.96ZM133.575 92C132.749 92.8267 131.702 93.24 130.435 93.24C129.169 93.24 128.115 92.8267 127.275 92C126.449 91.1733 126.035 90.1333 126.035 88.88C126.035 87.6133 126.449 86.5667 127.275 85.74C128.115 84.9133 129.169 84.5 130.435 84.5C131.702 84.5 132.749 84.9133 133.575 85.74C134.415 86.5667 134.835 87.6133 134.835 88.88C134.835 90.1333 134.415 91.1733 133.575 92ZM132.495 86.6C131.935 86.0533 131.249 85.78 130.435 85.78C129.622 85.78 128.929 86.06 128.355 86.62C127.795 87.1667 127.515 87.92 127.515 88.88C127.515 89.84 127.802 90.5933 128.375 91.14C128.949 91.6867 129.635 91.96 130.435 91.96C131.235 91.96 131.922 91.6867 132.495 91.14C133.069 90.5933 133.355 89.84 133.355 88.88C133.355 87.9067 133.069 87.1467 132.495 86.6ZM137.044 84.7H140.184C140.944 84.7 141.524 84.86 141.924 85.18C142.404 85.5667 142.644 86.0867 142.644 86.74C142.644 87.46 142.344 88.0133 141.744 88.4C142.157 88.5067 142.504 88.6933 142.784 88.96C143.224 89.3867 143.444 89.92 143.444 90.56C143.444 91.36 143.157 91.9867 142.584 92.44C142.09 92.8133 141.437 93 140.624 93H137.044V84.7ZM138.484 88.08H140.004C140.39 88.08 140.697 88 140.924 87.84C141.19 87.64 141.324 87.3533 141.324 86.98C141.324 86.6467 141.19 86.38 140.924 86.18C140.724 86.0467 140.337 85.98 139.764 85.98H138.484V88.08ZM138.484 91.72H140.264C140.877 91.72 141.31 91.6267 141.564 91.44C141.884 91.2 142.044 90.8933 142.044 90.52C142.044 90.12 141.904 89.8067 141.624 89.58C141.37 89.38 140.937 89.28 140.324 89.28H138.484V91.72ZM151.997 85.88V84.7H153.437V93H151.997V91.84C151.277 92.7733 150.331 93.24 149.157 93.24C148.037 93.24 147.084 92.8533 146.297 92.08C145.511 91.3067 145.117 90.2267 145.117 88.84C145.117 87.48 145.504 86.42 146.277 85.66C147.064 84.8867 148.024 84.5 149.157 84.5C150.357 84.5 151.304 84.96 151.997 85.88ZM149.317 85.78C148.557 85.78 147.911 86.0533 147.377 86.6C146.857 87.1333 146.597 87.88 146.597 88.84C146.597 89.76 146.837 90.5133 147.317 91.1C147.811 91.6733 148.477 91.96 149.317 91.96C150.157 91.96 150.824 91.66 151.317 91.06C151.824 90.46 152.077 89.7267 152.077 88.86C152.077 87.8733 151.797 87.1133 151.237 86.58C150.677 86.0467 150.037 85.78 149.317 85.78ZM156.165 93V84.7H157.605V88.1H161.525V84.7H162.965V93H161.525V89.42H157.605V93H156.165ZM165.676 93V84.7H167.116V88.1H171.036V84.7H172.476V93H171.036V89.42H167.116V93H165.676ZM175.188 93V84.7H176.628V87.88H178.108C179.255 87.88 180.095 88.1533 180.628 88.7C181.055 89.1267 181.268 89.7067 181.268 90.44C181.268 91.2133 181.021 91.8333 180.528 92.3C180.035 92.7667 179.221 93 178.088 93H175.188ZM176.628 91.72H177.968C178.568 91.72 178.995 91.6467 179.248 91.5C179.608 91.26 179.788 90.9067 179.788 90.44C179.788 89.96 179.615 89.6133 179.268 89.4C179.028 89.24 178.601 89.16 177.988 89.16H176.628V91.72ZM182.268 93V84.7H183.708V93H182.268ZM186.419 84.7H187.859V90.18L193.539 84.06V93H192.099V87.46L186.419 93.58V84.7ZM187.139 81.12L188.339 80.66C188.579 81.46 189.145 81.86 190.039 81.86C190.932 81.86 191.499 81.46 191.739 80.66L192.939 81.12C192.725 81.72 192.359 82.1933 191.839 82.54C191.332 82.8867 190.732 83.06 190.039 83.06C189.345 83.06 188.739 82.8867 188.219 82.54C187.712 82.1933 187.352 81.72 187.139 81.12ZM207.43 85.3V87.02C206.777 86.1933 205.91 85.78 204.83 85.78C204.017 85.78 203.324 86.06 202.75 86.62C202.177 87.1667 201.89 87.92 201.89 88.88C201.89 89.84 202.177 90.5933 202.75 91.14C203.324 91.6867 204.01 91.96 204.81 91.96C205.877 91.96 206.77 91.5267 207.49 90.66V92.38C206.704 92.9533 205.824 93.24 204.85 93.24C203.557 93.24 202.49 92.8333 201.65 92.02C200.824 91.1933 200.41 90.1533 200.41 88.9C200.41 87.6333 200.83 86.5867 201.67 85.76C202.51 84.92 203.57 84.5 204.85 84.5C205.81 84.5 206.67 84.7667 207.43 85.3ZM209.7 84.7H216.38V93H214.94V86.02H211.14V93H209.7V84.7ZM219.094 84.7H220.534V90.18L226.214 84.06V93H224.774V87.46L219.094 93.58V84.7ZM235.438 85.3V87.02C234.785 86.1933 233.918 85.78 232.838 85.78C232.025 85.78 231.331 86.06 230.758 86.62C230.185 87.1667 229.898 87.92 229.898 88.88C229.898 89.84 230.185 90.5933 230.758 91.14C231.331 91.6867 232.018 91.96 232.818 91.96C233.885 91.96 234.778 91.5267 235.498 90.66V92.38C234.711 92.9533 233.831 93.24 232.858 93.24C231.565 93.24 230.498 92.8333 229.658 92.02C228.831 91.1933 228.418 90.1533 228.418 88.9C228.418 87.6333 228.838 86.5867 229.678 85.76C230.518 84.92 231.578 84.5 232.858 84.5C233.818 84.5 234.678 84.7667 235.438 85.3ZM244.513 92C243.686 92.8267 242.639 93.24 241.373 93.24C240.106 93.24 239.053 92.8267 238.213 92C237.386 91.1733 236.973 90.1333 236.973 88.88C236.973 87.6133 237.386 86.5667 238.213 85.74C239.053 84.9133 240.106 84.5 241.373 84.5C242.639 84.5 243.686 84.9133 244.513 85.74C245.353 86.5667 245.773 87.6133 245.773 88.88C245.773 90.1333 245.353 91.1733 244.513 92ZM243.433 86.6C242.873 86.0533 242.186 85.78 241.373 85.78C240.559 85.78 239.866 86.06 239.293 86.62C238.733 87.1667 238.453 87.92 238.453 88.88C238.453 89.84 238.739 90.5933 239.313 91.14C239.886 91.6867 240.573 91.96 241.373 91.96C242.173 91.96 242.859 91.6867 243.433 91.14C244.006 90.5933 244.293 89.84 244.293 88.88C244.293 87.9067 244.006 87.1467 243.433 86.6ZM247.981 84.7H249.421V88.1L252.781 84.7H254.541L250.941 88.4L254.981 93H253.101L249.861 89.36L249.421 89.78V93H247.981V84.7ZM265.047 93V81.06H262.807L263.587 79.66H266.527V93H265.047ZM277.102 97.6L279.742 92.22L275.922 84.7H277.562L280.502 90.64L283.202 84.7H284.802L278.702 97.6H277.102ZM287.761 91.84V97.6H286.321V84.7H287.761V85.86C288.494 84.9533 289.441 84.5 290.601 84.5C291.841 84.5 292.821 84.94 293.541 85.82C294.274 86.6867 294.641 87.7133 294.641 88.9C294.641 90.1 294.281 91.1267 293.561 91.98C292.841 92.82 291.874 93.24 290.661 93.24C289.448 93.24 288.481 92.7733 287.761 91.84ZM290.461 91.96C291.274 91.96 291.928 91.6667 292.421 91.08C292.914 90.48 293.161 89.7533 293.161 88.9C293.161 87.94 292.888 87.18 292.341 86.62C291.794 86.06 291.161 85.78 290.441 85.78C289.721 85.78 289.081 86.06 288.521 86.62C287.961 87.18 287.681 87.9333 287.681 88.88C287.681 89.7467 287.934 90.48 288.441 91.08C288.961 91.6667 289.634 91.96 290.461 91.96ZM303.868 92C303.042 92.8267 301.995 93.24 300.728 93.24C299.462 93.24 298.408 92.8267 297.568 92C296.742 91.1733 296.328 90.1333 296.328 88.88C296.328 87.6133 296.742 86.5667 297.568 85.74C298.408 84.9133 299.462 84.5 300.728 84.5C301.995 84.5 303.042 84.9133 303.868 85.74C304.708 86.5667 305.128 87.6133 305.128 88.88C305.128 90.1333 304.708 91.1733 303.868 92ZM302.788 86.6C302.228 86.0533 301.542 85.78 300.728 85.78C299.915 85.78 299.222 86.06 298.648 86.62C298.088 87.1667 297.808 87.92 297.808 88.88C297.808 89.84 298.095 90.5933 298.668 91.14C299.242 91.6867 299.928 91.96 300.728 91.96C301.528 91.96 302.215 91.6867 302.788 91.14C303.362 90.5933 303.648 89.84 303.648 88.88C303.648 87.9067 303.362 87.1467 302.788 86.6ZM307.337 84.7H310.477C311.237 84.7 311.817 84.86 312.217 85.18C312.697 85.5667 312.937 86.0867 312.937 86.74C312.937 87.46 312.637 88.0133 312.037 88.4C312.45 88.5067 312.797 88.6933 313.077 88.96C313.517 89.3867 313.737 89.92 313.737 90.56C313.737 91.36 313.45 91.9867 312.877 92.44C312.383 92.8133 311.73 93 310.917 93H307.337V84.7ZM308.777 88.08H310.297C310.683 88.08 310.99 88 311.217 87.84C311.483 87.64 311.617 87.3533 311.617 86.98C311.617 86.6467 311.483 86.38 311.217 86.18C311.017 86.0467 310.63 85.98 310.057 85.98H308.777V88.08ZM308.777 91.72H310.557C311.17 91.72 311.603 91.6267 311.857 91.44C312.177 91.2 312.337 90.8933 312.337 90.52C312.337 90.12 312.197 89.8067 311.917 89.58C311.663 89.38 311.23 89.28 310.617 89.28H308.777V91.72ZM315.93 93V84.7H317.37V88.1H321.29V84.7H322.73V93H321.29V89.42H317.37V93H315.93ZM324.482 93L327.062 89.58C326.982 89.58 326.869 89.5667 326.722 89.54C326.589 89.5133 326.389 89.4467 326.122 89.34C325.855 89.2333 325.635 89.0933 325.462 88.92C325.022 88.5067 324.802 87.9533 324.802 87.26C324.802 86.4733 325.049 85.8533 325.542 85.4C326.035 84.9333 326.849 84.7 327.982 84.7H330.882V93H329.442V89.66H328.562L326.202 93H324.482ZM329.442 88.46V85.98H328.102C327.475 85.98 327.042 86.0533 326.802 86.2C326.455 86.4267 326.282 86.7667 326.282 87.22C326.282 87.6733 326.455 88.0067 326.802 88.22C327.055 88.38 327.482 88.46 328.082 88.46H329.442Z" fill="#0B1530"/>
<path d="M60.4 133.38V132.1H73.6V133.38H60.4Z" fill="#0B1530"/>
<path d="M86.36 137V128.7H87.8V132.1H91.72V128.7H93.16V137H91.72V133.42H87.8V137H86.36ZM102.032 134.22L103.232 134.88C102.952 135.413 102.612 135.86 102.212 136.22C101.452 136.9 100.532 137.24 99.4517 137.24C98.3317 137.24 97.3651 136.88 96.5517 136.16C95.7517 135.427 95.3517 134.34 95.3517 132.9C95.3517 131.633 95.7117 130.587 96.4317 129.76C97.1651 128.92 98.1451 128.5 99.3717 128.5C100.758 128.5 101.805 129.007 102.512 130.02C103.072 130.82 103.332 131.86 103.292 133.14H96.8317C96.8451 133.98 97.1051 134.66 97.6117 135.18C98.1184 135.7 98.7384 135.96 99.4717 135.96C100.125 135.96 100.692 135.76 101.172 135.36C101.545 135.04 101.832 134.66 102.032 134.22ZM96.9317 131.94H101.812C101.692 131.287 101.405 130.767 100.952 130.38C100.512 129.98 99.9851 129.78 99.3717 129.78C98.7717 129.78 98.2384 129.987 97.7717 130.4C97.3184 130.8 97.0384 131.313 96.9317 131.94ZM104.541 137L106.541 128.06L109.981 134.82L113.341 128.06L115.341 137H113.861L112.761 131.86L109.941 137.58L107.081 131.86L106.021 137H104.541ZM123.462 129.88V128.7H124.902V137H123.462V135.84C122.742 136.773 121.796 137.24 120.622 137.24C119.502 137.24 118.549 136.853 117.762 136.08C116.976 135.307 116.582 134.227 116.582 132.84C116.582 131.48 116.969 130.42 117.742 129.66C118.529 128.887 119.489 128.5 120.622 128.5C121.822 128.5 122.769 128.96 123.462 129.88ZM120.782 129.78C120.022 129.78 119.376 130.053 118.842 130.6C118.322 131.133 118.062 131.88 118.062 132.84C118.062 133.76 118.302 134.513 118.782 135.1C119.276 135.673 119.942 135.96 120.782 135.96C121.622 135.96 122.289 135.66 122.782 135.06C123.289 134.46 123.542 133.727 123.542 132.86C123.542 131.873 123.262 131.113 122.702 130.58C122.142 130.047 121.502 129.78 120.782 129.78ZM129.07 135.84V141.6H127.63V128.7H129.07V129.86C129.803 128.953 130.75 128.5 131.91 128.5C133.15 128.5 134.13 128.94 134.85 129.82C135.583 130.687 135.95 131.713 135.95 132.9C135.95 134.1 135.59 135.127 134.87 135.98C134.15 136.82 133.183 137.24 131.97 137.24C130.756 137.24 129.79 136.773 129.07 135.84ZM131.77 135.96C132.583 135.96 133.236 135.667 133.73 135.08C134.223 134.48 134.47 133.753 134.47 132.9C134.47 131.94 134.196 131.18 133.65 130.62C133.103 130.06 132.47 129.78 131.75 129.78C131.03 129.78 130.39 130.06 129.83 130.62C129.27 131.18 128.99 131.933 128.99 132.88C128.99 133.747 129.243 134.48 129.75 135.08C130.27 135.667 130.943 135.96 131.77 135.96ZM138.157 128.7H139.597V132.1L142.957 128.7H144.717L141.117 132.4L145.157 137H143.277L140.037 133.36L139.597 133.78V137H138.157V128.7ZM152.559 134.22L153.759 134.88C153.479 135.413 153.139 135.86 152.739 136.22C151.979 136.9 151.059 137.24 149.979 137.24C148.859 137.24 147.892 136.88 147.079 136.16C146.279 135.427 145.879 134.34 145.879 132.9C145.879 131.633 146.239 130.587 146.959 129.76C147.692 128.92 148.672 128.5 149.899 128.5C151.286 128.5 152.332 129.007 153.039 130.02C153.599 130.82 153.859 131.86 153.819 133.14H147.359C147.372 133.98 147.632 134.66 148.139 135.18C148.646 135.7 149.266 135.96 149.999 135.96C150.652 135.96 151.219 135.76 151.699 135.36C152.072 135.04 152.359 134.66 152.559 134.22ZM147.459 131.94H152.339C152.219 131.287 151.932 130.767 151.479 130.38C151.039 129.98 150.512 129.78 149.899 129.78C149.299 129.78 148.766 129.987 148.299 130.4C147.846 130.8 147.566 131.313 147.459 131.94ZM157.468 135.84V141.6H156.028V128.7H157.468V129.86C158.201 128.953 159.148 128.5 160.308 128.5C161.548 128.5 162.528 128.94 163.248 129.82C163.981 130.687 164.348 131.713 164.348 132.9C164.348 134.1 163.988 135.127 163.268 135.98C162.548 136.82 161.581 137.24 160.368 137.24C159.155 137.24 158.188 136.773 157.468 135.84ZM160.168 135.96C160.981 135.96 161.635 135.667 162.128 135.08C162.621 134.48 162.868 133.753 162.868 132.9C162.868 131.94 162.595 131.18 162.048 130.62C161.501 130.06 160.868 129.78 160.148 129.78C159.428 129.78 158.788 130.06 158.228 130.62C157.668 131.18 157.388 131.933 157.388 132.88C157.388 133.747 157.641 134.48 158.148 135.08C158.668 135.667 159.341 135.96 160.168 135.96ZM173.575 136C172.749 136.827 171.702 137.24 170.435 137.24C169.169 137.24 168.115 136.827 167.275 136C166.449 135.173 166.035 134.133 166.035 132.88C166.035 131.613 166.449 130.567 167.275 129.74C168.115 128.913 169.169 128.5 170.435 128.5C171.702 128.5 172.749 128.913 173.575 129.74C174.415 130.567 174.835 131.613 174.835 132.88C174.835 134.133 174.415 135.173 173.575 136ZM172.495 130.6C171.935 130.053 171.249 129.78 170.435 129.78C169.622 129.78 168.929 130.06 168.355 130.62C167.795 131.167 167.515 131.92 167.515 132.88C167.515 133.84 167.802 134.593 168.375 135.14C168.949 135.687 169.635 135.96 170.435 135.96C171.235 135.96 171.922 135.687 172.495 135.14C173.069 134.593 173.355 133.84 173.355 132.88C173.355 131.907 173.069 131.147 172.495 130.6ZM177.044 128.7H180.184C180.944 128.7 181.524 128.86 181.924 129.18C182.404 129.567 182.644 130.087 182.644 130.74C182.644 131.46 182.344 132.013 181.744 132.4C182.157 132.507 182.504 132.693 182.784 132.96C183.224 133.387 183.444 133.92 183.444 134.56C183.444 135.36 183.157 135.987 182.584 136.44C182.09 136.813 181.437 137 180.624 137H177.044V128.7ZM178.484 132.08H180.004C180.39 132.08 180.697 132 180.924 131.84C181.19 131.64 181.324 131.353 181.324 130.98C181.324 130.647 181.19 130.38 180.924 130.18C180.724 130.047 180.337 129.98 179.764 129.98H178.484V132.08ZM178.484 135.72H180.264C180.877 135.72 181.31 135.627 181.564 135.44C181.884 135.2 182.044 134.893 182.044 134.52C182.044 134.12 181.904 133.807 181.624 133.58C181.37 133.38 180.937 133.28 180.324 133.28H178.484V135.72ZM191.997 129.88V128.7H193.437V137H191.997V135.84C191.277 136.773 190.331 137.24 189.157 137.24C188.037 137.24 187.084 136.853 186.297 136.08C185.511 135.307 185.117 134.227 185.117 132.84C185.117 131.48 185.504 130.42 186.277 129.66C187.064 128.887 188.024 128.5 189.157 128.5C190.357 128.5 191.304 128.96 191.997 129.88ZM189.317 129.78C188.557 129.78 187.911 130.053 187.377 130.6C186.857 131.133 186.597 131.88 186.597 132.84C186.597 133.76 186.837 134.513 187.317 135.1C187.811 135.673 188.477 135.96 189.317 135.96C190.157 135.96 190.824 135.66 191.317 135.06C191.824 134.46 192.077 133.727 192.077 132.86C192.077 131.873 191.797 131.113 191.237 130.58C190.677 130.047 190.037 129.78 189.317 129.78ZM196.165 137V128.7H197.605V132.1H201.525V128.7H202.965V137H201.525V133.42H197.605V137H196.165ZM205.676 137V128.7H207.116V132.1H211.036V128.7H212.476V137H211.036V133.42H207.116V137H205.676ZM215.188 137V128.7H216.628V131.88H218.108C219.255 131.88 220.095 132.153 220.628 132.7C221.055 133.127 221.268 133.707 221.268 134.44C221.268 135.213 221.021 135.833 220.528 136.3C220.035 136.767 219.221 137 218.088 137H215.188ZM216.628 135.72H217.968C218.568 135.72 218.995 135.647 219.248 135.5C219.608 135.26 219.788 134.907 219.788 134.44C219.788 133.96 219.615 133.613 219.268 133.4C219.028 133.24 218.601 133.16 217.988 133.16H216.628V135.72ZM222.268 137V128.7H223.708V137H222.268ZM226.419 128.7H227.859V134.18L233.539 128.06V137H232.099V131.46L226.419 137.58V128.7ZM227.139 125.12L228.339 124.66C228.579 125.46 229.145 125.86 230.039 125.86C230.932 125.86 231.499 125.46 231.739 124.66L232.939 125.12C232.725 125.72 232.359 126.193 231.839 126.54C231.332 126.887 230.732 127.06 230.039 127.06C229.345 127.06 228.739 126.887 228.219 126.54C227.712 126.193 227.352 125.72 227.139 125.12ZM247.43 129.3V131.02C246.777 130.193 245.91 129.78 244.83 129.78C244.017 129.78 243.324 130.06 242.75 130.62C242.177 131.167 241.89 131.92 241.89 132.88C241.89 133.84 242.177 134.593 242.75 135.14C243.324 135.687 244.01 135.96 244.81 135.96C245.877 135.96 246.77 135.527 247.49 134.66V136.38C246.704 136.953 245.824 137.24 244.85 137.24C243.557 137.24 242.49 136.833 241.65 136.02C240.824 135.193 240.41 134.153 240.41 132.9C240.41 131.633 240.83 130.587 241.67 129.76C242.51 128.92 243.57 128.5 244.85 128.5C245.81 128.5 246.67 128.767 247.43 129.3ZM249.7 128.7H256.38V137H254.94V130.02H251.14V137H249.7V128.7ZM259.094 128.7H260.534V134.18L266.214 128.06V137H264.774V131.46L259.094 137.58V128.7ZM275.438 129.3V131.02C274.785 130.193 273.918 129.78 272.838 129.78C272.025 129.78 271.331 130.06 270.758 130.62C270.185 131.167 269.898 131.92 269.898 132.88C269.898 133.84 270.185 134.593 270.758 135.14C271.331 135.687 272.018 135.96 272.818 135.96C273.885 135.96 274.778 135.527 275.498 134.66V136.38C274.711 136.953 273.831 137.24 272.858 137.24C271.565 137.24 270.498 136.833 269.658 136.02C268.831 135.193 268.418 134.153 268.418 132.9C268.418 131.633 268.838 130.587 269.678 129.76C270.518 128.92 271.578 128.5 272.858 128.5C273.818 128.5 274.678 128.767 275.438 129.3ZM284.513 136C283.686 136.827 282.639 137.24 281.373 137.24C280.106 137.24 279.053 136.827 278.213 136C277.386 135.173 276.973 134.133 276.973 132.88C276.973 131.613 277.386 130.567 278.213 129.74C279.053 128.913 280.106 128.5 281.373 128.5C282.639 128.5 283.686 128.913 284.513 129.74C285.353 130.567 285.773 131.613 285.773 132.88C285.773 134.133 285.353 135.173 284.513 136ZM283.433 130.6C282.873 130.053 282.186 129.78 281.373 129.78C280.559 129.78 279.866 130.06 279.293 130.62C278.733 131.167 278.453 131.92 278.453 132.88C278.453 133.84 278.739 134.593 279.313 135.14C279.886 135.687 280.573 135.96 281.373 135.96C282.173 135.96 282.859 135.687 283.433 135.14C284.006 134.593 284.293 133.84 284.293 132.88C284.293 131.907 284.006 131.147 283.433 130.6ZM287.981 128.7H289.421V132.1L292.781 128.7H294.541L290.941 132.4L294.981 137H293.101L289.861 133.36L289.421 133.78V137H287.981V128.7ZM309.347 137H300.727L305.587 131.38C306.413 130.407 306.933 129.76 307.147 129.44C307.64 128.733 307.887 128.053 307.887 127.4C307.887 126.64 307.64 126.02 307.147 125.54C306.653 125.047 306.013 124.8 305.227 124.8C304.267 124.8 303.527 125.193 303.007 125.98C302.727 126.407 302.58 126.933 302.567 127.56H301.087C301.14 126.427 301.473 125.507 302.087 124.8C302.887 123.893 303.94 123.44 305.247 123.44C306.433 123.44 307.413 123.82 308.187 124.58C308.973 125.327 309.367 126.273 309.367 127.42C309.367 128.313 309.013 129.267 308.307 130.28C307.947 130.773 307.34 131.513 306.487 132.5L303.707 135.64H309.347V137ZM317.102 141.6L319.742 136.22L315.922 128.7H317.562L320.502 134.64L323.202 128.7H324.802L318.702 141.6H317.102ZM327.761 135.84V141.6H326.321V128.7H327.761V129.86C328.494 128.953 329.441 128.5 330.601 128.5C331.841 128.5 332.821 128.94 333.541 129.82C334.274 130.687 334.641 131.713 334.641 132.9C334.641 134.1 334.281 135.127 333.561 135.98C332.841 136.82 331.874 137.24 330.661 137.24C329.448 137.24 328.481 136.773 327.761 135.84ZM330.461 135.96C331.274 135.96 331.928 135.667 332.421 135.08C332.914 134.48 333.161 133.753 333.161 132.9C333.161 131.94 332.888 131.18 332.341 130.62C331.794 130.06 331.161 129.78 330.441 129.78C329.721 129.78 329.081 130.06 328.521 130.62C327.961 131.18 327.681 131.933 327.681 132.88C327.681 133.747 327.934 134.48 328.441 135.08C328.961 135.667 329.634 135.96 330.461 135.96ZM343.868 136C343.042 136.827 341.995 137.24 340.728 137.24C339.462 137.24 338.408 136.827 337.568 136C336.742 135.173 336.328 134.133 336.328 132.88C336.328 131.613 336.742 130.567 337.568 129.74C338.408 128.913 339.462 128.5 340.728 128.5C341.995 128.5 343.042 128.913 343.868 129.74C344.708 130.567 345.128 131.613 345.128 132.88C345.128 134.133 344.708 135.173 343.868 136ZM342.788 130.6C342.228 130.053 341.542 129.78 340.728 129.78C339.915 129.78 339.222 130.06 338.648 130.62C338.088 131.167 337.808 131.92 337.808 132.88C337.808 133.84 338.095 134.593 338.668 135.14C339.242 135.687 339.928 135.96 340.728 135.96C341.528 135.96 342.215 135.687 342.788 135.14C343.362 134.593 343.648 133.84 343.648 132.88C343.648 131.907 343.362 131.147 342.788 130.6ZM347.337 128.7H350.477C351.237 128.7 351.817 128.86 352.217 129.18C352.697 129.567 352.937 130.087 352.937 130.74C352.937 131.46 352.637 132.013 352.037 132.4C352.45 132.507 352.797 132.693 353.077 132.96C353.517 133.387 353.737 133.92 353.737 134.56C353.737 135.36 353.45 135.987 352.877 136.44C352.383 136.813 351.73 137 350.917 137H347.337V128.7ZM348.777 132.08H350.297C350.683 132.08 350.99 132 351.217 131.84C351.483 131.64 351.617 131.353 351.617 130.98C351.617 130.647 351.483 130.38 351.217 130.18C351.017 130.047 350.63 129.98 350.057 129.98H348.777V132.08ZM348.777 135.72H350.557C351.17 135.72 351.603 135.627 351.857 135.44C352.177 135.2 352.337 134.893 352.337 134.52C352.337 134.12 352.197 133.807 351.917 133.58C351.663 133.38 351.23 133.28 350.617 133.28H348.777V135.72ZM355.93 137V128.7H357.37V132.1H361.29V128.7H362.73V137H361.29V133.42H357.37V137H355.93ZM364.482 137L367.062 133.58C366.982 133.58 366.869 133.567 366.722 133.54C366.589 133.513 366.389 133.447 366.122 133.34C365.855 133.233 365.635 133.093 365.462 132.92C365.022 132.507 364.802 131.953 364.802 131.26C364.802 130.473 365.049 129.853 365.542 129.4C366.035 128.933 366.849 128.7 367.982 128.7H370.882V137H369.442V133.66H368.562L366.202 137H364.482ZM369.442 132.46V129.98H368.102C367.475 129.98 367.042 130.053 366.802 130.2C366.455 130.427 366.282 130.767 366.282 131.22C366.282 131.673 366.455 132.007 366.802 132.22C367.055 132.38 367.482 132.46 368.082 132.46H369.442Z" fill="#0B1530"/>
<path d="M60.4 177.38V176.1H73.6V177.38H60.4Z" fill="#0B1530"/>
<path d="M86.36 181V172.7H87.8V176.1H91.72V172.7H93.16V181H91.72V177.42H87.8V181H86.36ZM102.032 178.22L103.232 178.88C102.952 179.413 102.612 179.86 102.212 180.22C101.452 180.9 100.532 181.24 99.4517 181.24C98.3317 181.24 97.3651 180.88 96.5517 180.16C95.7517 179.427 95.3517 178.34 95.3517 176.9C95.3517 175.633 95.7117 174.587 96.4317 173.76C97.1651 172.92 98.1451 172.5 99.3717 172.5C100.758 172.5 101.805 173.007 102.512 174.02C103.072 174.82 103.332 175.86 103.292 177.14H96.8317C96.8451 177.98 97.1051 178.66 97.6117 179.18C98.1184 179.7 98.7384 179.96 99.4717 179.96C100.125 179.96 100.692 179.76 101.172 179.36C101.545 179.04 101.832 178.66 102.032 178.22ZM96.9317 175.94H101.812C101.692 175.287 101.405 174.767 100.952 174.38C100.512 173.98 99.9851 173.78 99.3717 173.78C98.7717 173.78 98.2384 173.987 97.7717 174.4C97.3184 174.8 97.0384 175.313 96.9317 175.94ZM104.541 181L106.541 172.06L109.981 178.82L113.341 172.06L115.341 181H113.861L112.761 175.86L109.941 181.58L107.081 175.86L106.021 181H104.541ZM123.462 173.88V172.7H124.902V181H123.462V179.84C122.742 180.773 121.796 181.24 120.622 181.24C119.502 181.24 118.549 180.853 117.762 180.08C116.976 179.307 116.582 178.227 116.582 176.84C116.582 175.48 116.969 174.42 117.742 173.66C118.529 172.887 119.489 172.5 120.622 172.5C121.822 172.5 122.769 172.96 123.462 173.88ZM120.782 173.78C120.022 173.78 119.376 174.053 118.842 174.6C118.322 175.133 118.062 175.88 118.062 176.84C118.062 177.76 118.302 178.513 118.782 179.1C119.276 179.673 119.942 179.96 120.782 179.96C121.622 179.96 122.289 179.66 122.782 179.06C123.289 178.46 123.542 177.727 123.542 176.86C123.542 175.873 123.262 175.113 122.702 174.58C122.142 174.047 121.502 173.78 120.782 173.78ZM129.07 179.84V185.6H127.63V172.7H129.07V173.86C129.803 172.953 130.75 172.5 131.91 172.5C133.15 172.5 134.13 172.94 134.85 173.82C135.583 174.687 135.95 175.713 135.95 176.9C135.95 178.1 135.59 179.127 134.87 179.98C134.15 180.82 133.183 181.24 131.97 181.24C130.756 181.24 129.79 180.773 129.07 179.84ZM131.77 179.96C132.583 179.96 133.236 179.667 133.73 179.08C134.223 178.48 134.47 177.753 134.47 176.9C134.47 175.94 134.196 175.18 133.65 174.62C133.103 174.06 132.47 173.78 131.75 173.78C131.03 173.78 130.39 174.06 129.83 174.62C129.27 175.18 128.99 175.933 128.99 176.88C128.99 177.747 129.243 178.48 129.75 179.08C130.27 179.667 130.943 179.96 131.77 179.96ZM138.157 172.7H139.597V176.1L142.957 172.7H144.717L141.117 176.4L145.157 181H143.277L140.037 177.36L139.597 177.78V181H138.157V172.7ZM152.559 178.22L153.759 178.88C153.479 179.413 153.139 179.86 152.739 180.22C151.979 180.9 151.059 181.24 149.979 181.24C148.859 181.24 147.892 180.88 147.079 180.16C146.279 179.427 145.879 178.34 145.879 176.9C145.879 175.633 146.239 174.587 146.959 173.76C147.692 172.92 148.672 172.5 149.899 172.5C151.286 172.5 152.332 173.007 153.039 174.02C153.599 174.82 153.859 175.86 153.819 177.14H147.359C147.372 177.98 147.632 178.66 148.139 179.18C148.646 179.7 149.266 179.96 149.999 179.96C150.652 179.96 151.219 179.76 151.699 179.36C152.072 179.04 152.359 178.66 152.559 178.22ZM147.459 175.94H152.339C152.219 175.287 151.932 174.767 151.479 174.38C151.039 173.98 150.512 173.78 149.899 173.78C149.299 173.78 148.766 173.987 148.299 174.4C147.846 174.8 147.566 175.313 147.459 175.94ZM157.468 179.84V185.6H156.028V172.7H157.468V173.86C158.201 172.953 159.148 172.5 160.308 172.5C161.548 172.5 162.528 172.94 163.248 173.82C163.981 174.687 164.348 175.713 164.348 176.9C164.348 178.1 163.988 179.127 163.268 179.98C162.548 180.82 161.581 181.24 160.368 181.24C159.155 181.24 158.188 180.773 157.468 179.84ZM160.168 179.96C160.981 179.96 161.635 179.667 162.128 179.08C162.621 178.48 162.868 177.753 162.868 176.9C162.868 175.94 162.595 175.18 162.048 174.62C161.501 174.06 160.868 173.78 160.148 173.78C159.428 173.78 158.788 174.06 158.228 174.62C157.668 175.18 157.388 175.933 157.388 176.88C157.388 177.747 157.641 178.48 158.148 179.08C158.668 179.667 159.341 179.96 160.168 179.96ZM173.575 180C172.749 180.827 171.702 181.24 170.435 181.24C169.169 181.24 168.115 180.827 167.275 180C166.449 179.173 166.035 178.133 166.035 176.88C166.035 175.613 166.449 174.567 167.275 173.74C168.115 172.913 169.169 172.5 170.435 172.5C171.702 172.5 172.749 172.913 173.575 173.74C174.415 174.567 174.835 175.613 174.835 176.88C174.835 178.133 174.415 179.173 173.575 180ZM172.495 174.6C171.935 174.053 171.249 173.78 170.435 173.78C169.622 173.78 168.929 174.06 168.355 174.62C167.795 175.167 167.515 175.92 167.515 176.88C167.515 177.84 167.802 178.593 168.375 179.14C168.949 179.687 169.635 179.96 170.435 179.96C171.235 179.96 171.922 179.687 172.495 179.14C173.069 178.593 173.355 177.84 173.355 176.88C173.355 175.907 173.069 175.147 172.495 174.6ZM177.044 172.7H180.184C180.944 172.7 181.524 172.86 181.924 173.18C182.404 173.567 182.644 174.087 182.644 174.74C182.644 175.46 182.344 176.013 181.744 176.4C182.157 176.507 182.504 176.693 182.784 176.96C183.224 177.387 183.444 177.92 183.444 178.56C183.444 179.36 183.157 179.987 182.584 180.44C182.09 180.813 181.437 181 180.624 181H177.044V172.7ZM178.484 176.08H180.004C180.39 176.08 180.697 176 180.924 175.84C181.19 175.64 181.324 175.353 181.324 174.98C181.324 174.647 181.19 174.38 180.924 174.18C180.724 174.047 180.337 173.98 179.764 173.98H178.484V176.08ZM178.484 179.72H180.264C180.877 179.72 181.31 179.627 181.564 179.44C181.884 179.2 182.044 178.893 182.044 178.52C182.044 178.12 181.904 177.807 181.624 177.58C181.37 177.38 180.937 177.28 180.324 177.28H178.484V179.72ZM191.997 173.88V172.7H193.437V181H191.997V179.84C191.277 180.773 190.331 181.24 189.157 181.24C188.037 181.24 187.084 180.853 186.297 180.08C185.511 179.307 185.117 178.227 185.117 176.84C185.117 175.48 185.504 174.42 186.277 173.66C187.064 172.887 188.024 172.5 189.157 172.5C190.357 172.5 191.304 172.96 191.997 173.88ZM189.317 173.78C188.557 173.78 187.911 174.053 187.377 174.6C186.857 175.133 186.597 175.88 186.597 176.84C186.597 177.76 186.837 178.513 187.317 179.1C187.811 179.673 188.477 179.96 189.317 179.96C190.157 179.96 190.824 179.66 191.317 179.06C191.824 178.46 192.077 177.727 192.077 176.86C192.077 175.873 191.797 175.113 191.237 174.58C190.677 174.047 190.037 173.78 189.317 173.78ZM196.165 181V172.7H197.605V176.1H201.525V172.7H202.965V181H201.525V177.42H197.605V181H196.165ZM205.676 181V172.7H207.116V176.1H211.036V172.7H212.476V181H211.036V177.42H207.116V181H205.676ZM215.188 181V172.7H216.628V175.88H218.108C219.255 175.88 220.095 176.153 220.628 176.7C221.055 177.127 221.268 177.707 221.268 178.44C221.268 179.213 221.021 179.833 220.528 180.3C220.035 180.767 219.221 181 218.088 181H215.188ZM216.628 179.72H217.968C218.568 179.72 218.995 179.647 219.248 179.5C219.608 179.26 219.788 178.907 219.788 178.44C219.788 177.96 219.615 177.613 219.268 177.4C219.028 177.24 218.601 177.16 217.988 177.16H216.628V179.72ZM222.268 181V172.7H223.708V181H222.268ZM226.419 172.7H227.859V178.18L233.539 172.06V181H232.099V175.46L226.419 181.58V172.7ZM227.139 169.12L228.339 168.66C228.579 169.46 229.145 169.86 230.039 169.86C230.932 169.86 231.499 169.46 231.739 168.66L232.939 169.12C232.725 169.72 232.359 170.193 231.839 170.54C231.332 170.887 230.732 171.06 230.039 171.06C229.345 171.06 228.739 170.887 228.219 170.54C227.712 170.193 227.352 169.72 227.139 169.12ZM247.43 173.3V175.02C246.777 174.193 245.91 173.78 244.83 173.78C244.017 173.78 243.324 174.06 242.75 174.62C242.177 175.167 241.89 175.92 241.89 176.88C241.89 177.84 242.177 178.593 242.75 179.14C243.324 179.687 244.01 179.96 244.81 179.96C245.877 179.96 246.77 179.527 247.49 178.66V180.38C246.704 180.953 245.824 181.24 244.85 181.24C243.557 181.24 242.49 180.833 241.65 180.02C240.824 179.193 240.41 178.153 240.41 176.9C240.41 175.633 240.83 174.587 241.67 173.76C242.51 172.92 243.57 172.5 244.85 172.5C245.81 172.5 246.67 172.767 247.43 173.3ZM249.7 172.7H256.38V181H254.94V174.02H251.14V181H249.7V172.7ZM259.094 172.7H260.534V178.18L266.214 172.06V181H264.774V175.46L259.094 181.58V172.7ZM275.438 173.3V175.02C274.785 174.193 273.918 173.78 272.838 173.78C272.025 173.78 271.331 174.06 270.758 174.62C270.185 175.167 269.898 175.92 269.898 176.88C269.898 177.84 270.185 178.593 270.758 179.14C271.331 179.687 272.018 179.96 272.818 179.96C273.885 179.96 274.778 179.527 275.498 178.66V180.38C274.711 180.953 273.831 181.24 272.858 181.24C271.565 181.24 270.498 180.833 269.658 180.02C268.831 179.193 268.418 178.153 268.418 176.9C268.418 175.633 268.838 174.587 269.678 173.76C270.518 172.92 271.578 172.5 272.858 172.5C273.818 172.5 274.678 172.767 275.438 173.3ZM284.513 180C283.686 180.827 282.639 181.24 281.373 181.24C280.106 181.24 279.053 180.827 278.213 180C277.386 179.173 276.973 178.133 276.973 176.88C276.973 175.613 277.386 174.567 278.213 173.74C279.053 172.913 280.106 172.5 281.373 172.5C282.639 172.5 283.686 172.913 284.513 173.74C285.353 174.567 285.773 175.613 285.773 176.88C285.773 178.133 285.353 179.173 284.513 180ZM283.433 174.6C282.873 174.053 282.186 173.78 281.373 173.78C280.559 173.78 279.866 174.06 279.293 174.62C278.733 175.167 278.453 175.92 278.453 176.88C278.453 177.84 278.739 178.593 279.313 179.14C279.886 179.687 280.573 179.96 281.373 179.96C282.173 179.96 282.859 179.687 283.433 179.14C284.006 178.593 284.293 177.84 284.293 176.88C284.293 175.907 284.006 175.147 283.433 174.6ZM287.981 172.7H289.421V176.1L292.781 172.7H294.541L290.941 176.4L294.981 181H293.101L289.861 177.36L289.421 177.78V181H287.981V172.7ZM309.347 181H300.727L305.587 175.38C306.413 174.407 306.933 173.76 307.147 173.44C307.64 172.733 307.887 172.053 307.887 171.4C307.887 170.64 307.64 170.02 307.147 169.54C306.653 169.047 306.013 168.8 305.227 168.8C304.267 168.8 303.527 169.193 303.007 169.98C302.727 170.407 302.58 170.933 302.567 171.56H301.087C301.14 170.427 301.473 169.507 302.087 168.8C302.887 167.893 303.94 167.44 305.247 167.44C306.433 167.44 307.413 167.82 308.187 168.58C308.973 169.327 309.367 170.273 309.367 171.42C309.367 172.313 309.013 173.267 308.307 174.28C307.947 174.773 307.34 175.513 306.487 176.5L303.707 179.64H309.347V181ZM317.102 185.6L319.742 180.22L315.922 172.7H317.562L320.502 178.64L323.202 172.7H324.802L318.702 185.6H317.102ZM327.761 179.84V185.6H326.321V172.7H327.761V173.86C328.494 172.953 329.441 172.5 330.601 172.5C331.841 172.5 332.821 172.94 333.541 173.82C334.274 174.687 334.641 175.713 334.641 176.9C334.641 178.1 334.281 179.127 333.561 179.98C332.841 180.82 331.874 181.24 330.661 181.24C329.448 181.24 328.481 180.773 327.761 179.84ZM330.461 179.96C331.274 179.96 331.928 179.667 332.421 179.08C332.914 178.48 333.161 177.753 333.161 176.9C333.161 175.94 332.888 175.18 332.341 174.62C331.794 174.06 331.161 173.78 330.441 173.78C329.721 173.78 329.081 174.06 328.521 174.62C327.961 175.18 327.681 175.933 327.681 176.88C327.681 177.747 327.934 178.48 328.441 179.08C328.961 179.667 329.634 179.96 330.461 179.96ZM343.868 180C343.042 180.827 341.995 181.24 340.728 181.24C339.462 181.24 338.408 180.827 337.568 180C336.742 179.173 336.328 178.133 336.328 176.88C336.328 175.613 336.742 174.567 337.568 173.74C338.408 172.913 339.462 172.5 340.728 172.5C341.995 172.5 343.042 172.913 343.868 173.74C344.708 174.567 345.128 175.613 345.128 176.88C345.128 178.133 344.708 179.173 343.868 180ZM342.788 174.6C342.228 174.053 341.542 173.78 340.728 173.78C339.915 173.78 339.222 174.06 338.648 174.62C338.088 175.167 337.808 175.92 337.808 176.88C337.808 177.84 338.095 178.593 338.668 179.14C339.242 179.687 339.928 179.96 340.728 179.96C341.528 179.96 342.215 179.687 342.788 179.14C343.362 178.593 343.648 177.84 343.648 176.88C343.648 175.907 343.362 175.147 342.788 174.6ZM347.337 172.7H350.477C351.237 172.7 351.817 172.86 352.217 173.18C352.697 173.567 352.937 174.087 352.937 174.74C352.937 175.46 352.637 176.013 352.037 176.4C352.45 176.507 352.797 176.693 353.077 176.96C353.517 177.387 353.737 177.92 353.737 178.56C353.737 179.36 353.45 179.987 352.877 180.44C352.383 180.813 351.73 181 350.917 181H347.337V172.7ZM348.777 176.08H350.297C350.683 176.08 350.99 176 351.217 175.84C351.483 175.64 351.617 175.353 351.617 174.98C351.617 174.647 351.483 174.38 351.217 174.18C351.017 174.047 350.63 173.98 350.057 173.98H348.777V176.08ZM348.777 179.72H350.557C351.17 179.72 351.603 179.627 351.857 179.44C352.177 179.2 352.337 178.893 352.337 178.52C352.337 178.12 352.197 177.807 351.917 177.58C351.663 177.38 351.23 177.28 350.617 177.28H348.777V179.72ZM355.93 181V172.7H357.37V176.1H361.29V172.7H362.73V181H361.29V177.42H357.37V181H355.93ZM364.482 181L367.062 177.58C366.982 177.58 366.869 177.567 366.722 177.54C366.589 177.513 366.389 177.447 366.122 177.34C365.855 177.233 365.635 177.093 365.462 176.92C365.022 176.507 364.802 175.953 364.802 175.26C364.802 174.473 365.049 173.853 365.542 173.4C366.035 172.933 366.849 172.7 367.982 172.7H370.882V181H369.442V177.66H368.562L366.202 181H364.482ZM369.442 176.46V173.98H368.102C367.475 173.98 367.042 174.053 366.802 174.2C366.455 174.427 366.282 174.767 366.282 175.22C366.282 175.673 366.455 176.007 366.802 176.22C367.055 176.38 367.482 176.46 368.082 176.46H369.442Z" fill="#0B1530"/>
<path d="M336 55L336 74.2308" stroke="#33F7C3" stroke-width="2"/>
<path d="M336 75L340 71.9231" stroke="#33F7C3" stroke-width="2" stroke-linecap="round"/>
<path d="M336 75L332 71.9231" stroke="#33F7C3" stroke-width="2" stroke-linecap="round"/>
<path d="M336 55.002L332 58.0789" stroke="#33F7C3" stroke-width="2" stroke-linecap="round"/>
<path d="M336 55.002L340 58.0789" stroke="#33F7C3" stroke-width="2" stroke-linecap="round"/>
<rect x="343.75" y="54.7504" width="43.9061" height="20.7027" rx="3.75176" fill="#33F7C3"/>
<rect x="343.75" y="54.7504" width="43.9061" height="20.7027" rx="3.75176" stroke="#33F7C3" stroke-width="1.5007"/>
<path d="M350.911 69.6016V68.2714L354.019 65.3936C354.283 65.1378 354.505 64.9076 354.684 64.703C354.866 64.4983 355.004 64.2979 355.098 64.1018C355.192 63.9029 355.238 63.6883 355.238 63.4581C355.238 63.2023 355.18 62.982 355.064 62.7972C354.947 62.6096 354.788 62.4661 354.586 62.3666C354.384 62.2643 354.156 62.2132 353.9 62.2132C353.633 62.2132 353.399 62.2672 353.201 62.3752C353.002 62.4832 352.848 62.6381 352.74 62.8399C352.632 63.0417 352.578 63.2818 352.578 63.5604H350.826C350.826 62.9891 350.955 62.4931 351.214 62.0725C351.472 61.6518 351.835 61.3264 352.301 61.0962C352.767 60.8659 353.304 60.7508 353.912 60.7508C354.538 60.7508 355.082 60.8617 355.545 61.0834C356.011 61.3022 356.374 61.6063 356.633 61.9957C356.891 62.3851 357.02 62.8313 357.02 63.3344C357.02 63.6641 356.955 63.9896 356.824 64.3107C356.696 64.6319 356.468 64.9886 356.138 65.3808C355.808 65.7702 355.344 66.2378 354.744 66.7835L353.469 68.0326V68.0923H357.136V69.6016H350.911ZM361.897 69.7934C361.163 69.7906 360.532 69.6101 360.004 69.252C359.478 68.8938 359.073 68.3751 358.789 67.6958C358.507 67.0165 358.368 66.1994 358.371 65.2444C358.371 64.2923 358.512 63.4808 358.793 62.81C359.077 62.1393 359.482 61.6291 360.008 61.2795C360.537 60.927 361.166 60.7508 361.897 60.7508C362.627 60.7508 363.255 60.927 363.781 61.2795C364.31 61.6319 364.716 62.1435 365 62.8143C365.285 63.4822 365.425 64.2923 365.423 65.2444C365.423 66.2022 365.28 67.0208 364.996 67.7001C364.715 68.3794 364.311 68.8981 363.785 69.2562C363.26 69.6144 362.63 69.7934 361.897 69.7934ZM361.897 68.2629C362.397 68.2629 362.796 68.0113 363.095 67.5083C363.393 67.0052 363.541 66.2506 363.538 65.2444C363.538 64.5822 363.47 64.0308 363.333 63.5902C363.2 63.1497 363.009 62.8186 362.762 62.5969C362.518 62.3752 362.229 62.2643 361.897 62.2643C361.399 62.2643 361.001 62.513 360.703 63.0104C360.405 63.5078 360.254 64.2525 360.251 65.2444C360.251 65.9152 360.318 66.4751 360.451 66.9242C360.588 67.3704 360.78 67.7058 361.027 67.9303C361.274 68.152 361.564 68.2629 361.897 68.2629ZM366.756 72.0573V63.053H368.546V64.153H368.627C368.707 63.9768 368.822 63.7977 368.973 63.6158C369.126 63.4311 369.325 63.2776 369.57 63.1554C369.817 63.0303 370.124 62.9678 370.491 62.9678C370.968 62.9678 371.409 63.0928 371.812 63.3429C372.216 63.5902 372.538 63.964 372.78 64.4642C373.022 64.9616 373.142 65.5855 373.142 66.3358C373.142 67.0663 373.024 67.683 372.789 68.1861C372.555 68.6864 372.237 69.0658 371.834 69.3244C371.433 69.5802 370.984 69.7081 370.486 69.7081C370.134 69.7081 369.834 69.6499 369.587 69.5333C369.342 69.4168 369.142 69.2704 368.986 69.0942C368.829 68.9152 368.71 68.7347 368.627 68.5528H368.572V72.0573H366.756ZM368.534 66.3273C368.534 66.7167 368.588 67.0563 368.696 67.3462C368.804 67.6362 368.96 67.8621 369.165 68.0241C369.369 68.1833 369.618 68.2629 369.911 68.2629C370.206 68.2629 370.456 68.1819 370.661 68.0199C370.866 67.855 371.021 67.6276 371.126 67.3377C371.234 67.045 371.288 66.7082 371.288 66.3273C371.288 65.9493 371.235 65.6167 371.13 65.3297C371.025 65.0426 370.87 64.8181 370.665 64.6561C370.461 64.4941 370.209 64.4131 369.911 64.4131C369.615 64.4131 369.365 64.4912 369.16 64.6475C368.959 64.8039 368.804 65.0256 368.696 65.3126C368.588 65.5997 368.534 65.9379 368.534 66.3273ZM375.636 63.053L376.839 65.3425L378.071 63.053H379.934L378.037 66.3273L379.985 69.6016H378.131L376.839 67.3377L375.568 69.6016H373.692L375.636 66.3273L373.761 63.053H375.636Z" fill="#0B1530"/>
<path d="M57 200H19" stroke="#33F7C3" stroke-width="2"/>
<path d="M58 200L54 196" stroke="#33F7C3" stroke-width="2" stroke-linecap="round"/>
<path d="M58 200L54 204" stroke="#33F7C3" stroke-width="2" stroke-linecap="round"/>
<path d="M18 200L22 204" stroke="#33F7C3" stroke-width="2" stroke-linecap="round"/>
<path d="M18 200L22 196" stroke="#33F7C3" stroke-width="2" stroke-linecap="round"/>
<rect x="15.7504" y="210.75" width="43.9061" height="20.7027" rx="3.75176" fill="#33F7C3"/>
<rect x="15.7504" y="210.75" width="43.9061" height="20.7027" rx="3.75176" stroke="#33F7C3" stroke-width="1.5007"/>
<path d="M22.7792 224.067V222.613L26.4243 216.87H27.6778V218.883H26.9359L24.638 222.519V222.587H29.818V224.067H22.7792ZM26.9701 225.602V223.623L27.0042 222.98V216.87H28.7351V225.602H26.9701ZM34.4714 225.793C33.7381 225.791 33.1072 225.61 32.5785 225.252C32.0527 224.894 31.6477 224.375 31.3634 223.696C31.0821 223.017 30.9428 222.199 30.9456 221.244C30.9456 220.292 31.0863 219.481 31.3677 218.81C31.6519 218.139 32.057 217.629 32.5828 217.279C33.1114 216.927 33.741 216.751 34.4714 216.751C35.2019 216.751 35.83 216.927 36.3558 217.279C36.8845 217.632 37.2909 218.144 37.5752 218.814C37.8594 219.482 38.0001 220.292 37.9972 221.244C37.9972 222.202 37.8551 223.021 37.5709 223.7C37.2895 224.379 36.8859 224.898 36.3601 225.256C35.8343 225.614 35.2047 225.793 34.4714 225.793ZM34.4714 224.263C34.9717 224.263 35.371 224.011 35.6694 223.508C35.9679 223.005 36.1157 222.251 36.1128 221.244C36.1128 220.582 36.0446 220.031 35.9082 219.59C35.7746 219.15 35.5842 218.819 35.3369 218.597C35.0925 218.375 34.804 218.264 34.4714 218.264C33.974 218.264 33.5761 218.513 33.2777 219.01C32.9793 219.508 32.8286 220.252 32.8258 221.244C32.8258 221.915 32.8926 222.475 33.0262 222.924C33.1626 223.37 33.3544 223.706 33.6017 223.93C33.849 224.152 34.1389 224.263 34.4714 224.263ZM39.3306 228.057V219.053H41.1212V220.153H41.2022C41.2818 219.977 41.3969 219.798 41.5476 219.616C41.701 219.431 41.9 219.278 42.1444 219.155C42.3917 219.03 42.6987 218.968 43.0653 218.968C43.5428 218.968 43.9834 219.093 44.3869 219.343C44.7905 219.59 45.1131 219.964 45.3547 220.464C45.5963 220.962 45.7171 221.585 45.7171 222.336C45.7171 223.066 45.5992 223.683 45.3633 224.186C45.1302 224.686 44.8119 225.066 44.4083 225.324C44.0075 225.58 43.5584 225.708 43.061 225.708C42.7086 225.708 42.4087 225.65 42.1615 225.533C41.917 225.417 41.7167 225.27 41.5603 225.094C41.404 224.915 41.2846 224.735 41.2022 224.553H41.1468V228.057H39.3306ZM41.1084 222.327C41.1084 222.717 41.1624 223.056 41.2704 223.346C41.3784 223.636 41.5348 223.862 41.7394 224.024C41.944 224.183 42.1927 224.263 42.4855 224.263C42.7811 224.263 43.0312 224.182 43.2358 224.02C43.4405 223.855 43.5954 223.628 43.7005 223.338C43.8086 223.045 43.8626 222.708 43.8626 222.327C43.8626 221.949 43.81 221.617 43.7048 221.33C43.5996 221.043 43.4447 220.818 43.2401 220.656C43.0355 220.494 42.7839 220.413 42.4855 220.413C42.1899 220.413 41.9398 220.491 41.7351 220.648C41.5333 220.804 41.3784 221.026 41.2704 221.313C41.1624 221.6 41.1084 221.938 41.1084 222.327ZM48.2112 219.053L49.4135 221.342L50.6456 219.053H52.5087L50.6115 222.327L52.5598 225.602H50.7053L49.4135 223.338L48.143 225.602H46.2671L48.2112 222.327L46.3353 219.053H48.2112Z" fill="#0B1530"/>
</svg>
