<svg width="416" height="262" viewBox="0 0 416 262" fill="none" xmlns="http://www.w3.org/2000/svg">
<rect width="416" height="262" rx="24" fill="#F5F6F8"/>
<path d="M24.32 49V37.06H22.08L22.86 35.66H25.8V49H24.32Z" fill="#0B1530"/>
<path d="M43.78 49H42.26L44.48 34.92L49.6 46.18L54.82 34.9L56.9 49H55.38L54.12 39.72L49.58 49.56L45.1 39.72L43.78 49ZM65.9856 41.88V40.7H67.4256V49H65.9856V47.84C65.2656 48.7733 64.319 49.24 63.1456 49.24C62.0256 49.24 61.0723 48.8533 60.2856 48.08C59.499 47.3067 59.1056 46.2267 59.1056 44.84C59.1056 43.48 59.4923 42.42 60.2656 41.66C61.0523 40.8867 62.0123 40.5 63.1456 40.5C64.3456 40.5 65.2923 40.96 65.9856 41.88ZM63.3056 41.78C62.5456 41.78 61.899 42.0533 61.3656 42.6C60.8456 43.1333 60.5856 43.88 60.5856 44.84C60.5856 45.76 60.8256 46.5133 61.3056 47.1C61.799 47.6733 62.4656 47.96 63.3056 47.96C64.1456 47.96 64.8123 47.66 65.3056 47.06C65.8123 46.46 66.0656 45.7267 66.0656 44.86C66.0656 43.8733 65.7856 43.1133 65.2256 42.58C64.6656 42.0467 64.0256 41.78 63.3056 41.78ZM71.593 47.84V53.6H70.153V40.7H71.593V41.86C72.3263 40.9533 73.273 40.5 74.433 40.5C75.673 40.5 76.653 40.94 77.373 41.82C78.1063 42.6867 78.473 43.7133 78.473 44.9C78.473 46.1 78.113 47.1267 77.393 47.98C76.673 48.82 75.7063 49.24 74.493 49.24C73.2796 49.24 72.313 48.7733 71.593 47.84ZM74.293 47.96C75.1063 47.96 75.7596 47.6667 76.253 47.08C76.7463 46.48 76.993 45.7533 76.993 44.9C76.993 43.94 76.7196 43.18 76.173 42.62C75.6263 42.06 74.993 41.78 74.273 41.78C73.553 41.78 72.913 42.06 72.353 42.62C71.793 43.18 71.513 43.9333 71.513 44.88C71.513 45.7467 71.7663 46.48 72.273 47.08C72.793 47.6667 73.4663 47.96 74.293 47.96ZM80.6803 40.7H82.1203V44.1L85.4803 40.7H87.2403L83.6403 44.4L87.6803 49H85.8003L82.5603 45.36L82.1203 45.78V49H80.6803V40.7ZM95.0825 46.22L96.2825 46.88C96.0025 47.4133 95.6625 47.86 95.2625 48.22C94.5025 48.9 93.5825 49.24 92.5025 49.24C91.3825 49.24 90.4158 48.88 89.6025 48.16C88.8025 47.4267 88.4025 46.34 88.4025 44.9C88.4025 43.6333 88.7625 42.5867 89.4825 41.76C90.2158 40.92 91.1958 40.5 92.4225 40.5C93.8092 40.5 94.8558 41.0067 95.5625 42.02C96.1225 42.82 96.3825 43.86 96.3425 45.14H89.8825C89.8958 45.98 90.1558 46.66 90.6625 47.18C91.1692 47.7 91.7892 47.96 92.5225 47.96C93.1758 47.96 93.7425 47.76 94.2225 47.36C94.5958 47.04 94.8825 46.66 95.0825 46.22ZM89.9825 43.94H94.8625C94.7425 43.2867 94.4558 42.7667 94.0025 42.38C93.5625 41.98 93.0358 41.78 92.4225 41.78C91.8225 41.78 91.2892 41.9867 90.8225 42.4C90.3692 42.8 90.0892 43.3133 89.9825 43.94ZM99.9914 47.84V53.6H98.5514V40.7H99.9914V41.86C100.725 40.9533 101.671 40.5 102.831 40.5C104.071 40.5 105.051 40.94 105.771 41.82C106.505 42.6867 106.871 43.7133 106.871 44.9C106.871 46.1 106.511 47.1267 105.791 47.98C105.071 48.82 104.105 49.24 102.891 49.24C101.678 49.24 100.711 48.7733 99.9914 47.84ZM102.691 47.96C103.505 47.96 104.158 47.6667 104.651 47.08C105.145 46.48 105.391 45.7533 105.391 44.9C105.391 43.94 105.118 43.18 104.571 42.62C104.025 42.06 103.391 41.78 102.671 41.78C101.951 41.78 101.311 42.06 100.751 42.62C100.191 43.18 99.9114 43.9333 99.9114 44.88C99.9114 45.7467 100.165 46.48 100.671 47.08C101.191 47.6667 101.865 47.96 102.691 47.96ZM116.099 48C115.272 48.8267 114.225 49.24 112.959 49.24C111.692 49.24 110.639 48.8267 109.799 48C108.972 47.1733 108.559 46.1333 108.559 44.88C108.559 43.6133 108.972 42.5667 109.799 41.74C110.639 40.9133 111.692 40.5 112.959 40.5C114.225 40.5 115.272 40.9133 116.099 41.74C116.939 42.5667 117.359 43.6133 117.359 44.88C117.359 46.1333 116.939 47.1733 116.099 48ZM115.019 42.6C114.459 42.0533 113.772 41.78 112.959 41.78C112.145 41.78 111.452 42.06 110.879 42.62C110.319 43.1667 110.039 43.92 110.039 44.88C110.039 45.84 110.325 46.5933 110.899 47.14C111.472 47.6867 112.159 47.96 112.959 47.96C113.759 47.96 114.445 47.6867 115.019 47.14C115.592 46.5933 115.879 45.84 115.879 44.88C115.879 43.9067 115.592 43.1467 115.019 42.6ZM119.567 40.7H122.707C123.467 40.7 124.047 40.86 124.447 41.18C124.927 41.5667 125.167 42.0867 125.167 42.74C125.167 43.46 124.867 44.0133 124.267 44.4C124.68 44.5067 125.027 44.6933 125.307 44.96C125.747 45.3867 125.967 45.92 125.967 46.56C125.967 47.36 125.68 47.9867 125.107 48.44C124.614 48.8133 123.96 49 123.147 49H119.567V40.7ZM121.007 44.08H122.527C122.914 44.08 123.22 44 123.447 43.84C123.714 43.64 123.847 43.3533 123.847 42.98C123.847 42.6467 123.714 42.38 123.447 42.18C123.247 42.0467 122.86 41.98 122.287 41.98H121.007V44.08ZM121.007 47.72H122.787C123.4 47.72 123.834 47.6267 124.087 47.44C124.407 47.2 124.567 46.8933 124.567 46.52C124.567 46.12 124.427 45.8067 124.147 45.58C123.894 45.38 123.46 45.28 122.847 45.28H121.007V47.72ZM134.521 41.88V40.7H135.961V49H134.521V47.84C133.801 48.7733 132.854 49.24 131.681 49.24C130.561 49.24 129.607 48.8533 128.821 48.08C128.034 47.3067 127.641 46.2267 127.641 44.84C127.641 43.48 128.027 42.42 128.801 41.66C129.587 40.8867 130.547 40.5 131.681 40.5C132.881 40.5 133.827 40.96 134.521 41.88ZM131.841 41.78C131.081 41.78 130.434 42.0533 129.901 42.6C129.381 43.1333 129.121 43.88 129.121 44.84C129.121 45.76 129.361 46.5133 129.841 47.1C130.334 47.6733 131.001 47.96 131.841 47.96C132.681 47.96 133.347 47.66 133.841 47.06C134.347 46.46 134.601 45.7267 134.601 44.86C134.601 43.8733 134.321 43.1133 133.761 42.58C133.201 42.0467 132.561 41.78 131.841 41.78ZM138.688 49V40.7H140.128V44.1H144.048V40.7H145.488V49H144.048V45.42H140.128V49H138.688ZM148.2 49V40.7H149.64V44.1H153.56V40.7H155V49H153.56V45.42H149.64V49H148.2ZM157.712 49V40.7H159.152V43.88H160.632C161.778 43.88 162.618 44.1533 163.152 44.7C163.578 45.1267 163.792 45.7067 163.792 46.44C163.792 47.2133 163.545 47.8333 163.052 48.3C162.558 48.7667 161.745 49 160.612 49H157.712ZM159.152 47.72H160.492C161.092 47.72 161.518 47.6467 161.772 47.5C162.132 47.26 162.312 46.9067 162.312 46.44C162.312 45.96 162.138 45.6133 161.792 45.4C161.552 45.24 161.125 45.16 160.512 45.16H159.152V47.72ZM164.792 49V40.7H166.232V49H164.792ZM168.942 40.7H170.382V46.18L176.062 40.06V49H174.622V43.46L168.942 49.58V40.7ZM169.662 37.12L170.862 36.66C171.102 37.46 171.669 37.86 172.562 37.86C173.455 37.86 174.022 37.46 174.262 36.66L175.462 37.12C175.249 37.72 174.882 38.1933 174.362 38.54C173.855 38.8867 173.255 39.06 172.562 39.06C171.869 39.06 171.262 38.8867 170.742 38.54C170.235 38.1933 169.875 37.72 169.662 37.12ZM189.954 41.3V43.02C189.3 42.1933 188.434 41.78 187.354 41.78C186.54 41.78 185.847 42.06 185.274 42.62C184.7 43.1667 184.414 43.92 184.414 44.88C184.414 45.84 184.7 46.5933 185.274 47.14C185.847 47.6867 186.534 47.96 187.334 47.96C188.4 47.96 189.294 47.5267 190.014 46.66V48.38C189.227 48.9533 188.347 49.24 187.374 49.24C186.08 49.24 185.014 48.8333 184.174 48.02C183.347 47.1933 182.934 46.1533 182.934 44.9C182.934 43.6333 183.354 42.5867 184.194 41.76C185.034 40.92 186.094 40.5 187.374 40.5C188.334 40.5 189.194 40.7667 189.954 41.3ZM192.223 40.7H198.903V49H197.463V42.02H193.663V49H192.223V40.7ZM201.618 40.7H203.058V46.18L208.738 40.06V49H207.298V43.46L201.618 49.58V40.7ZM217.962 41.3V43.02C217.308 42.1933 216.442 41.78 215.362 41.78C214.548 41.78 213.855 42.06 213.282 42.62C212.708 43.1667 212.422 43.92 212.422 44.88C212.422 45.84 212.708 46.5933 213.282 47.14C213.855 47.6867 214.542 47.96 215.342 47.96C216.408 47.96 217.302 47.5267 218.022 46.66V48.38C217.235 48.9533 216.355 49.24 215.382 49.24C214.088 49.24 213.022 48.8333 212.182 48.02C211.355 47.1933 210.942 46.1533 210.942 44.9C210.942 43.6333 211.362 42.5867 212.202 41.76C213.042 40.92 214.102 40.5 215.382 40.5C216.342 40.5 217.202 40.7667 217.962 41.3ZM227.036 48C226.21 48.8267 225.163 49.24 223.896 49.24C222.63 49.24 221.576 48.8267 220.736 48C219.91 47.1733 219.496 46.1333 219.496 44.88C219.496 43.6133 219.91 42.5667 220.736 41.74C221.576 40.9133 222.63 40.5 223.896 40.5C225.163 40.5 226.21 40.9133 227.036 41.74C227.876 42.5667 228.296 43.6133 228.296 44.88C228.296 46.1333 227.876 47.1733 227.036 48ZM225.956 42.6C225.396 42.0533 224.71 41.78 223.896 41.78C223.083 41.78 222.39 42.06 221.816 42.62C221.256 43.1667 220.976 43.92 220.976 44.88C220.976 45.84 221.263 46.5933 221.836 47.14C222.41 47.6867 223.096 47.96 223.896 47.96C224.696 47.96 225.383 47.6867 225.956 47.14C226.53 46.5933 226.816 45.84 226.816 44.88C226.816 43.9067 226.53 43.1467 225.956 42.6ZM230.505 40.7H231.945V44.1L235.305 40.7H237.065L233.465 44.4L237.505 49H235.625L232.385 45.36L231.945 45.78V49H230.505V40.7ZM247.57 49V37.06H245.33L246.11 35.66H249.05V49H247.57ZM259.625 53.6L262.265 48.22L258.445 40.7H260.085L263.025 46.64L265.725 40.7H267.325L261.225 53.6H259.625ZM270.284 47.84V53.6H268.844V40.7H270.284V41.86C271.018 40.9533 271.964 40.5 273.124 40.5C274.364 40.5 275.344 40.94 276.064 41.82C276.798 42.6867 277.164 43.7133 277.164 44.9C277.164 46.1 276.804 47.1267 276.084 47.98C275.364 48.82 274.398 49.24 273.184 49.24C271.971 49.24 271.004 48.7733 270.284 47.84ZM272.984 47.96C273.798 47.96 274.451 47.6667 274.944 47.08C275.438 46.48 275.684 45.7533 275.684 44.9C275.684 43.94 275.411 43.18 274.864 42.62C274.318 42.06 273.684 41.78 272.964 41.78C272.244 41.78 271.604 42.06 271.044 42.62C270.484 43.18 270.204 43.9333 270.204 44.88C270.204 45.7467 270.458 46.48 270.964 47.08C271.484 47.6667 272.158 47.96 272.984 47.96ZM286.392 48C285.565 48.8267 284.518 49.24 283.252 49.24C281.985 49.24 280.932 48.8267 280.092 48C279.265 47.1733 278.852 46.1333 278.852 44.88C278.852 43.6133 279.265 42.5667 280.092 41.74C280.932 40.9133 281.985 40.5 283.252 40.5C284.518 40.5 285.565 40.9133 286.392 41.74C287.232 42.5667 287.652 43.6133 287.652 44.88C287.652 46.1333 287.232 47.1733 286.392 48ZM285.312 42.6C284.752 42.0533 284.065 41.78 283.252 41.78C282.438 41.78 281.745 42.06 281.172 42.62C280.612 43.1667 280.332 43.92 280.332 44.88C280.332 45.84 280.618 46.5933 281.192 47.14C281.765 47.6867 282.452 47.96 283.252 47.96C284.052 47.96 284.738 47.6867 285.312 47.14C285.885 46.5933 286.172 45.84 286.172 44.88C286.172 43.9067 285.885 43.1467 285.312 42.6ZM289.86 40.7H293C293.76 40.7 294.34 40.86 294.74 41.18C295.22 41.5667 295.46 42.0867 295.46 42.74C295.46 43.46 295.16 44.0133 294.56 44.4C294.973 44.5067 295.32 44.6933 295.6 44.96C296.04 45.3867 296.26 45.92 296.26 46.56C296.26 47.36 295.973 47.9867 295.4 48.44C294.907 48.8133 294.253 49 293.44 49H289.86V40.7ZM291.3 44.08H292.82C293.207 44.08 293.513 44 293.74 43.84C294.007 43.64 294.14 43.3533 294.14 42.98C294.14 42.6467 294.007 42.38 293.74 42.18C293.54 42.0467 293.153 41.98 292.58 41.98H291.3V44.08ZM291.3 47.72H293.08C293.693 47.72 294.127 47.6267 294.38 47.44C294.7 47.2 294.86 46.8933 294.86 46.52C294.86 46.12 294.72 45.8067 294.44 45.58C294.187 45.38 293.753 45.28 293.14 45.28H291.3V47.72ZM298.454 49V40.7H299.894V44.1H303.814V40.7H305.254V49H303.814V45.42H299.894V49H298.454ZM307.005 49L309.585 45.58C309.505 45.58 309.392 45.5667 309.245 45.54C309.112 45.5133 308.912 45.4467 308.645 45.34C308.379 45.2333 308.159 45.0933 307.985 44.92C307.545 44.5067 307.325 43.9533 307.325 43.26C307.325 42.4733 307.572 41.8533 308.065 41.4C308.559 40.9333 309.372 40.7 310.505 40.7H313.405V49H311.965V45.66H311.085L308.725 49H307.005ZM311.965 44.46V41.98H310.625C309.999 41.98 309.565 42.0533 309.325 42.2C308.979 42.4267 308.805 42.7667 308.805 43.22C308.805 43.6733 308.979 44.0067 309.325 44.22C309.579 44.38 310.005 44.46 310.605 44.46H311.965Z" fill="#0B1530"/>
<path d="M28.62 93H20L24.86 87.38C25.6867 86.4067 26.2067 85.76 26.42 85.44C26.9133 84.7333 27.16 84.0533 27.16 83.4C27.16 82.64 26.9133 82.02 26.42 81.54C25.9267 81.0467 25.2867 80.8 24.5 80.8C23.54 80.8 22.8 81.1933 22.28 81.98C22 82.4067 21.8533 82.9333 21.84 83.56H20.36C20.4133 82.4267 20.7467 81.5067 21.36 80.8C22.16 79.8933 23.2133 79.44 24.52 79.44C25.7067 79.44 26.6867 79.82 27.46 80.58C28.2467 81.3267 28.64 82.2733 28.64 83.42C28.64 84.3133 28.2867 85.2667 27.58 86.28C27.22 86.7733 26.6133 87.5133 25.76 88.5L22.98 91.64H28.62V93Z" fill="#0B1530"/>
<path d="M43.78 93H42.26L44.48 78.92L49.6 90.18L54.82 78.9L56.9 93H55.38L54.12 83.72L49.58 93.56L45.1 83.72L43.78 93ZM65.9856 85.88V84.7H67.4256V93H65.9856V91.84C65.2656 92.7733 64.319 93.24 63.1456 93.24C62.0256 93.24 61.0723 92.8533 60.2856 92.08C59.499 91.3067 59.1056 90.2267 59.1056 88.84C59.1056 87.48 59.4923 86.42 60.2656 85.66C61.0523 84.8867 62.0123 84.5 63.1456 84.5C64.3456 84.5 65.2923 84.96 65.9856 85.88ZM63.3056 85.78C62.5456 85.78 61.899 86.0533 61.3656 86.6C60.8456 87.1333 60.5856 87.88 60.5856 88.84C60.5856 89.76 60.8256 90.5133 61.3056 91.1C61.799 91.6733 62.4656 91.96 63.3056 91.96C64.1456 91.96 64.8123 91.66 65.3056 91.06C65.8123 90.46 66.0656 89.7267 66.0656 88.86C66.0656 87.8733 65.7856 87.1133 65.2256 86.58C64.6656 86.0467 64.0256 85.78 63.3056 85.78ZM71.593 91.84V97.6H70.153V84.7H71.593V85.86C72.3263 84.9533 73.273 84.5 74.433 84.5C75.673 84.5 76.653 84.94 77.373 85.82C78.1063 86.6867 78.473 87.7133 78.473 88.9C78.473 90.1 78.113 91.1267 77.393 91.98C76.673 92.82 75.7063 93.24 74.493 93.24C73.2796 93.24 72.313 92.7733 71.593 91.84ZM74.293 91.96C75.1063 91.96 75.7596 91.6667 76.253 91.08C76.7463 90.48 76.993 89.7533 76.993 88.9C76.993 87.94 76.7196 87.18 76.173 86.62C75.6263 86.06 74.993 85.78 74.273 85.78C73.553 85.78 72.913 86.06 72.353 86.62C71.793 87.18 71.513 87.9333 71.513 88.88C71.513 89.7467 71.7663 90.48 72.273 91.08C72.793 91.6667 73.4663 91.96 74.293 91.96ZM80.6803 84.7H82.1203V88.1L85.4803 84.7H87.2403L83.6403 88.4L87.6803 93H85.8003L82.5603 89.36L82.1203 89.78V93H80.6803V84.7ZM95.0825 90.22L96.2825 90.88C96.0025 91.4133 95.6625 91.86 95.2625 92.22C94.5025 92.9 93.5825 93.24 92.5025 93.24C91.3825 93.24 90.4158 92.88 89.6025 92.16C88.8025 91.4267 88.4025 90.34 88.4025 88.9C88.4025 87.6333 88.7625 86.5867 89.4825 85.76C90.2158 84.92 91.1958 84.5 92.4225 84.5C93.8092 84.5 94.8558 85.0067 95.5625 86.02C96.1225 86.82 96.3825 87.86 96.3425 89.14H89.8825C89.8958 89.98 90.1558 90.66 90.6625 91.18C91.1692 91.7 91.7892 91.96 92.5225 91.96C93.1758 91.96 93.7425 91.76 94.2225 91.36C94.5958 91.04 94.8825 90.66 95.0825 90.22ZM89.9825 87.94H94.8625C94.7425 87.2867 94.4558 86.7667 94.0025 86.38C93.5625 85.98 93.0358 85.78 92.4225 85.78C91.8225 85.78 91.2892 85.9867 90.8225 86.4C90.3692 86.8 90.0892 87.3133 89.9825 87.94ZM99.9914 91.84V97.6H98.5514V84.7H99.9914V85.86C100.725 84.9533 101.671 84.5 102.831 84.5C104.071 84.5 105.051 84.94 105.771 85.82C106.505 86.6867 106.871 87.7133 106.871 88.9C106.871 90.1 106.511 91.1267 105.791 91.98C105.071 92.82 104.105 93.24 102.891 93.24C101.678 93.24 100.711 92.7733 99.9914 91.84ZM102.691 91.96C103.505 91.96 104.158 91.6667 104.651 91.08C105.145 90.48 105.391 89.7533 105.391 88.9C105.391 87.94 105.118 87.18 104.571 86.62C104.025 86.06 103.391 85.78 102.671 85.78C101.951 85.78 101.311 86.06 100.751 86.62C100.191 87.18 99.9114 87.9333 99.9114 88.88C99.9114 89.7467 100.165 90.48 100.671 91.08C101.191 91.6667 101.865 91.96 102.691 91.96ZM116.099 92C115.272 92.8267 114.225 93.24 112.959 93.24C111.692 93.24 110.639 92.8267 109.799 92C108.972 91.1733 108.559 90.1333 108.559 88.88C108.559 87.6133 108.972 86.5667 109.799 85.74C110.639 84.9133 111.692 84.5 112.959 84.5C114.225 84.5 115.272 84.9133 116.099 85.74C116.939 86.5667 117.359 87.6133 117.359 88.88C117.359 90.1333 116.939 91.1733 116.099 92ZM115.019 86.6C114.459 86.0533 113.772 85.78 112.959 85.78C112.145 85.78 111.452 86.06 110.879 86.62C110.319 87.1667 110.039 87.92 110.039 88.88C110.039 89.84 110.325 90.5933 110.899 91.14C111.472 91.6867 112.159 91.96 112.959 91.96C113.759 91.96 114.445 91.6867 115.019 91.14C115.592 90.5933 115.879 89.84 115.879 88.88C115.879 87.9067 115.592 87.1467 115.019 86.6ZM119.567 84.7H122.707C123.467 84.7 124.047 84.86 124.447 85.18C124.927 85.5667 125.167 86.0867 125.167 86.74C125.167 87.46 124.867 88.0133 124.267 88.4C124.68 88.5067 125.027 88.6933 125.307 88.96C125.747 89.3867 125.967 89.92 125.967 90.56C125.967 91.36 125.68 91.9867 125.107 92.44C124.614 92.8133 123.96 93 123.147 93H119.567V84.7ZM121.007 88.08H122.527C122.914 88.08 123.22 88 123.447 87.84C123.714 87.64 123.847 87.3533 123.847 86.98C123.847 86.6467 123.714 86.38 123.447 86.18C123.247 86.0467 122.86 85.98 122.287 85.98H121.007V88.08ZM121.007 91.72H122.787C123.4 91.72 123.834 91.6267 124.087 91.44C124.407 91.2 124.567 90.8933 124.567 90.52C124.567 90.12 124.427 89.8067 124.147 89.58C123.894 89.38 123.46 89.28 122.847 89.28H121.007V91.72ZM134.521 85.88V84.7H135.961V93H134.521V91.84C133.801 92.7733 132.854 93.24 131.681 93.24C130.561 93.24 129.607 92.8533 128.821 92.08C128.034 91.3067 127.641 90.2267 127.641 88.84C127.641 87.48 128.027 86.42 128.801 85.66C129.587 84.8867 130.547 84.5 131.681 84.5C132.881 84.5 133.827 84.96 134.521 85.88ZM131.841 85.78C131.081 85.78 130.434 86.0533 129.901 86.6C129.381 87.1333 129.121 87.88 129.121 88.84C129.121 89.76 129.361 90.5133 129.841 91.1C130.334 91.6733 131.001 91.96 131.841 91.96C132.681 91.96 133.347 91.66 133.841 91.06C134.347 90.46 134.601 89.7267 134.601 88.86C134.601 87.8733 134.321 87.1133 133.761 86.58C133.201 86.0467 132.561 85.78 131.841 85.78ZM138.688 93V84.7H140.128V88.1H144.048V84.7H145.488V93H144.048V89.42H140.128V93H138.688ZM148.2 93V84.7H149.64V88.1H153.56V84.7H155V93H153.56V89.42H149.64V93H148.2ZM157.712 93V84.7H159.152V87.88H160.632C161.778 87.88 162.618 88.1533 163.152 88.7C163.578 89.1267 163.792 89.7067 163.792 90.44C163.792 91.2133 163.545 91.8333 163.052 92.3C162.558 92.7667 161.745 93 160.612 93H157.712ZM159.152 91.72H160.492C161.092 91.72 161.518 91.6467 161.772 91.5C162.132 91.26 162.312 90.9067 162.312 90.44C162.312 89.96 162.138 89.6133 161.792 89.4C161.552 89.24 161.125 89.16 160.512 89.16H159.152V91.72ZM164.792 93V84.7H166.232V93H164.792ZM168.942 84.7H170.382V90.18L176.062 84.06V93H174.622V87.46L168.942 93.58V84.7ZM169.662 81.12L170.862 80.66C171.102 81.46 171.669 81.86 172.562 81.86C173.455 81.86 174.022 81.46 174.262 80.66L175.462 81.12C175.249 81.72 174.882 82.1933 174.362 82.54C173.855 82.8867 173.255 83.06 172.562 83.06C171.869 83.06 171.262 82.8867 170.742 82.54C170.235 82.1933 169.875 81.72 169.662 81.12ZM189.954 85.3V87.02C189.3 86.1933 188.434 85.78 187.354 85.78C186.54 85.78 185.847 86.06 185.274 86.62C184.7 87.1667 184.414 87.92 184.414 88.88C184.414 89.84 184.7 90.5933 185.274 91.14C185.847 91.6867 186.534 91.96 187.334 91.96C188.4 91.96 189.294 91.5267 190.014 90.66V92.38C189.227 92.9533 188.347 93.24 187.374 93.24C186.08 93.24 185.014 92.8333 184.174 92.02C183.347 91.1933 182.934 90.1533 182.934 88.9C182.934 87.6333 183.354 86.5867 184.194 85.76C185.034 84.92 186.094 84.5 187.374 84.5C188.334 84.5 189.194 84.7667 189.954 85.3ZM192.223 84.7H198.903V93H197.463V86.02H193.663V93H192.223V84.7ZM201.618 84.7H203.058V90.18L208.738 84.06V93H207.298V87.46L201.618 93.58V84.7ZM217.962 85.3V87.02C217.308 86.1933 216.442 85.78 215.362 85.78C214.548 85.78 213.855 86.06 213.282 86.62C212.708 87.1667 212.422 87.92 212.422 88.88C212.422 89.84 212.708 90.5933 213.282 91.14C213.855 91.6867 214.542 91.96 215.342 91.96C216.408 91.96 217.302 91.5267 218.022 90.66V92.38C217.235 92.9533 216.355 93.24 215.382 93.24C214.088 93.24 213.022 92.8333 212.182 92.02C211.355 91.1933 210.942 90.1533 210.942 88.9C210.942 87.6333 211.362 86.5867 212.202 85.76C213.042 84.92 214.102 84.5 215.382 84.5C216.342 84.5 217.202 84.7667 217.962 85.3ZM227.036 92C226.21 92.8267 225.163 93.24 223.896 93.24C222.63 93.24 221.576 92.8267 220.736 92C219.91 91.1733 219.496 90.1333 219.496 88.88C219.496 87.6133 219.91 86.5667 220.736 85.74C221.576 84.9133 222.63 84.5 223.896 84.5C225.163 84.5 226.21 84.9133 227.036 85.74C227.876 86.5667 228.296 87.6133 228.296 88.88C228.296 90.1333 227.876 91.1733 227.036 92ZM225.956 86.6C225.396 86.0533 224.71 85.78 223.896 85.78C223.083 85.78 222.39 86.06 221.816 86.62C221.256 87.1667 220.976 87.92 220.976 88.88C220.976 89.84 221.263 90.5933 221.836 91.14C222.41 91.6867 223.096 91.96 223.896 91.96C224.696 91.96 225.383 91.6867 225.956 91.14C226.53 90.5933 226.816 89.84 226.816 88.88C226.816 87.9067 226.53 87.1467 225.956 86.6ZM230.505 84.7H231.945V88.1L235.305 84.7H237.065L233.465 88.4L237.505 93H235.625L232.385 89.36L231.945 89.78V93H230.505V84.7ZM247.57 93V81.06H245.33L246.11 79.66H249.05V93H247.57ZM259.625 97.6L262.265 92.22L258.445 84.7H260.085L263.025 90.64L265.725 84.7H267.325L261.225 97.6H259.625ZM270.284 91.84V97.6H268.844V84.7H270.284V85.86C271.018 84.9533 271.964 84.5 273.124 84.5C274.364 84.5 275.344 84.94 276.064 85.82C276.798 86.6867 277.164 87.7133 277.164 88.9C277.164 90.1 276.804 91.1267 276.084 91.98C275.364 92.82 274.398 93.24 273.184 93.24C271.971 93.24 271.004 92.7733 270.284 91.84ZM272.984 91.96C273.798 91.96 274.451 91.6667 274.944 91.08C275.438 90.48 275.684 89.7533 275.684 88.9C275.684 87.94 275.411 87.18 274.864 86.62C274.318 86.06 273.684 85.78 272.964 85.78C272.244 85.78 271.604 86.06 271.044 86.62C270.484 87.18 270.204 87.9333 270.204 88.88C270.204 89.7467 270.458 90.48 270.964 91.08C271.484 91.6667 272.158 91.96 272.984 91.96ZM286.392 92C285.565 92.8267 284.518 93.24 283.252 93.24C281.985 93.24 280.932 92.8267 280.092 92C279.265 91.1733 278.852 90.1333 278.852 88.88C278.852 87.6133 279.265 86.5667 280.092 85.74C280.932 84.9133 281.985 84.5 283.252 84.5C284.518 84.5 285.565 84.9133 286.392 85.74C287.232 86.5667 287.652 87.6133 287.652 88.88C287.652 90.1333 287.232 91.1733 286.392 92ZM285.312 86.6C284.752 86.0533 284.065 85.78 283.252 85.78C282.438 85.78 281.745 86.06 281.172 86.62C280.612 87.1667 280.332 87.92 280.332 88.88C280.332 89.84 280.618 90.5933 281.192 91.14C281.765 91.6867 282.452 91.96 283.252 91.96C284.052 91.96 284.738 91.6867 285.312 91.14C285.885 90.5933 286.172 89.84 286.172 88.88C286.172 87.9067 285.885 87.1467 285.312 86.6ZM289.86 84.7H293C293.76 84.7 294.34 84.86 294.74 85.18C295.22 85.5667 295.46 86.0867 295.46 86.74C295.46 87.46 295.16 88.0133 294.56 88.4C294.973 88.5067 295.32 88.6933 295.6 88.96C296.04 89.3867 296.26 89.92 296.26 90.56C296.26 91.36 295.973 91.9867 295.4 92.44C294.907 92.8133 294.253 93 293.44 93H289.86V84.7ZM291.3 88.08H292.82C293.207 88.08 293.513 88 293.74 87.84C294.007 87.64 294.14 87.3533 294.14 86.98C294.14 86.6467 294.007 86.38 293.74 86.18C293.54 86.0467 293.153 85.98 292.58 85.98H291.3V88.08ZM291.3 91.72H293.08C293.693 91.72 294.127 91.6267 294.38 91.44C294.7 91.2 294.86 90.8933 294.86 90.52C294.86 90.12 294.72 89.8067 294.44 89.58C294.187 89.38 293.753 89.28 293.14 89.28H291.3V91.72ZM298.454 93V84.7H299.894V88.1H303.814V84.7H305.254V93H303.814V89.42H299.894V93H298.454ZM307.005 93L309.585 89.58C309.505 89.58 309.392 89.5667 309.245 89.54C309.112 89.5133 308.912 89.4467 308.645 89.34C308.379 89.2333 308.159 89.0933 307.985 88.92C307.545 88.5067 307.325 87.9533 307.325 87.26C307.325 86.4733 307.572 85.8533 308.065 85.4C308.559 84.9333 309.372 84.7 310.505 84.7H313.405V93H311.965V89.66H311.085L308.725 93H307.005ZM311.965 88.46V85.98H310.625C309.999 85.98 309.565 86.0533 309.325 86.2C308.979 86.4267 308.805 86.7667 308.805 87.22C308.805 87.6733 308.979 88.0067 309.325 88.22C309.579 88.38 310.005 88.46 310.605 88.46H311.965ZM316.35 86.2C316.15 86 316.05 85.7667 316.05 85.5C316.05 85.2333 316.15 85 316.35 84.8C316.55 84.6 316.783 84.5 317.05 84.5C317.316 84.5 317.55 84.6 317.75 84.8C317.95 85 318.05 85.2333 318.05 85.5C318.05 85.7667 317.95 86 317.75 86.2C317.55 86.4 317.316 86.5 317.05 86.5C316.783 86.5 316.55 86.4 316.35 86.2ZM316.35 92.94C316.15 92.74 316.05 92.5067 316.05 92.24C316.05 91.9733 316.15 91.74 316.35 91.54C316.55 91.34 316.783 91.24 317.05 91.24C317.316 91.24 317.55 91.34 317.75 91.54C317.95 91.74 318.05 91.9733 318.05 92.24C318.05 92.5067 317.95 92.74 317.75 92.94C317.55 93.14 317.316 93.24 317.05 93.24C316.783 93.24 316.55 93.14 316.35 92.94Z" fill="#0B1530"/>
<path d="M64.32 137V125.06H62.08L62.86 123.66H65.8V137H64.32ZM71.6472 122.78L72.9072 122.2C73.4005 123.507 73.7939 124.787 74.0872 126.04C74.4605 127.667 74.6472 129.4 74.6472 131.24C74.6472 132.853 74.5072 134.4 74.2272 135.88C73.9605 137.28 73.5205 138.787 72.9072 140.4L71.6472 139.82C72.1005 138.553 72.4472 137.333 72.6872 136.16C73.0072 134.64 73.1672 133.013 73.1672 131.28C73.1672 129.533 73.0005 127.853 72.6672 126.24C72.4272 125.093 72.0872 123.94 71.6472 122.78Z" fill="#0B1530"/>
<path d="M87.4 137L89.4 128.06L92.84 134.82L96.2 128.06L98.2 137H96.72L95.62 131.86L92.8 137.58L89.94 131.86L88.88 137H87.4ZM106.322 129.88V128.7H107.762V137H106.322V135.84C105.602 136.773 104.655 137.24 103.482 137.24C102.362 137.24 101.408 136.853 100.622 136.08C99.8349 135.307 99.4416 134.227 99.4416 132.84C99.4416 131.48 99.8282 130.42 100.602 129.66C101.388 128.887 102.348 128.5 103.482 128.5C104.682 128.5 105.628 128.96 106.322 129.88ZM103.642 129.78C102.882 129.78 102.235 130.053 101.702 130.6C101.182 131.133 100.922 131.88 100.922 132.84C100.922 133.76 101.162 134.513 101.642 135.1C102.135 135.673 102.802 135.96 103.642 135.96C104.482 135.96 105.148 135.66 105.642 135.06C106.148 134.46 106.402 133.727 106.402 132.86C106.402 131.873 106.122 131.113 105.562 130.58C105.002 130.047 104.362 129.78 103.642 129.78ZM111.929 135.84V141.6H110.489V128.7H111.929V129.86C112.662 128.953 113.609 128.5 114.769 128.5C116.009 128.5 116.989 128.94 117.709 129.82C118.442 130.687 118.809 131.713 118.809 132.9C118.809 134.1 118.449 135.127 117.729 135.98C117.009 136.82 116.042 137.24 114.829 137.24C113.616 137.24 112.649 136.773 111.929 135.84ZM114.629 135.96C115.442 135.96 116.096 135.667 116.589 135.08C117.082 134.48 117.329 133.753 117.329 132.9C117.329 131.94 117.056 131.18 116.509 130.62C115.962 130.06 115.329 129.78 114.609 129.78C113.889 129.78 113.249 130.06 112.689 130.62C112.129 131.18 111.849 131.933 111.849 132.88C111.849 133.747 112.102 134.48 112.609 135.08C113.129 135.667 113.802 135.96 114.629 135.96ZM121.016 128.7H122.456V132.1L125.816 128.7H127.576L123.976 132.4L128.016 137H126.136L122.896 133.36L122.456 133.78V137H121.016V128.7ZM135.418 134.22L136.618 134.88C136.338 135.413 135.998 135.86 135.598 136.22C134.838 136.9 133.918 137.24 132.838 137.24C131.718 137.24 130.752 136.88 129.938 136.16C129.138 135.427 128.738 134.34 128.738 132.9C128.738 131.633 129.098 130.587 129.818 129.76C130.552 128.92 131.532 128.5 132.758 128.5C134.145 128.5 135.192 129.007 135.898 130.02C136.458 130.82 136.718 131.86 136.678 133.14H130.218C130.232 133.98 130.492 134.66 130.998 135.18C131.505 135.7 132.125 135.96 132.858 135.96C133.512 135.96 134.078 135.76 134.558 135.36C134.932 135.04 135.218 134.66 135.418 134.22ZM130.318 131.94H135.198C135.078 131.287 134.792 130.767 134.338 130.38C133.898 129.98 133.372 129.78 132.758 129.78C132.158 129.78 131.625 129.987 131.158 130.4C130.705 130.8 130.425 131.313 130.318 131.94ZM140.327 135.84V141.6H138.887V128.7H140.327V129.86C141.061 128.953 142.007 128.5 143.167 128.5C144.407 128.5 145.387 128.94 146.107 129.82C146.841 130.687 147.207 131.713 147.207 132.9C147.207 134.1 146.847 135.127 146.127 135.98C145.407 136.82 144.441 137.24 143.227 137.24C142.014 137.24 141.047 136.773 140.327 135.84ZM143.027 135.96C143.841 135.96 144.494 135.667 144.987 135.08C145.481 134.48 145.727 133.753 145.727 132.9C145.727 131.94 145.454 131.18 144.907 130.62C144.361 130.06 143.727 129.78 143.007 129.78C142.287 129.78 141.647 130.06 141.087 130.62C140.527 131.18 140.247 131.933 140.247 132.88C140.247 133.747 140.501 134.48 141.007 135.08C141.527 135.667 142.201 135.96 143.027 135.96ZM156.435 136C155.608 136.827 154.561 137.24 153.295 137.24C152.028 137.24 150.975 136.827 150.135 136C149.308 135.173 148.895 134.133 148.895 132.88C148.895 131.613 149.308 130.567 150.135 129.74C150.975 128.913 152.028 128.5 153.295 128.5C154.561 128.5 155.608 128.913 156.435 129.74C157.275 130.567 157.695 131.613 157.695 132.88C157.695 134.133 157.275 135.173 156.435 136ZM155.355 130.6C154.795 130.053 154.108 129.78 153.295 129.78C152.481 129.78 151.788 130.06 151.215 130.62C150.655 131.167 150.375 131.92 150.375 132.88C150.375 133.84 150.661 134.593 151.235 135.14C151.808 135.687 152.495 135.96 153.295 135.96C154.095 135.96 154.781 135.687 155.355 135.14C155.928 134.593 156.215 133.84 156.215 132.88C156.215 131.907 155.928 131.147 155.355 130.6ZM159.903 128.7H163.043C163.803 128.7 164.383 128.86 164.783 129.18C165.263 129.567 165.503 130.087 165.503 130.74C165.503 131.46 165.203 132.013 164.603 132.4C165.016 132.507 165.363 132.693 165.643 132.96C166.083 133.387 166.303 133.92 166.303 134.56C166.303 135.36 166.016 135.987 165.443 136.44C164.95 136.813 164.296 137 163.483 137H159.903V128.7ZM161.343 132.08H162.863C163.25 132.08 163.556 132 163.783 131.84C164.05 131.64 164.183 131.353 164.183 130.98C164.183 130.647 164.05 130.38 163.783 130.18C163.583 130.047 163.196 129.98 162.623 129.98H161.343V132.08ZM161.343 135.72H163.123C163.736 135.72 164.17 135.627 164.423 135.44C164.743 135.2 164.903 134.893 164.903 134.52C164.903 134.12 164.763 133.807 164.483 133.58C164.23 133.38 163.796 133.28 163.183 133.28H161.343V135.72ZM174.857 129.88V128.7H176.297V137H174.857V135.84C174.137 136.773 173.19 137.24 172.017 137.24C170.897 137.24 169.943 136.853 169.157 136.08C168.37 135.307 167.977 134.227 167.977 132.84C167.977 131.48 168.363 130.42 169.137 129.66C169.923 128.887 170.883 128.5 172.017 128.5C173.217 128.5 174.163 128.96 174.857 129.88ZM172.177 129.78C171.417 129.78 170.77 130.053 170.237 130.6C169.717 131.133 169.457 131.88 169.457 132.84C169.457 133.76 169.697 134.513 170.177 135.1C170.67 135.673 171.337 135.96 172.177 135.96C173.017 135.96 173.683 135.66 174.177 135.06C174.683 134.46 174.937 133.727 174.937 132.86C174.937 131.873 174.657 131.113 174.097 130.58C173.537 130.047 172.897 129.78 172.177 129.78ZM179.024 137V128.7H180.464V132.1H184.384V128.7H185.824V137H184.384V133.42H180.464V137H179.024ZM188.536 137V128.7H189.976V132.1H193.896V128.7H195.336V137H193.896V133.42H189.976V137H188.536ZM198.048 137V128.7H199.488V131.88H200.968C202.114 131.88 202.954 132.153 203.488 132.7C203.914 133.127 204.128 133.707 204.128 134.44C204.128 135.213 203.881 135.833 203.388 136.3C202.894 136.767 202.081 137 200.948 137H198.048ZM199.488 135.72H200.828C201.428 135.72 201.854 135.647 202.108 135.5C202.468 135.26 202.648 134.907 202.648 134.44C202.648 133.96 202.474 133.613 202.128 133.4C201.888 133.24 201.461 133.16 200.848 133.16H199.488V135.72ZM205.128 137V128.7H206.568V137H205.128ZM209.278 128.7H210.718V134.18L216.398 128.06V137H214.958V131.46L209.278 137.58V128.7ZM209.998 125.12L211.198 124.66C211.438 125.46 212.005 125.86 212.898 125.86C213.791 125.86 214.358 125.46 214.598 124.66L215.798 125.12C215.585 125.72 215.218 126.193 214.698 126.54C214.191 126.887 213.591 127.06 212.898 127.06C212.205 127.06 211.598 126.887 211.078 126.54C210.571 126.193 210.211 125.72 209.998 125.12ZM230.29 129.3V131.02C229.636 130.193 228.77 129.78 227.69 129.78C226.876 129.78 226.183 130.06 225.61 130.62C225.036 131.167 224.75 131.92 224.75 132.88C224.75 133.84 225.036 134.593 225.61 135.14C226.183 135.687 226.87 135.96 227.67 135.96C228.736 135.96 229.63 135.527 230.35 134.66V136.38C229.563 136.953 228.683 137.24 227.71 137.24C226.416 137.24 225.35 136.833 224.51 136.02C223.683 135.193 223.27 134.153 223.27 132.9C223.27 131.633 223.69 130.587 224.53 129.76C225.37 128.92 226.43 128.5 227.71 128.5C228.67 128.5 229.53 128.767 230.29 129.3ZM232.559 128.7H239.239V137H237.799V130.02H233.999V137H232.559V128.7ZM241.954 128.7H243.394V134.18L249.074 128.06V137H247.634V131.46L241.954 137.58V128.7ZM258.298 129.3V131.02C257.644 130.193 256.778 129.78 255.698 129.78C254.884 129.78 254.191 130.06 253.618 130.62C253.044 131.167 252.758 131.92 252.758 132.88C252.758 133.84 253.044 134.593 253.618 135.14C254.191 135.687 254.878 135.96 255.678 135.96C256.744 135.96 257.638 135.527 258.358 134.66V136.38C257.571 136.953 256.691 137.24 255.717 137.24C254.424 137.24 253.358 136.833 252.518 136.02C251.691 135.193 251.278 134.153 251.278 132.9C251.278 131.633 251.698 130.587 252.538 129.76C253.378 128.92 254.438 128.5 255.717 128.5C256.678 128.5 257.538 128.767 258.298 129.3ZM267.372 136C266.546 136.827 265.499 137.24 264.232 137.24C262.966 137.24 261.912 136.827 261.072 136C260.246 135.173 259.832 134.133 259.832 132.88C259.832 131.613 260.246 130.567 261.072 129.74C261.912 128.913 262.966 128.5 264.232 128.5C265.499 128.5 266.546 128.913 267.372 129.74C268.212 130.567 268.632 131.613 268.632 132.88C268.632 134.133 268.212 135.173 267.372 136ZM266.292 130.6C265.732 130.053 265.046 129.78 264.232 129.78C263.419 129.78 262.726 130.06 262.152 130.62C261.592 131.167 261.312 131.92 261.312 132.88C261.312 133.84 261.599 134.593 262.172 135.14C262.746 135.687 263.432 135.96 264.232 135.96C265.032 135.96 265.719 135.687 266.292 135.14C266.866 134.593 267.152 133.84 267.152 132.88C267.152 131.907 266.866 131.147 266.292 130.6ZM270.84 128.7H272.28V132.1L275.64 128.7H277.4L273.8 132.4L277.84 137H275.96L272.72 133.36L272.28 133.78V137H270.84V128.7ZM292.206 137H283.586L288.446 131.38C289.273 130.407 289.793 129.76 290.006 129.44C290.499 128.733 290.746 128.053 290.746 127.4C290.746 126.64 290.499 126.02 290.006 125.54C289.513 125.047 288.873 124.8 288.086 124.8C287.126 124.8 286.386 125.193 285.866 125.98C285.586 126.407 285.439 126.933 285.426 127.56H283.946C283.999 126.427 284.333 125.507 284.946 124.8C285.746 123.893 286.799 123.44 288.106 123.44C289.293 123.44 290.273 123.82 291.046 124.58C291.833 125.327 292.226 126.273 292.226 127.42C292.226 128.313 291.873 129.267 291.166 130.28C290.806 130.773 290.199 131.513 289.346 132.5L286.566 135.64H292.206V137ZM299.961 141.6L302.601 136.22L298.781 128.7H300.421L303.361 134.64L306.061 128.7H307.661L301.561 141.6H299.961ZM310.62 135.84V141.6H309.18V128.7H310.62V129.86C311.354 128.953 312.3 128.5 313.46 128.5C314.7 128.5 315.68 128.94 316.4 129.82C317.134 130.687 317.5 131.713 317.5 132.9C317.5 134.1 317.14 135.127 316.42 135.98C315.7 136.82 314.734 137.24 313.52 137.24C312.307 137.24 311.34 136.773 310.62 135.84ZM313.32 135.96C314.134 135.96 314.787 135.667 315.28 135.08C315.774 134.48 316.02 133.753 316.02 132.9C316.02 131.94 315.747 131.18 315.2 130.62C314.654 130.06 314.02 129.78 313.3 129.78C312.58 129.78 311.94 130.06 311.38 130.62C310.82 131.18 310.54 131.933 310.54 132.88C310.54 133.747 310.794 134.48 311.3 135.08C311.82 135.667 312.494 135.96 313.32 135.96ZM326.728 136C325.901 136.827 324.854 137.24 323.588 137.24C322.321 137.24 321.268 136.827 320.428 136C319.601 135.173 319.188 134.133 319.188 132.88C319.188 131.613 319.601 130.567 320.428 129.74C321.268 128.913 322.321 128.5 323.588 128.5C324.854 128.5 325.901 128.913 326.728 129.74C327.568 130.567 327.988 131.613 327.988 132.88C327.988 134.133 327.568 135.173 326.728 136ZM325.648 130.6C325.088 130.053 324.401 129.78 323.588 129.78C322.774 129.78 322.081 130.06 321.508 130.62C320.948 131.167 320.668 131.92 320.668 132.88C320.668 133.84 320.954 134.593 321.528 135.14C322.101 135.687 322.788 135.96 323.588 135.96C324.388 135.96 325.074 135.687 325.648 135.14C326.221 134.593 326.508 133.84 326.508 132.88C326.508 131.907 326.221 131.147 325.648 130.6ZM330.196 128.7H333.336C334.096 128.7 334.676 128.86 335.076 129.18C335.556 129.567 335.796 130.087 335.796 130.74C335.796 131.46 335.496 132.013 334.896 132.4C335.309 132.507 335.656 132.693 335.936 132.96C336.376 133.387 336.596 133.92 336.596 134.56C336.596 135.36 336.309 135.987 335.736 136.44C335.243 136.813 334.589 137 333.776 137H330.196V128.7ZM331.636 132.08H333.156C333.543 132.08 333.849 132 334.076 131.84C334.343 131.64 334.476 131.353 334.476 130.98C334.476 130.647 334.343 130.38 334.076 130.18C333.876 130.047 333.489 129.98 332.916 129.98H331.636V132.08ZM331.636 135.72H333.416C334.029 135.72 334.463 135.627 334.716 135.44C335.036 135.2 335.196 134.893 335.196 134.52C335.196 134.12 335.056 133.807 334.776 133.58C334.523 133.38 334.089 133.28 333.476 133.28H331.636V135.72ZM338.79 137V128.7H340.23V132.1H344.15V128.7H345.59V137H344.15V133.42H340.23V137H338.79ZM347.341 137L349.921 133.58C349.841 133.58 349.728 133.567 349.581 133.54C349.448 133.513 349.248 133.447 348.981 133.34C348.715 133.233 348.495 133.093 348.321 132.92C347.881 132.507 347.661 131.953 347.661 131.26C347.661 130.473 347.908 129.853 348.401 129.4C348.895 128.933 349.708 128.7 350.841 128.7H353.741V137H352.301V133.66H351.421L349.061 137H347.341ZM352.301 132.46V129.98H350.961C350.335 129.98 349.901 130.053 349.661 130.2C349.315 130.427 349.141 130.767 349.141 131.22C349.141 131.673 349.315 132.007 349.661 132.22C349.915 132.38 350.341 132.46 350.941 132.46H352.301ZM356.965 130.2C356.765 130 356.665 129.767 356.665 129.5C356.665 129.233 356.765 129 356.965 128.8C357.165 128.6 357.399 128.5 357.665 128.5C357.932 128.5 358.165 128.6 358.365 128.8C358.565 129 358.665 129.233 358.665 129.5C358.665 129.767 358.565 130 358.365 130.2C358.165 130.4 357.932 130.5 357.665 130.5C357.399 130.5 357.165 130.4 356.965 130.2ZM355.585 139.66L357.225 135.04L358.545 135.52L356.525 140.04L355.585 139.66Z" fill="#0B1530"/>
<path d="M68.62 181H60L64.86 175.38C65.6867 174.407 66.2067 173.76 66.42 173.44C66.9133 172.733 67.16 172.053 67.16 171.4C67.16 170.64 66.9133 170.02 66.42 169.54C65.9267 169.047 65.2867 168.8 64.5 168.8C63.54 168.8 62.8 169.193 62.28 169.98C62 170.407 61.8533 170.933 61.84 171.56H60.36C60.4133 170.427 60.7467 169.507 61.36 168.8C62.16 167.893 63.2133 167.44 64.52 167.44C65.7067 167.44 66.6867 167.82 67.46 168.58C68.2467 169.327 68.64 170.273 68.64 171.42C68.64 172.313 68.2867 173.267 67.58 174.28C67.22 174.773 66.6133 175.513 65.76 176.5L62.98 179.64H68.62V181ZM71.6472 166.78L72.9072 166.2C73.4005 167.507 73.7939 168.787 74.0872 170.04C74.4605 171.667 74.6472 173.4 74.6472 175.24C74.6472 176.853 74.5072 178.4 74.2272 179.88C73.9605 181.28 73.5205 182.787 72.9072 184.4L71.6472 183.82C72.1005 182.553 72.4472 181.333 72.6872 180.16C73.0072 178.64 73.1672 177.013 73.1672 175.28C73.1672 173.533 73.0005 171.853 72.6672 170.24C72.4272 169.093 72.0872 167.94 71.6472 166.78Z" fill="#0B1530"/>
<path d="M87.4 181L89.4 172.06L92.84 178.82L96.2 172.06L98.2 181H96.72L95.62 175.86L92.8 181.58L89.94 175.86L88.88 181H87.4ZM106.322 173.88V172.7H107.762V181H106.322V179.84C105.602 180.773 104.655 181.24 103.482 181.24C102.362 181.24 101.408 180.853 100.622 180.08C99.8349 179.307 99.4416 178.227 99.4416 176.84C99.4416 175.48 99.8282 174.42 100.602 173.66C101.388 172.887 102.348 172.5 103.482 172.5C104.682 172.5 105.628 172.96 106.322 173.88ZM103.642 173.78C102.882 173.78 102.235 174.053 101.702 174.6C101.182 175.133 100.922 175.88 100.922 176.84C100.922 177.76 101.162 178.513 101.642 179.1C102.135 179.673 102.802 179.96 103.642 179.96C104.482 179.96 105.148 179.66 105.642 179.06C106.148 178.46 106.402 177.727 106.402 176.86C106.402 175.873 106.122 175.113 105.562 174.58C105.002 174.047 104.362 173.78 103.642 173.78ZM111.929 179.84V185.6H110.489V172.7H111.929V173.86C112.662 172.953 113.609 172.5 114.769 172.5C116.009 172.5 116.989 172.94 117.709 173.82C118.442 174.687 118.809 175.713 118.809 176.9C118.809 178.1 118.449 179.127 117.729 179.98C117.009 180.82 116.042 181.24 114.829 181.24C113.616 181.24 112.649 180.773 111.929 179.84ZM114.629 179.96C115.442 179.96 116.096 179.667 116.589 179.08C117.082 178.48 117.329 177.753 117.329 176.9C117.329 175.94 117.056 175.18 116.509 174.62C115.962 174.06 115.329 173.78 114.609 173.78C113.889 173.78 113.249 174.06 112.689 174.62C112.129 175.18 111.849 175.933 111.849 176.88C111.849 177.747 112.102 178.48 112.609 179.08C113.129 179.667 113.802 179.96 114.629 179.96ZM121.016 172.7H122.456V176.1L125.816 172.7H127.576L123.976 176.4L128.016 181H126.136L122.896 177.36L122.456 177.78V181H121.016V172.7ZM135.418 178.22L136.618 178.88C136.338 179.413 135.998 179.86 135.598 180.22C134.838 180.9 133.918 181.24 132.838 181.24C131.718 181.24 130.752 180.88 129.938 180.16C129.138 179.427 128.738 178.34 128.738 176.9C128.738 175.633 129.098 174.587 129.818 173.76C130.552 172.92 131.532 172.5 132.758 172.5C134.145 172.5 135.192 173.007 135.898 174.02C136.458 174.82 136.718 175.86 136.678 177.14H130.218C130.232 177.98 130.492 178.66 130.998 179.18C131.505 179.7 132.125 179.96 132.858 179.96C133.512 179.96 134.078 179.76 134.558 179.36C134.932 179.04 135.218 178.66 135.418 178.22ZM130.318 175.94H135.198C135.078 175.287 134.792 174.767 134.338 174.38C133.898 173.98 133.372 173.78 132.758 173.78C132.158 173.78 131.625 173.987 131.158 174.4C130.705 174.8 130.425 175.313 130.318 175.94ZM140.327 179.84V185.6H138.887V172.7H140.327V173.86C141.061 172.953 142.007 172.5 143.167 172.5C144.407 172.5 145.387 172.94 146.107 173.82C146.841 174.687 147.207 175.713 147.207 176.9C147.207 178.1 146.847 179.127 146.127 179.98C145.407 180.82 144.441 181.24 143.227 181.24C142.014 181.24 141.047 180.773 140.327 179.84ZM143.027 179.96C143.841 179.96 144.494 179.667 144.987 179.08C145.481 178.48 145.727 177.753 145.727 176.9C145.727 175.94 145.454 175.18 144.907 174.62C144.361 174.06 143.727 173.78 143.007 173.78C142.287 173.78 141.647 174.06 141.087 174.62C140.527 175.18 140.247 175.933 140.247 176.88C140.247 177.747 140.501 178.48 141.007 179.08C141.527 179.667 142.201 179.96 143.027 179.96ZM156.435 180C155.608 180.827 154.561 181.24 153.295 181.24C152.028 181.24 150.975 180.827 150.135 180C149.308 179.173 148.895 178.133 148.895 176.88C148.895 175.613 149.308 174.567 150.135 173.74C150.975 172.913 152.028 172.5 153.295 172.5C154.561 172.5 155.608 172.913 156.435 173.74C157.275 174.567 157.695 175.613 157.695 176.88C157.695 178.133 157.275 179.173 156.435 180ZM155.355 174.6C154.795 174.053 154.108 173.78 153.295 173.78C152.481 173.78 151.788 174.06 151.215 174.62C150.655 175.167 150.375 175.92 150.375 176.88C150.375 177.84 150.661 178.593 151.235 179.14C151.808 179.687 152.495 179.96 153.295 179.96C154.095 179.96 154.781 179.687 155.355 179.14C155.928 178.593 156.215 177.84 156.215 176.88C156.215 175.907 155.928 175.147 155.355 174.6ZM159.903 172.7H163.043C163.803 172.7 164.383 172.86 164.783 173.18C165.263 173.567 165.503 174.087 165.503 174.74C165.503 175.46 165.203 176.013 164.603 176.4C165.016 176.507 165.363 176.693 165.643 176.96C166.083 177.387 166.303 177.92 166.303 178.56C166.303 179.36 166.016 179.987 165.443 180.44C164.95 180.813 164.296 181 163.483 181H159.903V172.7ZM161.343 176.08H162.863C163.25 176.08 163.556 176 163.783 175.84C164.05 175.64 164.183 175.353 164.183 174.98C164.183 174.647 164.05 174.38 163.783 174.18C163.583 174.047 163.196 173.98 162.623 173.98H161.343V176.08ZM161.343 179.72H163.123C163.736 179.72 164.17 179.627 164.423 179.44C164.743 179.2 164.903 178.893 164.903 178.52C164.903 178.12 164.763 177.807 164.483 177.58C164.23 177.38 163.796 177.28 163.183 177.28H161.343V179.72ZM174.857 173.88V172.7H176.297V181H174.857V179.84C174.137 180.773 173.19 181.24 172.017 181.24C170.897 181.24 169.943 180.853 169.157 180.08C168.37 179.307 167.977 178.227 167.977 176.84C167.977 175.48 168.363 174.42 169.137 173.66C169.923 172.887 170.883 172.5 172.017 172.5C173.217 172.5 174.163 172.96 174.857 173.88ZM172.177 173.78C171.417 173.78 170.77 174.053 170.237 174.6C169.717 175.133 169.457 175.88 169.457 176.84C169.457 177.76 169.697 178.513 170.177 179.1C170.67 179.673 171.337 179.96 172.177 179.96C173.017 179.96 173.683 179.66 174.177 179.06C174.683 178.46 174.937 177.727 174.937 176.86C174.937 175.873 174.657 175.113 174.097 174.58C173.537 174.047 172.897 173.78 172.177 173.78ZM179.024 181V172.7H180.464V176.1H184.384V172.7H185.824V181H184.384V177.42H180.464V181H179.024ZM188.536 181V172.7H189.976V176.1H193.896V172.7H195.336V181H193.896V177.42H189.976V181H188.536ZM198.048 181V172.7H199.488V175.88H200.968C202.114 175.88 202.954 176.153 203.488 176.7C203.914 177.127 204.128 177.707 204.128 178.44C204.128 179.213 203.881 179.833 203.388 180.3C202.894 180.767 202.081 181 200.948 181H198.048ZM199.488 179.72H200.828C201.428 179.72 201.854 179.647 202.108 179.5C202.468 179.26 202.648 178.907 202.648 178.44C202.648 177.96 202.474 177.613 202.128 177.4C201.888 177.24 201.461 177.16 200.848 177.16H199.488V179.72ZM205.128 181V172.7H206.568V181H205.128ZM209.278 172.7H210.718V178.18L216.398 172.06V181H214.958V175.46L209.278 181.58V172.7ZM209.998 169.12L211.198 168.66C211.438 169.46 212.005 169.86 212.898 169.86C213.791 169.86 214.358 169.46 214.598 168.66L215.798 169.12C215.585 169.72 215.218 170.193 214.698 170.54C214.191 170.887 213.591 171.06 212.898 171.06C212.205 171.06 211.598 170.887 211.078 170.54C210.571 170.193 210.211 169.72 209.998 169.12ZM230.29 173.3V175.02C229.636 174.193 228.77 173.78 227.69 173.78C226.876 173.78 226.183 174.06 225.61 174.62C225.036 175.167 224.75 175.92 224.75 176.88C224.75 177.84 225.036 178.593 225.61 179.14C226.183 179.687 226.87 179.96 227.67 179.96C228.736 179.96 229.63 179.527 230.35 178.66V180.38C229.563 180.953 228.683 181.24 227.71 181.24C226.416 181.24 225.35 180.833 224.51 180.02C223.683 179.193 223.27 178.153 223.27 176.9C223.27 175.633 223.69 174.587 224.53 173.76C225.37 172.92 226.43 172.5 227.71 172.5C228.67 172.5 229.53 172.767 230.29 173.3ZM232.559 172.7H239.239V181H237.799V174.02H233.999V181H232.559V172.7ZM241.954 172.7H243.394V178.18L249.074 172.06V181H247.634V175.46L241.954 181.58V172.7ZM258.298 173.3V175.02C257.644 174.193 256.778 173.78 255.698 173.78C254.884 173.78 254.191 174.06 253.618 174.62C253.044 175.167 252.758 175.92 252.758 176.88C252.758 177.84 253.044 178.593 253.618 179.14C254.191 179.687 254.878 179.96 255.678 179.96C256.744 179.96 257.638 179.527 258.358 178.66V180.38C257.571 180.953 256.691 181.24 255.717 181.24C254.424 181.24 253.358 180.833 252.518 180.02C251.691 179.193 251.278 178.153 251.278 176.9C251.278 175.633 251.698 174.587 252.538 173.76C253.378 172.92 254.438 172.5 255.717 172.5C256.678 172.5 257.538 172.767 258.298 173.3ZM267.372 180C266.546 180.827 265.499 181.24 264.232 181.24C262.966 181.24 261.912 180.827 261.072 180C260.246 179.173 259.832 178.133 259.832 176.88C259.832 175.613 260.246 174.567 261.072 173.74C261.912 172.913 262.966 172.5 264.232 172.5C265.499 172.5 266.546 172.913 267.372 173.74C268.212 174.567 268.632 175.613 268.632 176.88C268.632 178.133 268.212 179.173 267.372 180ZM266.292 174.6C265.732 174.053 265.046 173.78 264.232 173.78C263.419 173.78 262.726 174.06 262.152 174.62C261.592 175.167 261.312 175.92 261.312 176.88C261.312 177.84 261.599 178.593 262.172 179.14C262.746 179.687 263.432 179.96 264.232 179.96C265.032 179.96 265.719 179.687 266.292 179.14C266.866 178.593 267.152 177.84 267.152 176.88C267.152 175.907 266.866 175.147 266.292 174.6ZM270.84 172.7H272.28V176.1L275.64 172.7H277.4L273.8 176.4L277.84 181H275.96L272.72 177.36L272.28 177.78V181H270.84V172.7ZM292.206 181H283.586L288.446 175.38C289.273 174.407 289.793 173.76 290.006 173.44C290.499 172.733 290.746 172.053 290.746 171.4C290.746 170.64 290.499 170.02 290.006 169.54C289.513 169.047 288.873 168.8 288.086 168.8C287.126 168.8 286.386 169.193 285.866 169.98C285.586 170.407 285.439 170.933 285.426 171.56H283.946C283.999 170.427 284.333 169.507 284.946 168.8C285.746 167.893 286.799 167.44 288.106 167.44C289.293 167.44 290.273 167.82 291.046 168.58C291.833 169.327 292.226 170.273 292.226 171.42C292.226 172.313 291.873 173.267 291.166 174.28C290.806 174.773 290.199 175.513 289.346 176.5L286.566 179.64H292.206V181ZM299.961 185.6L302.601 180.22L298.781 172.7H300.421L303.361 178.64L306.061 172.7H307.661L301.561 185.6H299.961ZM310.62 179.84V185.6H309.18V172.7H310.62V173.86C311.354 172.953 312.3 172.5 313.46 172.5C314.7 172.5 315.68 172.94 316.4 173.82C317.134 174.687 317.5 175.713 317.5 176.9C317.5 178.1 317.14 179.127 316.42 179.98C315.7 180.82 314.734 181.24 313.52 181.24C312.307 181.24 311.34 180.773 310.62 179.84ZM313.32 179.96C314.134 179.96 314.787 179.667 315.28 179.08C315.774 178.48 316.02 177.753 316.02 176.9C316.02 175.94 315.747 175.18 315.2 174.62C314.654 174.06 314.02 173.78 313.3 173.78C312.58 173.78 311.94 174.06 311.38 174.62C310.82 175.18 310.54 175.933 310.54 176.88C310.54 177.747 310.794 178.48 311.3 179.08C311.82 179.667 312.494 179.96 313.32 179.96ZM326.728 180C325.901 180.827 324.854 181.24 323.588 181.24C322.321 181.24 321.268 180.827 320.428 180C319.601 179.173 319.188 178.133 319.188 176.88C319.188 175.613 319.601 174.567 320.428 173.74C321.268 172.913 322.321 172.5 323.588 172.5C324.854 172.5 325.901 172.913 326.728 173.74C327.568 174.567 327.988 175.613 327.988 176.88C327.988 178.133 327.568 179.173 326.728 180ZM325.648 174.6C325.088 174.053 324.401 173.78 323.588 173.78C322.774 173.78 322.081 174.06 321.508 174.62C320.948 175.167 320.668 175.92 320.668 176.88C320.668 177.84 320.954 178.593 321.528 179.14C322.101 179.687 322.788 179.96 323.588 179.96C324.388 179.96 325.074 179.687 325.648 179.14C326.221 178.593 326.508 177.84 326.508 176.88C326.508 175.907 326.221 175.147 325.648 174.6ZM330.196 172.7H333.336C334.096 172.7 334.676 172.86 335.076 173.18C335.556 173.567 335.796 174.087 335.796 174.74C335.796 175.46 335.496 176.013 334.896 176.4C335.309 176.507 335.656 176.693 335.936 176.96C336.376 177.387 336.596 177.92 336.596 178.56C336.596 179.36 336.309 179.987 335.736 180.44C335.243 180.813 334.589 181 333.776 181H330.196V172.7ZM331.636 176.08H333.156C333.543 176.08 333.849 176 334.076 175.84C334.343 175.64 334.476 175.353 334.476 174.98C334.476 174.647 334.343 174.38 334.076 174.18C333.876 174.047 333.489 173.98 332.916 173.98H331.636V176.08ZM331.636 179.72H333.416C334.029 179.72 334.463 179.627 334.716 179.44C335.036 179.2 335.196 178.893 335.196 178.52C335.196 178.12 335.056 177.807 334.776 177.58C334.523 177.38 334.089 177.28 333.476 177.28H331.636V179.72ZM338.79 181V172.7H340.23V176.1H344.15V172.7H345.59V181H344.15V177.42H340.23V181H338.79ZM347.341 181L349.921 177.58C349.841 177.58 349.728 177.567 349.581 177.54C349.448 177.513 349.248 177.447 348.981 177.34C348.715 177.233 348.495 177.093 348.321 176.92C347.881 176.507 347.661 175.953 347.661 175.26C347.661 174.473 347.908 173.853 348.401 173.4C348.895 172.933 349.708 172.7 350.841 172.7H353.741V181H352.301V177.66H351.421L349.061 181H347.341ZM352.301 176.46V173.98H350.961C350.335 173.98 349.901 174.053 349.661 174.2C349.315 174.427 349.141 174.767 349.141 175.22C349.141 175.673 349.315 176.007 349.661 176.22C349.915 176.38 350.341 176.46 350.941 176.46H352.301ZM356.685 180.9C356.485 180.7 356.385 180.467 356.385 180.2C356.385 179.933 356.485 179.7 356.685 179.5C356.885 179.3 357.119 179.2 357.385 179.2C357.652 179.2 357.885 179.3 358.085 179.5C358.285 179.7 358.385 179.933 358.385 180.2C358.385 180.467 358.285 180.7 358.085 180.9C357.885 181.1 357.652 181.2 357.385 181.2C357.119 181.2 356.885 181.1 356.685 180.9Z" fill="#0B1530"/>
<path d="M336 55L336 74.2308" stroke="#33F7C3" stroke-width="2"/>
<path d="M336 75L340 71.9231" stroke="#33F7C3" stroke-width="2" stroke-linecap="round"/>
<path d="M336 75L332 71.9231" stroke="#33F7C3" stroke-width="2" stroke-linecap="round"/>
<path d="M336 55.002L332 58.0789" stroke="#33F7C3" stroke-width="2" stroke-linecap="round"/>
<path d="M336 55.002L340 58.0789" stroke="#33F7C3" stroke-width="2" stroke-linecap="round"/>
<rect x="343.75" y="54.7504" width="43.9061" height="20.7027" rx="3.75176" fill="#33F7C3"/>
<rect x="343.75" y="54.7504" width="43.9061" height="20.7027" rx="3.75176" stroke="#33F7C3" stroke-width="1.5007"/>
<path d="M350.911 69.6016V68.2714L354.019 65.3936C354.283 65.1378 354.505 64.9076 354.684 64.703C354.866 64.4983 355.004 64.2979 355.098 64.1018C355.192 63.9029 355.238 63.6883 355.238 63.4581C355.238 63.2023 355.18 62.982 355.064 62.7972C354.947 62.6096 354.788 62.4661 354.586 62.3666C354.384 62.2643 354.156 62.2132 353.9 62.2132C353.633 62.2132 353.399 62.2672 353.201 62.3752C353.002 62.4832 352.848 62.6381 352.74 62.8399C352.632 63.0417 352.578 63.2818 352.578 63.5604H350.826C350.826 62.9891 350.955 62.4931 351.214 62.0725C351.472 61.6518 351.835 61.3264 352.301 61.0962C352.767 60.8659 353.304 60.7508 353.912 60.7508C354.538 60.7508 355.082 60.8617 355.545 61.0834C356.011 61.3022 356.374 61.6063 356.633 61.9957C356.891 62.3851 357.02 62.8313 357.02 63.3344C357.02 63.6641 356.955 63.9896 356.824 64.3107C356.696 64.6319 356.468 64.9886 356.138 65.3808C355.808 65.7702 355.344 66.2378 354.744 66.7835L353.469 68.0326V68.0923H357.136V69.6016H350.911ZM361.897 69.7934C361.163 69.7906 360.532 69.6101 360.004 69.252C359.478 68.8938 359.073 68.3751 358.789 67.6958C358.507 67.0165 358.368 66.1994 358.371 65.2444C358.371 64.2923 358.512 63.4808 358.793 62.81C359.077 62.1393 359.482 61.6291 360.008 61.2795C360.537 60.927 361.166 60.7508 361.897 60.7508C362.627 60.7508 363.255 60.927 363.781 61.2795C364.31 61.6319 364.716 62.1435 365 62.8143C365.285 63.4822 365.425 64.2923 365.423 65.2444C365.423 66.2022 365.28 67.0208 364.996 67.7001C364.715 68.3794 364.311 68.8981 363.785 69.2562C363.26 69.6144 362.63 69.7934 361.897 69.7934ZM361.897 68.2629C362.397 68.2629 362.796 68.0113 363.095 67.5083C363.393 67.0052 363.541 66.2506 363.538 65.2444C363.538 64.5822 363.47 64.0308 363.333 63.5902C363.2 63.1497 363.009 62.8186 362.762 62.5969C362.518 62.3752 362.229 62.2643 361.897 62.2643C361.399 62.2643 361.001 62.513 360.703 63.0104C360.405 63.5078 360.254 64.2525 360.251 65.2444C360.251 65.9152 360.318 66.4751 360.451 66.9242C360.588 67.3704 360.78 67.7058 361.027 67.9303C361.274 68.152 361.564 68.2629 361.897 68.2629ZM366.756 72.0573V63.053H368.546V64.153H368.627C368.707 63.9768 368.822 63.7977 368.973 63.6158C369.126 63.4311 369.325 63.2776 369.57 63.1554C369.817 63.0303 370.124 62.9678 370.491 62.9678C370.968 62.9678 371.409 63.0928 371.812 63.3429C372.216 63.5902 372.538 63.964 372.78 64.4642C373.022 64.9616 373.142 65.5855 373.142 66.3358C373.142 67.0663 373.024 67.683 372.789 68.1861C372.555 68.6864 372.237 69.0658 371.834 69.3244C371.433 69.5802 370.984 69.7081 370.486 69.7081C370.134 69.7081 369.834 69.6499 369.587 69.5333C369.342 69.4168 369.142 69.2704 368.986 69.0942C368.829 68.9152 368.71 68.7347 368.627 68.5528H368.572V72.0573H366.756ZM368.534 66.3273C368.534 66.7167 368.588 67.0563 368.696 67.3462C368.804 67.6362 368.96 67.8621 369.165 68.0241C369.369 68.1833 369.618 68.2629 369.911 68.2629C370.206 68.2629 370.456 68.1819 370.661 68.0199C370.866 67.855 371.021 67.6276 371.126 67.3377C371.234 67.045 371.288 66.7082 371.288 66.3273C371.288 65.9493 371.235 65.6167 371.13 65.3297C371.025 65.0426 370.87 64.8181 370.665 64.6561C370.461 64.4941 370.209 64.4131 369.911 64.4131C369.615 64.4131 369.365 64.4912 369.16 64.6475C368.959 64.8039 368.804 65.0256 368.696 65.3126C368.588 65.5997 368.534 65.9379 368.534 66.3273ZM375.636 63.053L376.839 65.3425L378.071 63.053H379.934L378.037 66.3273L379.985 69.6016H378.131L376.839 67.3377L375.568 69.6016H373.692L375.636 66.3273L373.761 63.053H375.636Z" fill="#0B1530"/>
<path d="M57 200H19" stroke="#33F7C3" stroke-width="2"/>
<path d="M58 200L54 196" stroke="#33F7C3" stroke-width="2" stroke-linecap="round"/>
<path d="M58 200L54 204" stroke="#33F7C3" stroke-width="2" stroke-linecap="round"/>
<path d="M18 200L22 204" stroke="#33F7C3" stroke-width="2" stroke-linecap="round"/>
<path d="M18 200L22 196" stroke="#33F7C3" stroke-width="2" stroke-linecap="round"/>
<rect x="15.7504" y="210.75" width="43.9061" height="20.7027" rx="3.75176" fill="#33F7C3"/>
<rect x="15.7504" y="210.75" width="43.9061" height="20.7027" rx="3.75176" stroke="#33F7C3" stroke-width="1.5007"/>
<path d="M22.7792 224.067V222.613L26.4243 216.87H27.6778V218.883H26.9359L24.638 222.519V222.587H29.818V224.067H22.7792ZM26.9701 225.602V223.623L27.0042 222.98V216.87H28.7351V225.602H26.9701ZM34.4714 225.793C33.7381 225.791 33.1072 225.61 32.5785 225.252C32.0527 224.894 31.6477 224.375 31.3634 223.696C31.0821 223.017 30.9428 222.199 30.9456 221.244C30.9456 220.292 31.0863 219.481 31.3677 218.81C31.6519 218.139 32.057 217.629 32.5828 217.279C33.1114 216.927 33.741 216.751 34.4714 216.751C35.2019 216.751 35.83 216.927 36.3558 217.279C36.8845 217.632 37.2909 218.144 37.5752 218.814C37.8594 219.482 38.0001 220.292 37.9972 221.244C37.9972 222.202 37.8551 223.021 37.5709 223.7C37.2895 224.379 36.8859 224.898 36.3601 225.256C35.8343 225.614 35.2047 225.793 34.4714 225.793ZM34.4714 224.263C34.9717 224.263 35.371 224.011 35.6694 223.508C35.9679 223.005 36.1157 222.251 36.1128 221.244C36.1128 220.582 36.0446 220.031 35.9082 219.59C35.7746 219.15 35.5842 218.819 35.3369 218.597C35.0925 218.375 34.804 218.264 34.4714 218.264C33.974 218.264 33.5761 218.513 33.2777 219.01C32.9793 219.508 32.8286 220.252 32.8258 221.244C32.8258 221.915 32.8926 222.475 33.0262 222.924C33.1626 223.37 33.3544 223.706 33.6017 223.93C33.849 224.152 34.1389 224.263 34.4714 224.263ZM39.3306 228.057V219.053H41.1212V220.153H41.2022C41.2818 219.977 41.3969 219.798 41.5476 219.616C41.701 219.431 41.9 219.278 42.1444 219.155C42.3917 219.03 42.6987 218.968 43.0653 218.968C43.5428 218.968 43.9834 219.093 44.3869 219.343C44.7905 219.59 45.1131 219.964 45.3547 220.464C45.5963 220.962 45.7171 221.585 45.7171 222.336C45.7171 223.066 45.5992 223.683 45.3633 224.186C45.1302 224.686 44.8119 225.066 44.4083 225.324C44.0075 225.58 43.5584 225.708 43.061 225.708C42.7086 225.708 42.4087 225.65 42.1615 225.533C41.917 225.417 41.7167 225.27 41.5603 225.094C41.404 224.915 41.2846 224.735 41.2022 224.553H41.1468V228.057H39.3306ZM41.1084 222.327C41.1084 222.717 41.1624 223.056 41.2704 223.346C41.3784 223.636 41.5348 223.862 41.7394 224.024C41.944 224.183 42.1927 224.263 42.4855 224.263C42.7811 224.263 43.0312 224.182 43.2358 224.02C43.4405 223.855 43.5954 223.628 43.7005 223.338C43.8086 223.045 43.8626 222.708 43.8626 222.327C43.8626 221.949 43.81 221.617 43.7048 221.33C43.5996 221.043 43.4447 220.818 43.2401 220.656C43.0355 220.494 42.7839 220.413 42.4855 220.413C42.1899 220.413 41.9398 220.491 41.7351 220.648C41.5333 220.804 41.3784 221.026 41.2704 221.313C41.1624 221.6 41.1084 221.938 41.1084 222.327ZM48.2112 219.053L49.4135 221.342L50.6456 219.053H52.5087L50.6115 222.327L52.5598 225.602H50.7053L49.4135 223.338L48.143 225.602H46.2671L48.2112 222.327L46.3353 219.053H48.2112Z" fill="#0B1530"/>
</svg>
