<svg width="416" height="153" viewBox="0 0 416 153" fill="none" xmlns="http://www.w3.org/2000/svg">
<rect width="416" height="153" rx="24" fill="#F5F6F8"/>
<path d="M328 108L60 108M328 68L60 68" stroke="#33F7C3"/>
<path d="M68.24 56.06H65V68H63.52V56.06H60.28V54.66H68.24V56.06ZM74.8052 65.22L76.0052 65.88C75.7252 66.4133 75.3852 66.86 74.9852 67.22C74.2252 67.9 73.3052 68.24 72.2252 68.24C71.1052 68.24 70.1385 67.88 69.3252 67.16C68.5252 66.4267 68.1252 65.34 68.1252 63.9C68.1252 62.6333 68.4852 61.5867 69.2052 60.76C69.9385 59.92 70.9185 59.5 72.1452 59.5C73.5318 59.5 74.5785 60.0067 75.2852 61.02C75.8452 61.82 76.1052 62.86 76.0652 64.14H69.6052C69.6185 64.98 69.8785 65.66 70.3852 66.18C70.8918 66.7 71.5118 66.96 72.2452 66.96C72.8985 66.96 73.4652 66.76 73.9452 66.36C74.3185 66.04 74.6052 65.66 74.8052 65.22ZM69.7052 62.94H74.5852C74.4652 62.2867 74.1785 61.7667 73.7252 61.38C73.2852 60.98 72.7585 60.78 72.1452 60.78C71.5452 60.78 71.0118 60.9867 70.5452 61.4C70.0918 61.8 69.8118 62.3133 69.7052 62.94ZM78.2741 59.7H79.7141V63.1L83.0741 59.7H84.8341L81.2341 63.4L85.2741 68H83.3941L80.1541 64.36L79.7141 64.78V68H78.2741V59.7ZM92.7819 60.3V62.02C92.1285 61.1933 91.2619 60.78 90.1819 60.78C89.3685 60.78 88.6752 61.06 88.1019 61.62C87.5285 62.1667 87.2419 62.92 87.2419 63.88C87.2419 64.84 87.5285 65.5933 88.1019 66.14C88.6752 66.6867 89.3619 66.96 90.1619 66.96C91.2285 66.96 92.1219 66.5267 92.8419 65.66V67.38C92.0552 67.9533 91.1752 68.24 90.2019 68.24C88.9085 68.24 87.8419 67.8333 87.0019 67.02C86.1752 66.1933 85.7619 65.1533 85.7619 63.9C85.7619 62.6333 86.1819 61.5867 87.0219 60.76C87.8619 59.92 88.9219 59.5 90.2019 59.5C91.1619 59.5 92.0219 59.7667 92.7819 60.3ZM100.491 61.02H97.8914V68H96.4514V61.02H93.8514V59.7H100.491V61.02ZM106.673 59.7H109.813C110.573 59.7 111.153 59.86 111.553 60.18C112.033 60.5667 112.273 61.0867 112.273 61.74C112.273 62.46 111.973 63.0133 111.373 63.4C111.786 63.5067 112.133 63.6933 112.413 63.96C112.853 64.3867 113.073 64.92 113.073 65.56C113.073 66.36 112.786 66.9867 112.213 67.44C111.719 67.8133 111.066 68 110.253 68H106.673V59.7ZM108.113 63.08H109.633C110.019 63.08 110.326 63 110.553 62.84C110.819 62.64 110.953 62.3533 110.953 61.98C110.953 61.6467 110.819 61.38 110.553 61.18C110.353 61.0467 109.966 60.98 109.393 60.98H108.113V63.08ZM108.113 66.72H109.893C110.506 66.72 110.939 66.6267 111.192 66.44C111.513 66.2 111.673 65.8933 111.673 65.52C111.673 65.12 111.533 64.8067 111.253 64.58C110.999 64.38 110.566 64.28 109.953 64.28H108.113V66.72ZM115.266 68V59.7H116.706V62.88H118.186C119.333 62.88 120.173 63.1533 120.706 63.7C121.133 64.1267 121.346 64.7067 121.346 65.44C121.346 66.2133 121.1 66.8333 120.606 67.3C120.113 67.7667 119.3 68 118.166 68H115.266ZM116.706 66.72H118.046C118.646 66.72 119.073 66.6467 119.326 66.5C119.686 66.26 119.866 65.9067 119.866 65.44C119.866 64.96 119.693 64.6133 119.346 64.4C119.106 64.24 118.68 64.16 118.066 64.16H116.706V66.72ZM122.346 68V59.7H123.786V68H122.346ZM127.937 66.84V72.6H126.497V59.7H127.937V60.86C128.67 59.9533 129.617 59.5 130.777 59.5C132.017 59.5 132.997 59.94 133.717 60.82C134.45 61.6867 134.817 62.7133 134.817 63.9C134.817 65.1 134.457 66.1267 133.737 66.98C133.017 67.82 132.05 68.24 130.837 68.24C129.623 68.24 128.657 67.7733 127.937 66.84ZM130.637 66.96C131.45 66.96 132.103 66.6667 132.597 66.08C133.09 65.48 133.337 64.7533 133.337 63.9C133.337 62.94 133.063 62.18 132.517 61.62C131.97 61.06 131.337 60.78 130.617 60.78C129.897 60.78 129.257 61.06 128.697 61.62C128.137 62.18 127.857 62.9333 127.857 63.88C127.857 64.7467 128.11 65.48 128.617 66.08C129.137 66.6667 129.81 66.96 130.637 66.96ZM143.384 60.88V59.7H144.824V68H143.384V66.84C142.664 67.7733 141.717 68.24 140.544 68.24C139.424 68.24 138.471 67.8533 137.684 67.08C136.897 66.3067 136.504 65.2267 136.504 63.84C136.504 62.48 136.891 61.42 137.664 60.66C138.451 59.8867 139.411 59.5 140.544 59.5C141.744 59.5 142.691 59.96 143.384 60.88ZM140.704 60.78C139.944 60.78 139.297 61.0533 138.764 61.6C138.244 62.1333 137.984 62.88 137.984 63.84C137.984 64.76 138.224 65.5133 138.704 66.1C139.197 66.6733 139.864 66.96 140.704 66.96C141.544 66.96 142.211 66.66 142.704 66.06C143.211 65.46 143.464 64.7267 143.464 63.86C143.464 62.8733 143.184 62.1133 142.624 61.58C142.064 61.0467 141.424 60.78 140.704 60.78ZM147.551 59.7H150.691C151.451 59.7 152.031 59.86 152.431 60.18C152.911 60.5667 153.151 61.0867 153.151 61.74C153.151 62.46 152.851 63.0133 152.251 63.4C152.665 63.5067 153.011 63.6933 153.291 63.96C153.731 64.3867 153.951 64.92 153.951 65.56C153.951 66.36 153.665 66.9867 153.091 67.44C152.598 67.8133 151.945 68 151.131 68H147.551V59.7ZM148.991 63.08H150.511C150.898 63.08 151.205 63 151.431 62.84C151.698 62.64 151.831 62.3533 151.831 61.98C151.831 61.6467 151.698 61.38 151.431 61.18C151.231 61.0467 150.845 60.98 150.271 60.98H148.991V63.08ZM148.991 66.72H150.771C151.385 66.72 151.818 66.6267 152.071 66.44C152.391 66.2 152.551 65.8933 152.551 65.52C152.551 65.12 152.411 64.8067 152.131 64.58C151.878 64.38 151.445 64.28 150.831 64.28H148.991V66.72ZM156.145 68V59.7H157.585V63.1H161.505V59.7H162.945V68H161.505V64.42H157.585V68H156.145ZM165.657 59.7H167.097V65.18L172.777 59.06V68H171.337V62.46L165.657 68.58V59.7ZM175.501 59.7H178.641C179.401 59.7 179.981 59.86 180.381 60.18C180.861 60.5667 181.101 61.0867 181.101 61.74C181.101 62.46 180.801 63.0133 180.201 63.4C180.614 63.5067 180.961 63.6933 181.241 63.96C181.681 64.3867 181.901 64.92 181.901 65.56C181.901 66.36 181.614 66.9867 181.041 67.44C180.547 67.8133 179.894 68 179.081 68H175.501V59.7ZM176.941 63.08H178.461C178.847 63.08 179.154 63 179.381 62.84C179.647 62.64 179.781 62.3533 179.781 61.98C179.781 61.6467 179.647 61.38 179.381 61.18C179.181 61.0467 178.794 60.98 178.221 60.98H176.941V63.08ZM176.941 66.72H178.721C179.334 66.72 179.767 66.6267 180.021 66.44C180.341 66.2 180.501 65.8933 180.501 65.52C180.501 65.12 180.361 64.8067 180.081 64.58C179.827 64.38 179.394 64.28 178.781 64.28H176.941V66.72ZM190.454 60.88V59.7H191.894V68H190.454V66.84C189.734 67.7733 188.788 68.24 187.614 68.24C186.494 68.24 185.541 67.8533 184.754 67.08C183.968 66.3067 183.574 65.2267 183.574 63.84C183.574 62.48 183.961 61.42 184.734 60.66C185.521 59.8867 186.481 59.5 187.614 59.5C188.814 59.5 189.761 59.96 190.454 60.88ZM187.774 60.78C187.014 60.78 186.368 61.0533 185.834 61.6C185.314 62.1333 185.054 62.88 185.054 63.84C185.054 64.76 185.294 65.5133 185.774 66.1C186.268 66.6733 186.934 66.96 187.774 66.96C188.614 66.96 189.281 66.66 189.774 66.06C190.281 65.46 190.534 64.7267 190.534 63.86C190.534 62.8733 190.254 62.1133 189.694 61.58C189.134 61.0467 188.494 60.78 187.774 60.78ZM194.622 59.7H196.062V65.18L201.742 59.06V68H200.302V62.46L194.622 68.58V59.7ZM195.342 56.12L196.542 55.66C196.782 56.46 197.348 56.86 198.242 56.86C199.135 56.86 199.702 56.46 199.942 55.66L201.142 56.12C200.928 56.72 200.562 57.1933 200.042 57.54C199.535 57.8867 198.935 58.06 198.242 58.06C197.548 58.06 196.942 57.8867 196.422 57.54C195.915 57.1933 195.555 56.72 195.342 56.12ZM209.905 61.02H207.305V68H205.865V61.02H203.265V59.7H209.905V61.02ZM217.383 65.22L218.583 65.88C218.303 66.4133 217.963 66.86 217.563 67.22C216.803 67.9 215.883 68.24 214.803 68.24C213.683 68.24 212.717 67.88 211.903 67.16C211.103 66.4267 210.703 65.34 210.703 63.9C210.703 62.6333 211.063 61.5867 211.783 60.76C212.517 59.92 213.497 59.5 214.723 59.5C216.11 59.5 217.157 60.0067 217.863 61.02C218.423 61.82 218.683 62.86 218.643 64.14H212.183C212.197 64.98 212.457 65.66 212.963 66.18C213.47 66.7 214.09 66.96 214.823 66.96C215.477 66.96 216.043 66.76 216.523 66.36C216.897 66.04 217.183 65.66 217.383 65.22ZM212.283 62.94H217.163C217.043 62.2867 216.757 61.7667 216.303 61.38C215.863 60.98 215.337 60.78 214.723 60.78C214.123 60.78 213.59 60.9867 213.123 61.4C212.67 61.8 212.39 62.3133 212.283 62.94Z" fill="#0B1530"/>
<path d="M61.36 99.7H68.04V108H66.6V101.02H62.8V108H61.36V99.7ZM77.7745 107C76.9479 107.827 75.9012 108.24 74.6345 108.24C73.3679 108.24 72.3145 107.827 71.4745 107C70.6479 106.173 70.2345 105.133 70.2345 103.88C70.2345 102.613 70.6479 101.567 71.4745 100.74C72.3145 99.9133 73.3679 99.5 74.6345 99.5C75.9012 99.5 76.9479 99.9133 77.7745 100.74C78.6145 101.567 79.0345 102.613 79.0345 103.88C79.0345 105.133 78.6145 106.173 77.7745 107ZM76.6945 101.6C76.1345 101.053 75.4479 100.78 74.6345 100.78C73.8212 100.78 73.1279 101.06 72.5545 101.62C71.9945 102.167 71.7145 102.92 71.7145 103.88C71.7145 104.84 72.0012 105.593 72.5745 106.14C73.1479 106.687 73.8345 106.96 74.6345 106.96C75.4345 106.96 76.1212 106.687 76.6945 106.14C77.2679 105.593 77.5545 104.84 77.5545 103.88C77.5545 102.907 77.2679 102.147 76.6945 101.6ZM92.1908 99.7V108H90.7508V101.02H87.7908V104.76C87.7908 105.84 87.5774 106.64 87.1508 107.16C86.6708 107.747 86.0041 108.04 85.1508 108.04C85.0441 108.04 84.8974 108.027 84.7108 108V106.68C84.8441 106.707 84.9508 106.72 85.0308 106.72C85.4974 106.72 85.8441 106.54 86.0708 106.18C86.2574 105.887 86.3508 105.413 86.3508 104.76V99.7H92.1908ZM101.075 105.22L102.275 105.88C101.995 106.413 101.655 106.86 101.255 107.22C100.495 107.9 99.5747 108.24 98.4947 108.24C97.3747 108.24 96.408 107.88 95.5947 107.16C94.7947 106.427 94.3947 105.34 94.3947 103.9C94.3947 102.633 94.7547 101.587 95.4747 100.76C96.208 99.92 97.188 99.5 98.4147 99.5C99.8014 99.5 100.848 100.007 101.555 101.02C102.115 101.82 102.375 102.86 102.335 104.14H95.8747C95.888 104.98 96.148 105.66 96.6547 106.18C97.1614 106.7 97.7814 106.96 98.5147 106.96C99.168 106.96 99.7347 106.76 100.215 106.36C100.588 106.04 100.875 105.66 101.075 105.22ZM95.9747 102.94H100.855C100.735 102.287 100.448 101.767 99.9947 101.38C99.5547 100.98 99.028 100.78 98.4147 100.78C97.8147 100.78 97.2814 100.987 96.8147 101.4C96.3614 101.8 96.0814 102.313 95.9747 102.94ZM104.544 99.7H107.684C108.444 99.7 109.024 99.86 109.424 100.18C109.904 100.567 110.144 101.087 110.144 101.74C110.144 102.46 109.844 103.013 109.244 103.4C109.657 103.507 110.004 103.693 110.284 103.96C110.724 104.387 110.944 104.92 110.944 105.56C110.944 106.36 110.657 106.987 110.084 107.44C109.59 107.813 108.937 108 108.124 108H104.544V99.7ZM105.984 103.08H107.504C107.89 103.08 108.197 103 108.424 102.84C108.69 102.64 108.824 102.353 108.824 101.98C108.824 101.647 108.69 101.38 108.424 101.18C108.224 101.047 107.837 100.98 107.264 100.98H105.984V103.08ZM105.984 106.72H107.764C108.377 106.72 108.81 106.627 109.064 106.44C109.384 106.2 109.544 105.893 109.544 105.52C109.544 105.12 109.404 104.807 109.124 104.58C108.87 104.38 108.437 104.28 107.824 104.28H105.984V106.72ZM120.157 107C119.331 107.827 118.284 108.24 117.017 108.24C115.751 108.24 114.697 107.827 113.857 107C113.031 106.173 112.617 105.133 112.617 103.88C112.617 102.613 113.031 101.567 113.857 100.74C114.697 99.9133 115.751 99.5 117.017 99.5C118.284 99.5 119.331 99.9133 120.157 100.74C120.997 101.567 121.417 102.613 121.417 103.88C121.417 105.133 120.997 106.173 120.157 107ZM119.077 101.6C118.517 101.053 117.831 100.78 117.017 100.78C116.204 100.78 115.511 101.06 114.937 101.62C114.377 102.167 114.097 102.92 114.097 103.88C114.097 104.84 114.384 105.593 114.957 106.14C115.531 106.687 116.217 106.96 117.017 106.96C117.817 106.96 118.504 106.687 119.077 106.14C119.651 105.593 119.937 104.84 119.937 103.88C119.937 102.907 119.651 102.147 119.077 101.6ZM122.666 108L124.666 99.06L128.106 105.82L131.466 99.06L133.466 108H131.986L130.886 102.86L128.066 108.58L125.206 102.86L124.146 108H122.666ZM135.207 112.6L137.847 107.22L134.027 99.7H135.667L138.607 105.64L141.307 99.7H142.907L136.807 112.6H135.207ZM149.094 99.7H150.534V103.1L153.894 99.7H155.654L152.054 103.4L156.094 108H154.214L150.974 104.36L150.534 104.78V108H149.094V99.7ZM158.972 106.84V112.6H157.532V99.7H158.972V100.86C159.705 99.9533 160.652 99.5 161.812 99.5C163.052 99.5 164.032 99.94 164.752 100.82C165.485 101.687 165.852 102.713 165.852 103.9C165.852 105.1 165.492 106.127 164.772 106.98C164.052 107.82 163.085 108.24 161.872 108.24C160.659 108.24 159.692 107.773 158.972 106.84ZM161.672 106.96C162.485 106.96 163.139 106.667 163.632 106.08C164.125 105.48 164.372 104.753 164.372 103.9C164.372 102.94 164.099 102.18 163.552 101.62C163.005 101.06 162.372 100.78 161.652 100.78C160.932 100.78 160.292 101.06 159.732 101.62C159.172 102.18 158.892 102.933 158.892 103.88C158.892 104.747 159.145 105.48 159.652 106.08C160.172 106.667 160.845 106.96 161.672 106.96ZM174.419 100.88V99.7H175.859V108H174.419V106.84C173.699 107.773 172.753 108.24 171.579 108.24C170.459 108.24 169.506 107.853 168.719 107.08C167.933 106.307 167.539 105.227 167.539 103.84C167.539 102.48 167.926 101.42 168.699 100.66C169.486 99.8867 170.446 99.5 171.579 99.5C172.779 99.5 173.726 99.96 174.419 100.88ZM171.739 100.78C170.979 100.78 170.333 101.053 169.799 101.6C169.279 102.133 169.019 102.88 169.019 103.84C169.019 104.76 169.259 105.513 169.739 106.1C170.233 106.673 170.899 106.96 171.739 106.96C172.579 106.96 173.246 106.66 173.739 106.06C174.246 105.46 174.499 104.727 174.499 103.86C174.499 102.873 174.219 102.113 173.659 101.58C173.099 101.047 172.459 100.78 171.739 100.78ZM180.027 103.1H181.527C181.66 102.167 182.033 101.38 182.647 100.74C183.433 99.9133 184.48 99.5 185.787 99.5C187.067 99.5 188.12 99.9133 188.947 100.74C189.773 101.567 190.187 102.613 190.187 103.88C190.187 105.133 189.767 106.173 188.927 107C188.1 107.827 187.053 108.24 185.787 108.24C184.333 108.24 183.193 107.72 182.367 106.68C181.833 106.013 181.527 105.26 181.447 104.42H180.027V108H178.587V99.7H180.027V103.1ZM185.787 100.78C184.987 100.78 184.307 101.06 183.747 101.62C183.2 102.167 182.927 102.92 182.927 103.88C182.927 104.853 183.207 105.613 183.767 106.16C184.327 106.693 185 106.96 185.787 106.96C186.587 106.96 187.273 106.687 187.847 106.14C188.42 105.593 188.707 104.84 188.707 103.88C188.707 102.92 188.42 102.167 187.847 101.62C187.287 101.06 186.6 100.78 185.787 100.78Z" fill="#0B1530"/>
<rect x="220" y="30" width="108" height="38" fill="#D6FDF3"/>
<rect x="192" y="69" width="136" height="38" fill="#D6FDF3"/>
<path d="M60 123L60 30M328 123V30" stroke="#33F7C3"/>
</svg>
