<svg width="416" height="184" viewBox="0 0 416 184" fill="none" xmlns="http://www.w3.org/2000/svg">
<rect width="416" height="184" rx="24" fill="#F5F6F8"/>
<path d="M66.804 91.324V98.296H73.804V91.324H78.676V110H73.804V102.44H66.804V110H61.96V91.324H66.804ZM81.4285 103.616H86.3845C86.4219 104.4 86.6739 105.025 87.1405 105.492C87.5885 105.977 88.2232 106.22 89.0445 106.22C89.8099 106.22 90.4445 105.949 90.9485 105.408C91.3219 104.979 91.5085 104.465 91.5085 103.868C91.5085 103.177 91.2659 102.627 90.7805 102.216C90.3512 101.861 89.7539 101.684 88.9885 101.684C88.6712 101.684 88.4005 101.721 88.1765 101.796V98.52C88.9979 98.632 89.6605 98.4733 90.1645 98.044C90.5752 97.6893 90.7805 97.2507 90.7805 96.728C90.7805 96.168 90.6125 95.72 90.2765 95.384C89.9405 95.048 89.4832 94.88 88.9045 94.88C88.3259 94.88 87.8779 95.0387 87.5605 95.356C87.1312 95.748 86.9165 96.2987 86.9165 97.008H82.4085C82.5019 95.272 83.1085 93.844 84.2285 92.724C85.3859 91.5107 87.0285 90.904 89.1565 90.904C91.1352 90.904 92.6845 91.4547 93.8045 92.556C94.8125 93.564 95.3165 94.768 95.3165 96.168C95.3165 97.0267 95.1299 97.792 94.7565 98.464C94.4019 99.1173 93.9259 99.5933 93.3285 99.892C94.2432 100.228 94.9805 100.797 95.5405 101.6C96.0632 102.365 96.3245 103.28 96.3245 104.344C96.3245 105.968 95.7739 107.331 94.6725 108.432C93.3472 109.757 91.4899 110.42 89.1005 110.42C86.9165 110.42 85.1339 109.776 83.7525 108.488C82.3899 107.237 81.6152 105.613 81.4285 103.616ZM105.929 104.428V100.732H127.405V104.428H105.929ZM151.614 105.884V110H136.634L141.366 105.044C143.065 103.271 144.344 101.693 145.202 100.312C145.874 99.2667 146.21 98.296 146.21 97.4C146.21 96.616 146.024 96.0187 145.65 95.608C145.314 95.2347 144.857 95.048 144.278 95.048C143.588 95.048 143.046 95.3 142.654 95.804C142.244 96.3267 142.02 97.092 141.982 98.1H136.97C136.989 96.0093 137.68 94.2827 139.042 92.92C140.386 91.576 142.15 90.904 144.334 90.904C146.556 90.904 148.31 91.548 149.598 92.836C150.812 94.0493 151.418 95.58 151.418 97.428C151.418 99.4067 150.494 101.255 148.646 102.972L145.51 105.884H151.614ZM164.399 100.172C165.333 100.452 166.135 100.928 166.807 101.6C167.759 102.533 168.235 103.635 168.235 104.904C168.235 106.248 167.731 107.424 166.723 108.432C165.398 109.757 163.513 110.42 161.067 110.42C158.659 110.42 156.802 109.767 155.495 108.46C154.469 107.433 153.955 106.248 153.955 104.904C153.955 104.307 154.086 103.7 154.347 103.084C154.609 102.449 154.935 101.936 155.327 101.544C155.943 100.928 156.727 100.471 157.679 100.172C157.007 99.9107 156.447 99.556 155.999 99.108C155.159 98.268 154.739 97.2787 154.739 96.14C154.739 94.7587 155.253 93.5827 156.279 92.612C157.511 91.4733 159.173 90.904 161.263 90.904C163.317 90.904 164.922 91.5013 166.079 92.696C166.994 93.6107 167.451 94.7493 167.451 96.112C167.451 97.288 167.069 98.2587 166.303 99.024C165.799 99.528 165.165 99.9107 164.399 100.172ZM161.151 94.152C160.517 94.152 160.003 94.3667 159.611 94.796C159.238 95.2067 159.051 95.6827 159.051 96.224C159.051 96.6907 159.247 97.1387 159.639 97.568C160.031 97.9787 160.526 98.184 161.123 98.184C161.665 98.184 162.122 97.9973 162.495 97.624C162.925 97.1947 163.139 96.7187 163.139 96.196C163.139 95.5987 162.925 95.104 162.495 94.712C162.085 94.3387 161.637 94.152 161.151 94.152ZM161.095 102.132C160.517 102.132 159.994 102.347 159.527 102.776C159.079 103.224 158.855 103.737 158.855 104.316C158.855 104.932 159.07 105.455 159.499 105.884C159.947 106.332 160.479 106.556 161.095 106.556C161.711 106.556 162.234 106.341 162.663 105.912C163.111 105.464 163.335 104.932 163.335 104.316C163.335 103.7 163.111 103.187 162.663 102.776C162.215 102.347 161.693 102.132 161.095 102.132ZM175.504 108.796V116.412H171.024V97.484H175.504V98.856C176.456 97.6613 177.735 97.064 179.34 97.064C181.095 97.064 182.579 97.6707 183.792 98.884C185.062 100.153 185.696 101.768 185.696 103.728C185.696 105.725 185.024 107.377 183.68 108.684C182.504 109.841 181.076 110.42 179.396 110.42C177.847 110.42 176.55 109.879 175.504 108.796ZM178.248 100.872C177.464 100.872 176.792 101.152 176.232 101.712C175.654 102.291 175.364 102.981 175.364 103.784C175.364 104.531 175.654 105.193 176.232 105.772C176.792 106.332 177.464 106.612 178.248 106.612C179.051 106.612 179.714 106.332 180.236 105.772C180.815 105.193 181.104 104.531 181.104 103.784C181.104 102.981 180.815 102.291 180.236 101.712C179.714 101.152 179.051 100.872 178.248 100.872ZM186.738 110L192.982 103.196L187.914 97.484H193.738L195.894 100.06L198.106 97.484H203.902L198.722 103.196L204.994 110H199.058L195.866 106.276L192.674 110H186.738Z" fill="#0B1530"/>
<path d="M60 31L60 71" stroke="#33F7C3" stroke-width="2"/>
<path d="M60 72L64 68" stroke="#33F7C3" stroke-width="2" stroke-linecap="round"/>
<path d="M60 72L56 68" stroke="#33F7C3" stroke-width="2" stroke-linecap="round"/>
<path d="M60 30L56 34" stroke="#33F7C3" stroke-width="2" stroke-linecap="round"/>
<path d="M60 30L64 34" stroke="#33F7C3" stroke-width="2" stroke-linecap="round"/>
<rect x="67.7504" y="40.7504" width="43.5786" height="20.7027" rx="3.75176" fill="#33F7C3"/>
<rect x="67.7504" y="40.7504" width="43.5786" height="20.7027" rx="3.75176" stroke="#33F7C3" stroke-width="1.5007"/>
<path d="M74.7792 54.0668V52.6129L78.4243 46.8702H79.6778V48.8825H78.9359L76.638 52.5192V52.5874H81.818V54.0668H74.7792ZM78.9701 55.6016V53.6234L79.0042 52.9796V46.8702H80.7351V55.6016H78.9701ZM86.4714 55.7934C85.7381 55.7906 85.1072 55.6101 84.5785 55.252C84.0527 54.8938 83.6477 54.3751 83.3634 53.6958C83.0821 53.0165 82.9428 52.1994 82.9456 51.2444C82.9456 50.2923 83.0863 49.4808 83.3677 48.81C83.6519 48.1393 84.057 47.6291 84.5828 47.2795C85.1114 46.927 85.741 46.7508 86.4714 46.7508C87.2019 46.7508 87.83 46.927 88.3558 47.2795C88.8845 47.6319 89.2909 48.1435 89.5752 48.8143C89.8594 49.4822 90.0001 50.2923 89.9972 51.2444C89.9972 52.2022 89.8551 53.0208 89.5709 53.7001C89.2895 54.3794 88.8859 54.8981 88.3601 55.2562C87.8343 55.6144 87.2047 55.7934 86.4714 55.7934ZM86.4714 54.2629C86.9717 54.2629 87.371 54.0113 87.6694 53.5083C87.9679 53.0052 88.1157 52.2506 88.1128 51.2444C88.1128 50.5822 88.0446 50.0308 87.9082 49.5902C87.7746 49.1497 87.5842 48.8186 87.3369 48.5969C87.0925 48.3752 86.804 48.2643 86.4714 48.2643C85.974 48.2643 85.5761 48.513 85.2777 49.0104C84.9793 49.5078 84.8286 50.2525 84.8258 51.2444C84.8258 51.9152 84.8926 52.4751 85.0262 52.9242C85.1626 53.3704 85.3544 53.7058 85.6017 53.9303C85.849 54.152 86.1389 54.2629 86.4714 54.2629ZM91.3306 58.0573V49.053H93.1212V50.153H93.2022C93.2818 49.9768 93.3969 49.7977 93.5476 49.6158C93.701 49.4311 93.9 49.2776 94.1444 49.1554C94.3917 49.0303 94.6987 48.9678 95.0653 48.9678C95.5428 48.9678 95.9834 49.0928 96.3869 49.3429C96.7905 49.5902 97.1131 49.964 97.3547 50.4642C97.5963 50.9616 97.7171 51.5855 97.7171 52.3358C97.7171 53.0663 97.5992 53.683 97.3633 54.1861C97.1302 54.6864 96.8119 55.0658 96.4083 55.3244C96.0075 55.5802 95.5584 55.7081 95.061 55.7081C94.7086 55.7081 94.4087 55.6499 94.1615 55.5333C93.917 55.4168 93.7167 55.2704 93.5603 55.0942C93.404 54.9152 93.2846 54.7347 93.2022 54.5528H93.1468V58.0573H91.3306ZM93.1084 52.3273C93.1084 52.7167 93.1624 53.0563 93.2704 53.3462C93.3784 53.6362 93.5348 53.8621 93.7394 54.0241C93.944 54.1833 94.1927 54.2629 94.4855 54.2629C94.7811 54.2629 95.0312 54.1819 95.2358 54.0199C95.4405 53.855 95.5954 53.6276 95.7005 53.3377C95.8086 53.045 95.8626 52.7082 95.8626 52.3273C95.8626 51.9493 95.81 51.6167 95.7048 51.3297C95.5996 51.0426 95.4447 50.8181 95.2401 50.6561C95.0355 50.4941 94.7839 50.4131 94.4855 50.4131C94.1899 50.4131 93.9398 50.4912 93.7351 50.6475C93.5333 50.8039 93.3784 51.0256 93.2704 51.3126C93.1624 51.5997 93.1084 51.9379 93.1084 52.3273ZM100.211 49.053L101.413 51.3425L102.646 49.053H104.509L102.611 52.3273L104.56 55.6016H102.705L101.413 53.3377L100.143 55.6016H98.2671L100.211 52.3273L98.3353 49.053H100.211Z" fill="#0B1530"/>
<path d="M60 128L60 153" stroke="#33F7C3" stroke-width="2"/>
<path d="M60 154L64 150" stroke="#33F7C3" stroke-width="2" stroke-linecap="round"/>
<path d="M60 154L56 150" stroke="#33F7C3" stroke-width="2" stroke-linecap="round"/>
<path d="M60 128L56 132" stroke="#33F7C3" stroke-width="2" stroke-linecap="round"/>
<path d="M60 128L64 132" stroke="#33F7C3" stroke-width="2" stroke-linecap="round"/>
<rect x="67.7504" y="130.75" width="42.9061" height="20.7027" rx="3.75176" fill="#33F7C3"/>
<rect x="67.7504" y="130.75" width="42.9061" height="20.7027" rx="3.75176" stroke="#33F7C3" stroke-width="1.5007"/>
<path d="M74.9113 145.602V144.271L78.0193 141.394C78.2837 141.138 78.5053 140.908 78.6844 140.703C78.8663 140.498 79.0042 140.298 79.098 140.102C79.1917 139.903 79.2386 139.688 79.2386 139.458C79.2386 139.202 79.1804 138.982 79.0638 138.797C78.9473 138.61 78.7881 138.466 78.5863 138.367C78.3846 138.264 78.1557 138.213 77.8999 138.213C77.6328 138.213 77.3997 138.267 77.2008 138.375C77.0018 138.483 76.8483 138.638 76.7403 138.84C76.6323 139.042 76.5783 139.282 76.5783 139.56H74.8261C74.8261 138.989 74.9554 138.493 75.214 138.072C75.4727 137.652 75.8351 137.326 76.3012 137.096C76.7673 136.866 77.3045 136.751 77.9127 136.751C78.538 136.751 79.0823 136.862 79.5456 137.083C80.0117 137.302 80.3741 137.606 80.6328 137.996C80.8914 138.385 81.0207 138.831 81.0207 139.334C81.0207 139.664 80.9554 139.99 80.8246 140.311C80.6967 140.632 80.4679 140.989 80.1382 141.381C79.8085 141.77 79.3438 142.238 78.7441 142.783L77.4693 144.033V144.092H81.1358V145.602H74.9113ZM82.1537 144.067V142.613L85.7989 136.87H87.0523V138.883H86.3105L84.0125 142.519V142.587H89.1925V144.067H82.1537ZM86.3446 145.602V143.623L86.3787 142.98V136.87H88.1096V145.602H86.3446ZM90.4396 148.057V139.053H92.2302V140.153H92.3112C92.3908 139.977 92.5059 139.798 92.6565 139.616C92.81 139.431 93.0089 139.278 93.2534 139.155C93.5007 139.03 93.8076 138.968 94.1743 138.968C94.6518 138.968 95.0923 139.093 95.4959 139.343C95.8995 139.59 96.2221 139.964 96.4637 140.464C96.7053 140.962 96.8261 141.585 96.8261 142.336C96.8261 143.066 96.7081 143.683 96.4722 144.186C96.2392 144.686 95.9208 145.066 95.5172 145.324C95.1165 145.58 94.6674 145.708 94.17 145.708C93.8176 145.708 93.5177 145.65 93.2704 145.533C93.026 145.417 92.8256 145.27 92.6693 145.094C92.513 144.915 92.3936 144.735 92.3112 144.553H92.2558V148.057H90.4396ZM92.2174 142.327C92.2174 142.717 92.2714 143.056 92.3794 143.346C92.4874 143.636 92.6437 143.862 92.8484 144.024C93.053 144.183 93.3017 144.263 93.5944 144.263C93.89 144.263 94.1402 144.182 94.3448 144.02C94.5494 143.855 94.7043 143.628 94.8095 143.338C94.9175 143.045 94.9715 142.708 94.9715 142.327C94.9715 141.949 94.9189 141.617 94.8138 141.33C94.7086 141.043 94.5537 140.818 94.3491 140.656C94.1444 140.494 93.8929 140.413 93.5944 140.413C93.2989 140.413 93.0487 140.491 92.8441 140.648C92.6423 140.804 92.4874 141.026 92.3794 141.313C92.2714 141.6 92.2174 141.938 92.2174 142.327ZM99.3201 139.053L100.522 141.342L101.755 139.053H103.618L101.72 142.327L103.669 145.602H101.814L100.522 143.338L99.2519 145.602H97.3761L99.3201 142.327L97.4443 139.053H99.3201Z" fill="#0B1530"/>
</svg>
