<svg width="416" height="184" viewBox="0 0 416 184" fill="none" xmlns="http://www.w3.org/2000/svg">
<rect width="416" height="184" rx="24" fill="#F5F6F8"/>
<path d="M61.72 45.66H71.52V59H70.04V47.06H63.2V59H61.72V45.66ZM76.0422 57.84V63.6H74.6022V50.7H76.0422V51.86C76.7755 50.9533 77.7222 50.5 78.8822 50.5C80.1222 50.5 81.1022 50.94 81.8222 51.82C82.5555 52.6867 82.9222 53.7133 82.9222 54.9C82.9222 56.1 82.5622 57.1267 81.8422 57.98C81.1222 58.82 80.1555 59.24 78.9422 59.24C77.7289 59.24 76.7622 58.7733 76.0422 57.84ZM78.7422 57.96C79.5555 57.96 80.2089 57.6667 80.7022 57.08C81.1955 56.48 81.4422 55.7533 81.4422 54.9C81.4422 53.94 81.1689 53.18 80.6222 52.62C80.0755 52.06 79.4422 51.78 78.7222 51.78C78.0022 51.78 77.3622 52.06 76.8022 52.62C76.2422 53.18 75.9622 53.9333 75.9622 54.88C75.9622 55.7467 76.2155 56.48 76.7222 57.08C77.2422 57.6667 77.9155 57.96 78.7422 57.96ZM91.2895 56.22L92.4895 56.88C92.2095 57.4133 91.8695 57.86 91.4695 58.22C90.7095 58.9 89.7895 59.24 88.7095 59.24C87.5895 59.24 86.6229 58.88 85.8095 58.16C85.0095 57.4267 84.6095 56.34 84.6095 54.9C84.6095 53.6333 84.9695 52.5867 85.6895 51.76C86.4229 50.92 87.4029 50.5 88.6295 50.5C90.0162 50.5 91.0629 51.0067 91.7695 52.02C92.3295 52.82 92.5895 53.86 92.5495 55.14H86.0895C86.1029 55.98 86.3629 56.66 86.8695 57.18C87.3762 57.7 87.9962 57.96 88.7295 57.96C89.3829 57.96 89.9495 57.76 90.4295 57.36C90.8029 57.04 91.0895 56.66 91.2895 56.22ZM86.1895 53.94H91.0695C90.9495 53.2867 90.6629 52.7667 90.2095 52.38C89.7695 51.98 89.2429 51.78 88.6295 51.78C88.0295 51.78 87.4962 51.9867 87.0295 52.4C86.5762 52.8 86.2962 53.3133 86.1895 53.94ZM95.3584 50.7H101.198V57.68H102.438V61.2H101.118V59H94.7984V61.2H93.4784V57.68C94.1718 57.6667 94.6851 57.3067 95.0184 56.6C95.2451 56.1333 95.3584 55.4 95.3584 54.4V50.7ZM99.7584 57.68V52.02H96.7984V55.14C96.7984 56.2467 96.4651 57.0933 95.7984 57.68H99.7584ZM103.958 59V50.7H105.398V57.68H108.598V50.7H110.038V57.68H113.238V50.7H114.678V59H103.958ZM123.555 56.22L124.755 56.88C124.475 57.4133 124.135 57.86 123.735 58.22C122.975 58.9 122.055 59.24 120.975 59.24C119.855 59.24 118.888 58.88 118.075 58.16C117.275 57.4267 116.875 56.34 116.875 54.9C116.875 53.6333 117.235 52.5867 117.955 51.76C118.688 50.92 119.668 50.5 120.895 50.5C122.282 50.5 123.328 51.0067 124.035 52.02C124.595 52.82 124.855 53.86 124.815 55.14H118.355C118.368 55.98 118.628 56.66 119.135 57.18C119.642 57.7 120.262 57.96 120.995 57.96C121.648 57.96 122.215 57.76 122.695 57.36C123.068 57.04 123.355 56.66 123.555 56.22ZM118.455 53.94H123.335C123.215 53.2867 122.928 52.7667 122.475 52.38C122.035 51.98 121.508 51.78 120.895 51.78C120.295 51.78 119.762 51.9867 119.295 52.4C118.842 52.8 118.562 53.3133 118.455 53.94ZM133.524 51.3V53.02C132.871 52.1933 132.004 51.78 130.924 51.78C130.111 51.78 129.417 52.06 128.844 52.62C128.271 53.1667 127.984 53.92 127.984 54.88C127.984 55.84 128.271 56.5933 128.844 57.14C129.417 57.6867 130.104 57.96 130.904 57.96C131.971 57.96 132.864 57.5267 133.584 56.66V58.38C132.797 58.9533 131.917 59.24 130.944 59.24C129.651 59.24 128.584 58.8333 127.744 58.02C126.917 57.1933 126.504 56.1533 126.504 54.9C126.504 53.6333 126.924 52.5867 127.764 51.76C128.604 50.92 129.664 50.5 130.944 50.5C131.904 50.5 132.764 50.7667 133.524 51.3ZM141.234 52.02H138.634V59H137.194V52.02H134.594V50.7H141.234V52.02ZM142.747 50.7H145.887C146.647 50.7 147.227 50.86 147.627 51.18C148.107 51.5667 148.347 52.0867 148.347 52.74C148.347 53.46 148.047 54.0133 147.447 54.4C147.86 54.5067 148.207 54.6933 148.487 54.96C148.927 55.3867 149.147 55.92 149.147 56.56C149.147 57.36 148.86 57.9867 148.287 58.44C147.793 58.8133 147.14 59 146.327 59H142.747V50.7ZM144.187 54.08H145.707C146.093 54.08 146.4 54 146.627 53.84C146.893 53.64 147.027 53.3533 147.027 52.98C147.027 52.6467 146.893 52.38 146.627 52.18C146.427 52.0467 146.04 51.98 145.467 51.98H144.187V54.08ZM144.187 57.72H145.967C146.58 57.72 147.013 57.6267 147.267 57.44C147.587 57.2 147.747 56.8933 147.747 56.52C147.747 56.12 147.607 55.8067 147.327 55.58C147.073 55.38 146.64 55.28 146.027 55.28H144.187V57.72ZM151.32 63.6L153.96 58.22L150.14 50.7H151.78L154.72 56.64L157.42 50.7H159.02L152.92 63.6H151.32ZM161.98 54.1H163.48C163.613 53.1667 163.986 52.38 164.6 51.74C165.386 50.9133 166.433 50.5 167.74 50.5C169.02 50.5 170.073 50.9133 170.9 51.74C171.726 52.5667 172.14 53.6133 172.14 54.88C172.14 56.1333 171.72 57.1733 170.88 58C170.053 58.8267 169.006 59.24 167.74 59.24C166.286 59.24 165.146 58.72 164.32 57.68C163.786 57.0133 163.48 56.26 163.4 55.42H161.98V59H160.54V50.7H161.98V54.1ZM167.74 51.78C166.94 51.78 166.26 52.06 165.7 52.62C165.153 53.1667 164.88 53.92 164.88 54.88C164.88 55.8533 165.16 56.6133 165.72 57.16C166.28 57.6933 166.953 57.96 167.74 57.96C168.54 57.96 169.226 57.6867 169.8 57.14C170.373 56.5933 170.66 55.84 170.66 54.88C170.66 53.92 170.373 53.1667 169.8 52.62C169.24 52.06 168.553 51.78 167.74 51.78ZM174.348 59V50.7H175.788V57.68H178.988V50.7H180.428V57.68H183.628V50.7H185.068V57.68H186.428V61.2H185.108V59H174.348ZM187.942 50.7H189.382V56.18L195.062 50.06V59H193.622V53.46L187.942 59.58V50.7ZM197.786 50.7H199.226V56.18L204.906 50.06V59H203.466V53.46L197.786 59.58V50.7ZM198.506 47.12L199.706 46.66C199.946 47.46 200.512 47.86 201.406 47.86C202.299 47.86 202.866 47.46 203.106 46.66L204.306 47.12C204.092 47.72 203.726 48.1933 203.206 48.54C202.699 48.8867 202.099 49.06 201.406 49.06C200.712 49.06 200.106 48.8867 199.586 48.54C199.079 48.1933 198.719 47.72 198.506 47.12ZM217.738 52.02H215.138V59H213.698V52.02H211.098V50.7H217.738V52.02ZM225.215 56.22L226.415 56.88C226.135 57.4133 225.795 57.86 225.395 58.22C224.635 58.9 223.715 59.24 222.635 59.24C221.515 59.24 220.549 58.88 219.735 58.16C218.935 57.4267 218.535 56.34 218.535 54.9C218.535 53.6333 218.895 52.5867 219.615 51.76C220.349 50.92 221.329 50.5 222.555 50.5C223.942 50.5 224.989 51.0067 225.695 52.02C226.255 52.82 226.515 53.86 226.475 55.14H220.015C220.029 55.98 220.289 56.66 220.795 57.18C221.302 57.7 221.922 57.96 222.655 57.96C223.309 57.96 223.875 57.76 224.355 57.36C224.729 57.04 225.015 56.66 225.215 56.22ZM220.115 53.94H224.995C224.875 53.2867 224.589 52.7667 224.135 52.38C223.695 51.98 223.169 51.78 222.555 51.78C221.955 51.78 221.422 51.9867 220.955 52.4C220.502 52.8 220.222 53.3133 220.115 53.94ZM228.684 50.7H230.124V54.1L233.484 50.7H235.244L231.644 54.4L235.684 59H233.804L230.564 55.36L230.124 55.78V59H228.684V50.7ZM243.192 51.3V53.02C242.539 52.1933 241.672 51.78 240.592 51.78C239.779 51.78 239.085 52.06 238.512 52.62C237.939 53.1667 237.652 53.92 237.652 54.88C237.652 55.84 237.939 56.5933 238.512 57.14C239.085 57.6867 239.772 57.96 240.572 57.96C241.639 57.96 242.532 57.5267 243.252 56.66V58.38C242.465 58.9533 241.585 59.24 240.612 59.24C239.319 59.24 238.252 58.8333 237.412 58.02C236.585 57.1933 236.172 56.1533 236.172 54.9C236.172 53.6333 236.592 52.5867 237.432 51.76C238.272 50.92 239.332 50.5 240.612 50.5C241.572 50.5 242.432 50.7667 243.192 51.3ZM250.902 52.02H248.302V59H246.862V52.02H244.262V50.7H250.902V52.02ZM252.029 58.9C251.829 58.7 251.729 58.4667 251.729 58.2C251.729 57.9333 251.829 57.7 252.029 57.5C252.229 57.3 252.463 57.2 252.729 57.2C252.996 57.2 253.229 57.3 253.429 57.5C253.629 57.7 253.729 57.9333 253.729 58.2C253.729 58.4667 253.629 58.7 253.429 58.9C253.229 59.1 252.996 59.2 252.729 59.2C252.463 59.2 252.229 59.1 252.029 58.9Z" fill="#0B1530"/>
<path d="M68.24 87.06H65V99H63.52V87.06H60.28V85.66H68.24V87.06ZM74.8052 96.22L76.0052 96.88C75.7252 97.4133 75.3852 97.86 74.9852 98.22C74.2252 98.9 73.3052 99.24 72.2252 99.24C71.1052 99.24 70.1385 98.88 69.3252 98.16C68.5252 97.4267 68.1252 96.34 68.1252 94.9C68.1252 93.6333 68.4852 92.5867 69.2052 91.76C69.9385 90.92 70.9185 90.5 72.1452 90.5C73.5318 90.5 74.5785 91.0067 75.2852 92.02C75.8452 92.82 76.1052 93.86 76.0652 95.14H69.6052C69.6185 95.98 69.8785 96.66 70.3852 97.18C70.8918 97.7 71.5118 97.96 72.2452 97.96C72.8985 97.96 73.4652 97.76 73.9452 97.36C74.3185 97.04 74.6052 96.66 74.8052 96.22ZM69.7052 93.94H74.5852C74.4652 93.2867 74.1785 92.7667 73.7252 92.38C73.2852 91.98 72.7585 91.78 72.1452 91.78C71.5452 91.78 71.0118 91.9867 70.5452 92.4C70.0918 92.8 69.8118 93.3133 69.7052 93.94ZM78.2741 90.7H79.7141V94.1L83.0741 90.7H84.8341L81.2341 94.4L85.2741 99H83.3941L80.1541 95.36L79.7141 95.78V99H78.2741V90.7ZM92.7819 91.3V93.02C92.1285 92.1933 91.2619 91.78 90.1819 91.78C89.3685 91.78 88.6752 92.06 88.1019 92.62C87.5285 93.1667 87.2419 93.92 87.2419 94.88C87.2419 95.84 87.5285 96.5933 88.1019 97.14C88.6752 97.6867 89.3619 97.96 90.1619 97.96C91.2285 97.96 92.1219 97.5267 92.8419 96.66V98.38C92.0552 98.9533 91.1752 99.24 90.2019 99.24C88.9085 99.24 87.8419 98.8333 87.0019 98.02C86.1752 97.1933 85.7619 96.1533 85.7619 94.9C85.7619 93.6333 86.1819 92.5867 87.0219 91.76C87.8619 90.92 88.9219 90.5 90.2019 90.5C91.1619 90.5 92.0219 90.7667 92.7819 91.3ZM100.491 92.02H97.8914V99H96.4514V92.02H93.8514V90.7H100.491V92.02ZM106.713 95.38V94.1H119.913V95.38H106.713ZM135.597 99H126.977L131.837 93.38C132.663 92.4067 133.183 91.76 133.397 91.44C133.89 90.7333 134.137 90.0533 134.137 89.4C134.137 88.64 133.89 88.02 133.397 87.54C132.903 87.0467 132.263 86.8 131.477 86.8C130.517 86.8 129.777 87.1933 129.257 87.98C128.977 88.4067 128.83 88.9333 128.817 89.56H127.337C127.39 88.4267 127.723 87.5067 128.337 86.8C129.137 85.8933 130.19 85.44 131.497 85.44C132.683 85.44 133.663 85.82 134.437 86.58C135.223 87.3267 135.617 88.2733 135.617 89.42C135.617 90.3133 135.263 91.2667 134.557 92.28C134.197 92.7733 133.59 93.5133 132.737 94.5L129.957 97.64H135.597V99ZM145.936 97.24C145.016 98.5733 143.876 99.24 142.516 99.24C141.156 99.24 140.016 98.5733 139.096 97.24C138.203 95.9467 137.756 94.3133 137.756 92.34C137.756 90.3667 138.203 88.7333 139.096 87.44C140.016 86.1067 141.156 85.44 142.516 85.44C143.876 85.44 145.016 86.1067 145.936 87.44C146.829 88.7333 147.276 90.3667 147.276 92.34C147.276 94.3133 146.829 95.9467 145.936 97.24ZM144.816 88.28C144.203 87.2933 143.436 86.8 142.516 86.8C141.596 86.8 140.829 87.2933 140.216 88.28C139.563 89.32 139.236 90.6733 139.236 92.34C139.236 94.0067 139.563 95.36 140.216 96.4C140.829 97.3867 141.596 97.88 142.516 97.88C143.436 97.88 144.203 97.3867 144.816 96.4C145.469 95.36 145.796 94.0067 145.796 92.34C145.796 90.6733 145.469 89.32 144.816 88.28ZM151.003 97.84V103.6H149.563V90.7H151.003V91.86C151.736 90.9533 152.683 90.5 153.843 90.5C155.083 90.5 156.063 90.94 156.783 91.82C157.516 92.6867 157.883 93.7133 157.883 94.9C157.883 96.1 157.523 97.1267 156.803 97.98C156.083 98.82 155.116 99.24 153.903 99.24C152.69 99.24 151.723 98.7733 151.003 97.84ZM153.703 97.96C154.516 97.96 155.17 97.6667 155.663 97.08C156.156 96.48 156.403 95.7533 156.403 94.9C156.403 93.94 156.13 93.18 155.583 92.62C155.036 92.06 154.403 91.78 153.683 91.78C152.963 91.78 152.323 92.06 151.763 92.62C151.203 93.18 150.923 93.9333 150.923 94.88C150.923 95.7467 151.176 96.48 151.683 97.08C152.203 97.6667 152.876 97.96 153.703 97.96ZM158.89 99L162.43 94.56L159.41 90.7H161.17L163.31 93.52L165.49 90.7H167.25L164.21 94.58L167.65 99H165.89L163.27 95.62L160.65 99H158.89Z" fill="#0B1530"/>
<path d="M61.72 125.66H71.52V139H70.04V127.06H63.2V139H61.72V125.66ZM81.6222 138C80.7955 138.827 79.7489 139.24 78.4822 139.24C77.2155 139.24 76.1622 138.827 75.3222 138C74.4955 137.173 74.0822 136.133 74.0822 134.88C74.0822 133.613 74.4955 132.567 75.3222 131.74C76.1622 130.913 77.2155 130.5 78.4822 130.5C79.7489 130.5 80.7955 130.913 81.6222 131.74C82.4622 132.567 82.8822 133.613 82.8822 134.88C82.8822 136.133 82.4622 137.173 81.6222 138ZM80.5422 132.6C79.9822 132.053 79.2955 131.78 78.4822 131.78C77.6689 131.78 76.9755 132.06 76.4022 132.62C75.8422 133.167 75.5622 133.92 75.5622 134.88C75.5622 135.84 75.8489 136.593 76.4222 137.14C76.9955 137.687 77.6822 137.96 78.4822 137.96C79.2822 137.96 79.9689 137.687 80.5422 137.14C81.1155 136.593 81.4022 135.84 81.4022 134.88C81.4022 133.907 81.1155 133.147 80.5422 132.6ZM91.5905 131.3V133.02C90.9371 132.193 90.0705 131.78 88.9905 131.78C88.1771 131.78 87.4838 132.06 86.9105 132.62C86.3371 133.167 86.0505 133.92 86.0505 134.88C86.0505 135.84 86.3371 136.593 86.9105 137.14C87.4838 137.687 88.1705 137.96 88.9705 137.96C90.0371 137.96 90.9305 137.527 91.6505 136.66V138.38C90.8638 138.953 89.9838 139.24 89.0105 139.24C87.7171 139.24 86.6505 138.833 85.8105 138.02C84.9838 137.193 84.5705 136.153 84.5705 134.9C84.5705 133.633 84.9905 132.587 85.8305 131.76C86.6705 130.92 87.7305 130.5 89.0105 130.5C89.9705 130.5 90.8305 130.767 91.5905 131.3ZM100.14 130.7V139H98.7V132.02H95.74V135.76C95.74 136.84 95.5267 137.64 95.1 138.16C94.62 138.747 93.9533 139.04 93.1 139.04C92.9933 139.04 92.8467 139.027 92.66 139V137.68C92.7933 137.707 92.9 137.72 92.98 137.72C93.4467 137.72 93.7933 137.54 94.02 137.18C94.2067 136.887 94.3 136.413 94.3 135.76V130.7H100.14ZM109.024 136.22L110.224 136.88C109.944 137.413 109.604 137.86 109.204 138.22C108.444 138.9 107.524 139.24 106.444 139.24C105.324 139.24 104.357 138.88 103.544 138.16C102.744 137.427 102.344 136.34 102.344 134.9C102.344 133.633 102.704 132.587 103.424 131.76C104.157 130.92 105.137 130.5 106.364 130.5C107.751 130.5 108.797 131.007 109.504 132.02C110.064 132.82 110.324 133.86 110.284 135.14H103.824C103.837 135.98 104.097 136.66 104.604 137.18C105.111 137.7 105.731 137.96 106.464 137.96C107.117 137.96 107.684 137.76 108.164 137.36C108.537 137.04 108.824 136.66 109.024 136.22ZM103.924 133.94H108.804C108.684 133.287 108.397 132.767 107.944 132.38C107.504 131.98 106.977 131.78 106.364 131.78C105.764 131.78 105.231 131.987 104.764 132.4C104.311 132.8 104.031 133.313 103.924 133.94ZM113.093 130.7H118.933V137.68H120.173V141.2H118.853V139H112.533V141.2H111.213V137.68C111.906 137.667 112.419 137.307 112.753 136.6C112.979 136.133 113.093 135.4 113.093 134.4V130.7ZM117.493 137.68V132.02H114.533V135.14C114.533 136.247 114.199 137.093 113.533 137.68H117.493ZM121.672 143.6L124.312 138.22L120.492 130.7H122.132L125.072 136.64L127.772 130.7H129.372L123.272 143.6H121.672ZM132.331 134.1H133.831C133.965 133.167 134.338 132.38 134.951 131.74C135.738 130.913 136.785 130.5 138.091 130.5C139.371 130.5 140.425 130.913 141.251 131.74C142.078 132.567 142.491 133.613 142.491 134.88C142.491 136.133 142.071 137.173 141.231 138C140.405 138.827 139.358 139.24 138.091 139.24C136.638 139.24 135.498 138.72 134.671 137.68C134.138 137.013 133.831 136.26 133.751 135.42H132.331V139H130.891V130.7H132.331V134.1ZM138.091 131.78C137.291 131.78 136.611 132.06 136.051 132.62C135.505 133.167 135.231 133.92 135.231 134.88C135.231 135.853 135.511 136.613 136.071 137.16C136.631 137.693 137.305 137.96 138.091 137.96C138.891 137.96 139.578 137.687 140.151 137.14C140.725 136.593 141.011 135.84 141.011 134.88C141.011 133.92 140.725 133.167 140.151 132.62C139.591 132.06 138.905 131.78 138.091 131.78ZM144.7 139V130.7H146.14V137.68H149.34V130.7H150.78V137.68H153.98V130.7H155.42V137.68H156.78V141.2H155.46V139H144.7ZM158.294 130.7H159.734V136.18L165.414 130.06V139H163.974V133.46L158.294 139.58V130.7ZM168.137 130.7H169.577V136.18L175.257 130.06V139H173.817V133.46L168.137 139.58V130.7ZM168.857 127.12L170.057 126.66C170.297 127.46 170.864 127.86 171.757 127.86C172.651 127.86 173.217 127.46 173.457 126.66L174.657 127.12C174.444 127.72 174.077 128.193 173.557 128.54C173.051 128.887 172.451 129.06 171.757 129.06C171.064 129.06 170.457 128.887 169.937 128.54C169.431 128.193 169.071 127.72 168.857 127.12ZM188.089 132.02H185.489V139H184.049V132.02H181.449V130.7H188.089V132.02ZM195.567 136.22L196.767 136.88C196.487 137.413 196.147 137.86 195.747 138.22C194.987 138.9 194.067 139.24 192.987 139.24C191.867 139.24 190.9 138.88 190.087 138.16C189.287 137.427 188.887 136.34 188.887 134.9C188.887 133.633 189.247 132.587 189.967 131.76C190.7 130.92 191.68 130.5 192.907 130.5C194.294 130.5 195.34 131.007 196.047 132.02C196.607 132.82 196.867 133.86 196.827 135.14H190.367C190.38 135.98 190.64 136.66 191.147 137.18C191.654 137.7 192.274 137.96 193.007 137.96C193.66 137.96 194.227 137.76 194.707 137.36C195.08 137.04 195.367 136.66 195.567 136.22ZM190.467 133.94H195.347C195.227 133.287 194.94 132.767 194.487 132.38C194.047 131.98 193.52 131.78 192.907 131.78C192.307 131.78 191.774 131.987 191.307 132.4C190.854 132.8 190.574 133.313 190.467 133.94ZM199.036 130.7H200.476V134.1L203.836 130.7H205.596L201.996 134.4L206.036 139H204.156L200.916 135.36L200.476 135.78V139H199.036V130.7ZM213.544 131.3V133.02C212.89 132.193 212.024 131.78 210.944 131.78C210.13 131.78 209.437 132.06 208.864 132.62C208.29 133.167 208.004 133.92 208.004 134.88C208.004 135.84 208.29 136.593 208.864 137.14C209.437 137.687 210.124 137.96 210.924 137.96C211.99 137.96 212.884 137.527 213.604 136.66V138.38C212.817 138.953 211.937 139.24 210.964 139.24C209.67 139.24 208.604 138.833 207.764 138.02C206.937 137.193 206.524 136.153 206.524 134.9C206.524 133.633 206.944 132.587 207.784 131.76C208.624 130.92 209.684 130.5 210.964 130.5C211.924 130.5 212.784 130.767 213.544 131.3ZM221.253 132.02H218.653V139H217.213V132.02H214.613V130.7H221.253V132.02Z" fill="#0B1530"/>
<mask id="path-5-inside-1_953_3039" fill="white">
<path d="M265 62.1016H277V78.1016H265V62.1016Z"/>
</mask>
<path d="M277 62.1016H279V60.1016H277V62.1016ZM277 78.1016V80.1016H279V78.1016H277ZM265 64.1016H277V60.1016H265V64.1016ZM275 62.1016V78.1016H279V62.1016H275ZM277 76.1016H265V80.1016H277V76.1016Z" fill="#33F7C3" mask="url(#path-5-inside-1_953_3039)"/>
<rect x="287.75" y="59.7504" width="41.9061" height="20.7027" rx="3.75176" fill="#33F7C3"/>
<rect x="287.75" y="59.7504" width="41.9061" height="20.7027" rx="3.75176" stroke="#33F7C3" stroke-width="1.5007"/>
<path d="M298.71 65.8702V74.6016H296.864V67.6224H296.813L294.813 68.8759V67.2387L296.975 65.8702H298.71ZM304.136 74.7209C303.687 74.7181 303.254 74.6428 302.836 74.495C302.421 74.3472 302.049 74.107 301.719 73.7745C301.389 73.4419 301.128 73.0014 300.934 72.4528C300.744 71.9043 300.649 71.2307 300.649 70.432C300.652 69.6987 300.735 69.0436 300.9 68.4666C301.068 67.8868 301.307 67.3951 301.617 66.9915C301.929 66.5879 302.303 66.2809 302.738 66.0706C303.173 65.8574 303.66 65.7508 304.2 65.7508C304.783 65.7508 305.297 65.8645 305.743 66.0919C306.19 66.3164 306.548 66.622 306.818 67.0085C307.091 67.3951 307.256 67.8285 307.312 68.3088H305.492C305.421 68.0047 305.272 67.766 305.044 67.5926C304.817 67.4192 304.536 67.3325 304.2 67.3325C303.632 67.3325 303.2 67.5798 302.904 68.0744C302.611 68.5689 302.462 69.2411 302.456 70.0909H302.516C302.647 69.8323 302.823 69.612 303.045 69.4301C303.269 69.2454 303.524 69.1047 303.808 69.008C304.095 68.9086 304.398 68.8588 304.716 68.8588C305.233 68.8588 305.694 68.981 306.097 69.2255C306.501 69.4671 306.819 69.7996 307.052 70.2231C307.285 70.6466 307.402 71.1312 307.402 71.6769C307.402 72.2681 307.264 72.7939 306.988 73.2543C306.716 73.7148 306.333 74.0757 305.842 74.3372C305.353 74.5959 304.784 74.7238 304.136 74.7209ZM304.128 73.2714C304.412 73.2714 304.666 73.2032 304.891 73.0668C305.115 72.9303 305.292 72.7456 305.419 72.5125C305.547 72.2795 305.611 72.018 305.611 71.7281C305.611 71.4381 305.547 71.1781 305.419 70.9479C305.294 70.7176 305.121 70.5343 304.899 70.3979C304.678 70.2615 304.425 70.1932 304.14 70.1932C303.927 70.1932 303.73 70.233 303.548 70.3126C303.369 70.3922 303.211 70.5031 303.075 70.6452C302.941 70.7873 302.836 70.9521 302.759 71.1397C302.682 71.3245 302.644 71.522 302.644 71.7323C302.644 72.0137 302.708 72.2709 302.836 72.504C302.967 72.7371 303.143 72.9232 303.365 73.0625C303.589 73.2018 303.843 73.2714 304.128 73.2714ZM308.728 77.0573V68.053H310.518V69.153H310.599C310.679 68.9768 310.794 68.7977 310.945 68.6158C311.098 68.4311 311.297 68.2776 311.542 68.1554C311.789 68.0303 312.096 67.9678 312.463 67.9678C312.94 67.9678 313.381 68.0928 313.784 68.3429C314.188 68.5902 314.51 68.964 314.752 69.4642C314.994 69.9616 315.114 70.5855 315.114 71.3358C315.114 72.0663 314.996 72.683 314.76 73.1861C314.527 73.6864 314.209 74.0658 313.805 74.3244C313.405 74.5802 312.956 74.7081 312.458 74.7081C312.106 74.7081 311.806 74.6499 311.559 74.5333C311.314 74.4168 311.114 74.2704 310.958 74.0942C310.801 73.9152 310.682 73.7347 310.599 73.5528H310.544V77.0573H308.728ZM310.506 71.3273C310.506 71.7167 310.56 72.0563 310.668 72.3462C310.776 72.6362 310.932 72.8621 311.137 73.0241C311.341 73.1833 311.59 73.2629 311.883 73.2629C312.178 73.2629 312.428 73.1819 312.633 73.0199C312.838 72.855 312.993 72.6276 313.098 72.3377C313.206 72.045 313.26 71.7082 313.26 71.3273C313.26 70.9493 313.207 70.6167 313.102 70.3297C312.997 70.0426 312.842 69.8181 312.637 69.6561C312.433 69.4941 312.181 69.4131 311.883 69.4131C311.587 69.4131 311.337 69.4912 311.132 69.6475C310.931 69.8039 310.776 70.0256 310.668 70.3126C310.56 70.5997 310.506 70.9379 310.506 71.3273ZM317.608 68.053L318.811 70.3425L320.043 68.053H321.906L320.009 71.3273L321.957 74.6016H320.102L318.811 72.3377L317.54 74.6016H315.664L317.608 71.3273L315.733 68.053H317.608Z" fill="#0B1530"/>
<mask id="path-9-inside-2_953_3039" fill="white">
<path d="M265 105.102H277V121.102H265V105.102Z"/>
</mask>
<path d="M277 105.102H279V103.102H277V105.102ZM277 121.102V123.102H279V121.102H277ZM265 107.102H277V103.102H265V107.102ZM275 105.102V121.102H279V105.102H275ZM277 119.102H265V123.102H277V119.102Z" fill="#33F7C3" mask="url(#path-9-inside-2_953_3039)"/>
<rect x="287.75" y="102.75" width="41.9061" height="20.7027" rx="3.75176" fill="#33F7C3"/>
<rect x="287.75" y="102.75" width="41.9061" height="20.7027" rx="3.75176" stroke="#33F7C3" stroke-width="1.5007"/>
<path d="M298.71 108.87V117.602H296.864V110.622H296.813L294.813 111.876V110.239L296.975 108.87H298.71ZM304.136 117.721C303.687 117.718 303.254 117.643 302.836 117.495C302.421 117.347 302.049 117.107 301.719 116.774C301.389 116.442 301.128 116.001 300.934 115.453C300.744 114.904 300.649 114.231 300.649 113.432C300.652 112.699 300.735 112.044 300.9 111.467C301.068 110.887 301.307 110.395 301.617 109.991C301.929 109.588 302.303 109.281 302.738 109.071C303.173 108.857 303.66 108.751 304.2 108.751C304.783 108.751 305.297 108.865 305.743 109.092C306.19 109.316 306.548 109.622 306.818 110.009C307.091 110.395 307.256 110.829 307.312 111.309H305.492C305.421 111.005 305.272 110.766 305.044 110.593C304.817 110.419 304.536 110.333 304.2 110.333C303.632 110.333 303.2 110.58 302.904 111.074C302.611 111.569 302.462 112.241 302.456 113.091H302.516C302.647 112.832 302.823 112.612 303.045 112.43C303.269 112.245 303.524 112.105 303.808 112.008C304.095 111.909 304.398 111.859 304.716 111.859C305.233 111.859 305.694 111.981 306.097 112.225C306.501 112.467 306.819 112.8 307.052 113.223C307.285 113.647 307.402 114.131 307.402 114.677C307.402 115.268 307.264 115.794 306.988 116.254C306.716 116.715 306.333 117.076 305.842 117.337C305.353 117.596 304.784 117.724 304.136 117.721ZM304.128 116.271C304.412 116.271 304.666 116.203 304.891 116.067C305.115 115.93 305.292 115.746 305.419 115.513C305.547 115.279 305.611 115.018 305.611 114.728C305.611 114.438 305.547 114.178 305.419 113.948C305.294 113.718 305.121 113.534 304.899 113.398C304.678 113.261 304.425 113.193 304.14 113.193C303.927 113.193 303.73 113.233 303.548 113.313C303.369 113.392 303.211 113.503 303.075 113.645C302.941 113.787 302.836 113.952 302.759 114.14C302.682 114.324 302.644 114.522 302.644 114.732C302.644 115.014 302.708 115.271 302.836 115.504C302.967 115.737 303.143 115.923 303.365 116.062C303.589 116.202 303.843 116.271 304.128 116.271ZM308.728 120.057V111.053H310.518V112.153H310.599C310.679 111.977 310.794 111.798 310.945 111.616C311.098 111.431 311.297 111.278 311.542 111.155C311.789 111.03 312.096 110.968 312.463 110.968C312.94 110.968 313.381 111.093 313.784 111.343C314.188 111.59 314.51 111.964 314.752 112.464C314.994 112.962 315.114 113.585 315.114 114.336C315.114 115.066 314.996 115.683 314.76 116.186C314.527 116.686 314.209 117.066 313.805 117.324C313.405 117.58 312.956 117.708 312.458 117.708C312.106 117.708 311.806 117.65 311.559 117.533C311.314 117.417 311.114 117.27 310.958 117.094C310.801 116.915 310.682 116.735 310.599 116.553H310.544V120.057H308.728ZM310.506 114.327C310.506 114.717 310.56 115.056 310.668 115.346C310.776 115.636 310.932 115.862 311.137 116.024C311.341 116.183 311.59 116.263 311.883 116.263C312.178 116.263 312.428 116.182 312.633 116.02C312.838 115.855 312.993 115.628 313.098 115.338C313.206 115.045 313.26 114.708 313.26 114.327C313.26 113.949 313.207 113.617 313.102 113.33C312.997 113.043 312.842 112.818 312.637 112.656C312.433 112.494 312.181 112.413 311.883 112.413C311.587 112.413 311.337 112.491 311.132 112.648C310.931 112.804 310.776 113.026 310.668 113.313C310.56 113.6 310.506 113.938 310.506 114.327ZM317.608 111.053L318.811 113.342L320.043 111.053H321.906L320.009 114.327L321.957 117.602H320.102L318.811 115.338L317.54 117.602H315.664L317.608 114.327L315.733 111.053H317.608Z" fill="#0B1530"/>
</svg>
