<svg width="416" height="144" viewBox="0 0 416 144" fill="none" xmlns="http://www.w3.org/2000/svg">
<rect width="416" height="144" rx="24" fill="#F5F6F8"/>
<path d="M53.24 54.76L55.64 57.68L54.72 58.4L51.72 54.76L54.72 51L55.64 51.74L53.24 54.76ZM56.2 54.76L58.6 57.68L57.68 58.4L54.68 54.76L57.68 51L58.6 51.74L56.2 54.76ZM62.7338 48.28L61.5938 47.38C62.4604 46.0867 63.7338 45.44 65.4138 45.44C66.6138 45.44 67.5538 45.7533 68.2338 46.38C68.9271 47.0067 69.2738 47.8267 69.2738 48.84C69.2738 49.4933 69.1004 50.0667 68.7538 50.56C68.4204 51.04 67.9804 51.4067 67.4338 51.66C68.3004 51.86 68.9604 52.2733 69.4138 52.9C69.8804 53.5267 70.1138 54.26 70.1138 55.1C70.1138 56.4867 69.5604 57.5733 68.4538 58.36C67.6004 58.9467 66.5871 59.24 65.4138 59.24C64.2004 59.24 63.1938 58.9333 62.3938 58.32C61.5938 57.7067 60.9938 56.9467 60.5938 56.04L62.0338 55.4C62.3004 56.1467 62.7404 56.74 63.3538 57.18C63.9671 57.62 64.6738 57.84 65.4737 57.84C66.2871 57.84 66.9671 57.6533 67.5138 57.28C68.2338 56.7733 68.5938 56.06 68.5938 55.14C68.5938 53.3933 67.4071 52.52 65.0338 52.52H63.8338V51.12H65.0338C65.9138 51.12 66.5871 50.9067 67.0538 50.48C67.5204 50.0533 67.7538 49.5133 67.7538 48.86C67.7538 48.2867 67.5738 47.82 67.2138 47.46C66.8138 47.0467 66.2138 46.84 65.4138 46.84C64.2938 46.84 63.4004 47.32 62.7338 48.28ZM72.4772 59V50.7H73.9172V54.1H77.8372V50.7H79.2772V59H77.8372V55.42H73.9172V59H72.4772ZM88.3489 51.88V50.7H89.7889V59H88.3489V57.84C87.6289 58.7733 86.6822 59.24 85.5089 59.24C84.3889 59.24 83.4356 58.8533 82.6489 58.08C81.8622 57.3067 81.4689 56.2267 81.4689 54.84C81.4689 53.48 81.8556 52.42 82.6289 51.66C83.4156 50.8867 84.3756 50.5 85.5089 50.5C86.7089 50.5 87.6556 50.96 88.3489 51.88ZM85.6689 51.78C84.9089 51.78 84.2622 52.0533 83.7289 52.6C83.2089 53.1333 82.9489 53.88 82.9489 54.84C82.9489 55.76 83.1889 56.5133 83.6689 57.1C84.1622 57.6733 84.8289 57.96 85.6689 57.96C86.5089 57.96 87.1756 57.66 87.6689 57.06C88.1756 56.46 88.4289 55.7267 88.4289 54.86C88.4289 53.8733 88.1489 53.1133 87.5889 52.58C87.0289 52.0467 86.3889 51.78 85.6689 51.78ZM92.5163 50.7H93.9563V54.1L97.3163 50.7H99.0763L95.4763 54.4L99.5163 59H97.6363L94.3963 55.36L93.9563 55.78V59H92.5163V50.7ZM100.954 50.7H102.394V56.18L108.074 50.06V59H106.634V53.46L100.954 59.58V50.7ZM115.465 50.7H122.145V59H120.705V52.02H116.905V59H115.465V50.7ZM124.84 63.6L127.48 58.22L123.66 50.7H125.3L128.24 56.64L130.94 50.7H132.54L126.44 63.6H124.84ZM134.059 59V50.7H135.499V54.1H139.419V50.7H140.859V59H139.419V55.42H135.499V59H134.059ZM143.571 50.7H145.011V54.1L148.371 50.7H150.131L146.531 54.4L150.571 59H148.691L145.451 55.36L145.011 55.78V59H143.571V50.7ZM157.448 52.02H154.848V59H153.408V52.02H150.808V50.7H157.448V52.02ZM159.332 63.6L161.972 58.22L158.152 50.7H159.792L162.732 56.64L165.432 50.7H167.032L160.932 63.6H159.332ZM174.911 51.88V50.7H176.351V59H174.911V57.84C174.191 58.7733 173.245 59.24 172.071 59.24C170.951 59.24 169.998 58.8533 169.211 58.08C168.425 57.3067 168.031 56.2267 168.031 54.84C168.031 53.48 168.418 52.42 169.191 51.66C169.978 50.8867 170.938 50.5 172.071 50.5C173.271 50.5 174.218 50.96 174.911 51.88ZM172.231 51.78C171.471 51.78 170.825 52.0533 170.291 52.6C169.771 53.1333 169.511 53.88 169.511 54.84C169.511 55.76 169.751 56.5133 170.231 57.1C170.725 57.6733 171.391 57.96 172.231 57.96C173.071 57.96 173.738 57.66 174.231 57.06C174.738 56.46 174.991 55.7267 174.991 54.86C174.991 53.8733 174.711 53.1133 174.151 52.58C173.591 52.0467 172.951 51.78 172.231 51.78ZM179.079 59V50.7H180.519V57.68H184.239V50.7H185.679V57.68H187.039V61.2H185.719V59H179.079ZM188.551 50.7H189.991V56.18L195.671 50.06V59H194.231V53.46L188.551 59.58V50.7ZM198.395 50.7H199.835V56.18L205.515 50.06V59H204.075V53.46L198.395 59.58V50.7ZM213.507 50.7H219.347V57.68H220.587V61.2H219.267V59H212.947V61.2H211.627V57.68C212.32 57.6667 212.834 57.3067 213.167 56.6C213.394 56.1333 213.507 55.4 213.507 54.4V50.7ZM217.907 57.68V52.02H214.947V55.14C214.947 56.2467 214.614 57.0933 213.947 57.68H217.907ZM229.126 58C228.299 58.8267 227.253 59.24 225.986 59.24C224.719 59.24 223.666 58.8267 222.826 58C221.999 57.1733 221.586 56.1333 221.586 54.88C221.586 53.6133 221.999 52.5667 222.826 51.74C223.666 50.9133 224.719 50.5 225.986 50.5C227.253 50.5 228.299 50.9133 229.126 51.74C229.966 52.5667 230.386 53.6133 230.386 54.88C230.386 56.1333 229.966 57.1733 229.126 58ZM228.046 52.6C227.486 52.0533 226.799 51.78 225.986 51.78C225.173 51.78 224.479 52.06 223.906 52.62C223.346 53.1667 223.066 53.92 223.066 54.88C223.066 55.84 223.353 56.5933 223.926 57.14C224.499 57.6867 225.186 57.96 225.986 57.96C226.786 57.96 227.473 57.6867 228.046 57.14C228.619 56.5933 228.906 55.84 228.906 54.88C228.906 53.9067 228.619 53.1467 228.046 52.6ZM238.874 50.7V59H237.434V52.02H234.474V55.76C234.474 56.84 234.261 57.64 233.834 58.16C233.354 58.7467 232.688 59.04 231.834 59.04C231.728 59.04 231.581 59.0267 231.394 59V57.68C231.528 57.7067 231.634 57.72 231.714 57.72C232.181 57.72 232.528 57.54 232.754 57.18C232.941 56.8867 233.034 56.4133 233.034 55.76V50.7H238.874ZM245.478 50.7H246.918V54.1L250.038 50.7H251.718L248.118 54.54L252.078 59H250.278L247.198 55.5L246.918 55.78V59H245.478V55.78L245.198 55.5L242.118 59H240.318L244.278 54.54L240.678 50.7H242.358L245.478 54.1V50.7ZM253.512 59V50.7H254.952V54.1H258.872V50.7H260.312V59H258.872V55.42H254.952V59H253.512ZM263.024 59V50.7H264.464V53.88H265.944C267.091 53.88 267.931 54.1533 268.464 54.7C268.891 55.1267 269.104 55.7067 269.104 56.44C269.104 57.2133 268.857 57.8333 268.364 58.3C267.871 58.7667 267.057 59 265.924 59H263.024ZM264.464 57.72H265.804C266.404 57.72 266.831 57.6467 267.084 57.5C267.444 57.26 267.624 56.9067 267.624 56.44C267.624 55.96 267.451 55.6133 267.104 55.4C266.864 55.24 266.437 55.16 265.824 55.16H264.464V57.72ZM270.104 59V50.7H271.544V59H270.104ZM278.923 50.7H282.063C282.823 50.7 283.403 50.86 283.803 51.18C284.283 51.5667 284.523 52.0867 284.523 52.74C284.523 53.46 284.223 54.0133 283.623 54.4C284.036 54.5067 284.383 54.6933 284.663 54.96C285.103 55.3867 285.323 55.92 285.323 56.56C285.323 57.36 285.036 57.9867 284.463 58.44C283.969 58.8133 283.316 59 282.503 59H278.923V50.7ZM280.363 54.08H281.883C282.269 54.08 282.576 54 282.803 53.84C283.069 53.64 283.203 53.3533 283.203 52.98C283.203 52.6467 283.069 52.38 282.803 52.18C282.603 52.0467 282.216 51.98 281.643 51.98H280.363V54.08ZM280.363 57.72H282.143C282.756 57.72 283.189 57.6267 283.442 57.44C283.763 57.2 283.923 56.8933 283.923 56.52C283.923 56.12 283.783 55.8067 283.503 55.58C283.249 55.38 282.816 55.28 282.203 55.28H280.363V57.72ZM287.516 59V50.7H288.956V53.88H290.436C291.583 53.88 292.423 54.1533 292.956 54.7C293.383 55.1267 293.596 55.7067 293.596 56.44C293.596 57.2133 293.35 57.8333 292.856 58.3C292.363 58.7667 291.55 59 290.416 59H287.516ZM288.956 57.72H290.296C290.896 57.72 291.323 57.6467 291.576 57.5C291.936 57.26 292.116 56.9067 292.116 56.44C292.116 55.96 291.943 55.6133 291.596 55.4C291.356 55.24 290.93 55.16 290.316 55.16H288.956V57.72ZM294.596 59V50.7H296.036V59H294.596ZM305.247 51.3V53.02C304.593 52.1933 303.727 51.78 302.647 51.78C301.833 51.78 301.14 52.06 300.567 52.62C299.993 53.1667 299.707 53.92 299.707 54.88C299.707 55.84 299.993 56.5933 300.567 57.14C301.14 57.6867 301.827 57.96 302.627 57.96C303.693 57.96 304.587 57.5267 305.307 56.66V58.38C304.52 58.9533 303.64 59.24 302.667 59.24C301.373 59.24 300.307 58.8333 299.467 58.02C298.64 57.1933 298.227 56.1533 298.227 54.9C298.227 53.6333 298.647 52.5867 299.487 51.76C300.327 50.92 301.387 50.5 302.667 50.5C303.627 50.5 304.487 50.7667 305.247 51.3ZM312.956 52.02H310.356V59H308.916V52.02H306.316V50.7H312.956V52.02ZM314.84 63.6L317.48 58.22L313.66 50.7H315.3L318.24 56.64L320.94 50.7H322.54L316.44 63.6H314.84ZM324.059 50.7H330.739V59H329.299V52.02H325.499V59H324.059V50.7ZM339.814 51.88V50.7H341.254V59H339.814V57.84C339.094 58.7733 338.147 59.24 336.974 59.24C335.854 59.24 334.9 58.8533 334.114 58.08C333.327 57.3067 332.934 56.2267 332.934 54.84C332.934 53.48 333.32 52.42 334.094 51.66C334.88 50.8867 335.84 50.5 336.974 50.5C338.174 50.5 339.12 50.96 339.814 51.88ZM337.134 51.78C336.374 51.78 335.727 52.0533 335.194 52.6C334.674 53.1333 334.414 53.88 334.414 54.84C334.414 55.76 334.654 56.5133 335.134 57.1C335.627 57.6733 336.294 57.96 337.134 57.96C337.974 57.96 338.64 57.66 339.134 57.06C339.64 56.46 339.894 55.7267 339.894 54.86C339.894 53.8733 339.614 53.1133 339.054 52.58C338.494 52.0467 337.854 51.78 337.134 51.78ZM349.421 52.02H346.821V59H345.381V52.02H342.781V50.7H349.421V52.02ZM350.934 59V50.7H352.374V53.88H353.854C355.001 53.88 355.841 54.1533 356.374 54.7C356.801 55.1267 357.014 55.7067 357.014 56.44C357.014 57.2133 356.768 57.8333 356.274 58.3C355.781 58.7667 354.968 59 353.834 59H350.934ZM352.374 57.72H353.714C354.314 57.72 354.741 57.6467 354.994 57.5C355.354 57.26 355.534 56.9067 355.534 56.44C355.534 55.96 355.361 55.6133 355.014 55.4C354.774 55.24 354.348 55.16 353.734 55.16H352.374V57.72Z" fill="#0B1530"/>
<path d="M62.44 92.82L61.44 92C61.76 91.5333 62.1133 91.1867 62.5 90.96C63.02 90.6533 63.6267 90.5 64.32 90.5C65.16 90.5 65.8133 90.6933 66.28 91.08C66.76 91.4933 67 92.02 67 92.66C67 93.4333 66.6867 94.0133 66.06 94.4C66.46 94.4933 66.78 94.6733 67.02 94.94C67.4067 95.3533 67.6 95.86 67.6 96.46C67.6 97.3533 67.24 98.0667 66.52 98.6C65.9333 99.0267 65.1467 99.24 64.16 99.24C63.28 99.24 62.54 99.0067 61.94 98.54C61.4867 98.2067 61.12 97.7333 60.84 97.12L62.08 96.6C62.2267 96.9733 62.4733 97.2867 62.82 97.54C63.1933 97.82 63.6467 97.96 64.18 97.96C64.8067 97.96 65.2733 97.8533 65.58 97.64C65.9667 97.3867 66.16 97 66.16 96.48C66.16 96.0533 65.9933 95.7333 65.66 95.52C65.38 95.3333 64.9267 95.24 64.3 95.24H63.46V93.92H64.16C64.6667 93.92 65.0267 93.8467 65.24 93.7C65.5333 93.5133 65.68 93.26 65.68 92.94C65.68 92.5667 65.56 92.28 65.32 92.08C65.0933 91.88 64.74 91.78 64.26 91.78C63.8467 91.78 63.4667 91.8867 63.12 92.1C62.8267 92.2867 62.6 92.5267 62.44 92.82ZM76.1575 91.88V90.7H77.5975V99H76.1575V97.84C75.4375 98.7733 74.4908 99.24 73.3175 99.24C72.1975 99.24 71.2442 98.8533 70.4575 98.08C69.6708 97.3067 69.2775 96.2267 69.2775 94.84C69.2775 93.48 69.6642 92.42 70.4375 91.66C71.2242 90.8867 72.1842 90.5 73.3175 90.5C74.5175 90.5 75.4642 90.96 76.1575 91.88ZM73.4775 91.78C72.7175 91.78 72.0708 92.0533 71.5375 92.6C71.0175 93.1333 70.7575 93.88 70.7575 94.84C70.7575 95.76 70.9975 96.5133 71.4775 97.1C71.9708 97.6733 72.6375 97.96 73.4775 97.96C74.3175 97.96 74.9842 97.66 75.4775 97.06C75.9842 96.46 76.2375 95.7267 76.2375 94.86C76.2375 93.8733 75.9575 93.1133 75.3975 92.58C74.8375 92.0467 74.1975 91.78 73.4775 91.78ZM84.9928 99V90.7H89.9128V92.02H86.4328V99H84.9928ZM92.8 97.84V103.6H91.36V90.7H92.8V91.86C93.5333 90.9533 94.48 90.5 95.64 90.5C96.88 90.5 97.86 90.94 98.58 91.82C99.3133 92.6867 99.68 93.7133 99.68 94.9C99.68 96.1 99.32 97.1267 98.6 97.98C97.88 98.82 96.9133 99.24 95.7 99.24C94.4867 99.24 93.52 98.7733 92.8 97.84ZM95.5 97.96C96.3133 97.96 96.9667 97.6667 97.46 97.08C97.9533 96.48 98.2 95.7533 98.2 94.9C98.2 93.94 97.9267 93.18 97.38 92.62C96.8333 92.06 96.2 91.78 95.48 91.78C94.76 91.78 94.12 92.06 93.56 92.62C93 93.18 92.72 93.9333 92.72 94.88C92.72 95.7467 92.9733 96.48 93.48 97.08C94 97.6667 94.6733 97.96 95.5 97.96ZM108.247 91.88V90.7H109.687V99H108.247V97.84C107.527 98.7733 106.581 99.24 105.407 99.24C104.287 99.24 103.334 98.8533 102.547 98.08C101.761 97.3067 101.367 96.2267 101.367 94.84C101.367 93.48 101.754 92.42 102.527 91.66C103.314 90.8867 104.274 90.5 105.407 90.5C106.607 90.5 107.554 90.96 108.247 91.88ZM105.567 91.78C104.807 91.78 104.161 92.0533 103.627 92.6C103.107 93.1333 102.847 93.88 102.847 94.84C102.847 95.76 103.087 96.5133 103.567 97.1C104.061 97.6733 104.727 97.96 105.567 97.96C106.407 97.96 107.074 97.66 107.567 97.06C108.074 96.46 108.327 95.7267 108.327 94.86C108.327 93.8733 108.047 93.1133 107.487 92.58C106.927 92.0467 106.287 91.78 105.567 91.78ZM112.415 99V90.7H113.855V94.1H117.775V90.7H119.215V99H117.775V95.42H113.855V99H112.415ZM121.926 90.7H123.366V96.18L129.046 90.06V99H127.606V93.46L121.926 99.58V90.7ZM131.77 99V90.7H133.21V97.68H136.93V90.7H138.37V97.68H139.73V101.2H138.41V99H131.77ZM141.223 103.6L143.863 98.22L140.043 90.7H141.683L144.623 96.64L147.323 90.7H148.923L142.823 103.6H141.223ZM155.11 90.7H161.79V99H160.35V92.02H156.55V99H155.11V90.7ZM171.525 98C170.698 98.8267 169.651 99.24 168.385 99.24C167.118 99.24 166.065 98.8267 165.225 98C164.398 97.1733 163.985 96.1333 163.985 94.88C163.985 93.6133 164.398 92.5667 165.225 91.74C166.065 90.9133 167.118 90.5 168.385 90.5C169.651 90.5 170.698 90.9133 171.525 91.74C172.365 92.5667 172.785 93.6133 172.785 94.88C172.785 96.1333 172.365 97.1733 171.525 98ZM170.445 92.6C169.885 92.0533 169.198 91.78 168.385 91.78C167.571 91.78 166.878 92.06 166.305 92.62C165.745 93.1667 165.465 93.92 165.465 94.88C165.465 95.84 165.751 96.5933 166.325 97.14C166.898 97.6867 167.585 97.96 168.385 97.96C169.185 97.96 169.871 97.6867 170.445 97.14C171.018 96.5933 171.305 95.84 171.305 94.88C171.305 93.9067 171.018 93.1467 170.445 92.6ZM181.273 90.7V99H179.833V92.02H176.873V95.76C176.873 96.84 176.659 97.64 176.233 98.16C175.753 98.7467 175.086 99.04 174.233 99.04C174.126 99.04 173.979 99.0267 173.793 99V97.68C173.926 97.7067 174.033 97.72 174.113 97.72C174.579 97.72 174.926 97.54 175.153 97.18C175.339 96.8867 175.433 96.4133 175.433 95.76V90.7H181.273ZM190.157 96.22L191.357 96.88C191.077 97.4133 190.737 97.86 190.337 98.22C189.577 98.9 188.657 99.24 187.577 99.24C186.457 99.24 185.49 98.88 184.677 98.16C183.877 97.4267 183.477 96.34 183.477 94.9C183.477 93.6333 183.837 92.5867 184.557 91.76C185.29 90.92 186.27 90.5 187.497 90.5C188.883 90.5 189.93 91.0067 190.637 92.02C191.197 92.82 191.457 93.86 191.417 95.14H184.957C184.97 95.98 185.23 96.66 185.737 97.18C186.243 97.7 186.863 97.96 187.597 97.96C188.25 97.96 188.817 97.76 189.297 97.36C189.67 97.04 189.957 96.66 190.157 96.22ZM185.057 93.94H189.937C189.817 93.2867 189.53 92.7667 189.077 92.38C188.637 91.98 188.11 91.78 187.497 91.78C186.897 91.78 186.363 91.9867 185.897 92.4C185.443 92.8 185.163 93.3133 185.057 93.94ZM193.626 90.7H195.066V96.18L200.746 90.06V99H199.306V93.46L193.626 99.58V90.7ZM194.346 87.12L195.546 86.66C195.786 87.46 196.352 87.86 197.246 87.86C198.139 87.86 198.706 87.46 198.946 86.66L200.146 87.12C199.932 87.72 199.566 88.1933 199.046 88.54C198.539 88.8867 197.939 89.06 197.246 89.06C196.552 89.06 195.946 88.8867 195.426 88.54C194.919 88.1933 194.559 87.72 194.346 87.12ZM203.689 98.9C203.489 98.7 203.389 98.4667 203.389 98.2C203.389 97.9333 203.489 97.7 203.689 97.5C203.889 97.3 204.123 97.2 204.389 97.2C204.656 97.2 204.889 97.3 205.089 97.5C205.289 97.7 205.389 97.9333 205.389 98.2C205.389 98.4667 205.289 98.7 205.089 98.9C204.889 99.1 204.656 99.2 204.389 99.2C204.123 99.2 203.889 99.1 203.689 98.9ZM210.06 94.64L207.66 91.72L208.58 91L211.58 94.64L208.58 98.4L207.66 97.66L210.06 94.64ZM213.02 94.64L210.62 91.72L211.54 91L214.54 94.64L211.54 98.4L210.62 97.66L213.02 94.64Z" fill="#0B1530"/>
<path d="M60 114L60 30" stroke="#33F7C3"/>
</svg>
