<svg width="416" height="202" viewBox="0 0 416 202" fill="none" xmlns="http://www.w3.org/2000/svg">
<rect width="416" height="202" rx="24" fill="#F5F6F8"/>
<path d="M69.72 96.32V106.28H79.72V96.32H86.68V123H79.72V112.2H69.72V123H62.8V96.32H69.72ZM111.932 117.12V123H90.5322L97.2922 115.92C99.7189 113.387 101.546 111.133 102.772 109.16C103.732 107.667 104.212 106.28 104.212 105C104.212 103.88 103.946 103.027 103.412 102.44C102.932 101.907 102.279 101.64 101.452 101.64C100.466 101.64 99.6922 102 99.1322 102.72C98.5455 103.467 98.2255 104.56 98.1722 106H91.0122C91.0389 103.013 92.0255 100.547 93.9722 98.6C95.8922 96.68 98.4122 95.72 101.532 95.72C104.706 95.72 107.212 96.64 109.052 98.48C110.786 100.213 111.652 102.4 111.652 105.04C111.652 107.867 110.332 110.507 107.692 112.96L103.212 117.12H111.932ZM125.613 115.04V109.76H156.293V115.04H125.613ZM188.198 96.32V112.64H191.438V117.96H188.198V123H181.798V117.96H168.878V113.52L179.158 96.32H188.198ZM175.518 112.64H181.798V101.76L175.518 112.64ZM206.542 102.76C205.929 102.2 205.222 101.92 204.422 101.92C203.622 101.92 202.915 102.2 202.302 102.76C201.609 103.347 201.049 104.333 200.622 105.72C200.195 107.08 199.982 108.413 199.982 109.72C199.982 110.92 200.182 112.227 200.582 113.64C201.009 115.027 201.582 116.04 202.302 116.68C202.915 117.24 203.622 117.52 204.422 117.52C205.222 117.52 205.929 117.24 206.542 116.68C207.235 116.067 207.795 115.08 208.222 113.72C208.649 112.333 208.862 111.013 208.862 109.76C208.862 108.507 208.635 107.173 208.182 105.76C207.755 104.347 207.209 103.347 206.542 102.76ZM215.742 109.68C215.742 114.347 214.422 117.973 211.782 120.56C209.729 122.587 207.275 123.6 204.422 123.6C201.569 123.6 199.115 122.587 197.062 120.56C194.422 117.973 193.102 114.347 193.102 109.68C193.102 104.987 194.422 101.347 197.062 98.76C199.115 96.7333 201.569 95.72 204.422 95.72C207.275 95.72 209.729 96.7333 211.782 98.76C214.422 101.347 215.742 104.987 215.742 109.68ZM225.006 121.28V132.16H218.606V105.12H225.006V107.08C226.366 105.373 228.193 104.52 230.486 104.52C232.993 104.52 235.113 105.387 236.846 107.12C238.66 108.933 239.566 111.24 239.566 114.04C239.566 116.893 238.606 119.253 236.686 121.12C235.006 122.773 232.966 123.6 230.566 123.6C228.353 123.6 226.5 122.827 225.006 121.28ZM228.926 109.96C227.806 109.96 226.846 110.36 226.046 111.16C225.22 111.987 224.806 112.973 224.806 114.12C224.806 115.187 225.22 116.133 226.046 116.96C226.846 117.76 227.806 118.16 228.926 118.16C230.073 118.16 231.02 117.76 231.766 116.96C232.593 116.133 233.006 115.187 233.006 114.12C233.006 112.973 232.593 111.987 231.766 111.16C231.02 110.36 230.073 109.96 228.926 109.96ZM241.055 123L249.975 113.28L242.735 105.12H251.055L254.135 108.8L257.295 105.12H265.575L258.175 113.28L267.135 123H258.655L254.095 117.68L249.535 123H241.055Z" fill="#0B1530"/>
<path d="M60 31L60 76" stroke="#33F7C3" stroke-width="2"/>
<path d="M60 77L64 73" stroke="#33F7C3" stroke-width="2" stroke-linecap="round"/>
<path d="M60 77L56 73" stroke="#33F7C3" stroke-width="2" stroke-linecap="round"/>
<path d="M60 30L56 34" stroke="#33F7C3" stroke-width="2" stroke-linecap="round"/>
<path d="M60 30L64 34" stroke="#33F7C3" stroke-width="2" stroke-linecap="round"/>
<rect x="67.7504" y="43.7504" width="43.5786" height="20.7027" rx="3.75176" fill="#33F7C3"/>
<rect x="67.7504" y="43.7504" width="43.5786" height="20.7027" rx="3.75176" stroke="#33F7C3" stroke-width="1.5007"/>
<path d="M78.2623 58.7209C77.8133 58.7181 77.3798 58.6428 76.962 58.495C76.547 58.3472 76.1747 58.107 75.845 57.7745C75.5153 57.4419 75.2538 57.0014 75.0605 56.4528C74.8701 55.9043 74.7749 55.2307 74.7749 54.432C74.7777 53.6987 74.8616 53.0436 75.0264 52.4666C75.1941 51.8868 75.4329 51.3951 75.7427 50.9915C76.0553 50.5879 76.4291 50.2809 76.864 50.0706C77.2988 49.8574 77.7863 49.7508 78.3263 49.7508C78.9089 49.7508 79.4234 49.8645 79.8696 50.0919C80.3159 50.3164 80.674 50.622 80.944 51.0085C81.2168 51.3951 81.3817 51.8285 81.4385 52.3088H79.6181C79.547 52.0047 79.3978 51.766 79.1704 51.5926C78.9431 51.4192 78.6617 51.3325 78.3263 51.3325C77.7578 51.3325 77.3258 51.5798 77.0302 52.0744C76.7375 52.5689 76.5883 53.2411 76.5826 54.0909H76.6423C76.773 53.8323 76.9492 53.612 77.1709 53.4301C77.3955 53.2454 77.6498 53.1047 77.9341 53.008C78.2211 52.9086 78.5238 52.8588 78.8422 52.8588C79.3594 52.8588 79.8199 52.981 80.2235 53.2255C80.6271 53.4671 80.9454 53.7996 81.1785 54.2231C81.4115 54.6466 81.5281 55.1312 81.5281 55.6769C81.5281 56.2681 81.3902 56.7939 81.1145 57.2543C80.8417 57.7148 80.4594 58.0757 79.9677 58.3372C79.4788 58.5959 78.9104 58.7238 78.2623 58.7209ZM78.2538 57.2714C78.538 57.2714 78.7924 57.2032 79.0169 57.0668C79.2415 56.9303 79.4177 56.7456 79.5456 56.5125C79.6735 56.2795 79.7375 56.018 79.7375 55.7281C79.7375 55.4381 79.6735 55.1781 79.5456 54.9479C79.4205 54.7176 79.2472 54.5343 79.0255 54.3979C78.8038 54.2615 78.5508 54.1932 78.2666 54.1932C78.0534 54.1932 77.8559 54.233 77.674 54.3126C77.4949 54.3922 77.3372 54.5031 77.2008 54.6452C77.0672 54.7873 76.962 54.9521 76.8853 55.1397C76.8085 55.3245 76.7702 55.522 76.7702 55.7323C76.7702 56.0137 76.8341 56.2709 76.962 56.504C77.0928 56.7371 77.269 56.9232 77.4907 57.0625C77.7152 57.2018 77.9696 57.2714 78.2538 57.2714ZM82.7048 57.0668V55.6129L86.3499 49.8702H87.6034V51.8825H86.8615L84.5636 55.5192V55.5874H89.7436V57.0668H82.7048ZM86.8956 58.6016V56.6234L86.9297 55.9796V49.8702H88.6607V58.6016H86.8956ZM90.9906 61.0573V52.053H92.7812V53.153H92.8622C92.9418 52.9768 93.0569 52.7977 93.2075 52.6158C93.361 52.4311 93.56 52.2776 93.8044 52.1554C94.0517 52.0303 94.3587 51.9678 94.7253 51.9678C95.2028 51.9678 95.6433 52.0928 96.0469 52.3429C96.4505 52.5902 96.7731 52.964 97.0147 53.4642C97.2563 53.9616 97.3771 54.5855 97.3771 55.3358C97.3771 56.0663 97.2592 56.683 97.0233 57.1861C96.7902 57.6864 96.4719 58.0658 96.0683 58.3244C95.6675 58.5802 95.2184 58.7081 94.721 58.7081C94.3686 58.7081 94.0687 58.6499 93.8215 58.5333C93.577 58.4168 93.3767 58.2704 93.2203 58.0942C93.064 57.9152 92.9446 57.7347 92.8622 57.5528H92.8068V61.0573H90.9906ZM92.7684 55.3273C92.7684 55.7167 92.8224 56.0563 92.9304 56.3462C93.0384 56.6362 93.1948 56.8621 93.3994 57.0241C93.604 57.1833 93.8527 57.2629 94.1455 57.2629C94.4411 57.2629 94.6912 57.1819 94.8958 57.0199C95.1005 56.855 95.2554 56.6276 95.3605 56.3377C95.4686 56.045 95.5226 55.7082 95.5226 55.3273C95.5226 54.9493 95.47 54.6167 95.3648 54.3297C95.2596 54.0426 95.1047 53.8181 94.9001 53.6561C94.6955 53.4941 94.4439 53.4131 94.1455 53.4131C93.8499 53.4131 93.5998 53.4912 93.3951 53.6475C93.1933 53.8039 93.0384 54.0256 92.9304 54.3126C92.8224 54.5997 92.7684 54.9379 92.7684 55.3273ZM99.8712 52.053L101.073 54.3425L102.306 52.053H104.169L102.271 55.3273L104.22 58.6016H102.365L101.073 56.3377L99.803 58.6016H97.9271L99.8712 55.3273L97.9953 52.053H99.8712Z" fill="#0B1530"/>
<path d="M60 141L60 171" stroke="#33F7C3" stroke-width="2"/>
<path d="M60 172L64 168" stroke="#33F7C3" stroke-width="2" stroke-linecap="round"/>
<path d="M60 172L56 168" stroke="#33F7C3" stroke-width="2" stroke-linecap="round"/>
<path d="M60 141L56 145" stroke="#33F7C3" stroke-width="2" stroke-linecap="round"/>
<path d="M60 141L64 145" stroke="#33F7C3" stroke-width="2" stroke-linecap="round"/>
<rect x="67.7504" y="145.75" width="42.9061" height="20.7027" rx="3.75176" fill="#33F7C3"/>
<rect x="67.7504" y="145.75" width="42.9061" height="20.7027" rx="3.75176" stroke="#33F7C3" stroke-width="1.5007"/>
<path d="M74.9113 160.602V159.271L78.0193 156.394C78.2837 156.138 78.5053 155.908 78.6844 155.703C78.8663 155.498 79.0042 155.298 79.098 155.102C79.1917 154.903 79.2386 154.688 79.2386 154.458C79.2386 154.202 79.1804 153.982 79.0638 153.797C78.9473 153.61 78.7881 153.466 78.5863 153.367C78.3846 153.264 78.1557 153.213 77.8999 153.213C77.6328 153.213 77.3997 153.267 77.2008 153.375C77.0018 153.483 76.8483 153.638 76.7403 153.84C76.6323 154.042 76.5783 154.282 76.5783 154.56H74.8261C74.8261 153.989 74.9554 153.493 75.214 153.072C75.4727 152.652 75.8351 152.326 76.3012 152.096C76.7673 151.866 77.3045 151.751 77.9127 151.751C78.538 151.751 79.0823 151.862 79.5456 152.083C80.0117 152.302 80.3741 152.606 80.6328 152.996C80.8914 153.385 81.0207 153.831 81.0207 154.334C81.0207 154.664 80.9554 154.99 80.8246 155.311C80.6967 155.632 80.4679 155.989 80.1382 156.381C79.8085 156.77 79.3438 157.238 78.7441 157.783L77.4693 159.033V159.092H81.1358V160.602H74.9113ZM85.7307 160.721C85.0741 160.721 84.49 160.614 83.9784 160.401C83.4697 160.185 83.0703 159.891 82.7804 159.519C82.4905 159.146 82.3456 158.724 82.3456 158.252C82.3456 157.889 82.428 157.555 82.5928 157.251C82.7605 156.944 82.9879 156.689 83.275 156.487C83.562 156.283 83.8832 156.152 84.2385 156.095V156.036C83.7724 155.942 83.3944 155.716 83.1044 155.358C82.8145 154.997 82.6696 154.577 82.6696 154.1C82.6696 153.648 82.8017 153.246 83.0661 152.893C83.3304 152.538 83.6928 152.26 84.1532 152.058C84.6165 151.853 85.1423 151.751 85.7307 151.751C86.319 151.751 86.8434 151.853 87.3039 152.058C87.7671 152.262 88.131 152.542 88.3953 152.898C88.6596 153.25 88.7932 153.651 88.796 154.1C88.7932 154.58 88.6454 155 88.3526 155.358C88.0599 155.716 87.6847 155.942 87.2271 156.036V156.095C87.5767 156.152 87.8936 156.283 88.1778 156.487C88.4649 156.689 88.6923 156.944 88.86 157.251C89.0305 157.555 89.1172 157.889 89.1201 158.252C89.1172 158.724 88.9708 159.146 88.6809 159.519C88.391 159.891 87.9903 160.185 87.4787 160.401C86.9699 160.614 86.3872 160.721 85.7307 160.721ZM85.7307 159.365C86.0234 159.365 86.2792 159.313 86.4981 159.207C86.7169 159.099 86.8875 158.952 87.0097 158.764C87.1347 158.574 87.1973 158.355 87.1973 158.107C87.1973 157.855 87.1333 157.631 87.0054 157.438C86.8775 157.242 86.7041 157.089 86.4853 156.978C86.2664 156.864 86.0149 156.807 85.7307 156.807C85.4493 156.807 85.1978 156.864 84.9761 156.978C84.7544 157.089 84.5796 157.242 84.4517 157.438C84.3266 157.631 84.2641 157.855 84.2641 158.107C84.2641 158.355 84.3252 158.574 84.4474 158.764C84.5696 158.952 84.7416 159.099 84.9633 159.207C85.185 159.313 85.4408 159.365 85.7307 159.365ZM85.7307 155.464C85.9751 155.464 86.1925 155.414 86.383 155.315C86.5734 155.216 86.7226 155.078 86.8306 154.901C86.9386 154.725 86.9926 154.522 86.9926 154.292C86.9926 154.064 86.9386 153.865 86.8306 153.695C86.7226 153.522 86.5748 153.387 86.3872 153.29C86.1996 153.19 85.9808 153.141 85.7307 153.141C85.4834 153.141 85.2646 153.19 85.0741 153.29C84.8837 153.387 84.7345 153.522 84.6265 153.695C84.5213 153.865 84.4687 154.064 84.4687 154.292C84.4687 154.522 84.5227 154.725 84.6307 154.901C84.7387 155.078 84.888 155.216 85.0784 155.315C85.2688 155.414 85.4862 155.464 85.7307 155.464ZM90.4278 163.057V154.053H92.2184V155.153H92.2995C92.379 154.977 92.4941 154.798 92.6448 154.616C92.7983 154.431 92.9972 154.278 93.2417 154.155C93.4889 154.03 93.7959 153.968 94.1625 153.968C94.64 153.968 95.0806 154.093 95.4842 154.343C95.8878 154.59 96.2104 154.964 96.452 155.464C96.6936 155.962 96.8144 156.585 96.8144 157.336C96.8144 158.066 96.6964 158.683 96.4605 159.186C96.2274 159.686 95.9091 160.066 95.5055 160.324C95.1047 160.58 94.6557 160.708 94.1583 160.708C93.8058 160.708 93.506 160.65 93.2587 160.533C93.0143 160.417 92.8139 160.27 92.6576 160.094C92.5013 159.915 92.3819 159.735 92.2995 159.553H92.244V163.057H90.4278ZM92.2057 157.327C92.2057 157.717 92.2597 158.056 92.3677 158.346C92.4757 158.636 92.632 158.862 92.8366 159.024C93.0413 159.183 93.29 159.263 93.5827 159.263C93.8783 159.263 94.1284 159.182 94.3331 159.02C94.5377 158.855 94.6926 158.628 94.7978 158.338C94.9058 158.045 94.9598 157.708 94.9598 157.327C94.9598 156.949 94.9072 156.617 94.802 156.33C94.6969 156.043 94.542 155.818 94.3373 155.656C94.1327 155.494 93.8812 155.413 93.5827 155.413C93.2871 155.413 93.037 155.491 92.8324 155.648C92.6306 155.804 92.4757 156.026 92.3677 156.313C92.2597 156.6 92.2057 156.938 92.2057 157.327ZM99.3084 154.053L100.511 156.342L101.743 154.053H103.606L101.709 157.327L103.657 160.602H101.802L100.511 158.338L99.2402 160.602H97.3643L99.3084 157.327L97.4325 154.053H99.3084Z" fill="#0B1530"/>
</svg>
