<svg width="416" height="149" viewBox="0 0 416 149" fill="none" xmlns="http://www.w3.org/2000/svg">
<rect width="416" height="149" rx="24" fill="#F5F6F8"/>
<path d="M68.24 70.06H65V82H63.52V70.06H60.28V68.66H68.24V70.06ZM74.8052 79.22L76.0052 79.88C75.7252 80.4133 75.3852 80.86 74.9852 81.22C74.2252 81.9 73.3052 82.24 72.2252 82.24C71.1052 82.24 70.1385 81.88 69.3252 81.16C68.5252 80.4267 68.1252 79.34 68.1252 77.9C68.1252 76.6333 68.4852 75.5867 69.2052 74.76C69.9385 73.92 70.9185 73.5 72.1452 73.5C73.5318 73.5 74.5785 74.0067 75.2852 75.02C75.8452 75.82 76.1052 76.86 76.0652 78.14H69.6052C69.6185 78.98 69.8785 79.66 70.3852 80.18C70.8918 80.7 71.5118 80.96 72.2452 80.96C72.8985 80.96 73.4652 80.76 73.9452 80.36C74.3185 80.04 74.6052 79.66 74.8052 79.22ZM69.7052 76.94H74.5852C74.4652 76.2867 74.1785 75.7667 73.7252 75.38C73.2852 74.98 72.7585 74.78 72.1452 74.78C71.5452 74.78 71.0118 74.9867 70.5452 75.4C70.0918 75.8 69.8118 76.3133 69.7052 76.94ZM78.2741 73.7H79.7141V77.1L83.0741 73.7H84.8341L81.2341 77.4L85.2741 82H83.3941L80.1541 78.36L79.7141 78.78V82H78.2741V73.7ZM92.7819 74.3V76.02C92.1285 75.1933 91.2619 74.78 90.1819 74.78C89.3685 74.78 88.6752 75.06 88.1019 75.62C87.5285 76.1667 87.2419 76.92 87.2419 77.88C87.2419 78.84 87.5285 79.5933 88.1019 80.14C88.6752 80.6867 89.3619 80.96 90.1619 80.96C91.2285 80.96 92.1219 80.5267 92.8419 79.66V81.38C92.0552 81.9533 91.1752 82.24 90.2019 82.24C88.9085 82.24 87.8419 81.8333 87.0019 81.02C86.1752 80.1933 85.7619 79.1533 85.7619 77.9C85.7619 76.6333 86.1819 75.5867 87.0219 74.76C87.8619 73.92 88.9219 73.5 90.2019 73.5C91.1619 73.5 92.0219 73.7667 92.7819 74.3ZM100.491 75.02H97.8914V82H96.4514V75.02H93.8514V73.7H100.491V75.02ZM106.713 78.38V77.1H119.913V78.38H106.713ZM135.597 82H126.977L131.837 76.38C132.663 75.4067 133.183 74.76 133.397 74.44C133.89 73.7333 134.137 73.0533 134.137 72.4C134.137 71.64 133.89 71.02 133.397 70.54C132.903 70.0467 132.263 69.8 131.477 69.8C130.517 69.8 129.777 70.1933 129.257 70.98C128.977 71.4067 128.83 71.9333 128.817 72.56H127.337C127.39 71.4267 127.723 70.5067 128.337 69.8C129.137 68.8933 130.19 68.44 131.497 68.44C132.683 68.44 133.663 68.82 134.437 69.58C135.223 70.3267 135.617 71.2733 135.617 72.42C135.617 73.3133 135.263 74.2667 134.557 75.28C134.197 75.7733 133.59 76.5133 132.737 77.5L129.957 80.64H135.597V82ZM145.936 80.24C145.016 81.5733 143.876 82.24 142.516 82.24C141.156 82.24 140.016 81.5733 139.096 80.24C138.203 78.9467 137.756 77.3133 137.756 75.34C137.756 73.3667 138.203 71.7333 139.096 70.44C140.016 69.1067 141.156 68.44 142.516 68.44C143.876 68.44 145.016 69.1067 145.936 70.44C146.829 71.7333 147.276 73.3667 147.276 75.34C147.276 77.3133 146.829 78.9467 145.936 80.24ZM144.816 71.28C144.203 70.2933 143.436 69.8 142.516 69.8C141.596 69.8 140.829 70.2933 140.216 71.28C139.563 72.32 139.236 73.6733 139.236 75.34C139.236 77.0067 139.563 78.36 140.216 79.4C140.829 80.3867 141.596 80.88 142.516 80.88C143.436 80.88 144.203 80.3867 144.816 79.4C145.469 78.36 145.796 77.0067 145.796 75.34C145.796 73.6733 145.469 72.32 144.816 71.28ZM151.003 80.84V86.6H149.563V73.7H151.003V74.86C151.736 73.9533 152.683 73.5 153.843 73.5C155.083 73.5 156.063 73.94 156.783 74.82C157.516 75.6867 157.883 76.7133 157.883 77.9C157.883 79.1 157.523 80.1267 156.803 80.98C156.083 81.82 155.116 82.24 153.903 82.24C152.69 82.24 151.723 81.7733 151.003 80.84ZM153.703 80.96C154.516 80.96 155.17 80.6667 155.663 80.08C156.156 79.48 156.403 78.7533 156.403 77.9C156.403 76.94 156.13 76.18 155.583 75.62C155.036 75.06 154.403 74.78 153.683 74.78C152.963 74.78 152.323 75.06 151.763 75.62C151.203 76.18 150.923 76.9333 150.923 77.88C150.923 78.7467 151.176 79.48 151.683 80.08C152.203 80.6667 152.876 80.96 153.703 80.96ZM158.89 82L162.43 77.56L159.41 73.7H161.17L163.31 76.52L165.49 73.7H167.25L164.21 77.58L167.65 82H165.89L163.27 78.62L160.65 82H158.89Z" fill="#0B1530"/>
<path d="M60 98L60 117.231" stroke="#33F7C3" stroke-width="2"/>
<path d="M60 118L64 114.923" stroke="#33F7C3" stroke-width="2" stroke-linecap="round"/>
<path d="M60 118L56 114.923" stroke="#33F7C3" stroke-width="2" stroke-linecap="round"/>
<path d="M60 98.002L56 101.079" stroke="#33F7C3" stroke-width="2" stroke-linecap="round"/>
<path d="M60 98.002L64 101.079" stroke="#33F7C3" stroke-width="2" stroke-linecap="round"/>
<rect x="67.7504" y="97.7504" width="41.9061" height="20.7027" rx="3.75176" fill="#33F7C3"/>
<rect x="67.7504" y="97.7504" width="41.9061" height="20.7027" rx="3.75176" stroke="#33F7C3" stroke-width="1.5007"/>
<path d="M78.71 103.87V112.602H76.864V105.622H76.8128L74.8133 106.876V105.239L76.9748 103.87H78.71ZM84.1362 112.721C83.6871 112.718 83.2537 112.643 82.8359 112.495C82.4209 112.347 82.0486 112.107 81.7189 111.774C81.3892 111.442 81.1277 111.001 80.9344 110.453C80.744 109.904 80.6488 109.231 80.6488 108.432C80.6516 107.699 80.7354 107.044 80.9003 106.467C81.068 105.887 81.3067 105.395 81.6165 104.991C81.9292 104.588 82.3029 104.281 82.7378 104.071C83.1727 103.857 83.6601 103.751 84.2001 103.751C84.7828 103.751 85.2972 103.865 85.7435 104.092C86.1897 104.316 86.5478 104.622 86.8178 105.009C87.0907 105.395 87.2555 105.829 87.3124 106.309H85.4919C85.4209 106.005 85.2717 105.766 85.0443 105.593C84.8169 105.419 84.5355 105.333 84.2001 105.333C83.6317 105.333 83.1997 105.58 82.9041 106.074C82.6113 106.569 82.4621 107.241 82.4564 108.091H82.5161C82.6468 107.832 82.8231 107.612 83.0448 107.43C83.2693 107.245 83.5237 107.105 83.8079 107.008C84.095 106.909 84.3977 106.859 84.716 106.859C85.2333 106.859 85.6937 106.981 86.0973 107.225C86.5009 107.467 86.8193 107.8 87.0523 108.223C87.2854 108.647 87.4019 109.131 87.4019 109.677C87.4019 110.268 87.2641 110.794 86.9884 111.254C86.7155 111.715 86.3332 112.076 85.8415 112.337C85.3527 112.596 84.7842 112.724 84.1362 112.721ZM84.1277 111.271C84.4119 111.271 84.6663 111.203 84.8908 111.067C85.1153 110.93 85.2916 110.746 85.4195 110.513C85.5474 110.279 85.6113 110.018 85.6113 109.728C85.6113 109.438 85.5474 109.178 85.4195 108.948C85.2944 108.718 85.121 108.534 84.8993 108.398C84.6776 108.261 84.4247 108.193 84.1404 108.193C83.9273 108.193 83.7297 108.233 83.5478 108.313C83.3688 108.392 83.211 108.503 83.0746 108.645C82.941 108.787 82.8359 108.952 82.7591 109.14C82.6824 109.324 82.644 109.522 82.644 109.732C82.644 110.014 82.708 110.271 82.8359 110.504C82.9666 110.737 83.1428 110.923 83.3645 111.062C83.589 111.202 83.8434 111.271 84.1277 111.271ZM88.7278 115.057V106.053H90.5184V107.153H90.5994C90.679 106.977 90.7941 106.798 90.9448 106.616C91.0983 106.431 91.2972 106.278 91.5416 106.155C91.7889 106.03 92.0959 105.968 92.4625 105.968C92.94 105.968 93.3806 106.093 93.7842 106.343C94.1878 106.59 94.5104 106.964 94.752 107.464C94.9935 107.962 95.1143 108.585 95.1143 109.336C95.1143 110.066 94.9964 110.683 94.7605 111.186C94.5274 111.686 94.2091 112.066 93.8055 112.324C93.4047 112.58 92.9557 112.708 92.4583 112.708C92.1058 112.708 91.806 112.65 91.5587 112.533C91.3143 112.417 91.1139 112.27 90.9576 112.094C90.8012 111.915 90.6819 111.735 90.5994 111.553H90.544V115.057H88.7278ZM90.5056 109.327C90.5056 109.717 90.5596 110.056 90.6677 110.346C90.7757 110.636 90.932 110.862 91.1366 111.024C91.3413 111.183 91.59 111.263 91.8827 111.263C92.1783 111.263 92.4284 111.182 92.6331 111.02C92.8377 110.855 92.9926 110.628 93.0978 110.338C93.2058 110.045 93.2598 109.708 93.2598 109.327C93.2598 108.949 93.2072 108.617 93.102 108.33C92.9969 108.043 92.842 107.818 92.6373 107.656C92.4327 107.494 92.1811 107.413 91.8827 107.413C91.5871 107.413 91.337 107.491 91.1324 107.648C90.9306 107.804 90.7757 108.026 90.6677 108.313C90.5596 108.6 90.5056 108.938 90.5056 109.327ZM97.6084 106.053L98.8107 108.342L100.043 106.053H101.906L100.009 109.327L101.957 112.602H100.102L98.8107 110.338L97.5402 112.602H95.6643L97.6084 109.327L95.7325 106.053H97.6084Z" fill="#0B1530"/>
<path d="M60 31L60 50.2308" stroke="#33F7C3" stroke-width="2"/>
<path d="M60 51L64 47.9231" stroke="#33F7C3" stroke-width="2" stroke-linecap="round"/>
<path d="M60 51L56 47.9231" stroke="#33F7C3" stroke-width="2" stroke-linecap="round"/>
<path d="M60 31.002L56 34.0789" stroke="#33F7C3" stroke-width="2" stroke-linecap="round"/>
<path d="M60 31.002L64 34.0789" stroke="#33F7C3" stroke-width="2" stroke-linecap="round"/>
<rect x="67.7504" y="30.7504" width="41.9061" height="20.7027" rx="3.75176" fill="#33F7C3"/>
<rect x="67.7504" y="30.7504" width="41.9061" height="20.7027" rx="3.75176" stroke="#33F7C3" stroke-width="1.5007"/>
<path d="M78.71 36.8702V45.6016H76.864V38.6224H76.8128L74.8133 39.8759V38.2387L76.9748 36.8702H78.71ZM84.1362 45.7209C83.6871 45.7181 83.2537 45.6428 82.8359 45.495C82.4209 45.3472 82.0486 45.107 81.7189 44.7745C81.3892 44.4419 81.1277 44.0014 80.9344 43.4528C80.744 42.9043 80.6488 42.2307 80.6488 41.432C80.6516 40.6987 80.7354 40.0436 80.9003 39.4666C81.068 38.8868 81.3067 38.3951 81.6165 37.9915C81.9292 37.5879 82.3029 37.2809 82.7378 37.0706C83.1727 36.8574 83.6601 36.7508 84.2001 36.7508C84.7828 36.7508 85.2972 36.8645 85.7435 37.0919C86.1897 37.3164 86.5478 37.622 86.8178 38.0085C87.0907 38.3951 87.2555 38.8285 87.3124 39.3088H85.4919C85.4209 39.0047 85.2717 38.766 85.0443 38.5926C84.8169 38.4192 84.5355 38.3325 84.2001 38.3325C83.6317 38.3325 83.1997 38.5798 82.9041 39.0744C82.6113 39.5689 82.4621 40.2411 82.4564 41.0909H82.5161C82.6468 40.8323 82.8231 40.612 83.0448 40.4301C83.2693 40.2454 83.5237 40.1047 83.8079 40.008C84.095 39.9086 84.3977 39.8588 84.716 39.8588C85.2333 39.8588 85.6937 39.981 86.0973 40.2255C86.5009 40.4671 86.8193 40.7996 87.0523 41.2231C87.2854 41.6466 87.4019 42.1312 87.4019 42.6769C87.4019 43.2681 87.2641 43.7939 86.9884 44.2543C86.7155 44.7148 86.3332 45.0757 85.8415 45.3372C85.3527 45.5959 84.7842 45.7238 84.1362 45.7209ZM84.1277 44.2714C84.4119 44.2714 84.6663 44.2032 84.8908 44.0668C85.1153 43.9303 85.2916 43.7456 85.4195 43.5125C85.5474 43.2795 85.6113 43.018 85.6113 42.7281C85.6113 42.4381 85.5474 42.1781 85.4195 41.9479C85.2944 41.7176 85.121 41.5343 84.8993 41.3979C84.6776 41.2615 84.4247 41.1932 84.1404 41.1932C83.9273 41.1932 83.7297 41.233 83.5478 41.3126C83.3688 41.3922 83.211 41.5031 83.0746 41.6452C82.941 41.7873 82.8359 41.9521 82.7591 42.1397C82.6824 42.3245 82.644 42.522 82.644 42.7323C82.644 43.0137 82.708 43.2709 82.8359 43.504C82.9666 43.7371 83.1428 43.9232 83.3645 44.0625C83.589 44.2018 83.8434 44.2714 84.1277 44.2714ZM88.7278 48.0573V39.053H90.5184V40.153H90.5994C90.679 39.9768 90.7941 39.7977 90.9448 39.6158C91.0983 39.4311 91.2972 39.2776 91.5416 39.1554C91.7889 39.0303 92.0959 38.9678 92.4625 38.9678C92.94 38.9678 93.3806 39.0928 93.7842 39.3429C94.1878 39.5902 94.5104 39.964 94.752 40.4642C94.9935 40.9616 95.1143 41.5855 95.1143 42.3358C95.1143 43.0663 94.9964 43.683 94.7605 44.1861C94.5274 44.6864 94.2091 45.0658 93.8055 45.3244C93.4047 45.5802 92.9557 45.7081 92.4583 45.7081C92.1058 45.7081 91.806 45.6499 91.5587 45.5333C91.3143 45.4168 91.1139 45.2704 90.9576 45.0942C90.8012 44.9152 90.6819 44.7347 90.5994 44.5528H90.544V48.0573H88.7278ZM90.5056 42.3273C90.5056 42.7167 90.5596 43.0563 90.6677 43.3462C90.7757 43.6362 90.932 43.8621 91.1366 44.0241C91.3413 44.1833 91.59 44.2629 91.8827 44.2629C92.1783 44.2629 92.4284 44.1819 92.6331 44.0199C92.8377 43.855 92.9926 43.6276 93.0978 43.3377C93.2058 43.045 93.2598 42.7082 93.2598 42.3273C93.2598 41.9493 93.2072 41.6167 93.102 41.3297C92.9969 41.0426 92.842 40.8181 92.6373 40.6561C92.4327 40.4941 92.1811 40.4131 91.8827 40.4131C91.5871 40.4131 91.337 40.4912 91.1324 40.6475C90.9306 40.8039 90.7757 41.0256 90.6677 41.3126C90.5596 41.5997 90.5056 41.9379 90.5056 42.3273ZM97.6084 39.053L98.8107 41.3425L100.043 39.053H101.906L100.009 42.3273L101.957 45.6016H100.102L98.8107 43.3377L97.5402 45.6016H95.6643L97.6084 42.3273L95.7325 39.053H97.6084Z" fill="#0B1530"/>
</svg>
