<svg width="416" height="237" viewBox="0 0 416 237" fill="none" xmlns="http://www.w3.org/2000/svg">
<rect width="416" height="237" rx="24" fill="#F5F6F8"/>
<path d="M69.58 108.98V123.92H84.58V108.98H95.02V149H84.58V132.8H69.58V149H59.2V108.98H69.58ZM113.278 149V117.8H107.578V108.98H123.658V149H113.278ZM153.419 138.14V134.3H193.019V138.14H153.419ZM227.231 108.98H239.051L227.651 122.6C229.531 121.76 231.391 121.34 233.231 121.34C236.711 121.34 239.731 122.62 242.291 125.18C244.811 127.7 246.071 130.88 246.071 134.72C246.071 138.92 244.691 142.4 241.931 145.16C238.771 148.32 234.511 149.9 229.151 149.9C223.551 149.9 219.171 148.28 216.011 145.04C213.571 142.52 212.351 139.4 212.351 135.68C212.351 130.96 214.331 125.98 218.291 120.74L227.231 108.98ZM224.231 139.64C225.551 141 227.131 141.68 228.971 141.68C230.811 141.68 232.351 141.06 233.591 139.82C234.831 138.58 235.451 137.06 235.451 135.26C235.451 133.66 234.831 132.26 233.591 131.06C232.311 129.82 230.771 129.2 228.971 129.2C227.251 129.2 225.751 129.78 224.471 130.94C223.151 132.14 222.491 133.52 222.491 135.08C222.491 136.88 223.071 138.4 224.231 139.64ZM279.113 108.98V133.46H283.973V141.44H279.113V149H269.513V141.44H250.133V134.78L265.553 108.98H279.113ZM260.093 133.46H269.513V117.14L260.093 133.46ZM298.349 146.42V162.74H288.749V122.18H298.349V125.12C300.389 122.56 303.129 121.28 306.569 121.28C310.329 121.28 313.509 122.58 316.109 125.18C318.829 127.9 320.189 131.36 320.189 135.56C320.189 139.84 318.749 143.38 315.869 146.18C313.349 148.66 310.289 149.9 306.689 149.9C303.369 149.9 300.589 148.74 298.349 146.42ZM304.229 129.44C302.549 129.44 301.109 130.04 299.909 131.24C298.669 132.48 298.049 133.96 298.049 135.68C298.049 137.28 298.669 138.7 299.909 139.94C301.109 141.14 302.549 141.74 304.229 141.74C305.949 141.74 307.369 141.14 308.489 139.94C309.729 138.7 310.349 137.28 310.349 135.68C310.349 133.96 309.729 132.48 308.489 131.24C307.369 130.04 305.949 129.44 304.229 129.44ZM322.422 149L335.802 134.42L324.942 122.18H337.422L342.042 127.7L346.782 122.18H359.202L348.102 134.42L361.542 149H348.822L341.982 141.02L335.142 149H322.422Z" fill="#0B1530"/>
<path d="M60 31L60 86" stroke="#33F7C3" stroke-width="2"/>
<path d="M60 87L64 83" stroke="#33F7C3" stroke-width="2" stroke-linecap="round"/>
<path d="M60 87L56 83" stroke="#33F7C3" stroke-width="2" stroke-linecap="round"/>
<path d="M60 30L56 34" stroke="#33F7C3" stroke-width="2" stroke-linecap="round"/>
<path d="M60 30L64 34" stroke="#33F7C3" stroke-width="2" stroke-linecap="round"/>
<rect x="67.7504" y="48.7504" width="43.5786" height="20.7027" rx="3.75176" fill="#33F7C3"/>
<rect x="67.7504" y="48.7504" width="43.5786" height="20.7027" rx="3.75176" stroke="#33F7C3" stroke-width="1.5007"/>
<path d="M78.1685 63.7209C77.512 63.7209 76.9279 63.6144 76.4163 63.4012C75.9075 63.1852 75.5082 62.891 75.2183 62.5187C74.9284 62.1463 74.7834 61.7243 74.7834 61.2525C74.7834 60.8886 74.8659 60.5547 75.0307 60.2506C75.1984 59.9436 75.4258 59.6892 75.7128 59.4874C75.9999 59.2828 76.3211 59.152 76.6764 59.0952V59.0355C76.2102 58.9417 75.8322 58.7157 75.5423 58.3576C75.2524 57.9967 75.1074 57.5774 75.1074 57.0999C75.1074 56.648 75.2396 56.2458 75.5039 55.8934C75.7683 55.5381 76.1307 55.2596 76.5911 55.0578C77.0544 54.8531 77.5802 54.7508 78.1685 54.7508C78.7569 54.7508 79.2813 54.8531 79.7417 55.0578C80.205 55.2624 80.5688 55.5424 80.8331 55.8977C81.0975 56.2501 81.2311 56.6509 81.2339 57.0999C81.2311 57.5803 81.0833 57.9995 80.7905 58.3576C80.4978 58.7157 80.1226 58.9417 79.665 59.0355V59.0952C80.0146 59.152 80.3315 59.2828 80.6157 59.4874C80.9028 59.6892 81.1302 59.9436 81.2978 60.2506C81.4684 60.5547 81.5551 60.8886 81.5579 61.2525C81.5551 61.7243 81.4087 62.1463 81.1188 62.5187C80.8289 62.891 80.4281 63.1852 79.9165 63.4012C79.4078 63.6144 78.8251 63.7209 78.1685 63.7209ZM78.1685 62.3652C78.4613 62.3652 78.7171 62.3126 78.9359 62.2074C79.1548 62.0994 79.3253 61.9516 79.4475 61.7641C79.5726 61.5736 79.6351 61.3548 79.6351 61.1075C79.6351 60.8545 79.5712 60.6314 79.4433 60.4381C79.3154 60.242 79.142 60.0886 78.9232 59.9777C78.7043 59.864 78.4528 59.8072 78.1685 59.8072C77.8872 59.8072 77.6356 59.864 77.4139 59.9777C77.1922 60.0886 77.0174 60.242 76.8895 60.4381C76.7645 60.6314 76.7019 60.8545 76.7019 61.1075C76.7019 61.3548 76.7631 61.5736 76.8853 61.7641C77.0075 61.9516 77.1794 62.0994 77.4011 62.2074C77.6228 62.3126 77.8786 62.3652 78.1685 62.3652ZM78.1685 58.4642C78.413 58.4642 78.6304 58.4145 78.8208 58.315C79.0113 58.2155 79.1605 58.0777 79.2685 57.9014C79.3765 57.7252 79.4305 57.522 79.4305 57.2918C79.4305 57.0644 79.3765 56.8655 79.2685 56.6949C79.1605 56.5215 79.0127 56.3865 78.8251 56.2899C78.6375 56.1904 78.4187 56.1407 78.1685 56.1407C77.9213 56.1407 77.7024 56.1904 77.512 56.2899C77.3216 56.3865 77.1723 56.5215 77.0643 56.6949C76.9592 56.8655 76.9066 57.0644 76.9066 57.2918C76.9066 57.522 76.9606 57.7252 77.0686 57.9014C77.1766 58.0777 77.3258 58.2155 77.5162 58.315C77.7067 58.4145 77.9241 58.4642 78.1685 58.4642ZM86.2721 63.7934C85.5388 63.7906 84.9078 63.6101 84.3792 63.252C83.8534 62.8938 83.4484 62.3751 83.1641 61.6958C82.8828 61.0165 82.7435 60.1994 82.7463 59.2444C82.7463 58.2923 82.887 57.4808 83.1684 56.81C83.4526 56.1393 83.8576 55.6291 84.3835 55.2795C84.9121 54.927 85.5417 54.7508 86.2721 54.7508C87.0026 54.7508 87.6307 54.927 88.1565 55.2795C88.6852 55.6319 89.0916 56.1435 89.3759 56.8143C89.6601 57.4822 89.8008 58.2923 89.7979 59.2444C89.7979 60.2022 89.6558 61.0208 89.3716 61.7001C89.0902 62.3794 88.6866 62.8981 88.1608 63.2562C87.635 63.6144 87.0054 63.7934 86.2721 63.7934ZM86.2721 62.2629C86.7724 62.2629 87.1717 62.0113 87.4701 61.5083C87.7686 61.0052 87.9164 60.2506 87.9135 59.2444C87.9135 58.5822 87.8453 58.0308 87.7089 57.5902C87.5753 57.1497 87.3849 56.8186 87.1376 56.5969C86.8932 56.3752 86.6047 56.2643 86.2721 56.2643C85.7747 56.2643 85.3768 56.513 85.0784 57.0104C84.7799 57.5078 84.6293 58.2525 84.6265 59.2444C84.6265 59.9152 84.6933 60.4751 84.8268 60.9242C84.9633 61.3704 85.1551 61.7058 85.4024 61.9303C85.6497 62.152 85.9396 62.2629 86.2721 62.2629ZM91.1313 66.0573V57.053H92.9219V58.153H93.0029C93.0825 57.9768 93.1976 57.7977 93.3482 57.6158C93.5017 57.4311 93.7007 57.2776 93.9451 57.1554C94.1924 57.0303 94.4993 56.9678 94.866 56.9678C95.3435 56.9678 95.784 57.0928 96.1876 57.3429C96.5912 57.5902 96.9138 57.964 97.1554 58.4642C97.397 58.9616 97.5178 59.5855 97.5178 60.3358C97.5178 61.0663 97.3999 61.683 97.1639 62.1861C96.9309 62.6864 96.6126 63.0658 96.209 63.3244C95.8082 63.5802 95.3591 63.7081 94.8617 63.7081C94.5093 63.7081 94.2094 63.6499 93.9622 63.5333C93.7177 63.4168 93.5174 63.2704 93.361 63.0942C93.2047 62.9152 93.0853 62.7347 93.0029 62.5528H92.9475V66.0573H91.1313ZM92.9091 60.3273C92.9091 60.7167 92.9631 61.0563 93.0711 61.3462C93.1791 61.6362 93.3354 61.8621 93.5401 62.0241C93.7447 62.1833 93.9934 62.2629 94.2862 62.2629C94.5818 62.2629 94.8319 62.1819 95.0365 62.0199C95.2412 61.855 95.3961 61.6276 95.5012 61.3377C95.6092 61.045 95.6632 60.7082 95.6632 60.3273C95.6632 59.9493 95.6107 59.6167 95.5055 59.3297C95.4003 59.0426 95.2454 58.8181 95.0408 58.6561C94.8362 58.4941 94.5846 58.4131 94.2862 58.4131C93.9906 58.4131 93.7405 58.4912 93.5358 58.6475C93.334 58.8039 93.1791 59.0256 93.0711 59.3126C92.9631 59.5997 92.9091 59.9379 92.9091 60.3273ZM100.012 57.053L101.214 59.3425L102.446 57.053H104.309L102.412 60.3273L104.361 63.6016H102.506L101.214 61.3377L99.9437 63.6016H98.0678L100.012 60.3273L98.136 57.053H100.012Z" fill="#0B1530"/>
<path d="M60 171L60 206" stroke="#33F7C3" stroke-width="2"/>
<path d="M60 207L64 203" stroke="#33F7C3" stroke-width="2" stroke-linecap="round"/>
<path d="M60 207L56 203" stroke="#33F7C3" stroke-width="2" stroke-linecap="round"/>
<path d="M60 171L56 175" stroke="#33F7C3" stroke-width="2" stroke-linecap="round"/>
<path d="M60 171L64 175" stroke="#33F7C3" stroke-width="2" stroke-linecap="round"/>
<rect x="67.7504" y="178.75" width="42.9061" height="20.7027" rx="3.75176" fill="#33F7C3"/>
<rect x="67.7504" y="178.75" width="42.9061" height="20.7027" rx="3.75176" stroke="#33F7C3" stroke-width="1.5007"/>
<path d="M78.1387 193.721C77.502 193.721 76.935 193.612 76.4376 193.393C75.9431 193.171 75.5523 192.867 75.2652 192.48C74.981 192.091 74.8346 191.642 74.8261 191.133H76.6849C76.6963 191.346 76.7659 191.534 76.8938 191.696C77.0245 191.855 77.1979 191.979 77.4139 192.067C77.6299 192.155 77.8729 192.199 78.143 192.199C78.4243 192.199 78.673 192.149 78.889 192.05C79.1051 191.95 79.2742 191.812 79.3964 191.636C79.5186 191.46 79.5797 191.257 79.5797 191.026C79.5797 190.793 79.5143 190.587 79.3836 190.408C79.2557 190.226 79.071 190.084 78.8294 189.982C78.5906 189.88 78.3064 189.828 77.9767 189.828H77.1624V188.473H77.9767C78.2552 188.473 78.5011 188.424 78.7143 188.328C78.9303 188.231 79.098 188.098 79.2173 187.927C79.3367 187.754 79.3964 187.552 79.3964 187.322C79.3964 187.103 79.3438 186.911 79.2386 186.746C79.1363 186.578 78.9914 186.448 78.8038 186.354C78.619 186.26 78.403 186.213 78.1557 186.213C77.9056 186.213 77.6768 186.259 77.4693 186.35C77.2619 186.438 77.0956 186.564 76.9705 186.729C76.8455 186.894 76.7787 187.087 76.7702 187.309H75.0009C75.0094 186.806 75.1529 186.362 75.4315 185.979C75.71 185.595 76.0852 185.295 76.557 185.079C77.0316 184.86 77.5674 184.751 78.1643 184.751C78.7668 184.751 79.2941 184.86 79.746 185.079C80.1979 185.298 80.5489 185.594 80.799 185.966C81.052 186.335 81.1771 186.75 81.1742 187.211C81.1771 187.7 81.025 188.108 80.718 188.434C80.4139 188.761 80.0174 188.969 79.5286 189.057V189.125C80.1709 189.207 80.6598 189.431 80.9951 189.794C81.3334 190.155 81.5011 190.607 81.4982 191.15C81.5011 191.648 81.3575 192.089 81.0676 192.476C80.7806 192.863 80.3841 193.167 79.8781 193.388C79.3722 193.61 78.7924 193.721 78.1387 193.721ZM82.8252 193.602V192.271L85.9332 189.394C86.1975 189.138 86.4192 188.908 86.5983 188.703C86.7802 188.498 86.918 188.298 87.0118 188.102C87.1056 187.903 87.1525 187.688 87.1525 187.458C87.1525 187.202 87.0942 186.982 86.9777 186.797C86.8612 186.61 86.702 186.466 86.5002 186.367C86.2984 186.264 86.0696 186.213 85.8138 186.213C85.5466 186.213 85.3136 186.267 85.1146 186.375C84.9157 186.483 84.7622 186.638 84.6542 186.84C84.5462 187.042 84.4922 187.282 84.4922 187.56H82.7399C82.7399 186.989 82.8693 186.493 83.1279 186.072C83.3865 185.652 83.7489 185.326 84.2151 185.096C84.6812 184.866 85.2184 184.751 85.8266 184.751C86.4519 184.751 86.9962 184.862 87.4595 185.083C87.9256 185.302 88.288 185.606 88.5466 185.996C88.8053 186.385 88.9346 186.831 88.9346 187.334C88.9346 187.664 88.8692 187.99 88.7385 188.311C88.6106 188.632 88.3818 188.989 88.0521 189.381C87.7224 189.77 87.2577 190.238 86.658 190.783L85.3832 192.033V192.092H89.0497V193.602H82.8252ZM90.4044 196.057V187.053H92.195V188.153H92.276C92.3556 187.977 92.4707 187.798 92.6213 187.616C92.7748 187.431 92.9738 187.278 93.2182 187.155C93.4655 187.03 93.7724 186.968 94.1391 186.968C94.6166 186.968 95.0571 187.093 95.4607 187.343C95.8643 187.59 96.1869 187.964 96.4285 188.464C96.6701 188.962 96.7909 189.585 96.7909 190.336C96.7909 191.066 96.673 191.683 96.437 192.186C96.204 192.686 95.8857 193.066 95.4821 193.324C95.0813 193.58 94.6322 193.708 94.1348 193.708C93.7824 193.708 93.4825 193.65 93.2353 193.533C92.9908 193.417 92.7904 193.27 92.6341 193.094C92.4778 192.915 92.3584 192.735 92.276 192.553H92.2206V196.057H90.4044ZM92.1822 190.327C92.1822 190.717 92.2362 191.056 92.3442 191.346C92.4522 191.636 92.6085 191.862 92.8132 192.024C93.0178 192.183 93.2665 192.263 93.5593 192.263C93.8549 192.263 94.105 192.182 94.3096 192.02C94.5143 191.855 94.6692 191.628 94.7743 191.338C94.8823 191.045 94.9363 190.708 94.9363 190.327C94.9363 189.949 94.8838 189.617 94.7786 189.33C94.6734 189.043 94.5185 188.818 94.3139 188.656C94.1092 188.494 93.8577 188.413 93.5593 188.413C93.2637 188.413 93.0136 188.491 92.8089 188.648C92.6071 188.804 92.4522 189.026 92.3442 189.313C92.2362 189.6 92.1822 189.938 92.1822 190.327ZM99.285 187.053L100.487 189.342L101.719 187.053H103.582L101.685 190.327L103.634 193.602H101.779L100.487 191.338L99.2168 193.602H97.3409L99.285 190.327L97.4091 187.053H99.285Z" fill="#0B1530"/>
</svg>
