<svg width="544" height="716" viewBox="0 0 544 716" fill="none" xmlns="http://www.w3.org/2000/svg">
<rect width="544" height="716" rx="24" fill="#F5F6F8"/>
<path d="M60.72 45.66H70.52V59H69.04V47.06H62.2V59H60.72V45.66ZM75.0422 57.84V63.6H73.6022V50.7H75.0422V51.86C75.7755 50.9533 76.7222 50.5 77.8822 50.5C79.1222 50.5 80.1022 50.94 80.8222 51.82C81.5555 52.6867 81.9222 53.7133 81.9222 54.9C81.9222 56.1 81.5622 57.1267 80.8422 57.98C80.1222 58.82 79.1555 59.24 77.9422 59.24C76.7289 59.24 75.7622 58.7733 75.0422 57.84ZM77.7422 57.96C78.5555 57.96 79.2089 57.6667 79.7022 57.08C80.1955 56.48 80.4422 55.7533 80.4422 54.9C80.4422 53.94 80.1689 53.18 79.6222 52.62C79.0755 52.06 78.4422 51.78 77.7222 51.78C77.0022 51.78 76.3622 52.06 75.8022 52.62C75.2422 53.18 74.9622 53.9333 74.9622 54.88C74.9622 55.7467 75.2155 56.48 75.7222 57.08C76.2422 57.6667 76.9155 57.96 77.7422 57.96ZM90.2895 56.22L91.4895 56.88C91.2095 57.4133 90.8695 57.86 90.4695 58.22C89.7095 58.9 88.7895 59.24 87.7095 59.24C86.5895 59.24 85.6229 58.88 84.8095 58.16C84.0095 57.4267 83.6095 56.34 83.6095 54.9C83.6095 53.6333 83.9695 52.5867 84.6895 51.76C85.4229 50.92 86.4029 50.5 87.6295 50.5C89.0162 50.5 90.0629 51.0067 90.7695 52.02C91.3295 52.82 91.5895 53.86 91.5495 55.14H85.0895C85.1029 55.98 85.3629 56.66 85.8695 57.18C86.3762 57.7 86.9962 57.96 87.7295 57.96C88.3829 57.96 88.9495 57.76 89.4295 57.36C89.8029 57.04 90.0895 56.66 90.2895 56.22ZM85.1895 53.94H90.0695C89.9495 53.2867 89.6629 52.7667 89.2095 52.38C88.7695 51.98 88.2429 51.78 87.6295 51.78C87.0295 51.78 86.4962 51.9867 86.0295 52.4C85.5762 52.8 85.2962 53.3133 85.1895 53.94ZM94.3584 50.7H100.198V57.68H101.438V61.2H100.118V59H93.7984V61.2H92.4784V57.68C93.1718 57.6667 93.6851 57.3067 94.0184 56.6C94.2451 56.1333 94.3584 55.4 94.3584 54.4V50.7ZM98.7584 57.68V52.02H95.7984V55.14C95.7984 56.2467 95.4651 57.0933 94.7984 57.68H98.7584ZM102.958 59V50.7H104.398V57.68H107.598V50.7H109.038V57.68H112.238V50.7H113.678V59H102.958ZM122.555 56.22L123.755 56.88C123.475 57.4133 123.135 57.86 122.735 58.22C121.975 58.9 121.055 59.24 119.975 59.24C118.855 59.24 117.888 58.88 117.075 58.16C116.275 57.4267 115.875 56.34 115.875 54.9C115.875 53.6333 116.235 52.5867 116.955 51.76C117.688 50.92 118.668 50.5 119.895 50.5C121.282 50.5 122.328 51.0067 123.035 52.02C123.595 52.82 123.855 53.86 123.815 55.14H117.355C117.368 55.98 117.628 56.66 118.135 57.18C118.642 57.7 119.262 57.96 119.995 57.96C120.648 57.96 121.215 57.76 121.695 57.36C122.068 57.04 122.355 56.66 122.555 56.22ZM117.455 53.94H122.335C122.215 53.2867 121.928 52.7667 121.475 52.38C121.035 51.98 120.508 51.78 119.895 51.78C119.295 51.78 118.762 51.9867 118.295 52.4C117.842 52.8 117.562 53.3133 117.455 53.94ZM132.524 51.3V53.02C131.871 52.1933 131.004 51.78 129.924 51.78C129.111 51.78 128.417 52.06 127.844 52.62C127.271 53.1667 126.984 53.92 126.984 54.88C126.984 55.84 127.271 56.5933 127.844 57.14C128.417 57.6867 129.104 57.96 129.904 57.96C130.971 57.96 131.864 57.5267 132.584 56.66V58.38C131.797 58.9533 130.917 59.24 129.944 59.24C128.651 59.24 127.584 58.8333 126.744 58.02C125.917 57.1933 125.504 56.1533 125.504 54.9C125.504 53.6333 125.924 52.5867 126.764 51.76C127.604 50.92 128.664 50.5 129.944 50.5C130.904 50.5 131.764 50.7667 132.524 51.3ZM140.234 52.02H137.634V59H136.194V52.02H133.594V50.7H140.234V52.02ZM141.747 50.7H144.887C145.647 50.7 146.227 50.86 146.627 51.18C147.107 51.5667 147.347 52.0867 147.347 52.74C147.347 53.46 147.047 54.0133 146.447 54.4C146.86 54.5067 147.207 54.6933 147.487 54.96C147.927 55.3867 148.147 55.92 148.147 56.56C148.147 57.36 147.86 57.9867 147.287 58.44C146.793 58.8133 146.14 59 145.327 59H141.747V50.7ZM143.187 54.08H144.707C145.093 54.08 145.4 54 145.627 53.84C145.893 53.64 146.027 53.3533 146.027 52.98C146.027 52.6467 145.893 52.38 145.627 52.18C145.427 52.0467 145.04 51.98 144.467 51.98H143.187V54.08ZM143.187 57.72H144.967C145.58 57.72 146.013 57.6267 146.267 57.44C146.587 57.2 146.747 56.8933 146.747 56.52C146.747 56.12 146.607 55.8067 146.327 55.58C146.073 55.38 145.64 55.28 145.027 55.28H143.187V57.72ZM150.32 63.6L152.96 58.22L149.14 50.7H150.78L153.72 56.64L156.42 50.7H158.02L151.92 63.6H150.32ZM160.98 54.1H162.48C162.613 53.1667 162.986 52.38 163.6 51.74C164.386 50.9133 165.433 50.5 166.74 50.5C168.02 50.5 169.073 50.9133 169.9 51.74C170.726 52.5667 171.14 53.6133 171.14 54.88C171.14 56.1333 170.72 57.1733 169.88 58C169.053 58.8267 168.006 59.24 166.74 59.24C165.286 59.24 164.146 58.72 163.32 57.68C162.786 57.0133 162.48 56.26 162.4 55.42H160.98V59H159.54V50.7H160.98V54.1ZM166.74 51.78C165.94 51.78 165.26 52.06 164.7 52.62C164.153 53.1667 163.88 53.92 163.88 54.88C163.88 55.8533 164.16 56.6133 164.72 57.16C165.28 57.6933 165.953 57.96 166.74 57.96C167.54 57.96 168.226 57.6867 168.8 57.14C169.373 56.5933 169.66 55.84 169.66 54.88C169.66 53.92 169.373 53.1667 168.8 52.62C168.24 52.06 167.553 51.78 166.74 51.78ZM173.348 59V50.7H174.788V57.68H177.988V50.7H179.428V57.68H182.628V50.7H184.068V57.68H185.428V61.2H184.108V59H173.348ZM186.942 50.7H188.382V56.18L194.062 50.06V59H192.622V53.46L186.942 59.58V50.7ZM196.786 50.7H198.226V56.18L203.906 50.06V59H202.466V53.46L196.786 59.58V50.7ZM197.506 47.12L198.706 46.66C198.946 47.46 199.512 47.86 200.406 47.86C201.299 47.86 201.866 47.46 202.106 46.66L203.306 47.12C203.092 47.72 202.726 48.1933 202.206 48.54C201.699 48.8867 201.099 49.06 200.406 49.06C199.712 49.06 199.106 48.8867 198.586 48.54C198.079 48.1933 197.719 47.72 197.506 47.12ZM216.738 52.02H214.138V59H212.698V52.02H210.098V50.7H216.738V52.02ZM224.215 56.22L225.415 56.88C225.135 57.4133 224.795 57.86 224.395 58.22C223.635 58.9 222.715 59.24 221.635 59.24C220.515 59.24 219.549 58.88 218.735 58.16C217.935 57.4267 217.535 56.34 217.535 54.9C217.535 53.6333 217.895 52.5867 218.615 51.76C219.349 50.92 220.329 50.5 221.555 50.5C222.942 50.5 223.989 51.0067 224.695 52.02C225.255 52.82 225.515 53.86 225.475 55.14H219.015C219.029 55.98 219.289 56.66 219.795 57.18C220.302 57.7 220.922 57.96 221.655 57.96C222.309 57.96 222.875 57.76 223.355 57.36C223.729 57.04 224.015 56.66 224.215 56.22ZM219.115 53.94H223.995C223.875 53.2867 223.589 52.7667 223.135 52.38C222.695 51.98 222.169 51.78 221.555 51.78C220.955 51.78 220.422 51.9867 219.955 52.4C219.502 52.8 219.222 53.3133 219.115 53.94ZM227.684 50.7H229.124V54.1L232.484 50.7H234.244L230.644 54.4L234.684 59H232.804L229.564 55.36L229.124 55.78V59H227.684V50.7ZM242.192 51.3V53.02C241.539 52.1933 240.672 51.78 239.592 51.78C238.779 51.78 238.085 52.06 237.512 52.62C236.939 53.1667 236.652 53.92 236.652 54.88C236.652 55.84 236.939 56.5933 237.512 57.14C238.085 57.6867 238.772 57.96 239.572 57.96C240.639 57.96 241.532 57.5267 242.252 56.66V58.38C241.465 58.9533 240.585 59.24 239.612 59.24C238.319 59.24 237.252 58.8333 236.412 58.02C235.585 57.1933 235.172 56.1533 235.172 54.9C235.172 53.6333 235.592 52.5867 236.432 51.76C237.272 50.92 238.332 50.5 239.612 50.5C240.572 50.5 241.432 50.7667 242.192 51.3ZM249.902 52.02H247.302V59H245.862V52.02H243.262V50.7H249.902V52.02ZM251.029 58.9C250.829 58.7 250.729 58.4667 250.729 58.2C250.729 57.9333 250.829 57.7 251.029 57.5C251.229 57.3 251.463 57.2 251.729 57.2C251.996 57.2 252.229 57.3 252.429 57.5C252.629 57.7 252.729 57.9333 252.729 58.2C252.729 58.4667 252.629 58.7 252.429 58.9C252.229 59.1 251.996 59.2 251.729 59.2C251.463 59.2 251.229 59.1 251.029 58.9Z" fill="#0B1530"/>
<path d="M73.58 155.98V170.92H88.58V155.98H99.02V196H88.58V179.8H73.58V196H63.2V155.98H73.58ZM117.278 196V164.8H111.578V155.98H127.658V196H117.278ZM157.419 185.14V181.3H197.019V185.14H157.419ZM231.231 155.98H243.051L231.651 169.6C233.531 168.76 235.391 168.34 237.231 168.34C240.711 168.34 243.731 169.62 246.291 172.18C248.811 174.7 250.071 177.88 250.071 181.72C250.071 185.92 248.691 189.4 245.931 192.16C242.771 195.32 238.511 196.9 233.151 196.9C227.551 196.9 223.171 195.28 220.011 192.04C217.571 189.52 216.351 186.4 216.351 182.68C216.351 177.96 218.331 172.98 222.291 167.74L231.231 155.98ZM228.231 186.64C229.551 188 231.131 188.68 232.971 188.68C234.811 188.68 236.351 188.06 237.591 186.82C238.831 185.58 239.451 184.06 239.451 182.26C239.451 180.66 238.831 179.26 237.591 178.06C236.311 176.82 234.771 176.2 232.971 176.2C231.251 176.2 229.751 176.78 228.471 177.94C227.151 179.14 226.491 180.52 226.491 182.08C226.491 183.88 227.071 185.4 228.231 186.64ZM283.113 155.98V180.46H287.973V188.44H283.113V196H273.513V188.44H254.133V181.78L269.553 155.98H283.113ZM264.093 180.46H273.513V164.14L264.093 180.46ZM302.349 193.42V209.74H292.749V169.18H302.349V172.12C304.389 169.56 307.129 168.28 310.569 168.28C314.329 168.28 317.509 169.58 320.109 172.18C322.829 174.9 324.189 178.36 324.189 182.56C324.189 186.84 322.749 190.38 319.869 193.18C317.349 195.66 314.289 196.9 310.689 196.9C307.369 196.9 304.589 195.74 302.349 193.42ZM308.229 176.44C306.549 176.44 305.109 177.04 303.909 178.24C302.669 179.48 302.049 180.96 302.049 182.68C302.049 184.28 302.669 185.7 303.909 186.94C305.109 188.14 306.549 188.74 308.229 188.74C309.949 188.74 311.369 188.14 312.489 186.94C313.729 185.7 314.349 184.28 314.349 182.68C314.349 180.96 313.729 179.48 312.489 178.24C311.369 177.04 309.949 176.44 308.229 176.44ZM326.422 196L339.802 181.42L328.942 169.18H341.422L346.042 174.7L350.782 169.18H363.202L352.102 181.42L365.542 196H352.822L345.982 188.02L339.142 196H326.422Z" fill="#0B1530"/>
<path d="M60.72 245.66H70.52V259H69.04V247.06H62.2V259H60.72V245.66ZM80.6222 258C79.7955 258.827 78.7489 259.24 77.4822 259.24C76.2155 259.24 75.1622 258.827 74.3222 258C73.4955 257.173 73.0822 256.133 73.0822 254.88C73.0822 253.613 73.4955 252.567 74.3222 251.74C75.1622 250.913 76.2155 250.5 77.4822 250.5C78.7489 250.5 79.7955 250.913 80.6222 251.74C81.4622 252.567 81.8822 253.613 81.8822 254.88C81.8822 256.133 81.4622 257.173 80.6222 258ZM79.5422 252.6C78.9822 252.053 78.2955 251.78 77.4822 251.78C76.6689 251.78 75.9755 252.06 75.4022 252.62C74.8422 253.167 74.5622 253.92 74.5622 254.88C74.5622 255.84 74.8489 256.593 75.4222 257.14C75.9955 257.687 76.6822 257.96 77.4822 257.96C78.2822 257.96 78.9689 257.687 79.5422 257.14C80.1155 256.593 80.4022 255.84 80.4022 254.88C80.4022 253.907 80.1155 253.147 79.5422 252.6ZM90.5905 251.3V253.02C89.9371 252.193 89.0705 251.78 87.9905 251.78C87.1771 251.78 86.4838 252.06 85.9105 252.62C85.3371 253.167 85.0505 253.92 85.0505 254.88C85.0505 255.84 85.3371 256.593 85.9105 257.14C86.4838 257.687 87.1705 257.96 87.9705 257.96C89.0371 257.96 89.9305 257.527 90.6505 256.66V258.38C89.8638 258.953 88.9838 259.24 88.0105 259.24C86.7171 259.24 85.6505 258.833 84.8105 258.02C83.9838 257.193 83.5705 256.153 83.5705 254.9C83.5705 253.633 83.9905 252.587 84.8305 251.76C85.6705 250.92 86.7305 250.5 88.0105 250.5C88.9705 250.5 89.8305 250.767 90.5905 251.3ZM99.14 250.7V259H97.7V252.02H94.74V255.76C94.74 256.84 94.5267 257.64 94.1 258.16C93.62 258.747 92.9533 259.04 92.1 259.04C91.9933 259.04 91.8467 259.027 91.66 259V257.68C91.7933 257.707 91.9 257.72 91.98 257.72C92.4467 257.72 92.7933 257.54 93.02 257.18C93.2067 256.887 93.3 256.413 93.3 255.76V250.7H99.14ZM108.024 256.22L109.224 256.88C108.944 257.413 108.604 257.86 108.204 258.22C107.444 258.9 106.524 259.24 105.444 259.24C104.324 259.24 103.357 258.88 102.544 258.16C101.744 257.427 101.344 256.34 101.344 254.9C101.344 253.633 101.704 252.587 102.424 251.76C103.157 250.92 104.137 250.5 105.364 250.5C106.751 250.5 107.797 251.007 108.504 252.02C109.064 252.82 109.324 253.86 109.284 255.14H102.824C102.837 255.98 103.097 256.66 103.604 257.18C104.111 257.7 104.731 257.96 105.464 257.96C106.117 257.96 106.684 257.76 107.164 257.36C107.537 257.04 107.824 256.66 108.024 256.22ZM102.924 253.94H107.804C107.684 253.287 107.397 252.767 106.944 252.38C106.504 251.98 105.977 251.78 105.364 251.78C104.764 251.78 104.231 251.987 103.764 252.4C103.311 252.8 103.031 253.313 102.924 253.94ZM112.093 250.7H117.933V257.68H119.173V261.2H117.853V259H111.533V261.2H110.213V257.68C110.906 257.667 111.419 257.307 111.753 256.6C111.979 256.133 112.093 255.4 112.093 254.4V250.7ZM116.493 257.68V252.02H113.533V255.14C113.533 256.247 113.199 257.093 112.533 257.68H116.493ZM120.672 263.6L123.312 258.22L119.492 250.7H121.132L124.072 256.64L126.772 250.7H128.372L122.272 263.6H120.672ZM131.331 254.1H132.831C132.965 253.167 133.338 252.38 133.951 251.74C134.738 250.913 135.785 250.5 137.091 250.5C138.371 250.5 139.425 250.913 140.251 251.74C141.078 252.567 141.491 253.613 141.491 254.88C141.491 256.133 141.071 257.173 140.231 258C139.405 258.827 138.358 259.24 137.091 259.24C135.638 259.24 134.498 258.72 133.671 257.68C133.138 257.013 132.831 256.26 132.751 255.42H131.331V259H129.891V250.7H131.331V254.1ZM137.091 251.78C136.291 251.78 135.611 252.06 135.051 252.62C134.505 253.167 134.231 253.92 134.231 254.88C134.231 255.853 134.511 256.613 135.071 257.16C135.631 257.693 136.305 257.96 137.091 257.96C137.891 257.96 138.578 257.687 139.151 257.14C139.725 256.593 140.011 255.84 140.011 254.88C140.011 253.92 139.725 253.167 139.151 252.62C138.591 252.06 137.905 251.78 137.091 251.78ZM143.7 259V250.7H145.14V257.68H148.34V250.7H149.78V257.68H152.98V250.7H154.42V257.68H155.78V261.2H154.46V259H143.7ZM157.294 250.7H158.734V256.18L164.414 250.06V259H162.974V253.46L157.294 259.58V250.7ZM167.137 250.7H168.577V256.18L174.257 250.06V259H172.817V253.46L167.137 259.58V250.7ZM167.857 247.12L169.057 246.66C169.297 247.46 169.864 247.86 170.757 247.86C171.651 247.86 172.217 247.46 172.457 246.66L173.657 247.12C173.444 247.72 173.077 248.193 172.557 248.54C172.051 248.887 171.451 249.06 170.757 249.06C170.064 249.06 169.457 248.887 168.937 248.54C168.431 248.193 168.071 247.72 167.857 247.12ZM187.089 252.02H184.489V259H183.049V252.02H180.449V250.7H187.089V252.02ZM194.567 256.22L195.767 256.88C195.487 257.413 195.147 257.86 194.747 258.22C193.987 258.9 193.067 259.24 191.987 259.24C190.867 259.24 189.9 258.88 189.087 258.16C188.287 257.427 187.887 256.34 187.887 254.9C187.887 253.633 188.247 252.587 188.967 251.76C189.7 250.92 190.68 250.5 191.907 250.5C193.294 250.5 194.34 251.007 195.047 252.02C195.607 252.82 195.867 253.86 195.827 255.14H189.367C189.38 255.98 189.64 256.66 190.147 257.18C190.654 257.7 191.274 257.96 192.007 257.96C192.66 257.96 193.227 257.76 193.707 257.36C194.08 257.04 194.367 256.66 194.567 256.22ZM189.467 253.94H194.347C194.227 253.287 193.94 252.767 193.487 252.38C193.047 251.98 192.52 251.78 191.907 251.78C191.307 251.78 190.774 251.987 190.307 252.4C189.854 252.8 189.574 253.313 189.467 253.94ZM198.036 250.7H199.476V254.1L202.836 250.7H204.596L200.996 254.4L205.036 259H203.156L199.916 255.36L199.476 255.78V259H198.036V250.7ZM212.544 251.3V253.02C211.89 252.193 211.024 251.78 209.944 251.78C209.13 251.78 208.437 252.06 207.864 252.62C207.29 253.167 207.004 253.92 207.004 254.88C207.004 255.84 207.29 256.593 207.864 257.14C208.437 257.687 209.124 257.96 209.924 257.96C210.99 257.96 211.884 257.527 212.604 256.66V258.38C211.817 258.953 210.937 259.24 209.964 259.24C208.67 259.24 207.604 258.833 206.764 258.02C205.937 257.193 205.524 256.153 205.524 254.9C205.524 253.633 205.944 252.587 206.784 251.76C207.624 250.92 208.684 250.5 209.964 250.5C210.924 250.5 211.784 250.767 212.544 251.3ZM220.253 252.02H217.653V259H216.213V252.02H213.613V250.7H220.253V252.02Z" fill="#0B1530"/>
<mask id="path-5-inside-1_953_2984" fill="white">
<path d="M386 208H398V240H386V208Z"/>
</mask>
<path d="M398 208H400V206H398V208ZM398 240V242H400V240H398ZM386 210H398V206H386V210ZM396 208V240H400V208H396ZM398 238H386V242H398V238Z" fill="#33F7C3" mask="url(#path-5-inside-1_953_2984)"/>
<rect x="408.75" y="213.649" width="42.9061" height="20.7027" rx="3.75176" fill="#33F7C3"/>
<rect x="408.75" y="213.649" width="42.9061" height="20.7027" rx="3.75176" stroke="#33F7C3" stroke-width="1.5007"/>
<path d="M419.139 228.619C418.502 228.619 417.935 228.51 417.438 228.291C416.943 228.069 416.552 227.765 416.265 227.379C415.981 226.989 415.835 226.54 415.826 226.032H417.685C417.696 226.245 417.766 226.432 417.894 226.594C418.025 226.753 418.198 226.877 418.414 226.965C418.63 227.053 418.873 227.097 419.143 227.097C419.424 227.097 419.673 227.048 419.889 226.948C420.105 226.849 420.274 226.711 420.396 226.535C420.519 226.358 420.58 226.155 420.58 225.925C420.58 225.692 420.514 225.486 420.384 225.307C420.256 225.125 420.071 224.983 419.829 224.88C419.591 224.778 419.306 224.727 418.977 224.727H418.162V223.371H418.977C419.255 223.371 419.501 223.323 419.714 223.226C419.93 223.13 420.098 222.996 420.217 222.825C420.337 222.652 420.396 222.45 420.396 222.22C420.396 222.001 420.344 221.809 420.239 221.645C420.136 221.477 419.991 221.346 419.804 221.252C419.619 221.158 419.403 221.112 419.156 221.112C418.906 221.112 418.677 221.157 418.469 221.248C418.262 221.336 418.096 221.463 417.971 221.627C417.845 221.792 417.779 221.986 417.77 222.207H416.001C416.009 221.704 416.153 221.261 416.431 220.877C416.71 220.493 417.085 220.194 417.557 219.978C418.032 219.759 418.567 219.649 419.164 219.649C419.767 219.649 420.294 219.759 420.746 219.978C421.198 220.196 421.549 220.492 421.799 220.864C422.052 221.234 422.177 221.649 422.174 222.109C422.177 222.598 422.025 223.006 421.718 223.333C421.414 223.66 421.017 223.867 420.529 223.955V224.023C421.171 224.106 421.66 224.329 421.995 224.693C422.333 225.054 422.501 225.506 422.498 226.049C422.501 226.546 422.358 226.988 422.068 227.374C421.781 227.761 421.384 228.065 420.878 228.287C420.372 228.509 419.792 228.619 419.139 228.619ZM423.825 228.5V227.17L426.933 224.292C427.198 224.036 427.419 223.806 427.598 223.601C427.78 223.397 427.918 223.196 428.012 223C428.106 222.801 428.153 222.587 428.153 222.356C428.153 222.101 428.094 221.88 427.978 221.696C427.861 221.508 427.702 221.365 427.5 221.265C427.298 221.163 427.07 221.112 426.814 221.112C426.547 221.112 426.314 221.166 426.115 221.274C425.916 221.382 425.762 221.537 425.654 221.738C425.546 221.94 425.492 222.18 425.492 222.459H423.74C423.74 221.888 423.869 221.392 424.128 220.971C424.387 220.55 424.749 220.225 425.215 219.995C425.681 219.764 426.218 219.649 426.827 219.649C427.452 219.649 427.996 219.76 428.459 219.982C428.926 220.201 429.288 220.505 429.547 220.894C429.805 221.284 429.935 221.73 429.935 222.233C429.935 222.563 429.869 222.888 429.738 223.209C429.611 223.53 429.382 223.887 429.052 224.279C428.722 224.669 428.258 225.136 427.658 225.682L426.383 226.931V226.991H430.05V228.5H423.825ZM431.404 230.956V221.951H433.195V223.051H433.276C433.356 222.875 433.471 222.696 433.621 222.514C433.775 222.329 433.974 222.176 434.218 222.054C434.465 221.929 434.772 221.866 435.139 221.866C435.617 221.866 436.057 221.991 436.461 222.241C436.864 222.489 437.187 222.862 437.429 223.363C437.67 223.86 437.791 224.484 437.791 225.234C437.791 225.965 437.673 226.581 437.437 227.085C437.204 227.585 436.886 227.964 436.482 228.223C436.081 228.479 435.632 228.607 435.135 228.607C434.782 228.607 434.483 228.548 434.235 228.432C433.991 228.315 433.79 228.169 433.634 227.993C433.478 227.814 433.358 227.633 433.276 227.451H433.221V230.956H431.404ZM433.182 225.226C433.182 225.615 433.236 225.955 433.344 226.245C433.452 226.535 433.609 226.761 433.813 226.923C434.018 227.082 434.267 227.161 434.559 227.161C434.855 227.161 435.105 227.08 435.31 226.918C435.514 226.753 435.669 226.526 435.774 226.236C435.882 225.943 435.936 225.607 435.936 225.226C435.936 224.848 435.884 224.515 435.779 224.228C435.673 223.941 435.519 223.717 435.314 223.555C435.109 223.392 434.858 223.311 434.559 223.311C434.264 223.311 434.014 223.39 433.809 223.546C433.607 223.702 433.452 223.924 433.344 224.211C433.236 224.498 433.182 224.836 433.182 225.226ZM440.285 221.951L441.487 224.241L442.719 221.951H444.582L442.685 225.226L444.634 228.5H442.779L441.487 226.236L440.217 228.5H438.341L440.285 225.226L438.409 221.951H440.285Z" fill="#0B1530"/>
<mask id="path-9-inside-2_953_2984" fill="white">
<path d="M386 64H398V144H386V64Z"/>
</mask>
<path d="M398 64H400V62H398V64ZM398 144V146H400V144H398ZM386 66H398V62H386V66ZM396 64V144H400V64H396ZM398 142H386V146H398V142Z" fill="#33F7C3" mask="url(#path-9-inside-2_953_2984)"/>
<rect x="408.75" y="93.6488" width="43.9061" height="20.7027" rx="3.75176" fill="#33F7C3"/>
<rect x="408.75" y="93.6488" width="43.9061" height="20.7027" rx="3.75176" stroke="#33F7C3" stroke-width="1.5007"/>
<path d="M419.169 108.619C418.512 108.619 417.928 108.513 417.416 108.3C416.908 108.084 416.508 107.789 416.218 107.417C415.928 107.045 415.783 106.623 415.783 106.151C415.783 105.787 415.866 105.453 416.031 105.149C416.198 104.842 416.426 104.588 416.713 104.386C417 104.181 417.321 104.05 417.676 103.994V103.934C417.21 103.84 416.832 103.614 416.542 103.256C416.252 102.895 416.107 102.476 416.107 101.998C416.107 101.546 416.24 101.144 416.504 100.792C416.768 100.437 417.131 100.158 417.591 99.9562C418.054 99.7516 418.58 99.6493 419.169 99.6493C419.757 99.6493 420.281 99.7516 420.742 99.9562C421.205 100.161 421.569 100.441 421.833 100.796C422.097 101.149 422.231 101.549 422.234 101.998C422.231 102.479 422.083 102.898 421.791 103.256C421.498 103.614 421.123 103.84 420.665 103.934V103.994C421.015 104.05 421.331 104.181 421.616 104.386C421.903 104.588 422.13 104.842 422.298 105.149C422.468 105.453 422.555 105.787 422.558 106.151C422.555 106.623 422.409 107.045 422.119 107.417C421.829 107.789 421.428 108.084 420.917 108.3C420.408 108.513 419.825 108.619 419.169 108.619ZM419.169 107.264C419.461 107.264 419.717 107.211 419.936 107.106C420.155 106.998 420.325 106.85 420.448 106.662C420.573 106.472 420.635 106.253 420.635 106.006C420.635 105.753 420.571 105.53 420.443 105.337C420.315 105.14 420.142 104.987 419.923 104.876C419.704 104.762 419.453 104.706 419.169 104.706C418.887 104.706 418.636 104.762 418.414 104.876C418.192 104.987 418.017 105.14 417.89 105.337C417.764 105.53 417.702 105.753 417.702 106.006C417.702 106.253 417.763 106.472 417.885 106.662C418.007 106.85 418.179 106.998 418.401 107.106C418.623 107.211 418.879 107.264 419.169 107.264ZM419.169 103.363C419.413 103.363 419.63 103.313 419.821 103.213C420.011 103.114 420.16 102.976 420.268 102.8C420.376 102.624 420.43 102.42 420.43 102.19C420.43 101.963 420.376 101.764 420.268 101.593C420.16 101.42 420.013 101.285 419.825 101.188C419.638 101.089 419.419 101.039 419.169 101.039C418.921 101.039 418.702 101.089 418.512 101.188C418.322 101.285 418.172 101.42 418.064 101.593C417.959 101.764 417.907 101.963 417.907 102.19C417.907 102.42 417.961 102.624 418.069 102.8C418.177 102.976 418.326 103.114 418.516 103.213C418.707 103.313 418.924 103.363 419.169 103.363ZM427.272 108.692C426.539 108.689 425.908 108.509 425.379 108.15C424.853 107.792 424.448 107.274 424.164 106.594C423.883 105.915 423.743 105.098 423.746 104.143C423.746 103.191 423.887 102.379 424.168 101.708C424.453 101.038 424.858 100.528 425.383 100.178C425.912 99.8255 426.542 99.6493 427.272 99.6493C428.003 99.6493 428.631 99.8255 429.157 100.178C429.685 100.53 430.092 101.042 430.376 101.713C430.66 102.381 430.801 103.191 430.798 104.143C430.798 105.101 430.656 105.919 430.372 106.599C430.09 107.278 429.687 107.797 429.161 108.155C428.635 108.513 428.005 108.692 427.272 108.692ZM427.272 107.161C427.772 107.161 428.172 106.91 428.47 106.407C428.769 105.904 428.916 105.149 428.914 104.143C428.914 103.481 428.845 102.929 428.709 102.489C428.575 102.048 428.385 101.717 428.138 101.495C427.893 101.274 427.605 101.163 427.272 101.163C426.775 101.163 426.377 101.411 426.078 101.909C425.78 102.406 425.629 103.151 425.626 104.143C425.626 104.814 425.693 105.374 425.827 105.823C425.963 106.269 426.155 106.604 426.402 106.829C426.65 107.05 426.94 107.161 427.272 107.161ZM432.131 110.956V101.951H433.922V103.051H434.003C434.082 102.875 434.198 102.696 434.348 102.514C434.502 102.329 434.701 102.176 434.945 102.054C435.192 101.929 435.499 101.866 435.866 101.866C436.343 101.866 436.784 101.991 437.188 102.241C437.591 102.489 437.914 102.862 438.155 103.363C438.397 103.86 438.518 104.484 438.518 105.234C438.518 105.965 438.4 106.581 438.164 107.085C437.931 107.585 437.613 107.964 437.209 108.223C436.808 108.479 436.359 108.607 435.862 108.607C435.509 108.607 435.209 108.548 434.962 108.432C434.718 108.315 434.517 108.169 434.361 107.993C434.205 107.814 434.085 107.633 434.003 107.451H433.947V110.956H432.131ZM433.909 105.226C433.909 105.615 433.963 105.955 434.071 106.245C434.179 106.535 434.335 106.761 434.54 106.923C434.745 107.082 434.993 107.161 435.286 107.161C435.582 107.161 435.832 107.08 436.037 106.918C436.241 106.753 436.396 106.526 436.501 106.236C436.609 105.943 436.663 105.607 436.663 105.226C436.663 104.848 436.611 104.515 436.505 104.228C436.4 103.941 436.245 103.717 436.041 103.555C435.836 103.392 435.585 103.311 435.286 103.311C434.991 103.311 434.74 103.39 434.536 103.546C434.334 103.702 434.179 103.924 434.071 104.211C433.963 104.498 433.909 104.836 433.909 105.226ZM441.012 101.951L442.214 104.241L443.446 101.951H445.309L443.412 105.226L445.361 108.5H443.506L442.214 106.236L440.944 108.5H439.068L441.012 105.226L439.136 101.951H441.012Z" fill="#0B1530"/>
<path d="M59 284H453" stroke="#CED0D6" stroke-width="2"/>
<path d="M60.72 309.66H70.52V323H69.04V311.06H62.2V323H60.72V309.66ZM75.0422 321.84V327.6H73.6022V314.7H75.0422V315.86C75.7755 314.953 76.7222 314.5 77.8822 314.5C79.1222 314.5 80.1022 314.94 80.8222 315.82C81.5555 316.687 81.9222 317.713 81.9222 318.9C81.9222 320.1 81.5622 321.127 80.8422 321.98C80.1222 322.82 79.1555 323.24 77.9422 323.24C76.7289 323.24 75.7622 322.773 75.0422 321.84ZM77.7422 321.96C78.5555 321.96 79.2089 321.667 79.7022 321.08C80.1955 320.48 80.4422 319.753 80.4422 318.9C80.4422 317.94 80.1689 317.18 79.6222 316.62C79.0755 316.06 78.4422 315.78 77.7222 315.78C77.0022 315.78 76.3622 316.06 75.8022 316.62C75.2422 317.18 74.9622 317.933 74.9622 318.88C74.9622 319.747 75.2155 320.48 75.7222 321.08C76.2422 321.667 76.9155 321.96 77.7422 321.96ZM90.2895 320.22L91.4895 320.88C91.2095 321.413 90.8695 321.86 90.4695 322.22C89.7095 322.9 88.7895 323.24 87.7095 323.24C86.5895 323.24 85.6229 322.88 84.8095 322.16C84.0095 321.427 83.6095 320.34 83.6095 318.9C83.6095 317.633 83.9695 316.587 84.6895 315.76C85.4229 314.92 86.4029 314.5 87.6295 314.5C89.0162 314.5 90.0629 315.007 90.7695 316.02C91.3295 316.82 91.5895 317.86 91.5495 319.14H85.0895C85.1029 319.98 85.3629 320.66 85.8695 321.18C86.3762 321.7 86.9962 321.96 87.7295 321.96C88.3829 321.96 88.9495 321.76 89.4295 321.36C89.8029 321.04 90.0895 320.66 90.2895 320.22ZM85.1895 317.94H90.0695C89.9495 317.287 89.6629 316.767 89.2095 316.38C88.7695 315.98 88.2429 315.78 87.6295 315.78C87.0295 315.78 86.4962 315.987 86.0295 316.4C85.5762 316.8 85.2962 317.313 85.1895 317.94ZM94.3584 314.7H100.198V321.68H101.438V325.2H100.118V323H93.7984V325.2H92.4784V321.68C93.1718 321.667 93.6851 321.307 94.0184 320.6C94.2451 320.133 94.3584 319.4 94.3584 318.4V314.7ZM98.7584 321.68V316.02H95.7984V319.14C95.7984 320.247 95.4651 321.093 94.7984 321.68H98.7584ZM102.958 323V314.7H104.398V321.68H107.598V314.7H109.038V321.68H112.238V314.7H113.678V323H102.958ZM122.555 320.22L123.755 320.88C123.475 321.413 123.135 321.86 122.735 322.22C121.975 322.9 121.055 323.24 119.975 323.24C118.855 323.24 117.888 322.88 117.075 322.16C116.275 321.427 115.875 320.34 115.875 318.9C115.875 317.633 116.235 316.587 116.955 315.76C117.688 314.92 118.668 314.5 119.895 314.5C121.282 314.5 122.328 315.007 123.035 316.02C123.595 316.82 123.855 317.86 123.815 319.14H117.355C117.368 319.98 117.628 320.66 118.135 321.18C118.642 321.7 119.262 321.96 119.995 321.96C120.648 321.96 121.215 321.76 121.695 321.36C122.068 321.04 122.355 320.66 122.555 320.22ZM117.455 317.94H122.335C122.215 317.287 121.928 316.767 121.475 316.38C121.035 315.98 120.508 315.78 119.895 315.78C119.295 315.78 118.762 315.987 118.295 316.4C117.842 316.8 117.562 317.313 117.455 317.94ZM132.524 315.3V317.02C131.871 316.193 131.004 315.78 129.924 315.78C129.111 315.78 128.417 316.06 127.844 316.62C127.271 317.167 126.984 317.92 126.984 318.88C126.984 319.84 127.271 320.593 127.844 321.14C128.417 321.687 129.104 321.96 129.904 321.96C130.971 321.96 131.864 321.527 132.584 320.66V322.38C131.797 322.953 130.917 323.24 129.944 323.24C128.651 323.24 127.584 322.833 126.744 322.02C125.917 321.193 125.504 320.153 125.504 318.9C125.504 317.633 125.924 316.587 126.764 315.76C127.604 314.92 128.664 314.5 129.944 314.5C130.904 314.5 131.764 314.767 132.524 315.3ZM140.234 316.02H137.634V323H136.194V316.02H133.594V314.7H140.234V316.02ZM141.747 314.7H144.887C145.647 314.7 146.227 314.86 146.627 315.18C147.107 315.567 147.347 316.087 147.347 316.74C147.347 317.46 147.047 318.013 146.447 318.4C146.86 318.507 147.207 318.693 147.487 318.96C147.927 319.387 148.147 319.92 148.147 320.56C148.147 321.36 147.86 321.987 147.287 322.44C146.793 322.813 146.14 323 145.327 323H141.747V314.7ZM143.187 318.08H144.707C145.093 318.08 145.4 318 145.627 317.84C145.893 317.64 146.027 317.353 146.027 316.98C146.027 316.647 145.893 316.38 145.627 316.18C145.427 316.047 145.04 315.98 144.467 315.98H143.187V318.08ZM143.187 321.72H144.967C145.58 321.72 146.013 321.627 146.267 321.44C146.587 321.2 146.747 320.893 146.747 320.52C146.747 320.12 146.607 319.807 146.327 319.58C146.073 319.38 145.64 319.28 145.027 319.28H143.187V321.72ZM150.32 327.6L152.96 322.22L149.14 314.7H150.78L153.72 320.64L156.42 314.7H158.02L151.92 327.6H150.32ZM160.98 318.1H162.48C162.613 317.167 162.986 316.38 163.6 315.74C164.386 314.913 165.433 314.5 166.74 314.5C168.02 314.5 169.073 314.913 169.9 315.74C170.726 316.567 171.14 317.613 171.14 318.88C171.14 320.133 170.72 321.173 169.88 322C169.053 322.827 168.006 323.24 166.74 323.24C165.286 323.24 164.146 322.72 163.32 321.68C162.786 321.013 162.48 320.26 162.4 319.42H160.98V323H159.54V314.7H160.98V318.1ZM166.74 315.78C165.94 315.78 165.26 316.06 164.7 316.62C164.153 317.167 163.88 317.92 163.88 318.88C163.88 319.853 164.16 320.613 164.72 321.16C165.28 321.693 165.953 321.96 166.74 321.96C167.54 321.96 168.226 321.687 168.8 321.14C169.373 320.593 169.66 319.84 169.66 318.88C169.66 317.92 169.373 317.167 168.8 316.62C168.24 316.06 167.553 315.78 166.74 315.78ZM173.348 323V314.7H174.788V321.68H177.988V314.7H179.428V321.68H182.628V314.7H184.068V321.68H185.428V325.2H184.108V323H173.348ZM186.942 314.7H188.382V320.18L194.062 314.06V323H192.622V317.46L186.942 323.58V314.7ZM196.786 314.7H198.226V320.18L203.906 314.06V323H202.466V317.46L196.786 323.58V314.7ZM197.506 311.12L198.706 310.66C198.946 311.46 199.512 311.86 200.406 311.86C201.299 311.86 201.866 311.46 202.106 310.66L203.306 311.12C203.092 311.72 202.726 312.193 202.206 312.54C201.699 312.887 201.099 313.06 200.406 313.06C199.712 313.06 199.106 312.887 198.586 312.54C198.079 312.193 197.719 311.72 197.506 311.12ZM216.738 316.02H214.138V323H212.698V316.02H210.098V314.7H216.738V316.02ZM224.215 320.22L225.415 320.88C225.135 321.413 224.795 321.86 224.395 322.22C223.635 322.9 222.715 323.24 221.635 323.24C220.515 323.24 219.549 322.88 218.735 322.16C217.935 321.427 217.535 320.34 217.535 318.9C217.535 317.633 217.895 316.587 218.615 315.76C219.349 314.92 220.329 314.5 221.555 314.5C222.942 314.5 223.989 315.007 224.695 316.02C225.255 316.82 225.515 317.86 225.475 319.14H219.015C219.029 319.98 219.289 320.66 219.795 321.18C220.302 321.7 220.922 321.96 221.655 321.96C222.309 321.96 222.875 321.76 223.355 321.36C223.729 321.04 224.015 320.66 224.215 320.22ZM219.115 317.94H223.995C223.875 317.287 223.589 316.767 223.135 316.38C222.695 315.98 222.169 315.78 221.555 315.78C220.955 315.78 220.422 315.987 219.955 316.4C219.502 316.8 219.222 317.313 219.115 317.94ZM227.684 314.7H229.124V318.1L232.484 314.7H234.244L230.644 318.4L234.684 323H232.804L229.564 319.36L229.124 319.78V323H227.684V314.7ZM242.192 315.3V317.02C241.539 316.193 240.672 315.78 239.592 315.78C238.779 315.78 238.085 316.06 237.512 316.62C236.939 317.167 236.652 317.92 236.652 318.88C236.652 319.84 236.939 320.593 237.512 321.14C238.085 321.687 238.772 321.96 239.572 321.96C240.639 321.96 241.532 321.527 242.252 320.66V322.38C241.465 322.953 240.585 323.24 239.612 323.24C238.319 323.24 237.252 322.833 236.412 322.02C235.585 321.193 235.172 320.153 235.172 318.9C235.172 317.633 235.592 316.587 236.432 315.76C237.272 314.92 238.332 314.5 239.612 314.5C240.572 314.5 241.432 314.767 242.192 315.3ZM249.902 316.02H247.302V323H245.862V316.02H243.262V314.7H249.902V316.02ZM251.029 322.9C250.829 322.7 250.729 322.467 250.729 322.2C250.729 321.933 250.829 321.7 251.029 321.5C251.229 321.3 251.463 321.2 251.729 321.2C251.996 321.2 252.229 321.3 252.429 321.5C252.629 321.7 252.729 321.933 252.729 322.2C252.729 322.467 252.629 322.7 252.429 322.9C252.229 323.1 251.996 323.2 251.729 323.2C251.463 323.2 251.229 323.1 251.029 322.9Z" fill="#0B1530"/>
<path d="M68.72 401.32V411.28H78.72V401.32H85.68V428H78.72V417.2H68.72V428H61.8V401.32H68.72ZM110.932 422.12V428H89.5322L96.2922 420.92C98.7189 418.387 100.546 416.133 101.772 414.16C102.732 412.667 103.212 411.28 103.212 410C103.212 408.88 102.946 408.027 102.412 407.44C101.932 406.907 101.279 406.64 100.452 406.64C99.4655 406.64 98.6922 407 98.1322 407.72C97.5455 408.467 97.2255 409.56 97.1722 411H90.0122C90.0389 408.013 91.0255 405.547 92.9722 403.6C94.8922 401.68 97.4122 400.72 100.532 400.72C103.706 400.72 106.212 401.64 108.052 403.48C109.786 405.213 110.652 407.4 110.652 410.04C110.652 412.867 109.332 415.507 106.692 417.96L102.212 422.12H110.932ZM124.613 420.04V414.76H155.293V420.04H124.613ZM187.198 401.32V417.64H190.438V422.96H187.198V428H180.798V422.96H167.878V418.52L178.158 401.32H187.198ZM174.518 417.64H180.798V406.76L174.518 417.64ZM205.542 407.76C204.929 407.2 204.222 406.92 203.422 406.92C202.622 406.92 201.915 407.2 201.302 407.76C200.609 408.347 200.049 409.333 199.622 410.72C199.195 412.08 198.982 413.413 198.982 414.72C198.982 415.92 199.182 417.227 199.582 418.64C200.009 420.027 200.582 421.04 201.302 421.68C201.915 422.24 202.622 422.52 203.422 422.52C204.222 422.52 204.929 422.24 205.542 421.68C206.235 421.067 206.795 420.08 207.222 418.72C207.649 417.333 207.862 416.013 207.862 414.76C207.862 413.507 207.635 412.173 207.182 410.76C206.755 409.347 206.209 408.347 205.542 407.76ZM214.742 414.68C214.742 419.347 213.422 422.973 210.782 425.56C208.729 427.587 206.275 428.6 203.422 428.6C200.569 428.6 198.115 427.587 196.062 425.56C193.422 422.973 192.102 419.347 192.102 414.68C192.102 409.987 193.422 406.347 196.062 403.76C198.115 401.733 200.569 400.72 203.422 400.72C206.275 400.72 208.729 401.733 210.782 403.76C213.422 406.347 214.742 409.987 214.742 414.68ZM224.006 426.28V437.16H217.606V410.12H224.006V412.08C225.366 410.373 227.193 409.52 229.486 409.52C231.993 409.52 234.113 410.387 235.846 412.12C237.66 413.933 238.566 416.24 238.566 419.04C238.566 421.893 237.606 424.253 235.686 426.12C234.006 427.773 231.966 428.6 229.566 428.6C227.353 428.6 225.5 427.827 224.006 426.28ZM227.926 414.96C226.806 414.96 225.846 415.36 225.046 416.16C224.22 416.987 223.806 417.973 223.806 419.12C223.806 420.187 224.22 421.133 225.046 421.96C225.846 422.76 226.806 423.16 227.926 423.16C229.073 423.16 230.02 422.76 230.766 421.96C231.593 421.133 232.006 420.187 232.006 419.12C232.006 417.973 231.593 416.987 230.766 416.16C230.02 415.36 229.073 414.96 227.926 414.96ZM240.055 428L248.975 418.28L241.735 410.12H250.055L253.135 413.8L256.295 410.12H264.575L257.175 418.28L266.135 428H257.655L253.095 422.68L248.535 428H240.055Z" fill="#0B1530"/>
<path d="M60.72 469.66H70.52V483H69.04V471.06H62.2V483H60.72V469.66ZM80.6222 482C79.7955 482.827 78.7489 483.24 77.4822 483.24C76.2155 483.24 75.1622 482.827 74.3222 482C73.4955 481.173 73.0822 480.133 73.0822 478.88C73.0822 477.613 73.4955 476.567 74.3222 475.74C75.1622 474.913 76.2155 474.5 77.4822 474.5C78.7489 474.5 79.7955 474.913 80.6222 475.74C81.4622 476.567 81.8822 477.613 81.8822 478.88C81.8822 480.133 81.4622 481.173 80.6222 482ZM79.5422 476.6C78.9822 476.053 78.2955 475.78 77.4822 475.78C76.6689 475.78 75.9755 476.06 75.4022 476.62C74.8422 477.167 74.5622 477.92 74.5622 478.88C74.5622 479.84 74.8489 480.593 75.4222 481.14C75.9955 481.687 76.6822 481.96 77.4822 481.96C78.2822 481.96 78.9689 481.687 79.5422 481.14C80.1155 480.593 80.4022 479.84 80.4022 478.88C80.4022 477.907 80.1155 477.147 79.5422 476.6ZM90.5905 475.3V477.02C89.9371 476.193 89.0705 475.78 87.9905 475.78C87.1771 475.78 86.4838 476.06 85.9105 476.62C85.3371 477.167 85.0505 477.92 85.0505 478.88C85.0505 479.84 85.3371 480.593 85.9105 481.14C86.4838 481.687 87.1705 481.96 87.9705 481.96C89.0371 481.96 89.9305 481.527 90.6505 480.66V482.38C89.8638 482.953 88.9838 483.24 88.0105 483.24C86.7171 483.24 85.6505 482.833 84.8105 482.02C83.9838 481.193 83.5705 480.153 83.5705 478.9C83.5705 477.633 83.9905 476.587 84.8305 475.76C85.6705 474.92 86.7305 474.5 88.0105 474.5C88.9705 474.5 89.8305 474.767 90.5905 475.3ZM99.14 474.7V483H97.7V476.02H94.74V479.76C94.74 480.84 94.5267 481.64 94.1 482.16C93.62 482.747 92.9533 483.04 92.1 483.04C91.9933 483.04 91.8467 483.027 91.66 483V481.68C91.7933 481.707 91.9 481.72 91.98 481.72C92.4467 481.72 92.7933 481.54 93.02 481.18C93.2067 480.887 93.3 480.413 93.3 479.76V474.7H99.14ZM108.024 480.22L109.224 480.88C108.944 481.413 108.604 481.86 108.204 482.22C107.444 482.9 106.524 483.24 105.444 483.24C104.324 483.24 103.357 482.88 102.544 482.16C101.744 481.427 101.344 480.34 101.344 478.9C101.344 477.633 101.704 476.587 102.424 475.76C103.157 474.92 104.137 474.5 105.364 474.5C106.751 474.5 107.797 475.007 108.504 476.02C109.064 476.82 109.324 477.86 109.284 479.14H102.824C102.837 479.98 103.097 480.66 103.604 481.18C104.111 481.7 104.731 481.96 105.464 481.96C106.117 481.96 106.684 481.76 107.164 481.36C107.537 481.04 107.824 480.66 108.024 480.22ZM102.924 477.94H107.804C107.684 477.287 107.397 476.767 106.944 476.38C106.504 475.98 105.977 475.78 105.364 475.78C104.764 475.78 104.231 475.987 103.764 476.4C103.311 476.8 103.031 477.313 102.924 477.94ZM112.093 474.7H117.933V481.68H119.173V485.2H117.853V483H111.533V485.2H110.213V481.68C110.906 481.667 111.419 481.307 111.753 480.6C111.979 480.133 112.093 479.4 112.093 478.4V474.7ZM116.493 481.68V476.02H113.533V479.14C113.533 480.247 113.199 481.093 112.533 481.68H116.493ZM120.672 487.6L123.312 482.22L119.492 474.7H121.132L124.072 480.64L126.772 474.7H128.372L122.272 487.6H120.672ZM131.331 478.1H132.831C132.965 477.167 133.338 476.38 133.951 475.74C134.738 474.913 135.785 474.5 137.091 474.5C138.371 474.5 139.425 474.913 140.251 475.74C141.078 476.567 141.491 477.613 141.491 478.88C141.491 480.133 141.071 481.173 140.231 482C139.405 482.827 138.358 483.24 137.091 483.24C135.638 483.24 134.498 482.72 133.671 481.68C133.138 481.013 132.831 480.26 132.751 479.42H131.331V483H129.891V474.7H131.331V478.1ZM137.091 475.78C136.291 475.78 135.611 476.06 135.051 476.62C134.505 477.167 134.231 477.92 134.231 478.88C134.231 479.853 134.511 480.613 135.071 481.16C135.631 481.693 136.305 481.96 137.091 481.96C137.891 481.96 138.578 481.687 139.151 481.14C139.725 480.593 140.011 479.84 140.011 478.88C140.011 477.92 139.725 477.167 139.151 476.62C138.591 476.06 137.905 475.78 137.091 475.78ZM143.7 483V474.7H145.14V481.68H148.34V474.7H149.78V481.68H152.98V474.7H154.42V481.68H155.78V485.2H154.46V483H143.7ZM157.294 474.7H158.734V480.18L164.414 474.06V483H162.974V477.46L157.294 483.58V474.7ZM167.137 474.7H168.577V480.18L174.257 474.06V483H172.817V477.46L167.137 483.58V474.7ZM167.857 471.12L169.057 470.66C169.297 471.46 169.864 471.86 170.757 471.86C171.651 471.86 172.217 471.46 172.457 470.66L173.657 471.12C173.444 471.72 173.077 472.193 172.557 472.54C172.051 472.887 171.451 473.06 170.757 473.06C170.064 473.06 169.457 472.887 168.937 472.54C168.431 472.193 168.071 471.72 167.857 471.12ZM187.089 476.02H184.489V483H183.049V476.02H180.449V474.7H187.089V476.02ZM194.567 480.22L195.767 480.88C195.487 481.413 195.147 481.86 194.747 482.22C193.987 482.9 193.067 483.24 191.987 483.24C190.867 483.24 189.9 482.88 189.087 482.16C188.287 481.427 187.887 480.34 187.887 478.9C187.887 477.633 188.247 476.587 188.967 475.76C189.7 474.92 190.68 474.5 191.907 474.5C193.294 474.5 194.34 475.007 195.047 476.02C195.607 476.82 195.867 477.86 195.827 479.14H189.367C189.38 479.98 189.64 480.66 190.147 481.18C190.654 481.7 191.274 481.96 192.007 481.96C192.66 481.96 193.227 481.76 193.707 481.36C194.08 481.04 194.367 480.66 194.567 480.22ZM189.467 477.94H194.347C194.227 477.287 193.94 476.767 193.487 476.38C193.047 475.98 192.52 475.78 191.907 475.78C191.307 475.78 190.774 475.987 190.307 476.4C189.854 476.8 189.574 477.313 189.467 477.94ZM198.036 474.7H199.476V478.1L202.836 474.7H204.596L200.996 478.4L205.036 483H203.156L199.916 479.36L199.476 479.78V483H198.036V474.7ZM212.544 475.3V477.02C211.89 476.193 211.024 475.78 209.944 475.78C209.13 475.78 208.437 476.06 207.864 476.62C207.29 477.167 207.004 477.92 207.004 478.88C207.004 479.84 207.29 480.593 207.864 481.14C208.437 481.687 209.124 481.96 209.924 481.96C210.99 481.96 211.884 481.527 212.604 480.66V482.38C211.817 482.953 210.937 483.24 209.964 483.24C208.67 483.24 207.604 482.833 206.764 482.02C205.937 481.193 205.524 480.153 205.524 478.9C205.524 477.633 205.944 476.587 206.784 475.76C207.624 474.92 208.684 474.5 209.964 474.5C210.924 474.5 211.784 474.767 212.544 475.3ZM220.253 476.02H217.653V483H216.213V476.02H213.613V474.7H220.253V476.02Z" fill="#0B1530"/>
<mask id="path-17-inside-3_953_2984" fill="white">
<path d="M386 436H398V464H386V436Z"/>
</mask>
<path d="M398 436H400V434H398V436ZM398 464V466H400V464H398ZM386 438H398V434H386V438ZM396 436V464H400V436H396ZM398 462H386V466H398V462Z" fill="#33F7C3" mask="url(#path-17-inside-3_953_2984)"/>
<rect x="408.75" y="439.649" width="42.9061" height="20.7027" rx="3.75176" fill="#33F7C3"/>
<rect x="408.75" y="439.649" width="42.9061" height="20.7027" rx="3.75176" stroke="#33F7C3" stroke-width="1.5007"/>
<path d="M415.911 454.5V453.17L419.019 450.292C419.284 450.036 419.505 449.806 419.684 449.601C419.866 449.397 420.004 449.196 420.098 449C420.192 448.801 420.239 448.587 420.239 448.356C420.239 448.101 420.18 447.88 420.064 447.696C419.947 447.508 419.788 447.365 419.586 447.265C419.385 447.163 419.156 447.112 418.9 447.112C418.633 447.112 418.4 447.166 418.201 447.274C418.002 447.382 417.848 447.537 417.74 447.738C417.632 447.94 417.578 448.18 417.578 448.459H415.826C415.826 447.888 415.955 447.392 416.214 446.971C416.473 446.55 416.835 446.225 417.301 445.995C417.767 445.764 418.304 445.649 418.913 445.649C419.538 445.649 420.082 445.76 420.546 445.982C421.012 446.201 421.374 446.505 421.633 446.894C421.891 447.284 422.021 447.73 422.021 448.233C422.021 448.563 421.955 448.888 421.825 449.209C421.697 449.53 421.468 449.887 421.138 450.279C420.809 450.669 420.344 451.136 419.744 451.682L418.469 452.931V452.991H422.136V454.5H415.911ZM426.731 454.619C426.074 454.619 425.49 454.513 424.978 454.3C424.47 454.084 424.07 453.789 423.78 453.417C423.491 453.045 423.346 452.623 423.346 452.151C423.346 451.787 423.428 451.453 423.593 451.149C423.761 450.842 423.988 450.588 424.275 450.386C424.562 450.181 424.883 450.05 425.239 449.994V449.934C424.772 449.84 424.394 449.614 424.104 449.256C423.815 448.895 423.67 448.476 423.67 447.998C423.67 447.546 423.802 447.144 424.066 446.792C424.33 446.437 424.693 446.158 425.153 445.956C425.617 445.752 426.142 445.649 426.731 445.649C427.319 445.649 427.843 445.752 428.304 445.956C428.767 446.161 429.131 446.441 429.395 446.796C429.66 447.149 429.793 447.549 429.796 447.998C429.793 448.479 429.645 448.898 429.353 449.256C429.06 449.614 428.685 449.84 428.227 449.934V449.994C428.577 450.05 428.894 450.181 429.178 450.386C429.465 450.588 429.692 450.842 429.86 451.149C430.031 451.453 430.117 451.787 430.12 452.151C430.117 452.623 429.971 453.045 429.681 453.417C429.391 453.789 428.99 454.084 428.479 454.3C427.97 454.513 427.387 454.619 426.731 454.619ZM426.731 453.264C427.023 453.264 427.279 453.211 427.498 453.106C427.717 452.998 427.887 452.85 428.01 452.662C428.135 452.472 428.197 452.253 428.197 452.006C428.197 451.753 428.133 451.53 428.005 451.337C427.878 451.14 427.704 450.987 427.485 450.876C427.266 450.762 427.015 450.706 426.731 450.706C426.449 450.706 426.198 450.762 425.976 450.876C425.754 450.987 425.58 451.14 425.452 451.337C425.327 451.53 425.264 451.753 425.264 452.006C425.264 452.253 425.325 452.472 425.447 452.662C425.57 452.85 425.742 452.998 425.963 453.106C426.185 453.211 426.441 453.264 426.731 453.264ZM426.731 449.363C426.975 449.363 427.193 449.313 427.383 449.213C427.573 449.114 427.723 448.976 427.831 448.8C427.939 448.624 427.993 448.42 427.993 448.19C427.993 447.963 427.939 447.764 427.831 447.593C427.723 447.42 427.575 447.285 427.387 447.188C427.2 447.089 426.981 447.039 426.731 447.039C426.483 447.039 426.265 447.089 426.074 447.188C425.884 447.285 425.734 447.42 425.626 447.593C425.521 447.764 425.469 447.963 425.469 448.19C425.469 448.42 425.523 448.624 425.631 448.8C425.739 448.976 425.888 449.114 426.078 449.213C426.269 449.313 426.486 449.363 426.731 449.363ZM431.428 456.956V447.951H433.218V449.051H433.299C433.379 448.875 433.494 448.696 433.645 448.514C433.798 448.329 433.997 448.176 434.242 448.054C434.489 447.929 434.796 447.866 435.163 447.866C435.64 447.866 436.081 447.991 436.484 448.241C436.888 448.489 437.21 448.862 437.452 449.363C437.694 449.86 437.814 450.484 437.814 451.234C437.814 451.965 437.696 452.581 437.46 453.085C437.227 453.585 436.909 453.964 436.506 454.223C436.105 454.479 435.656 454.607 435.158 454.607C434.806 454.607 434.506 454.548 434.259 454.432C434.014 454.315 433.814 454.169 433.658 453.993C433.501 453.814 433.382 453.633 433.299 453.451H433.244V456.956H431.428ZM433.206 451.226C433.206 451.615 433.26 451.955 433.368 452.245C433.476 452.535 433.632 452.761 433.837 452.923C434.041 453.082 434.29 453.161 434.583 453.161C434.878 453.161 435.128 453.08 435.333 452.918C435.538 452.753 435.693 452.526 435.798 452.236C435.906 451.943 435.96 451.607 435.96 451.226C435.96 450.848 435.907 450.515 435.802 450.228C435.697 449.941 435.542 449.717 435.337 449.555C435.133 449.392 434.881 449.311 434.583 449.311C434.287 449.311 434.037 449.39 433.832 449.546C433.631 449.702 433.476 449.924 433.368 450.211C433.26 450.498 433.206 450.836 433.206 451.226ZM440.308 447.951L441.511 450.241L442.743 447.951H444.606L442.709 451.226L444.657 454.5H442.802L441.511 452.236L440.24 454.5H438.364L440.308 451.226L438.433 447.951H440.308Z" fill="#0B1530"/>
<mask id="path-21-inside-4_953_2984" fill="white">
<path d="M386 328H398V392H386V328Z"/>
</mask>
<path d="M398 328H400V326H398V328ZM398 392V394H400V392H398ZM386 330H398V326H386V330ZM396 328V392H400V328H396ZM398 390H386V394H398V390Z" fill="#33F7C3" mask="url(#path-21-inside-4_953_2984)"/>
<rect x="408.75" y="349.649" width="43.9061" height="20.7027" rx="3.75176" fill="#33F7C3"/>
<rect x="408.75" y="349.649" width="43.9061" height="20.7027" rx="3.75176" stroke="#33F7C3" stroke-width="1.5007"/>
<path d="M419.262 364.619C418.813 364.617 418.38 364.541 417.962 364.393C417.547 364.246 417.175 364.005 416.845 363.673C416.515 363.34 416.254 362.9 416.061 362.351C415.87 361.803 415.775 361.129 415.775 360.33C415.778 359.597 415.862 358.942 416.026 358.365C416.194 357.785 416.433 357.293 416.743 356.89C417.055 356.486 417.429 356.179 417.864 355.969C418.299 355.756 418.786 355.649 419.326 355.649C419.909 355.649 420.423 355.763 420.87 355.99C421.316 356.215 421.674 356.52 421.944 356.907C422.217 357.293 422.382 357.727 422.439 358.207H420.618C420.547 357.903 420.398 357.664 420.17 357.491C419.943 357.318 419.662 357.231 419.326 357.231C418.758 357.231 418.326 357.478 418.03 357.973C417.737 358.467 417.588 359.14 417.583 359.989H417.642C417.773 359.731 417.949 359.51 418.171 359.329C418.395 359.144 418.65 359.003 418.934 358.906C419.221 358.807 419.524 358.757 419.842 358.757C420.359 358.757 420.82 358.879 421.223 359.124C421.627 359.365 421.945 359.698 422.178 360.122C422.412 360.545 422.528 361.03 422.528 361.575C422.528 362.167 422.39 362.692 422.115 363.153C421.842 363.613 421.459 363.974 420.968 364.236C420.479 364.494 419.91 364.622 419.262 364.619ZM419.254 363.17C419.538 363.17 419.792 363.102 420.017 362.965C420.241 362.829 420.418 362.644 420.546 362.411C420.674 362.178 420.737 361.916 420.737 361.626C420.737 361.337 420.674 361.077 420.546 360.846C420.421 360.616 420.247 360.433 420.025 360.296C419.804 360.16 419.551 360.092 419.267 360.092C419.053 360.092 418.856 360.131 418.674 360.211C418.495 360.291 418.337 360.401 418.201 360.544C418.067 360.686 417.962 360.851 417.885 361.038C417.809 361.223 417.77 361.42 417.77 361.631C417.77 361.912 417.834 362.169 417.962 362.402C418.093 362.635 418.269 362.822 418.491 362.961C418.715 363.1 418.97 363.17 419.254 363.17ZM423.705 362.965V361.511L427.35 355.769H428.603V357.781H427.862L425.564 361.418V361.486H430.744V362.965H423.705ZM427.896 364.5V362.522L427.93 361.878V355.769H429.661V364.5H427.896ZM431.991 366.956V357.951H433.781V359.051H433.862C433.942 358.875 434.057 358.696 434.208 358.514C434.361 358.329 434.56 358.176 434.804 358.054C435.052 357.929 435.359 357.866 435.725 357.866C436.203 357.866 436.643 357.991 437.047 358.241C437.451 358.489 437.773 358.862 438.015 359.363C438.256 359.86 438.377 360.484 438.377 361.234C438.377 361.965 438.259 362.581 438.023 363.085C437.79 363.585 437.472 363.964 437.068 364.223C436.668 364.479 436.218 364.607 435.721 364.607C435.369 364.607 435.069 364.548 434.821 364.432C434.577 364.315 434.377 364.169 434.22 363.993C434.064 363.814 433.945 363.633 433.862 363.451H433.807V366.956H431.991ZM433.768 361.226C433.768 361.615 433.822 361.955 433.93 362.245C434.038 362.535 434.195 362.761 434.399 362.923C434.604 363.082 434.853 363.161 435.145 363.161C435.441 363.161 435.691 363.08 435.896 362.918C436.1 362.753 436.255 362.526 436.361 362.236C436.469 361.943 436.523 361.607 436.523 361.226C436.523 360.848 436.47 360.515 436.365 360.228C436.26 359.941 436.105 359.717 435.9 359.555C435.695 359.392 435.444 359.311 435.145 359.311C434.85 359.311 434.6 359.39 434.395 359.546C434.193 359.702 434.038 359.924 433.93 360.211C433.822 360.498 433.768 360.836 433.768 361.226ZM440.871 357.951L442.073 360.241L443.306 357.951H445.169L443.271 361.226L445.22 364.5H443.365L442.073 362.236L440.803 364.5H438.927L440.871 361.226L438.995 357.951H440.871Z" fill="#0B1530"/>
<path d="M59 508H453" stroke="#CED0D6" stroke-width="2"/>
<path d="M60.72 533.66H70.52V547H69.04V535.06H62.2V547H60.72V533.66ZM75.0422 545.84V551.6H73.6022V538.7H75.0422V539.86C75.7755 538.953 76.7222 538.5 77.8822 538.5C79.1222 538.5 80.1022 538.94 80.8222 539.82C81.5555 540.687 81.9222 541.713 81.9222 542.9C81.9222 544.1 81.5622 545.127 80.8422 545.98C80.1222 546.82 79.1555 547.24 77.9422 547.24C76.7289 547.24 75.7622 546.773 75.0422 545.84ZM77.7422 545.96C78.5555 545.96 79.2089 545.667 79.7022 545.08C80.1955 544.48 80.4422 543.753 80.4422 542.9C80.4422 541.94 80.1689 541.18 79.6222 540.62C79.0755 540.06 78.4422 539.78 77.7222 539.78C77.0022 539.78 76.3622 540.06 75.8022 540.62C75.2422 541.18 74.9622 541.933 74.9622 542.88C74.9622 543.747 75.2155 544.48 75.7222 545.08C76.2422 545.667 76.9155 545.96 77.7422 545.96ZM90.2895 544.22L91.4895 544.88C91.2095 545.413 90.8695 545.86 90.4695 546.22C89.7095 546.9 88.7895 547.24 87.7095 547.24C86.5895 547.24 85.6229 546.88 84.8095 546.16C84.0095 545.427 83.6095 544.34 83.6095 542.9C83.6095 541.633 83.9695 540.587 84.6895 539.76C85.4229 538.92 86.4029 538.5 87.6295 538.5C89.0162 538.5 90.0629 539.007 90.7695 540.02C91.3295 540.82 91.5895 541.86 91.5495 543.14H85.0895C85.1029 543.98 85.3629 544.66 85.8695 545.18C86.3762 545.7 86.9962 545.96 87.7295 545.96C88.3829 545.96 88.9495 545.76 89.4295 545.36C89.8029 545.04 90.0895 544.66 90.2895 544.22ZM85.1895 541.94H90.0695C89.9495 541.287 89.6629 540.767 89.2095 540.38C88.7695 539.98 88.2429 539.78 87.6295 539.78C87.0295 539.78 86.4962 539.987 86.0295 540.4C85.5762 540.8 85.2962 541.313 85.1895 541.94ZM94.3584 538.7H100.198V545.68H101.438V549.2H100.118V547H93.7984V549.2H92.4784V545.68C93.1718 545.667 93.6851 545.307 94.0184 544.6C94.2451 544.133 94.3584 543.4 94.3584 542.4V538.7ZM98.7584 545.68V540.02H95.7984V543.14C95.7984 544.247 95.4651 545.093 94.7984 545.68H98.7584ZM102.958 547V538.7H104.398V545.68H107.598V538.7H109.038V545.68H112.238V538.7H113.678V547H102.958ZM122.555 544.22L123.755 544.88C123.475 545.413 123.135 545.86 122.735 546.22C121.975 546.9 121.055 547.24 119.975 547.24C118.855 547.24 117.888 546.88 117.075 546.16C116.275 545.427 115.875 544.34 115.875 542.9C115.875 541.633 116.235 540.587 116.955 539.76C117.688 538.92 118.668 538.5 119.895 538.5C121.282 538.5 122.328 539.007 123.035 540.02C123.595 540.82 123.855 541.86 123.815 543.14H117.355C117.368 543.98 117.628 544.66 118.135 545.18C118.642 545.7 119.262 545.96 119.995 545.96C120.648 545.96 121.215 545.76 121.695 545.36C122.068 545.04 122.355 544.66 122.555 544.22ZM117.455 541.94H122.335C122.215 541.287 121.928 540.767 121.475 540.38C121.035 539.98 120.508 539.78 119.895 539.78C119.295 539.78 118.762 539.987 118.295 540.4C117.842 540.8 117.562 541.313 117.455 541.94ZM132.524 539.3V541.02C131.871 540.193 131.004 539.78 129.924 539.78C129.111 539.78 128.417 540.06 127.844 540.62C127.271 541.167 126.984 541.92 126.984 542.88C126.984 543.84 127.271 544.593 127.844 545.14C128.417 545.687 129.104 545.96 129.904 545.96C130.971 545.96 131.864 545.527 132.584 544.66V546.38C131.797 546.953 130.917 547.24 129.944 547.24C128.651 547.24 127.584 546.833 126.744 546.02C125.917 545.193 125.504 544.153 125.504 542.9C125.504 541.633 125.924 540.587 126.764 539.76C127.604 538.92 128.664 538.5 129.944 538.5C130.904 538.5 131.764 538.767 132.524 539.3ZM140.234 540.02H137.634V547H136.194V540.02H133.594V538.7H140.234V540.02ZM141.747 538.7H144.887C145.647 538.7 146.227 538.86 146.627 539.18C147.107 539.567 147.347 540.087 147.347 540.74C147.347 541.46 147.047 542.013 146.447 542.4C146.86 542.507 147.207 542.693 147.487 542.96C147.927 543.387 148.147 543.92 148.147 544.56C148.147 545.36 147.86 545.987 147.287 546.44C146.793 546.813 146.14 547 145.327 547H141.747V538.7ZM143.187 542.08H144.707C145.093 542.08 145.4 542 145.627 541.84C145.893 541.64 146.027 541.353 146.027 540.98C146.027 540.647 145.893 540.38 145.627 540.18C145.427 540.047 145.04 539.98 144.467 539.98H143.187V542.08ZM143.187 545.72H144.967C145.58 545.72 146.013 545.627 146.267 545.44C146.587 545.2 146.747 544.893 146.747 544.52C146.747 544.12 146.607 543.807 146.327 543.58C146.073 543.38 145.64 543.28 145.027 543.28H143.187V545.72ZM150.32 551.6L152.96 546.22L149.14 538.7H150.78L153.72 544.64L156.42 538.7H158.02L151.92 551.6H150.32ZM160.98 542.1H162.48C162.613 541.167 162.986 540.38 163.6 539.74C164.386 538.913 165.433 538.5 166.74 538.5C168.02 538.5 169.073 538.913 169.9 539.74C170.726 540.567 171.14 541.613 171.14 542.88C171.14 544.133 170.72 545.173 169.88 546C169.053 546.827 168.006 547.24 166.74 547.24C165.286 547.24 164.146 546.72 163.32 545.68C162.786 545.013 162.48 544.26 162.4 543.42H160.98V547H159.54V538.7H160.98V542.1ZM166.74 539.78C165.94 539.78 165.26 540.06 164.7 540.62C164.153 541.167 163.88 541.92 163.88 542.88C163.88 543.853 164.16 544.613 164.72 545.16C165.28 545.693 165.953 545.96 166.74 545.96C167.54 545.96 168.226 545.687 168.8 545.14C169.373 544.593 169.66 543.84 169.66 542.88C169.66 541.92 169.373 541.167 168.8 540.62C168.24 540.06 167.553 539.78 166.74 539.78ZM173.348 547V538.7H174.788V545.68H177.988V538.7H179.428V545.68H182.628V538.7H184.068V545.68H185.428V549.2H184.108V547H173.348ZM186.942 538.7H188.382V544.18L194.062 538.06V547H192.622V541.46L186.942 547.58V538.7ZM196.786 538.7H198.226V544.18L203.906 538.06V547H202.466V541.46L196.786 547.58V538.7ZM197.506 535.12L198.706 534.66C198.946 535.46 199.512 535.86 200.406 535.86C201.299 535.86 201.866 535.46 202.106 534.66L203.306 535.12C203.092 535.72 202.726 536.193 202.206 536.54C201.699 536.887 201.099 537.06 200.406 537.06C199.712 537.06 199.106 536.887 198.586 536.54C198.079 536.193 197.719 535.72 197.506 535.12ZM216.738 540.02H214.138V547H212.698V540.02H210.098V538.7H216.738V540.02ZM224.215 544.22L225.415 544.88C225.135 545.413 224.795 545.86 224.395 546.22C223.635 546.9 222.715 547.24 221.635 547.24C220.515 547.24 219.549 546.88 218.735 546.16C217.935 545.427 217.535 544.34 217.535 542.9C217.535 541.633 217.895 540.587 218.615 539.76C219.349 538.92 220.329 538.5 221.555 538.5C222.942 538.5 223.989 539.007 224.695 540.02C225.255 540.82 225.515 541.86 225.475 543.14H219.015C219.029 543.98 219.289 544.66 219.795 545.18C220.302 545.7 220.922 545.96 221.655 545.96C222.309 545.96 222.875 545.76 223.355 545.36C223.729 545.04 224.015 544.66 224.215 544.22ZM219.115 541.94H223.995C223.875 541.287 223.589 540.767 223.135 540.38C222.695 539.98 222.169 539.78 221.555 539.78C220.955 539.78 220.422 539.987 219.955 540.4C219.502 540.8 219.222 541.313 219.115 541.94ZM227.684 538.7H229.124V542.1L232.484 538.7H234.244L230.644 542.4L234.684 547H232.804L229.564 543.36L229.124 543.78V547H227.684V538.7ZM242.192 539.3V541.02C241.539 540.193 240.672 539.78 239.592 539.78C238.779 539.78 238.085 540.06 237.512 540.62C236.939 541.167 236.652 541.92 236.652 542.88C236.652 543.84 236.939 544.593 237.512 545.14C238.085 545.687 238.772 545.96 239.572 545.96C240.639 545.96 241.532 545.527 242.252 544.66V546.38C241.465 546.953 240.585 547.24 239.612 547.24C238.319 547.24 237.252 546.833 236.412 546.02C235.585 545.193 235.172 544.153 235.172 542.9C235.172 541.633 235.592 540.587 236.432 539.76C237.272 538.92 238.332 538.5 239.612 538.5C240.572 538.5 241.432 538.767 242.192 539.3ZM249.902 540.02H247.302V547H245.862V540.02H243.262V538.7H249.902V540.02ZM251.029 546.9C250.829 546.7 250.729 546.467 250.729 546.2C250.729 545.933 250.829 545.7 251.029 545.5C251.229 545.3 251.463 545.2 251.729 545.2C251.996 545.2 252.229 545.3 252.429 545.5C252.629 545.7 252.729 545.933 252.729 546.2C252.729 546.467 252.629 546.7 252.429 546.9C252.229 547.1 251.996 547.2 251.729 547.2C251.463 547.2 251.229 547.1 251.029 546.9Z" fill="#0B1530"/>
<path d="M65.804 601.324V608.296H72.804V601.324H77.676V620H72.804V612.44H65.804V620H60.96V601.324H65.804ZM80.4285 613.616H85.3845C85.4219 614.4 85.6739 615.025 86.1405 615.492C86.5885 615.977 87.2232 616.22 88.0445 616.22C88.8099 616.22 89.4445 615.949 89.9485 615.408C90.3219 614.979 90.5085 614.465 90.5085 613.868C90.5085 613.177 90.2659 612.627 89.7805 612.216C89.3512 611.861 88.7539 611.684 87.9885 611.684C87.6712 611.684 87.4005 611.721 87.1765 611.796V608.52C87.9979 608.632 88.6605 608.473 89.1645 608.044C89.5752 607.689 89.7805 607.251 89.7805 606.728C89.7805 606.168 89.6125 605.72 89.2765 605.384C88.9405 605.048 88.4832 604.88 87.9045 604.88C87.3259 604.88 86.8779 605.039 86.5605 605.356C86.1312 605.748 85.9165 606.299 85.9165 607.008H81.4085C81.5019 605.272 82.1085 603.844 83.2285 602.724C84.3859 601.511 86.0285 600.904 88.1565 600.904C90.1352 600.904 91.6845 601.455 92.8045 602.556C93.8125 603.564 94.3165 604.768 94.3165 606.168C94.3165 607.027 94.1299 607.792 93.7565 608.464C93.4019 609.117 92.9259 609.593 92.3285 609.892C93.2432 610.228 93.9805 610.797 94.5405 611.6C95.0632 612.365 95.3245 613.28 95.3245 614.344C95.3245 615.968 94.7739 617.331 93.6725 618.432C92.3472 619.757 90.4899 620.42 88.1005 620.42C85.9165 620.42 84.1339 619.776 82.7525 618.488C81.3899 617.237 80.6152 615.613 80.4285 613.616ZM104.929 614.428V610.732H126.405V614.428H104.929ZM150.614 615.884V620H135.634L140.366 615.044C142.065 613.271 143.344 611.693 144.202 610.312C144.874 609.267 145.21 608.296 145.21 607.4C145.21 606.616 145.024 606.019 144.65 605.608C144.314 605.235 143.857 605.048 143.278 605.048C142.588 605.048 142.046 605.3 141.654 605.804C141.244 606.327 141.02 607.092 140.982 608.1H135.97C135.989 606.009 136.68 604.283 138.042 602.92C139.386 601.576 141.15 600.904 143.334 600.904C145.556 600.904 147.31 601.548 148.598 602.836C149.812 604.049 150.418 605.58 150.418 607.428C150.418 609.407 149.494 611.255 147.646 612.972L144.51 615.884H150.614ZM163.399 610.172C164.333 610.452 165.135 610.928 165.807 611.6C166.759 612.533 167.235 613.635 167.235 614.904C167.235 616.248 166.731 617.424 165.723 618.432C164.398 619.757 162.513 620.42 160.067 620.42C157.659 620.42 155.802 619.767 154.495 618.46C153.469 617.433 152.955 616.248 152.955 614.904C152.955 614.307 153.086 613.7 153.347 613.084C153.609 612.449 153.935 611.936 154.327 611.544C154.943 610.928 155.727 610.471 156.679 610.172C156.007 609.911 155.447 609.556 154.999 609.108C154.159 608.268 153.739 607.279 153.739 606.14C153.739 604.759 154.253 603.583 155.279 602.612C156.511 601.473 158.173 600.904 160.263 600.904C162.317 600.904 163.922 601.501 165.079 602.696C165.994 603.611 166.451 604.749 166.451 606.112C166.451 607.288 166.069 608.259 165.303 609.024C164.799 609.528 164.165 609.911 163.399 610.172ZM160.151 604.152C159.517 604.152 159.003 604.367 158.611 604.796C158.238 605.207 158.051 605.683 158.051 606.224C158.051 606.691 158.247 607.139 158.639 607.568C159.031 607.979 159.526 608.184 160.123 608.184C160.665 608.184 161.122 607.997 161.495 607.624C161.925 607.195 162.139 606.719 162.139 606.196C162.139 605.599 161.925 605.104 161.495 604.712C161.085 604.339 160.637 604.152 160.151 604.152ZM160.095 612.132C159.517 612.132 158.994 612.347 158.527 612.776C158.079 613.224 157.855 613.737 157.855 614.316C157.855 614.932 158.07 615.455 158.499 615.884C158.947 616.332 159.479 616.556 160.095 616.556C160.711 616.556 161.234 616.341 161.663 615.912C162.111 615.464 162.335 614.932 162.335 614.316C162.335 613.7 162.111 613.187 161.663 612.776C161.215 612.347 160.693 612.132 160.095 612.132ZM174.504 618.796V626.412H170.024V607.484H174.504V608.856C175.456 607.661 176.735 607.064 178.34 607.064C180.095 607.064 181.579 607.671 182.792 608.884C184.062 610.153 184.696 611.768 184.696 613.728C184.696 615.725 184.024 617.377 182.68 618.684C181.504 619.841 180.076 620.42 178.396 620.42C176.847 620.42 175.55 619.879 174.504 618.796ZM177.248 610.872C176.464 610.872 175.792 611.152 175.232 611.712C174.654 612.291 174.364 612.981 174.364 613.784C174.364 614.531 174.654 615.193 175.232 615.772C175.792 616.332 176.464 616.612 177.248 616.612C178.051 616.612 178.714 616.332 179.236 615.772C179.815 615.193 180.104 614.531 180.104 613.784C180.104 612.981 179.815 612.291 179.236 611.712C178.714 611.152 178.051 610.872 177.248 610.872ZM185.738 620L191.982 613.196L186.914 607.484H192.738L194.894 610.06L197.106 607.484H202.902L197.722 613.196L203.994 620H198.058L194.866 616.276L191.674 620H185.738Z" fill="#0B1530"/>
<path d="M60.72 657.66H70.52V671H69.04V659.06H62.2V671H60.72V657.66ZM80.6222 670C79.7955 670.827 78.7489 671.24 77.4822 671.24C76.2155 671.24 75.1622 670.827 74.3222 670C73.4955 669.173 73.0822 668.133 73.0822 666.88C73.0822 665.613 73.4955 664.567 74.3222 663.74C75.1622 662.913 76.2155 662.5 77.4822 662.5C78.7489 662.5 79.7955 662.913 80.6222 663.74C81.4622 664.567 81.8822 665.613 81.8822 666.88C81.8822 668.133 81.4622 669.173 80.6222 670ZM79.5422 664.6C78.9822 664.053 78.2955 663.78 77.4822 663.78C76.6689 663.78 75.9755 664.06 75.4022 664.62C74.8422 665.167 74.5622 665.92 74.5622 666.88C74.5622 667.84 74.8489 668.593 75.4222 669.14C75.9955 669.687 76.6822 669.96 77.4822 669.96C78.2822 669.96 78.9689 669.687 79.5422 669.14C80.1155 668.593 80.4022 667.84 80.4022 666.88C80.4022 665.907 80.1155 665.147 79.5422 664.6ZM90.5905 663.3V665.02C89.9371 664.193 89.0705 663.78 87.9905 663.78C87.1771 663.78 86.4838 664.06 85.9105 664.62C85.3371 665.167 85.0505 665.92 85.0505 666.88C85.0505 667.84 85.3371 668.593 85.9105 669.14C86.4838 669.687 87.1705 669.96 87.9705 669.96C89.0371 669.96 89.9305 669.527 90.6505 668.66V670.38C89.8638 670.953 88.9838 671.24 88.0105 671.24C86.7171 671.24 85.6505 670.833 84.8105 670.02C83.9838 669.193 83.5705 668.153 83.5705 666.9C83.5705 665.633 83.9905 664.587 84.8305 663.76C85.6705 662.92 86.7305 662.5 88.0105 662.5C88.9705 662.5 89.8305 662.767 90.5905 663.3ZM99.14 662.7V671H97.7V664.02H94.74V667.76C94.74 668.84 94.5267 669.64 94.1 670.16C93.62 670.747 92.9533 671.04 92.1 671.04C91.9933 671.04 91.8467 671.027 91.66 671V669.68C91.7933 669.707 91.9 669.72 91.98 669.72C92.4467 669.72 92.7933 669.54 93.02 669.18C93.2067 668.887 93.3 668.413 93.3 667.76V662.7H99.14ZM108.024 668.22L109.224 668.88C108.944 669.413 108.604 669.86 108.204 670.22C107.444 670.9 106.524 671.24 105.444 671.24C104.324 671.24 103.357 670.88 102.544 670.16C101.744 669.427 101.344 668.34 101.344 666.9C101.344 665.633 101.704 664.587 102.424 663.76C103.157 662.92 104.137 662.5 105.364 662.5C106.751 662.5 107.797 663.007 108.504 664.02C109.064 664.82 109.324 665.86 109.284 667.14H102.824C102.837 667.98 103.097 668.66 103.604 669.18C104.111 669.7 104.731 669.96 105.464 669.96C106.117 669.96 106.684 669.76 107.164 669.36C107.537 669.04 107.824 668.66 108.024 668.22ZM102.924 665.94H107.804C107.684 665.287 107.397 664.767 106.944 664.38C106.504 663.98 105.977 663.78 105.364 663.78C104.764 663.78 104.231 663.987 103.764 664.4C103.311 664.8 103.031 665.313 102.924 665.94ZM112.093 662.7H117.933V669.68H119.173V673.2H117.853V671H111.533V673.2H110.213V669.68C110.906 669.667 111.419 669.307 111.753 668.6C111.979 668.133 112.093 667.4 112.093 666.4V662.7ZM116.493 669.68V664.02H113.533V667.14C113.533 668.247 113.199 669.093 112.533 669.68H116.493ZM120.672 675.6L123.312 670.22L119.492 662.7H121.132L124.072 668.64L126.772 662.7H128.372L122.272 675.6H120.672ZM131.331 666.1H132.831C132.965 665.167 133.338 664.38 133.951 663.74C134.738 662.913 135.785 662.5 137.091 662.5C138.371 662.5 139.425 662.913 140.251 663.74C141.078 664.567 141.491 665.613 141.491 666.88C141.491 668.133 141.071 669.173 140.231 670C139.405 670.827 138.358 671.24 137.091 671.24C135.638 671.24 134.498 670.72 133.671 669.68C133.138 669.013 132.831 668.26 132.751 667.42H131.331V671H129.891V662.7H131.331V666.1ZM137.091 663.78C136.291 663.78 135.611 664.06 135.051 664.62C134.505 665.167 134.231 665.92 134.231 666.88C134.231 667.853 134.511 668.613 135.071 669.16C135.631 669.693 136.305 669.96 137.091 669.96C137.891 669.96 138.578 669.687 139.151 669.14C139.725 668.593 140.011 667.84 140.011 666.88C140.011 665.92 139.725 665.167 139.151 664.62C138.591 664.06 137.905 663.78 137.091 663.78ZM143.7 671V662.7H145.14V669.68H148.34V662.7H149.78V669.68H152.98V662.7H154.42V669.68H155.78V673.2H154.46V671H143.7ZM157.294 662.7H158.734V668.18L164.414 662.06V671H162.974V665.46L157.294 671.58V662.7ZM167.137 662.7H168.577V668.18L174.257 662.06V671H172.817V665.46L167.137 671.58V662.7ZM167.857 659.12L169.057 658.66C169.297 659.46 169.864 659.86 170.757 659.86C171.651 659.86 172.217 659.46 172.457 658.66L173.657 659.12C173.444 659.72 173.077 660.193 172.557 660.54C172.051 660.887 171.451 661.06 170.757 661.06C170.064 661.06 169.457 660.887 168.937 660.54C168.431 660.193 168.071 659.72 167.857 659.12ZM187.089 664.02H184.489V671H183.049V664.02H180.449V662.7H187.089V664.02ZM194.567 668.22L195.767 668.88C195.487 669.413 195.147 669.86 194.747 670.22C193.987 670.9 193.067 671.24 191.987 671.24C190.867 671.24 189.9 670.88 189.087 670.16C188.287 669.427 187.887 668.34 187.887 666.9C187.887 665.633 188.247 664.587 188.967 663.76C189.7 662.92 190.68 662.5 191.907 662.5C193.294 662.5 194.34 663.007 195.047 664.02C195.607 664.82 195.867 665.86 195.827 667.14H189.367C189.38 667.98 189.64 668.66 190.147 669.18C190.654 669.7 191.274 669.96 192.007 669.96C192.66 669.96 193.227 669.76 193.707 669.36C194.08 669.04 194.367 668.66 194.567 668.22ZM189.467 665.94H194.347C194.227 665.287 193.94 664.767 193.487 664.38C193.047 663.98 192.52 663.78 191.907 663.78C191.307 663.78 190.774 663.987 190.307 664.4C189.854 664.8 189.574 665.313 189.467 665.94ZM198.036 662.7H199.476V666.1L202.836 662.7H204.596L200.996 666.4L205.036 671H203.156L199.916 667.36L199.476 667.78V671H198.036V662.7ZM212.544 663.3V665.02C211.89 664.193 211.024 663.78 209.944 663.78C209.13 663.78 208.437 664.06 207.864 664.62C207.29 665.167 207.004 665.92 207.004 666.88C207.004 667.84 207.29 668.593 207.864 669.14C208.437 669.687 209.124 669.96 209.924 669.96C210.99 669.96 211.884 669.527 212.604 668.66V670.38C211.817 670.953 210.937 671.24 209.964 671.24C208.67 671.24 207.604 670.833 206.764 670.02C205.937 669.193 205.524 668.153 205.524 666.9C205.524 665.633 205.944 664.587 206.784 663.76C207.624 662.92 208.684 662.5 209.964 662.5C210.924 662.5 211.784 662.767 212.544 663.3ZM220.253 664.02H217.653V671H216.213V664.02H213.613V662.7H220.253V664.02Z" fill="#0B1530"/>
<mask id="path-29-inside-5_953_2984" fill="white">
<path d="M386 628H398V652H386V628Z"/>
</mask>
<path d="M398 628H400V626H398V628ZM398 652V654H400V652H398ZM386 630H398V626H386V630ZM396 628V652H400V628H396ZM398 650H386V654H398V650Z" fill="#33F7C3" mask="url(#path-29-inside-5_953_2984)"/>
<rect x="408.75" y="629.649" width="42.9061" height="20.7027" rx="3.75176" fill="#33F7C3"/>
<rect x="408.75" y="629.649" width="42.9061" height="20.7027" rx="3.75176" stroke="#33F7C3" stroke-width="1.5007"/>
<path d="M415.911 644.5V643.17L419.019 640.292C419.284 640.036 419.505 639.806 419.684 639.601C419.866 639.397 420.004 639.196 420.098 639C420.192 638.801 420.239 638.587 420.239 638.356C420.239 638.101 420.18 637.88 420.064 637.696C419.947 637.508 419.788 637.365 419.586 637.265C419.385 637.163 419.156 637.112 418.9 637.112C418.633 637.112 418.4 637.166 418.201 637.274C418.002 637.382 417.848 637.537 417.74 637.738C417.632 637.94 417.578 638.18 417.578 638.459H415.826C415.826 637.888 415.955 637.392 416.214 636.971C416.473 636.55 416.835 636.225 417.301 635.995C417.767 635.764 418.304 635.649 418.913 635.649C419.538 635.649 420.082 635.76 420.546 635.982C421.012 636.201 421.374 636.505 421.633 636.894C421.891 637.284 422.021 637.73 422.021 638.233C422.021 638.563 421.955 638.888 421.825 639.209C421.697 639.53 421.468 639.887 421.138 640.279C420.809 640.669 420.344 641.136 419.744 641.682L418.469 642.931V642.991H422.136V644.5H415.911ZM423.154 642.965V641.511L426.799 635.769H428.052V637.781H427.31L425.013 641.418V641.486H430.193V642.965H423.154ZM427.345 644.5V642.522L427.379 641.878V635.769H429.11V644.5H427.345ZM431.44 646.956V637.951H433.23V639.051H433.311C433.391 638.875 433.506 638.696 433.657 638.514C433.81 638.329 434.009 638.176 434.253 638.054C434.501 637.929 434.808 637.866 435.174 637.866C435.652 637.866 436.092 637.991 436.496 638.241C436.9 638.489 437.222 638.862 437.464 639.363C437.705 639.86 437.826 640.484 437.826 641.234C437.826 641.965 437.708 642.581 437.472 643.085C437.239 643.585 436.921 643.964 436.517 644.223C436.116 644.479 435.667 644.607 435.17 644.607C434.818 644.607 434.518 644.548 434.27 644.432C434.026 644.315 433.826 644.169 433.669 643.993C433.513 643.814 433.394 643.633 433.311 643.451H433.256V646.956H431.44ZM433.217 641.226C433.217 641.615 433.271 641.955 433.379 642.245C433.487 642.535 433.644 642.761 433.848 642.923C434.053 643.082 434.302 643.161 434.594 643.161C434.89 643.161 435.14 643.08 435.345 642.918C435.549 642.753 435.704 642.526 435.81 642.236C435.918 641.943 435.972 641.607 435.972 641.226C435.972 640.848 435.919 640.515 435.814 640.228C435.709 639.941 435.554 639.717 435.349 639.555C435.144 639.392 434.893 639.311 434.594 639.311C434.299 639.311 434.049 639.39 433.844 639.546C433.642 639.702 433.487 639.924 433.379 640.211C433.271 640.498 433.217 640.836 433.217 641.226ZM440.32 637.951L441.522 640.241L442.755 637.951H444.618L442.72 641.226L444.669 644.5H442.814L441.522 642.236L440.252 644.5H438.376L440.32 641.226L438.444 637.951H440.32Z" fill="#0B1530"/>
<mask id="path-33-inside-6_953_2984" fill="white">
<path d="M386 551H398V591H386V551Z"/>
</mask>
<path d="M398 551H400V549H398V551ZM398 591V593H400V591H398ZM386 553H398V549H386V553ZM396 551V591H400V551H396ZM398 589H386V593H398V589Z" fill="#33F7C3" mask="url(#path-33-inside-6_953_2984)"/>
<rect x="408.75" y="560.649" width="43.9061" height="20.7027" rx="3.75176" fill="#33F7C3"/>
<rect x="408.75" y="560.649" width="43.9061" height="20.7027" rx="3.75176" stroke="#33F7C3" stroke-width="1.5007"/>
<path d="M415.779 573.965V572.511L419.424 566.769H420.678V568.781H419.936L417.638 572.418V572.486H422.818V573.965H415.779ZM419.97 575.5V573.522L420.004 572.878V566.769H421.735V575.5H419.97ZM427.471 575.692C426.738 575.689 426.107 575.509 425.579 575.15C425.053 574.792 424.648 574.274 424.363 573.594C424.082 572.915 423.943 572.098 423.946 571.143C423.946 570.191 424.086 569.379 424.368 568.708C424.652 568.038 425.057 567.528 425.583 567.178C426.111 566.825 426.741 566.649 427.471 566.649C428.202 566.649 428.83 566.825 429.356 567.178C429.885 567.53 430.291 568.042 430.575 568.713C430.859 569.381 431 570.191 430.997 571.143C430.997 572.101 430.855 572.919 430.571 573.599C430.29 574.278 429.886 574.797 429.36 575.155C428.834 575.513 428.205 575.692 427.471 575.692ZM427.471 574.161C427.972 574.161 428.371 573.91 428.669 573.407C428.968 572.904 429.116 572.149 429.113 571.143C429.113 570.481 429.045 569.929 428.908 569.489C428.775 569.048 428.584 568.717 428.337 568.495C428.092 568.274 427.804 568.163 427.471 568.163C426.974 568.163 426.576 568.411 426.278 568.909C425.979 569.406 425.829 570.151 425.826 571.143C425.826 571.814 425.893 572.374 426.026 572.823C426.163 573.269 426.354 573.604 426.602 573.829C426.849 574.05 427.139 574.161 427.471 574.161ZM432.331 577.956V568.951H434.121V570.051H434.202C434.282 569.875 434.397 569.696 434.548 569.514C434.701 569.329 434.9 569.176 435.144 569.054C435.392 568.929 435.699 568.866 436.065 568.866C436.543 568.866 436.983 568.991 437.387 569.241C437.791 569.489 438.113 569.862 438.355 570.363C438.596 570.86 438.717 571.484 438.717 572.234C438.717 572.965 438.599 573.581 438.363 574.085C438.13 574.585 437.812 574.964 437.408 575.223C437.008 575.479 436.558 575.607 436.061 575.607C435.709 575.607 435.409 575.548 435.161 575.432C434.917 575.315 434.717 575.169 434.56 574.993C434.404 574.814 434.285 574.633 434.202 574.451H434.147V577.956H432.331ZM434.108 572.226C434.108 572.615 434.162 572.955 434.27 573.245C434.378 573.535 434.535 573.761 434.739 573.923C434.944 574.082 435.193 574.161 435.485 574.161C435.781 574.161 436.031 574.08 436.236 573.918C436.44 573.753 436.595 573.526 436.701 573.236C436.809 572.943 436.863 572.607 436.863 572.226C436.863 571.848 436.81 571.515 436.705 571.228C436.6 570.941 436.445 570.717 436.24 570.555C436.035 570.392 435.784 570.311 435.485 570.311C435.19 570.311 434.94 570.39 434.735 570.546C434.533 570.702 434.378 570.924 434.27 571.211C434.162 571.498 434.108 571.836 434.108 572.226ZM441.211 568.951L442.413 571.241L443.646 568.951H445.509L443.611 572.226L445.56 575.5H443.705L442.413 573.236L441.143 575.5H439.267L441.211 572.226L439.335 568.951H441.211Z" fill="#0B1530"/>
</svg>
